G04 #@! TF.GenerationSoftware,KiCad,Pcbnew,6.0.11-2627ca5db0~126~ubuntu20.04.1*
G04 #@! TF.CreationDate,2024-01-15T23:09:37+09:00*
G04 #@! TF.ProjectId,motor_driver,6d6f746f-725f-4647-9269-7665722e6b69,rev?*
G04 #@! TF.SameCoordinates,Original*
G04 #@! TF.FileFunction,Legend,Bot*
G04 #@! TF.FilePolarity,Positive*
%FSLAX46Y46*%
G04 Gerber Fmt 4.6, Leading zero omitted, Abs format (unit mm)*
G04 Created by KiCad (PCBNEW 6.0.11-2627ca5db0~126~ubuntu20.04.1) date 2024-01-15 23:09:37*
%MOMM*%
%LPD*%
G01*
G04 APERTURE LIST*
G04 Aperture macros list*
%AMRoundRect*
0 Rectangle with rounded corners*
0 $1 Rounding radius*
0 $2 $3 $4 $5 $6 $7 $8 $9 X,Y pos of 4 corners*
0 Add a 4 corners polygon primitive as box body*
4,1,4,$2,$3,$4,$5,$6,$7,$8,$9,$2,$3,0*
0 Add four circle primitives for the rounded corners*
1,1,$1+$1,$2,$3*
1,1,$1+$1,$4,$5*
1,1,$1+$1,$6,$7*
1,1,$1+$1,$8,$9*
0 Add four rect primitives between the rounded corners*
20,1,$1+$1,$2,$3,$4,$5,0*
20,1,$1+$1,$4,$5,$6,$7,0*
20,1,$1+$1,$6,$7,$8,$9,0*
20,1,$1+$1,$8,$9,$2,$3,0*%
G04 Aperture macros list end*
%ADD10C,0.150000*%
%ADD11C,0.120000*%
%ADD12C,3.600000*%
%ADD13C,6.400000*%
%ADD14R,3.800000X3.800000*%
%ADD15C,4.000000*%
%ADD16R,1.000000X1.000000*%
%ADD17O,1.000000X1.000000*%
%ADD18C,0.508000*%
%ADD19RoundRect,0.250000X0.450000X-0.350000X0.450000X0.350000X-0.450000X0.350000X-0.450000X-0.350000X0*%
%ADD20RoundRect,0.225000X0.250000X-0.225000X0.250000X0.225000X-0.250000X0.225000X-0.250000X-0.225000X0*%
%ADD21RoundRect,0.225000X-0.225000X-0.250000X0.225000X-0.250000X0.225000X0.250000X-0.225000X0.250000X0*%
%ADD22RoundRect,0.250000X-0.450000X0.350000X-0.450000X-0.350000X0.450000X-0.350000X0.450000X0.350000X0*%
%ADD23R,2.400000X1.450000*%
%ADD24R,3.100000X3.000000*%
%ADD25RoundRect,0.100000X-0.100000X0.687500X-0.100000X-0.687500X0.100000X-0.687500X0.100000X0.687500X0*%
%ADD26RoundRect,0.150000X0.512500X0.150000X-0.512500X0.150000X-0.512500X-0.150000X0.512500X-0.150000X0*%
%ADD27RoundRect,0.225000X-0.250000X0.225000X-0.250000X-0.225000X0.250000X-0.225000X0.250000X0.225000X0*%
%ADD28R,0.650000X1.560000*%
%ADD29RoundRect,0.150000X-0.150000X0.587500X-0.150000X-0.587500X0.150000X-0.587500X0.150000X0.587500X0*%
%ADD30RoundRect,0.200000X-0.200000X-0.275000X0.200000X-0.275000X0.200000X0.275000X-0.200000X0.275000X0*%
%ADD31RoundRect,0.140000X-0.170000X0.140000X-0.170000X-0.140000X0.170000X-0.140000X0.170000X0.140000X0*%
G04 APERTURE END LIST*
D10*
X95671580Y-91425733D02*
X95195390Y-91092400D01*
X95671580Y-90854304D02*
X94671580Y-90854304D01*
X94671580Y-91235257D01*
X94719200Y-91330495D01*
X94766819Y-91378114D01*
X94862057Y-91425733D01*
X95004914Y-91425733D01*
X95100152Y-91378114D01*
X95147771Y-91330495D01*
X95195390Y-91235257D01*
X95195390Y-90854304D01*
X95004914Y-92282876D02*
X95671580Y-92282876D01*
X94623961Y-92044780D02*
X95338247Y-91806685D01*
X95338247Y-92425733D01*
X137379942Y-84830842D02*
X137427561Y-84783223D01*
X137475180Y-84640366D01*
X137475180Y-84545128D01*
X137427561Y-84402271D01*
X137332323Y-84307033D01*
X137237085Y-84259414D01*
X137046609Y-84211795D01*
X136903752Y-84211795D01*
X136713276Y-84259414D01*
X136618038Y-84307033D01*
X136522800Y-84402271D01*
X136475180Y-84545128D01*
X136475180Y-84640366D01*
X136522800Y-84783223D01*
X136570419Y-84830842D01*
X137475180Y-85783223D02*
X137475180Y-85211795D01*
X137475180Y-85497509D02*
X136475180Y-85497509D01*
X136618038Y-85402271D01*
X136713276Y-85307033D01*
X136760895Y-85211795D01*
X136475180Y-86640366D02*
X136475180Y-86449890D01*
X136522800Y-86354652D01*
X136570419Y-86307033D01*
X136713276Y-86211795D01*
X136903752Y-86164176D01*
X137284704Y-86164176D01*
X137379942Y-86211795D01*
X137427561Y-86259414D01*
X137475180Y-86354652D01*
X137475180Y-86545128D01*
X137427561Y-86640366D01*
X137379942Y-86687985D01*
X137284704Y-86735604D01*
X137046609Y-86735604D01*
X136951371Y-86687985D01*
X136903752Y-86640366D01*
X136856133Y-86545128D01*
X136856133Y-86354652D01*
X136903752Y-86259414D01*
X136951371Y-86211795D01*
X137046609Y-86164176D01*
X128811257Y-86158342D02*
X128858876Y-86205961D01*
X129001733Y-86253580D01*
X129096971Y-86253580D01*
X129239828Y-86205961D01*
X129335066Y-86110723D01*
X129382685Y-86015485D01*
X129430304Y-85825009D01*
X129430304Y-85682152D01*
X129382685Y-85491676D01*
X129335066Y-85396438D01*
X129239828Y-85301200D01*
X129096971Y-85253580D01*
X129001733Y-85253580D01*
X128858876Y-85301200D01*
X128811257Y-85348819D01*
X127858876Y-86253580D02*
X128430304Y-86253580D01*
X128144590Y-86253580D02*
X128144590Y-85253580D01*
X128239828Y-85396438D01*
X128335066Y-85491676D01*
X128430304Y-85539295D01*
X126954114Y-85253580D02*
X127430304Y-85253580D01*
X127477923Y-85729771D01*
X127430304Y-85682152D01*
X127335066Y-85634533D01*
X127096971Y-85634533D01*
X127001733Y-85682152D01*
X126954114Y-85729771D01*
X126906495Y-85825009D01*
X126906495Y-86063104D01*
X126954114Y-86158342D01*
X127001733Y-86205961D01*
X127096971Y-86253580D01*
X127335066Y-86253580D01*
X127430304Y-86205961D01*
X127477923Y-86158342D01*
X123103180Y-90950722D02*
X122626990Y-90617389D01*
X123103180Y-90379294D02*
X122103180Y-90379294D01*
X122103180Y-90760246D01*
X122150800Y-90855484D01*
X122198419Y-90903103D01*
X122293657Y-90950722D01*
X122436514Y-90950722D01*
X122531752Y-90903103D01*
X122579371Y-90855484D01*
X122626990Y-90760246D01*
X122626990Y-90379294D01*
X123103180Y-91903103D02*
X123103180Y-91331675D01*
X123103180Y-91617389D02*
X122103180Y-91617389D01*
X122246038Y-91522151D01*
X122341276Y-91426913D01*
X122388895Y-91331675D01*
X122198419Y-92284056D02*
X122150800Y-92331675D01*
X122103180Y-92426913D01*
X122103180Y-92665008D01*
X122150800Y-92760246D01*
X122198419Y-92807865D01*
X122293657Y-92855484D01*
X122388895Y-92855484D01*
X122531752Y-92807865D01*
X123103180Y-92236437D01*
X123103180Y-92855484D01*
X130700304Y-118514761D02*
X130557447Y-118562380D01*
X130319352Y-118562380D01*
X130224114Y-118514761D01*
X130176495Y-118467142D01*
X130128876Y-118371904D01*
X130128876Y-118276666D01*
X130176495Y-118181428D01*
X130224114Y-118133809D01*
X130319352Y-118086190D01*
X130509828Y-118038571D01*
X130605066Y-117990952D01*
X130652685Y-117943333D01*
X130700304Y-117848095D01*
X130700304Y-117752857D01*
X130652685Y-117657619D01*
X130605066Y-117610000D01*
X130509828Y-117562380D01*
X130271733Y-117562380D01*
X130128876Y-117610000D01*
X129700304Y-118562380D02*
X129700304Y-117562380D01*
X129319352Y-117562380D01*
X129224114Y-117610000D01*
X129176495Y-117657619D01*
X129128876Y-117752857D01*
X129128876Y-117895714D01*
X129176495Y-117990952D01*
X129224114Y-118038571D01*
X129319352Y-118086190D01*
X129700304Y-118086190D01*
X128176495Y-118562380D02*
X128747923Y-118562380D01*
X128462209Y-118562380D02*
X128462209Y-117562380D01*
X128557447Y-117705238D01*
X128652685Y-117800476D01*
X128747923Y-117848095D01*
X131976057Y-94467942D02*
X132023676Y-94515561D01*
X132166533Y-94563180D01*
X132261771Y-94563180D01*
X132404628Y-94515561D01*
X132499866Y-94420323D01*
X132547485Y-94325085D01*
X132595104Y-94134609D01*
X132595104Y-93991752D01*
X132547485Y-93801276D01*
X132499866Y-93706038D01*
X132404628Y-93610800D01*
X132261771Y-93563180D01*
X132166533Y-93563180D01*
X132023676Y-93610800D01*
X131976057Y-93658419D01*
X131023676Y-94563180D02*
X131595104Y-94563180D01*
X131309390Y-94563180D02*
X131309390Y-93563180D01*
X131404628Y-93706038D01*
X131499866Y-93801276D01*
X131595104Y-93848895D01*
X130452247Y-93991752D02*
X130547485Y-93944133D01*
X130595104Y-93896514D01*
X130642723Y-93801276D01*
X130642723Y-93753657D01*
X130595104Y-93658419D01*
X130547485Y-93610800D01*
X130452247Y-93563180D01*
X130261771Y-93563180D01*
X130166533Y-93610800D01*
X130118914Y-93658419D01*
X130071295Y-93753657D01*
X130071295Y-93801276D01*
X130118914Y-93896514D01*
X130166533Y-93944133D01*
X130261771Y-93991752D01*
X130452247Y-93991752D01*
X130547485Y-94039371D01*
X130595104Y-94086990D01*
X130642723Y-94182228D01*
X130642723Y-94372704D01*
X130595104Y-94467942D01*
X130547485Y-94515561D01*
X130452247Y-94563180D01*
X130261771Y-94563180D01*
X130166533Y-94515561D01*
X130118914Y-94467942D01*
X130071295Y-94372704D01*
X130071295Y-94182228D01*
X130118914Y-94086990D01*
X130166533Y-94039371D01*
X130261771Y-93991752D01*
X106445580Y-91425733D02*
X105969390Y-91092400D01*
X106445580Y-90854304D02*
X105445580Y-90854304D01*
X105445580Y-91235257D01*
X105493200Y-91330495D01*
X105540819Y-91378114D01*
X105636057Y-91425733D01*
X105778914Y-91425733D01*
X105874152Y-91378114D01*
X105921771Y-91330495D01*
X105969390Y-91235257D01*
X105969390Y-90854304D01*
X105445580Y-92330495D02*
X105445580Y-91854304D01*
X105921771Y-91806685D01*
X105874152Y-91854304D01*
X105826533Y-91949542D01*
X105826533Y-92187638D01*
X105874152Y-92282876D01*
X105921771Y-92330495D01*
X106017009Y-92378114D01*
X106255104Y-92378114D01*
X106350342Y-92330495D01*
X106397961Y-92282876D01*
X106445580Y-92187638D01*
X106445580Y-91949542D01*
X106397961Y-91854304D01*
X106350342Y-91806685D01*
X117367580Y-91425733D02*
X116891390Y-91092400D01*
X117367580Y-90854304D02*
X116367580Y-90854304D01*
X116367580Y-91235257D01*
X116415200Y-91330495D01*
X116462819Y-91378114D01*
X116558057Y-91425733D01*
X116700914Y-91425733D01*
X116796152Y-91378114D01*
X116843771Y-91330495D01*
X116891390Y-91235257D01*
X116891390Y-90854304D01*
X116367580Y-92282876D02*
X116367580Y-92092400D01*
X116415200Y-91997161D01*
X116462819Y-91949542D01*
X116605676Y-91854304D01*
X116796152Y-91806685D01*
X117177104Y-91806685D01*
X117272342Y-91854304D01*
X117319961Y-91901923D01*
X117367580Y-91997161D01*
X117367580Y-92187638D01*
X117319961Y-92282876D01*
X117272342Y-92330495D01*
X117177104Y-92378114D01*
X116939009Y-92378114D01*
X116843771Y-92330495D01*
X116796152Y-92282876D01*
X116748533Y-92187638D01*
X116748533Y-91997161D01*
X116796152Y-91901923D01*
X116843771Y-91854304D01*
X116939009Y-91806685D01*
X101159980Y-90949542D02*
X100683790Y-90616209D01*
X101159980Y-90378114D02*
X100159980Y-90378114D01*
X100159980Y-90759066D01*
X100207600Y-90854304D01*
X100255219Y-90901923D01*
X100350457Y-90949542D01*
X100493314Y-90949542D01*
X100588552Y-90901923D01*
X100636171Y-90854304D01*
X100683790Y-90759066D01*
X100683790Y-90378114D01*
X101159980Y-91901923D02*
X101159980Y-91330495D01*
X101159980Y-91616209D02*
X100159980Y-91616209D01*
X100302838Y-91520971D01*
X100398076Y-91425733D01*
X100445695Y-91330495D01*
X100159980Y-92520971D02*
X100159980Y-92616209D01*
X100207600Y-92711447D01*
X100255219Y-92759066D01*
X100350457Y-92806685D01*
X100540933Y-92854304D01*
X100779028Y-92854304D01*
X100969504Y-92806685D01*
X101064742Y-92759066D01*
X101112361Y-92711447D01*
X101159980Y-92616209D01*
X101159980Y-92520971D01*
X101112361Y-92425733D01*
X101064742Y-92378114D01*
X100969504Y-92330495D01*
X100779028Y-92282876D01*
X100540933Y-92282876D01*
X100350457Y-92330495D01*
X100255219Y-92378114D01*
X100207600Y-92425733D01*
X100159980Y-92520971D01*
X120141904Y-99985580D02*
X120141904Y-100795104D01*
X120094285Y-100890342D01*
X120046666Y-100937961D01*
X119951428Y-100985580D01*
X119760952Y-100985580D01*
X119665714Y-100937961D01*
X119618095Y-100890342D01*
X119570476Y-100795104D01*
X119570476Y-99985580D01*
X118665714Y-100318914D02*
X118665714Y-100985580D01*
X118903809Y-99937961D02*
X119141904Y-100652247D01*
X118522857Y-100652247D01*
X107238704Y-75690780D02*
X107238704Y-76500304D01*
X107191085Y-76595542D01*
X107143466Y-76643161D01*
X107048228Y-76690780D01*
X106857752Y-76690780D01*
X106762514Y-76643161D01*
X106714895Y-76595542D01*
X106667276Y-76500304D01*
X106667276Y-75690780D01*
X105667276Y-76690780D02*
X106238704Y-76690780D01*
X105952990Y-76690780D02*
X105952990Y-75690780D01*
X106048228Y-75833638D01*
X106143466Y-75928876D01*
X106238704Y-75976495D01*
X134922457Y-94518742D02*
X134970076Y-94566361D01*
X135112933Y-94613980D01*
X135208171Y-94613980D01*
X135351028Y-94566361D01*
X135446266Y-94471123D01*
X135493885Y-94375885D01*
X135541504Y-94185409D01*
X135541504Y-94042552D01*
X135493885Y-93852076D01*
X135446266Y-93756838D01*
X135351028Y-93661600D01*
X135208171Y-93613980D01*
X135112933Y-93613980D01*
X134970076Y-93661600D01*
X134922457Y-93709219D01*
X133970076Y-94613980D02*
X134541504Y-94613980D01*
X134255790Y-94613980D02*
X134255790Y-93613980D01*
X134351028Y-93756838D01*
X134446266Y-93852076D01*
X134541504Y-93899695D01*
X133636742Y-93613980D02*
X132970076Y-93613980D01*
X133398647Y-94613980D01*
X137983980Y-85148495D02*
X138793504Y-85148495D01*
X138888742Y-85196114D01*
X138936361Y-85243733D01*
X138983980Y-85338971D01*
X138983980Y-85529447D01*
X138936361Y-85624685D01*
X138888742Y-85672304D01*
X138793504Y-85719923D01*
X137983980Y-85719923D01*
X138412552Y-86338971D02*
X138364933Y-86243733D01*
X138317314Y-86196114D01*
X138222076Y-86148495D01*
X138174457Y-86148495D01*
X138079219Y-86196114D01*
X138031600Y-86243733D01*
X137983980Y-86338971D01*
X137983980Y-86529447D01*
X138031600Y-86624685D01*
X138079219Y-86672304D01*
X138174457Y-86719923D01*
X138222076Y-86719923D01*
X138317314Y-86672304D01*
X138364933Y-86624685D01*
X138412552Y-86529447D01*
X138412552Y-86338971D01*
X138460171Y-86243733D01*
X138507790Y-86196114D01*
X138603028Y-86148495D01*
X138793504Y-86148495D01*
X138888742Y-86196114D01*
X138936361Y-86243733D01*
X138983980Y-86338971D01*
X138983980Y-86529447D01*
X138936361Y-86624685D01*
X138888742Y-86672304D01*
X138793504Y-86719923D01*
X138603028Y-86719923D01*
X138507790Y-86672304D01*
X138460171Y-86624685D01*
X138412552Y-86529447D01*
X112035580Y-90949542D02*
X111559390Y-90616209D01*
X112035580Y-90378114D02*
X111035580Y-90378114D01*
X111035580Y-90759066D01*
X111083200Y-90854304D01*
X111130819Y-90901923D01*
X111226057Y-90949542D01*
X111368914Y-90949542D01*
X111464152Y-90901923D01*
X111511771Y-90854304D01*
X111559390Y-90759066D01*
X111559390Y-90378114D01*
X112035580Y-91901923D02*
X112035580Y-91330495D01*
X112035580Y-91616209D02*
X111035580Y-91616209D01*
X111178438Y-91520971D01*
X111273676Y-91425733D01*
X111321295Y-91330495D01*
X112035580Y-92854304D02*
X112035580Y-92282876D01*
X112035580Y-92568590D02*
X111035580Y-92568590D01*
X111178438Y-92473352D01*
X111273676Y-92378114D01*
X111321295Y-92282876D01*
X134290780Y-87405295D02*
X135100304Y-87405295D01*
X135195542Y-87452914D01*
X135243161Y-87500533D01*
X135290780Y-87595771D01*
X135290780Y-87786247D01*
X135243161Y-87881485D01*
X135195542Y-87929104D01*
X135100304Y-87976723D01*
X134290780Y-87976723D01*
X135290780Y-88500533D02*
X135290780Y-88691009D01*
X135243161Y-88786247D01*
X135195542Y-88833866D01*
X135052685Y-88929104D01*
X134862209Y-88976723D01*
X134481257Y-88976723D01*
X134386019Y-88929104D01*
X134338400Y-88881485D01*
X134290780Y-88786247D01*
X134290780Y-88595771D01*
X134338400Y-88500533D01*
X134386019Y-88452914D01*
X134481257Y-88405295D01*
X134719352Y-88405295D01*
X134814590Y-88452914D01*
X134862209Y-88500533D01*
X134909828Y-88595771D01*
X134909828Y-88786247D01*
X134862209Y-88881485D01*
X134814590Y-88929104D01*
X134719352Y-88976723D01*
X102486742Y-78690533D02*
X102534361Y-78642914D01*
X102581980Y-78500057D01*
X102581980Y-78404819D01*
X102534361Y-78261961D01*
X102439123Y-78166723D01*
X102343885Y-78119104D01*
X102153409Y-78071485D01*
X102010552Y-78071485D01*
X101820076Y-78119104D01*
X101724838Y-78166723D01*
X101629600Y-78261961D01*
X101581980Y-78404819D01*
X101581980Y-78500057D01*
X101629600Y-78642914D01*
X101677219Y-78690533D01*
X101581980Y-79595295D02*
X101581980Y-79119104D01*
X102058171Y-79071485D01*
X102010552Y-79119104D01*
X101962933Y-79214342D01*
X101962933Y-79452438D01*
X102010552Y-79547676D01*
X102058171Y-79595295D01*
X102153409Y-79642914D01*
X102391504Y-79642914D01*
X102486742Y-79595295D01*
X102534361Y-79547676D01*
X102581980Y-79452438D01*
X102581980Y-79214342D01*
X102534361Y-79119104D01*
X102486742Y-79071485D01*
X133257238Y-114972319D02*
X133352476Y-114924700D01*
X133447714Y-114829461D01*
X133590571Y-114686604D01*
X133685809Y-114638985D01*
X133781047Y-114638985D01*
X133733428Y-114877080D02*
X133828666Y-114829461D01*
X133923904Y-114734223D01*
X133971523Y-114543747D01*
X133971523Y-114210414D01*
X133923904Y-114019938D01*
X133828666Y-113924700D01*
X133733428Y-113877080D01*
X133542952Y-113877080D01*
X133447714Y-113924700D01*
X133352476Y-114019938D01*
X133304857Y-114210414D01*
X133304857Y-114543747D01*
X133352476Y-114734223D01*
X133447714Y-114829461D01*
X133542952Y-114877080D01*
X133733428Y-114877080D01*
X132352476Y-114877080D02*
X132923904Y-114877080D01*
X132638190Y-114877080D02*
X132638190Y-113877080D01*
X132733428Y-114019938D01*
X132828666Y-114115176D01*
X132923904Y-114162795D01*
X138021257Y-94526342D02*
X138068876Y-94573961D01*
X138211733Y-94621580D01*
X138306971Y-94621580D01*
X138449828Y-94573961D01*
X138545066Y-94478723D01*
X138592685Y-94383485D01*
X138640304Y-94193009D01*
X138640304Y-94050152D01*
X138592685Y-93859676D01*
X138545066Y-93764438D01*
X138449828Y-93669200D01*
X138306971Y-93621580D01*
X138211733Y-93621580D01*
X138068876Y-93669200D01*
X138021257Y-93716819D01*
X137068876Y-94621580D02*
X137640304Y-94621580D01*
X137354590Y-94621580D02*
X137354590Y-93621580D01*
X137449828Y-93764438D01*
X137545066Y-93859676D01*
X137640304Y-93907295D01*
X136592685Y-94621580D02*
X136402209Y-94621580D01*
X136306971Y-94573961D01*
X136259352Y-94526342D01*
X136164114Y-94383485D01*
X136116495Y-94193009D01*
X136116495Y-93812057D01*
X136164114Y-93716819D01*
X136211733Y-93669200D01*
X136306971Y-93621580D01*
X136497447Y-93621580D01*
X136592685Y-93669200D01*
X136640304Y-93716819D01*
X136687923Y-93812057D01*
X136687923Y-94050152D01*
X136640304Y-94145390D01*
X136592685Y-94193009D01*
X136497447Y-94240628D01*
X136306971Y-94240628D01*
X136211733Y-94193009D01*
X136164114Y-94145390D01*
X136116495Y-94050152D01*
X136715857Y-110813080D02*
X137049190Y-110336890D01*
X137287285Y-110813080D02*
X137287285Y-109813080D01*
X136906333Y-109813080D01*
X136811095Y-109860700D01*
X136763476Y-109908319D01*
X136715857Y-110003557D01*
X136715857Y-110146414D01*
X136763476Y-110241652D01*
X136811095Y-110289271D01*
X136906333Y-110336890D01*
X137287285Y-110336890D01*
X136334904Y-109908319D02*
X136287285Y-109860700D01*
X136192047Y-109813080D01*
X135953952Y-109813080D01*
X135858714Y-109860700D01*
X135811095Y-109908319D01*
X135763476Y-110003557D01*
X135763476Y-110098795D01*
X135811095Y-110241652D01*
X136382523Y-110813080D01*
X135763476Y-110813080D01*
X135144428Y-109813080D02*
X135049190Y-109813080D01*
X134953952Y-109860700D01*
X134906333Y-109908319D01*
X134858714Y-110003557D01*
X134811095Y-110194033D01*
X134811095Y-110432128D01*
X134858714Y-110622604D01*
X134906333Y-110717842D01*
X134953952Y-110765461D01*
X135049190Y-110813080D01*
X135144428Y-110813080D01*
X135239666Y-110765461D01*
X135287285Y-110717842D01*
X135334904Y-110622604D01*
X135382523Y-110432128D01*
X135382523Y-110194033D01*
X135334904Y-110003557D01*
X135287285Y-109908319D01*
X135239666Y-109860700D01*
X135144428Y-109813080D01*
X111261942Y-98537733D02*
X111309561Y-98490114D01*
X111357180Y-98347257D01*
X111357180Y-98252019D01*
X111309561Y-98109161D01*
X111214323Y-98013923D01*
X111119085Y-97966304D01*
X110928609Y-97918685D01*
X110785752Y-97918685D01*
X110595276Y-97966304D01*
X110500038Y-98013923D01*
X110404800Y-98109161D01*
X110357180Y-98252019D01*
X110357180Y-98347257D01*
X110404800Y-98490114D01*
X110452419Y-98537733D01*
X110357180Y-98871066D02*
X110357180Y-99537733D01*
X111357180Y-99109161D01*
X128862057Y-84380342D02*
X128909676Y-84427961D01*
X129052533Y-84475580D01*
X129147771Y-84475580D01*
X129290628Y-84427961D01*
X129385866Y-84332723D01*
X129433485Y-84237485D01*
X129481104Y-84047009D01*
X129481104Y-83904152D01*
X129433485Y-83713676D01*
X129385866Y-83618438D01*
X129290628Y-83523200D01*
X129147771Y-83475580D01*
X129052533Y-83475580D01*
X128909676Y-83523200D01*
X128862057Y-83570819D01*
X127909676Y-84475580D02*
X128481104Y-84475580D01*
X128195390Y-84475580D02*
X128195390Y-83475580D01*
X128290628Y-83618438D01*
X128385866Y-83713676D01*
X128481104Y-83761295D01*
X127052533Y-83808914D02*
X127052533Y-84475580D01*
X127290628Y-83427961D02*
X127528723Y-84142247D01*
X126909676Y-84142247D01*
D11*
X94304200Y-91819464D02*
X94304200Y-91365336D01*
X92834200Y-91819464D02*
X92834200Y-91365336D01*
X134785600Y-85666180D02*
X134785600Y-85385020D01*
X135805600Y-85666180D02*
X135805600Y-85385020D01*
X131751420Y-85320400D02*
X132032580Y-85320400D01*
X131751420Y-86340400D02*
X132032580Y-86340400D01*
X125035800Y-91366516D02*
X125035800Y-91820644D01*
X123565800Y-91366516D02*
X123565800Y-91820644D01*
X127838400Y-123513600D02*
X127438400Y-123113600D01*
X131038400Y-123513600D02*
X131438400Y-123113600D01*
X131438400Y-119513600D02*
X131438400Y-123113600D01*
X127438400Y-119513600D02*
X127438400Y-123113600D01*
X127438400Y-119513600D02*
X131438400Y-119513600D01*
X131038400Y-123513600D02*
X127838400Y-123513600D01*
X132056220Y-92178400D02*
X132337380Y-92178400D01*
X132056220Y-93198400D02*
X132337380Y-93198400D01*
X103608200Y-91819464D02*
X103608200Y-91365336D01*
X105078200Y-91819464D02*
X105078200Y-91365336D01*
X116000200Y-91819464D02*
X116000200Y-91365336D01*
X114530200Y-91819464D02*
X114530200Y-91365336D01*
X103092600Y-91365336D02*
X103092600Y-91819464D01*
X101622600Y-91365336D02*
X101622600Y-91819464D01*
X112858400Y-102214784D02*
X112858400Y-102479200D01*
X112858400Y-98343616D02*
X112858400Y-96629200D01*
X118078400Y-98343616D02*
X118078400Y-98079200D01*
X118078400Y-102214784D02*
X118078400Y-102479200D01*
X106476800Y-80198400D02*
X105676800Y-80198400D01*
X106476800Y-77078400D02*
X108276800Y-77078400D01*
X106476800Y-80198400D02*
X107276800Y-80198400D01*
X106476800Y-77078400D02*
X105676800Y-77078400D01*
X134226800Y-91633420D02*
X134226800Y-91914580D01*
X135246800Y-91633420D02*
X135246800Y-91914580D01*
X139090000Y-88588000D02*
X139090000Y-90388000D01*
X135870000Y-90388000D02*
X135870000Y-87938000D01*
X113968200Y-91365336D02*
X113968200Y-91819464D01*
X112498200Y-91365336D02*
X112498200Y-91819464D01*
X133654400Y-88537200D02*
X133654400Y-90337200D01*
X130434400Y-90337200D02*
X130434400Y-87887200D01*
X103049600Y-78716620D02*
X103049600Y-78997780D01*
X104069600Y-78716620D02*
X104069600Y-78997780D01*
X134548400Y-114983500D02*
X134548400Y-115633500D01*
X134548400Y-114983500D02*
X134548400Y-113308500D01*
X137668400Y-114983500D02*
X137668400Y-115633500D01*
X137668400Y-114983500D02*
X137668400Y-114333500D01*
X137237820Y-92229200D02*
X137518980Y-92229200D01*
X137237820Y-93249200D02*
X137518980Y-93249200D01*
X135820342Y-111565400D02*
X136294858Y-111565400D01*
X135820342Y-112610400D02*
X136294858Y-112610400D01*
X112424800Y-98596564D02*
X112424800Y-98812236D01*
X111704800Y-98596564D02*
X111704800Y-98812236D01*
X131765520Y-84605600D02*
X132046680Y-84605600D01*
X131765520Y-83585600D02*
X132046680Y-83585600D01*
%LPC*%
D12*
X94524000Y-79310400D03*
D13*
X94524000Y-79310400D03*
D14*
X98715200Y-113893600D03*
D15*
X93715200Y-113893600D03*
D12*
X136524000Y-79310400D03*
D13*
X136524000Y-79310400D03*
D16*
X136550400Y-99822000D03*
D17*
X137820400Y-99822000D03*
X136550400Y-101092000D03*
X137820400Y-101092000D03*
X136550400Y-102362000D03*
X137820400Y-102362000D03*
X136550400Y-103632000D03*
X137820400Y-103632000D03*
X136550400Y-104902000D03*
X137820400Y-104902000D03*
D13*
X136524000Y-121310400D03*
D12*
X136524000Y-121310400D03*
D13*
X94524000Y-121310400D03*
D12*
X94524000Y-121310400D03*
D18*
X106409800Y-106834600D03*
X107679800Y-106834600D03*
X105139800Y-106834600D03*
D19*
X93569200Y-92592400D03*
X93569200Y-90592400D03*
D20*
X135295600Y-86300600D03*
X135295600Y-84750600D03*
D21*
X131117000Y-85830400D03*
X132667000Y-85830400D03*
D22*
X124300800Y-90593580D03*
X124300800Y-92593580D03*
D23*
X129438400Y-123338600D03*
X129438400Y-119688600D03*
D21*
X131421800Y-92688400D03*
X132971800Y-92688400D03*
D19*
X104343200Y-92592400D03*
X104343200Y-90592400D03*
X115265200Y-92592400D03*
X115265200Y-90592400D03*
D22*
X102357600Y-90592400D03*
X102357600Y-92592400D03*
D24*
X115468400Y-100279200D03*
D25*
X113518400Y-97416700D03*
X114168400Y-97416700D03*
X114818400Y-97416700D03*
X115468400Y-97416700D03*
X116118400Y-97416700D03*
X116768400Y-97416700D03*
X117418400Y-97416700D03*
X117418400Y-103141700D03*
X116768400Y-103141700D03*
X116118400Y-103141700D03*
X115468400Y-103141700D03*
X114818400Y-103141700D03*
X114168400Y-103141700D03*
X113518400Y-103141700D03*
D26*
X107614300Y-77688400D03*
X107614300Y-78638400D03*
X107614300Y-79588400D03*
X105339300Y-79588400D03*
X105339300Y-78638400D03*
X105339300Y-77688400D03*
D27*
X134736800Y-90999000D03*
X134736800Y-92549000D03*
D28*
X136530000Y-88138000D03*
X137480000Y-88138000D03*
X138430000Y-88138000D03*
X138430000Y-90838000D03*
X136530000Y-90838000D03*
D22*
X113233200Y-90592400D03*
X113233200Y-92592400D03*
D28*
X131094400Y-88087200D03*
X132044400Y-88087200D03*
X132994400Y-88087200D03*
X132994400Y-90787200D03*
X131094400Y-90787200D03*
D27*
X103559600Y-78082200D03*
X103559600Y-79632200D03*
D29*
X135158400Y-114046000D03*
X137058400Y-114046000D03*
X136108400Y-115921000D03*
D21*
X136603400Y-92739200D03*
X138153400Y-92739200D03*
D30*
X135232600Y-112087900D03*
X136882600Y-112087900D03*
D31*
X112064800Y-98224400D03*
X112064800Y-99184400D03*
D21*
X131131100Y-84095600D03*
X132681100Y-84095600D03*
M02*
