G04 #@! TF.GenerationSoftware,KiCad,Pcbnew,6.0.11-2627ca5db0~126~ubuntu20.04.1*
G04 #@! TF.CreationDate,2024-01-15T23:09:37+09:00*
G04 #@! TF.ProjectId,motor_driver,6d6f746f-725f-4647-9269-7665722e6b69,rev?*
G04 #@! TF.SameCoordinates,Original*
G04 #@! TF.FileFunction,Paste,Bot*
G04 #@! TF.FilePolarity,Positive*
%FSLAX46Y46*%
G04 Gerber Fmt 4.6, Leading zero omitted, Abs format (unit mm)*
G04 Created by KiCad (PCBNEW 6.0.11-2627ca5db0~126~ubuntu20.04.1) date 2024-01-15 23:09:37*
%MOMM*%
%LPD*%
G01*
G04 APERTURE LIST*
G04 Aperture macros list*
%AMRoundRect*
0 Rectangle with rounded corners*
0 $1 Rounding radius*
0 $2 $3 $4 $5 $6 $7 $8 $9 X,Y pos of 4 corners*
0 Add a 4 corners polygon primitive as box body*
4,1,4,$2,$3,$4,$5,$6,$7,$8,$9,$2,$3,0*
0 Add four circle primitives for the rounded corners*
1,1,$1+$1,$2,$3*
1,1,$1+$1,$4,$5*
1,1,$1+$1,$6,$7*
1,1,$1+$1,$8,$9*
0 Add four rect primitives between the rounded corners*
20,1,$1+$1,$2,$3,$4,$5,0*
20,1,$1+$1,$4,$5,$6,$7,0*
20,1,$1+$1,$6,$7,$8,$9,0*
20,1,$1+$1,$8,$9,$2,$3,0*%
G04 Aperture macros list end*
%ADD10RoundRect,0.250000X0.450000X-0.350000X0.450000X0.350000X-0.450000X0.350000X-0.450000X-0.350000X0*%
%ADD11RoundRect,0.225000X0.250000X-0.225000X0.250000X0.225000X-0.250000X0.225000X-0.250000X-0.225000X0*%
%ADD12RoundRect,0.225000X-0.225000X-0.250000X0.225000X-0.250000X0.225000X0.250000X-0.225000X0.250000X0*%
%ADD13RoundRect,0.250000X-0.450000X0.350000X-0.450000X-0.350000X0.450000X-0.350000X0.450000X0.350000X0*%
%ADD14R,2.400000X1.450000*%
%ADD15RoundRect,0.250001X-0.374999X0.354999X-0.374999X-0.354999X0.374999X-0.354999X0.374999X0.354999X0*%
%ADD16RoundRect,0.100000X-0.100000X0.687500X-0.100000X-0.687500X0.100000X-0.687500X0.100000X0.687500X0*%
%ADD17RoundRect,0.150000X0.512500X0.150000X-0.512500X0.150000X-0.512500X-0.150000X0.512500X-0.150000X0*%
%ADD18RoundRect,0.225000X-0.250000X0.225000X-0.250000X-0.225000X0.250000X-0.225000X0.250000X0.225000X0*%
%ADD19R,0.650000X1.560000*%
%ADD20RoundRect,0.150000X-0.150000X0.587500X-0.150000X-0.587500X0.150000X-0.587500X0.150000X0.587500X0*%
%ADD21RoundRect,0.200000X-0.200000X-0.275000X0.200000X-0.275000X0.200000X0.275000X-0.200000X0.275000X0*%
%ADD22RoundRect,0.140000X-0.170000X0.140000X-0.170000X-0.140000X0.170000X-0.140000X0.170000X0.140000X0*%
G04 APERTURE END LIST*
D10*
X93569200Y-92592400D03*
X93569200Y-90592400D03*
D11*
X135295600Y-86300600D03*
X135295600Y-84750600D03*
D12*
X131117000Y-85830400D03*
X132667000Y-85830400D03*
D13*
X124300800Y-90593580D03*
X124300800Y-92593580D03*
D14*
X129438400Y-123338600D03*
X129438400Y-119688600D03*
D12*
X131421800Y-92688400D03*
X132971800Y-92688400D03*
D10*
X104343200Y-92592400D03*
X104343200Y-90592400D03*
X115265200Y-92592400D03*
X115265200Y-90592400D03*
D13*
X102357600Y-90592400D03*
X102357600Y-92592400D03*
D15*
X114693400Y-99529200D03*
X116243400Y-101029200D03*
X116243400Y-99529200D03*
X114693400Y-101029200D03*
D16*
X113518400Y-97416700D03*
X114168400Y-97416700D03*
X114818400Y-97416700D03*
X115468400Y-97416700D03*
X116118400Y-97416700D03*
X116768400Y-97416700D03*
X117418400Y-97416700D03*
X117418400Y-103141700D03*
X116768400Y-103141700D03*
X116118400Y-103141700D03*
X115468400Y-103141700D03*
X114818400Y-103141700D03*
X114168400Y-103141700D03*
X113518400Y-103141700D03*
D17*
X107614300Y-77688400D03*
X107614300Y-78638400D03*
X107614300Y-79588400D03*
X105339300Y-79588400D03*
X105339300Y-78638400D03*
X105339300Y-77688400D03*
D18*
X134736800Y-90999000D03*
X134736800Y-92549000D03*
D19*
X136530000Y-88138000D03*
X137480000Y-88138000D03*
X138430000Y-88138000D03*
X138430000Y-90838000D03*
X136530000Y-90838000D03*
D13*
X113233200Y-90592400D03*
X113233200Y-92592400D03*
D19*
X131094400Y-88087200D03*
X132044400Y-88087200D03*
X132994400Y-88087200D03*
X132994400Y-90787200D03*
X131094400Y-90787200D03*
D18*
X103559600Y-78082200D03*
X103559600Y-79632200D03*
D20*
X135158400Y-114046000D03*
X137058400Y-114046000D03*
X136108400Y-115921000D03*
D12*
X136603400Y-92739200D03*
X138153400Y-92739200D03*
D21*
X135232600Y-112087900D03*
X136882600Y-112087900D03*
D22*
X112064800Y-98224400D03*
X112064800Y-99184400D03*
D12*
X131131100Y-84095600D03*
X132681100Y-84095600D03*
M02*
