G04 #@! TF.GenerationSoftware,KiCad,Pcbnew,6.0.11-2627ca5db0~126~ubuntu20.04.1*
G04 #@! TF.CreationDate,2024-01-15T23:09:37+09:00*
G04 #@! TF.ProjectId,motor_driver,6d6f746f-725f-4647-9269-7665722e6b69,rev?*
G04 #@! TF.SameCoordinates,Original*
G04 #@! TF.FileFunction,Legend,Top*
G04 #@! TF.FilePolarity,Positive*
%FSLAX46Y46*%
G04 Gerber Fmt 4.6, Leading zero omitted, Abs format (unit mm)*
G04 Created by KiCad (PCBNEW 6.0.11-2627ca5db0~126~ubuntu20.04.1) date 2024-01-15 23:09:37*
%MOMM*%
%LPD*%
G01*
G04 APERTURE LIST*
G04 Aperture macros list*
%AMRoundRect*
0 Rectangle with rounded corners*
0 $1 Rounding radius*
0 $2 $3 $4 $5 $6 $7 $8 $9 X,Y pos of 4 corners*
0 Add a 4 corners polygon primitive as box body*
4,1,4,$2,$3,$4,$5,$6,$7,$8,$9,$2,$3,0*
0 Add four circle primitives for the rounded corners*
1,1,$1+$1,$2,$3*
1,1,$1+$1,$4,$5*
1,1,$1+$1,$6,$7*
1,1,$1+$1,$8,$9*
0 Add four rect primitives between the rounded corners*
20,1,$1+$1,$2,$3,$4,$5,0*
20,1,$1+$1,$4,$5,$6,$7,0*
20,1,$1+$1,$6,$7,$8,$9,0*
20,1,$1+$1,$8,$9,$2,$3,0*%
G04 Aperture macros list end*
%ADD10C,0.150000*%
%ADD11C,0.120000*%
%ADD12C,0.100000*%
%ADD13C,0.127000*%
%ADD14C,0.200000*%
%ADD15RoundRect,0.225000X-0.225000X-0.250000X0.225000X-0.250000X0.225000X0.250000X-0.225000X0.250000X0*%
%ADD16RoundRect,0.147500X0.172500X-0.147500X0.172500X0.147500X-0.172500X0.147500X-0.172500X-0.147500X0*%
%ADD17RoundRect,0.250000X-1.000000X1.950000X-1.000000X-1.950000X1.000000X-1.950000X1.000000X1.950000X0*%
%ADD18RoundRect,0.249999X0.450001X1.075001X-0.450001X1.075001X-0.450001X-1.075001X0.450001X-1.075001X0*%
%ADD19RoundRect,0.075000X-0.662500X-0.075000X0.662500X-0.075000X0.662500X0.075000X-0.662500X0.075000X0*%
%ADD20RoundRect,0.075000X-0.075000X-0.662500X0.075000X-0.662500X0.075000X0.662500X-0.075000X0.662500X0*%
%ADD21C,3.600000*%
%ADD22C,6.400000*%
%ADD23RoundRect,0.155000X-0.212500X-0.155000X0.212500X-0.155000X0.212500X0.155000X-0.212500X0.155000X0*%
%ADD24RoundRect,0.155000X0.212500X0.155000X-0.212500X0.155000X-0.212500X-0.155000X0.212500X-0.155000X0*%
%ADD25R,0.800000X2.900000*%
%ADD26R,1.800000X3.800000*%
%ADD27RoundRect,0.225000X-0.250000X0.225000X-0.250000X-0.225000X0.250000X-0.225000X0.250000X0.225000X0*%
%ADD28RoundRect,0.160000X0.197500X0.160000X-0.197500X0.160000X-0.197500X-0.160000X0.197500X-0.160000X0*%
%ADD29RoundRect,0.200000X-0.200000X-0.275000X0.200000X-0.275000X0.200000X0.275000X-0.200000X0.275000X0*%
%ADD30RoundRect,0.237500X0.237500X-0.250000X0.237500X0.250000X-0.237500X0.250000X-0.237500X-0.250000X0*%
%ADD31R,0.650000X1.050000*%
%ADD32RoundRect,0.175000X-0.175000X0.200000X-0.175000X-0.200000X0.175000X-0.200000X0.175000X0.200000X0*%
%ADD33R,0.610000X2.000000*%
%ADD34R,2.680000X3.600000*%
%ADD35RoundRect,0.160000X-0.160000X0.197500X-0.160000X-0.197500X0.160000X-0.197500X0.160000X0.197500X0*%
%ADD36RoundRect,0.200000X-0.275000X0.200000X-0.275000X-0.200000X0.275000X-0.200000X0.275000X0.200000X0*%
%ADD37R,3.800000X3.800000*%
%ADD38C,4.000000*%
%ADD39R,0.800000X0.750000*%
%ADD40R,2.400000X4.200000*%
%ADD41R,0.750000X4.200000*%
%ADD42R,0.550000X3.280000*%
%ADD43RoundRect,0.150000X0.150000X-0.825000X0.150000X0.825000X-0.150000X0.825000X-0.150000X-0.825000X0*%
%ADD44RoundRect,0.237500X0.237500X-0.287500X0.237500X0.287500X-0.237500X0.287500X-0.237500X-0.287500X0*%
%ADD45RoundRect,0.237500X-0.250000X-0.237500X0.250000X-0.237500X0.250000X0.237500X-0.250000X0.237500X0*%
%ADD46R,1.000000X1.000000*%
%ADD47O,1.000000X1.000000*%
%ADD48RoundRect,0.225000X0.250000X-0.225000X0.250000X0.225000X-0.250000X0.225000X-0.250000X-0.225000X0*%
%ADD49RoundRect,0.237500X-0.237500X0.250000X-0.237500X-0.250000X0.237500X-0.250000X0.237500X0.250000X0*%
%ADD50RoundRect,0.147500X-0.172500X0.147500X-0.172500X-0.147500X0.172500X-0.147500X0.172500X0.147500X0*%
%ADD51RoundRect,0.155000X-0.155000X0.212500X-0.155000X-0.212500X0.155000X-0.212500X0.155000X0.212500X0*%
%ADD52RoundRect,0.249999X-0.450001X-1.075001X0.450001X-1.075001X0.450001X1.075001X-0.450001X1.075001X0*%
%ADD53RoundRect,0.225000X0.225000X0.250000X-0.225000X0.250000X-0.225000X-0.250000X0.225000X-0.250000X0*%
%ADD54RoundRect,0.062500X0.350000X0.062500X-0.350000X0.062500X-0.350000X-0.062500X0.350000X-0.062500X0*%
%ADD55RoundRect,0.062500X0.062500X0.350000X-0.062500X0.350000X-0.062500X-0.350000X0.062500X-0.350000X0*%
%ADD56C,0.508000*%
%ADD57R,4.600000X4.600000*%
G04 APERTURE END LIST*
D10*
X112660133Y-107443542D02*
X112612514Y-107491161D01*
X112469657Y-107538780D01*
X112374419Y-107538780D01*
X112231561Y-107491161D01*
X112136323Y-107395923D01*
X112088704Y-107300685D01*
X112041085Y-107110209D01*
X112041085Y-106967352D01*
X112088704Y-106776876D01*
X112136323Y-106681638D01*
X112231561Y-106586400D01*
X112374419Y-106538780D01*
X112469657Y-106538780D01*
X112612514Y-106586400D01*
X112660133Y-106634019D01*
X113517276Y-106872114D02*
X113517276Y-107538780D01*
X113279180Y-106491161D02*
X113041085Y-107205447D01*
X113660133Y-107205447D01*
X126283980Y-124110195D02*
X125283980Y-124110195D01*
X125283980Y-123872100D01*
X125331600Y-123729242D01*
X125426838Y-123634004D01*
X125522076Y-123586385D01*
X125712552Y-123538766D01*
X125855409Y-123538766D01*
X126045885Y-123586385D01*
X126141123Y-123634004D01*
X126236361Y-123729242D01*
X126283980Y-123872100D01*
X126283980Y-124110195D01*
X125283980Y-123205433D02*
X125283980Y-122538766D01*
X126283980Y-122967338D01*
X92289333Y-99264742D02*
X92241714Y-99312361D01*
X92098857Y-99359980D01*
X92003619Y-99359980D01*
X91860761Y-99312361D01*
X91765523Y-99217123D01*
X91717904Y-99121885D01*
X91670285Y-98931409D01*
X91670285Y-98788552D01*
X91717904Y-98598076D01*
X91765523Y-98502838D01*
X91860761Y-98407600D01*
X92003619Y-98359980D01*
X92098857Y-98359980D01*
X92241714Y-98407600D01*
X92289333Y-98455219D01*
X92860761Y-98788552D02*
X92765523Y-98740933D01*
X92717904Y-98693314D01*
X92670285Y-98598076D01*
X92670285Y-98550457D01*
X92717904Y-98455219D01*
X92765523Y-98407600D01*
X92860761Y-98359980D01*
X93051238Y-98359980D01*
X93146476Y-98407600D01*
X93194095Y-98455219D01*
X93241714Y-98550457D01*
X93241714Y-98598076D01*
X93194095Y-98693314D01*
X93146476Y-98740933D01*
X93051238Y-98788552D01*
X92860761Y-98788552D01*
X92765523Y-98836171D01*
X92717904Y-98883790D01*
X92670285Y-98979028D01*
X92670285Y-99169504D01*
X92717904Y-99264742D01*
X92765523Y-99312361D01*
X92860761Y-99359980D01*
X93051238Y-99359980D01*
X93146476Y-99312361D01*
X93194095Y-99264742D01*
X93241714Y-99169504D01*
X93241714Y-98979028D01*
X93194095Y-98883790D01*
X93146476Y-98836171D01*
X93051238Y-98788552D01*
X115297133Y-96922760D02*
X114963800Y-96446570D01*
X114725704Y-96922760D02*
X114725704Y-95922760D01*
X115106657Y-95922760D01*
X115201895Y-95970380D01*
X115249514Y-96017999D01*
X115297133Y-96113237D01*
X115297133Y-96256094D01*
X115249514Y-96351332D01*
X115201895Y-96398951D01*
X115106657Y-96446570D01*
X114725704Y-96446570D01*
X115773323Y-96922760D02*
X115963800Y-96922760D01*
X116059038Y-96875141D01*
X116106657Y-96827522D01*
X116201895Y-96684665D01*
X116249514Y-96494189D01*
X116249514Y-96113237D01*
X116201895Y-96017999D01*
X116154276Y-95970380D01*
X116059038Y-95922760D01*
X115868561Y-95922760D01*
X115773323Y-95970380D01*
X115725704Y-96017999D01*
X115678085Y-96113237D01*
X115678085Y-96351332D01*
X115725704Y-96446570D01*
X115773323Y-96494189D01*
X115868561Y-96541808D01*
X116059038Y-96541808D01*
X116154276Y-96494189D01*
X116201895Y-96446570D01*
X116249514Y-96351332D01*
X127235104Y-101204780D02*
X127235104Y-102014304D01*
X127282723Y-102109542D01*
X127330342Y-102157161D01*
X127425580Y-102204780D01*
X127616057Y-102204780D01*
X127711295Y-102157161D01*
X127758914Y-102109542D01*
X127806533Y-102014304D01*
X127806533Y-101204780D01*
X128806533Y-102204780D02*
X128235104Y-102204780D01*
X128520819Y-102204780D02*
X128520819Y-101204780D01*
X128425580Y-101347638D01*
X128330342Y-101442876D01*
X128235104Y-101490495D01*
X129425580Y-101204780D02*
X129520819Y-101204780D01*
X129616057Y-101252400D01*
X129663676Y-101300019D01*
X129711295Y-101395257D01*
X129758914Y-101585733D01*
X129758914Y-101823828D01*
X129711295Y-102014304D01*
X129663676Y-102109542D01*
X129616057Y-102157161D01*
X129520819Y-102204780D01*
X129425580Y-102204780D01*
X129330342Y-102157161D01*
X129282723Y-102109542D01*
X129235104Y-102014304D01*
X129187485Y-101823828D01*
X129187485Y-101585733D01*
X129235104Y-101395257D01*
X129282723Y-101300019D01*
X129330342Y-101252400D01*
X129425580Y-101204780D01*
X115504933Y-112066342D02*
X115457314Y-112113961D01*
X115314457Y-112161580D01*
X115219219Y-112161580D01*
X115076361Y-112113961D01*
X114981123Y-112018723D01*
X114933504Y-111923485D01*
X114885885Y-111733009D01*
X114885885Y-111590152D01*
X114933504Y-111399676D01*
X114981123Y-111304438D01*
X115076361Y-111209200D01*
X115219219Y-111161580D01*
X115314457Y-111161580D01*
X115457314Y-111209200D01*
X115504933Y-111256819D01*
X116457314Y-112161580D02*
X115885885Y-112161580D01*
X116171600Y-112161580D02*
X116171600Y-111161580D01*
X116076361Y-111304438D01*
X115981123Y-111399676D01*
X115885885Y-111447295D01*
X117968342Y-99215122D02*
X117920723Y-99262741D01*
X117777866Y-99310360D01*
X117682628Y-99310360D01*
X117539771Y-99262741D01*
X117444533Y-99167503D01*
X117396914Y-99072265D01*
X117349295Y-98881789D01*
X117349295Y-98738932D01*
X117396914Y-98548456D01*
X117444533Y-98453218D01*
X117539771Y-98357980D01*
X117682628Y-98310360D01*
X117777866Y-98310360D01*
X117920723Y-98357980D01*
X117968342Y-98405599D01*
X118920723Y-99310360D02*
X118349295Y-99310360D01*
X118635009Y-99310360D02*
X118635009Y-98310360D01*
X118539771Y-98453218D01*
X118444533Y-98548456D01*
X118349295Y-98596075D01*
X119254057Y-98310360D02*
X119873104Y-98310360D01*
X119539771Y-98691313D01*
X119682628Y-98691313D01*
X119777866Y-98738932D01*
X119825485Y-98786551D01*
X119873104Y-98881789D01*
X119873104Y-99119884D01*
X119825485Y-99215122D01*
X119777866Y-99262741D01*
X119682628Y-99310360D01*
X119396914Y-99310360D01*
X119301676Y-99262741D01*
X119254057Y-99215122D01*
X102222742Y-98909142D02*
X102175123Y-98956761D01*
X102032266Y-99004380D01*
X101937028Y-99004380D01*
X101794171Y-98956761D01*
X101698933Y-98861523D01*
X101651314Y-98766285D01*
X101603695Y-98575809D01*
X101603695Y-98432952D01*
X101651314Y-98242476D01*
X101698933Y-98147238D01*
X101794171Y-98052000D01*
X101937028Y-98004380D01*
X102032266Y-98004380D01*
X102175123Y-98052000D01*
X102222742Y-98099619D01*
X103175123Y-99004380D02*
X102603695Y-99004380D01*
X102889409Y-99004380D02*
X102889409Y-98004380D01*
X102794171Y-98147238D01*
X102698933Y-98242476D01*
X102603695Y-98290095D01*
X104127504Y-99004380D02*
X103556076Y-99004380D01*
X103841790Y-99004380D02*
X103841790Y-98004380D01*
X103746552Y-98147238D01*
X103651314Y-98242476D01*
X103556076Y-98290095D01*
X120062666Y-82905080D02*
X120062666Y-83619366D01*
X120015047Y-83762223D01*
X119919809Y-83857461D01*
X119776952Y-83905080D01*
X119681714Y-83905080D01*
X121015047Y-82905080D02*
X120538857Y-82905080D01*
X120491238Y-83381271D01*
X120538857Y-83333652D01*
X120634095Y-83286033D01*
X120872190Y-83286033D01*
X120967428Y-83333652D01*
X121015047Y-83381271D01*
X121062666Y-83476509D01*
X121062666Y-83714604D01*
X121015047Y-83809842D01*
X120967428Y-83857461D01*
X120872190Y-83905080D01*
X120634095Y-83905080D01*
X120538857Y-83857461D01*
X120491238Y-83809842D01*
X130827542Y-116435142D02*
X130779923Y-116482761D01*
X130637066Y-116530380D01*
X130541828Y-116530380D01*
X130398971Y-116482761D01*
X130303733Y-116387523D01*
X130256114Y-116292285D01*
X130208495Y-116101809D01*
X130208495Y-115958952D01*
X130256114Y-115768476D01*
X130303733Y-115673238D01*
X130398971Y-115578000D01*
X130541828Y-115530380D01*
X130637066Y-115530380D01*
X130779923Y-115578000D01*
X130827542Y-115625619D01*
X131160876Y-115530380D02*
X131779923Y-115530380D01*
X131446590Y-115911333D01*
X131589447Y-115911333D01*
X131684685Y-115958952D01*
X131732304Y-116006571D01*
X131779923Y-116101809D01*
X131779923Y-116339904D01*
X131732304Y-116435142D01*
X131684685Y-116482761D01*
X131589447Y-116530380D01*
X131303733Y-116530380D01*
X131208495Y-116482761D01*
X131160876Y-116435142D01*
X132637066Y-115863714D02*
X132637066Y-116530380D01*
X132398971Y-115482761D02*
X132160876Y-116197047D01*
X132779923Y-116197047D01*
X114343992Y-105557580D02*
X114010659Y-105081390D01*
X113772564Y-105557580D02*
X113772564Y-104557580D01*
X114153516Y-104557580D01*
X114248754Y-104605200D01*
X114296373Y-104652819D01*
X114343992Y-104748057D01*
X114343992Y-104890914D01*
X114296373Y-104986152D01*
X114248754Y-105033771D01*
X114153516Y-105081390D01*
X113772564Y-105081390D01*
X115296373Y-105557580D02*
X114724945Y-105557580D01*
X115010659Y-105557580D02*
X115010659Y-104557580D01*
X114915421Y-104700438D01*
X114820183Y-104795676D01*
X114724945Y-104843295D01*
X116201135Y-104557580D02*
X115724945Y-104557580D01*
X115677326Y-105033771D01*
X115724945Y-104986152D01*
X115820183Y-104938533D01*
X116058278Y-104938533D01*
X116153516Y-104986152D01*
X116201135Y-105033771D01*
X116248754Y-105129009D01*
X116248754Y-105367104D01*
X116201135Y-105462342D01*
X116153516Y-105509961D01*
X116058278Y-105557580D01*
X115820183Y-105557580D01*
X115724945Y-105509961D01*
X115677326Y-105462342D01*
X133570742Y-98343980D02*
X133237409Y-97867790D01*
X132999314Y-98343980D02*
X132999314Y-97343980D01*
X133380266Y-97343980D01*
X133475504Y-97391600D01*
X133523123Y-97439219D01*
X133570742Y-97534457D01*
X133570742Y-97677314D01*
X133523123Y-97772552D01*
X133475504Y-97820171D01*
X133380266Y-97867790D01*
X132999314Y-97867790D01*
X133951695Y-97439219D02*
X133999314Y-97391600D01*
X134094552Y-97343980D01*
X134332647Y-97343980D01*
X134427885Y-97391600D01*
X134475504Y-97439219D01*
X134523123Y-97534457D01*
X134523123Y-97629695D01*
X134475504Y-97772552D01*
X133904076Y-98343980D01*
X134523123Y-98343980D01*
X135427885Y-97343980D02*
X134951695Y-97343980D01*
X134904076Y-97820171D01*
X134951695Y-97772552D01*
X135046933Y-97724933D01*
X135285028Y-97724933D01*
X135380266Y-97772552D01*
X135427885Y-97820171D01*
X135475504Y-97915409D01*
X135475504Y-98153504D01*
X135427885Y-98248742D01*
X135380266Y-98296361D01*
X135285028Y-98343980D01*
X135046933Y-98343980D01*
X134951695Y-98296361D01*
X134904076Y-98248742D01*
X135450342Y-94686380D02*
X135117009Y-94210190D01*
X134878914Y-94686380D02*
X134878914Y-93686380D01*
X135259866Y-93686380D01*
X135355104Y-93734000D01*
X135402723Y-93781619D01*
X135450342Y-93876857D01*
X135450342Y-94019714D01*
X135402723Y-94114952D01*
X135355104Y-94162571D01*
X135259866Y-94210190D01*
X134878914Y-94210190D01*
X135831295Y-93781619D02*
X135878914Y-93734000D01*
X135974152Y-93686380D01*
X136212247Y-93686380D01*
X136307485Y-93734000D01*
X136355104Y-93781619D01*
X136402723Y-93876857D01*
X136402723Y-93972095D01*
X136355104Y-94114952D01*
X135783676Y-94686380D01*
X136402723Y-94686380D01*
X136736057Y-93686380D02*
X137402723Y-93686380D01*
X136974152Y-94686380D01*
X117314742Y-110948742D02*
X117267123Y-110996361D01*
X117124266Y-111043980D01*
X117029028Y-111043980D01*
X116886171Y-110996361D01*
X116790933Y-110901123D01*
X116743314Y-110805885D01*
X116695695Y-110615409D01*
X116695695Y-110472552D01*
X116743314Y-110282076D01*
X116790933Y-110186838D01*
X116886171Y-110091600D01*
X117029028Y-110043980D01*
X117124266Y-110043980D01*
X117267123Y-110091600D01*
X117314742Y-110139219D01*
X117695695Y-110139219D02*
X117743314Y-110091600D01*
X117838552Y-110043980D01*
X118076647Y-110043980D01*
X118171885Y-110091600D01*
X118219504Y-110139219D01*
X118267123Y-110234457D01*
X118267123Y-110329695D01*
X118219504Y-110472552D01*
X117648076Y-111043980D01*
X118267123Y-111043980D01*
X119219504Y-111043980D02*
X118648076Y-111043980D01*
X118933790Y-111043980D02*
X118933790Y-110043980D01*
X118838552Y-110186838D01*
X118743314Y-110282076D01*
X118648076Y-110329695D01*
X110031161Y-122913363D02*
X110078780Y-122770506D01*
X110078780Y-122532410D01*
X110031161Y-122437172D01*
X109983542Y-122389553D01*
X109888304Y-122341934D01*
X109793066Y-122341934D01*
X109697828Y-122389553D01*
X109650209Y-122437172D01*
X109602590Y-122532410D01*
X109554971Y-122722887D01*
X109507352Y-122818125D01*
X109459733Y-122865744D01*
X109364495Y-122913363D01*
X109269257Y-122913363D01*
X109174019Y-122865744D01*
X109126400Y-122818125D01*
X109078780Y-122722887D01*
X109078780Y-122484791D01*
X109126400Y-122341934D01*
X109078780Y-122008601D02*
X110078780Y-121770506D01*
X109364495Y-121580030D01*
X110078780Y-121389553D01*
X109078780Y-121151458D01*
X110078780Y-120246696D02*
X110078780Y-120818125D01*
X110078780Y-120532410D02*
X109078780Y-120532410D01*
X109221638Y-120627649D01*
X109316876Y-120722887D01*
X109364495Y-120818125D01*
X112517180Y-123032410D02*
X112040990Y-123365744D01*
X112517180Y-123603839D02*
X111517180Y-123603839D01*
X111517180Y-123222887D01*
X111564800Y-123127649D01*
X111612419Y-123080030D01*
X111707657Y-123032410D01*
X111850514Y-123032410D01*
X111945752Y-123080030D01*
X111993371Y-123127649D01*
X112040990Y-123222887D01*
X112040990Y-123603839D01*
X111993371Y-122603839D02*
X111993371Y-122270506D01*
X112517180Y-122127649D02*
X112517180Y-122603839D01*
X111517180Y-122603839D01*
X111517180Y-122127649D01*
X112469561Y-121746696D02*
X112517180Y-121603839D01*
X112517180Y-121365744D01*
X112469561Y-121270506D01*
X112421942Y-121222887D01*
X112326704Y-121175268D01*
X112231466Y-121175268D01*
X112136228Y-121222887D01*
X112088609Y-121270506D01*
X112040990Y-121365744D01*
X111993371Y-121556220D01*
X111945752Y-121651458D01*
X111898133Y-121699077D01*
X111802895Y-121746696D01*
X111707657Y-121746696D01*
X111612419Y-121699077D01*
X111564800Y-121651458D01*
X111517180Y-121556220D01*
X111517180Y-121318125D01*
X111564800Y-121175268D01*
X111993371Y-120746696D02*
X111993371Y-120413363D01*
X112517180Y-120270506D02*
X112517180Y-120746696D01*
X111517180Y-120746696D01*
X111517180Y-120270506D01*
X111517180Y-119984791D02*
X111517180Y-119413363D01*
X112517180Y-119699077D02*
X111517180Y-119699077D01*
X114759840Y-107613390D02*
X115236030Y-107613390D01*
X114236030Y-107946723D02*
X114759840Y-107613390D01*
X114236030Y-107280057D01*
X115236030Y-106422914D02*
X115236030Y-106994342D01*
X115236030Y-106708628D02*
X114236030Y-106708628D01*
X114378888Y-106803866D01*
X114474126Y-106899104D01*
X114521745Y-106994342D01*
X132503942Y-94686380D02*
X132170609Y-94210190D01*
X131932514Y-94686380D02*
X131932514Y-93686380D01*
X132313466Y-93686380D01*
X132408704Y-93734000D01*
X132456323Y-93781619D01*
X132503942Y-93876857D01*
X132503942Y-94019714D01*
X132456323Y-94114952D01*
X132408704Y-94162571D01*
X132313466Y-94210190D01*
X131932514Y-94210190D01*
X132884895Y-93781619D02*
X132932514Y-93734000D01*
X133027752Y-93686380D01*
X133265847Y-93686380D01*
X133361085Y-93734000D01*
X133408704Y-93781619D01*
X133456323Y-93876857D01*
X133456323Y-93972095D01*
X133408704Y-94114952D01*
X132837276Y-94686380D01*
X133456323Y-94686380D01*
X134027752Y-94114952D02*
X133932514Y-94067333D01*
X133884895Y-94019714D01*
X133837276Y-93924476D01*
X133837276Y-93876857D01*
X133884895Y-93781619D01*
X133932514Y-93734000D01*
X134027752Y-93686380D01*
X134218228Y-93686380D01*
X134313466Y-93734000D01*
X134361085Y-93781619D01*
X134408704Y-93876857D01*
X134408704Y-93924476D01*
X134361085Y-94019714D01*
X134313466Y-94067333D01*
X134218228Y-94114952D01*
X134027752Y-94114952D01*
X133932514Y-94162571D01*
X133884895Y-94210190D01*
X133837276Y-94305428D01*
X133837276Y-94495904D01*
X133884895Y-94591142D01*
X133932514Y-94638761D01*
X134027752Y-94686380D01*
X134218228Y-94686380D01*
X134313466Y-94638761D01*
X134361085Y-94591142D01*
X134408704Y-94495904D01*
X134408704Y-94305428D01*
X134361085Y-94210190D01*
X134313466Y-94162571D01*
X134218228Y-94114952D01*
X100301466Y-84135980D02*
X100301466Y-84850266D01*
X100253847Y-84993123D01*
X100158609Y-85088361D01*
X100015752Y-85135980D01*
X99920514Y-85135980D01*
X100730038Y-84231219D02*
X100777657Y-84183600D01*
X100872895Y-84135980D01*
X101110990Y-84135980D01*
X101206228Y-84183600D01*
X101253847Y-84231219D01*
X101301466Y-84326457D01*
X101301466Y-84421695D01*
X101253847Y-84564552D01*
X100682419Y-85135980D01*
X101301466Y-85135980D01*
X105201980Y-123372566D02*
X104725790Y-123705900D01*
X105201980Y-123943995D02*
X104201980Y-123943995D01*
X104201980Y-123563042D01*
X104249600Y-123467804D01*
X104297219Y-123420185D01*
X104392457Y-123372566D01*
X104535314Y-123372566D01*
X104630552Y-123420185D01*
X104678171Y-123467804D01*
X104725790Y-123563042D01*
X104725790Y-123943995D01*
X104201980Y-123039233D02*
X104201980Y-122420185D01*
X104582933Y-122753519D01*
X104582933Y-122610661D01*
X104630552Y-122515423D01*
X104678171Y-122467804D01*
X104773409Y-122420185D01*
X105011504Y-122420185D01*
X105106742Y-122467804D01*
X105154361Y-122515423D01*
X105201980Y-122610661D01*
X105201980Y-122896376D01*
X105154361Y-122991614D01*
X105106742Y-123039233D01*
X133875542Y-112574342D02*
X133827923Y-112621961D01*
X133685066Y-112669580D01*
X133589828Y-112669580D01*
X133446971Y-112621961D01*
X133351733Y-112526723D01*
X133304114Y-112431485D01*
X133256495Y-112241009D01*
X133256495Y-112098152D01*
X133304114Y-111907676D01*
X133351733Y-111812438D01*
X133446971Y-111717200D01*
X133589828Y-111669580D01*
X133685066Y-111669580D01*
X133827923Y-111717200D01*
X133875542Y-111764819D01*
X134256495Y-111764819D02*
X134304114Y-111717200D01*
X134399352Y-111669580D01*
X134637447Y-111669580D01*
X134732685Y-111717200D01*
X134780304Y-111764819D01*
X134827923Y-111860057D01*
X134827923Y-111955295D01*
X134780304Y-112098152D01*
X134208876Y-112669580D01*
X134827923Y-112669580D01*
X135304114Y-112669580D02*
X135494590Y-112669580D01*
X135589828Y-112621961D01*
X135637447Y-112574342D01*
X135732685Y-112431485D01*
X135780304Y-112241009D01*
X135780304Y-111860057D01*
X135732685Y-111764819D01*
X135685066Y-111717200D01*
X135589828Y-111669580D01*
X135399352Y-111669580D01*
X135304114Y-111717200D01*
X135256495Y-111764819D01*
X135208876Y-111860057D01*
X135208876Y-112098152D01*
X135256495Y-112193390D01*
X135304114Y-112241009D01*
X135399352Y-112288628D01*
X135589828Y-112288628D01*
X135685066Y-112241009D01*
X135732685Y-112193390D01*
X135780304Y-112098152D01*
X118011180Y-117584457D02*
X117534990Y-117917790D01*
X118011180Y-118155885D02*
X117011180Y-118155885D01*
X117011180Y-117774933D01*
X117058800Y-117679695D01*
X117106419Y-117632076D01*
X117201657Y-117584457D01*
X117344514Y-117584457D01*
X117439752Y-117632076D01*
X117487371Y-117679695D01*
X117534990Y-117774933D01*
X117534990Y-118155885D01*
X117106419Y-117203504D02*
X117058800Y-117155885D01*
X117011180Y-117060647D01*
X117011180Y-116822552D01*
X117058800Y-116727314D01*
X117106419Y-116679695D01*
X117201657Y-116632076D01*
X117296895Y-116632076D01*
X117439752Y-116679695D01*
X118011180Y-117251123D01*
X118011180Y-116632076D01*
X117344514Y-115774933D02*
X118011180Y-115774933D01*
X116963561Y-116013028D02*
X117677847Y-116251123D01*
X117677847Y-115632076D01*
X92122666Y-109383580D02*
X92122666Y-110097866D01*
X92075047Y-110240723D01*
X91979809Y-110335961D01*
X91836952Y-110383580D01*
X91741714Y-110383580D01*
X93122666Y-110383580D02*
X92551238Y-110383580D01*
X92836952Y-110383580D02*
X92836952Y-109383580D01*
X92741714Y-109526438D01*
X92646476Y-109621676D01*
X92551238Y-109669295D01*
X109124761Y-88076019D02*
X109029523Y-88028400D01*
X108934285Y-87933161D01*
X108791428Y-87790304D01*
X108696190Y-87742685D01*
X108600952Y-87742685D01*
X108648571Y-87980780D02*
X108553333Y-87933161D01*
X108458095Y-87837923D01*
X108410476Y-87647447D01*
X108410476Y-87314114D01*
X108458095Y-87123638D01*
X108553333Y-87028400D01*
X108648571Y-86980780D01*
X108839047Y-86980780D01*
X108934285Y-87028400D01*
X109029523Y-87123638D01*
X109077142Y-87314114D01*
X109077142Y-87647447D01*
X109029523Y-87837923D01*
X108934285Y-87933161D01*
X108839047Y-87980780D01*
X108648571Y-87980780D01*
X109410476Y-86980780D02*
X110029523Y-86980780D01*
X109696190Y-87361733D01*
X109839047Y-87361733D01*
X109934285Y-87409352D01*
X109981904Y-87456971D01*
X110029523Y-87552209D01*
X110029523Y-87790304D01*
X109981904Y-87885542D01*
X109934285Y-87933161D01*
X109839047Y-87980780D01*
X109553333Y-87980780D01*
X109458095Y-87933161D01*
X109410476Y-87885542D01*
X124725180Y-93033695D02*
X125534704Y-93033695D01*
X125629942Y-92986076D01*
X125677561Y-92938457D01*
X125725180Y-92843219D01*
X125725180Y-92652742D01*
X125677561Y-92557504D01*
X125629942Y-92509885D01*
X125534704Y-92462266D01*
X124725180Y-92462266D01*
X125725180Y-91462266D02*
X125725180Y-92033695D01*
X125725180Y-91747980D02*
X124725180Y-91747980D01*
X124868038Y-91843219D01*
X124963276Y-91938457D01*
X125010895Y-92033695D01*
X124820419Y-91081314D02*
X124772800Y-91033695D01*
X124725180Y-90938457D01*
X124725180Y-90700361D01*
X124772800Y-90605123D01*
X124820419Y-90557504D01*
X124915657Y-90509885D01*
X125010895Y-90509885D01*
X125153752Y-90557504D01*
X125725180Y-91128933D01*
X125725180Y-90509885D01*
X105295980Y-120919495D02*
X104295980Y-120919495D01*
X104295980Y-120681400D01*
X104343600Y-120538542D01*
X104438838Y-120443304D01*
X104534076Y-120395685D01*
X104724552Y-120348066D01*
X104867409Y-120348066D01*
X105057885Y-120395685D01*
X105153123Y-120443304D01*
X105248361Y-120538542D01*
X105295980Y-120681400D01*
X105295980Y-120919495D01*
X104295980Y-120014733D02*
X104295980Y-119395685D01*
X104676933Y-119729019D01*
X104676933Y-119586161D01*
X104724552Y-119490923D01*
X104772171Y-119443304D01*
X104867409Y-119395685D01*
X105105504Y-119395685D01*
X105200742Y-119443304D01*
X105248361Y-119490923D01*
X105295980Y-119586161D01*
X105295980Y-119871876D01*
X105248361Y-119967114D01*
X105200742Y-120014733D01*
X128823980Y-98737657D02*
X128347790Y-99070990D01*
X128823980Y-99309085D02*
X127823980Y-99309085D01*
X127823980Y-98928133D01*
X127871600Y-98832895D01*
X127919219Y-98785276D01*
X128014457Y-98737657D01*
X128157314Y-98737657D01*
X128252552Y-98785276D01*
X128300171Y-98832895D01*
X128347790Y-98928133D01*
X128347790Y-99309085D01*
X128823980Y-97785276D02*
X128823980Y-98356704D01*
X128823980Y-98070990D02*
X127823980Y-98070990D01*
X127966838Y-98166228D01*
X128062076Y-98261466D01*
X128109695Y-98356704D01*
X128823980Y-97309085D02*
X128823980Y-97118609D01*
X128776361Y-97023371D01*
X128728742Y-96975752D01*
X128585885Y-96880514D01*
X128395409Y-96832895D01*
X128014457Y-96832895D01*
X127919219Y-96880514D01*
X127871600Y-96928133D01*
X127823980Y-97023371D01*
X127823980Y-97213847D01*
X127871600Y-97309085D01*
X127919219Y-97356704D01*
X128014457Y-97404323D01*
X128252552Y-97404323D01*
X128347790Y-97356704D01*
X128395409Y-97309085D01*
X128443028Y-97213847D01*
X128443028Y-97023371D01*
X128395409Y-96928133D01*
X128347790Y-96880514D01*
X128252552Y-96832895D01*
X124680742Y-87523580D02*
X124347409Y-87047390D01*
X124109314Y-87523580D02*
X124109314Y-86523580D01*
X124490266Y-86523580D01*
X124585504Y-86571200D01*
X124633123Y-86618819D01*
X124680742Y-86714057D01*
X124680742Y-86856914D01*
X124633123Y-86952152D01*
X124585504Y-86999771D01*
X124490266Y-87047390D01*
X124109314Y-87047390D01*
X125061695Y-86618819D02*
X125109314Y-86571200D01*
X125204552Y-86523580D01*
X125442647Y-86523580D01*
X125537885Y-86571200D01*
X125585504Y-86618819D01*
X125633123Y-86714057D01*
X125633123Y-86809295D01*
X125585504Y-86952152D01*
X125014076Y-87523580D01*
X125633123Y-87523580D01*
X126490266Y-86523580D02*
X126299790Y-86523580D01*
X126204552Y-86571200D01*
X126156933Y-86618819D01*
X126061695Y-86761676D01*
X126014076Y-86952152D01*
X126014076Y-87333104D01*
X126061695Y-87428342D01*
X126109314Y-87475961D01*
X126204552Y-87523580D01*
X126395028Y-87523580D01*
X126490266Y-87475961D01*
X126537885Y-87428342D01*
X126585504Y-87333104D01*
X126585504Y-87095009D01*
X126537885Y-86999771D01*
X126490266Y-86952152D01*
X126395028Y-86904533D01*
X126204552Y-86904533D01*
X126109314Y-86952152D01*
X126061695Y-86999771D01*
X126014076Y-87095009D01*
X132176780Y-121089657D02*
X131700590Y-121422990D01*
X132176780Y-121661085D02*
X131176780Y-121661085D01*
X131176780Y-121280133D01*
X131224400Y-121184895D01*
X131272019Y-121137276D01*
X131367257Y-121089657D01*
X131510114Y-121089657D01*
X131605352Y-121137276D01*
X131652971Y-121184895D01*
X131700590Y-121280133D01*
X131700590Y-121661085D01*
X132176780Y-120137276D02*
X132176780Y-120708704D01*
X132176780Y-120422990D02*
X131176780Y-120422990D01*
X131319638Y-120518228D01*
X131414876Y-120613466D01*
X131462495Y-120708704D01*
X131176780Y-119803942D02*
X131176780Y-119184895D01*
X131557733Y-119518228D01*
X131557733Y-119375371D01*
X131605352Y-119280133D01*
X131652971Y-119232514D01*
X131748209Y-119184895D01*
X131986304Y-119184895D01*
X132081542Y-119232514D01*
X132129161Y-119280133D01*
X132176780Y-119375371D01*
X132176780Y-119661085D01*
X132129161Y-119756323D01*
X132081542Y-119803942D01*
X126509542Y-114098342D02*
X126461923Y-114145961D01*
X126319066Y-114193580D01*
X126223828Y-114193580D01*
X126080971Y-114145961D01*
X125985733Y-114050723D01*
X125938114Y-113955485D01*
X125890495Y-113765009D01*
X125890495Y-113622152D01*
X125938114Y-113431676D01*
X125985733Y-113336438D01*
X126080971Y-113241200D01*
X126223828Y-113193580D01*
X126319066Y-113193580D01*
X126461923Y-113241200D01*
X126509542Y-113288819D01*
X126842876Y-113193580D02*
X127461923Y-113193580D01*
X127128590Y-113574533D01*
X127271447Y-113574533D01*
X127366685Y-113622152D01*
X127414304Y-113669771D01*
X127461923Y-113765009D01*
X127461923Y-114003104D01*
X127414304Y-114098342D01*
X127366685Y-114145961D01*
X127271447Y-114193580D01*
X126985733Y-114193580D01*
X126890495Y-114145961D01*
X126842876Y-114098342D01*
X128319066Y-113193580D02*
X128128590Y-113193580D01*
X128033352Y-113241200D01*
X127985733Y-113288819D01*
X127890495Y-113431676D01*
X127842876Y-113622152D01*
X127842876Y-114003104D01*
X127890495Y-114098342D01*
X127938114Y-114145961D01*
X128033352Y-114193580D01*
X128223828Y-114193580D01*
X128319066Y-114145961D01*
X128366685Y-114098342D01*
X128414304Y-114003104D01*
X128414304Y-113765009D01*
X128366685Y-113669771D01*
X128319066Y-113622152D01*
X128223828Y-113574533D01*
X128033352Y-113574533D01*
X127938114Y-113622152D01*
X127890495Y-113669771D01*
X127842876Y-113765009D01*
X139203180Y-102695333D02*
X139917466Y-102695333D01*
X140060323Y-102742952D01*
X140155561Y-102838190D01*
X140203180Y-102981047D01*
X140203180Y-103076285D01*
X139203180Y-102314380D02*
X139203180Y-101695333D01*
X139584133Y-102028666D01*
X139584133Y-101885809D01*
X139631752Y-101790571D01*
X139679371Y-101742952D01*
X139774609Y-101695333D01*
X140012704Y-101695333D01*
X140107942Y-101742952D01*
X140155561Y-101790571D01*
X140203180Y-101885809D01*
X140203180Y-102171523D01*
X140155561Y-102266761D01*
X140107942Y-102314380D01*
X133570742Y-96819980D02*
X133237409Y-96343790D01*
X132999314Y-96819980D02*
X132999314Y-95819980D01*
X133380266Y-95819980D01*
X133475504Y-95867600D01*
X133523123Y-95915219D01*
X133570742Y-96010457D01*
X133570742Y-96153314D01*
X133523123Y-96248552D01*
X133475504Y-96296171D01*
X133380266Y-96343790D01*
X132999314Y-96343790D01*
X133951695Y-95915219D02*
X133999314Y-95867600D01*
X134094552Y-95819980D01*
X134332647Y-95819980D01*
X134427885Y-95867600D01*
X134475504Y-95915219D01*
X134523123Y-96010457D01*
X134523123Y-96105695D01*
X134475504Y-96248552D01*
X133904076Y-96819980D01*
X134523123Y-96819980D01*
X134856457Y-95819980D02*
X135475504Y-95819980D01*
X135142171Y-96200933D01*
X135285028Y-96200933D01*
X135380266Y-96248552D01*
X135427885Y-96296171D01*
X135475504Y-96391409D01*
X135475504Y-96629504D01*
X135427885Y-96724742D01*
X135380266Y-96772361D01*
X135285028Y-96819980D01*
X134999314Y-96819980D01*
X134904076Y-96772361D01*
X134856457Y-96724742D01*
X92335733Y-89307942D02*
X92288114Y-89355561D01*
X92145257Y-89403180D01*
X92050019Y-89403180D01*
X91907161Y-89355561D01*
X91811923Y-89260323D01*
X91764304Y-89165085D01*
X91716685Y-88974609D01*
X91716685Y-88831752D01*
X91764304Y-88641276D01*
X91811923Y-88546038D01*
X91907161Y-88450800D01*
X92050019Y-88403180D01*
X92145257Y-88403180D01*
X92288114Y-88450800D01*
X92335733Y-88498419D01*
X92811923Y-89403180D02*
X93002400Y-89403180D01*
X93097638Y-89355561D01*
X93145257Y-89307942D01*
X93240495Y-89165085D01*
X93288114Y-88974609D01*
X93288114Y-88593657D01*
X93240495Y-88498419D01*
X93192876Y-88450800D01*
X93097638Y-88403180D01*
X92907161Y-88403180D01*
X92811923Y-88450800D01*
X92764304Y-88498419D01*
X92716685Y-88593657D01*
X92716685Y-88831752D01*
X92764304Y-88926990D01*
X92811923Y-88974609D01*
X92907161Y-89022228D01*
X93097638Y-89022228D01*
X93192876Y-88974609D01*
X93240495Y-88926990D01*
X93288114Y-88831752D01*
X112423180Y-117542342D02*
X111946990Y-117875675D01*
X112423180Y-118113770D02*
X111423180Y-118113770D01*
X111423180Y-117732818D01*
X111470800Y-117637580D01*
X111518419Y-117589961D01*
X111613657Y-117542342D01*
X111756514Y-117542342D01*
X111851752Y-117589961D01*
X111899371Y-117637580D01*
X111946990Y-117732818D01*
X111946990Y-118113770D01*
X111518419Y-117161389D02*
X111470800Y-117113770D01*
X111423180Y-117018532D01*
X111423180Y-116780437D01*
X111470800Y-116685199D01*
X111518419Y-116637580D01*
X111613657Y-116589961D01*
X111708895Y-116589961D01*
X111851752Y-116637580D01*
X112423180Y-117209008D01*
X112423180Y-116589961D01*
X112423180Y-115637580D02*
X112423180Y-116209008D01*
X112423180Y-115923294D02*
X111423180Y-115923294D01*
X111566038Y-116018532D01*
X111661276Y-116113770D01*
X111708895Y-116209008D01*
X131878342Y-100414057D02*
X131925961Y-100461676D01*
X131973580Y-100604533D01*
X131973580Y-100699771D01*
X131925961Y-100842628D01*
X131830723Y-100937866D01*
X131735485Y-100985485D01*
X131545009Y-101033104D01*
X131402152Y-101033104D01*
X131211676Y-100985485D01*
X131116438Y-100937866D01*
X131021200Y-100842628D01*
X130973580Y-100699771D01*
X130973580Y-100604533D01*
X131021200Y-100461676D01*
X131068819Y-100414057D01*
X130973580Y-100080723D02*
X130973580Y-99461676D01*
X131354533Y-99795009D01*
X131354533Y-99652152D01*
X131402152Y-99556914D01*
X131449771Y-99509295D01*
X131545009Y-99461676D01*
X131783104Y-99461676D01*
X131878342Y-99509295D01*
X131925961Y-99556914D01*
X131973580Y-99652152D01*
X131973580Y-99937866D01*
X131925961Y-100033104D01*
X131878342Y-100080723D01*
X130973580Y-98842628D02*
X130973580Y-98747390D01*
X131021200Y-98652152D01*
X131068819Y-98604533D01*
X131164057Y-98556914D01*
X131354533Y-98509295D01*
X131592628Y-98509295D01*
X131783104Y-98556914D01*
X131878342Y-98604533D01*
X131925961Y-98652152D01*
X131973580Y-98747390D01*
X131973580Y-98842628D01*
X131925961Y-98937866D01*
X131878342Y-98985485D01*
X131783104Y-99033104D01*
X131592628Y-99080723D01*
X131354533Y-99080723D01*
X131164057Y-99033104D01*
X131068819Y-98985485D01*
X131021200Y-98937866D01*
X130973580Y-98842628D01*
X126256680Y-120989957D02*
X125780490Y-121323290D01*
X126256680Y-121561385D02*
X125256680Y-121561385D01*
X125256680Y-121180433D01*
X125304300Y-121085195D01*
X125351919Y-121037576D01*
X125447157Y-120989957D01*
X125590014Y-120989957D01*
X125685252Y-121037576D01*
X125732871Y-121085195D01*
X125780490Y-121180433D01*
X125780490Y-121561385D01*
X126256680Y-120037576D02*
X126256680Y-120609004D01*
X126256680Y-120323290D02*
X125256680Y-120323290D01*
X125399538Y-120418528D01*
X125494776Y-120513766D01*
X125542395Y-120609004D01*
X125256680Y-119704242D02*
X125256680Y-119037576D01*
X126256680Y-119466147D01*
X129034780Y-120989957D02*
X128558590Y-121323290D01*
X129034780Y-121561385D02*
X128034780Y-121561385D01*
X128034780Y-121180433D01*
X128082400Y-121085195D01*
X128130019Y-121037576D01*
X128225257Y-120989957D01*
X128368114Y-120989957D01*
X128463352Y-121037576D01*
X128510971Y-121085195D01*
X128558590Y-121180433D01*
X128558590Y-121561385D01*
X129034780Y-120037576D02*
X129034780Y-120609004D01*
X129034780Y-120323290D02*
X128034780Y-120323290D01*
X128177638Y-120418528D01*
X128272876Y-120513766D01*
X128320495Y-120609004D01*
X128463352Y-119466147D02*
X128415733Y-119561385D01*
X128368114Y-119609004D01*
X128272876Y-119656623D01*
X128225257Y-119656623D01*
X128130019Y-119609004D01*
X128082400Y-119561385D01*
X128034780Y-119466147D01*
X128034780Y-119275671D01*
X128082400Y-119180433D01*
X128130019Y-119132814D01*
X128225257Y-119085195D01*
X128272876Y-119085195D01*
X128368114Y-119132814D01*
X128415733Y-119180433D01*
X128463352Y-119275671D01*
X128463352Y-119466147D01*
X128510971Y-119561385D01*
X128558590Y-119609004D01*
X128653828Y-119656623D01*
X128844304Y-119656623D01*
X128939542Y-119609004D01*
X128987161Y-119561385D01*
X129034780Y-119466147D01*
X129034780Y-119275671D01*
X128987161Y-119180433D01*
X128939542Y-119132814D01*
X128844304Y-119085195D01*
X128653828Y-119085195D01*
X128558590Y-119132814D01*
X128510971Y-119180433D01*
X128463352Y-119275671D01*
X123439180Y-124133195D02*
X122439180Y-124133195D01*
X122439180Y-123895100D01*
X122486800Y-123752242D01*
X122582038Y-123657004D01*
X122677276Y-123609385D01*
X122867752Y-123561766D01*
X123010609Y-123561766D01*
X123201085Y-123609385D01*
X123296323Y-123657004D01*
X123391561Y-123752242D01*
X123439180Y-123895100D01*
X123439180Y-124133195D01*
X122439180Y-122704623D02*
X122439180Y-122895100D01*
X122486800Y-122990338D01*
X122534419Y-123037957D01*
X122677276Y-123133195D01*
X122867752Y-123180814D01*
X123248704Y-123180814D01*
X123343942Y-123133195D01*
X123391561Y-123085576D01*
X123439180Y-122990338D01*
X123439180Y-122799861D01*
X123391561Y-122704623D01*
X123343942Y-122657004D01*
X123248704Y-122609385D01*
X123010609Y-122609385D01*
X122915371Y-122657004D01*
X122867752Y-122704623D01*
X122820133Y-122799861D01*
X122820133Y-122990338D01*
X122867752Y-123085576D01*
X122915371Y-123133195D01*
X123010609Y-123180814D01*
X132176780Y-124080495D02*
X131176780Y-124080495D01*
X131176780Y-123842400D01*
X131224400Y-123699542D01*
X131319638Y-123604304D01*
X131414876Y-123556685D01*
X131605352Y-123509066D01*
X131748209Y-123509066D01*
X131938685Y-123556685D01*
X132033923Y-123604304D01*
X132129161Y-123699542D01*
X132176780Y-123842400D01*
X132176780Y-124080495D01*
X131510114Y-122651923D02*
X132176780Y-122651923D01*
X131129161Y-122890019D02*
X131843447Y-123128114D01*
X131843447Y-122509066D01*
X136603342Y-109316780D02*
X136270009Y-108840590D01*
X136031914Y-109316780D02*
X136031914Y-108316780D01*
X136412866Y-108316780D01*
X136508104Y-108364400D01*
X136555723Y-108412019D01*
X136603342Y-108507257D01*
X136603342Y-108650114D01*
X136555723Y-108745352D01*
X136508104Y-108792971D01*
X136412866Y-108840590D01*
X136031914Y-108840590D01*
X136984295Y-108412019D02*
X137031914Y-108364400D01*
X137127152Y-108316780D01*
X137365247Y-108316780D01*
X137460485Y-108364400D01*
X137508104Y-108412019D01*
X137555723Y-108507257D01*
X137555723Y-108602495D01*
X137508104Y-108745352D01*
X136936676Y-109316780D01*
X137555723Y-109316780D01*
X137936676Y-108412019D02*
X137984295Y-108364400D01*
X138079533Y-108316780D01*
X138317628Y-108316780D01*
X138412866Y-108364400D01*
X138460485Y-108412019D01*
X138508104Y-108507257D01*
X138508104Y-108602495D01*
X138460485Y-108745352D01*
X137889057Y-109316780D01*
X138508104Y-109316780D01*
X129027180Y-124082395D02*
X128027180Y-124082395D01*
X128027180Y-123844300D01*
X128074800Y-123701442D01*
X128170038Y-123606204D01*
X128265276Y-123558585D01*
X128455752Y-123510966D01*
X128598609Y-123510966D01*
X128789085Y-123558585D01*
X128884323Y-123606204D01*
X128979561Y-123701442D01*
X129027180Y-123844300D01*
X129027180Y-124082395D01*
X128455752Y-122939538D02*
X128408133Y-123034776D01*
X128360514Y-123082395D01*
X128265276Y-123130014D01*
X128217657Y-123130014D01*
X128122419Y-123082395D01*
X128074800Y-123034776D01*
X128027180Y-122939538D01*
X128027180Y-122749061D01*
X128074800Y-122653823D01*
X128122419Y-122606204D01*
X128217657Y-122558585D01*
X128265276Y-122558585D01*
X128360514Y-122606204D01*
X128408133Y-122653823D01*
X128455752Y-122749061D01*
X128455752Y-122939538D01*
X128503371Y-123034776D01*
X128550990Y-123082395D01*
X128646228Y-123130014D01*
X128836704Y-123130014D01*
X128931942Y-123082395D01*
X128979561Y-123034776D01*
X129027180Y-122939538D01*
X129027180Y-122749061D01*
X128979561Y-122653823D01*
X128931942Y-122606204D01*
X128836704Y-122558585D01*
X128646228Y-122558585D01*
X128550990Y-122606204D01*
X128503371Y-122653823D01*
X128455752Y-122749061D01*
X120097561Y-88076019D02*
X120002323Y-88028400D01*
X119907085Y-87933161D01*
X119764228Y-87790304D01*
X119668990Y-87742685D01*
X119573752Y-87742685D01*
X119621371Y-87980780D02*
X119526133Y-87933161D01*
X119430895Y-87837923D01*
X119383276Y-87647447D01*
X119383276Y-87314114D01*
X119430895Y-87123638D01*
X119526133Y-87028400D01*
X119621371Y-86980780D01*
X119811847Y-86980780D01*
X119907085Y-87028400D01*
X120002323Y-87123638D01*
X120049942Y-87314114D01*
X120049942Y-87647447D01*
X120002323Y-87837923D01*
X119907085Y-87933161D01*
X119811847Y-87980780D01*
X119621371Y-87980780D01*
X120907085Y-87314114D02*
X120907085Y-87980780D01*
X120668990Y-86933161D02*
X120430895Y-87647447D01*
X121049942Y-87647447D01*
X120119192Y-107780057D02*
X120166811Y-107827676D01*
X120214430Y-107970533D01*
X120214430Y-108065771D01*
X120166811Y-108208628D01*
X120071573Y-108303866D01*
X119976335Y-108351485D01*
X119785859Y-108399104D01*
X119643002Y-108399104D01*
X119452526Y-108351485D01*
X119357288Y-108303866D01*
X119262050Y-108208628D01*
X119214430Y-108065771D01*
X119214430Y-107970533D01*
X119262050Y-107827676D01*
X119309669Y-107780057D01*
X119309669Y-107399104D02*
X119262050Y-107351485D01*
X119214430Y-107256247D01*
X119214430Y-107018152D01*
X119262050Y-106922914D01*
X119309669Y-106875295D01*
X119404907Y-106827676D01*
X119500145Y-106827676D01*
X119643002Y-106875295D01*
X120214430Y-107446723D01*
X120214430Y-106827676D01*
X119214430Y-106208628D02*
X119214430Y-106113390D01*
X119262050Y-106018152D01*
X119309669Y-105970533D01*
X119404907Y-105922914D01*
X119595383Y-105875295D01*
X119833478Y-105875295D01*
X120023954Y-105922914D01*
X120119192Y-105970533D01*
X120166811Y-106018152D01*
X120214430Y-106113390D01*
X120214430Y-106208628D01*
X120166811Y-106303866D01*
X120119192Y-106351485D01*
X120023954Y-106399104D01*
X119833478Y-106446723D01*
X119595383Y-106446723D01*
X119404907Y-106399104D01*
X119309669Y-106351485D01*
X119262050Y-106303866D01*
X119214430Y-106208628D01*
X133707142Y-101785657D02*
X133754761Y-101833276D01*
X133802380Y-101976133D01*
X133802380Y-102071371D01*
X133754761Y-102214228D01*
X133659523Y-102309466D01*
X133564285Y-102357085D01*
X133373809Y-102404704D01*
X133230952Y-102404704D01*
X133040476Y-102357085D01*
X132945238Y-102309466D01*
X132850000Y-102214228D01*
X132802380Y-102071371D01*
X132802380Y-101976133D01*
X132850000Y-101833276D01*
X132897619Y-101785657D01*
X132897619Y-101404704D02*
X132850000Y-101357085D01*
X132802380Y-101261847D01*
X132802380Y-101023752D01*
X132850000Y-100928514D01*
X132897619Y-100880895D01*
X132992857Y-100833276D01*
X133088095Y-100833276D01*
X133230952Y-100880895D01*
X133802380Y-101452323D01*
X133802380Y-100833276D01*
X133230952Y-100261847D02*
X133183333Y-100357085D01*
X133135714Y-100404704D01*
X133040476Y-100452323D01*
X132992857Y-100452323D01*
X132897619Y-100404704D01*
X132850000Y-100357085D01*
X132802380Y-100261847D01*
X132802380Y-100071371D01*
X132850000Y-99976133D01*
X132897619Y-99928514D01*
X132992857Y-99880895D01*
X133040476Y-99880895D01*
X133135714Y-99928514D01*
X133183333Y-99976133D01*
X133230952Y-100071371D01*
X133230952Y-100261847D01*
X133278571Y-100357085D01*
X133326190Y-100404704D01*
X133421428Y-100452323D01*
X133611904Y-100452323D01*
X133707142Y-100404704D01*
X133754761Y-100357085D01*
X133802380Y-100261847D01*
X133802380Y-100071371D01*
X133754761Y-99976133D01*
X133707142Y-99928514D01*
X133611904Y-99880895D01*
X133421428Y-99880895D01*
X133326190Y-99928514D01*
X133278571Y-99976133D01*
X133230952Y-100071371D01*
X102400380Y-120958895D02*
X101400380Y-120958895D01*
X101400380Y-120720800D01*
X101448000Y-120577942D01*
X101543238Y-120482704D01*
X101638476Y-120435085D01*
X101828952Y-120387466D01*
X101971809Y-120387466D01*
X102162285Y-120435085D01*
X102257523Y-120482704D01*
X102352761Y-120577942D01*
X102400380Y-120720800D01*
X102400380Y-120958895D01*
X101495619Y-120006514D02*
X101448000Y-119958895D01*
X101400380Y-119863657D01*
X101400380Y-119625561D01*
X101448000Y-119530323D01*
X101495619Y-119482704D01*
X101590857Y-119435085D01*
X101686095Y-119435085D01*
X101828952Y-119482704D01*
X102400380Y-120054133D01*
X102400380Y-119435085D01*
X113212333Y-96921580D02*
X112879000Y-96445390D01*
X112640904Y-96921580D02*
X112640904Y-95921580D01*
X113021857Y-95921580D01*
X113117095Y-95969200D01*
X113164714Y-96016819D01*
X113212333Y-96112057D01*
X113212333Y-96254914D01*
X113164714Y-96350152D01*
X113117095Y-96397771D01*
X113021857Y-96445390D01*
X112640904Y-96445390D01*
X113783761Y-96350152D02*
X113688523Y-96302533D01*
X113640904Y-96254914D01*
X113593285Y-96159676D01*
X113593285Y-96112057D01*
X113640904Y-96016819D01*
X113688523Y-95969200D01*
X113783761Y-95921580D01*
X113974238Y-95921580D01*
X114069476Y-95969200D01*
X114117095Y-96016819D01*
X114164714Y-96112057D01*
X114164714Y-96159676D01*
X114117095Y-96254914D01*
X114069476Y-96302533D01*
X113974238Y-96350152D01*
X113783761Y-96350152D01*
X113688523Y-96397771D01*
X113640904Y-96445390D01*
X113593285Y-96540628D01*
X113593285Y-96731104D01*
X113640904Y-96826342D01*
X113688523Y-96873961D01*
X113783761Y-96921580D01*
X113974238Y-96921580D01*
X114069476Y-96873961D01*
X114117095Y-96826342D01*
X114164714Y-96731104D01*
X114164714Y-96540628D01*
X114117095Y-96445390D01*
X114069476Y-96397771D01*
X113974238Y-96350152D01*
X120645180Y-124183995D02*
X119645180Y-124183995D01*
X119645180Y-123945900D01*
X119692800Y-123803042D01*
X119788038Y-123707804D01*
X119883276Y-123660185D01*
X120073752Y-123612566D01*
X120216609Y-123612566D01*
X120407085Y-123660185D01*
X120502323Y-123707804D01*
X120597561Y-123803042D01*
X120645180Y-123945900D01*
X120645180Y-124183995D01*
X119645180Y-122707804D02*
X119645180Y-123183995D01*
X120121371Y-123231614D01*
X120073752Y-123183995D01*
X120026133Y-123088757D01*
X120026133Y-122850661D01*
X120073752Y-122755423D01*
X120121371Y-122707804D01*
X120216609Y-122660185D01*
X120454704Y-122660185D01*
X120549942Y-122707804D01*
X120597561Y-122755423D01*
X120645180Y-122850661D01*
X120645180Y-123088757D01*
X120597561Y-123183995D01*
X120549942Y-123231614D01*
X115504933Y-110440742D02*
X115457314Y-110488361D01*
X115314457Y-110535980D01*
X115219219Y-110535980D01*
X115076361Y-110488361D01*
X114981123Y-110393123D01*
X114933504Y-110297885D01*
X114885885Y-110107409D01*
X114885885Y-109964552D01*
X114933504Y-109774076D01*
X114981123Y-109678838D01*
X115076361Y-109583600D01*
X115219219Y-109535980D01*
X115314457Y-109535980D01*
X115457314Y-109583600D01*
X115504933Y-109631219D01*
X115885885Y-109631219D02*
X115933504Y-109583600D01*
X116028742Y-109535980D01*
X116266838Y-109535980D01*
X116362076Y-109583600D01*
X116409695Y-109631219D01*
X116457314Y-109726457D01*
X116457314Y-109821695D01*
X116409695Y-109964552D01*
X115838266Y-110535980D01*
X116457314Y-110535980D01*
X109483142Y-117593142D02*
X109530761Y-117640761D01*
X109578380Y-117783618D01*
X109578380Y-117878856D01*
X109530761Y-118021713D01*
X109435523Y-118116951D01*
X109340285Y-118164570D01*
X109149809Y-118212189D01*
X109006952Y-118212189D01*
X108816476Y-118164570D01*
X108721238Y-118116951D01*
X108626000Y-118021713D01*
X108578380Y-117878856D01*
X108578380Y-117783618D01*
X108626000Y-117640761D01*
X108673619Y-117593142D01*
X108673619Y-117212189D02*
X108626000Y-117164570D01*
X108578380Y-117069332D01*
X108578380Y-116831237D01*
X108626000Y-116735999D01*
X108673619Y-116688380D01*
X108768857Y-116640761D01*
X108864095Y-116640761D01*
X109006952Y-116688380D01*
X109578380Y-117259808D01*
X109578380Y-116640761D01*
X108578380Y-115735999D02*
X108578380Y-116212189D01*
X109054571Y-116259808D01*
X109006952Y-116212189D01*
X108959333Y-116116951D01*
X108959333Y-115878856D01*
X109006952Y-115783618D01*
X109054571Y-115735999D01*
X109149809Y-115688380D01*
X109387904Y-115688380D01*
X109483142Y-115735999D01*
X109530761Y-115783618D01*
X109578380Y-115878856D01*
X109578380Y-116116951D01*
X109530761Y-116212189D01*
X109483142Y-116259808D01*
X99555580Y-120970295D02*
X98555580Y-120970295D01*
X98555580Y-120732200D01*
X98603200Y-120589342D01*
X98698438Y-120494104D01*
X98793676Y-120446485D01*
X98984152Y-120398866D01*
X99127009Y-120398866D01*
X99317485Y-120446485D01*
X99412723Y-120494104D01*
X99507961Y-120589342D01*
X99555580Y-120732200D01*
X99555580Y-120970295D01*
X99555580Y-119446485D02*
X99555580Y-120017914D01*
X99555580Y-119732200D02*
X98555580Y-119732200D01*
X98698438Y-119827438D01*
X98793676Y-119922676D01*
X98841295Y-120017914D01*
X117873542Y-103684342D02*
X117825923Y-103731961D01*
X117683066Y-103779580D01*
X117587828Y-103779580D01*
X117444971Y-103731961D01*
X117349733Y-103636723D01*
X117302114Y-103541485D01*
X117254495Y-103351009D01*
X117254495Y-103208152D01*
X117302114Y-103017676D01*
X117349733Y-102922438D01*
X117444971Y-102827200D01*
X117587828Y-102779580D01*
X117683066Y-102779580D01*
X117825923Y-102827200D01*
X117873542Y-102874819D01*
X118254495Y-102874819D02*
X118302114Y-102827200D01*
X118397352Y-102779580D01*
X118635447Y-102779580D01*
X118730685Y-102827200D01*
X118778304Y-102874819D01*
X118825923Y-102970057D01*
X118825923Y-103065295D01*
X118778304Y-103208152D01*
X118206876Y-103779580D01*
X118825923Y-103779580D01*
X119683066Y-102779580D02*
X119492590Y-102779580D01*
X119397352Y-102827200D01*
X119349733Y-102874819D01*
X119254495Y-103017676D01*
X119206876Y-103208152D01*
X119206876Y-103589104D01*
X119254495Y-103684342D01*
X119302114Y-103731961D01*
X119397352Y-103779580D01*
X119587828Y-103779580D01*
X119683066Y-103731961D01*
X119730685Y-103684342D01*
X119778304Y-103589104D01*
X119778304Y-103351009D01*
X119730685Y-103255771D01*
X119683066Y-103208152D01*
X119587828Y-103160533D01*
X119397352Y-103160533D01*
X119302114Y-103208152D01*
X119254495Y-103255771D01*
X119206876Y-103351009D01*
X102509580Y-123372566D02*
X102033390Y-123705900D01*
X102509580Y-123943995D02*
X101509580Y-123943995D01*
X101509580Y-123563042D01*
X101557200Y-123467804D01*
X101604819Y-123420185D01*
X101700057Y-123372566D01*
X101842914Y-123372566D01*
X101938152Y-123420185D01*
X101985771Y-123467804D01*
X102033390Y-123563042D01*
X102033390Y-123943995D01*
X101604819Y-122991614D02*
X101557200Y-122943995D01*
X101509580Y-122848757D01*
X101509580Y-122610661D01*
X101557200Y-122515423D01*
X101604819Y-122467804D01*
X101700057Y-122420185D01*
X101795295Y-122420185D01*
X101938152Y-122467804D01*
X102509580Y-123039233D01*
X102509580Y-122420185D01*
X125629942Y-101315457D02*
X125677561Y-101363076D01*
X125725180Y-101505933D01*
X125725180Y-101601171D01*
X125677561Y-101744028D01*
X125582323Y-101839266D01*
X125487085Y-101886885D01*
X125296609Y-101934504D01*
X125153752Y-101934504D01*
X124963276Y-101886885D01*
X124868038Y-101839266D01*
X124772800Y-101744028D01*
X124725180Y-101601171D01*
X124725180Y-101505933D01*
X124772800Y-101363076D01*
X124820419Y-101315457D01*
X124820419Y-100934504D02*
X124772800Y-100886885D01*
X124725180Y-100791647D01*
X124725180Y-100553552D01*
X124772800Y-100458314D01*
X124820419Y-100410695D01*
X124915657Y-100363076D01*
X125010895Y-100363076D01*
X125153752Y-100410695D01*
X125725180Y-100982123D01*
X125725180Y-100363076D01*
X124820419Y-99982123D02*
X124772800Y-99934504D01*
X124725180Y-99839266D01*
X124725180Y-99601171D01*
X124772800Y-99505933D01*
X124820419Y-99458314D01*
X124915657Y-99410695D01*
X125010895Y-99410695D01*
X125153752Y-99458314D01*
X125725180Y-100029742D01*
X125725180Y-99410695D01*
X122750342Y-116485942D02*
X122702723Y-116533561D01*
X122559866Y-116581180D01*
X122464628Y-116581180D01*
X122321771Y-116533561D01*
X122226533Y-116438323D01*
X122178914Y-116343085D01*
X122131295Y-116152609D01*
X122131295Y-116009752D01*
X122178914Y-115819276D01*
X122226533Y-115724038D01*
X122321771Y-115628800D01*
X122464628Y-115581180D01*
X122559866Y-115581180D01*
X122702723Y-115628800D01*
X122750342Y-115676419D01*
X123131295Y-115676419D02*
X123178914Y-115628800D01*
X123274152Y-115581180D01*
X123512247Y-115581180D01*
X123607485Y-115628800D01*
X123655104Y-115676419D01*
X123702723Y-115771657D01*
X123702723Y-115866895D01*
X123655104Y-116009752D01*
X123083676Y-116581180D01*
X123702723Y-116581180D01*
X124036057Y-115581180D02*
X124655104Y-115581180D01*
X124321771Y-115962133D01*
X124464628Y-115962133D01*
X124559866Y-116009752D01*
X124607485Y-116057371D01*
X124655104Y-116152609D01*
X124655104Y-116390704D01*
X124607485Y-116485942D01*
X124559866Y-116533561D01*
X124464628Y-116581180D01*
X124178914Y-116581180D01*
X124083676Y-116533561D01*
X124036057Y-116485942D01*
X110660933Y-113488742D02*
X110613314Y-113536361D01*
X110470457Y-113583980D01*
X110375219Y-113583980D01*
X110232361Y-113536361D01*
X110137123Y-113441123D01*
X110089504Y-113345885D01*
X110041885Y-113155409D01*
X110041885Y-113012552D01*
X110089504Y-112822076D01*
X110137123Y-112726838D01*
X110232361Y-112631600D01*
X110375219Y-112583980D01*
X110470457Y-112583980D01*
X110613314Y-112631600D01*
X110660933Y-112679219D01*
X110994266Y-112583980D02*
X111613314Y-112583980D01*
X111279980Y-112964933D01*
X111422838Y-112964933D01*
X111518076Y-113012552D01*
X111565695Y-113060171D01*
X111613314Y-113155409D01*
X111613314Y-113393504D01*
X111565695Y-113488742D01*
X111518076Y-113536361D01*
X111422838Y-113583980D01*
X111137123Y-113583980D01*
X111041885Y-113536361D01*
X110994266Y-113488742D01*
X115111161Y-122999333D02*
X115158780Y-122856476D01*
X115158780Y-122618380D01*
X115111161Y-122523142D01*
X115063542Y-122475523D01*
X114968304Y-122427904D01*
X114873066Y-122427904D01*
X114777828Y-122475523D01*
X114730209Y-122523142D01*
X114682590Y-122618380D01*
X114634971Y-122808857D01*
X114587352Y-122904095D01*
X114539733Y-122951714D01*
X114444495Y-122999333D01*
X114349257Y-122999333D01*
X114254019Y-122951714D01*
X114206400Y-122904095D01*
X114158780Y-122808857D01*
X114158780Y-122570761D01*
X114206400Y-122427904D01*
X114158780Y-122094571D02*
X115158780Y-121856476D01*
X114444495Y-121666000D01*
X115158780Y-121475523D01*
X114158780Y-121237428D01*
X114254019Y-120904095D02*
X114206400Y-120856476D01*
X114158780Y-120761238D01*
X114158780Y-120523142D01*
X114206400Y-120427904D01*
X114254019Y-120380285D01*
X114349257Y-120332666D01*
X114444495Y-120332666D01*
X114587352Y-120380285D01*
X115158780Y-120951714D01*
X115158780Y-120332666D01*
X116546380Y-123329485D02*
X117355904Y-123329485D01*
X117451142Y-123281866D01*
X117498761Y-123234247D01*
X117546380Y-123139009D01*
X117546380Y-122948533D01*
X117498761Y-122853295D01*
X117451142Y-122805676D01*
X117355904Y-122758057D01*
X116546380Y-122758057D01*
X117498761Y-122329485D02*
X117546380Y-122186628D01*
X117546380Y-121948533D01*
X117498761Y-121853295D01*
X117451142Y-121805676D01*
X117355904Y-121758057D01*
X117260666Y-121758057D01*
X117165428Y-121805676D01*
X117117809Y-121853295D01*
X117070190Y-121948533D01*
X117022571Y-122139009D01*
X116974952Y-122234247D01*
X116927333Y-122281866D01*
X116832095Y-122329485D01*
X116736857Y-122329485D01*
X116641619Y-122281866D01*
X116594000Y-122234247D01*
X116546380Y-122139009D01*
X116546380Y-121900914D01*
X116594000Y-121758057D01*
X117022571Y-121329485D02*
X117022571Y-120996152D01*
X117546380Y-120853295D02*
X117546380Y-121329485D01*
X116546380Y-121329485D01*
X116546380Y-120853295D01*
X117546380Y-119853295D02*
X117070190Y-120186628D01*
X117546380Y-120424723D02*
X116546380Y-120424723D01*
X116546380Y-120043771D01*
X116594000Y-119948533D01*
X116641619Y-119900914D01*
X116736857Y-119853295D01*
X116879714Y-119853295D01*
X116974952Y-119900914D01*
X117022571Y-119948533D01*
X117070190Y-120043771D01*
X117070190Y-120424723D01*
X121050342Y-101315457D02*
X121097961Y-101363076D01*
X121145580Y-101505933D01*
X121145580Y-101601171D01*
X121097961Y-101744028D01*
X121002723Y-101839266D01*
X120907485Y-101886885D01*
X120717009Y-101934504D01*
X120574152Y-101934504D01*
X120383676Y-101886885D01*
X120288438Y-101839266D01*
X120193200Y-101744028D01*
X120145580Y-101601171D01*
X120145580Y-101505933D01*
X120193200Y-101363076D01*
X120240819Y-101315457D01*
X120240819Y-100934504D02*
X120193200Y-100886885D01*
X120145580Y-100791647D01*
X120145580Y-100553552D01*
X120193200Y-100458314D01*
X120240819Y-100410695D01*
X120336057Y-100363076D01*
X120431295Y-100363076D01*
X120574152Y-100410695D01*
X121145580Y-100982123D01*
X121145580Y-100363076D01*
X120145580Y-100029742D02*
X120145580Y-99363076D01*
X121145580Y-99791647D01*
X93351733Y-96921580D02*
X93018400Y-96445390D01*
X92780304Y-96921580D02*
X92780304Y-95921580D01*
X93161257Y-95921580D01*
X93256495Y-95969200D01*
X93304114Y-96016819D01*
X93351733Y-96112057D01*
X93351733Y-96254914D01*
X93304114Y-96350152D01*
X93256495Y-96397771D01*
X93161257Y-96445390D01*
X92780304Y-96445390D01*
X93685066Y-95921580D02*
X94351733Y-95921580D01*
X93923161Y-96921580D01*
X113040942Y-99213942D02*
X112993323Y-99261561D01*
X112850466Y-99309180D01*
X112755228Y-99309180D01*
X112612371Y-99261561D01*
X112517133Y-99166323D01*
X112469514Y-99071085D01*
X112421895Y-98880609D01*
X112421895Y-98737752D01*
X112469514Y-98547276D01*
X112517133Y-98452038D01*
X112612371Y-98356800D01*
X112755228Y-98309180D01*
X112850466Y-98309180D01*
X112993323Y-98356800D01*
X113040942Y-98404419D01*
X113993323Y-99309180D02*
X113421895Y-99309180D01*
X113707609Y-99309180D02*
X113707609Y-98309180D01*
X113612371Y-98452038D01*
X113517133Y-98547276D01*
X113421895Y-98594895D01*
X114374276Y-98404419D02*
X114421895Y-98356800D01*
X114517133Y-98309180D01*
X114755228Y-98309180D01*
X114850466Y-98356800D01*
X114898085Y-98404419D01*
X114945704Y-98499657D01*
X114945704Y-98594895D01*
X114898085Y-98737752D01*
X114326657Y-99309180D01*
X114945704Y-99309180D01*
X123446780Y-120991857D02*
X122970590Y-121325190D01*
X123446780Y-121563285D02*
X122446780Y-121563285D01*
X122446780Y-121182333D01*
X122494400Y-121087095D01*
X122542019Y-121039476D01*
X122637257Y-120991857D01*
X122780114Y-120991857D01*
X122875352Y-121039476D01*
X122922971Y-121087095D01*
X122970590Y-121182333D01*
X122970590Y-121563285D01*
X123446780Y-120039476D02*
X123446780Y-120610904D01*
X123446780Y-120325190D02*
X122446780Y-120325190D01*
X122589638Y-120420428D01*
X122684876Y-120515666D01*
X122732495Y-120610904D01*
X122446780Y-119182333D02*
X122446780Y-119372809D01*
X122494400Y-119468047D01*
X122542019Y-119515666D01*
X122684876Y-119610904D01*
X122875352Y-119658523D01*
X123256304Y-119658523D01*
X123351542Y-119610904D01*
X123399161Y-119563285D01*
X123446780Y-119468047D01*
X123446780Y-119277571D01*
X123399161Y-119182333D01*
X123351542Y-119134714D01*
X123256304Y-119087095D01*
X123018209Y-119087095D01*
X122922971Y-119134714D01*
X122875352Y-119182333D01*
X122827733Y-119277571D01*
X122827733Y-119468047D01*
X122875352Y-119563285D01*
X122922971Y-119610904D01*
X123018209Y-119658523D01*
X105698695Y-110858980D02*
X105698695Y-111668504D01*
X105746314Y-111763742D01*
X105793933Y-111811361D01*
X105889171Y-111858980D01*
X106079647Y-111858980D01*
X106174885Y-111811361D01*
X106222504Y-111763742D01*
X106270123Y-111668504D01*
X106270123Y-110858980D01*
X106651076Y-110858980D02*
X107270123Y-110858980D01*
X106936790Y-111239933D01*
X107079647Y-111239933D01*
X107174885Y-111287552D01*
X107222504Y-111335171D01*
X107270123Y-111430409D01*
X107270123Y-111668504D01*
X107222504Y-111763742D01*
X107174885Y-111811361D01*
X107079647Y-111858980D01*
X106793933Y-111858980D01*
X106698695Y-111811361D01*
X106651076Y-111763742D01*
X98202761Y-88126819D02*
X98107523Y-88079200D01*
X98012285Y-87983961D01*
X97869428Y-87841104D01*
X97774190Y-87793485D01*
X97678952Y-87793485D01*
X97726571Y-88031580D02*
X97631333Y-87983961D01*
X97536095Y-87888723D01*
X97488476Y-87698247D01*
X97488476Y-87364914D01*
X97536095Y-87174438D01*
X97631333Y-87079200D01*
X97726571Y-87031580D01*
X97917047Y-87031580D01*
X98012285Y-87079200D01*
X98107523Y-87174438D01*
X98155142Y-87364914D01*
X98155142Y-87698247D01*
X98107523Y-87888723D01*
X98012285Y-87983961D01*
X97917047Y-88031580D01*
X97726571Y-88031580D01*
X98536095Y-87126819D02*
X98583714Y-87079200D01*
X98678952Y-87031580D01*
X98917047Y-87031580D01*
X99012285Y-87079200D01*
X99059904Y-87126819D01*
X99107523Y-87222057D01*
X99107523Y-87317295D01*
X99059904Y-87460152D01*
X98488476Y-88031580D01*
X99107523Y-88031580D01*
X134948704Y-87574380D02*
X134948704Y-86574380D01*
X135186800Y-86574380D01*
X135329657Y-86622000D01*
X135424895Y-86717238D01*
X135472514Y-86812476D01*
X135520133Y-87002952D01*
X135520133Y-87145809D01*
X135472514Y-87336285D01*
X135424895Y-87431523D01*
X135329657Y-87526761D01*
X135186800Y-87574380D01*
X134948704Y-87574380D01*
X135996323Y-87574380D02*
X136186800Y-87574380D01*
X136282038Y-87526761D01*
X136329657Y-87479142D01*
X136424895Y-87336285D01*
X136472514Y-87145809D01*
X136472514Y-86764857D01*
X136424895Y-86669619D01*
X136377276Y-86622000D01*
X136282038Y-86574380D01*
X136091561Y-86574380D01*
X135996323Y-86622000D01*
X135948704Y-86669619D01*
X135901085Y-86764857D01*
X135901085Y-87002952D01*
X135948704Y-87098190D01*
X135996323Y-87145809D01*
X136091561Y-87193428D01*
X136282038Y-87193428D01*
X136377276Y-87145809D01*
X136424895Y-87098190D01*
X136472514Y-87002952D01*
X132034114Y-87574380D02*
X132034114Y-86574380D01*
X132272209Y-86574380D01*
X132415066Y-86622000D01*
X132510304Y-86717238D01*
X132557923Y-86812476D01*
X132605542Y-87002952D01*
X132605542Y-87145809D01*
X132557923Y-87336285D01*
X132510304Y-87431523D01*
X132415066Y-87526761D01*
X132272209Y-87574380D01*
X132034114Y-87574380D01*
X133557923Y-87574380D02*
X132986495Y-87574380D01*
X133272209Y-87574380D02*
X133272209Y-86574380D01*
X133176971Y-86717238D01*
X133081733Y-86812476D01*
X132986495Y-86860095D01*
X134176971Y-86574380D02*
X134272209Y-86574380D01*
X134367447Y-86622000D01*
X134415066Y-86669619D01*
X134462685Y-86764857D01*
X134510304Y-86955333D01*
X134510304Y-87193428D01*
X134462685Y-87383904D01*
X134415066Y-87479142D01*
X134367447Y-87526761D01*
X134272209Y-87574380D01*
X134176971Y-87574380D01*
X134081733Y-87526761D01*
X134034114Y-87479142D01*
X133986495Y-87383904D01*
X133938876Y-87193428D01*
X133938876Y-86955333D01*
X133986495Y-86764857D01*
X134034114Y-86669619D01*
X134081733Y-86622000D01*
X134176971Y-86574380D01*
X120719480Y-120991857D02*
X120243290Y-121325190D01*
X120719480Y-121563285D02*
X119719480Y-121563285D01*
X119719480Y-121182333D01*
X119767100Y-121087095D01*
X119814719Y-121039476D01*
X119909957Y-120991857D01*
X120052814Y-120991857D01*
X120148052Y-121039476D01*
X120195671Y-121087095D01*
X120243290Y-121182333D01*
X120243290Y-121563285D01*
X120719480Y-120039476D02*
X120719480Y-120610904D01*
X120719480Y-120325190D02*
X119719480Y-120325190D01*
X119862338Y-120420428D01*
X119957576Y-120515666D01*
X120005195Y-120610904D01*
X120052814Y-119182333D02*
X120719480Y-119182333D01*
X119671861Y-119420428D02*
X120386147Y-119658523D01*
X120386147Y-119039476D01*
X133875542Y-114047542D02*
X133827923Y-114095161D01*
X133685066Y-114142780D01*
X133589828Y-114142780D01*
X133446971Y-114095161D01*
X133351733Y-113999923D01*
X133304114Y-113904685D01*
X133256495Y-113714209D01*
X133256495Y-113571352D01*
X133304114Y-113380876D01*
X133351733Y-113285638D01*
X133446971Y-113190400D01*
X133589828Y-113142780D01*
X133685066Y-113142780D01*
X133827923Y-113190400D01*
X133875542Y-113238019D01*
X134256495Y-113238019D02*
X134304114Y-113190400D01*
X134399352Y-113142780D01*
X134637447Y-113142780D01*
X134732685Y-113190400D01*
X134780304Y-113238019D01*
X134827923Y-113333257D01*
X134827923Y-113428495D01*
X134780304Y-113571352D01*
X134208876Y-114142780D01*
X134827923Y-114142780D01*
X135685066Y-113476114D02*
X135685066Y-114142780D01*
X135446971Y-113095161D02*
X135208876Y-113809447D01*
X135827923Y-113809447D01*
X115121942Y-117593142D02*
X115169561Y-117640761D01*
X115217180Y-117783618D01*
X115217180Y-117878856D01*
X115169561Y-118021713D01*
X115074323Y-118116951D01*
X114979085Y-118164570D01*
X114788609Y-118212189D01*
X114645752Y-118212189D01*
X114455276Y-118164570D01*
X114360038Y-118116951D01*
X114264800Y-118021713D01*
X114217180Y-117878856D01*
X114217180Y-117783618D01*
X114264800Y-117640761D01*
X114312419Y-117593142D01*
X114217180Y-117259808D02*
X114217180Y-116640761D01*
X114598133Y-116974094D01*
X114598133Y-116831237D01*
X114645752Y-116735999D01*
X114693371Y-116688380D01*
X114788609Y-116640761D01*
X115026704Y-116640761D01*
X115121942Y-116688380D01*
X115169561Y-116735999D01*
X115217180Y-116831237D01*
X115217180Y-117116951D01*
X115169561Y-117212189D01*
X115121942Y-117259808D01*
X114217180Y-116307427D02*
X114217180Y-115688380D01*
X114598133Y-116021713D01*
X114598133Y-115878856D01*
X114645752Y-115783618D01*
X114693371Y-115735999D01*
X114788609Y-115688380D01*
X115026704Y-115688380D01*
X115121942Y-115735999D01*
X115169561Y-115783618D01*
X115217180Y-115878856D01*
X115217180Y-116164570D01*
X115169561Y-116259808D01*
X115121942Y-116307427D01*
X99613980Y-123435466D02*
X99137790Y-123768800D01*
X99613980Y-124006895D02*
X98613980Y-124006895D01*
X98613980Y-123625942D01*
X98661600Y-123530704D01*
X98709219Y-123483085D01*
X98804457Y-123435466D01*
X98947314Y-123435466D01*
X99042552Y-123483085D01*
X99090171Y-123530704D01*
X99137790Y-123625942D01*
X99137790Y-124006895D01*
X99613980Y-122483085D02*
X99613980Y-123054514D01*
X99613980Y-122768800D02*
X98613980Y-122768800D01*
X98756838Y-122864038D01*
X98852076Y-122959276D01*
X98899695Y-123054514D01*
X100296742Y-104497142D02*
X100249123Y-104544761D01*
X100106266Y-104592380D01*
X100011028Y-104592380D01*
X99868171Y-104544761D01*
X99772933Y-104449523D01*
X99725314Y-104354285D01*
X99677695Y-104163809D01*
X99677695Y-104020952D01*
X99725314Y-103830476D01*
X99772933Y-103735238D01*
X99868171Y-103640000D01*
X100011028Y-103592380D01*
X100106266Y-103592380D01*
X100249123Y-103640000D01*
X100296742Y-103687619D01*
X101249123Y-104592380D02*
X100677695Y-104592380D01*
X100963409Y-104592380D02*
X100963409Y-103592380D01*
X100868171Y-103735238D01*
X100772933Y-103830476D01*
X100677695Y-103878095D01*
X101868171Y-103592380D02*
X101963409Y-103592380D01*
X102058647Y-103640000D01*
X102106266Y-103687619D01*
X102153885Y-103782857D01*
X102201504Y-103973333D01*
X102201504Y-104211428D01*
X102153885Y-104401904D01*
X102106266Y-104497142D01*
X102058647Y-104544761D01*
X101963409Y-104592380D01*
X101868171Y-104592380D01*
X101772933Y-104544761D01*
X101725314Y-104497142D01*
X101677695Y-104401904D01*
X101630076Y-104211428D01*
X101630076Y-103973333D01*
X101677695Y-103782857D01*
X101725314Y-103687619D01*
X101772933Y-103640000D01*
X101868171Y-103592380D01*
D11*
X113112420Y-108049600D02*
X113393580Y-108049600D01*
X113112420Y-109069600D02*
X113393580Y-109069600D01*
D12*
X124408400Y-124462100D02*
G75*
G03*
X124408400Y-124462100I-50000J0D01*
G01*
D11*
X98799563Y-100034000D02*
X99864000Y-101098437D01*
X98799563Y-100034000D02*
X97014000Y-100034000D01*
X98014000Y-98794000D02*
X98014000Y-99794000D01*
X92208437Y-100034000D02*
X93994000Y-100034000D01*
X91144000Y-108754000D02*
X93994000Y-108754000D01*
X98514000Y-99294000D02*
X97514000Y-99294000D01*
X99864000Y-108754000D02*
X97014000Y-108754000D01*
X99864000Y-101098437D02*
X99864000Y-108754000D01*
X91144000Y-101098437D02*
X91144000Y-108754000D01*
X92208437Y-100034000D02*
X91144000Y-101098437D01*
X121459064Y-97830380D02*
X118404936Y-97830380D01*
X121459064Y-95110380D02*
X118404936Y-95110380D01*
X130305200Y-104187600D02*
X130305200Y-104637600D01*
X123085200Y-104637600D02*
X121795200Y-104637600D01*
X123535200Y-111407600D02*
X123085200Y-111407600D01*
X123535200Y-104187600D02*
X123085200Y-104187600D01*
X123085200Y-111407600D02*
X123085200Y-110957600D01*
X129855200Y-104187600D02*
X130305200Y-104187600D01*
X129855200Y-111407600D02*
X130305200Y-111407600D01*
X130305200Y-111407600D02*
X130305200Y-110957600D01*
X123085200Y-104187600D02*
X123085200Y-104637600D01*
X113125420Y-112168400D02*
X113406580Y-112168400D01*
X113125420Y-111148400D02*
X113406580Y-111148400D01*
X121594165Y-99116380D02*
X121825835Y-99116380D01*
X121594165Y-98396380D02*
X121825835Y-98396380D01*
X99975535Y-98293600D02*
X99743865Y-98293600D01*
X99975535Y-99013600D02*
X99743865Y-99013600D01*
D13*
X130081600Y-83362800D02*
X130081600Y-84362800D01*
X129081600Y-83862800D02*
X130081600Y-83362800D01*
X130081600Y-84362800D02*
X129081600Y-83862800D01*
X120681600Y-75437800D02*
X130981600Y-75437800D01*
D11*
X129592800Y-115937420D02*
X129592800Y-116218580D01*
X128572800Y-115937420D02*
X128572800Y-116218580D01*
X117846871Y-104725200D02*
X117511629Y-104725200D01*
X117846871Y-105485200D02*
X117511629Y-105485200D01*
X136938142Y-97379100D02*
X137412658Y-97379100D01*
X136938142Y-98424100D02*
X137412658Y-98424100D01*
X135904500Y-91964624D02*
X135904500Y-91455176D01*
X134859500Y-91964624D02*
X134859500Y-91455176D01*
X117744285Y-109529200D02*
X117512615Y-109529200D01*
X117744285Y-108809200D02*
X117512615Y-108809200D01*
D14*
X110024800Y-123690885D02*
X109024800Y-123690885D01*
X111124800Y-119490885D02*
X111124800Y-123690885D01*
X107924800Y-123690885D02*
X107924800Y-119490885D01*
X110024800Y-119490885D02*
X109024800Y-119490885D01*
X110667170Y-118684885D02*
G75*
G03*
X110667170Y-118684885I-53370J0D01*
G01*
D11*
X134126500Y-91964624D02*
X134126500Y-91455176D01*
X133081500Y-91964624D02*
X133081500Y-91455176D01*
D12*
X114110400Y-85603600D02*
X114110400Y-85603600D01*
X114110400Y-85503600D02*
X114110400Y-85503600D01*
X99150400Y-75453600D02*
X99150400Y-78103600D01*
X118070400Y-75453600D02*
X99150400Y-75453600D01*
X118070400Y-78103600D02*
X118070400Y-75453600D01*
X114110400Y-85603600D02*
G75*
G03*
X114110400Y-85503600I0J50000D01*
G01*
X114110400Y-85503600D02*
G75*
G03*
X114110400Y-85603600I0J-50000D01*
G01*
D11*
X106653600Y-123038279D02*
X106653600Y-123373521D01*
X105893600Y-123038279D02*
X105893600Y-123373521D01*
X131431420Y-111961200D02*
X131712580Y-111961200D01*
X131431420Y-112981200D02*
X131712580Y-112981200D01*
X116651300Y-116704342D02*
X116651300Y-117178858D01*
X115606300Y-116704342D02*
X115606300Y-117178858D01*
X99725200Y-111183600D02*
X91005200Y-111183600D01*
X99725200Y-116603600D02*
X91005200Y-116603600D01*
X101425200Y-112483600D02*
X99725200Y-111183600D01*
X101425200Y-115303600D02*
X99725200Y-116603600D01*
X91005200Y-116603600D02*
X91005200Y-111183600D01*
X101425200Y-115303600D02*
X101425200Y-112483600D01*
D12*
X105064400Y-89331800D02*
X105064400Y-89331800D01*
X104964400Y-89331800D02*
X104964400Y-89331800D01*
X104964400Y-89331800D02*
G75*
G03*
X105064400Y-89331800I50000J0D01*
G01*
X105064400Y-89331800D02*
G75*
G03*
X104964400Y-89331800I-50000J0D01*
G01*
D11*
X126319600Y-91795600D02*
X126319600Y-89845600D01*
X131439600Y-91795600D02*
X131439600Y-93745600D01*
X126319600Y-91795600D02*
X126319600Y-95245600D01*
X131439600Y-91795600D02*
X131439600Y-89845600D01*
X105538600Y-121841400D02*
X107008600Y-121841400D01*
X107008600Y-121841400D02*
X107008600Y-119381400D01*
X105538600Y-119381400D02*
X105538600Y-121841400D01*
X127268500Y-98349524D02*
X127268500Y-97840076D01*
X126223500Y-98349524D02*
X126223500Y-97840076D01*
X128624876Y-87542900D02*
X129134324Y-87542900D01*
X128624876Y-86497900D02*
X129134324Y-86497900D01*
X130722900Y-120603724D02*
X130722900Y-120094276D01*
X129677900Y-120603724D02*
X129677900Y-120094276D01*
X126845600Y-115988220D02*
X126845600Y-116269380D01*
X127865600Y-115988220D02*
X127865600Y-116269380D01*
X137310400Y-100528529D02*
X137310400Y-100385471D01*
X135420400Y-100582000D02*
X135420400Y-105597000D01*
X138950400Y-99127000D02*
X138950400Y-105597000D01*
X137113871Y-100582000D02*
X137256929Y-100582000D01*
X137310400Y-99127000D02*
X137512870Y-99127000D01*
X135420400Y-99822000D02*
X135420400Y-99062000D01*
X138127930Y-99127000D02*
X138950400Y-99127000D01*
X138127930Y-105597000D02*
X138950400Y-105597000D01*
X135420400Y-105597000D02*
X136242870Y-105597000D01*
X136857930Y-105597000D02*
X137512870Y-105597000D01*
X135420400Y-100582000D02*
X135986929Y-100582000D01*
X137310400Y-99258529D02*
X137310400Y-99127000D01*
X135420400Y-99062000D02*
X136550400Y-99062000D01*
X136922742Y-95743500D02*
X137397258Y-95743500D01*
X136922742Y-96788500D02*
X137397258Y-96788500D01*
X92144800Y-91682180D02*
X92144800Y-91401020D01*
X93164800Y-91682180D02*
X93164800Y-91401020D01*
X111063300Y-116644761D02*
X111063300Y-117154209D01*
X110018300Y-116644761D02*
X110018300Y-117154209D01*
X131011200Y-103023580D02*
X131011200Y-102742420D01*
X132031200Y-103023580D02*
X132031200Y-102742420D01*
X123851800Y-120092376D02*
X123851800Y-120601824D01*
X124896800Y-120092376D02*
X124896800Y-120601824D01*
X127674900Y-120092376D02*
X127674900Y-120601824D01*
X126629900Y-120092376D02*
X126629900Y-120601824D01*
D12*
X121614400Y-124487000D02*
G75*
G03*
X121614400Y-124487000I-50000J0D01*
G01*
X130250400Y-122322900D02*
G75*
G03*
X130250400Y-122322900I-50000J0D01*
G01*
D11*
X136922742Y-106472300D02*
X137397258Y-106472300D01*
X136922742Y-107517300D02*
X137397258Y-107517300D01*
D12*
X127202400Y-124485100D02*
G75*
G03*
X127202400Y-124485100I-50000J0D01*
G01*
X116034800Y-89332980D02*
X116034800Y-89332980D01*
X115934800Y-89332980D02*
X115934800Y-89332980D01*
X115934800Y-89332980D02*
G75*
G03*
X116034800Y-89332980I50000J0D01*
G01*
X116034800Y-89332980D02*
G75*
G03*
X115934800Y-89332980I-50000J0D01*
G01*
D11*
X117878050Y-107021365D02*
X117878050Y-107253035D01*
X118598050Y-107021365D02*
X118598050Y-107253035D01*
X132636800Y-104483780D02*
X132636800Y-104202620D01*
X133656800Y-104483780D02*
X133656800Y-104202620D01*
X102643000Y-121880800D02*
X104113000Y-121880800D01*
X102643000Y-119420800D02*
X102643000Y-121880800D01*
X104113000Y-121880800D02*
X104113000Y-119420800D01*
X107485336Y-97829200D02*
X110539464Y-97829200D01*
X107485336Y-95109200D02*
X110539464Y-95109200D01*
D12*
X118871200Y-124487000D02*
G75*
G03*
X118871200Y-124487000I-50000J0D01*
G01*
D11*
X113125420Y-109573600D02*
X113406580Y-109573600D01*
X113125420Y-110593600D02*
X113406580Y-110593600D01*
X107186000Y-116809705D02*
X107186000Y-117090865D01*
X108206000Y-116809705D02*
X108206000Y-117090865D01*
X99798200Y-121892200D02*
X101268200Y-121892200D01*
X101268200Y-121892200D02*
X101268200Y-119432200D01*
X99798200Y-119432200D02*
X99798200Y-121892200D01*
X121755780Y-103735600D02*
X121474620Y-103735600D01*
X121755780Y-102715600D02*
X121474620Y-102715600D01*
X103758000Y-123038279D02*
X103758000Y-123373521D01*
X102998000Y-123038279D02*
X102998000Y-123373521D01*
X124208000Y-100813180D02*
X124208000Y-100532020D01*
X123188000Y-100813180D02*
X123188000Y-100532020D01*
X126240000Y-115988220D02*
X126240000Y-116269380D01*
X125220000Y-115988220D02*
X125220000Y-116269380D01*
X110368400Y-110948380D02*
X110368400Y-110667220D01*
X111388400Y-110948380D02*
X111388400Y-110667220D01*
D14*
X113004800Y-123690885D02*
X113004800Y-119490885D01*
X115104800Y-119490885D02*
X114104800Y-119490885D01*
X116204800Y-119490885D02*
X116204800Y-123690885D01*
X115104800Y-123690885D02*
X114104800Y-123690885D01*
X115747170Y-118684885D02*
G75*
G03*
X115747170Y-118684885I-53370J0D01*
G01*
D11*
X121613200Y-100813180D02*
X121613200Y-100532020D01*
X122633200Y-100813180D02*
X122633200Y-100532020D01*
X96614136Y-95109200D02*
X99668264Y-95109200D01*
X96614136Y-97829200D02*
X99668264Y-97829200D01*
X110906235Y-98242800D02*
X110674565Y-98242800D01*
X110906235Y-98962800D02*
X110674565Y-98962800D01*
X121041900Y-120094276D02*
X121041900Y-120603724D01*
X122086900Y-120094276D02*
X122086900Y-120603724D01*
X109044800Y-103724600D02*
X109519800Y-103724600D01*
X103299800Y-103724600D02*
X103299800Y-104199600D01*
X103299800Y-109944600D02*
X103299800Y-109469600D01*
X103774800Y-109944600D02*
X103299800Y-109944600D01*
X103774800Y-103724600D02*
X103299800Y-103724600D01*
X109044800Y-109944600D02*
X109519800Y-109944600D01*
X109519800Y-103724600D02*
X109519800Y-104199600D01*
D12*
X93987800Y-89281000D02*
X93987800Y-89281000D01*
X93887800Y-89281000D02*
X93887800Y-89281000D01*
X93887800Y-89281000D02*
G75*
G03*
X93987800Y-89281000I50000J0D01*
G01*
X93987800Y-89281000D02*
G75*
G03*
X93887800Y-89281000I-50000J0D01*
G01*
X135432000Y-87876700D02*
G75*
G03*
X135432000Y-87876700I-50000J0D01*
G01*
X133654000Y-87892600D02*
G75*
G03*
X133654000Y-87892600I-50000J0D01*
G01*
D11*
X118314600Y-120094276D02*
X118314600Y-120603724D01*
X119359600Y-120094276D02*
X119359600Y-120603724D01*
X131431420Y-114556000D02*
X131712580Y-114556000D01*
X131431420Y-113536000D02*
X131712580Y-113536000D01*
X113844800Y-116809705D02*
X113844800Y-117090865D01*
X112824800Y-116809705D02*
X112824800Y-117090865D01*
X100913200Y-123049679D02*
X100913200Y-123384921D01*
X100153200Y-123049679D02*
X100153200Y-123384921D01*
X101106235Y-105050000D02*
X100874565Y-105050000D01*
X101106235Y-105770000D02*
X100874565Y-105770000D01*
%LPC*%
D15*
X112478000Y-108559600D03*
X114028000Y-108559600D03*
D16*
X124358400Y-123857100D03*
X124358400Y-122887100D03*
D17*
X95504000Y-100694000D03*
X95504000Y-108094000D03*
D18*
X122332000Y-96470380D03*
X117532000Y-96470380D03*
D19*
X122532700Y-105047600D03*
X122532700Y-105547600D03*
X122532700Y-106047600D03*
X122532700Y-106547600D03*
X122532700Y-107047600D03*
X122532700Y-107547600D03*
X122532700Y-108047600D03*
X122532700Y-108547600D03*
X122532700Y-109047600D03*
X122532700Y-109547600D03*
X122532700Y-110047600D03*
X122532700Y-110547600D03*
D20*
X123945200Y-111960100D03*
X124445200Y-111960100D03*
X124945200Y-111960100D03*
X125445200Y-111960100D03*
X125945200Y-111960100D03*
X126445200Y-111960100D03*
X126945200Y-111960100D03*
X127445200Y-111960100D03*
X127945200Y-111960100D03*
X128445200Y-111960100D03*
X128945200Y-111960100D03*
X129445200Y-111960100D03*
D19*
X130857700Y-110547600D03*
X130857700Y-110047600D03*
X130857700Y-109547600D03*
X130857700Y-109047600D03*
X130857700Y-108547600D03*
X130857700Y-108047600D03*
X130857700Y-107547600D03*
X130857700Y-107047600D03*
X130857700Y-106547600D03*
X130857700Y-106047600D03*
X130857700Y-105547600D03*
X130857700Y-105047600D03*
D20*
X129445200Y-103635100D03*
X128945200Y-103635100D03*
X128445200Y-103635100D03*
X127945200Y-103635100D03*
X127445200Y-103635100D03*
X126945200Y-103635100D03*
X126445200Y-103635100D03*
X125945200Y-103635100D03*
X125445200Y-103635100D03*
X124945200Y-103635100D03*
X124445200Y-103635100D03*
X123945200Y-103635100D03*
D21*
X94524000Y-79310400D03*
D22*
X94524000Y-79310400D03*
D15*
X112491000Y-111658400D03*
X114041000Y-111658400D03*
D23*
X121142500Y-98756380D03*
X122277500Y-98756380D03*
D24*
X100427200Y-98653600D03*
X99292200Y-98653600D03*
D25*
X128081600Y-83362800D03*
X126581600Y-83362800D03*
X125081600Y-83362800D03*
X123581600Y-83362800D03*
D26*
X130681600Y-78662800D03*
X120981600Y-78662800D03*
D27*
X129082800Y-115303000D03*
X129082800Y-116853000D03*
D28*
X118276750Y-105105200D03*
X117081750Y-105105200D03*
D29*
X136350400Y-97901600D03*
X138000400Y-97901600D03*
D30*
X135382000Y-92622400D03*
X135382000Y-90797400D03*
D24*
X118195950Y-109169200D03*
X117060950Y-109169200D03*
D31*
X110599800Y-119515885D03*
X110599800Y-123665885D03*
X108449800Y-119515885D03*
X108449800Y-123665885D03*
D32*
X117061650Y-106462200D03*
X116061650Y-106462200D03*
X117061650Y-107812200D03*
X116061650Y-107812200D03*
D30*
X133604000Y-92622400D03*
X133604000Y-90797400D03*
D33*
X113610400Y-83753600D03*
X112610400Y-83753600D03*
X111610400Y-83753600D03*
X110610400Y-83753600D03*
X109610400Y-83753600D03*
X108610400Y-83753600D03*
X107610400Y-83753600D03*
X106610400Y-83753600D03*
X105610400Y-83753600D03*
X104610400Y-83753600D03*
X103610400Y-83753600D03*
D34*
X116600400Y-80953600D03*
X100620400Y-80953600D03*
D35*
X106273600Y-122608400D03*
X106273600Y-123803400D03*
D15*
X130797000Y-112471200D03*
X132347000Y-112471200D03*
D36*
X116128800Y-116116600D03*
X116128800Y-117766600D03*
D37*
X98715200Y-113893600D03*
D38*
X93715200Y-113893600D03*
D21*
X136524000Y-79310400D03*
D22*
X136524000Y-79310400D03*
D39*
X105969400Y-89331800D03*
X105969400Y-90601800D03*
X105969400Y-91871800D03*
X105969400Y-93141800D03*
X111759400Y-93141800D03*
X111759400Y-91871800D03*
X111759400Y-90601800D03*
X111759400Y-89331800D03*
D40*
X109319400Y-91236800D03*
D41*
X107294400Y-91236800D03*
D42*
X106644400Y-91696800D03*
D43*
X126974600Y-94270600D03*
X128244600Y-94270600D03*
X129514600Y-94270600D03*
X130784600Y-94270600D03*
X130784600Y-89320600D03*
X129514600Y-89320600D03*
X128244600Y-89320600D03*
X126974600Y-89320600D03*
D44*
X106273600Y-121056400D03*
X106273600Y-119306400D03*
D30*
X126746000Y-99007300D03*
X126746000Y-97182300D03*
D45*
X127967100Y-87020400D03*
X129792100Y-87020400D03*
D30*
X130200400Y-121261500D03*
X130200400Y-119436500D03*
D27*
X127355600Y-115353800D03*
X127355600Y-116903800D03*
D46*
X136550400Y-99822000D03*
D47*
X137820400Y-99822000D03*
X136550400Y-101092000D03*
X137820400Y-101092000D03*
X136550400Y-102362000D03*
X137820400Y-102362000D03*
X136550400Y-103632000D03*
X137820400Y-103632000D03*
X136550400Y-104902000D03*
X137820400Y-104902000D03*
D29*
X136335000Y-96266000D03*
X137985000Y-96266000D03*
D48*
X92654800Y-92316600D03*
X92654800Y-90766600D03*
D49*
X110540800Y-115986985D03*
X110540800Y-117811985D03*
D48*
X131521200Y-103658000D03*
X131521200Y-102108000D03*
D49*
X124374300Y-119434600D03*
X124374300Y-121259600D03*
X127152400Y-119434600D03*
X127152400Y-121259600D03*
D16*
X121564400Y-123882000D03*
X121564400Y-122912000D03*
D50*
X130200400Y-122927900D03*
X130200400Y-123897900D03*
D29*
X136335000Y-106994800D03*
X137985000Y-106994800D03*
D16*
X127152400Y-123880100D03*
X127152400Y-122910100D03*
D39*
X116939800Y-89332980D03*
X116939800Y-90602980D03*
X116939800Y-91872980D03*
X116939800Y-93142980D03*
X122729800Y-93142980D03*
X122729800Y-91872980D03*
X122729800Y-90602980D03*
X122729800Y-89332980D03*
D40*
X120289800Y-91237980D03*
D41*
X118264800Y-91237980D03*
D42*
X117614800Y-91697980D03*
D51*
X118238050Y-106569700D03*
X118238050Y-107704700D03*
D48*
X133146800Y-105118200D03*
X133146800Y-103568200D03*
D44*
X103378000Y-121095800D03*
X103378000Y-119345800D03*
D52*
X106612400Y-96469200D03*
X111412400Y-96469200D03*
D16*
X118821200Y-123882000D03*
X118821200Y-122912000D03*
D15*
X112491000Y-110083600D03*
X114041000Y-110083600D03*
D22*
X136524000Y-121310400D03*
D21*
X136524000Y-121310400D03*
D27*
X107696000Y-116175285D03*
X107696000Y-117725285D03*
D44*
X100533200Y-121107200D03*
X100533200Y-119357200D03*
D53*
X122390200Y-103225600D03*
X120840200Y-103225600D03*
D35*
X103378000Y-122608400D03*
X103378000Y-123803400D03*
D48*
X123698000Y-101447600D03*
X123698000Y-99897600D03*
D27*
X125730000Y-115353800D03*
X125730000Y-116903800D03*
D48*
X110878400Y-111582800D03*
X110878400Y-110032800D03*
D31*
X115679800Y-119515885D03*
X115679800Y-123665885D03*
X113529800Y-119515885D03*
X113529800Y-123665885D03*
D48*
X122123200Y-101447600D03*
X122123200Y-99897600D03*
D52*
X95741200Y-96469200D03*
X100541200Y-96469200D03*
D24*
X111357900Y-98602800D03*
X110222900Y-98602800D03*
D21*
X94524000Y-121310400D03*
D22*
X94524000Y-121310400D03*
D49*
X121564400Y-119436500D03*
X121564400Y-121261500D03*
D54*
X109347300Y-109084600D03*
X109347300Y-108584600D03*
X109347300Y-108084600D03*
X109347300Y-107584600D03*
X109347300Y-107084600D03*
X109347300Y-106584600D03*
X109347300Y-106084600D03*
X109347300Y-105584600D03*
X109347300Y-105084600D03*
X109347300Y-104584600D03*
D55*
X108659800Y-103897100D03*
X108159800Y-103897100D03*
X107659800Y-103897100D03*
X107159800Y-103897100D03*
X106659800Y-103897100D03*
X106159800Y-103897100D03*
X105659800Y-103897100D03*
X105159800Y-103897100D03*
X104659800Y-103897100D03*
X104159800Y-103897100D03*
D54*
X103472300Y-104584600D03*
X103472300Y-105084600D03*
X103472300Y-105584600D03*
X103472300Y-106084600D03*
X103472300Y-106584600D03*
X103472300Y-107084600D03*
X103472300Y-107584600D03*
X103472300Y-108084600D03*
X103472300Y-108584600D03*
X103472300Y-109084600D03*
D55*
X104159800Y-109772100D03*
X104659800Y-109772100D03*
X105159800Y-109772100D03*
X105659800Y-109772100D03*
X106159800Y-109772100D03*
X106659800Y-109772100D03*
X107159800Y-109772100D03*
X107659800Y-109772100D03*
X108159800Y-109772100D03*
X108659800Y-109772100D03*
D56*
X106409800Y-106834600D03*
D57*
X106409800Y-106834600D03*
D56*
X107679800Y-106834600D03*
X105139800Y-106834600D03*
D39*
X94892800Y-89281000D03*
X94892800Y-90551000D03*
X94892800Y-91821000D03*
X94892800Y-93091000D03*
X100682800Y-93091000D03*
X100682800Y-91821000D03*
X100682800Y-90551000D03*
X100682800Y-89281000D03*
D40*
X98242800Y-91186000D03*
D41*
X96217800Y-91186000D03*
D42*
X95567800Y-91646000D03*
D50*
X135382000Y-88481700D03*
X135382000Y-89451700D03*
X133604000Y-88497600D03*
X133604000Y-89467600D03*
D49*
X118837100Y-119436500D03*
X118837100Y-121261500D03*
D15*
X130797000Y-114046000D03*
X132347000Y-114046000D03*
D27*
X113334800Y-116175285D03*
X113334800Y-117725285D03*
D35*
X100533200Y-122619800D03*
X100533200Y-123814800D03*
D24*
X101557900Y-105410000D03*
X100422900Y-105410000D03*
M02*
