G04 #@! TF.GenerationSoftware,KiCad,Pcbnew,6.0.11-2627ca5db0~126~ubuntu20.04.1*
G04 #@! TF.CreationDate,2024-01-15T23:09:37+09:00*
G04 #@! TF.ProjectId,motor_driver,6d6f746f-725f-4647-9269-7665722e6b69,rev?*
G04 #@! TF.SameCoordinates,Original*
G04 #@! TF.FileFunction,Copper,L3,Inr*
G04 #@! TF.FilePolarity,Positive*
%FSLAX46Y46*%
G04 Gerber Fmt 4.6, Leading zero omitted, Abs format (unit mm)*
G04 Created by KiCad (PCBNEW 6.0.11-2627ca5db0~126~ubuntu20.04.1) date 2024-01-15 23:09:37*
%MOMM*%
%LPD*%
G01*
G04 APERTURE LIST*
G04 #@! TA.AperFunction,ComponentPad*
%ADD10C,3.600000*%
G04 #@! TD*
G04 #@! TA.AperFunction,ComponentPad*
%ADD11R,3.800000X3.800000*%
G04 #@! TD*
G04 #@! TA.AperFunction,ComponentPad*
%ADD12C,4.000000*%
G04 #@! TD*
G04 #@! TA.AperFunction,ComponentPad*
%ADD13R,1.000000X1.000000*%
G04 #@! TD*
G04 #@! TA.AperFunction,ComponentPad*
%ADD14O,1.000000X1.000000*%
G04 #@! TD*
G04 #@! TA.AperFunction,ComponentPad*
%ADD15C,0.508000*%
G04 #@! TD*
G04 #@! TA.AperFunction,ViaPad*
%ADD16C,0.800000*%
G04 #@! TD*
G04 #@! TA.AperFunction,ViaPad*
%ADD17C,0.508000*%
G04 #@! TD*
G04 #@! TA.AperFunction,Conductor*
%ADD18C,0.250000*%
G04 #@! TD*
G04 #@! TA.AperFunction,Conductor*
%ADD19C,0.500000*%
G04 #@! TD*
G04 APERTURE END LIST*
D10*
X94524000Y-79310400D03*
D11*
X98715200Y-113893600D03*
D12*
X93715200Y-113893600D03*
D10*
X136524000Y-79310400D03*
D13*
X136550400Y-99822000D03*
D14*
X137820400Y-99822000D03*
X136550400Y-101092000D03*
X137820400Y-101092000D03*
X136550400Y-102362000D03*
X137820400Y-102362000D03*
X136550400Y-103632000D03*
X137820400Y-103632000D03*
X136550400Y-104902000D03*
X137820400Y-104902000D03*
D10*
X136524000Y-121310400D03*
X94524000Y-121310400D03*
D15*
X106409800Y-106834600D03*
X107679800Y-106834600D03*
X105139800Y-106834600D03*
D16*
X131775200Y-100736400D03*
D17*
X107285200Y-89509600D03*
X107285200Y-90424000D03*
X105964400Y-91846400D03*
X116934800Y-91898380D03*
X118255600Y-91339580D03*
X106726400Y-90830400D03*
X117696800Y-91847580D03*
X105964400Y-93116400D03*
D16*
X111556800Y-112623600D03*
D17*
X96210800Y-89509600D03*
X118255600Y-93015980D03*
X116934800Y-93168380D03*
D16*
X94792800Y-99314000D03*
D17*
X118255600Y-89561580D03*
X96210800Y-90424000D03*
X106726400Y-91795600D03*
X95652000Y-90830400D03*
X94890000Y-90576400D03*
D16*
X94792800Y-101955600D03*
D17*
X96210800Y-92100400D03*
X107285200Y-92100400D03*
D16*
X96774000Y-110896400D03*
D17*
X107285200Y-91287600D03*
X106726400Y-92811600D03*
X94890000Y-91846400D03*
X118255600Y-90475980D03*
X96210800Y-92964000D03*
X118255600Y-92152380D03*
X96210800Y-91287600D03*
X94890000Y-93116400D03*
X95652000Y-92811600D03*
X105964400Y-90576400D03*
X116934800Y-90628380D03*
X95652000Y-91795600D03*
X107285200Y-92964000D03*
X117696800Y-92863580D03*
D16*
X96266000Y-101955600D03*
D17*
X117696800Y-90882380D03*
D16*
X92659200Y-93726000D03*
X96215200Y-99314000D03*
X95504000Y-100685600D03*
X115163600Y-104787100D03*
X91084400Y-84734400D03*
X139954000Y-90474800D03*
X125628400Y-124714000D03*
X130708400Y-78689200D03*
X98348800Y-98653600D03*
X92964000Y-117144800D03*
X138887200Y-83413600D03*
D17*
X104999200Y-95605600D03*
D16*
X130200400Y-116890800D03*
X91084400Y-110337600D03*
X92964000Y-117144800D03*
X110490000Y-124714000D03*
X111709200Y-75895200D03*
X100584000Y-80975200D03*
D17*
X104542000Y-96469200D03*
D16*
X117348000Y-81991200D03*
X101346000Y-81991200D03*
X98628199Y-123418601D03*
X96062800Y-83413600D03*
X91084400Y-95199200D03*
D17*
X104999200Y-97282000D03*
D16*
X100431598Y-75895200D03*
D17*
X93264400Y-95656400D03*
X104135600Y-97282000D03*
D16*
X91084400Y-115316000D03*
X137464800Y-89611200D03*
X132435600Y-122986800D03*
X138633200Y-117195600D03*
X121869200Y-75895200D03*
X107594400Y-82092800D03*
X105359200Y-124714000D03*
X98653600Y-80822802D03*
X120954800Y-78689200D03*
X132334000Y-115112800D03*
D17*
X125069600Y-96926400D03*
D16*
X106730800Y-75895200D03*
X91084400Y-100279200D03*
X127000000Y-75895200D03*
X99872800Y-81991200D03*
X114015000Y-112661100D03*
X139954000Y-105765600D03*
X117348000Y-80010000D03*
X115874800Y-81991200D03*
X91084400Y-105359200D03*
X99872800Y-80010000D03*
X130708400Y-79908400D03*
X132435600Y-80822800D03*
X130708400Y-77419200D03*
X101346000Y-80010000D03*
X113893600Y-101092000D03*
X120650000Y-124714000D03*
X116586000Y-80975200D03*
X126974600Y-91617800D03*
X113898075Y-99470523D03*
D17*
X94128000Y-95656400D03*
X123393200Y-96926400D03*
D16*
X98602800Y-119735600D03*
X121005600Y-77470000D03*
X115417600Y-100253800D03*
X122957100Y-123880100D03*
D17*
X124206000Y-96469200D03*
D16*
X139954000Y-115874802D03*
X116992400Y-99415600D03*
X98653600Y-77673200D03*
X108449800Y-122741000D03*
X91084400Y-90068400D03*
X131470400Y-75895200D03*
X120954800Y-79908400D03*
D17*
X93264400Y-97332800D03*
D16*
X132044400Y-88087200D03*
X99923600Y-124714000D03*
X92405198Y-83413600D03*
X119888000Y-103225600D03*
X117043200Y-101092000D03*
X92202000Y-89712800D03*
X139954000Y-84480400D03*
X115874800Y-80010000D03*
X130708402Y-124714000D03*
X96012000Y-117144800D03*
D17*
X94128000Y-97332800D03*
D16*
X108966000Y-78638400D03*
D17*
X123393200Y-96062800D03*
D16*
X132435600Y-119735600D03*
D17*
X125069600Y-96062800D03*
D16*
X125323600Y-98755200D03*
X96266000Y-109372400D03*
X116789200Y-75895200D03*
X115570000Y-124714000D03*
X136906000Y-110845600D03*
X139954000Y-100685600D03*
X135001000Y-83388200D03*
X132943600Y-93827600D03*
X132689600Y-83007200D03*
X139954000Y-110744000D03*
D17*
X104135600Y-95605600D03*
D16*
X109118400Y-98653600D03*
X132435600Y-76911200D03*
X134975600Y-117195600D03*
X113538000Y-120700800D03*
X99009200Y-105423300D03*
X139954000Y-95605600D03*
D17*
X93721600Y-96469200D03*
D16*
X96215200Y-106730800D03*
X110916965Y-108084601D03*
X115112800Y-108559600D03*
X131114800Y-83058000D03*
X128081601Y-80939201D03*
X102514400Y-78079600D03*
X114168400Y-96134400D03*
X103632000Y-82143600D03*
X137397600Y-86300600D03*
X136601200Y-93776800D03*
X97790000Y-104698800D03*
X127521300Y-110483919D03*
X101414144Y-100820656D03*
X110849899Y-103221301D03*
X111081277Y-101192813D03*
X103929434Y-102064566D03*
X121641466Y-102385923D03*
X131419600Y-111556800D03*
X117246400Y-116128800D03*
X121158000Y-101447600D03*
X104519800Y-110787025D03*
X130505200Y-103682800D03*
X132029200Y-90322400D03*
X129387600Y-122123200D03*
X113588800Y-122021600D03*
X136702800Y-108508800D03*
X126785672Y-109804444D03*
X101955600Y-121818400D03*
X104902000Y-121158000D03*
X125932001Y-110324300D03*
X124932498Y-110324300D03*
X107238800Y-120294400D03*
X127965200Y-96824800D03*
X104610401Y-83753599D03*
X105613200Y-83769200D03*
X107614300Y-77688400D03*
X128981200Y-96824800D03*
X106629200Y-83769200D03*
X129997200Y-96824800D03*
X99009200Y-94132400D03*
X112473133Y-104075900D03*
X105206800Y-100533200D03*
X111099600Y-99923600D03*
X123230902Y-112674400D03*
X100482400Y-108813600D03*
X121869200Y-114198400D03*
X99060000Y-108610400D03*
X114142833Y-114922900D03*
X97942400Y-108305600D03*
X126695200Y-101955600D03*
X135229600Y-111150400D03*
X113639600Y-104787100D03*
X102362000Y-89306400D03*
X102870000Y-97383600D03*
X93573600Y-89306400D03*
X105562400Y-98856800D03*
X113233200Y-89357200D03*
X104343200Y-89306400D03*
X111556800Y-102514400D03*
X124307600Y-89357200D03*
X110337600Y-94119100D03*
X115265200Y-89357200D03*
X103886000Y-100279200D03*
X128676400Y-113842800D03*
X124866400Y-118059200D03*
X134924800Y-107086400D03*
X135432800Y-93929200D03*
X134162800Y-94792800D03*
X132994400Y-110032800D03*
X119719481Y-109854772D03*
X98145600Y-103276400D03*
X99194086Y-103137154D03*
X120650000Y-109067600D03*
X100101400Y-102641400D03*
X120176661Y-108187285D03*
X124866400Y-106324400D03*
X98247200Y-106527600D03*
X124538357Y-107880241D03*
X101525627Y-108772629D03*
X123861139Y-109729728D03*
X102326575Y-109614300D03*
X120943469Y-112215102D03*
X102971600Y-110693200D03*
X109728000Y-111874900D03*
X122072400Y-112268000D03*
X107486330Y-111332586D03*
X106019600Y-111302800D03*
X131775200Y-96977200D03*
X132384800Y-106070400D03*
X132537200Y-96113600D03*
X132852455Y-106953748D03*
X127658890Y-106111091D03*
X128383390Y-107082101D03*
X129450744Y-107124856D03*
D18*
X104800400Y-112776000D02*
X111404400Y-112776000D01*
X102108000Y-112776000D02*
X100228400Y-110896400D01*
X111404400Y-112776000D02*
X111556800Y-112623600D01*
X96774000Y-110896400D02*
X100228400Y-110896400D01*
X104800400Y-112776000D02*
X102108000Y-112776000D01*
D19*
X135026402Y-83413600D02*
X138887200Y-83413600D01*
X92862398Y-117144800D02*
X91084400Y-115366802D01*
X138887200Y-83413600D02*
X139954000Y-84480400D01*
X98653600Y-77673198D02*
X100431598Y-75895200D01*
X91084400Y-115366802D02*
X91084400Y-84734400D01*
X132435600Y-119735598D02*
X132435600Y-122986802D01*
X132435600Y-76860400D02*
X132435600Y-80822802D01*
X130708402Y-124714000D02*
X99923598Y-124714000D01*
X132435600Y-80822800D02*
X135026402Y-83413600D01*
X131470400Y-75895200D02*
X132435600Y-76860400D01*
X96062802Y-83413600D02*
X98653600Y-80822802D01*
X139954000Y-84480400D02*
X139954000Y-115874802D01*
X132435600Y-122986802D02*
X130708402Y-124714000D01*
X96012002Y-117144800D02*
X92862398Y-117144800D01*
X139954000Y-115874802D02*
X138633202Y-117195600D01*
X138633202Y-117195600D02*
X134975598Y-117195600D01*
X98602800Y-119735598D02*
X96012002Y-117144800D01*
X99923598Y-124714000D02*
X98602800Y-123393202D01*
X92405198Y-83413600D02*
X96062802Y-83413600D01*
X134975598Y-117195600D02*
X132435600Y-119735598D01*
X100431598Y-75895200D02*
X131470400Y-75895200D01*
X98602800Y-123393202D02*
X98602800Y-119735598D01*
X98653600Y-80822802D02*
X98653600Y-77673198D01*
X91084400Y-84734400D02*
X92405198Y-83413600D01*
D18*
X136601200Y-95656400D02*
X133908800Y-98348800D01*
X136601200Y-93776800D02*
X136601200Y-95656400D01*
X127820019Y-110185200D02*
X127521300Y-110483919D01*
X133908800Y-98348800D02*
X133908800Y-107899200D01*
X109118400Y-111048800D02*
X107950000Y-112217200D01*
X131622800Y-110185200D02*
X127820019Y-110185200D01*
X98348800Y-109778800D02*
X97129600Y-108559600D01*
X127521300Y-110483919D02*
X126956419Y-111048800D01*
X97129600Y-105359200D02*
X97790000Y-104698800D01*
X133908800Y-107899200D02*
X131622800Y-110185200D01*
X107950000Y-112217200D02*
X102616000Y-112217200D01*
X126956419Y-111048800D02*
X109118400Y-111048800D01*
X102616000Y-112217200D02*
X100177600Y-109778800D01*
X100177600Y-109778800D02*
X98348800Y-109778800D01*
X97129600Y-108559600D02*
X97129600Y-105359200D01*
G04 #@! TA.AperFunction,Conductor*
G36*
X118139403Y-88561423D02*
G01*
X118516821Y-88779928D01*
X118730373Y-88903563D01*
X119012331Y-89066802D01*
X119061262Y-89118244D01*
X119075200Y-89175846D01*
X119075200Y-92895317D01*
X119055198Y-92963438D01*
X119017475Y-93001216D01*
X118243809Y-93500011D01*
X118175180Y-93520111D01*
X112178645Y-93503163D01*
X111058408Y-93499997D01*
X110990344Y-93479803D01*
X110965128Y-93458309D01*
X110953268Y-93445137D01*
X110953266Y-93445135D01*
X110948853Y-93440234D01*
X110794352Y-93327982D01*
X110788324Y-93325298D01*
X110788322Y-93325297D01*
X110625919Y-93252991D01*
X110625918Y-93252991D01*
X110619888Y-93250306D01*
X110526488Y-93230453D01*
X110439544Y-93211972D01*
X110439539Y-93211972D01*
X110433087Y-93210600D01*
X110242113Y-93210600D01*
X110235661Y-93211972D01*
X110235656Y-93211972D01*
X110148713Y-93230453D01*
X110055312Y-93250306D01*
X110049282Y-93252991D01*
X110049281Y-93252991D01*
X109886878Y-93325297D01*
X109886876Y-93325298D01*
X109880848Y-93327982D01*
X109726347Y-93440234D01*
X109713732Y-93454244D01*
X109653287Y-93491482D01*
X109619742Y-93495931D01*
X99680730Y-93467841D01*
X99607025Y-93443778D01*
X99471294Y-93345163D01*
X99471293Y-93345162D01*
X99465952Y-93341282D01*
X99459924Y-93338598D01*
X99459922Y-93338597D01*
X99297519Y-93266291D01*
X99297518Y-93266291D01*
X99291488Y-93263606D01*
X99198087Y-93243753D01*
X99111144Y-93225272D01*
X99111139Y-93225272D01*
X99104687Y-93223900D01*
X98913713Y-93223900D01*
X98907261Y-93225272D01*
X98907256Y-93225272D01*
X98820312Y-93243753D01*
X98726912Y-93263606D01*
X98720882Y-93266291D01*
X98720881Y-93266291D01*
X98558478Y-93338597D01*
X98558476Y-93338598D01*
X98552448Y-93341282D01*
X98547107Y-93345162D01*
X98547106Y-93345163D01*
X98416581Y-93439995D01*
X98349713Y-93463854D01*
X98342164Y-93464058D01*
X98062987Y-93463269D01*
X98062986Y-93463269D01*
X98044870Y-93463218D01*
X97282000Y-94335600D01*
X97281969Y-94347833D01*
X97260074Y-103042161D01*
X97255047Y-103073643D01*
X97255471Y-103073733D01*
X97254097Y-103080195D01*
X97252058Y-103086472D01*
X97232096Y-103276400D01*
X97252058Y-103466328D01*
X97254100Y-103472613D01*
X97255472Y-103479067D01*
X97254445Y-103479285D01*
X97258902Y-103507666D01*
X97257917Y-103898531D01*
X97237743Y-103966601D01*
X97205979Y-104000148D01*
X97189090Y-104012419D01*
X97178747Y-104019934D01*
X97174326Y-104024844D01*
X97174325Y-104024845D01*
X97075952Y-104134100D01*
X97050960Y-104161856D01*
X96955473Y-104327244D01*
X96896458Y-104508872D01*
X96895768Y-104515433D01*
X96895768Y-104515435D01*
X96879093Y-104674092D01*
X96852080Y-104739749D01*
X96842878Y-104750017D01*
X96737347Y-104855548D01*
X96729061Y-104863088D01*
X96722582Y-104867200D01*
X96717157Y-104872977D01*
X96675957Y-104916851D01*
X96673202Y-104919693D01*
X96653465Y-104939430D01*
X96650985Y-104942627D01*
X96643282Y-104951647D01*
X96613014Y-104983879D01*
X96609195Y-104990825D01*
X96609193Y-104990828D01*
X96603252Y-105001634D01*
X96592401Y-105018153D01*
X96579986Y-105034159D01*
X96576841Y-105041428D01*
X96576838Y-105041432D01*
X96562426Y-105074737D01*
X96557209Y-105085387D01*
X96535905Y-105124140D01*
X96533934Y-105131815D01*
X96533934Y-105131816D01*
X96530867Y-105143762D01*
X96524463Y-105162466D01*
X96516419Y-105181055D01*
X96515180Y-105188878D01*
X96515177Y-105188888D01*
X96509501Y-105224724D01*
X96507095Y-105236344D01*
X96496100Y-105279170D01*
X96496100Y-105299424D01*
X96494549Y-105319134D01*
X96491380Y-105339143D01*
X96492126Y-105347035D01*
X96495541Y-105383161D01*
X96496100Y-105395019D01*
X96496100Y-105706113D01*
X96476098Y-105774234D01*
X96422442Y-105820727D01*
X96352168Y-105830831D01*
X96343904Y-105829360D01*
X96317146Y-105823673D01*
X96317147Y-105823673D01*
X96310687Y-105822300D01*
X96119713Y-105822300D01*
X96113261Y-105823672D01*
X96113256Y-105823672D01*
X96026312Y-105842153D01*
X95932912Y-105862006D01*
X95926882Y-105864691D01*
X95926881Y-105864691D01*
X95764478Y-105936997D01*
X95764476Y-105936998D01*
X95758448Y-105939682D01*
X95603947Y-106051934D01*
X95476160Y-106193856D01*
X95455327Y-106229940D01*
X95393128Y-106337672D01*
X95380673Y-106359244D01*
X95321658Y-106540872D01*
X95301696Y-106730800D01*
X95302386Y-106737365D01*
X95314858Y-106856025D01*
X95321658Y-106920728D01*
X95380673Y-107102356D01*
X95476160Y-107267744D01*
X95480578Y-107272651D01*
X95480579Y-107272652D01*
X95599525Y-107404755D01*
X95603947Y-107409666D01*
X95758448Y-107521918D01*
X95764476Y-107524602D01*
X95764478Y-107524603D01*
X95886953Y-107579132D01*
X95932912Y-107599594D01*
X96026313Y-107619447D01*
X96113256Y-107637928D01*
X96113261Y-107637928D01*
X96119713Y-107639300D01*
X96310687Y-107639300D01*
X96320935Y-107637122D01*
X96343904Y-107632240D01*
X96414695Y-107637643D01*
X96471327Y-107680460D01*
X96495820Y-107747098D01*
X96496100Y-107755487D01*
X96496100Y-108338805D01*
X96476098Y-108406926D01*
X96422442Y-108453419D01*
X96361487Y-108463371D01*
X96361487Y-108463900D01*
X96170513Y-108463900D01*
X96164061Y-108465272D01*
X96164056Y-108465272D01*
X96077113Y-108483753D01*
X95983712Y-108503606D01*
X95977682Y-108506291D01*
X95977681Y-108506291D01*
X95815278Y-108578597D01*
X95815276Y-108578598D01*
X95809248Y-108581282D01*
X95654747Y-108693534D01*
X95650326Y-108698444D01*
X95650325Y-108698445D01*
X95538012Y-108823182D01*
X95526960Y-108835456D01*
X95431473Y-109000844D01*
X95372458Y-109182472D01*
X95352496Y-109372400D01*
X95372458Y-109562328D01*
X95431473Y-109743956D01*
X95526960Y-109909344D01*
X95531378Y-109914251D01*
X95531379Y-109914252D01*
X95621493Y-110014334D01*
X95654747Y-110051266D01*
X95733053Y-110108159D01*
X95799253Y-110156256D01*
X95809248Y-110163518D01*
X95815276Y-110166202D01*
X95815278Y-110166203D01*
X95950322Y-110226328D01*
X95983712Y-110241194D01*
X96077113Y-110261047D01*
X96164056Y-110279528D01*
X96164061Y-110279528D01*
X96170513Y-110280900D01*
X96361487Y-110280900D01*
X96367939Y-110279528D01*
X96367944Y-110279528D01*
X96454887Y-110261047D01*
X96548288Y-110241194D01*
X96581678Y-110226328D01*
X96716722Y-110166203D01*
X96716724Y-110166202D01*
X96722752Y-110163518D01*
X96732748Y-110156256D01*
X96798947Y-110108159D01*
X96877253Y-110051266D01*
X96910507Y-110014334D01*
X97000621Y-109914252D01*
X97000622Y-109914251D01*
X97005040Y-109909344D01*
X97008341Y-109903626D01*
X97012224Y-109898282D01*
X97013584Y-109899270D01*
X97058900Y-109856066D01*
X97128614Y-109842632D01*
X97194524Y-109869021D01*
X97235704Y-109926855D01*
X97242632Y-109968378D01*
X97240509Y-110811599D01*
X97239129Y-111359417D01*
X97218955Y-111427487D01*
X97165182Y-111473845D01*
X97113129Y-111485100D01*
X96767066Y-111485100D01*
X96704884Y-111491855D01*
X96568495Y-111542985D01*
X96451939Y-111630339D01*
X96364585Y-111746895D01*
X96313455Y-111883284D01*
X96306700Y-111945466D01*
X96306700Y-115841734D01*
X96313455Y-115903916D01*
X96364585Y-116040305D01*
X96386723Y-116069844D01*
X96411570Y-116136348D01*
X96396517Y-116205730D01*
X96346343Y-116255961D01*
X96276978Y-116271091D01*
X96259701Y-116268654D01*
X96223570Y-116260974D01*
X96113944Y-116237672D01*
X96113939Y-116237672D01*
X96107487Y-116236300D01*
X95916513Y-116236300D01*
X95910061Y-116237672D01*
X95910056Y-116237672D01*
X95824016Y-116255961D01*
X95729712Y-116276006D01*
X95723682Y-116278691D01*
X95723681Y-116278691D01*
X95561278Y-116350997D01*
X95561276Y-116350998D01*
X95555248Y-116353682D01*
X95549909Y-116357561D01*
X95549902Y-116357565D01*
X95543472Y-116362237D01*
X95469413Y-116386300D01*
X93506587Y-116386300D01*
X93432528Y-116362237D01*
X93426098Y-116357565D01*
X93426091Y-116357561D01*
X93420752Y-116353682D01*
X93414724Y-116350998D01*
X93414722Y-116350997D01*
X93252319Y-116278691D01*
X93252318Y-116278691D01*
X93246288Y-116276006D01*
X93059487Y-116236300D01*
X93059853Y-116234579D01*
X93002202Y-116210858D01*
X92991938Y-116201659D01*
X92016727Y-115226448D01*
X91982701Y-115164136D01*
X91980512Y-115150524D01*
X91978632Y-115132636D01*
X91978632Y-115132635D01*
X91977942Y-115126072D01*
X91918927Y-114944444D01*
X91859781Y-114842000D01*
X91842900Y-114779001D01*
X91842900Y-110874599D01*
X91859781Y-110811599D01*
X91915623Y-110714879D01*
X91915624Y-110714878D01*
X91918927Y-110709156D01*
X91977942Y-110527528D01*
X91979608Y-110511682D01*
X91997214Y-110344165D01*
X91997904Y-110337600D01*
X91991945Y-110280900D01*
X91978632Y-110154235D01*
X91978632Y-110154233D01*
X91977942Y-110147672D01*
X91918927Y-109966044D01*
X91859781Y-109863600D01*
X91842900Y-109800601D01*
X91842900Y-105896199D01*
X91859781Y-105833199D01*
X91861998Y-105829360D01*
X91918927Y-105730756D01*
X91977942Y-105549128D01*
X91997904Y-105359200D01*
X91988685Y-105271489D01*
X91978632Y-105175835D01*
X91978632Y-105175833D01*
X91977942Y-105169272D01*
X91918927Y-104987644D01*
X91859781Y-104885200D01*
X91842900Y-104822201D01*
X91842900Y-100816199D01*
X91859781Y-100753199D01*
X91915623Y-100656479D01*
X91915624Y-100656478D01*
X91918927Y-100650756D01*
X91977942Y-100469128D01*
X91997904Y-100279200D01*
X91996423Y-100265109D01*
X91978632Y-100095835D01*
X91978632Y-100095833D01*
X91977942Y-100089272D01*
X91918927Y-99907644D01*
X91859781Y-99805200D01*
X91842900Y-99742201D01*
X91842900Y-97322086D01*
X92497150Y-97322086D01*
X92513843Y-97492336D01*
X92567840Y-97654656D01*
X92571487Y-97660678D01*
X92571488Y-97660680D01*
X92652806Y-97794954D01*
X92652809Y-97794957D01*
X92656456Y-97800980D01*
X92775289Y-97924034D01*
X92781185Y-97927892D01*
X92912533Y-98013844D01*
X92918430Y-98017703D01*
X92925034Y-98020159D01*
X92925036Y-98020160D01*
X93072157Y-98074874D01*
X93072159Y-98074874D01*
X93078767Y-98077332D01*
X93157854Y-98087885D01*
X93241349Y-98099026D01*
X93241353Y-98099026D01*
X93248330Y-98099957D01*
X93255341Y-98099319D01*
X93255345Y-98099319D01*
X93411673Y-98085092D01*
X93411675Y-98085092D01*
X93418692Y-98084453D01*
X93425390Y-98082277D01*
X93425393Y-98082276D01*
X93574689Y-98033766D01*
X93574691Y-98033765D01*
X93581385Y-98031590D01*
X93629859Y-98002694D01*
X93698614Y-97984995D01*
X93763368Y-98005492D01*
X93776132Y-98013844D01*
X93776134Y-98013845D01*
X93782030Y-98017703D01*
X93788634Y-98020159D01*
X93935757Y-98074874D01*
X93935759Y-98074874D01*
X93942367Y-98077332D01*
X94021454Y-98087885D01*
X94104949Y-98099026D01*
X94104953Y-98099026D01*
X94111930Y-98099957D01*
X94118941Y-98099319D01*
X94118945Y-98099319D01*
X94275273Y-98085092D01*
X94275275Y-98085092D01*
X94282292Y-98084453D01*
X94288990Y-98082277D01*
X94288993Y-98082276D01*
X94438289Y-98033766D01*
X94438291Y-98033765D01*
X94444985Y-98031590D01*
X94553499Y-97966903D01*
X94585872Y-97947605D01*
X94585874Y-97947604D01*
X94591924Y-97943997D01*
X94715805Y-97826027D01*
X94729079Y-97806049D01*
X94806570Y-97689414D01*
X94810471Y-97683543D01*
X94871218Y-97523626D01*
X94895026Y-97354225D01*
X94895325Y-97332800D01*
X94876256Y-97162800D01*
X94819999Y-97001250D01*
X94729348Y-96856178D01*
X94716159Y-96842896D01*
X94613775Y-96739795D01*
X94608809Y-96734794D01*
X94535523Y-96688286D01*
X94488724Y-96634897D01*
X94478262Y-96564365D01*
X94488626Y-96490625D01*
X94488925Y-96469200D01*
X94486780Y-96450074D01*
X94483236Y-96418478D01*
X94495521Y-96348553D01*
X94543932Y-96296206D01*
X94591924Y-96267597D01*
X94715805Y-96149627D01*
X94729079Y-96129649D01*
X94806570Y-96013014D01*
X94810471Y-96007143D01*
X94871218Y-95847226D01*
X94895026Y-95677825D01*
X94895325Y-95656400D01*
X94876256Y-95486400D01*
X94865508Y-95455534D01*
X94822314Y-95331497D01*
X94822313Y-95331495D01*
X94819999Y-95324850D01*
X94745587Y-95205765D01*
X94733081Y-95185752D01*
X94729348Y-95179778D01*
X94716159Y-95166496D01*
X94613772Y-95063392D01*
X94608809Y-95058394D01*
X94541746Y-95015835D01*
X94470316Y-94970504D01*
X94470313Y-94970502D01*
X94464373Y-94966733D01*
X94457740Y-94964371D01*
X94309854Y-94911711D01*
X94309849Y-94911710D01*
X94303219Y-94909349D01*
X94296231Y-94908516D01*
X94296228Y-94908515D01*
X94180655Y-94894734D01*
X94133357Y-94889094D01*
X94126354Y-94889830D01*
X94126353Y-94889830D01*
X94081958Y-94894496D01*
X93963228Y-94906975D01*
X93953702Y-94910218D01*
X93807953Y-94959835D01*
X93807950Y-94959836D01*
X93801289Y-94962104D01*
X93762828Y-94985766D01*
X93694329Y-95004424D01*
X93629294Y-94984833D01*
X93600773Y-94966733D01*
X93573980Y-94957192D01*
X93446254Y-94911711D01*
X93446249Y-94911710D01*
X93439619Y-94909349D01*
X93432631Y-94908516D01*
X93432628Y-94908515D01*
X93317055Y-94894734D01*
X93269757Y-94889094D01*
X93262754Y-94889830D01*
X93262753Y-94889830D01*
X93218358Y-94894496D01*
X93099628Y-94906975D01*
X93090102Y-94910218D01*
X92944356Y-94959834D01*
X92944353Y-94959835D01*
X92937689Y-94962104D01*
X92791988Y-95051740D01*
X92786957Y-95056667D01*
X92786954Y-95056669D01*
X92780089Y-95063392D01*
X92669766Y-95171428D01*
X92665947Y-95177353D01*
X92665946Y-95177355D01*
X92660535Y-95185752D01*
X92577098Y-95315220D01*
X92574687Y-95321843D01*
X92574686Y-95321846D01*
X92521000Y-95469347D01*
X92520999Y-95469352D01*
X92518590Y-95475970D01*
X92497150Y-95645686D01*
X92513843Y-95815936D01*
X92567840Y-95978256D01*
X92571487Y-95984278D01*
X92571488Y-95984280D01*
X92652806Y-96118554D01*
X92652809Y-96118557D01*
X92656456Y-96124580D01*
X92775289Y-96247634D01*
X92781182Y-96251490D01*
X92781184Y-96251492D01*
X92838336Y-96288891D01*
X92899400Y-96328850D01*
X92945447Y-96382886D01*
X92954577Y-96444442D01*
X92955331Y-96444453D01*
X92955266Y-96449091D01*
X92955412Y-96450074D01*
X92955233Y-96451493D01*
X92954350Y-96458486D01*
X92957886Y-96494545D01*
X92962366Y-96540238D01*
X92949107Y-96609986D01*
X92902990Y-96659851D01*
X92791988Y-96728140D01*
X92786957Y-96733067D01*
X92786954Y-96733069D01*
X92780086Y-96739795D01*
X92669766Y-96847828D01*
X92665947Y-96853753D01*
X92665946Y-96853755D01*
X92660535Y-96862152D01*
X92577098Y-96991620D01*
X92574687Y-96998243D01*
X92574686Y-96998246D01*
X92521000Y-97145747D01*
X92520999Y-97145752D01*
X92518590Y-97152370D01*
X92497150Y-97322086D01*
X91842900Y-97322086D01*
X91842900Y-95736199D01*
X91859781Y-95673199D01*
X91915623Y-95576479D01*
X91915624Y-95576478D01*
X91918927Y-95570756D01*
X91977942Y-95389128D01*
X91985326Y-95318879D01*
X91997214Y-95205765D01*
X91997904Y-95199200D01*
X91994467Y-95166496D01*
X91978632Y-95015835D01*
X91978632Y-95015833D01*
X91977942Y-95009272D01*
X91918927Y-94827644D01*
X91859781Y-94725200D01*
X91842900Y-94662201D01*
X91842900Y-90720865D01*
X91862902Y-90652744D01*
X91916558Y-90606251D01*
X91986832Y-90596147D01*
X91995097Y-90597618D01*
X92100056Y-90619928D01*
X92100061Y-90619928D01*
X92106513Y-90621300D01*
X92297487Y-90621300D01*
X92303939Y-90619928D01*
X92303944Y-90619928D01*
X92408901Y-90597618D01*
X92484288Y-90581594D01*
X92549965Y-90552353D01*
X92652722Y-90506603D01*
X92652724Y-90506602D01*
X92658752Y-90503918D01*
X92813253Y-90391666D01*
X92941040Y-90249744D01*
X92944339Y-90244031D01*
X92944342Y-90244026D01*
X92990181Y-90164630D01*
X93041564Y-90115637D01*
X93111278Y-90102201D01*
X93150548Y-90112523D01*
X93285277Y-90172508D01*
X93285285Y-90172511D01*
X93291312Y-90175194D01*
X93384712Y-90195047D01*
X93471656Y-90213528D01*
X93471661Y-90213528D01*
X93478113Y-90214900D01*
X93669087Y-90214900D01*
X93675539Y-90213528D01*
X93675544Y-90213528D01*
X93762488Y-90195047D01*
X93855888Y-90175194D01*
X93861921Y-90172508D01*
X94024322Y-90100203D01*
X94024324Y-90100202D01*
X94030352Y-90097518D01*
X94184853Y-89985266D01*
X94189275Y-89980355D01*
X94308221Y-89848252D01*
X94308222Y-89848251D01*
X94312640Y-89843344D01*
X94408127Y-89677956D01*
X94467142Y-89496328D01*
X94468840Y-89480179D01*
X94486414Y-89312965D01*
X94487104Y-89306400D01*
X94482117Y-89258948D01*
X94467832Y-89123035D01*
X94467832Y-89123033D01*
X94467142Y-89116472D01*
X94408127Y-88934844D01*
X94375427Y-88878205D01*
X94318686Y-88779928D01*
X94301948Y-88710933D01*
X94325168Y-88643841D01*
X94380975Y-88599954D01*
X94427557Y-88590928D01*
X101516103Y-88577001D01*
X101584263Y-88596869D01*
X101630862Y-88650434D01*
X101641103Y-88720688D01*
X101621668Y-88768710D01*
X101622960Y-88769456D01*
X101560174Y-88878205D01*
X101527473Y-88934844D01*
X101468458Y-89116472D01*
X101467768Y-89123033D01*
X101467768Y-89123035D01*
X101453483Y-89258948D01*
X101448496Y-89306400D01*
X101449186Y-89312965D01*
X101466761Y-89480179D01*
X101468458Y-89496328D01*
X101527473Y-89677956D01*
X101622960Y-89843344D01*
X101627378Y-89848251D01*
X101627379Y-89848252D01*
X101746325Y-89980355D01*
X101750747Y-89985266D01*
X101905248Y-90097518D01*
X101911276Y-90100202D01*
X101911278Y-90100203D01*
X102073679Y-90172508D01*
X102079712Y-90175194D01*
X102173112Y-90195047D01*
X102260056Y-90213528D01*
X102260061Y-90213528D01*
X102266513Y-90214900D01*
X102457487Y-90214900D01*
X102463939Y-90213528D01*
X102463944Y-90213528D01*
X102550888Y-90195047D01*
X102644288Y-90175194D01*
X102650321Y-90172508D01*
X102812722Y-90100203D01*
X102812724Y-90100202D01*
X102818752Y-90097518D01*
X102973253Y-89985266D01*
X102977675Y-89980355D01*
X103096621Y-89848252D01*
X103096622Y-89848251D01*
X103101040Y-89843344D01*
X103196527Y-89677956D01*
X103232767Y-89566420D01*
X103272841Y-89507816D01*
X103338237Y-89480179D01*
X103408194Y-89492286D01*
X103460500Y-89540292D01*
X103472432Y-89566419D01*
X103508673Y-89677956D01*
X103604160Y-89843344D01*
X103608578Y-89848251D01*
X103608579Y-89848252D01*
X103727525Y-89980355D01*
X103731947Y-89985266D01*
X103886448Y-90097518D01*
X103892476Y-90100202D01*
X103892478Y-90100203D01*
X104054879Y-90172508D01*
X104060912Y-90175194D01*
X104154312Y-90195047D01*
X104241256Y-90213528D01*
X104241261Y-90213528D01*
X104247713Y-90214900D01*
X104438687Y-90214900D01*
X104445139Y-90213528D01*
X104445144Y-90213528D01*
X104532088Y-90195047D01*
X104625488Y-90175194D01*
X104631521Y-90172508D01*
X104793922Y-90100203D01*
X104793924Y-90100202D01*
X104799952Y-90097518D01*
X104954453Y-89985266D01*
X104958875Y-89980355D01*
X105077821Y-89848252D01*
X105077822Y-89848251D01*
X105082240Y-89843344D01*
X105177727Y-89677956D01*
X105236742Y-89496328D01*
X105238440Y-89480179D01*
X105256014Y-89312965D01*
X105256704Y-89306400D01*
X105251717Y-89258948D01*
X105237432Y-89123035D01*
X105237432Y-89123033D01*
X105236742Y-89116472D01*
X105177727Y-88934844D01*
X105082240Y-88769456D01*
X105081072Y-88768159D01*
X105057820Y-88702990D01*
X105073900Y-88633838D01*
X105124814Y-88584358D01*
X105183365Y-88569796D01*
X112449281Y-88555521D01*
X112517440Y-88575389D01*
X112564039Y-88628954D01*
X112574280Y-88699208D01*
X112543166Y-88765830D01*
X112494160Y-88820256D01*
X112482419Y-88840592D01*
X112424376Y-88941126D01*
X112398673Y-88985644D01*
X112339658Y-89167272D01*
X112338968Y-89173833D01*
X112338968Y-89173835D01*
X112325725Y-89299835D01*
X112319696Y-89357200D01*
X112320386Y-89363765D01*
X112338940Y-89540292D01*
X112339658Y-89547128D01*
X112398673Y-89728756D01*
X112494160Y-89894144D01*
X112498578Y-89899051D01*
X112498579Y-89899052D01*
X112579703Y-89989149D01*
X112621947Y-90036066D01*
X112776448Y-90148318D01*
X112782476Y-90151002D01*
X112782478Y-90151003D01*
X112925994Y-90214900D01*
X112950912Y-90225994D01*
X113044312Y-90245847D01*
X113131256Y-90264328D01*
X113131261Y-90264328D01*
X113137713Y-90265700D01*
X113328687Y-90265700D01*
X113335139Y-90264328D01*
X113335144Y-90264328D01*
X113422088Y-90245847D01*
X113515488Y-90225994D01*
X113540406Y-90214900D01*
X113683922Y-90151003D01*
X113683924Y-90151002D01*
X113689952Y-90148318D01*
X113844453Y-90036066D01*
X113886697Y-89989149D01*
X113967821Y-89899052D01*
X113967822Y-89899051D01*
X113972240Y-89894144D01*
X114067727Y-89728756D01*
X114126742Y-89547128D01*
X114126882Y-89545799D01*
X114159682Y-89485044D01*
X114221832Y-89450723D01*
X114292671Y-89455452D01*
X114349708Y-89497728D01*
X114371476Y-89545392D01*
X114371658Y-89547128D01*
X114430673Y-89728756D01*
X114526160Y-89894144D01*
X114530578Y-89899051D01*
X114530579Y-89899052D01*
X114611703Y-89989149D01*
X114653947Y-90036066D01*
X114808448Y-90148318D01*
X114814476Y-90151002D01*
X114814478Y-90151003D01*
X114957994Y-90214900D01*
X114982912Y-90225994D01*
X115076312Y-90245847D01*
X115163256Y-90264328D01*
X115163261Y-90264328D01*
X115169713Y-90265700D01*
X115360687Y-90265700D01*
X115367139Y-90264328D01*
X115367144Y-90264328D01*
X115454088Y-90245847D01*
X115547488Y-90225994D01*
X115572406Y-90214900D01*
X115715922Y-90151003D01*
X115715924Y-90151002D01*
X115721952Y-90148318D01*
X115876453Y-90036066D01*
X115918697Y-89989149D01*
X115999821Y-89899052D01*
X115999822Y-89899051D01*
X116004240Y-89894144D01*
X116099727Y-89728756D01*
X116158742Y-89547128D01*
X116159461Y-89540292D01*
X116178014Y-89363765D01*
X116178704Y-89357200D01*
X116172675Y-89299835D01*
X116159432Y-89173835D01*
X116159432Y-89173833D01*
X116158742Y-89167272D01*
X116099727Y-88985644D01*
X116074025Y-88941126D01*
X116015981Y-88840592D01*
X116004240Y-88820256D01*
X115948878Y-88758771D01*
X115918162Y-88694764D01*
X115926927Y-88624311D01*
X115972390Y-88569780D01*
X116042267Y-88548462D01*
X117217928Y-88546153D01*
X118076024Y-88544467D01*
X118139403Y-88561423D01*
G37*
G04 #@! TD.AperFunction*
G04 #@! TA.AperFunction,Conductor*
G36*
X129829235Y-76885164D02*
G01*
X129876018Y-76938567D01*
X129886502Y-77008785D01*
X129876906Y-77042390D01*
X129873873Y-77047644D01*
X129814858Y-77229272D01*
X129814168Y-77235833D01*
X129814168Y-77235835D01*
X129809519Y-77280072D01*
X129794896Y-77419200D01*
X129795586Y-77425765D01*
X129803918Y-77505035D01*
X129814858Y-77609128D01*
X129873873Y-77790756D01*
X129969360Y-77956144D01*
X129981738Y-77969891D01*
X130012454Y-78033897D01*
X130003690Y-78104350D01*
X129981739Y-78138507D01*
X129969360Y-78152256D01*
X129873873Y-78317644D01*
X129814858Y-78499272D01*
X129794896Y-78689200D01*
X129795586Y-78695765D01*
X129810179Y-78834606D01*
X129814858Y-78879128D01*
X129873873Y-79060756D01*
X129969360Y-79226144D01*
X129969915Y-79226761D01*
X129993051Y-79291611D01*
X129976968Y-79360762D01*
X129971930Y-79368601D01*
X129969360Y-79371456D01*
X129873873Y-79536844D01*
X129814858Y-79718472D01*
X129814168Y-79725033D01*
X129814168Y-79725035D01*
X129803490Y-79826635D01*
X129794896Y-79908400D01*
X129814858Y-80098328D01*
X129873873Y-80279956D01*
X129969360Y-80445344D01*
X129973778Y-80450251D01*
X129973779Y-80450252D01*
X130092725Y-80582355D01*
X130097147Y-80587266D01*
X130251648Y-80699518D01*
X130257676Y-80702202D01*
X130257678Y-80702203D01*
X130420081Y-80774509D01*
X130426112Y-80777194D01*
X130519513Y-80797047D01*
X130606456Y-80815528D01*
X130606461Y-80815528D01*
X130612913Y-80816900D01*
X130803887Y-80816900D01*
X130810339Y-80815528D01*
X130810344Y-80815528D01*
X130897287Y-80797047D01*
X130990688Y-80777194D01*
X130996719Y-80774509D01*
X131159122Y-80702203D01*
X131159124Y-80702202D01*
X131165152Y-80699518D01*
X131240289Y-80644928D01*
X131313992Y-80591379D01*
X131380860Y-80567521D01*
X131450011Y-80583601D01*
X131499491Y-80634515D01*
X131514039Y-80691462D01*
X131514197Y-80702203D01*
X131521200Y-81178400D01*
X131528996Y-81186324D01*
X131684593Y-81344472D01*
X131694484Y-81356148D01*
X131696560Y-81359744D01*
X131824347Y-81501666D01*
X131829689Y-81505547D01*
X131829691Y-81505549D01*
X131868174Y-81533508D01*
X131883927Y-81547074D01*
X131961511Y-81625929D01*
X132320466Y-81990769D01*
X132353983Y-82053356D01*
X132348343Y-82124128D01*
X132305335Y-82180616D01*
X132281897Y-82194244D01*
X132238881Y-82213395D01*
X132238874Y-82213399D01*
X132232848Y-82216082D01*
X132078347Y-82328334D01*
X132073926Y-82333244D01*
X132073925Y-82333245D01*
X132037109Y-82374134D01*
X131950560Y-82470256D01*
X131855073Y-82635644D01*
X131796058Y-82817272D01*
X131795368Y-82823833D01*
X131795368Y-82823835D01*
X131787320Y-82900406D01*
X131776096Y-83007200D01*
X131796058Y-83197128D01*
X131855073Y-83378756D01*
X131950560Y-83544144D01*
X132078347Y-83686066D01*
X132232848Y-83798318D01*
X132238876Y-83801002D01*
X132238878Y-83801003D01*
X132401281Y-83873309D01*
X132407312Y-83875994D01*
X132500713Y-83895847D01*
X132587656Y-83914328D01*
X132587661Y-83914328D01*
X132594113Y-83915700D01*
X132785087Y-83915700D01*
X132791539Y-83914328D01*
X132791544Y-83914328D01*
X132878487Y-83895847D01*
X132971888Y-83875994D01*
X132977919Y-83873309D01*
X133140322Y-83801003D01*
X133140324Y-83801002D01*
X133146352Y-83798318D01*
X133300853Y-83686066D01*
X133428640Y-83544144D01*
X133501216Y-83418439D01*
X133552597Y-83369447D01*
X133622311Y-83356011D01*
X133688222Y-83382397D01*
X133700151Y-83393072D01*
X133913054Y-83609465D01*
X134620000Y-84328000D01*
X138177789Y-84328000D01*
X138245910Y-84348002D01*
X138262930Y-84361119D01*
X138798757Y-84852294D01*
X138835457Y-84913069D01*
X138839399Y-84937776D01*
X138933838Y-86543250D01*
X138917870Y-86612428D01*
X138879700Y-86654298D01*
X138341357Y-87026416D01*
X138271145Y-87048759D01*
X132783867Y-87111114D01*
X129386982Y-87149715D01*
X129386981Y-87149715D01*
X129368867Y-87149921D01*
X128727200Y-87731600D01*
X128727190Y-87741398D01*
X128727190Y-87741399D01*
X128719211Y-95865267D01*
X128699142Y-95933368D01*
X128644461Y-95980249D01*
X128524448Y-96033682D01*
X128454082Y-96043116D01*
X128421953Y-96033682D01*
X128421952Y-96033682D01*
X128247488Y-95956006D01*
X128150611Y-95935414D01*
X128067144Y-95917672D01*
X128067139Y-95917672D01*
X128060687Y-95916300D01*
X127869713Y-95916300D01*
X127863261Y-95917672D01*
X127863256Y-95917672D01*
X127779789Y-95935414D01*
X127682912Y-95956006D01*
X127676882Y-95958691D01*
X127676881Y-95958691D01*
X127514478Y-96030997D01*
X127514476Y-96030998D01*
X127508448Y-96033682D01*
X127503107Y-96037562D01*
X127503106Y-96037563D01*
X127483117Y-96052086D01*
X127353947Y-96145934D01*
X127349526Y-96150844D01*
X127349525Y-96150845D01*
X127317798Y-96186082D01*
X127226160Y-96287856D01*
X127174131Y-96377973D01*
X127138172Y-96440256D01*
X127130673Y-96453244D01*
X127071658Y-96634872D01*
X127070968Y-96641433D01*
X127070968Y-96641435D01*
X127055894Y-96784856D01*
X127051696Y-96824800D01*
X127052386Y-96831365D01*
X127068260Y-96982394D01*
X127071658Y-97014728D01*
X127130673Y-97196356D01*
X127133976Y-97202078D01*
X127133977Y-97202079D01*
X127167886Y-97260810D01*
X127226160Y-97361744D01*
X127230578Y-97366651D01*
X127230579Y-97366652D01*
X127349525Y-97498755D01*
X127353947Y-97503666D01*
X127508448Y-97615918D01*
X127514476Y-97618602D01*
X127514478Y-97618603D01*
X127676881Y-97690909D01*
X127682912Y-97693594D01*
X127776313Y-97713447D01*
X127863256Y-97731928D01*
X127863261Y-97731928D01*
X127869713Y-97733300D01*
X128060687Y-97733300D01*
X128067139Y-97731928D01*
X128067144Y-97731928D01*
X128154087Y-97713447D01*
X128247488Y-97693594D01*
X128282783Y-97677880D01*
X128303909Y-97668474D01*
X128421952Y-97615918D01*
X128492318Y-97606484D01*
X128524447Y-97615918D01*
X128524448Y-97615918D01*
X128642576Y-97668512D01*
X128696671Y-97714491D01*
X128717326Y-97783742D01*
X128717116Y-97997788D01*
X128697047Y-98065889D01*
X128643346Y-98112329D01*
X128591300Y-98123664D01*
X126037103Y-98127386D01*
X125968953Y-98107483D01*
X125943285Y-98085699D01*
X125934853Y-98076334D01*
X125826744Y-97997788D01*
X125785694Y-97967963D01*
X125785693Y-97967962D01*
X125780352Y-97964082D01*
X125774324Y-97961398D01*
X125774322Y-97961397D01*
X125611919Y-97889091D01*
X125611918Y-97889091D01*
X125605888Y-97886406D01*
X125487065Y-97861149D01*
X125435700Y-97850231D01*
X125373226Y-97816502D01*
X125338905Y-97754353D01*
X125343633Y-97683514D01*
X125385909Y-97626476D01*
X125397380Y-97618755D01*
X125527472Y-97541205D01*
X125527474Y-97541204D01*
X125533524Y-97537597D01*
X125657405Y-97419627D01*
X125670679Y-97399649D01*
X125748170Y-97283014D01*
X125752071Y-97277143D01*
X125812818Y-97117226D01*
X125818201Y-97078927D01*
X125836075Y-96951747D01*
X125836075Y-96951744D01*
X125836626Y-96947825D01*
X125836925Y-96926400D01*
X125817856Y-96756400D01*
X125808280Y-96728899D01*
X125763914Y-96601497D01*
X125763913Y-96601495D01*
X125761599Y-96594850D01*
X125741627Y-96562888D01*
X125722492Y-96494518D01*
X125743533Y-96426393D01*
X125752071Y-96413543D01*
X125791791Y-96308979D01*
X125810318Y-96260208D01*
X125810319Y-96260206D01*
X125812818Y-96253626D01*
X125836626Y-96084225D01*
X125836812Y-96070916D01*
X125836870Y-96066762D01*
X125836870Y-96066757D01*
X125836925Y-96062800D01*
X125817856Y-95892800D01*
X125784296Y-95796426D01*
X125763914Y-95737897D01*
X125763913Y-95737895D01*
X125761599Y-95731250D01*
X125743777Y-95702728D01*
X125674681Y-95592152D01*
X125670948Y-95586178D01*
X125657759Y-95572896D01*
X125555372Y-95469792D01*
X125550409Y-95464794D01*
X125485139Y-95423373D01*
X125411916Y-95376904D01*
X125411913Y-95376902D01*
X125405973Y-95373133D01*
X125399340Y-95370771D01*
X125251454Y-95318111D01*
X125251449Y-95318110D01*
X125244819Y-95315749D01*
X125237831Y-95314916D01*
X125237828Y-95314915D01*
X125122255Y-95301134D01*
X125074957Y-95295494D01*
X125067954Y-95296230D01*
X125067953Y-95296230D01*
X125023558Y-95300896D01*
X124904828Y-95313375D01*
X124894671Y-95316833D01*
X124749556Y-95366234D01*
X124749553Y-95366235D01*
X124742889Y-95368504D01*
X124597188Y-95458140D01*
X124592157Y-95463067D01*
X124592154Y-95463069D01*
X124533173Y-95520828D01*
X124474966Y-95577828D01*
X124471147Y-95583753D01*
X124471146Y-95583755D01*
X124424556Y-95656049D01*
X124370842Y-95702474D01*
X124303727Y-95712908D01*
X124218351Y-95702728D01*
X124211357Y-95701894D01*
X124204354Y-95702630D01*
X124204353Y-95702630D01*
X124154063Y-95707916D01*
X124084225Y-95695144D01*
X124034038Y-95649375D01*
X123998284Y-95592156D01*
X123998281Y-95592152D01*
X123994548Y-95586178D01*
X123981359Y-95572896D01*
X123878972Y-95469792D01*
X123874009Y-95464794D01*
X123808739Y-95423373D01*
X123735516Y-95376904D01*
X123735513Y-95376902D01*
X123729573Y-95373133D01*
X123722940Y-95370771D01*
X123575054Y-95318111D01*
X123575049Y-95318110D01*
X123568419Y-95315749D01*
X123561431Y-95314916D01*
X123561428Y-95314915D01*
X123445855Y-95301134D01*
X123398557Y-95295494D01*
X123391554Y-95296230D01*
X123391553Y-95296230D01*
X123347158Y-95300896D01*
X123228428Y-95313375D01*
X123218271Y-95316833D01*
X123073156Y-95366234D01*
X123073153Y-95366235D01*
X123066489Y-95368504D01*
X122920788Y-95458140D01*
X122915757Y-95463067D01*
X122915754Y-95463069D01*
X122856773Y-95520828D01*
X122798566Y-95577828D01*
X122794747Y-95583753D01*
X122794746Y-95583755D01*
X122759033Y-95639171D01*
X122705898Y-95721620D01*
X122703487Y-95728243D01*
X122703486Y-95728246D01*
X122649800Y-95875747D01*
X122649799Y-95875752D01*
X122647390Y-95882370D01*
X122625950Y-96052086D01*
X122642643Y-96222336D01*
X122696640Y-96384656D01*
X122700287Y-96390678D01*
X122700288Y-96390680D01*
X122722959Y-96428114D01*
X122741138Y-96496743D01*
X122721094Y-96561640D01*
X122705898Y-96585220D01*
X122690111Y-96628594D01*
X122649800Y-96739347D01*
X122649799Y-96739352D01*
X122647390Y-96745970D01*
X122625950Y-96915686D01*
X122642643Y-97085936D01*
X122696640Y-97248256D01*
X122700287Y-97254278D01*
X122700288Y-97254280D01*
X122781606Y-97388554D01*
X122781609Y-97388557D01*
X122785256Y-97394580D01*
X122904089Y-97517634D01*
X122909985Y-97521492D01*
X123039866Y-97606484D01*
X123047230Y-97611303D01*
X123053834Y-97613759D01*
X123053836Y-97613760D01*
X123200957Y-97668474D01*
X123200959Y-97668474D01*
X123207567Y-97670932D01*
X123286654Y-97681485D01*
X123370149Y-97692626D01*
X123370153Y-97692626D01*
X123377130Y-97693557D01*
X123384141Y-97692919D01*
X123384145Y-97692919D01*
X123540473Y-97678692D01*
X123540475Y-97678692D01*
X123547492Y-97678053D01*
X123554190Y-97675877D01*
X123554193Y-97675876D01*
X123703489Y-97627366D01*
X123703491Y-97627365D01*
X123710185Y-97625190D01*
X123857124Y-97537597D01*
X123981005Y-97419627D01*
X124066297Y-97291252D01*
X124120653Y-97245583D01*
X124175849Y-97237795D01*
X124175902Y-97235278D01*
X124182951Y-97235426D01*
X124189930Y-97236357D01*
X124196942Y-97235719D01*
X124196946Y-97235719D01*
X124278236Y-97228321D01*
X124347889Y-97242067D01*
X124397431Y-97288531D01*
X124458006Y-97388554D01*
X124458009Y-97388557D01*
X124461656Y-97394580D01*
X124580489Y-97517634D01*
X124586385Y-97521492D01*
X124716266Y-97606484D01*
X124723630Y-97611303D01*
X124730234Y-97613759D01*
X124730236Y-97613760D01*
X124877357Y-97668474D01*
X124877359Y-97668474D01*
X124883967Y-97670932D01*
X124919766Y-97675709D01*
X124936037Y-97677880D01*
X125000914Y-97706716D01*
X125039902Y-97766050D01*
X125040622Y-97837043D01*
X125002846Y-97897155D01*
X124970620Y-97917880D01*
X124872881Y-97961395D01*
X124872874Y-97961399D01*
X124866848Y-97964082D01*
X124861507Y-97967962D01*
X124861506Y-97967963D01*
X124820456Y-97997788D01*
X124712347Y-98076334D01*
X124707927Y-98081243D01*
X124707926Y-98081244D01*
X124702044Y-98087777D01*
X124641598Y-98125018D01*
X124608592Y-98129468D01*
X113567840Y-98145557D01*
X113511311Y-98132255D01*
X113016868Y-97885034D01*
X112796765Y-97774982D01*
X112744781Y-97726627D01*
X112727151Y-97659212D01*
X112761273Y-96260208D01*
X112774771Y-95706784D01*
X112796429Y-95639171D01*
X112811639Y-95620761D01*
X113349102Y-95083298D01*
X113411414Y-95049272D01*
X113437213Y-95046397D01*
X126372370Y-94945341D01*
X126390400Y-94945200D01*
X127406400Y-94284800D01*
X127406400Y-92491247D01*
X127426402Y-92423126D01*
X127458339Y-92389311D01*
X127521796Y-92343206D01*
X127585853Y-92296666D01*
X127654671Y-92220236D01*
X127709221Y-92159652D01*
X127709222Y-92159651D01*
X127713640Y-92154744D01*
X127809127Y-91989356D01*
X127868142Y-91807728D01*
X127888104Y-91617800D01*
X127876272Y-91505220D01*
X127868832Y-91434435D01*
X127868832Y-91434433D01*
X127868142Y-91427872D01*
X127809127Y-91246244D01*
X127713640Y-91080856D01*
X127585853Y-90938934D01*
X127458339Y-90846289D01*
X127414985Y-90790066D01*
X127406400Y-90744353D01*
X127406400Y-83616800D01*
X127217311Y-83495783D01*
X126151541Y-82813690D01*
X126151540Y-82813690D01*
X126136400Y-82804000D01*
X126118425Y-82803956D01*
X126118424Y-82803956D01*
X118138901Y-82784509D01*
X118070829Y-82764341D01*
X118024467Y-82710572D01*
X118014535Y-82640273D01*
X118045572Y-82574199D01*
X118082621Y-82533052D01*
X118082622Y-82533051D01*
X118087040Y-82528144D01*
X118182527Y-82362756D01*
X118241542Y-82181128D01*
X118250206Y-82098700D01*
X118260814Y-81997765D01*
X118261504Y-81991200D01*
X118252910Y-81909435D01*
X118242232Y-81807835D01*
X118242232Y-81807833D01*
X118241542Y-81801272D01*
X118182527Y-81619644D01*
X118087040Y-81454256D01*
X117959253Y-81312334D01*
X117841376Y-81226691D01*
X117810094Y-81203963D01*
X117810093Y-81203962D01*
X117804752Y-81200082D01*
X117798724Y-81197398D01*
X117798722Y-81197397D01*
X117636319Y-81125091D01*
X117636318Y-81125091D01*
X117630288Y-81122406D01*
X117623832Y-81121034D01*
X117621983Y-81120433D01*
X117563378Y-81080359D01*
X117535741Y-81014962D01*
X117547848Y-80945005D01*
X117595855Y-80892700D01*
X117621983Y-80880767D01*
X117623832Y-80880166D01*
X117630288Y-80878794D01*
X117636319Y-80876109D01*
X117798722Y-80803803D01*
X117798724Y-80803802D01*
X117804752Y-80801118D01*
X117837681Y-80777194D01*
X117860157Y-80760864D01*
X117959253Y-80688866D01*
X118055156Y-80582355D01*
X118082621Y-80551852D01*
X118082622Y-80551851D01*
X118087040Y-80546944D01*
X118182527Y-80381556D01*
X118241542Y-80199928D01*
X118252221Y-80098328D01*
X118260814Y-80016565D01*
X118261504Y-80010000D01*
X118241542Y-79820072D01*
X118182527Y-79638444D01*
X118087040Y-79473056D01*
X117996822Y-79372858D01*
X117963675Y-79336045D01*
X117963674Y-79336044D01*
X117959253Y-79331134D01*
X117829466Y-79236838D01*
X117810094Y-79222763D01*
X117810093Y-79222762D01*
X117804752Y-79218882D01*
X117798724Y-79216198D01*
X117798722Y-79216197D01*
X117636319Y-79143891D01*
X117636316Y-79143890D01*
X117630288Y-79141206D01*
X117536887Y-79121353D01*
X117449944Y-79102872D01*
X117449939Y-79102872D01*
X117443487Y-79101500D01*
X117252513Y-79101500D01*
X117246061Y-79102872D01*
X117246056Y-79102872D01*
X117159113Y-79121353D01*
X117065712Y-79141206D01*
X117059684Y-79143890D01*
X117059681Y-79143891D01*
X116897278Y-79216197D01*
X116897276Y-79216198D01*
X116891248Y-79218882D01*
X116885907Y-79222762D01*
X116885906Y-79222763D01*
X116866534Y-79236838D01*
X116736747Y-79331134D01*
X116705034Y-79366355D01*
X116644591Y-79403593D01*
X116573607Y-79402242D01*
X116517766Y-79366355D01*
X116486053Y-79331134D01*
X116356266Y-79236838D01*
X116336894Y-79222763D01*
X116336893Y-79222762D01*
X116331552Y-79218882D01*
X116325524Y-79216198D01*
X116325522Y-79216197D01*
X116163119Y-79143891D01*
X116163116Y-79143890D01*
X116157088Y-79141206D01*
X116063687Y-79121353D01*
X115976744Y-79102872D01*
X115976739Y-79102872D01*
X115970287Y-79101500D01*
X115779313Y-79101500D01*
X115772861Y-79102872D01*
X115772856Y-79102872D01*
X115685913Y-79121353D01*
X115592512Y-79141206D01*
X115586484Y-79143890D01*
X115586481Y-79143891D01*
X115424078Y-79216197D01*
X115424076Y-79216198D01*
X115418048Y-79218882D01*
X115412707Y-79222762D01*
X115412706Y-79222763D01*
X115393334Y-79236838D01*
X115263547Y-79331134D01*
X115259126Y-79336044D01*
X115259125Y-79336045D01*
X115225979Y-79372858D01*
X115135760Y-79473056D01*
X115040273Y-79638444D01*
X114981258Y-79820072D01*
X114961296Y-80010000D01*
X114961986Y-80016565D01*
X114970580Y-80098328D01*
X114981258Y-80199928D01*
X115040273Y-80381556D01*
X115135760Y-80546944D01*
X115140178Y-80551851D01*
X115140179Y-80551852D01*
X115167644Y-80582355D01*
X115263547Y-80688866D01*
X115362643Y-80760864D01*
X115385120Y-80777194D01*
X115418048Y-80801118D01*
X115424076Y-80803802D01*
X115424078Y-80803803D01*
X115586483Y-80876110D01*
X115586485Y-80876111D01*
X115587161Y-80876411D01*
X115587160Y-80876411D01*
X115592512Y-80878794D01*
X115592076Y-80879773D01*
X115645539Y-80916329D01*
X115673307Y-80982917D01*
X115674224Y-80991641D01*
X115661452Y-81061480D01*
X115612951Y-81113327D01*
X115593091Y-81122283D01*
X115592512Y-81122406D01*
X115586482Y-81125091D01*
X115586481Y-81125091D01*
X115424078Y-81197397D01*
X115424076Y-81197398D01*
X115418048Y-81200082D01*
X115412707Y-81203962D01*
X115412706Y-81203963D01*
X115381424Y-81226691D01*
X115263547Y-81312334D01*
X115135760Y-81454256D01*
X115040273Y-81619644D01*
X114981258Y-81801272D01*
X114980568Y-81807833D01*
X114980568Y-81807835D01*
X114969890Y-81909435D01*
X114961296Y-81991200D01*
X114961986Y-81997765D01*
X114972595Y-82098700D01*
X114981258Y-82181128D01*
X115040273Y-82362756D01*
X115135760Y-82528144D01*
X115170510Y-82566738D01*
X115201226Y-82630744D01*
X115192461Y-82701197D01*
X115146998Y-82755728D01*
X115076565Y-82777046D01*
X112653196Y-82771140D01*
X108475614Y-82760959D01*
X108407542Y-82740791D01*
X108361180Y-82687022D01*
X108351248Y-82616723D01*
X108366802Y-82571959D01*
X108369287Y-82567656D01*
X108428927Y-82464356D01*
X108487942Y-82282728D01*
X108498621Y-82181128D01*
X108507214Y-82099365D01*
X108507904Y-82092800D01*
X108487942Y-81902872D01*
X108428927Y-81721244D01*
X108333440Y-81555856D01*
X108288144Y-81505549D01*
X108210075Y-81418845D01*
X108210074Y-81418844D01*
X108205653Y-81413934D01*
X108051152Y-81301682D01*
X108045124Y-81298998D01*
X108045122Y-81298997D01*
X107882719Y-81226691D01*
X107882718Y-81226691D01*
X107876688Y-81224006D01*
X107782394Y-81203963D01*
X107696344Y-81185672D01*
X107696339Y-81185672D01*
X107689887Y-81184300D01*
X107498913Y-81184300D01*
X107492461Y-81185672D01*
X107492456Y-81185672D01*
X107406406Y-81203963D01*
X107312112Y-81224006D01*
X107306082Y-81226691D01*
X107306081Y-81226691D01*
X107143678Y-81298997D01*
X107143676Y-81298998D01*
X107137648Y-81301682D01*
X106983147Y-81413934D01*
X106978726Y-81418844D01*
X106978725Y-81418845D01*
X106900657Y-81505549D01*
X106855360Y-81555856D01*
X106759873Y-81721244D01*
X106700858Y-81902872D01*
X106680896Y-82092800D01*
X106681586Y-82099365D01*
X106690180Y-82181128D01*
X106700858Y-82282728D01*
X106759873Y-82464356D01*
X106763176Y-82470078D01*
X106763177Y-82470079D01*
X106819513Y-82567656D01*
X106836251Y-82636652D01*
X106813030Y-82703743D01*
X106757223Y-82747630D01*
X106710087Y-82756656D01*
X102513355Y-82746428D01*
X102445283Y-82726260D01*
X102427352Y-82712225D01*
X102208343Y-82506307D01*
X102172416Y-82445072D01*
X102175297Y-82374134D01*
X102178102Y-82366956D01*
X102180527Y-82362756D01*
X102239542Y-82181128D01*
X102248206Y-82098700D01*
X102258814Y-81997765D01*
X102259504Y-81991200D01*
X102250910Y-81909435D01*
X102240232Y-81807835D01*
X102240232Y-81807833D01*
X102239542Y-81801272D01*
X102180527Y-81619644D01*
X102085040Y-81454256D01*
X101957253Y-81312334D01*
X101839376Y-81226691D01*
X101808094Y-81203963D01*
X101808093Y-81203962D01*
X101802752Y-81200082D01*
X101796724Y-81197398D01*
X101796722Y-81197397D01*
X101664547Y-81138549D01*
X101628288Y-81122406D01*
X101621835Y-81121034D01*
X101619984Y-81120433D01*
X101561378Y-81080360D01*
X101533740Y-81014964D01*
X101545846Y-80945007D01*
X101593852Y-80892701D01*
X101619984Y-80880767D01*
X101621835Y-80880166D01*
X101628288Y-80878794D01*
X101664547Y-80862651D01*
X101796722Y-80803803D01*
X101796724Y-80803802D01*
X101802752Y-80801118D01*
X101835681Y-80777194D01*
X101858157Y-80760864D01*
X101957253Y-80688866D01*
X102053156Y-80582355D01*
X102080621Y-80551852D01*
X102080622Y-80551851D01*
X102085040Y-80546944D01*
X102180527Y-80381556D01*
X102239542Y-80199928D01*
X102250221Y-80098328D01*
X102258814Y-80016565D01*
X102259504Y-80010000D01*
X102239542Y-79820072D01*
X102180527Y-79638444D01*
X102085040Y-79473056D01*
X101994822Y-79372858D01*
X101961675Y-79336045D01*
X101961674Y-79336044D01*
X101957253Y-79331134D01*
X101827466Y-79236838D01*
X101808094Y-79222763D01*
X101808093Y-79222762D01*
X101802752Y-79218882D01*
X101796724Y-79216198D01*
X101796722Y-79216197D01*
X101692121Y-79169626D01*
X101628288Y-79141206D01*
X101598288Y-79134829D01*
X101535818Y-79101103D01*
X101501496Y-79038953D01*
X101498488Y-79011580D01*
X101498492Y-78872565D01*
X101498518Y-78042161D01*
X101518522Y-77974042D01*
X101539564Y-77949114D01*
X102279308Y-77273794D01*
X102529402Y-77045481D01*
X102593197Y-77014325D01*
X102613671Y-77012538D01*
X104709251Y-77001190D01*
X106749478Y-76990141D01*
X106817704Y-77009774D01*
X106864487Y-77063177D01*
X106874971Y-77133395D01*
X106859277Y-77179139D01*
X106794863Y-77290708D01*
X106779773Y-77316844D01*
X106720758Y-77498472D01*
X106720068Y-77505033D01*
X106720068Y-77505035D01*
X106709128Y-77609128D01*
X106700796Y-77688400D01*
X106701486Y-77694965D01*
X106717495Y-77847279D01*
X106720758Y-77878328D01*
X106779773Y-78059956D01*
X106875260Y-78225344D01*
X106879678Y-78230251D01*
X106879679Y-78230252D01*
X106964026Y-78323929D01*
X107003047Y-78367266D01*
X107082621Y-78425080D01*
X107139756Y-78466591D01*
X107157548Y-78479518D01*
X107163576Y-78482202D01*
X107163578Y-78482203D01*
X107201916Y-78499272D01*
X107332012Y-78557194D01*
X107425413Y-78577047D01*
X107512356Y-78595528D01*
X107512361Y-78595528D01*
X107518813Y-78596900D01*
X107709787Y-78596900D01*
X107716239Y-78595528D01*
X107716244Y-78595528D01*
X107890133Y-78558566D01*
X107890132Y-78558566D01*
X107896588Y-78557194D01*
X107896782Y-78558107D01*
X107962009Y-78556245D01*
X108022806Y-78592909D01*
X108054130Y-78656622D01*
X108055285Y-78664935D01*
X108071603Y-78820190D01*
X108072458Y-78828328D01*
X108131473Y-79009956D01*
X108226960Y-79175344D01*
X108354747Y-79317266D01*
X108509248Y-79429518D01*
X108515276Y-79432202D01*
X108515278Y-79432203D01*
X108607036Y-79473056D01*
X108683712Y-79507194D01*
X108777113Y-79527047D01*
X108864056Y-79545528D01*
X108864061Y-79545528D01*
X108870513Y-79546900D01*
X109061487Y-79546900D01*
X109067939Y-79545528D01*
X109067944Y-79545528D01*
X109154887Y-79527047D01*
X109248288Y-79507194D01*
X109324964Y-79473056D01*
X109416722Y-79432203D01*
X109416724Y-79432202D01*
X109422752Y-79429518D01*
X109577253Y-79317266D01*
X109705040Y-79175344D01*
X109800527Y-79009956D01*
X109859542Y-78828328D01*
X109860398Y-78820190D01*
X109878814Y-78644965D01*
X109879504Y-78638400D01*
X109864881Y-78499272D01*
X109860232Y-78455035D01*
X109860232Y-78455033D01*
X109859542Y-78448472D01*
X109800527Y-78266844D01*
X109705040Y-78101456D01*
X109659961Y-78051390D01*
X109581675Y-77964445D01*
X109581674Y-77964444D01*
X109577253Y-77959534D01*
X109422752Y-77847282D01*
X109416724Y-77844598D01*
X109416722Y-77844597D01*
X109254319Y-77772291D01*
X109254318Y-77772291D01*
X109248288Y-77769606D01*
X109154888Y-77749753D01*
X109067944Y-77731272D01*
X109067939Y-77731272D01*
X109061487Y-77729900D01*
X108870513Y-77729900D01*
X108864061Y-77731272D01*
X108864056Y-77731272D01*
X108709373Y-77764152D01*
X108683712Y-77769606D01*
X108683518Y-77768693D01*
X108618291Y-77770555D01*
X108557494Y-77733891D01*
X108526170Y-77670178D01*
X108525015Y-77661865D01*
X108524812Y-77659928D01*
X108519472Y-77609128D01*
X108508532Y-77505035D01*
X108508532Y-77505033D01*
X108507842Y-77498472D01*
X108448827Y-77316844D01*
X108437081Y-77296499D01*
X108363937Y-77169810D01*
X108347199Y-77100815D01*
X108370419Y-77033723D01*
X108426227Y-76989836D01*
X108472374Y-76980812D01*
X111873858Y-76962392D01*
X120057432Y-76918077D01*
X120125657Y-76937709D01*
X120172440Y-76991112D01*
X120182924Y-77061330D01*
X120173555Y-77094144D01*
X120171073Y-77098444D01*
X120112058Y-77280072D01*
X120111368Y-77286633D01*
X120111368Y-77286635D01*
X120098125Y-77412635D01*
X120092096Y-77470000D01*
X120092786Y-77476565D01*
X120107379Y-77615406D01*
X120112058Y-77659928D01*
X120171073Y-77841556D01*
X120174376Y-77847278D01*
X120174377Y-77847279D01*
X120252059Y-77981828D01*
X120268797Y-78050823D01*
X120245577Y-78117915D01*
X120236578Y-78129135D01*
X120215760Y-78152256D01*
X120120273Y-78317644D01*
X120061258Y-78499272D01*
X120041296Y-78689200D01*
X120041986Y-78695765D01*
X120056579Y-78834606D01*
X120061258Y-78879128D01*
X120120273Y-79060756D01*
X120215760Y-79226144D01*
X120216315Y-79226761D01*
X120239451Y-79291611D01*
X120223368Y-79360762D01*
X120218330Y-79368601D01*
X120215760Y-79371456D01*
X120120273Y-79536844D01*
X120061258Y-79718472D01*
X120060568Y-79725033D01*
X120060568Y-79725035D01*
X120049890Y-79826635D01*
X120041296Y-79908400D01*
X120061258Y-80098328D01*
X120120273Y-80279956D01*
X120215760Y-80445344D01*
X120220178Y-80450251D01*
X120220179Y-80450252D01*
X120339125Y-80582355D01*
X120343547Y-80587266D01*
X120498048Y-80699518D01*
X120504076Y-80702202D01*
X120504078Y-80702203D01*
X120666481Y-80774509D01*
X120672512Y-80777194D01*
X120765913Y-80797047D01*
X120852856Y-80815528D01*
X120852861Y-80815528D01*
X120859313Y-80816900D01*
X121050287Y-80816900D01*
X121056739Y-80815528D01*
X121056744Y-80815528D01*
X121143687Y-80797047D01*
X121237088Y-80777194D01*
X121243119Y-80774509D01*
X121405522Y-80702203D01*
X121405524Y-80702202D01*
X121411552Y-80699518D01*
X121566053Y-80587266D01*
X121570475Y-80582355D01*
X121689421Y-80450252D01*
X121689422Y-80450251D01*
X121693840Y-80445344D01*
X121789327Y-80279956D01*
X121848342Y-80098328D01*
X121868304Y-79908400D01*
X121859710Y-79826635D01*
X121849032Y-79725035D01*
X121849032Y-79725033D01*
X121848342Y-79718472D01*
X121789327Y-79536844D01*
X121693840Y-79371456D01*
X121693285Y-79370839D01*
X121670149Y-79305989D01*
X121686232Y-79236838D01*
X121691270Y-79228999D01*
X121693840Y-79226144D01*
X121789327Y-79060756D01*
X121848342Y-78879128D01*
X121853022Y-78834606D01*
X121867614Y-78695765D01*
X121868304Y-78689200D01*
X121848342Y-78499272D01*
X121789327Y-78317644D01*
X121759998Y-78266844D01*
X121708341Y-78177372D01*
X121691603Y-78108377D01*
X121714823Y-78041285D01*
X121723825Y-78030061D01*
X121740221Y-78011852D01*
X121740222Y-78011851D01*
X121744640Y-78006944D01*
X121822686Y-77871765D01*
X121836823Y-77847279D01*
X121836824Y-77847278D01*
X121840127Y-77841556D01*
X121899142Y-77659928D01*
X121903822Y-77615406D01*
X121918414Y-77476565D01*
X121919104Y-77470000D01*
X121913075Y-77412635D01*
X121899832Y-77286635D01*
X121899832Y-77286633D01*
X121899142Y-77280072D01*
X121840127Y-77098444D01*
X121836823Y-77092721D01*
X121834139Y-77086693D01*
X121836489Y-77085647D01*
X121822461Y-77027864D01*
X121845670Y-76960769D01*
X121901470Y-76916872D01*
X121947637Y-76907841D01*
X129761007Y-76865531D01*
X129829235Y-76885164D01*
G37*
G04 #@! TD.AperFunction*
G04 #@! TA.AperFunction,Conductor*
G36*
X99981927Y-111549902D02*
G01*
X100002901Y-111566805D01*
X101604348Y-113168253D01*
X101611888Y-113176539D01*
X101616000Y-113183018D01*
X101621777Y-113188443D01*
X101665651Y-113229643D01*
X101668493Y-113232398D01*
X101688230Y-113252135D01*
X101691427Y-113254615D01*
X101700447Y-113262318D01*
X101732679Y-113292586D01*
X101739625Y-113296405D01*
X101739628Y-113296407D01*
X101750434Y-113302348D01*
X101766953Y-113313199D01*
X101782959Y-113325614D01*
X101790228Y-113328759D01*
X101790232Y-113328762D01*
X101823537Y-113343174D01*
X101834187Y-113348391D01*
X101872940Y-113369695D01*
X101880615Y-113371666D01*
X101880616Y-113371666D01*
X101892562Y-113374733D01*
X101911267Y-113381137D01*
X101929855Y-113389181D01*
X101937678Y-113390420D01*
X101937688Y-113390423D01*
X101973524Y-113396099D01*
X101985144Y-113398505D01*
X102019331Y-113407282D01*
X102027970Y-113409500D01*
X102048224Y-113409500D01*
X102067934Y-113411051D01*
X102087943Y-113414220D01*
X102095835Y-113413474D01*
X102131961Y-113410059D01*
X102143819Y-113409500D01*
X111061545Y-113409500D01*
X111112794Y-113420393D01*
X111241744Y-113477805D01*
X111295840Y-113523785D01*
X111316481Y-113591032D01*
X111455186Y-122884262D01*
X111455200Y-122886142D01*
X111455200Y-124675900D01*
X111435198Y-124744021D01*
X111381542Y-124790514D01*
X111329200Y-124801900D01*
X106597043Y-124801900D01*
X106595371Y-124801889D01*
X100098728Y-124715650D01*
X100030878Y-124694745D01*
X99985102Y-124640477D01*
X99974400Y-124589661D01*
X99974400Y-121818400D01*
X101042096Y-121818400D01*
X101062058Y-122008328D01*
X101121073Y-122189956D01*
X101124376Y-122195678D01*
X101124377Y-122195679D01*
X101158286Y-122254410D01*
X101216560Y-122355344D01*
X101344347Y-122497266D01*
X101498848Y-122609518D01*
X101504876Y-122612202D01*
X101504878Y-122612203D01*
X101612556Y-122660144D01*
X101673312Y-122687194D01*
X101735752Y-122700466D01*
X101853656Y-122725528D01*
X101853661Y-122725528D01*
X101860113Y-122726900D01*
X102051087Y-122726900D01*
X102057539Y-122725528D01*
X102057544Y-122725528D01*
X102175448Y-122700466D01*
X102237888Y-122687194D01*
X102298644Y-122660144D01*
X102406322Y-122612203D01*
X102406324Y-122612202D01*
X102412352Y-122609518D01*
X102566853Y-122497266D01*
X102694640Y-122355344D01*
X102752914Y-122254410D01*
X102786823Y-122195679D01*
X102786824Y-122195678D01*
X102790127Y-122189956D01*
X102849142Y-122008328D01*
X102869104Y-121818400D01*
X102856644Y-121699852D01*
X102849832Y-121635035D01*
X102849832Y-121635033D01*
X102849142Y-121628472D01*
X102790127Y-121446844D01*
X102694640Y-121281456D01*
X102583480Y-121158000D01*
X103988496Y-121158000D01*
X103989186Y-121164565D01*
X104006793Y-121332082D01*
X104008458Y-121347928D01*
X104067473Y-121529556D01*
X104162960Y-121694944D01*
X104290747Y-121836866D01*
X104445248Y-121949118D01*
X104451276Y-121951802D01*
X104451278Y-121951803D01*
X104578236Y-122008328D01*
X104619712Y-122026794D01*
X104713112Y-122046647D01*
X104800056Y-122065128D01*
X104800061Y-122065128D01*
X104806513Y-122066500D01*
X104997487Y-122066500D01*
X105003939Y-122065128D01*
X105003944Y-122065128D01*
X105090888Y-122046647D01*
X105184288Y-122026794D01*
X105225764Y-122008328D01*
X105352722Y-121951803D01*
X105352724Y-121951802D01*
X105358752Y-121949118D01*
X105513253Y-121836866D01*
X105641040Y-121694944D01*
X105736527Y-121529556D01*
X105795542Y-121347928D01*
X105797208Y-121332082D01*
X105814814Y-121164565D01*
X105815504Y-121158000D01*
X105795542Y-120968072D01*
X105736527Y-120786444D01*
X105641040Y-120621056D01*
X105523583Y-120490606D01*
X105517675Y-120484045D01*
X105517674Y-120484044D01*
X105513253Y-120479134D01*
X105358752Y-120366882D01*
X105352724Y-120364198D01*
X105352722Y-120364197D01*
X105195954Y-120294400D01*
X106325296Y-120294400D01*
X106345258Y-120484328D01*
X106404273Y-120665956D01*
X106499760Y-120831344D01*
X106504178Y-120836251D01*
X106504179Y-120836252D01*
X106622870Y-120968072D01*
X106627547Y-120973266D01*
X106782048Y-121085518D01*
X106788076Y-121088202D01*
X106788078Y-121088203D01*
X106933180Y-121152806D01*
X106956512Y-121163194D01*
X107049913Y-121183047D01*
X107136856Y-121201528D01*
X107136861Y-121201528D01*
X107143313Y-121202900D01*
X107334287Y-121202900D01*
X107340739Y-121201528D01*
X107340744Y-121201528D01*
X107427687Y-121183047D01*
X107521088Y-121163194D01*
X107544420Y-121152806D01*
X107689522Y-121088203D01*
X107689524Y-121088202D01*
X107695552Y-121085518D01*
X107850053Y-120973266D01*
X107854730Y-120968072D01*
X107973421Y-120836252D01*
X107973422Y-120836251D01*
X107977840Y-120831344D01*
X108073327Y-120665956D01*
X108132342Y-120484328D01*
X108152304Y-120294400D01*
X108132342Y-120104472D01*
X108073327Y-119922844D01*
X107977840Y-119757456D01*
X107850053Y-119615534D01*
X107695552Y-119503282D01*
X107689524Y-119500598D01*
X107689522Y-119500597D01*
X107527119Y-119428291D01*
X107527118Y-119428291D01*
X107521088Y-119425606D01*
X107427688Y-119405753D01*
X107340744Y-119387272D01*
X107340739Y-119387272D01*
X107334287Y-119385900D01*
X107143313Y-119385900D01*
X107136861Y-119387272D01*
X107136856Y-119387272D01*
X107049912Y-119405753D01*
X106956512Y-119425606D01*
X106950482Y-119428291D01*
X106950481Y-119428291D01*
X106788078Y-119500597D01*
X106788076Y-119500598D01*
X106782048Y-119503282D01*
X106627547Y-119615534D01*
X106499760Y-119757456D01*
X106404273Y-119922844D01*
X106345258Y-120104472D01*
X106325296Y-120294400D01*
X105195954Y-120294400D01*
X105190319Y-120291891D01*
X105190318Y-120291891D01*
X105184288Y-120289206D01*
X105090887Y-120269353D01*
X105003944Y-120250872D01*
X105003939Y-120250872D01*
X104997487Y-120249500D01*
X104806513Y-120249500D01*
X104800061Y-120250872D01*
X104800056Y-120250872D01*
X104713113Y-120269353D01*
X104619712Y-120289206D01*
X104613682Y-120291891D01*
X104613681Y-120291891D01*
X104451278Y-120364197D01*
X104451276Y-120364198D01*
X104445248Y-120366882D01*
X104290747Y-120479134D01*
X104286326Y-120484044D01*
X104286325Y-120484045D01*
X104280418Y-120490606D01*
X104162960Y-120621056D01*
X104067473Y-120786444D01*
X104008458Y-120968072D01*
X103988496Y-121158000D01*
X102583480Y-121158000D01*
X102566853Y-121139534D01*
X102412352Y-121027282D01*
X102406324Y-121024598D01*
X102406322Y-121024597D01*
X102243919Y-120952291D01*
X102243918Y-120952291D01*
X102237888Y-120949606D01*
X102144487Y-120929753D01*
X102057544Y-120911272D01*
X102057539Y-120911272D01*
X102051087Y-120909900D01*
X101860113Y-120909900D01*
X101853661Y-120911272D01*
X101853656Y-120911272D01*
X101766713Y-120929753D01*
X101673312Y-120949606D01*
X101667282Y-120952291D01*
X101667281Y-120952291D01*
X101504878Y-121024597D01*
X101504876Y-121024598D01*
X101498848Y-121027282D01*
X101344347Y-121139534D01*
X101216560Y-121281456D01*
X101121073Y-121446844D01*
X101062058Y-121628472D01*
X101061368Y-121635033D01*
X101061368Y-121635035D01*
X101054556Y-121699852D01*
X101042096Y-121818400D01*
X99974400Y-121818400D01*
X99974400Y-119481600D01*
X97716493Y-116671760D01*
X97689414Y-116606130D01*
X97688714Y-116591954D01*
X97723238Y-111655019D01*
X97743716Y-111587040D01*
X97797695Y-111540923D01*
X97849235Y-111529900D01*
X99913806Y-111529900D01*
X99981927Y-111549902D01*
G37*
G04 #@! TD.AperFunction*
G04 #@! TA.AperFunction,Conductor*
G36*
X103661987Y-83433602D02*
G01*
X103708480Y-83487258D01*
X103718584Y-83557532D01*
X103718257Y-83559368D01*
X103716859Y-83563671D01*
X103696897Y-83753599D01*
X103716859Y-83943527D01*
X103775874Y-84125155D01*
X103779177Y-84130877D01*
X103779178Y-84130878D01*
X103784881Y-84140756D01*
X103871361Y-84290543D01*
X103999148Y-84432465D01*
X104153649Y-84544717D01*
X104159677Y-84547401D01*
X104159679Y-84547402D01*
X104194720Y-84563003D01*
X104328113Y-84622393D01*
X104421513Y-84642246D01*
X104508457Y-84660727D01*
X104508462Y-84660727D01*
X104514914Y-84662099D01*
X104705888Y-84662099D01*
X104712340Y-84660727D01*
X104712345Y-84660727D01*
X104799289Y-84642246D01*
X104892689Y-84622393D01*
X105044444Y-84554828D01*
X105114809Y-84545394D01*
X105155677Y-84559758D01*
X105156448Y-84560318D01*
X105162476Y-84563002D01*
X105162478Y-84563003D01*
X105295871Y-84622393D01*
X105330912Y-84637994D01*
X105424313Y-84657847D01*
X105511256Y-84676328D01*
X105511261Y-84676328D01*
X105517713Y-84677700D01*
X105708687Y-84677700D01*
X105715139Y-84676328D01*
X105715144Y-84676328D01*
X105802087Y-84657847D01*
X105895488Y-84637994D01*
X106069952Y-84560318D01*
X106140318Y-84550884D01*
X106172447Y-84560318D01*
X106172448Y-84560318D01*
X106346912Y-84637994D01*
X106440313Y-84657847D01*
X106527256Y-84676328D01*
X106527261Y-84676328D01*
X106533713Y-84677700D01*
X106724687Y-84677700D01*
X106731139Y-84676328D01*
X106731144Y-84676328D01*
X106818087Y-84657847D01*
X106911488Y-84637994D01*
X106946529Y-84622393D01*
X107079922Y-84563003D01*
X107079924Y-84563002D01*
X107085952Y-84560318D01*
X107093509Y-84554828D01*
X107207954Y-84471678D01*
X107240453Y-84448066D01*
X107368240Y-84306144D01*
X107463727Y-84140756D01*
X107522742Y-83959128D01*
X107525217Y-83935585D01*
X107542014Y-83775765D01*
X107542704Y-83769200D01*
X107539306Y-83736866D01*
X107523433Y-83585842D01*
X107523432Y-83585838D01*
X107522742Y-83579272D01*
X107520701Y-83572990D01*
X107519328Y-83566532D01*
X107522148Y-83565933D01*
X107520468Y-83507596D01*
X107557117Y-83446790D01*
X107620822Y-83415450D01*
X107642336Y-83413600D01*
X125585642Y-83413600D01*
X125653763Y-83433602D01*
X125662327Y-83439623D01*
X125852958Y-83585842D01*
X126563540Y-84130878D01*
X126640203Y-84189681D01*
X126682081Y-84247011D01*
X126689518Y-84289580D01*
X126692371Y-89001747D01*
X126695171Y-93627515D01*
X126675210Y-93695648D01*
X126663651Y-93710955D01*
X125970820Y-94496164D01*
X125910751Y-94534010D01*
X125876340Y-94538800D01*
X113284000Y-94538800D01*
X112420400Y-95453200D01*
X112440481Y-96517491D01*
X112469705Y-98066349D01*
X112471200Y-98145600D01*
X113180153Y-98449437D01*
X113523459Y-98596568D01*
X113538000Y-98602800D01*
X129286000Y-98602800D01*
X129289999Y-98325574D01*
X129298182Y-97758162D01*
X129319164Y-97690337D01*
X129372920Y-97644872D01*
X129376871Y-97643113D01*
X129437952Y-97615918D01*
X129508318Y-97606484D01*
X129540447Y-97615918D01*
X129540448Y-97615918D01*
X129664117Y-97670979D01*
X129707597Y-97690337D01*
X129714912Y-97693594D01*
X129808313Y-97713447D01*
X129895256Y-97731928D01*
X129895261Y-97731928D01*
X129901713Y-97733300D01*
X130092687Y-97733300D01*
X130099139Y-97731928D01*
X130099144Y-97731928D01*
X130186087Y-97713447D01*
X130279488Y-97693594D01*
X130285519Y-97690909D01*
X130447924Y-97618602D01*
X130447925Y-97618601D01*
X130453952Y-97615918D01*
X130458711Y-97612460D01*
X130527449Y-97595785D01*
X130594541Y-97619006D01*
X130638428Y-97674813D01*
X130647451Y-97721001D01*
X130653183Y-98850235D01*
X130657317Y-99664676D01*
X130637661Y-99732898D01*
X130616566Y-99758100D01*
X130170492Y-100167929D01*
X130031539Y-100295591D01*
X129967843Y-100326949D01*
X129947036Y-100328804D01*
X112063242Y-100433797D01*
X111995006Y-100414195D01*
X111948199Y-100360813D01*
X111937682Y-100290600D01*
X111942669Y-100268867D01*
X111993142Y-100113528D01*
X111995692Y-100089272D01*
X112012414Y-99930165D01*
X112013104Y-99923600D01*
X112005468Y-99850944D01*
X111993832Y-99740235D01*
X111993832Y-99740233D01*
X111993142Y-99733672D01*
X111934127Y-99552044D01*
X111838640Y-99386656D01*
X111710853Y-99244734D01*
X111556352Y-99132482D01*
X111550324Y-99129798D01*
X111550322Y-99129797D01*
X111387919Y-99057491D01*
X111387918Y-99057491D01*
X111381888Y-99054806D01*
X111288487Y-99034953D01*
X111201544Y-99016472D01*
X111201539Y-99016472D01*
X111195087Y-99015100D01*
X111004113Y-99015100D01*
X110997661Y-99016472D01*
X110997656Y-99016472D01*
X110910713Y-99034953D01*
X110817312Y-99054806D01*
X110811282Y-99057491D01*
X110811281Y-99057491D01*
X110648878Y-99129797D01*
X110648876Y-99129798D01*
X110642848Y-99132482D01*
X110488347Y-99244734D01*
X110360560Y-99386656D01*
X110265073Y-99552044D01*
X110206058Y-99733672D01*
X110205368Y-99740233D01*
X110205368Y-99740235D01*
X110193732Y-99850944D01*
X110186096Y-99923600D01*
X110186786Y-99930165D01*
X110203509Y-100089272D01*
X110206058Y-100113528D01*
X110208097Y-100119803D01*
X110208098Y-100119806D01*
X110260196Y-100280147D01*
X110262224Y-100351114D01*
X110225561Y-100411912D01*
X110161849Y-100443238D01*
X110141103Y-100445081D01*
X106227649Y-100468056D01*
X106159412Y-100448454D01*
X106112605Y-100395072D01*
X106101600Y-100355231D01*
X106101034Y-100349845D01*
X106101032Y-100349834D01*
X106100342Y-100343272D01*
X106077391Y-100272635D01*
X106043369Y-100167929D01*
X106041327Y-100161644D01*
X106027623Y-100137907D01*
X105949141Y-100001974D01*
X105945840Y-99996256D01*
X105904632Y-99950490D01*
X105858972Y-99899779D01*
X105828254Y-99835772D01*
X105837019Y-99765318D01*
X105882482Y-99710787D01*
X105901360Y-99700362D01*
X106013119Y-99650605D01*
X106013126Y-99650601D01*
X106019152Y-99647918D01*
X106051134Y-99624682D01*
X106142460Y-99558329D01*
X106173653Y-99535666D01*
X106216498Y-99488082D01*
X106297021Y-99398652D01*
X106297022Y-99398651D01*
X106301440Y-99393744D01*
X106396927Y-99228356D01*
X106455942Y-99046728D01*
X106475904Y-98856800D01*
X106455942Y-98666872D01*
X106396927Y-98485244D01*
X106301440Y-98319856D01*
X106276449Y-98292100D01*
X106178075Y-98182845D01*
X106178074Y-98182844D01*
X106173653Y-98177934D01*
X106019152Y-98065682D01*
X106013124Y-98062998D01*
X106013122Y-98062997D01*
X105850719Y-97990691D01*
X105850718Y-97990691D01*
X105844688Y-97988006D01*
X105751288Y-97968153D01*
X105664344Y-97949672D01*
X105664339Y-97949672D01*
X105657887Y-97948300D01*
X105466913Y-97948300D01*
X105460461Y-97949672D01*
X105460456Y-97949672D01*
X105373512Y-97968153D01*
X105280112Y-97988006D01*
X105274082Y-97990691D01*
X105274081Y-97990691D01*
X105111678Y-98062997D01*
X105111676Y-98062998D01*
X105105648Y-98065682D01*
X104951147Y-98177934D01*
X104946726Y-98182844D01*
X104946725Y-98182845D01*
X104848352Y-98292100D01*
X104823360Y-98319856D01*
X104727873Y-98485244D01*
X104668858Y-98666872D01*
X104648896Y-98856800D01*
X104668858Y-99046728D01*
X104727873Y-99228356D01*
X104823360Y-99393744D01*
X104827778Y-99398651D01*
X104827779Y-99398652D01*
X104910228Y-99490221D01*
X104940946Y-99554228D01*
X104932181Y-99624682D01*
X104886718Y-99679213D01*
X104867840Y-99689638D01*
X104750047Y-99742082D01*
X104749495Y-99740842D01*
X104687540Y-99755876D01*
X104620447Y-99732658D01*
X104599900Y-99714335D01*
X104497253Y-99600334D01*
X104342752Y-99488082D01*
X104336724Y-99485398D01*
X104336722Y-99485397D01*
X104174319Y-99413091D01*
X104174318Y-99413091D01*
X104168288Y-99410406D01*
X104056554Y-99386656D01*
X103987944Y-99372072D01*
X103987939Y-99372072D01*
X103981487Y-99370700D01*
X103790513Y-99370700D01*
X103784061Y-99372072D01*
X103784056Y-99372072D01*
X103715446Y-99386656D01*
X103603712Y-99410406D01*
X103597682Y-99413091D01*
X103597681Y-99413091D01*
X103435278Y-99485397D01*
X103435276Y-99485398D01*
X103429248Y-99488082D01*
X103274747Y-99600334D01*
X103270326Y-99605244D01*
X103270325Y-99605245D01*
X103161963Y-99725594D01*
X103146960Y-99742256D01*
X103051473Y-99907644D01*
X102992458Y-100089272D01*
X102991768Y-100095833D01*
X102991768Y-100095835D01*
X102978455Y-100222500D01*
X102972496Y-100279200D01*
X102973186Y-100285765D01*
X102991014Y-100455385D01*
X102992458Y-100469128D01*
X103051473Y-100650756D01*
X103054776Y-100656478D01*
X103054777Y-100656479D01*
X103071590Y-100685600D01*
X103146960Y-100816144D01*
X103151378Y-100821051D01*
X103151379Y-100821052D01*
X103232059Y-100910656D01*
X103274747Y-100958066D01*
X103322584Y-100992822D01*
X103380090Y-101034603D01*
X103423444Y-101090826D01*
X103429519Y-101161562D01*
X103401506Y-101218759D01*
X103286867Y-101351882D01*
X103073200Y-101600000D01*
X103073130Y-101612525D01*
X103072401Y-101743017D01*
X103066236Y-101781249D01*
X103035892Y-101874638D01*
X103035202Y-101881204D01*
X103035201Y-101881208D01*
X103021206Y-102014367D01*
X103015930Y-102064566D01*
X103016620Y-102071131D01*
X103033198Y-102228859D01*
X103035892Y-102254494D01*
X103037932Y-102260772D01*
X103062696Y-102336989D01*
X103068861Y-102376629D01*
X103033210Y-108758150D01*
X103012828Y-108826158D01*
X102958913Y-108872350D01*
X102888584Y-108882061D01*
X102833150Y-108859381D01*
X102788670Y-108827064D01*
X102783327Y-108823182D01*
X102777299Y-108820498D01*
X102777297Y-108820497D01*
X102614894Y-108748191D01*
X102614893Y-108748191D01*
X102608863Y-108745506D01*
X102602402Y-108744133D01*
X102602397Y-108744131D01*
X102521881Y-108727016D01*
X102459407Y-108693288D01*
X102425086Y-108631138D01*
X102422768Y-108616941D01*
X102419859Y-108589265D01*
X102419859Y-108589264D01*
X102419169Y-108582701D01*
X102411417Y-108558841D01*
X102362196Y-108407358D01*
X102360154Y-108401073D01*
X102346379Y-108377213D01*
X102288221Y-108276482D01*
X102264667Y-108235685D01*
X102221088Y-108187285D01*
X102141302Y-108098674D01*
X102141301Y-108098673D01*
X102136880Y-108093763D01*
X102025908Y-108013137D01*
X101987721Y-107985392D01*
X101987720Y-107985391D01*
X101982379Y-107981511D01*
X101976351Y-107978827D01*
X101976349Y-107978826D01*
X101813946Y-107906520D01*
X101813945Y-107906520D01*
X101807915Y-107903835D01*
X101696915Y-107880241D01*
X101627571Y-107865501D01*
X101627566Y-107865501D01*
X101621114Y-107864129D01*
X101430140Y-107864129D01*
X101423688Y-107865501D01*
X101423683Y-107865501D01*
X101354339Y-107880241D01*
X101243339Y-107903835D01*
X101237309Y-107906520D01*
X101237308Y-107906520D01*
X101074905Y-107978826D01*
X101074903Y-107978827D01*
X101068875Y-107981511D01*
X101063536Y-107985390D01*
X101063529Y-107985394D01*
X101043471Y-107999967D01*
X100976603Y-108023825D01*
X100918163Y-108013137D01*
X100770719Y-107947491D01*
X100770718Y-107947491D01*
X100764688Y-107944806D01*
X100671288Y-107924953D01*
X100584344Y-107906472D01*
X100584339Y-107906472D01*
X100577887Y-107905100D01*
X100386913Y-107905100D01*
X100380461Y-107906472D01*
X100380456Y-107906472D01*
X100293512Y-107924953D01*
X100200112Y-107944806D01*
X100194082Y-107947491D01*
X100194081Y-107947491D01*
X100031678Y-108019797D01*
X100031676Y-108019798D01*
X100025648Y-108022482D01*
X100020307Y-108026362D01*
X100020306Y-108026363D01*
X99952694Y-108075486D01*
X99885826Y-108099345D01*
X99816674Y-108083264D01*
X99784997Y-108057860D01*
X99777129Y-108049121D01*
X99671253Y-107931534D01*
X99516752Y-107819282D01*
X99510724Y-107816598D01*
X99510722Y-107816597D01*
X99348319Y-107744291D01*
X99348318Y-107744291D01*
X99342288Y-107741606D01*
X99248887Y-107721753D01*
X99161944Y-107703272D01*
X99161939Y-107703272D01*
X99155487Y-107701900D01*
X98964513Y-107701900D01*
X98958061Y-107703272D01*
X98958056Y-107703272D01*
X98819340Y-107732758D01*
X98777712Y-107741606D01*
X98771676Y-107744293D01*
X98765402Y-107746332D01*
X98764685Y-107744126D01*
X98704859Y-107752143D01*
X98640563Y-107722033D01*
X98630360Y-107711926D01*
X98553653Y-107626734D01*
X98524456Y-107605521D01*
X98481102Y-107549298D01*
X98475027Y-107478562D01*
X98508159Y-107415771D01*
X98547268Y-107388478D01*
X98697922Y-107321403D01*
X98697924Y-107321402D01*
X98703952Y-107318718D01*
X98858453Y-107206466D01*
X98863037Y-107201375D01*
X98981821Y-107069452D01*
X98981822Y-107069451D01*
X98986240Y-107064544D01*
X99081727Y-106899156D01*
X99140742Y-106717528D01*
X99160704Y-106527600D01*
X99140742Y-106337672D01*
X99081727Y-106156044D01*
X99069273Y-106134472D01*
X98989541Y-105996374D01*
X98986240Y-105990656D01*
X98918262Y-105915158D01*
X98862875Y-105853645D01*
X98862874Y-105853644D01*
X98858453Y-105848734D01*
X98703952Y-105736482D01*
X98697924Y-105733798D01*
X98697922Y-105733797D01*
X98535519Y-105661491D01*
X98535518Y-105661491D01*
X98529488Y-105658806D01*
X98407723Y-105632924D01*
X98345250Y-105599196D01*
X98310928Y-105537046D01*
X98315656Y-105466207D01*
X98359858Y-105407741D01*
X98382165Y-105391534D01*
X98401253Y-105377666D01*
X98435939Y-105339143D01*
X98524621Y-105240652D01*
X98524622Y-105240651D01*
X98529040Y-105235744D01*
X98593475Y-105124140D01*
X98621223Y-105076079D01*
X98621224Y-105076078D01*
X98624527Y-105070356D01*
X98683542Y-104888728D01*
X98694224Y-104787100D01*
X98702814Y-104705365D01*
X98703504Y-104698800D01*
X98692335Y-104592536D01*
X98684232Y-104515435D01*
X98684232Y-104515433D01*
X98683542Y-104508872D01*
X98624527Y-104327244D01*
X98569059Y-104231171D01*
X98552321Y-104162176D01*
X98575541Y-104095084D01*
X98604115Y-104066237D01*
X98713622Y-103986675D01*
X98780487Y-103962818D01*
X98838929Y-103973505D01*
X98911798Y-104005948D01*
X98977597Y-104019934D01*
X99092142Y-104044282D01*
X99092147Y-104044282D01*
X99098599Y-104045654D01*
X99289573Y-104045654D01*
X99296025Y-104044282D01*
X99296030Y-104044282D01*
X99410575Y-104019934D01*
X99476374Y-104005948D01*
X99482405Y-104003263D01*
X99644808Y-103930957D01*
X99644810Y-103930956D01*
X99650838Y-103928272D01*
X99668207Y-103915653D01*
X99749605Y-103856513D01*
X99805339Y-103816020D01*
X99857360Y-103758245D01*
X99928707Y-103679006D01*
X99928708Y-103679005D01*
X99933126Y-103674098D01*
X99936425Y-103668385D01*
X99936428Y-103668380D01*
X99968459Y-103612900D01*
X100019842Y-103563907D01*
X100077578Y-103549900D01*
X100196887Y-103549900D01*
X100203339Y-103548528D01*
X100203344Y-103548528D01*
X100290288Y-103530047D01*
X100383688Y-103510194D01*
X100422594Y-103492872D01*
X100552122Y-103435203D01*
X100552124Y-103435202D01*
X100558152Y-103432518D01*
X100712653Y-103320266D01*
X100717075Y-103315355D01*
X100836021Y-103183252D01*
X100836022Y-103183251D01*
X100840440Y-103178344D01*
X100935927Y-103012956D01*
X100994942Y-102831328D01*
X101014904Y-102641400D01*
X101004765Y-102544934D01*
X100995632Y-102458035D01*
X100995632Y-102458033D01*
X100994942Y-102451472D01*
X100935927Y-102269844D01*
X100923276Y-102247931D01*
X100875773Y-102165654D01*
X100840440Y-102104456D01*
X100792351Y-102051047D01*
X100717075Y-101967445D01*
X100717074Y-101967444D01*
X100712653Y-101962534D01*
X100558152Y-101850282D01*
X100552124Y-101847598D01*
X100552122Y-101847597D01*
X100389719Y-101775291D01*
X100389718Y-101775291D01*
X100383688Y-101772606D01*
X100290287Y-101752753D01*
X100203344Y-101734272D01*
X100203339Y-101734272D01*
X100196887Y-101732900D01*
X100005913Y-101732900D01*
X99999461Y-101734272D01*
X99999456Y-101734272D01*
X99912513Y-101752753D01*
X99819112Y-101772606D01*
X99813082Y-101775291D01*
X99813081Y-101775291D01*
X99650678Y-101847597D01*
X99650676Y-101847598D01*
X99644648Y-101850282D01*
X99490147Y-101962534D01*
X99485726Y-101967444D01*
X99485725Y-101967445D01*
X99410450Y-102051047D01*
X99362360Y-102104456D01*
X99359061Y-102110169D01*
X99359058Y-102110174D01*
X99327027Y-102165654D01*
X99275644Y-102214647D01*
X99217908Y-102228654D01*
X99098599Y-102228654D01*
X99092147Y-102230026D01*
X99092142Y-102230026D01*
X99007908Y-102247931D01*
X98911798Y-102268360D01*
X98905768Y-102271045D01*
X98905767Y-102271045D01*
X98743364Y-102343351D01*
X98743362Y-102343352D01*
X98737334Y-102346036D01*
X98626063Y-102426879D01*
X98559199Y-102450736D01*
X98500757Y-102440049D01*
X98427888Y-102407606D01*
X98324702Y-102385673D01*
X98247544Y-102369272D01*
X98247539Y-102369272D01*
X98241087Y-102367900D01*
X98050113Y-102367900D01*
X98043661Y-102369272D01*
X98043656Y-102369272D01*
X97941082Y-102391075D01*
X97870291Y-102385673D01*
X97813658Y-102342856D01*
X97789165Y-102276218D01*
X97788888Y-102266947D01*
X97788932Y-102260772D01*
X97799003Y-100820656D01*
X100500640Y-100820656D01*
X100520602Y-101010584D01*
X100579617Y-101192212D01*
X100675104Y-101357600D01*
X100802891Y-101499522D01*
X100892145Y-101564369D01*
X100941187Y-101600000D01*
X100957392Y-101611774D01*
X100963420Y-101614458D01*
X100963422Y-101614459D01*
X101101972Y-101676145D01*
X101131856Y-101689450D01*
X101214690Y-101707057D01*
X101312200Y-101727784D01*
X101312205Y-101727784D01*
X101318657Y-101729156D01*
X101509631Y-101729156D01*
X101516083Y-101727784D01*
X101516088Y-101727784D01*
X101613598Y-101707057D01*
X101696432Y-101689450D01*
X101726316Y-101676145D01*
X101864866Y-101614459D01*
X101864868Y-101614458D01*
X101870896Y-101611774D01*
X101887102Y-101600000D01*
X101936143Y-101564369D01*
X102025397Y-101499522D01*
X102153184Y-101357600D01*
X102248671Y-101192212D01*
X102307686Y-101010584D01*
X102327648Y-100820656D01*
X102310393Y-100656479D01*
X102308376Y-100637291D01*
X102308376Y-100637289D01*
X102307686Y-100630728D01*
X102248671Y-100449100D01*
X102227201Y-100411912D01*
X102156485Y-100289430D01*
X102153184Y-100283712D01*
X102025397Y-100141790D01*
X101870896Y-100029538D01*
X101864868Y-100026854D01*
X101864866Y-100026853D01*
X101702463Y-99954547D01*
X101702462Y-99954547D01*
X101696432Y-99951862D01*
X101594356Y-99930165D01*
X101516088Y-99913528D01*
X101516083Y-99913528D01*
X101509631Y-99912156D01*
X101318657Y-99912156D01*
X101312205Y-99913528D01*
X101312200Y-99913528D01*
X101233932Y-99930165D01*
X101131856Y-99951862D01*
X101125826Y-99954547D01*
X101125825Y-99954547D01*
X100963422Y-100026853D01*
X100963420Y-100026854D01*
X100957392Y-100029538D01*
X100802891Y-100141790D01*
X100675104Y-100283712D01*
X100671803Y-100289430D01*
X100601088Y-100411912D01*
X100579617Y-100449100D01*
X100520602Y-100630728D01*
X100519912Y-100637289D01*
X100519912Y-100637291D01*
X100517895Y-100656479D01*
X100500640Y-100820656D01*
X97799003Y-100820656D01*
X97823038Y-97383600D01*
X101956496Y-97383600D01*
X101957186Y-97390165D01*
X101970217Y-97514144D01*
X101976458Y-97573528D01*
X102035473Y-97755156D01*
X102130960Y-97920544D01*
X102135378Y-97925451D01*
X102135379Y-97925452D01*
X102202428Y-97999917D01*
X102258747Y-98062466D01*
X102413248Y-98174718D01*
X102419276Y-98177402D01*
X102419278Y-98177403D01*
X102515378Y-98220189D01*
X102587712Y-98252394D01*
X102664755Y-98268770D01*
X102768056Y-98290728D01*
X102768061Y-98290728D01*
X102774513Y-98292100D01*
X102965487Y-98292100D01*
X102971939Y-98290728D01*
X102971944Y-98290728D01*
X103075245Y-98268770D01*
X103152288Y-98252394D01*
X103224622Y-98220189D01*
X103320722Y-98177403D01*
X103320724Y-98177402D01*
X103326752Y-98174718D01*
X103481253Y-98062466D01*
X103537572Y-97999917D01*
X103604621Y-97925452D01*
X103604622Y-97925451D01*
X103609040Y-97920544D01*
X103704527Y-97755156D01*
X103763542Y-97573528D01*
X103769784Y-97514144D01*
X103782814Y-97390165D01*
X103783504Y-97383600D01*
X103763542Y-97193672D01*
X103704527Y-97012044D01*
X103699418Y-97003194D01*
X103612341Y-96852374D01*
X103609040Y-96846656D01*
X103481253Y-96704734D01*
X103326752Y-96592482D01*
X103320724Y-96589798D01*
X103320722Y-96589797D01*
X103158319Y-96517491D01*
X103158318Y-96517491D01*
X103152288Y-96514806D01*
X103058888Y-96494953D01*
X102971944Y-96476472D01*
X102971939Y-96476472D01*
X102965487Y-96475100D01*
X102774513Y-96475100D01*
X102768061Y-96476472D01*
X102768056Y-96476472D01*
X102681113Y-96494953D01*
X102587712Y-96514806D01*
X102581682Y-96517491D01*
X102581681Y-96517491D01*
X102419278Y-96589797D01*
X102419276Y-96589798D01*
X102413248Y-96592482D01*
X102258747Y-96704734D01*
X102130960Y-96846656D01*
X102127659Y-96852374D01*
X102040583Y-97003194D01*
X102035473Y-97012044D01*
X101976458Y-97193672D01*
X101956496Y-97383600D01*
X97823038Y-97383600D01*
X97840487Y-94888305D01*
X97860965Y-94820327D01*
X97869216Y-94809095D01*
X98036828Y-94605566D01*
X98095573Y-94565697D01*
X98166547Y-94563917D01*
X98227217Y-94600791D01*
X98243209Y-94622664D01*
X98270160Y-94669344D01*
X98274578Y-94674251D01*
X98274579Y-94674252D01*
X98381320Y-94792800D01*
X98397947Y-94811266D01*
X98552448Y-94923518D01*
X98558476Y-94926202D01*
X98558478Y-94926203D01*
X98700121Y-94989266D01*
X98726912Y-95001194D01*
X98820312Y-95021047D01*
X98907256Y-95039528D01*
X98907261Y-95039528D01*
X98913713Y-95040900D01*
X99104687Y-95040900D01*
X99111139Y-95039528D01*
X99111144Y-95039528D01*
X99198087Y-95021047D01*
X99291488Y-95001194D01*
X99318279Y-94989266D01*
X99459922Y-94926203D01*
X99459924Y-94926202D01*
X99465952Y-94923518D01*
X99620453Y-94811266D01*
X99637080Y-94792800D01*
X99743821Y-94674252D01*
X99743822Y-94674251D01*
X99748240Y-94669344D01*
X99843727Y-94503956D01*
X99902742Y-94322328D01*
X99908984Y-94262944D01*
X99922014Y-94138965D01*
X99922704Y-94132400D01*
X99920128Y-94107888D01*
X99932901Y-94038049D01*
X99981403Y-93986203D01*
X100044486Y-93968722D01*
X109306368Y-93898733D01*
X109374638Y-93918219D01*
X109421535Y-93971522D01*
X109432630Y-94037899D01*
X109426360Y-94097556D01*
X109424096Y-94119100D01*
X109444058Y-94309028D01*
X109503073Y-94490656D01*
X109598560Y-94656044D01*
X109602978Y-94660951D01*
X109602979Y-94660952D01*
X109721925Y-94793055D01*
X109726347Y-94797966D01*
X109880848Y-94910218D01*
X109886876Y-94912902D01*
X109886878Y-94912903D01*
X110043709Y-94982728D01*
X110055312Y-94987894D01*
X110148713Y-95007747D01*
X110235656Y-95026228D01*
X110235661Y-95026228D01*
X110242113Y-95027600D01*
X110433087Y-95027600D01*
X110439539Y-95026228D01*
X110439544Y-95026228D01*
X110526487Y-95007747D01*
X110619888Y-94987894D01*
X110631491Y-94982728D01*
X110788322Y-94912903D01*
X110788324Y-94912902D01*
X110794352Y-94910218D01*
X110948853Y-94797966D01*
X110953275Y-94793055D01*
X111072221Y-94660952D01*
X111072222Y-94660951D01*
X111076640Y-94656044D01*
X111172127Y-94490656D01*
X111231142Y-94309028D01*
X111251104Y-94119100D01*
X111240934Y-94022340D01*
X111253706Y-93952502D01*
X111302208Y-93900656D01*
X111365292Y-93883174D01*
X116541340Y-93844060D01*
X116588178Y-93855036D01*
X116588830Y-93853283D01*
X116742557Y-93910454D01*
X116742559Y-93910454D01*
X116749167Y-93912912D01*
X116828254Y-93923465D01*
X116911749Y-93934606D01*
X116911753Y-93934606D01*
X116918730Y-93935537D01*
X116925741Y-93934899D01*
X116925745Y-93934899D01*
X117082073Y-93920672D01*
X117082075Y-93920672D01*
X117089092Y-93920033D01*
X117095790Y-93917857D01*
X117095793Y-93917856D01*
X117245089Y-93869346D01*
X117245091Y-93869345D01*
X117251785Y-93867170D01*
X117257833Y-93863564D01*
X117257841Y-93863561D01*
X117270802Y-93855835D01*
X117334366Y-93838068D01*
X118702454Y-93827730D01*
X118702456Y-93827730D01*
X118719600Y-93827600D01*
X119634000Y-93268800D01*
X119634000Y-89357200D01*
X123394096Y-89357200D01*
X123394786Y-89363765D01*
X123412393Y-89531282D01*
X123414058Y-89547128D01*
X123473073Y-89728756D01*
X123568560Y-89894144D01*
X123572978Y-89899051D01*
X123572979Y-89899052D01*
X123679565Y-90017428D01*
X123696347Y-90036066D01*
X123752346Y-90076752D01*
X123845497Y-90144430D01*
X123850848Y-90148318D01*
X123856876Y-90151002D01*
X123856878Y-90151003D01*
X124000394Y-90214900D01*
X124025312Y-90225994D01*
X124118712Y-90245847D01*
X124205656Y-90264328D01*
X124205661Y-90264328D01*
X124212113Y-90265700D01*
X124403087Y-90265700D01*
X124409539Y-90264328D01*
X124409544Y-90264328D01*
X124496488Y-90245847D01*
X124589888Y-90225994D01*
X124614806Y-90214900D01*
X124758322Y-90151003D01*
X124758324Y-90151002D01*
X124764352Y-90148318D01*
X124769704Y-90144430D01*
X124862854Y-90076752D01*
X124918853Y-90036066D01*
X124935635Y-90017428D01*
X125042221Y-89899052D01*
X125042222Y-89899051D01*
X125046640Y-89894144D01*
X125142127Y-89728756D01*
X125201142Y-89547128D01*
X125202808Y-89531282D01*
X125220414Y-89363765D01*
X125221104Y-89357200D01*
X125201142Y-89167272D01*
X125142127Y-88985644D01*
X125046640Y-88820256D01*
X125041484Y-88814529D01*
X124923275Y-88683245D01*
X124923274Y-88683244D01*
X124918853Y-88678334D01*
X124764352Y-88566082D01*
X124758324Y-88563398D01*
X124758322Y-88563397D01*
X124595919Y-88491091D01*
X124595918Y-88491091D01*
X124589888Y-88488406D01*
X124496487Y-88468553D01*
X124409544Y-88450072D01*
X124409539Y-88450072D01*
X124403087Y-88448700D01*
X124212113Y-88448700D01*
X124205661Y-88450072D01*
X124205656Y-88450072D01*
X124118712Y-88468553D01*
X124025312Y-88488406D01*
X124019282Y-88491091D01*
X124019281Y-88491091D01*
X123856878Y-88563397D01*
X123856876Y-88563398D01*
X123850848Y-88566082D01*
X123696347Y-88678334D01*
X123691926Y-88683244D01*
X123691925Y-88683245D01*
X123573717Y-88814529D01*
X123568560Y-88820256D01*
X123473073Y-88985644D01*
X123414058Y-89167272D01*
X123394096Y-89357200D01*
X119634000Y-89357200D01*
X119634000Y-88900000D01*
X118885499Y-88487034D01*
X118174882Y-88094969D01*
X118174881Y-88094969D01*
X118160800Y-88087200D01*
X113603425Y-88104173D01*
X91158969Y-88187765D01*
X91090775Y-88168017D01*
X91044082Y-88114535D01*
X91032500Y-88061766D01*
X91032500Y-84567112D01*
X91052502Y-84498991D01*
X91076230Y-84471678D01*
X91698098Y-83935585D01*
X92268144Y-83444166D01*
X92332798Y-83414837D01*
X92350413Y-83413600D01*
X103593866Y-83413600D01*
X103661987Y-83433602D01*
G37*
G04 #@! TD.AperFunction*
G04 #@! TA.AperFunction,Conductor*
G36*
X139957621Y-87446802D02*
G01*
X140004114Y-87500458D01*
X140015500Y-87552800D01*
X140015500Y-88926401D01*
X139995498Y-88994522D01*
X139941842Y-89041015D01*
X139889501Y-89052401D01*
X138126803Y-89052409D01*
X138125840Y-89052405D01*
X131489680Y-89001747D01*
X131489679Y-89001747D01*
X131471564Y-89001609D01*
X130606800Y-89712800D01*
X130633584Y-94989266D01*
X130638319Y-95922046D01*
X130618663Y-95990268D01*
X130565244Y-96037032D01*
X130495023Y-96047493D01*
X130454063Y-96033432D01*
X130453952Y-96033682D01*
X130451125Y-96032423D01*
X130451122Y-96032422D01*
X130279488Y-95956006D01*
X130182611Y-95935414D01*
X130099144Y-95917672D01*
X130099139Y-95917672D01*
X130092687Y-95916300D01*
X129901713Y-95916300D01*
X129895261Y-95917672D01*
X129895256Y-95917672D01*
X129811789Y-95935414D01*
X129714912Y-95956006D01*
X129540448Y-96033682D01*
X129470082Y-96043116D01*
X129437951Y-96033682D01*
X129421305Y-96026270D01*
X129399723Y-96016661D01*
X129345628Y-95970680D01*
X129324987Y-95899738D01*
X129389437Y-91431190D01*
X129437481Y-88100089D01*
X129458463Y-88032265D01*
X129490232Y-87999377D01*
X130117418Y-87551387D01*
X130189144Y-87527926D01*
X138632448Y-87426809D01*
X138633958Y-87426800D01*
X139889500Y-87426800D01*
X139957621Y-87446802D01*
G37*
G04 #@! TD.AperFunction*
G04 #@! TA.AperFunction,Conductor*
G36*
X136432037Y-89546105D02*
G01*
X136499990Y-89566665D01*
X136546042Y-89620700D01*
X136556312Y-89658929D01*
X136571258Y-89801128D01*
X136630273Y-89982756D01*
X136633576Y-89988478D01*
X136633577Y-89988479D01*
X136653924Y-90023720D01*
X136725760Y-90148144D01*
X136730178Y-90153051D01*
X136730179Y-90153052D01*
X136848870Y-90284872D01*
X136853547Y-90290066D01*
X136875451Y-90305980D01*
X136999311Y-90395970D01*
X137008048Y-90402318D01*
X137014076Y-90405002D01*
X137014078Y-90405003D01*
X137170846Y-90474800D01*
X137182512Y-90479994D01*
X137264424Y-90497405D01*
X137362856Y-90518328D01*
X137362861Y-90518328D01*
X137369313Y-90519700D01*
X137560287Y-90519700D01*
X137566739Y-90518328D01*
X137566744Y-90518328D01*
X137665176Y-90497405D01*
X137747088Y-90479994D01*
X137758754Y-90474800D01*
X137915522Y-90405003D01*
X137915524Y-90405002D01*
X137921552Y-90402318D01*
X137930290Y-90395970D01*
X138054149Y-90305980D01*
X138076053Y-90290066D01*
X138080730Y-90284872D01*
X138199421Y-90153052D01*
X138199422Y-90153051D01*
X138203840Y-90148144D01*
X138275676Y-90023720D01*
X138296023Y-89988479D01*
X138296024Y-89988478D01*
X138299327Y-89982756D01*
X138309123Y-89952607D01*
X138349194Y-89894004D01*
X138414591Y-89866366D01*
X138484548Y-89878472D01*
X138518050Y-89902450D01*
X138800023Y-90184423D01*
X138834049Y-90246735D01*
X138836922Y-90272237D01*
X138926582Y-99112713D01*
X138927976Y-99250169D01*
X138908665Y-99318489D01*
X138855484Y-99365524D01*
X138785316Y-99376340D01*
X138720440Y-99347503D01*
X138690730Y-99310600D01*
X138667359Y-99266645D01*
X138664466Y-99261204D01*
X138554813Y-99126756D01*
X138543360Y-99112713D01*
X138543357Y-99112710D01*
X138539465Y-99107938D01*
X138528621Y-99098967D01*
X138391825Y-98985799D01*
X138391821Y-98985797D01*
X138387075Y-98981870D01*
X138213101Y-98887802D01*
X138024168Y-98829318D01*
X138018043Y-98828674D01*
X138018042Y-98828674D01*
X137833604Y-98809289D01*
X137833602Y-98809289D01*
X137827475Y-98808645D01*
X137744976Y-98816153D01*
X137636651Y-98826011D01*
X137636648Y-98826012D01*
X137630512Y-98826570D01*
X137624606Y-98828308D01*
X137624602Y-98828309D01*
X137527798Y-98856800D01*
X137440781Y-98882410D01*
X137435323Y-98885263D01*
X137435319Y-98885265D01*
X137344547Y-98932720D01*
X137265510Y-98974040D01*
X137111375Y-99097968D01*
X136984246Y-99249474D01*
X136981279Y-99254872D01*
X136981275Y-99254877D01*
X136930354Y-99347503D01*
X136888967Y-99422787D01*
X136887106Y-99428654D01*
X136887105Y-99428656D01*
X136831027Y-99605436D01*
X136829165Y-99611306D01*
X136807119Y-99807851D01*
X136807635Y-99813995D01*
X136819538Y-99955755D01*
X136805306Y-100025311D01*
X136755729Y-100076130D01*
X136680810Y-100091608D01*
X136557475Y-100078645D01*
X136474976Y-100086153D01*
X136366651Y-100096011D01*
X136366648Y-100096012D01*
X136360512Y-100096570D01*
X136354606Y-100098308D01*
X136354602Y-100098309D01*
X136249476Y-100129249D01*
X136170781Y-100152410D01*
X136165323Y-100155263D01*
X136165319Y-100155265D01*
X136090179Y-100194548D01*
X135995510Y-100244040D01*
X135841375Y-100367968D01*
X135714246Y-100519474D01*
X135711279Y-100524872D01*
X135711275Y-100524877D01*
X135667065Y-100605296D01*
X135618967Y-100692787D01*
X135617106Y-100698654D01*
X135617105Y-100698656D01*
X135587893Y-100790744D01*
X135559165Y-100881306D01*
X135541761Y-101036468D01*
X135538035Y-101069689D01*
X135537119Y-101077851D01*
X135537635Y-101083995D01*
X135547977Y-101207155D01*
X135553668Y-101274934D01*
X135555674Y-101281928D01*
X135594880Y-101418656D01*
X135608183Y-101465050D01*
X135611002Y-101470535D01*
X135692414Y-101628944D01*
X135698587Y-101640956D01*
X135702416Y-101645787D01*
X135704239Y-101648088D01*
X135704814Y-101649509D01*
X135705753Y-101650966D01*
X135705476Y-101651144D01*
X135730874Y-101713898D01*
X135717701Y-101783662D01*
X135714246Y-101789474D01*
X135618967Y-101962787D01*
X135617106Y-101968654D01*
X135617105Y-101968656D01*
X135593880Y-102041871D01*
X135559165Y-102151306D01*
X135537119Y-102347851D01*
X135537635Y-102353995D01*
X135548789Y-102486826D01*
X135553668Y-102544934D01*
X135565591Y-102586513D01*
X135601174Y-102710606D01*
X135608183Y-102735050D01*
X135618381Y-102754893D01*
X135682509Y-102879671D01*
X135698587Y-102910956D01*
X135702416Y-102915787D01*
X135704239Y-102918088D01*
X135704814Y-102919509D01*
X135705753Y-102920966D01*
X135705476Y-102921144D01*
X135730874Y-102983898D01*
X135717701Y-103053662D01*
X135714246Y-103059474D01*
X135618967Y-103232787D01*
X135617106Y-103238654D01*
X135617105Y-103238656D01*
X135563080Y-103408965D01*
X135559165Y-103421306D01*
X135537119Y-103617851D01*
X135537635Y-103623995D01*
X135548789Y-103756826D01*
X135553668Y-103814934D01*
X135555367Y-103820858D01*
X135605583Y-103995982D01*
X135608183Y-104005050D01*
X135698587Y-104180956D01*
X135702416Y-104185787D01*
X135704239Y-104188088D01*
X135704814Y-104189509D01*
X135705753Y-104190966D01*
X135705476Y-104191144D01*
X135730874Y-104253898D01*
X135717701Y-104323662D01*
X135714246Y-104329474D01*
X135618967Y-104502787D01*
X135617106Y-104508654D01*
X135617105Y-104508656D01*
X135584055Y-104612844D01*
X135559165Y-104691306D01*
X135537119Y-104887851D01*
X135537635Y-104893995D01*
X135544205Y-104972233D01*
X135553668Y-105084934D01*
X135575738Y-105161900D01*
X135598398Y-105240925D01*
X135608183Y-105275050D01*
X135611002Y-105280535D01*
X135688961Y-105432225D01*
X135698587Y-105450956D01*
X135821435Y-105605953D01*
X135826128Y-105609947D01*
X135826129Y-105609948D01*
X135956451Y-105720860D01*
X135972050Y-105734136D01*
X136144694Y-105830624D01*
X136332792Y-105891740D01*
X136529177Y-105915158D01*
X136535312Y-105914686D01*
X136535314Y-105914686D01*
X136720230Y-105900457D01*
X136720234Y-105900456D01*
X136726372Y-105899984D01*
X136916863Y-105846798D01*
X136922367Y-105844018D01*
X136922369Y-105844017D01*
X137087893Y-105760405D01*
X137087895Y-105760404D01*
X137093396Y-105757625D01*
X137098250Y-105753833D01*
X137098259Y-105753827D01*
X137106948Y-105747038D01*
X137172942Y-105720860D01*
X137245992Y-105736339D01*
X137414694Y-105830624D01*
X137602792Y-105891740D01*
X137799177Y-105915158D01*
X137805312Y-105914686D01*
X137805314Y-105914686D01*
X137990230Y-105900457D01*
X137990234Y-105900456D01*
X137996372Y-105899984D01*
X138186863Y-105846798D01*
X138192367Y-105844018D01*
X138192369Y-105844017D01*
X138357895Y-105760404D01*
X138357897Y-105760403D01*
X138363396Y-105757625D01*
X138519247Y-105635861D01*
X138648478Y-105486145D01*
X138717129Y-105365298D01*
X138743123Y-105319542D01*
X138743125Y-105319537D01*
X138746169Y-105314179D01*
X138748116Y-105308327D01*
X138748808Y-105306772D01*
X138794788Y-105252676D01*
X138862716Y-105232027D01*
X138931024Y-105251379D01*
X138978025Y-105304590D01*
X138989909Y-105356741D01*
X139044116Y-110701628D01*
X139043432Y-110716065D01*
X139041186Y-110737429D01*
X139041186Y-110737435D01*
X139040496Y-110744000D01*
X139041186Y-110750565D01*
X139041186Y-110750566D01*
X139044355Y-110780719D01*
X139045039Y-110792611D01*
X139089863Y-115212263D01*
X139070552Y-115280583D01*
X139052964Y-115302636D01*
X138112110Y-116243490D01*
X138049798Y-116277516D01*
X138021080Y-116280380D01*
X134772400Y-116230400D01*
X134720077Y-116280380D01*
X134668222Y-116329913D01*
X134632439Y-116353908D01*
X134524878Y-116401797D01*
X134524876Y-116401798D01*
X134518848Y-116404482D01*
X134364347Y-116516734D01*
X134359926Y-116521644D01*
X134359925Y-116521645D01*
X134331092Y-116553668D01*
X134236560Y-116658656D01*
X134141073Y-116824044D01*
X134140216Y-116823549D01*
X134117126Y-116856333D01*
X133513792Y-117432652D01*
X131368800Y-119481600D01*
X131403782Y-120169574D01*
X131518263Y-122421043D01*
X131501746Y-122490092D01*
X131479323Y-122518682D01*
X130607623Y-123348874D01*
X130490743Y-123460188D01*
X130427619Y-123492684D01*
X130404213Y-123494946D01*
X123867859Y-123513947D01*
X123799681Y-123494144D01*
X123758374Y-123450948D01*
X123740031Y-123419178D01*
X123696140Y-123343156D01*
X123568353Y-123201234D01*
X123413852Y-123088982D01*
X123407824Y-123086298D01*
X123407822Y-123086297D01*
X123245419Y-123013991D01*
X123245418Y-123013991D01*
X123239388Y-123011306D01*
X123145988Y-122991453D01*
X123059044Y-122972972D01*
X123059039Y-122972972D01*
X123052587Y-122971600D01*
X122861613Y-122971600D01*
X122855161Y-122972972D01*
X122855156Y-122972972D01*
X122768212Y-122991453D01*
X122674812Y-123011306D01*
X122668782Y-123013991D01*
X122668781Y-123013991D01*
X122506378Y-123086297D01*
X122506376Y-123086298D01*
X122500348Y-123088982D01*
X122345847Y-123201234D01*
X122218060Y-123343156D01*
X122157671Y-123447752D01*
X122152765Y-123456250D01*
X122101382Y-123505243D01*
X122044012Y-123519248D01*
X115132892Y-123539339D01*
X113029507Y-123545454D01*
X112961330Y-123525651D01*
X112942627Y-123511059D01*
X112104285Y-122719291D01*
X112068495Y-122657976D01*
X112064800Y-122627687D01*
X112064800Y-120700800D01*
X112624496Y-120700800D01*
X112625186Y-120707365D01*
X112638217Y-120831344D01*
X112644458Y-120890728D01*
X112703473Y-121072356D01*
X112798960Y-121237744D01*
X112839564Y-121282839D01*
X112859608Y-121305100D01*
X112890325Y-121369108D01*
X112881560Y-121439561D01*
X112859606Y-121473721D01*
X112849760Y-121484656D01*
X112754273Y-121650044D01*
X112695258Y-121831672D01*
X112675296Y-122021600D01*
X112675986Y-122028165D01*
X112694473Y-122204056D01*
X112695258Y-122211528D01*
X112754273Y-122393156D01*
X112757576Y-122398878D01*
X112757577Y-122398879D01*
X112791486Y-122457610D01*
X112849760Y-122558544D01*
X112854178Y-122563451D01*
X112854179Y-122563452D01*
X112936346Y-122654708D01*
X112977547Y-122700466D01*
X113132048Y-122812718D01*
X113138076Y-122815402D01*
X113138078Y-122815403D01*
X113300481Y-122887709D01*
X113306512Y-122890394D01*
X113383014Y-122906655D01*
X113486856Y-122928728D01*
X113486861Y-122928728D01*
X113493313Y-122930100D01*
X113684287Y-122930100D01*
X113690739Y-122928728D01*
X113690744Y-122928728D01*
X113794586Y-122906655D01*
X113871088Y-122890394D01*
X113877119Y-122887709D01*
X114039522Y-122815403D01*
X114039524Y-122815402D01*
X114045552Y-122812718D01*
X114200053Y-122700466D01*
X114241254Y-122654708D01*
X114323421Y-122563452D01*
X114323422Y-122563451D01*
X114327840Y-122558544D01*
X114386114Y-122457610D01*
X114420023Y-122398879D01*
X114420024Y-122398878D01*
X114423327Y-122393156D01*
X114482342Y-122211528D01*
X114483128Y-122204056D01*
X114501614Y-122028165D01*
X114502304Y-122021600D01*
X114482342Y-121831672D01*
X114423327Y-121650044D01*
X114327840Y-121484656D01*
X114267191Y-121417299D01*
X114236475Y-121353292D01*
X114245240Y-121282839D01*
X114267194Y-121248679D01*
X114272621Y-121242652D01*
X114272622Y-121242651D01*
X114277040Y-121237744D01*
X114372527Y-121072356D01*
X114431542Y-120890728D01*
X114437784Y-120831344D01*
X114450814Y-120707365D01*
X114451504Y-120700800D01*
X114431542Y-120510872D01*
X114372527Y-120329244D01*
X114277040Y-120163856D01*
X114223571Y-120104472D01*
X114153675Y-120026845D01*
X114153674Y-120026844D01*
X114149253Y-120021934D01*
X113994752Y-119909682D01*
X113988724Y-119906998D01*
X113988722Y-119906997D01*
X113826319Y-119834691D01*
X113826318Y-119834691D01*
X113820288Y-119832006D01*
X113726887Y-119812153D01*
X113639944Y-119793672D01*
X113639939Y-119793672D01*
X113633487Y-119792300D01*
X113442513Y-119792300D01*
X113436061Y-119793672D01*
X113436056Y-119793672D01*
X113349113Y-119812153D01*
X113255712Y-119832006D01*
X113249682Y-119834691D01*
X113249681Y-119834691D01*
X113087278Y-119906997D01*
X113087276Y-119906998D01*
X113081248Y-119909682D01*
X112926747Y-120021934D01*
X112922326Y-120026844D01*
X112922325Y-120026845D01*
X112852430Y-120104472D01*
X112798960Y-120163856D01*
X112703473Y-120329244D01*
X112644458Y-120510872D01*
X112624496Y-120700800D01*
X112064800Y-120700800D01*
X112064800Y-118059200D01*
X123952896Y-118059200D01*
X123972858Y-118249128D01*
X124031873Y-118430756D01*
X124127360Y-118596144D01*
X124255147Y-118738066D01*
X124409648Y-118850318D01*
X124415676Y-118853002D01*
X124415678Y-118853003D01*
X124578081Y-118925309D01*
X124584112Y-118927994D01*
X124661682Y-118944482D01*
X124764456Y-118966328D01*
X124764461Y-118966328D01*
X124770913Y-118967700D01*
X124961887Y-118967700D01*
X124968339Y-118966328D01*
X124968344Y-118966328D01*
X125071118Y-118944482D01*
X125148688Y-118927994D01*
X125154719Y-118925309D01*
X125317122Y-118853003D01*
X125317124Y-118853002D01*
X125323152Y-118850318D01*
X125477653Y-118738066D01*
X125605440Y-118596144D01*
X125700927Y-118430756D01*
X125759942Y-118249128D01*
X125779904Y-118059200D01*
X125759942Y-117869272D01*
X125700927Y-117687644D01*
X125695381Y-117678037D01*
X125608741Y-117527974D01*
X125605440Y-117522256D01*
X125477653Y-117380334D01*
X125323152Y-117268082D01*
X125317124Y-117265398D01*
X125317122Y-117265397D01*
X125154719Y-117193091D01*
X125154718Y-117193091D01*
X125148688Y-117190406D01*
X125055288Y-117170553D01*
X124968344Y-117152072D01*
X124968339Y-117152072D01*
X124961887Y-117150700D01*
X124770913Y-117150700D01*
X124764461Y-117152072D01*
X124764456Y-117152072D01*
X124677512Y-117170553D01*
X124584112Y-117190406D01*
X124578082Y-117193091D01*
X124578081Y-117193091D01*
X124415678Y-117265397D01*
X124415676Y-117265398D01*
X124409648Y-117268082D01*
X124255147Y-117380334D01*
X124127360Y-117522256D01*
X124124059Y-117527974D01*
X124037420Y-117678037D01*
X124031873Y-117687644D01*
X123972858Y-117869272D01*
X123952896Y-118059200D01*
X112064800Y-118059200D01*
X112064800Y-116890800D01*
X129286896Y-116890800D01*
X129306858Y-117080728D01*
X129365873Y-117262356D01*
X129369176Y-117268078D01*
X129369177Y-117268079D01*
X129403086Y-117326810D01*
X129461360Y-117427744D01*
X129589147Y-117569666D01*
X129743648Y-117681918D01*
X129749676Y-117684602D01*
X129749678Y-117684603D01*
X129770625Y-117693929D01*
X129918112Y-117759594D01*
X130011512Y-117779447D01*
X130098456Y-117797928D01*
X130098461Y-117797928D01*
X130104913Y-117799300D01*
X130295887Y-117799300D01*
X130302339Y-117797928D01*
X130302344Y-117797928D01*
X130389288Y-117779447D01*
X130482688Y-117759594D01*
X130630175Y-117693929D01*
X130651122Y-117684603D01*
X130651124Y-117684602D01*
X130657152Y-117681918D01*
X130811653Y-117569666D01*
X130939440Y-117427744D01*
X130997714Y-117326810D01*
X131031623Y-117268079D01*
X131031624Y-117268078D01*
X131034927Y-117262356D01*
X131093942Y-117080728D01*
X131113904Y-116890800D01*
X131100657Y-116764759D01*
X131094632Y-116707435D01*
X131094632Y-116707433D01*
X131093942Y-116700872D01*
X131034927Y-116519244D01*
X130939440Y-116353856D01*
X130842649Y-116246358D01*
X130816075Y-116216845D01*
X130816074Y-116216844D01*
X130811653Y-116211934D01*
X130657152Y-116099682D01*
X130651124Y-116096998D01*
X130651122Y-116096997D01*
X130488719Y-116024691D01*
X130488718Y-116024691D01*
X130482688Y-116022006D01*
X130389287Y-116002153D01*
X130302344Y-115983672D01*
X130302339Y-115983672D01*
X130295887Y-115982300D01*
X130104913Y-115982300D01*
X130098461Y-115983672D01*
X130098456Y-115983672D01*
X130011513Y-116002153D01*
X129918112Y-116022006D01*
X129912082Y-116024691D01*
X129912081Y-116024691D01*
X129749678Y-116096997D01*
X129749676Y-116096998D01*
X129743648Y-116099682D01*
X129589147Y-116211934D01*
X129584726Y-116216844D01*
X129584725Y-116216845D01*
X129558152Y-116246358D01*
X129461360Y-116353856D01*
X129365873Y-116519244D01*
X129306858Y-116700872D01*
X129306168Y-116707433D01*
X129306168Y-116707435D01*
X129300143Y-116764759D01*
X129286896Y-116890800D01*
X112064800Y-116890800D01*
X112064800Y-114922900D01*
X113229329Y-114922900D01*
X113230019Y-114929465D01*
X113244213Y-115064509D01*
X113249291Y-115112828D01*
X113308306Y-115294456D01*
X113403793Y-115459844D01*
X113408211Y-115464751D01*
X113408212Y-115464752D01*
X113425864Y-115484356D01*
X113531580Y-115601766D01*
X113686081Y-115714018D01*
X113692109Y-115716702D01*
X113692111Y-115716703D01*
X113854514Y-115789009D01*
X113860545Y-115791694D01*
X113953946Y-115811547D01*
X114040889Y-115830028D01*
X114040894Y-115830028D01*
X114047346Y-115831400D01*
X114238320Y-115831400D01*
X114244772Y-115830028D01*
X114244777Y-115830028D01*
X114331720Y-115811547D01*
X114425121Y-115791694D01*
X114431152Y-115789009D01*
X114593555Y-115716703D01*
X114593557Y-115716702D01*
X114599585Y-115714018D01*
X114754086Y-115601766D01*
X114859802Y-115484356D01*
X114877454Y-115464752D01*
X114877455Y-115464751D01*
X114881873Y-115459844D01*
X114977360Y-115294456D01*
X115036375Y-115112828D01*
X115036378Y-115112800D01*
X131420496Y-115112800D01*
X131421186Y-115119365D01*
X131439589Y-115294456D01*
X131440458Y-115302728D01*
X131499473Y-115484356D01*
X131594960Y-115649744D01*
X131599378Y-115654651D01*
X131599379Y-115654652D01*
X131655250Y-115716703D01*
X131722747Y-115791666D01*
X131877248Y-115903918D01*
X131883276Y-115906602D01*
X131883278Y-115906603D01*
X132045681Y-115978909D01*
X132051712Y-115981594D01*
X132145112Y-116001447D01*
X132232056Y-116019928D01*
X132232061Y-116019928D01*
X132238513Y-116021300D01*
X132429487Y-116021300D01*
X132435939Y-116019928D01*
X132435944Y-116019928D01*
X132522888Y-116001447D01*
X132616288Y-115981594D01*
X132622319Y-115978909D01*
X132784722Y-115906603D01*
X132784724Y-115906602D01*
X132790752Y-115903918D01*
X132945253Y-115791666D01*
X133012750Y-115716703D01*
X133068621Y-115654652D01*
X133068622Y-115654651D01*
X133073040Y-115649744D01*
X133168527Y-115484356D01*
X133227542Y-115302728D01*
X133228412Y-115294456D01*
X133246814Y-115119365D01*
X133247504Y-115112800D01*
X133242711Y-115067194D01*
X133228232Y-114929435D01*
X133228232Y-114929433D01*
X133227542Y-114922872D01*
X133168527Y-114741244D01*
X133073040Y-114575856D01*
X133056629Y-114557629D01*
X132949675Y-114438845D01*
X132949674Y-114438844D01*
X132945253Y-114433934D01*
X132790752Y-114321682D01*
X132784724Y-114318998D01*
X132784722Y-114318997D01*
X132622319Y-114246691D01*
X132622318Y-114246691D01*
X132616288Y-114244006D01*
X132503721Y-114220079D01*
X132435944Y-114205672D01*
X132435939Y-114205672D01*
X132429487Y-114204300D01*
X132238513Y-114204300D01*
X132232061Y-114205672D01*
X132232056Y-114205672D01*
X132164279Y-114220079D01*
X132051712Y-114244006D01*
X132045682Y-114246691D01*
X132045681Y-114246691D01*
X131883278Y-114318997D01*
X131883276Y-114318998D01*
X131877248Y-114321682D01*
X131722747Y-114433934D01*
X131718326Y-114438844D01*
X131718325Y-114438845D01*
X131611372Y-114557629D01*
X131594960Y-114575856D01*
X131499473Y-114741244D01*
X131440458Y-114922872D01*
X131439768Y-114929433D01*
X131439768Y-114929435D01*
X131425289Y-115067194D01*
X131420496Y-115112800D01*
X115036378Y-115112800D01*
X115041454Y-115064509D01*
X115055647Y-114929465D01*
X115056337Y-114922900D01*
X115051025Y-114872355D01*
X115037065Y-114739535D01*
X115037065Y-114739533D01*
X115036375Y-114732972D01*
X114977360Y-114551344D01*
X114881873Y-114385956D01*
X114824001Y-114321682D01*
X114758508Y-114248945D01*
X114758507Y-114248944D01*
X114754086Y-114244034D01*
X114599585Y-114131782D01*
X114593557Y-114129098D01*
X114593555Y-114129097D01*
X114431152Y-114056791D01*
X114431151Y-114056791D01*
X114425121Y-114054106D01*
X114324546Y-114032728D01*
X114244777Y-114015772D01*
X114244772Y-114015772D01*
X114238320Y-114014400D01*
X114047346Y-114014400D01*
X114040894Y-114015772D01*
X114040889Y-114015772D01*
X113961120Y-114032728D01*
X113860545Y-114054106D01*
X113854515Y-114056791D01*
X113854514Y-114056791D01*
X113692111Y-114129097D01*
X113692109Y-114129098D01*
X113686081Y-114131782D01*
X113531580Y-114244034D01*
X113527159Y-114248944D01*
X113527158Y-114248945D01*
X113461666Y-114321682D01*
X113403793Y-114385956D01*
X113308306Y-114551344D01*
X113249291Y-114732972D01*
X113248601Y-114739533D01*
X113248601Y-114739535D01*
X113234641Y-114872355D01*
X113229329Y-114922900D01*
X112064800Y-114922900D01*
X112064800Y-113441684D01*
X112084802Y-113373563D01*
X112116739Y-113339748D01*
X112155517Y-113311574D01*
X112168053Y-113302466D01*
X112176949Y-113292586D01*
X112291421Y-113165452D01*
X112291422Y-113165451D01*
X112295840Y-113160544D01*
X112391327Y-112995156D01*
X112450342Y-112813528D01*
X112470304Y-112623600D01*
X112455681Y-112484472D01*
X112451032Y-112440235D01*
X112451032Y-112440233D01*
X112450342Y-112433672D01*
X112391327Y-112252044D01*
X112369999Y-112215102D01*
X112328471Y-112143174D01*
X112295840Y-112086656D01*
X112270849Y-112058900D01*
X112172475Y-111949645D01*
X112172474Y-111949644D01*
X112168053Y-111944734D01*
X112120571Y-111910236D01*
X112077217Y-111854013D01*
X112071142Y-111783277D01*
X112104274Y-111720485D01*
X112166094Y-111685574D01*
X112194632Y-111682300D01*
X113428782Y-111682300D01*
X113496903Y-111702302D01*
X113543396Y-111755958D01*
X113553500Y-111826232D01*
X113524006Y-111890812D01*
X113502843Y-111910236D01*
X113403747Y-111982234D01*
X113399326Y-111987144D01*
X113399325Y-111987145D01*
X113304577Y-112092374D01*
X113275960Y-112124156D01*
X113180473Y-112289544D01*
X113121458Y-112471172D01*
X113120768Y-112477733D01*
X113120768Y-112477735D01*
X113106127Y-112617035D01*
X113101496Y-112661100D01*
X113102186Y-112667665D01*
X113117517Y-112813528D01*
X113121458Y-112851028D01*
X113180473Y-113032656D01*
X113275960Y-113198044D01*
X113280378Y-113202951D01*
X113280379Y-113202952D01*
X113334044Y-113262553D01*
X113403747Y-113339966D01*
X113558248Y-113452218D01*
X113564276Y-113454902D01*
X113564278Y-113454903D01*
X113709443Y-113519534D01*
X113732712Y-113529894D01*
X113826113Y-113549747D01*
X113913056Y-113568228D01*
X113913061Y-113568228D01*
X113919513Y-113569600D01*
X114110487Y-113569600D01*
X114116939Y-113568228D01*
X114116944Y-113568228D01*
X114203887Y-113549747D01*
X114297288Y-113529894D01*
X114320557Y-113519534D01*
X114465722Y-113454903D01*
X114465724Y-113454902D01*
X114471752Y-113452218D01*
X114626253Y-113339966D01*
X114695956Y-113262553D01*
X114749621Y-113202952D01*
X114749622Y-113202951D01*
X114754040Y-113198044D01*
X114849527Y-113032656D01*
X114908542Y-112851028D01*
X114912484Y-112813528D01*
X114927814Y-112667665D01*
X114928504Y-112661100D01*
X114923873Y-112617035D01*
X114909232Y-112477735D01*
X114909232Y-112477733D01*
X114908542Y-112471172D01*
X114849527Y-112289544D01*
X114754040Y-112124156D01*
X114725424Y-112092374D01*
X114630675Y-111987145D01*
X114630674Y-111987144D01*
X114626253Y-111982234D01*
X114527157Y-111910236D01*
X114483803Y-111854013D01*
X114477728Y-111783277D01*
X114510860Y-111720486D01*
X114572680Y-111685574D01*
X114601218Y-111682300D01*
X119987910Y-111682300D01*
X120056031Y-111702302D01*
X120102524Y-111755958D01*
X120112628Y-111826232D01*
X120107743Y-111847236D01*
X120049927Y-112025174D01*
X120049237Y-112031735D01*
X120049237Y-112031737D01*
X120039524Y-112124156D01*
X120029965Y-112215102D01*
X120030655Y-112221667D01*
X120039995Y-112310528D01*
X120049927Y-112405030D01*
X120108942Y-112586658D01*
X120112245Y-112592380D01*
X120112246Y-112592381D01*
X120134061Y-112630165D01*
X120204429Y-112752046D01*
X120208847Y-112756953D01*
X120208848Y-112756954D01*
X120265440Y-112819806D01*
X120332216Y-112893968D01*
X120486717Y-113006220D01*
X120492745Y-113008904D01*
X120492747Y-113008905D01*
X120655150Y-113081211D01*
X120661181Y-113083896D01*
X120753194Y-113103454D01*
X120841525Y-113122230D01*
X120841530Y-113122230D01*
X120847982Y-113123602D01*
X121038956Y-113123602D01*
X121045408Y-113122230D01*
X121045413Y-113122230D01*
X121133744Y-113103454D01*
X121225757Y-113083896D01*
X121233749Y-113080338D01*
X121394186Y-113008907D01*
X121400221Y-113006220D01*
X121405568Y-113002335D01*
X121408213Y-113000808D01*
X121477208Y-112984069D01*
X121545277Y-113007990D01*
X121601718Y-113048997D01*
X121615648Y-113059118D01*
X121621676Y-113061802D01*
X121621678Y-113061803D01*
X121663309Y-113080338D01*
X121717405Y-113126318D01*
X121738054Y-113194245D01*
X121718702Y-113262553D01*
X121665491Y-113309555D01*
X121638258Y-113318691D01*
X121593376Y-113328231D01*
X121593367Y-113328234D01*
X121586912Y-113329606D01*
X121580882Y-113332291D01*
X121580881Y-113332291D01*
X121418478Y-113404597D01*
X121418476Y-113404598D01*
X121412448Y-113407282D01*
X121257947Y-113519534D01*
X121253526Y-113524444D01*
X121253525Y-113524445D01*
X121246633Y-113532100D01*
X121130160Y-113661456D01*
X121034673Y-113826844D01*
X120975658Y-114008472D01*
X120974968Y-114015033D01*
X120974968Y-114015035D01*
X120962980Y-114129097D01*
X120955696Y-114198400D01*
X120956386Y-114204965D01*
X120960772Y-114246691D01*
X120975658Y-114388328D01*
X121034673Y-114569956D01*
X121130160Y-114735344D01*
X121257947Y-114877266D01*
X121412448Y-114989518D01*
X121418476Y-114992202D01*
X121418478Y-114992203D01*
X121449485Y-115006008D01*
X121586912Y-115067194D01*
X121664491Y-115083684D01*
X121767256Y-115105528D01*
X121767261Y-115105528D01*
X121773713Y-115106900D01*
X121964687Y-115106900D01*
X121971139Y-115105528D01*
X121971144Y-115105528D01*
X122073909Y-115083684D01*
X122151488Y-115067194D01*
X122288915Y-115006008D01*
X122319922Y-114992203D01*
X122319924Y-114992202D01*
X122325952Y-114989518D01*
X122480453Y-114877266D01*
X122608240Y-114735344D01*
X122703727Y-114569956D01*
X122762742Y-114388328D01*
X122777629Y-114246691D01*
X122782014Y-114204965D01*
X122782704Y-114198400D01*
X122775420Y-114129097D01*
X122763432Y-114015035D01*
X122763432Y-114015033D01*
X122762742Y-114008472D01*
X122708911Y-113842800D01*
X127762896Y-113842800D01*
X127763586Y-113849365D01*
X127780932Y-114014400D01*
X127782858Y-114032728D01*
X127841873Y-114214356D01*
X127937360Y-114379744D01*
X127941778Y-114384651D01*
X127941779Y-114384652D01*
X127986153Y-114433934D01*
X128065147Y-114521666D01*
X128219648Y-114633918D01*
X128225676Y-114636602D01*
X128225678Y-114636603D01*
X128388081Y-114708909D01*
X128394112Y-114711594D01*
X128487512Y-114731447D01*
X128574456Y-114749928D01*
X128574461Y-114749928D01*
X128580913Y-114751300D01*
X128771887Y-114751300D01*
X128778339Y-114749928D01*
X128778344Y-114749928D01*
X128865288Y-114731447D01*
X128958688Y-114711594D01*
X128964719Y-114708909D01*
X129127122Y-114636603D01*
X129127124Y-114636602D01*
X129133152Y-114633918D01*
X129287653Y-114521666D01*
X129366647Y-114433934D01*
X129411021Y-114384652D01*
X129411022Y-114384651D01*
X129415440Y-114379744D01*
X129510927Y-114214356D01*
X129569942Y-114032728D01*
X129571869Y-114014400D01*
X129589214Y-113849365D01*
X129589904Y-113842800D01*
X129569942Y-113652872D01*
X129510927Y-113471244D01*
X129505381Y-113461637D01*
X129454531Y-113373563D01*
X129415440Y-113305856D01*
X129298968Y-113176500D01*
X129292075Y-113168845D01*
X129292074Y-113168844D01*
X129287653Y-113163934D01*
X129173795Y-113081211D01*
X129138494Y-113055563D01*
X129138493Y-113055562D01*
X129133152Y-113051682D01*
X129127124Y-113048998D01*
X129127122Y-113048997D01*
X128964719Y-112976691D01*
X128964718Y-112976691D01*
X128958688Y-112974006D01*
X128865287Y-112954153D01*
X128778344Y-112935672D01*
X128778339Y-112935672D01*
X128771887Y-112934300D01*
X128580913Y-112934300D01*
X128574461Y-112935672D01*
X128574456Y-112935672D01*
X128487513Y-112954153D01*
X128394112Y-112974006D01*
X128388082Y-112976691D01*
X128388081Y-112976691D01*
X128225678Y-113048997D01*
X128225676Y-113048998D01*
X128219648Y-113051682D01*
X128214307Y-113055562D01*
X128214306Y-113055563D01*
X128179005Y-113081211D01*
X128065147Y-113163934D01*
X128060726Y-113168844D01*
X128060725Y-113168845D01*
X128053833Y-113176500D01*
X127937360Y-113305856D01*
X127898269Y-113373563D01*
X127847420Y-113461637D01*
X127841873Y-113471244D01*
X127782858Y-113652872D01*
X127762896Y-113842800D01*
X122708911Y-113842800D01*
X122703727Y-113826844D01*
X122608240Y-113661456D01*
X122586386Y-113637184D01*
X122555668Y-113573178D01*
X122564431Y-113502724D01*
X122609894Y-113448193D01*
X122677621Y-113426897D01*
X122746110Y-113445598D01*
X122754082Y-113450937D01*
X122774150Y-113465518D01*
X122780178Y-113468202D01*
X122780180Y-113468203D01*
X122921823Y-113531266D01*
X122948614Y-113543194D01*
X123042015Y-113563047D01*
X123128958Y-113581528D01*
X123128963Y-113581528D01*
X123135415Y-113582900D01*
X123326389Y-113582900D01*
X123332841Y-113581528D01*
X123332846Y-113581528D01*
X123419790Y-113563047D01*
X123513190Y-113543194D01*
X123539981Y-113531266D01*
X123681624Y-113468203D01*
X123681626Y-113468202D01*
X123687654Y-113465518D01*
X123715072Y-113445598D01*
X123771504Y-113404597D01*
X123842155Y-113353266D01*
X123864697Y-113328231D01*
X123965523Y-113216252D01*
X123965524Y-113216251D01*
X123969942Y-113211344D01*
X124043524Y-113083896D01*
X124062125Y-113051679D01*
X124062126Y-113051678D01*
X124065429Y-113045956D01*
X124124444Y-112864328D01*
X124129124Y-112819806D01*
X124143716Y-112680965D01*
X124144406Y-112674400D01*
X124135184Y-112586658D01*
X124125134Y-112491035D01*
X124125134Y-112491033D01*
X124124444Y-112484472D01*
X124065429Y-112302844D01*
X123969942Y-112137456D01*
X123953548Y-112119248D01*
X123846577Y-112000445D01*
X123846576Y-112000444D01*
X123842155Y-111995534D01*
X123724753Y-111910236D01*
X123681399Y-111854013D01*
X123675324Y-111783277D01*
X123708456Y-111720486D01*
X123770276Y-111685574D01*
X123798814Y-111682300D01*
X126877652Y-111682300D01*
X126888835Y-111682827D01*
X126896328Y-111684502D01*
X126904254Y-111684253D01*
X126904255Y-111684253D01*
X126964405Y-111682362D01*
X126968364Y-111682300D01*
X126996275Y-111682300D01*
X127000210Y-111681803D01*
X127000275Y-111681795D01*
X127012112Y-111680862D01*
X127044370Y-111679848D01*
X127048389Y-111679722D01*
X127056308Y-111679473D01*
X127075762Y-111673821D01*
X127095119Y-111669813D01*
X127107349Y-111668268D01*
X127107350Y-111668268D01*
X127115216Y-111667274D01*
X127122587Y-111664355D01*
X127122589Y-111664355D01*
X127156331Y-111650996D01*
X127167561Y-111647151D01*
X127202402Y-111637029D01*
X127202403Y-111637029D01*
X127210012Y-111634818D01*
X127216831Y-111630785D01*
X127216836Y-111630783D01*
X127227447Y-111624507D01*
X127245195Y-111615812D01*
X127264036Y-111608352D01*
X127299806Y-111582364D01*
X127309726Y-111575848D01*
X127340954Y-111557380D01*
X127340957Y-111557378D01*
X127347781Y-111553342D01*
X127362102Y-111539021D01*
X127377136Y-111526180D01*
X127386249Y-111519559D01*
X127393526Y-111514272D01*
X127421717Y-111480195D01*
X127429707Y-111471416D01*
X127471799Y-111429324D01*
X127534111Y-111395298D01*
X127560894Y-111392419D01*
X127616787Y-111392419D01*
X127623239Y-111391047D01*
X127623244Y-111391047D01*
X127712540Y-111372066D01*
X127803588Y-111352713D01*
X127817305Y-111346606D01*
X127972022Y-111277722D01*
X127972024Y-111277721D01*
X127978052Y-111275037D01*
X128132553Y-111162785D01*
X128137793Y-111156965D01*
X128143704Y-111150400D01*
X134316096Y-111150400D01*
X134316786Y-111156965D01*
X134329817Y-111280944D01*
X134336058Y-111340328D01*
X134338098Y-111346606D01*
X134382844Y-111484318D01*
X134395073Y-111521956D01*
X134398376Y-111527678D01*
X134398377Y-111527679D01*
X134409954Y-111547731D01*
X134490560Y-111687344D01*
X134494978Y-111692251D01*
X134494979Y-111692252D01*
X134549317Y-111752600D01*
X134618347Y-111829266D01*
X134772848Y-111941518D01*
X134778876Y-111944202D01*
X134778878Y-111944203D01*
X134941281Y-112016509D01*
X134947312Y-112019194D01*
X135040713Y-112039047D01*
X135127656Y-112057528D01*
X135127661Y-112057528D01*
X135134113Y-112058900D01*
X135325087Y-112058900D01*
X135331539Y-112057528D01*
X135331544Y-112057528D01*
X135418487Y-112039047D01*
X135511888Y-112019194D01*
X135517919Y-112016509D01*
X135680322Y-111944203D01*
X135680324Y-111944202D01*
X135686352Y-111941518D01*
X135840853Y-111829266D01*
X135909883Y-111752600D01*
X135964221Y-111692252D01*
X135964222Y-111692251D01*
X135968640Y-111687344D01*
X136064127Y-111521956D01*
X136065517Y-111522758D01*
X136106237Y-111474846D01*
X136174163Y-111454193D01*
X136242472Y-111473542D01*
X136269003Y-111495874D01*
X136294747Y-111524466D01*
X136376275Y-111583700D01*
X136416320Y-111612794D01*
X136449248Y-111636718D01*
X136455276Y-111639402D01*
X136455278Y-111639403D01*
X136617681Y-111711709D01*
X136623712Y-111714394D01*
X136717113Y-111734247D01*
X136804056Y-111752728D01*
X136804061Y-111752728D01*
X136810513Y-111754100D01*
X137001487Y-111754100D01*
X137007939Y-111752728D01*
X137007944Y-111752728D01*
X137094888Y-111734247D01*
X137188288Y-111714394D01*
X137194319Y-111711709D01*
X137356722Y-111639403D01*
X137356724Y-111639402D01*
X137362752Y-111636718D01*
X137395681Y-111612794D01*
X137435725Y-111583700D01*
X137517253Y-111524466D01*
X137545830Y-111492728D01*
X137640621Y-111387452D01*
X137640622Y-111387451D01*
X137645040Y-111382544D01*
X137709350Y-111271156D01*
X137737223Y-111222879D01*
X137737224Y-111222878D01*
X137740527Y-111217156D01*
X137799542Y-111035528D01*
X137800568Y-111025771D01*
X137818814Y-110852165D01*
X137819504Y-110845600D01*
X137816817Y-110820037D01*
X137800232Y-110662235D01*
X137800232Y-110662233D01*
X137799542Y-110655672D01*
X137740527Y-110474044D01*
X137708100Y-110417878D01*
X137672719Y-110356597D01*
X137645040Y-110308656D01*
X137607238Y-110266672D01*
X137521675Y-110171645D01*
X137521674Y-110171644D01*
X137517253Y-110166734D01*
X137377413Y-110065134D01*
X137368094Y-110058363D01*
X137368093Y-110058362D01*
X137362752Y-110054482D01*
X137356724Y-110051798D01*
X137356722Y-110051797D01*
X137194319Y-109979491D01*
X137194318Y-109979491D01*
X137188288Y-109976806D01*
X137094888Y-109956953D01*
X137007944Y-109938472D01*
X137007939Y-109938472D01*
X137001487Y-109937100D01*
X136810513Y-109937100D01*
X136804061Y-109938472D01*
X136804056Y-109938472D01*
X136717112Y-109956953D01*
X136623712Y-109976806D01*
X136617682Y-109979491D01*
X136617681Y-109979491D01*
X136455278Y-110051797D01*
X136455276Y-110051798D01*
X136449248Y-110054482D01*
X136443907Y-110058362D01*
X136443906Y-110058363D01*
X136434587Y-110065134D01*
X136294747Y-110166734D01*
X136290326Y-110171644D01*
X136290325Y-110171645D01*
X136204763Y-110266672D01*
X136166960Y-110308656D01*
X136071473Y-110474044D01*
X136070083Y-110473242D01*
X136029363Y-110521154D01*
X135961437Y-110541807D01*
X135893128Y-110522458D01*
X135866597Y-110500126D01*
X135840853Y-110471534D01*
X135730993Y-110391716D01*
X135691694Y-110363163D01*
X135691693Y-110363162D01*
X135686352Y-110359282D01*
X135680324Y-110356598D01*
X135680322Y-110356597D01*
X135517919Y-110284291D01*
X135517918Y-110284291D01*
X135511888Y-110281606D01*
X135418487Y-110261753D01*
X135331544Y-110243272D01*
X135331539Y-110243272D01*
X135325087Y-110241900D01*
X135134113Y-110241900D01*
X135127661Y-110243272D01*
X135127656Y-110243272D01*
X135040713Y-110261753D01*
X134947312Y-110281606D01*
X134941282Y-110284291D01*
X134941281Y-110284291D01*
X134778878Y-110356597D01*
X134778876Y-110356598D01*
X134772848Y-110359282D01*
X134767507Y-110363162D01*
X134767506Y-110363163D01*
X134728207Y-110391716D01*
X134618347Y-110471534D01*
X134613929Y-110476441D01*
X134613925Y-110476445D01*
X134544030Y-110554072D01*
X134490560Y-110613456D01*
X134436932Y-110706342D01*
X134402572Y-110765856D01*
X134395073Y-110778844D01*
X134336058Y-110960472D01*
X134335368Y-110967033D01*
X134335368Y-110967035D01*
X134316786Y-111143835D01*
X134316096Y-111150400D01*
X128143704Y-111150400D01*
X128255921Y-111025771D01*
X128255922Y-111025770D01*
X128260340Y-111020863D01*
X128340686Y-110881700D01*
X128392069Y-110832707D01*
X128449805Y-110818700D01*
X131544033Y-110818700D01*
X131555216Y-110819227D01*
X131562709Y-110820902D01*
X131570635Y-110820653D01*
X131570636Y-110820653D01*
X131630786Y-110818762D01*
X131634745Y-110818700D01*
X131662656Y-110818700D01*
X131666591Y-110818203D01*
X131666656Y-110818195D01*
X131678493Y-110817262D01*
X131710751Y-110816248D01*
X131714770Y-110816122D01*
X131722689Y-110815873D01*
X131742143Y-110810221D01*
X131761500Y-110806213D01*
X131773730Y-110804668D01*
X131773731Y-110804668D01*
X131781597Y-110803674D01*
X131788968Y-110800755D01*
X131788970Y-110800755D01*
X131822712Y-110787396D01*
X131833942Y-110783551D01*
X131868783Y-110773429D01*
X131868784Y-110773429D01*
X131876393Y-110771218D01*
X131883212Y-110767185D01*
X131883217Y-110767183D01*
X131893828Y-110760907D01*
X131911576Y-110752212D01*
X131930417Y-110744752D01*
X131940497Y-110737429D01*
X131966187Y-110718764D01*
X131976107Y-110712248D01*
X132007335Y-110693780D01*
X132007338Y-110693778D01*
X132014162Y-110689742D01*
X132028483Y-110675421D01*
X132043517Y-110662580D01*
X132048952Y-110658631D01*
X132059907Y-110650672D01*
X132088098Y-110616595D01*
X132096088Y-110607816D01*
X132104049Y-110599855D01*
X132166361Y-110565829D01*
X132237176Y-110570894D01*
X132286779Y-110604638D01*
X132383147Y-110711666D01*
X132443973Y-110755859D01*
X132509785Y-110803674D01*
X132537648Y-110823918D01*
X132543676Y-110826602D01*
X132543678Y-110826603D01*
X132667429Y-110881700D01*
X132712112Y-110901594D01*
X132805512Y-110921447D01*
X132892456Y-110939928D01*
X132892461Y-110939928D01*
X132898913Y-110941300D01*
X133089887Y-110941300D01*
X133096339Y-110939928D01*
X133096344Y-110939928D01*
X133183287Y-110921447D01*
X133276688Y-110901594D01*
X133321371Y-110881700D01*
X133445122Y-110826603D01*
X133445124Y-110826602D01*
X133451152Y-110823918D01*
X133479016Y-110803674D01*
X133544827Y-110755859D01*
X133605653Y-110711666D01*
X133622280Y-110693200D01*
X133729021Y-110574652D01*
X133729022Y-110574651D01*
X133733440Y-110569744D01*
X133796471Y-110460572D01*
X133825623Y-110410079D01*
X133825624Y-110410078D01*
X133828927Y-110404356D01*
X133887942Y-110222728D01*
X133894650Y-110158910D01*
X133907214Y-110039365D01*
X133907904Y-110032800D01*
X133901875Y-109975434D01*
X133888632Y-109849435D01*
X133888632Y-109849433D01*
X133887942Y-109842872D01*
X133828927Y-109661244D01*
X133733440Y-109495856D01*
X133722236Y-109483412D01*
X133610075Y-109358845D01*
X133610074Y-109358844D01*
X133605653Y-109353934D01*
X133595885Y-109346837D01*
X133576914Y-109333053D01*
X133533560Y-109276830D01*
X133527486Y-109206094D01*
X133561881Y-109142023D01*
X134195104Y-108508800D01*
X135789296Y-108508800D01*
X135789986Y-108515365D01*
X135806664Y-108674044D01*
X135809258Y-108698728D01*
X135868273Y-108880356D01*
X135963760Y-109045744D01*
X135968178Y-109050651D01*
X135968179Y-109050652D01*
X136035643Y-109125578D01*
X136091547Y-109187666D01*
X136246048Y-109299918D01*
X136252076Y-109302602D01*
X136252078Y-109302603D01*
X136414481Y-109374909D01*
X136420512Y-109377594D01*
X136513912Y-109397447D01*
X136600856Y-109415928D01*
X136600861Y-109415928D01*
X136607313Y-109417300D01*
X136798287Y-109417300D01*
X136804739Y-109415928D01*
X136804744Y-109415928D01*
X136891687Y-109397447D01*
X136985088Y-109377594D01*
X136991119Y-109374909D01*
X137153522Y-109302603D01*
X137153524Y-109302602D01*
X137159552Y-109299918D01*
X137314053Y-109187666D01*
X137369957Y-109125578D01*
X137437421Y-109050652D01*
X137437422Y-109050651D01*
X137441840Y-109045744D01*
X137537327Y-108880356D01*
X137596342Y-108698728D01*
X137598937Y-108674044D01*
X137615614Y-108515365D01*
X137616304Y-108508800D01*
X137610771Y-108456157D01*
X137597032Y-108325435D01*
X137597032Y-108325433D01*
X137596342Y-108318872D01*
X137537327Y-108137244D01*
X137506934Y-108084601D01*
X137494812Y-108063606D01*
X137441840Y-107971856D01*
X137432960Y-107961993D01*
X137318475Y-107834845D01*
X137318474Y-107834844D01*
X137314053Y-107829934D01*
X137200663Y-107747551D01*
X137164894Y-107721563D01*
X137164893Y-107721562D01*
X137159552Y-107717682D01*
X137153524Y-107714998D01*
X137153522Y-107714997D01*
X136991119Y-107642691D01*
X136991118Y-107642691D01*
X136985088Y-107640006D01*
X136879799Y-107617626D01*
X136804744Y-107601672D01*
X136804739Y-107601672D01*
X136798287Y-107600300D01*
X136607313Y-107600300D01*
X136600861Y-107601672D01*
X136600856Y-107601672D01*
X136525801Y-107617626D01*
X136420512Y-107640006D01*
X136414482Y-107642691D01*
X136414481Y-107642691D01*
X136252078Y-107714997D01*
X136252076Y-107714998D01*
X136246048Y-107717682D01*
X136240707Y-107721562D01*
X136240706Y-107721563D01*
X136204937Y-107747551D01*
X136091547Y-107829934D01*
X136087126Y-107834844D01*
X136087125Y-107834845D01*
X135972641Y-107961993D01*
X135963760Y-107971856D01*
X135910788Y-108063606D01*
X135898667Y-108084601D01*
X135868273Y-108137244D01*
X135809258Y-108318872D01*
X135808568Y-108325433D01*
X135808568Y-108325435D01*
X135794829Y-108456157D01*
X135789296Y-108508800D01*
X134195104Y-108508800D01*
X134301047Y-108402857D01*
X134309337Y-108395313D01*
X134315818Y-108391200D01*
X134362459Y-108341532D01*
X134365213Y-108338691D01*
X134384934Y-108318970D01*
X134387412Y-108315775D01*
X134395118Y-108306753D01*
X134419958Y-108280301D01*
X134425386Y-108274521D01*
X134431532Y-108263342D01*
X134435146Y-108256768D01*
X134445999Y-108240245D01*
X134453553Y-108230506D01*
X134458413Y-108224241D01*
X134475976Y-108183657D01*
X134481183Y-108173027D01*
X134502495Y-108134260D01*
X134504466Y-108126583D01*
X134504468Y-108126578D01*
X134507532Y-108114642D01*
X134513938Y-108095930D01*
X134518833Y-108084619D01*
X134521981Y-108077345D01*
X134523221Y-108069520D01*
X134523223Y-108069511D01*
X134523854Y-108065525D01*
X134525214Y-108062656D01*
X134525433Y-108061903D01*
X134525554Y-108061938D01*
X134554268Y-108001373D01*
X134614537Y-107963848D01*
X134674499Y-107961993D01*
X134822856Y-107993528D01*
X134822861Y-107993528D01*
X134829313Y-107994900D01*
X135020287Y-107994900D01*
X135026739Y-107993528D01*
X135026744Y-107993528D01*
X135113688Y-107975047D01*
X135207088Y-107955194D01*
X135213119Y-107952509D01*
X135375522Y-107880203D01*
X135375524Y-107880202D01*
X135381552Y-107877518D01*
X135395827Y-107867147D01*
X135474474Y-107810006D01*
X135536053Y-107765266D01*
X135578898Y-107717682D01*
X135659421Y-107628252D01*
X135659422Y-107628251D01*
X135663840Y-107623344D01*
X135759327Y-107457956D01*
X135818342Y-107276328D01*
X135820330Y-107257418D01*
X135837614Y-107092965D01*
X135838304Y-107086400D01*
X135832587Y-107032008D01*
X135819032Y-106903035D01*
X135819032Y-106903033D01*
X135818342Y-106896472D01*
X135759327Y-106714844D01*
X135663840Y-106549456D01*
X135637864Y-106520606D01*
X135540475Y-106412445D01*
X135540474Y-106412444D01*
X135536053Y-106407534D01*
X135421629Y-106324400D01*
X135386894Y-106299163D01*
X135386893Y-106299162D01*
X135381552Y-106295282D01*
X135375524Y-106292598D01*
X135375522Y-106292597D01*
X135213119Y-106220291D01*
X135213118Y-106220291D01*
X135207088Y-106217606D01*
X135113687Y-106197753D01*
X135026744Y-106179272D01*
X135026739Y-106179272D01*
X135020287Y-106177900D01*
X134829313Y-106177900D01*
X134822861Y-106179272D01*
X134822856Y-106179272D01*
X134694497Y-106206556D01*
X134623706Y-106201154D01*
X134567074Y-106158337D01*
X134542580Y-106091699D01*
X134542300Y-106083309D01*
X134542300Y-98663394D01*
X134562302Y-98595273D01*
X134579205Y-98574299D01*
X136993447Y-96160057D01*
X137001737Y-96152513D01*
X137008218Y-96148400D01*
X137054859Y-96098732D01*
X137057613Y-96095891D01*
X137077335Y-96076169D01*
X137079812Y-96072976D01*
X137087517Y-96063955D01*
X137088602Y-96062800D01*
X137117786Y-96031721D01*
X137121607Y-96024771D01*
X137127546Y-96013968D01*
X137138402Y-95997441D01*
X137145957Y-95987702D01*
X137145958Y-95987700D01*
X137150814Y-95981440D01*
X137168374Y-95940860D01*
X137173591Y-95930212D01*
X137191075Y-95898409D01*
X137191076Y-95898407D01*
X137194895Y-95891460D01*
X137199933Y-95871837D01*
X137206337Y-95853134D01*
X137211233Y-95841820D01*
X137211233Y-95841819D01*
X137214381Y-95834545D01*
X137215620Y-95826722D01*
X137215623Y-95826712D01*
X137221299Y-95790876D01*
X137223705Y-95779256D01*
X137232728Y-95744111D01*
X137232728Y-95744110D01*
X137234700Y-95736430D01*
X137234700Y-95716176D01*
X137236251Y-95696465D01*
X137238180Y-95684286D01*
X137239420Y-95676457D01*
X137235259Y-95632438D01*
X137234700Y-95620581D01*
X137234700Y-94479324D01*
X137254702Y-94411203D01*
X137267058Y-94395021D01*
X137340240Y-94313744D01*
X137435727Y-94148356D01*
X137494742Y-93966728D01*
X137503406Y-93884300D01*
X137514014Y-93783365D01*
X137514704Y-93776800D01*
X137511629Y-93747544D01*
X137495432Y-93593435D01*
X137495432Y-93593433D01*
X137494742Y-93586872D01*
X137435727Y-93405244D01*
X137428229Y-93392256D01*
X137346273Y-93250306D01*
X137340240Y-93239856D01*
X137258194Y-93148734D01*
X137216875Y-93102845D01*
X137216874Y-93102844D01*
X137212453Y-93097934D01*
X137106150Y-93020700D01*
X137063294Y-92989563D01*
X137063293Y-92989562D01*
X137057952Y-92985682D01*
X137051924Y-92982998D01*
X137051922Y-92982997D01*
X136889519Y-92910691D01*
X136889518Y-92910691D01*
X136883488Y-92908006D01*
X136790087Y-92888153D01*
X136703144Y-92869672D01*
X136703139Y-92869672D01*
X136696687Y-92868300D01*
X136505713Y-92868300D01*
X136499261Y-92869672D01*
X136499256Y-92869672D01*
X136412313Y-92888153D01*
X136318912Y-92908006D01*
X136312882Y-92910691D01*
X136312881Y-92910691D01*
X136150478Y-92982997D01*
X136150476Y-92982998D01*
X136144448Y-92985682D01*
X136139107Y-92989562D01*
X136139106Y-92989563D01*
X136096250Y-93020700D01*
X135989947Y-93097934D01*
X135987438Y-93100720D01*
X135924389Y-93130980D01*
X135852834Y-93121734D01*
X135715088Y-93060406D01*
X135620794Y-93040363D01*
X135534744Y-93022072D01*
X135534739Y-93022072D01*
X135528287Y-93020700D01*
X135337313Y-93020700D01*
X135330861Y-93022072D01*
X135330856Y-93022072D01*
X135244806Y-93040363D01*
X135150512Y-93060406D01*
X135144482Y-93063091D01*
X135144481Y-93063091D01*
X134982078Y-93135397D01*
X134982076Y-93135398D01*
X134976048Y-93138082D01*
X134821547Y-93250334D01*
X134817126Y-93255244D01*
X134817125Y-93255245D01*
X134751633Y-93327982D01*
X134693760Y-93392256D01*
X134598273Y-93557644D01*
X134539258Y-93739272D01*
X134538568Y-93745833D01*
X134538568Y-93745835D01*
X134532836Y-93800376D01*
X134505823Y-93866033D01*
X134447602Y-93906663D01*
X134381329Y-93910453D01*
X134264744Y-93885672D01*
X134264739Y-93885672D01*
X134258287Y-93884300D01*
X134067313Y-93884300D01*
X134060853Y-93885673D01*
X134060854Y-93885673D01*
X134004405Y-93897671D01*
X133933615Y-93892269D01*
X133876982Y-93849452D01*
X133852899Y-93787594D01*
X133852057Y-93779577D01*
X133839658Y-93661607D01*
X133837832Y-93644235D01*
X133837832Y-93644233D01*
X133837142Y-93637672D01*
X133778127Y-93456044D01*
X133682640Y-93290656D01*
X133632481Y-93234948D01*
X133559275Y-93153645D01*
X133559274Y-93153644D01*
X133554853Y-93148734D01*
X133436976Y-93063091D01*
X133405694Y-93040363D01*
X133405693Y-93040362D01*
X133400352Y-93036482D01*
X133394324Y-93033798D01*
X133394322Y-93033797D01*
X133231919Y-92961491D01*
X133231918Y-92961491D01*
X133225888Y-92958806D01*
X133118454Y-92935970D01*
X133045544Y-92920472D01*
X133045539Y-92920472D01*
X133039087Y-92919100D01*
X132848113Y-92919100D01*
X132841661Y-92920472D01*
X132841656Y-92920472D01*
X132768746Y-92935970D01*
X132661312Y-92958806D01*
X132655282Y-92961491D01*
X132655281Y-92961491D01*
X132492878Y-93033797D01*
X132492876Y-93033798D01*
X132486848Y-93036482D01*
X132481507Y-93040362D01*
X132481506Y-93040363D01*
X132450224Y-93063091D01*
X132332347Y-93148734D01*
X132327926Y-93153644D01*
X132327925Y-93153645D01*
X132254720Y-93234948D01*
X132204560Y-93290656D01*
X132109073Y-93456044D01*
X132050058Y-93637672D01*
X132049368Y-93644233D01*
X132049368Y-93644235D01*
X132037147Y-93760512D01*
X132030096Y-93827600D01*
X132030786Y-93834165D01*
X132045379Y-93973006D01*
X132050058Y-94017528D01*
X132109073Y-94199156D01*
X132204560Y-94364544D01*
X132332347Y-94506466D01*
X132486848Y-94618718D01*
X132492876Y-94621402D01*
X132492878Y-94621403D01*
X132587520Y-94663540D01*
X132661312Y-94696394D01*
X132754712Y-94716247D01*
X132841656Y-94734728D01*
X132841661Y-94734728D01*
X132848113Y-94736100D01*
X133039087Y-94736100D01*
X133053060Y-94733130D01*
X133101995Y-94722729D01*
X133172785Y-94728131D01*
X133229418Y-94770948D01*
X133253501Y-94832805D01*
X133269258Y-94982728D01*
X133328273Y-95164356D01*
X133423760Y-95329744D01*
X133428178Y-95334651D01*
X133428179Y-95334652D01*
X133481613Y-95393996D01*
X133551547Y-95471666D01*
X133650643Y-95543664D01*
X133696053Y-95576656D01*
X133706048Y-95583918D01*
X133712076Y-95586602D01*
X133712078Y-95586603D01*
X133801745Y-95626525D01*
X133880512Y-95661594D01*
X133950437Y-95676457D01*
X134060856Y-95699928D01*
X134060861Y-95699928D01*
X134067313Y-95701300D01*
X134258287Y-95701300D01*
X134264739Y-95699928D01*
X134264744Y-95699928D01*
X134375163Y-95676457D01*
X134445088Y-95661594D01*
X134523855Y-95626525D01*
X134613522Y-95586603D01*
X134613524Y-95586602D01*
X134619552Y-95583918D01*
X134629548Y-95576656D01*
X134674957Y-95543664D01*
X134774053Y-95471666D01*
X134843987Y-95393996D01*
X134897421Y-95334652D01*
X134897422Y-95334651D01*
X134901840Y-95329744D01*
X134997327Y-95164356D01*
X135056342Y-94982728D01*
X135062764Y-94921623D01*
X135089777Y-94855967D01*
X135147998Y-94815337D01*
X135214271Y-94811547D01*
X135330856Y-94836328D01*
X135330861Y-94836328D01*
X135337313Y-94837700D01*
X135528287Y-94837700D01*
X135534739Y-94836328D01*
X135534744Y-94836328D01*
X135637518Y-94814482D01*
X135715088Y-94797994D01*
X135790452Y-94764440D01*
X135860818Y-94755006D01*
X135925115Y-94785112D01*
X135962928Y-94845201D01*
X135967700Y-94879547D01*
X135967700Y-95341806D01*
X135947698Y-95409927D01*
X135930795Y-95430901D01*
X134716869Y-96644826D01*
X133516547Y-97845148D01*
X133508261Y-97852688D01*
X133501782Y-97856800D01*
X133496357Y-97862577D01*
X133455157Y-97906451D01*
X133452402Y-97909293D01*
X133432665Y-97929030D01*
X133430185Y-97932227D01*
X133422482Y-97941247D01*
X133392214Y-97973479D01*
X133388395Y-97980425D01*
X133388393Y-97980428D01*
X133382452Y-97991234D01*
X133371601Y-98007753D01*
X133359186Y-98023759D01*
X133356041Y-98031028D01*
X133356038Y-98031032D01*
X133341626Y-98064337D01*
X133336409Y-98074987D01*
X133315105Y-98113740D01*
X133313134Y-98121415D01*
X133313134Y-98121416D01*
X133310067Y-98133362D01*
X133303663Y-98152066D01*
X133295619Y-98170655D01*
X133294380Y-98178478D01*
X133294377Y-98178488D01*
X133288701Y-98214324D01*
X133286295Y-98225944D01*
X133275300Y-98268770D01*
X133275300Y-98289024D01*
X133273749Y-98308734D01*
X133270580Y-98328743D01*
X133271326Y-98336635D01*
X133274741Y-98372761D01*
X133275300Y-98384619D01*
X133275300Y-105373429D01*
X133255298Y-105441550D01*
X133201642Y-105488043D01*
X133131368Y-105498147D01*
X133066788Y-105468653D01*
X133055664Y-105457739D01*
X133053744Y-105455606D01*
X132996053Y-105391534D01*
X132841552Y-105279282D01*
X132835524Y-105276598D01*
X132835522Y-105276597D01*
X132673119Y-105204291D01*
X132673118Y-105204291D01*
X132667088Y-105201606D01*
X132573687Y-105181753D01*
X132486744Y-105163272D01*
X132486739Y-105163272D01*
X132480287Y-105161900D01*
X132289313Y-105161900D01*
X132282861Y-105163272D01*
X132282856Y-105163272D01*
X132195913Y-105181753D01*
X132102512Y-105201606D01*
X132096482Y-105204291D01*
X132096481Y-105204291D01*
X131934078Y-105276597D01*
X131934076Y-105276598D01*
X131928048Y-105279282D01*
X131773547Y-105391534D01*
X131769126Y-105396444D01*
X131769125Y-105396445D01*
X131724977Y-105445477D01*
X131645760Y-105533456D01*
X131606692Y-105601123D01*
X131557787Y-105685830D01*
X131550273Y-105698844D01*
X131491258Y-105880472D01*
X131490568Y-105887033D01*
X131490568Y-105887035D01*
X131486291Y-105927726D01*
X131471296Y-106070400D01*
X131471986Y-106076965D01*
X131486781Y-106217728D01*
X131491258Y-106260328D01*
X131550273Y-106441956D01*
X131645760Y-106607344D01*
X131650178Y-106612251D01*
X131650179Y-106612252D01*
X131737400Y-106709121D01*
X131773547Y-106749266D01*
X131778889Y-106753147D01*
X131778891Y-106753149D01*
X131888330Y-106832661D01*
X131931684Y-106888883D01*
X131938617Y-106940577D01*
X131939641Y-106940577D01*
X131939641Y-106947183D01*
X131938951Y-106953748D01*
X131939641Y-106960313D01*
X131955954Y-107115518D01*
X131958913Y-107143676D01*
X132017928Y-107325304D01*
X132021231Y-107331026D01*
X132021232Y-107331027D01*
X132041008Y-107365280D01*
X132113415Y-107490692D01*
X132117833Y-107495599D01*
X132117834Y-107495600D01*
X132236780Y-107627703D01*
X132241202Y-107632614D01*
X132273503Y-107656082D01*
X132358288Y-107717682D01*
X132395703Y-107744866D01*
X132401731Y-107747550D01*
X132401733Y-107747551D01*
X132564136Y-107819857D01*
X132570167Y-107822542D01*
X132756968Y-107862248D01*
X132760836Y-107862248D01*
X132825556Y-107888872D01*
X132866188Y-107947092D01*
X132868894Y-108018037D01*
X132835828Y-108076267D01*
X131397300Y-109514795D01*
X131334988Y-109548821D01*
X131308205Y-109551700D01*
X127898782Y-109551700D01*
X127887598Y-109551173D01*
X127880110Y-109549499D01*
X127872187Y-109549748D01*
X127812052Y-109551638D01*
X127808094Y-109551700D01*
X127780163Y-109551700D01*
X127776248Y-109552195D01*
X127776244Y-109552195D01*
X127776186Y-109552203D01*
X127776157Y-109552206D01*
X127764315Y-109553139D01*
X127754888Y-109553435D01*
X127686173Y-109535581D01*
X127638018Y-109483412D01*
X127631099Y-109466434D01*
X127622240Y-109439169D01*
X127622239Y-109439168D01*
X127620199Y-109432888D01*
X127524712Y-109267500D01*
X127505660Y-109246340D01*
X127401347Y-109130489D01*
X127401346Y-109130488D01*
X127396925Y-109125578D01*
X127242424Y-109013326D01*
X127236396Y-109010642D01*
X127236394Y-109010641D01*
X127073991Y-108938335D01*
X127073990Y-108938335D01*
X127067960Y-108935650D01*
X126974559Y-108915797D01*
X126887616Y-108897316D01*
X126887611Y-108897316D01*
X126881159Y-108895944D01*
X126690185Y-108895944D01*
X126683733Y-108897316D01*
X126683728Y-108897316D01*
X126596785Y-108915797D01*
X126503384Y-108935650D01*
X126497354Y-108938335D01*
X126497353Y-108938335D01*
X126334950Y-109010641D01*
X126334948Y-109010642D01*
X126328920Y-109013326D01*
X126174419Y-109125578D01*
X126169998Y-109130488D01*
X126169997Y-109130489D01*
X126065685Y-109246340D01*
X126046632Y-109267500D01*
X126026365Y-109302603D01*
X125997384Y-109352800D01*
X125946002Y-109401793D01*
X125888265Y-109415800D01*
X125836514Y-109415800D01*
X125830062Y-109417172D01*
X125830057Y-109417172D01*
X125743114Y-109435653D01*
X125649713Y-109455506D01*
X125643686Y-109458189D01*
X125643678Y-109458192D01*
X125483497Y-109529509D01*
X125413130Y-109538943D01*
X125381000Y-109529509D01*
X125220817Y-109458191D01*
X125220816Y-109458191D01*
X125214786Y-109455506D01*
X125121385Y-109435653D01*
X125034442Y-109417172D01*
X125034437Y-109417172D01*
X125027985Y-109415800D01*
X124837011Y-109415800D01*
X124830557Y-109417172D01*
X124830555Y-109417172D01*
X124830373Y-109417211D01*
X124830298Y-109417227D01*
X124830146Y-109417215D01*
X124823983Y-109417863D01*
X124823865Y-109416736D01*
X124759507Y-109411827D01*
X124702873Y-109369013D01*
X124694978Y-109356981D01*
X124692913Y-109353403D01*
X124600179Y-109192784D01*
X124544089Y-109130489D01*
X124476814Y-109055773D01*
X124476813Y-109055772D01*
X124472392Y-109050862D01*
X124425339Y-109016676D01*
X124381987Y-108960454D01*
X124375912Y-108889718D01*
X124409044Y-108826926D01*
X124470864Y-108792015D01*
X124499402Y-108788741D01*
X124633844Y-108788741D01*
X124640296Y-108787369D01*
X124640301Y-108787369D01*
X124734480Y-108767350D01*
X124820645Y-108749035D01*
X124834279Y-108742965D01*
X124989079Y-108674044D01*
X124989081Y-108674043D01*
X124995109Y-108671359D01*
X125149610Y-108559107D01*
X125179647Y-108525748D01*
X125272978Y-108422093D01*
X125272979Y-108422092D01*
X125277397Y-108417185D01*
X125372884Y-108251797D01*
X125431899Y-108070169D01*
X125435913Y-108031984D01*
X125451171Y-107886806D01*
X125451861Y-107880241D01*
X125446574Y-107829934D01*
X125432589Y-107696876D01*
X125432589Y-107696874D01*
X125431899Y-107690313D01*
X125372884Y-107508685D01*
X125369103Y-107502135D01*
X125310162Y-107400048D01*
X125277397Y-107343297D01*
X125260132Y-107324123D01*
X125229414Y-107260118D01*
X125238177Y-107189664D01*
X125283638Y-107135132D01*
X125302517Y-107124706D01*
X125317117Y-107118205D01*
X125323152Y-107115518D01*
X125354194Y-107092965D01*
X125447152Y-107025426D01*
X125477653Y-107003266D01*
X125492185Y-106987127D01*
X125601021Y-106866252D01*
X125601022Y-106866251D01*
X125605440Y-106861344D01*
X125700927Y-106695956D01*
X125759942Y-106514328D01*
X125761128Y-106503050D01*
X125779214Y-106330965D01*
X125779904Y-106324400D01*
X125773004Y-106258747D01*
X125760632Y-106141035D01*
X125760632Y-106141033D01*
X125759942Y-106134472D01*
X125752345Y-106111091D01*
X126745386Y-106111091D01*
X126746076Y-106117656D01*
X126755948Y-106211579D01*
X126765348Y-106301019D01*
X126824363Y-106482647D01*
X126919850Y-106648035D01*
X126924268Y-106652942D01*
X126924269Y-106652943D01*
X126934765Y-106664600D01*
X127047637Y-106789957D01*
X127103989Y-106830899D01*
X127194242Y-106896472D01*
X127202138Y-106902209D01*
X127208166Y-106904893D01*
X127208168Y-106904894D01*
X127259610Y-106927797D01*
X127376602Y-106979885D01*
X127383070Y-106981260D01*
X127384157Y-106981613D01*
X127442764Y-107021685D01*
X127470535Y-107088277D01*
X127483795Y-107214435D01*
X127489848Y-107272029D01*
X127548863Y-107453657D01*
X127644350Y-107619045D01*
X127648768Y-107623952D01*
X127648769Y-107623953D01*
X127760057Y-107747551D01*
X127772137Y-107760967D01*
X127839633Y-107810006D01*
X127918281Y-107867147D01*
X127926638Y-107873219D01*
X127932666Y-107875903D01*
X127932668Y-107875904D01*
X128092560Y-107947092D01*
X128101102Y-107950895D01*
X128176625Y-107966948D01*
X128281446Y-107989229D01*
X128281451Y-107989229D01*
X128287903Y-107990601D01*
X128478877Y-107990601D01*
X128485329Y-107989229D01*
X128485334Y-107989229D01*
X128590155Y-107966948D01*
X128665678Y-107950895D01*
X128736739Y-107919257D01*
X128832591Y-107876581D01*
X128902958Y-107867147D01*
X128957899Y-107889751D01*
X128993992Y-107915974D01*
X129000020Y-107918658D01*
X129000022Y-107918659D01*
X129162425Y-107990965D01*
X129168456Y-107993650D01*
X129261856Y-108013503D01*
X129348800Y-108031984D01*
X129348805Y-108031984D01*
X129355257Y-108033356D01*
X129546231Y-108033356D01*
X129552683Y-108031984D01*
X129552688Y-108031984D01*
X129639631Y-108013503D01*
X129733032Y-107993650D01*
X129739063Y-107990965D01*
X129901466Y-107918659D01*
X129901468Y-107918658D01*
X129907496Y-107915974D01*
X130061997Y-107803722D01*
X130096623Y-107765266D01*
X130185365Y-107666708D01*
X130185366Y-107666707D01*
X130189784Y-107661800D01*
X130270521Y-107521960D01*
X130281967Y-107502135D01*
X130281968Y-107502134D01*
X130285271Y-107496412D01*
X130344286Y-107314784D01*
X130347926Y-107280157D01*
X130363558Y-107131421D01*
X130364248Y-107124856D01*
X130358431Y-107069509D01*
X130344976Y-106941491D01*
X130344976Y-106941489D01*
X130344286Y-106934928D01*
X130285271Y-106753300D01*
X130189784Y-106587912D01*
X130129182Y-106520606D01*
X130066419Y-106450901D01*
X130066418Y-106450900D01*
X130061997Y-106445990D01*
X129940859Y-106357978D01*
X129912838Y-106337619D01*
X129912837Y-106337618D01*
X129907496Y-106333738D01*
X129901468Y-106331054D01*
X129901466Y-106331053D01*
X129739063Y-106258747D01*
X129739062Y-106258747D01*
X129733032Y-106256062D01*
X129633327Y-106234869D01*
X129552688Y-106217728D01*
X129552683Y-106217728D01*
X129546231Y-106216356D01*
X129355257Y-106216356D01*
X129348805Y-106217728D01*
X129348800Y-106217728D01*
X129268161Y-106234869D01*
X129168456Y-106256062D01*
X129162426Y-106258747D01*
X129162425Y-106258747D01*
X129001543Y-106330376D01*
X128931176Y-106339810D01*
X128876235Y-106317206D01*
X128840142Y-106290983D01*
X128834114Y-106288299D01*
X128834112Y-106288298D01*
X128758626Y-106254690D01*
X128665678Y-106213307D01*
X128659210Y-106211932D01*
X128658123Y-106211579D01*
X128599516Y-106171507D01*
X128571745Y-106104915D01*
X128553122Y-105927725D01*
X128553121Y-105927722D01*
X128552432Y-105921163D01*
X128493417Y-105739535D01*
X128397930Y-105574147D01*
X128364630Y-105537163D01*
X128274565Y-105437136D01*
X128274564Y-105437135D01*
X128270143Y-105432225D01*
X128166249Y-105356741D01*
X128120984Y-105323854D01*
X128120983Y-105323853D01*
X128115642Y-105319973D01*
X128109614Y-105317289D01*
X128109612Y-105317288D01*
X127947209Y-105244982D01*
X127947208Y-105244982D01*
X127941178Y-105242297D01*
X127847778Y-105222444D01*
X127760834Y-105203963D01*
X127760829Y-105203963D01*
X127754377Y-105202591D01*
X127563403Y-105202591D01*
X127556951Y-105203963D01*
X127556946Y-105203963D01*
X127470002Y-105222444D01*
X127376602Y-105242297D01*
X127370572Y-105244982D01*
X127370571Y-105244982D01*
X127208168Y-105317288D01*
X127208166Y-105317289D01*
X127202138Y-105319973D01*
X127196797Y-105323853D01*
X127196796Y-105323854D01*
X127151531Y-105356741D01*
X127047637Y-105432225D01*
X127043216Y-105437135D01*
X127043215Y-105437136D01*
X126953151Y-105537163D01*
X126919850Y-105574147D01*
X126824363Y-105739535D01*
X126765348Y-105921163D01*
X126764658Y-105927724D01*
X126764658Y-105927726D01*
X126749663Y-106070400D01*
X126745386Y-106111091D01*
X125752345Y-106111091D01*
X125700927Y-105952844D01*
X125678897Y-105914686D01*
X125639701Y-105846798D01*
X125605440Y-105787456D01*
X125575161Y-105753827D01*
X125482075Y-105650445D01*
X125482074Y-105650444D01*
X125477653Y-105645534D01*
X125323152Y-105533282D01*
X125317124Y-105530598D01*
X125317122Y-105530597D01*
X125154719Y-105458291D01*
X125154718Y-105458291D01*
X125148688Y-105455606D01*
X125038690Y-105432225D01*
X124968344Y-105417272D01*
X124968339Y-105417272D01*
X124961887Y-105415900D01*
X124770913Y-105415900D01*
X124764461Y-105417272D01*
X124764456Y-105417272D01*
X124694110Y-105432225D01*
X124584112Y-105455606D01*
X124578082Y-105458291D01*
X124578081Y-105458291D01*
X124415678Y-105530597D01*
X124415676Y-105530598D01*
X124409648Y-105533282D01*
X124255147Y-105645534D01*
X124250726Y-105650444D01*
X124250725Y-105650445D01*
X124157640Y-105753827D01*
X124127360Y-105787456D01*
X124093099Y-105846798D01*
X124053904Y-105914686D01*
X124031873Y-105952844D01*
X123972858Y-106134472D01*
X123972168Y-106141033D01*
X123972168Y-106141035D01*
X123959796Y-106258747D01*
X123952896Y-106324400D01*
X123953586Y-106330965D01*
X123971673Y-106503050D01*
X123972858Y-106514328D01*
X124031873Y-106695956D01*
X124127360Y-106861344D01*
X124144625Y-106880518D01*
X124175343Y-106944523D01*
X124166580Y-107014977D01*
X124121119Y-107069509D01*
X124102240Y-107079935D01*
X124087721Y-107086400D01*
X124081605Y-107089123D01*
X124076264Y-107093003D01*
X124076263Y-107093004D01*
X124041577Y-107118205D01*
X123927104Y-107201375D01*
X123922683Y-107206285D01*
X123922682Y-107206286D01*
X123818533Y-107321956D01*
X123799317Y-107343297D01*
X123766552Y-107400048D01*
X123707612Y-107502135D01*
X123703830Y-107508685D01*
X123644815Y-107690313D01*
X123644125Y-107696874D01*
X123644125Y-107696876D01*
X123630140Y-107829934D01*
X123624853Y-107880241D01*
X123625543Y-107886806D01*
X123640802Y-108031984D01*
X123644815Y-108070169D01*
X123703830Y-108251797D01*
X123799317Y-108417185D01*
X123803735Y-108422092D01*
X123803736Y-108422093D01*
X123897067Y-108525748D01*
X123927104Y-108559107D01*
X123974157Y-108593293D01*
X124017509Y-108649515D01*
X124023584Y-108720251D01*
X123990452Y-108783043D01*
X123928632Y-108817954D01*
X123900094Y-108821228D01*
X123765652Y-108821228D01*
X123759200Y-108822600D01*
X123759195Y-108822600D01*
X123672252Y-108841081D01*
X123578851Y-108860934D01*
X123572821Y-108863619D01*
X123572820Y-108863619D01*
X123410417Y-108935925D01*
X123410415Y-108935926D01*
X123404387Y-108938610D01*
X123249886Y-109050862D01*
X123245465Y-109055772D01*
X123245464Y-109055773D01*
X123178190Y-109130489D01*
X123122099Y-109192784D01*
X123088508Y-109250965D01*
X123030916Y-109350718D01*
X123026612Y-109358172D01*
X122967597Y-109539800D01*
X122966907Y-109546361D01*
X122966907Y-109546363D01*
X122954172Y-109667529D01*
X122947635Y-109729728D01*
X122948325Y-109736293D01*
X122960217Y-109849435D01*
X122967597Y-109919656D01*
X123026612Y-110101284D01*
X123029915Y-110107006D01*
X123029916Y-110107007D01*
X123098790Y-110226300D01*
X123115528Y-110295295D01*
X123092308Y-110362387D01*
X123036500Y-110406274D01*
X122989671Y-110415300D01*
X120663139Y-110415300D01*
X120595018Y-110395298D01*
X120548525Y-110341642D01*
X120538421Y-110271368D01*
X120548033Y-110238049D01*
X120550703Y-110232052D01*
X120554008Y-110226328D01*
X120607024Y-110063163D01*
X120647098Y-110004558D01*
X120712495Y-109976921D01*
X120726857Y-109976100D01*
X120745487Y-109976100D01*
X120751939Y-109974728D01*
X120751944Y-109974728D01*
X120854718Y-109952882D01*
X120932288Y-109936394D01*
X120955782Y-109925934D01*
X121100722Y-109861403D01*
X121100724Y-109861402D01*
X121106752Y-109858718D01*
X121261253Y-109746466D01*
X121282235Y-109723163D01*
X121384621Y-109609452D01*
X121384622Y-109609451D01*
X121389040Y-109604544D01*
X121475087Y-109455506D01*
X121481223Y-109444879D01*
X121481224Y-109444878D01*
X121484527Y-109439156D01*
X121543542Y-109257528D01*
X121545138Y-109242349D01*
X121562814Y-109074165D01*
X121563504Y-109067600D01*
X121549636Y-108935650D01*
X121544232Y-108884235D01*
X121544232Y-108884233D01*
X121543542Y-108877672D01*
X121484527Y-108696044D01*
X121389040Y-108530656D01*
X121273970Y-108402857D01*
X121265675Y-108393645D01*
X121265674Y-108393644D01*
X121261253Y-108388734D01*
X121141413Y-108301665D01*
X121098060Y-108245444D01*
X121089475Y-108199730D01*
X121089475Y-108193850D01*
X121090165Y-108187285D01*
X121080063Y-108091166D01*
X121070893Y-108003920D01*
X121070893Y-108003918D01*
X121070203Y-107997357D01*
X121011188Y-107815729D01*
X121001421Y-107798811D01*
X120940614Y-107693491D01*
X120915701Y-107650341D01*
X120906396Y-107640006D01*
X120792336Y-107513330D01*
X120792335Y-107513329D01*
X120787914Y-107508419D01*
X120633413Y-107396167D01*
X120627385Y-107393483D01*
X120627383Y-107393482D01*
X120464980Y-107321176D01*
X120464979Y-107321176D01*
X120458949Y-107318491D01*
X120356685Y-107296754D01*
X120278605Y-107280157D01*
X120278600Y-107280157D01*
X120272148Y-107278785D01*
X120081174Y-107278785D01*
X120074722Y-107280157D01*
X120074717Y-107280157D01*
X119996637Y-107296754D01*
X119894373Y-107318491D01*
X119888343Y-107321176D01*
X119888342Y-107321176D01*
X119725939Y-107393482D01*
X119725937Y-107393483D01*
X119719909Y-107396167D01*
X119565408Y-107508419D01*
X119560987Y-107513329D01*
X119560986Y-107513330D01*
X119446927Y-107640006D01*
X119437621Y-107650341D01*
X119412708Y-107693491D01*
X119351902Y-107798811D01*
X119342134Y-107815729D01*
X119283119Y-107997357D01*
X119282429Y-108003918D01*
X119282429Y-108003920D01*
X119273259Y-108091166D01*
X119263157Y-108187285D01*
X119263847Y-108193850D01*
X119281667Y-108363394D01*
X119283119Y-108377213D01*
X119342134Y-108558841D01*
X119345437Y-108564563D01*
X119345438Y-108564564D01*
X119362024Y-108593292D01*
X119437621Y-108724229D01*
X119490540Y-108783002D01*
X119521256Y-108847007D01*
X119512493Y-108917460D01*
X119467030Y-108971992D01*
X119439050Y-108985583D01*
X119437193Y-108985978D01*
X119431172Y-108988659D01*
X119431168Y-108988660D01*
X119268759Y-109060969D01*
X119268757Y-109060970D01*
X119262729Y-109063654D01*
X119108228Y-109175906D01*
X119103807Y-109180816D01*
X119103806Y-109180817D01*
X118994150Y-109302603D01*
X118980441Y-109317828D01*
X118956760Y-109358845D01*
X118901745Y-109454134D01*
X118884954Y-109483216D01*
X118825939Y-109664844D01*
X118805977Y-109854772D01*
X118806667Y-109861337D01*
X118814274Y-109933709D01*
X118825939Y-110044700D01*
X118884954Y-110226328D01*
X118888259Y-110232053D01*
X118890929Y-110238049D01*
X118900364Y-110308416D01*
X118870259Y-110372714D01*
X118810171Y-110410528D01*
X118775823Y-110415300D01*
X109197167Y-110415300D01*
X109185984Y-110414773D01*
X109178491Y-110413098D01*
X109170565Y-110413347D01*
X109170564Y-110413347D01*
X109110414Y-110415238D01*
X109106455Y-110415300D01*
X109078544Y-110415300D01*
X109074610Y-110415797D01*
X109074609Y-110415797D01*
X109074544Y-110415805D01*
X109062707Y-110416738D01*
X109030890Y-110417738D01*
X109026429Y-110417878D01*
X109018510Y-110418127D01*
X109000854Y-110423256D01*
X108999058Y-110423778D01*
X108979706Y-110427786D01*
X108972635Y-110428680D01*
X108959603Y-110430326D01*
X108952234Y-110433243D01*
X108952232Y-110433244D01*
X108918497Y-110446600D01*
X108907269Y-110450445D01*
X108864807Y-110462782D01*
X108857984Y-110466817D01*
X108857982Y-110466818D01*
X108847372Y-110473093D01*
X108829624Y-110481788D01*
X108810783Y-110489248D01*
X108804367Y-110493910D01*
X108804366Y-110493910D01*
X108775013Y-110515236D01*
X108765093Y-110521752D01*
X108733865Y-110540220D01*
X108733862Y-110540222D01*
X108727038Y-110544258D01*
X108712717Y-110558579D01*
X108697684Y-110571419D01*
X108681293Y-110583328D01*
X108676243Y-110589432D01*
X108676238Y-110589437D01*
X108653107Y-110617398D01*
X108645117Y-110626179D01*
X108433091Y-110838204D01*
X108370779Y-110872229D01*
X108299963Y-110867164D01*
X108243128Y-110824617D01*
X108234878Y-110812110D01*
X108228671Y-110801360D01*
X108225370Y-110795642D01*
X108205370Y-110773429D01*
X108102005Y-110658631D01*
X108102004Y-110658630D01*
X108097583Y-110653720D01*
X107983583Y-110570894D01*
X107948424Y-110545349D01*
X107948423Y-110545348D01*
X107943082Y-110541468D01*
X107937054Y-110538784D01*
X107937052Y-110538783D01*
X107774649Y-110466477D01*
X107774648Y-110466477D01*
X107768618Y-110463792D01*
X107641119Y-110436691D01*
X107588274Y-110425458D01*
X107588269Y-110425458D01*
X107581817Y-110424086D01*
X107390843Y-110424086D01*
X107384391Y-110425458D01*
X107384386Y-110425458D01*
X107331541Y-110436691D01*
X107204042Y-110463792D01*
X107198012Y-110466477D01*
X107198011Y-110466477D01*
X107035608Y-110538783D01*
X107035606Y-110538784D01*
X107029578Y-110541468D01*
X107024237Y-110545348D01*
X107024236Y-110545349D01*
X106989077Y-110570894D01*
X106875077Y-110653720D01*
X106860010Y-110670454D01*
X106799567Y-110707693D01*
X106728583Y-110706342D01*
X106672741Y-110670455D01*
X106630853Y-110623934D01*
X106528912Y-110549869D01*
X106481694Y-110515563D01*
X106481693Y-110515562D01*
X106476352Y-110511682D01*
X106470324Y-110508998D01*
X106470322Y-110508997D01*
X106307919Y-110436691D01*
X106307918Y-110436691D01*
X106301888Y-110434006D01*
X106203524Y-110413098D01*
X106121544Y-110395672D01*
X106121539Y-110395672D01*
X106115087Y-110394300D01*
X105924113Y-110394300D01*
X105917661Y-110395672D01*
X105917656Y-110395672D01*
X105835676Y-110413098D01*
X105737312Y-110434006D01*
X105731282Y-110436691D01*
X105731281Y-110436691D01*
X105568878Y-110508997D01*
X105568876Y-110508998D01*
X105562848Y-110511682D01*
X105557507Y-110515562D01*
X105557506Y-110515563D01*
X105510288Y-110549869D01*
X105408347Y-110623934D01*
X105403929Y-110628841D01*
X105403925Y-110628845D01*
X105292851Y-110752206D01*
X105280560Y-110765856D01*
X105185073Y-110931244D01*
X105126058Y-111112872D01*
X105106096Y-111302800D01*
X105108982Y-111330255D01*
X105096211Y-111400091D01*
X105047709Y-111451939D01*
X104982943Y-111469423D01*
X104563269Y-111466994D01*
X104495265Y-111446598D01*
X104467843Y-111422423D01*
X103914259Y-110768709D01*
X103885501Y-110703797D01*
X103884919Y-110694958D01*
X103885104Y-110693200D01*
X103881886Y-110662580D01*
X103865832Y-110509835D01*
X103865832Y-110509833D01*
X103865142Y-110503272D01*
X103806127Y-110321644D01*
X103798629Y-110308656D01*
X103713942Y-110161975D01*
X103713941Y-110161974D01*
X103710640Y-110156256D01*
X103710746Y-110156195D01*
X103687856Y-110092042D01*
X103687653Y-110084141D01*
X103698885Y-108084601D01*
X110003461Y-108084601D01*
X110004151Y-108091166D01*
X110019820Y-108240245D01*
X110023423Y-108274529D01*
X110082438Y-108456157D01*
X110085741Y-108461879D01*
X110085742Y-108461880D01*
X110116622Y-108515365D01*
X110177925Y-108621545D01*
X110182343Y-108626452D01*
X110182344Y-108626453D01*
X110265233Y-108718511D01*
X110305712Y-108763467D01*
X110460213Y-108875719D01*
X110466241Y-108878403D01*
X110466243Y-108878404D01*
X110601469Y-108938610D01*
X110634677Y-108953395D01*
X110722169Y-108971992D01*
X110815021Y-108991729D01*
X110815026Y-108991729D01*
X110821478Y-108993101D01*
X111012452Y-108993101D01*
X111018904Y-108991729D01*
X111018909Y-108991729D01*
X111111761Y-108971992D01*
X111199253Y-108953395D01*
X111232461Y-108938610D01*
X111367687Y-108878404D01*
X111367689Y-108878403D01*
X111373717Y-108875719D01*
X111528218Y-108763467D01*
X111568697Y-108718511D01*
X111651586Y-108626453D01*
X111651587Y-108626452D01*
X111656005Y-108621545D01*
X111691769Y-108559600D01*
X114199296Y-108559600D01*
X114199986Y-108566165D01*
X114214579Y-108705006D01*
X114219258Y-108749528D01*
X114278273Y-108931156D01*
X114281576Y-108936878D01*
X114281577Y-108936879D01*
X114291113Y-108953395D01*
X114373760Y-109096544D01*
X114378178Y-109101451D01*
X114378179Y-109101452D01*
X114459303Y-109191549D01*
X114501547Y-109238466D01*
X114656048Y-109350718D01*
X114662076Y-109353402D01*
X114662078Y-109353403D01*
X114824481Y-109425709D01*
X114830512Y-109428394D01*
X114923912Y-109448247D01*
X115010856Y-109466728D01*
X115010861Y-109466728D01*
X115017313Y-109468100D01*
X115208287Y-109468100D01*
X115214739Y-109466728D01*
X115214744Y-109466728D01*
X115301687Y-109448247D01*
X115395088Y-109428394D01*
X115401119Y-109425709D01*
X115563522Y-109353403D01*
X115563524Y-109353402D01*
X115569552Y-109350718D01*
X115724053Y-109238466D01*
X115766297Y-109191549D01*
X115847421Y-109101452D01*
X115847422Y-109101451D01*
X115851840Y-109096544D01*
X115934487Y-108953395D01*
X115944023Y-108936879D01*
X115944024Y-108936878D01*
X115947327Y-108931156D01*
X116006342Y-108749528D01*
X116011022Y-108705006D01*
X116025614Y-108566165D01*
X116026304Y-108559600D01*
X116008605Y-108391200D01*
X116007032Y-108376235D01*
X116007032Y-108376233D01*
X116006342Y-108369672D01*
X115947327Y-108188044D01*
X115943099Y-108180720D01*
X115876590Y-108065525D01*
X115851840Y-108022656D01*
X115826849Y-107994900D01*
X115728475Y-107885645D01*
X115728474Y-107885644D01*
X115724053Y-107880734D01*
X115569552Y-107768482D01*
X115563524Y-107765798D01*
X115563522Y-107765797D01*
X115401119Y-107693491D01*
X115401118Y-107693491D01*
X115395088Y-107690806D01*
X115301687Y-107670953D01*
X115214744Y-107652472D01*
X115214739Y-107652472D01*
X115208287Y-107651100D01*
X115017313Y-107651100D01*
X115010861Y-107652472D01*
X115010856Y-107652472D01*
X114923913Y-107670953D01*
X114830512Y-107690806D01*
X114824482Y-107693491D01*
X114824481Y-107693491D01*
X114662078Y-107765797D01*
X114662076Y-107765798D01*
X114656048Y-107768482D01*
X114501547Y-107880734D01*
X114497126Y-107885644D01*
X114497125Y-107885645D01*
X114398752Y-107994900D01*
X114373760Y-108022656D01*
X114349010Y-108065525D01*
X114282502Y-108180720D01*
X114278273Y-108188044D01*
X114219258Y-108369672D01*
X114218568Y-108376233D01*
X114218568Y-108376235D01*
X114216995Y-108391200D01*
X114199296Y-108559600D01*
X111691769Y-108559600D01*
X111717308Y-108515365D01*
X111748188Y-108461880D01*
X111748189Y-108461879D01*
X111751492Y-108456157D01*
X111810507Y-108274529D01*
X111814111Y-108240245D01*
X111829779Y-108091166D01*
X111830469Y-108084601D01*
X111821989Y-108003920D01*
X111811197Y-107901236D01*
X111811197Y-107901234D01*
X111810507Y-107894673D01*
X111751492Y-107713045D01*
X111740203Y-107693491D01*
X111687240Y-107601757D01*
X111656005Y-107547657D01*
X111632868Y-107521960D01*
X111532640Y-107410646D01*
X111532639Y-107410645D01*
X111528218Y-107405735D01*
X111408864Y-107319019D01*
X111379059Y-107297364D01*
X111379058Y-107297363D01*
X111373717Y-107293483D01*
X111367689Y-107290799D01*
X111367687Y-107290798D01*
X111205284Y-107218492D01*
X111205283Y-107218492D01*
X111199253Y-107215807D01*
X111076261Y-107189664D01*
X111018909Y-107177473D01*
X111018904Y-107177473D01*
X111012452Y-107176101D01*
X110821478Y-107176101D01*
X110815026Y-107177473D01*
X110815021Y-107177473D01*
X110757669Y-107189664D01*
X110634677Y-107215807D01*
X110628647Y-107218492D01*
X110628646Y-107218492D01*
X110466243Y-107290798D01*
X110466241Y-107290799D01*
X110460213Y-107293483D01*
X110454872Y-107297363D01*
X110454871Y-107297364D01*
X110425066Y-107319019D01*
X110305712Y-107405735D01*
X110301291Y-107410645D01*
X110301290Y-107410646D01*
X110201063Y-107521960D01*
X110177925Y-107547657D01*
X110146690Y-107601757D01*
X110093728Y-107693491D01*
X110082438Y-107713045D01*
X110023423Y-107894673D01*
X110022733Y-107901234D01*
X110022733Y-107901236D01*
X110011941Y-108003920D01*
X110003461Y-108084601D01*
X103698885Y-108084601D01*
X103703077Y-107338389D01*
X103705967Y-106823886D01*
X104372550Y-106823886D01*
X104389243Y-106994136D01*
X104443240Y-107156456D01*
X104446887Y-107162478D01*
X104446888Y-107162480D01*
X104528206Y-107296754D01*
X104528209Y-107296757D01*
X104531856Y-107302780D01*
X104650689Y-107425834D01*
X104701953Y-107459380D01*
X104786903Y-107514970D01*
X104793830Y-107519503D01*
X104800434Y-107521959D01*
X104800436Y-107521960D01*
X104947557Y-107576674D01*
X104947559Y-107576674D01*
X104954167Y-107579132D01*
X105033254Y-107589685D01*
X105116749Y-107600826D01*
X105116753Y-107600826D01*
X105123730Y-107601757D01*
X105130741Y-107601119D01*
X105130745Y-107601119D01*
X105287073Y-107586892D01*
X105287075Y-107586892D01*
X105294092Y-107586253D01*
X105300790Y-107584077D01*
X105300793Y-107584076D01*
X105450089Y-107535566D01*
X105450091Y-107535565D01*
X105456785Y-107533390D01*
X105518816Y-107496412D01*
X105597672Y-107449405D01*
X105597674Y-107449404D01*
X105603724Y-107445797D01*
X105688276Y-107365280D01*
X105751400Y-107332788D01*
X105822071Y-107339581D01*
X105865802Y-107368997D01*
X105920689Y-107425834D01*
X105971953Y-107459380D01*
X106056903Y-107514970D01*
X106063830Y-107519503D01*
X106070434Y-107521959D01*
X106070436Y-107521960D01*
X106217557Y-107576674D01*
X106217559Y-107576674D01*
X106224167Y-107579132D01*
X106303254Y-107589685D01*
X106386749Y-107600826D01*
X106386753Y-107600826D01*
X106393730Y-107601757D01*
X106400741Y-107601119D01*
X106400745Y-107601119D01*
X106557073Y-107586892D01*
X106557075Y-107586892D01*
X106564092Y-107586253D01*
X106570790Y-107584077D01*
X106570793Y-107584076D01*
X106720089Y-107535566D01*
X106720091Y-107535565D01*
X106726785Y-107533390D01*
X106788816Y-107496412D01*
X106867672Y-107449405D01*
X106867674Y-107449404D01*
X106873724Y-107445797D01*
X106958276Y-107365280D01*
X107021400Y-107332788D01*
X107092071Y-107339581D01*
X107135802Y-107368997D01*
X107190689Y-107425834D01*
X107241953Y-107459380D01*
X107326903Y-107514970D01*
X107333830Y-107519503D01*
X107340434Y-107521959D01*
X107340436Y-107521960D01*
X107487557Y-107576674D01*
X107487559Y-107576674D01*
X107494167Y-107579132D01*
X107573254Y-107589685D01*
X107656749Y-107600826D01*
X107656753Y-107600826D01*
X107663730Y-107601757D01*
X107670741Y-107601119D01*
X107670745Y-107601119D01*
X107827073Y-107586892D01*
X107827075Y-107586892D01*
X107834092Y-107586253D01*
X107840790Y-107584077D01*
X107840793Y-107584076D01*
X107990089Y-107535566D01*
X107990091Y-107535565D01*
X107996785Y-107533390D01*
X108058816Y-107496412D01*
X108137672Y-107449405D01*
X108137674Y-107449404D01*
X108143724Y-107445797D01*
X108267605Y-107327827D01*
X108274720Y-107317119D01*
X108342942Y-107214435D01*
X108362271Y-107185343D01*
X108423018Y-107025426D01*
X108425587Y-107007149D01*
X108446275Y-106859947D01*
X108446275Y-106859944D01*
X108446826Y-106856025D01*
X108447125Y-106834600D01*
X108428056Y-106664600D01*
X108420297Y-106642317D01*
X108374114Y-106509697D01*
X108374113Y-106509695D01*
X108371799Y-106503050D01*
X108355123Y-106476362D01*
X108284881Y-106363952D01*
X108281148Y-106357978D01*
X108267959Y-106344696D01*
X108190412Y-106266606D01*
X108160609Y-106236594D01*
X108068121Y-106177900D01*
X108022116Y-106148704D01*
X108022113Y-106148702D01*
X108016173Y-106144933D01*
X108005226Y-106141035D01*
X107861654Y-106089911D01*
X107861649Y-106089910D01*
X107855019Y-106087549D01*
X107848031Y-106086716D01*
X107848028Y-106086715D01*
X107711204Y-106070400D01*
X107685157Y-106067294D01*
X107678154Y-106068030D01*
X107678153Y-106068030D01*
X107633758Y-106072696D01*
X107515028Y-106085175D01*
X107504871Y-106088633D01*
X107359756Y-106138034D01*
X107359753Y-106138035D01*
X107353089Y-106140304D01*
X107207388Y-106229940D01*
X107202357Y-106234867D01*
X107202354Y-106234869D01*
X107132833Y-106302949D01*
X107070168Y-106336319D01*
X106999409Y-106330513D01*
X106955271Y-106301709D01*
X106890609Y-106236594D01*
X106798121Y-106177900D01*
X106752116Y-106148704D01*
X106752113Y-106148702D01*
X106746173Y-106144933D01*
X106735226Y-106141035D01*
X106591654Y-106089911D01*
X106591649Y-106089910D01*
X106585019Y-106087549D01*
X106578031Y-106086716D01*
X106578028Y-106086715D01*
X106441204Y-106070400D01*
X106415157Y-106067294D01*
X106408154Y-106068030D01*
X106408153Y-106068030D01*
X106363758Y-106072696D01*
X106245028Y-106085175D01*
X106234871Y-106088633D01*
X106089756Y-106138034D01*
X106089753Y-106138035D01*
X106083089Y-106140304D01*
X105937388Y-106229940D01*
X105932357Y-106234867D01*
X105932354Y-106234869D01*
X105862833Y-106302949D01*
X105800168Y-106336319D01*
X105729409Y-106330513D01*
X105685271Y-106301709D01*
X105620609Y-106236594D01*
X105528121Y-106177900D01*
X105482116Y-106148704D01*
X105482113Y-106148702D01*
X105476173Y-106144933D01*
X105465226Y-106141035D01*
X105321654Y-106089911D01*
X105321649Y-106089910D01*
X105315019Y-106087549D01*
X105308031Y-106086716D01*
X105308028Y-106086715D01*
X105171204Y-106070400D01*
X105145157Y-106067294D01*
X105138154Y-106068030D01*
X105138153Y-106068030D01*
X105093758Y-106072696D01*
X104975028Y-106085175D01*
X104964871Y-106088633D01*
X104819756Y-106138034D01*
X104819753Y-106138035D01*
X104813089Y-106140304D01*
X104667388Y-106229940D01*
X104662357Y-106234867D01*
X104662354Y-106234869D01*
X104607794Y-106288298D01*
X104545166Y-106349628D01*
X104541347Y-106355553D01*
X104541346Y-106355555D01*
X104535935Y-106363952D01*
X104452498Y-106493420D01*
X104450087Y-106500043D01*
X104450086Y-106500046D01*
X104396400Y-106647547D01*
X104396399Y-106647552D01*
X104393990Y-106654170D01*
X104372550Y-106823886D01*
X103705967Y-106823886D01*
X103726895Y-103098357D01*
X103747279Y-103030351D01*
X103801195Y-102984160D01*
X103852893Y-102973066D01*
X104024921Y-102973066D01*
X104031373Y-102971694D01*
X104031378Y-102971694D01*
X104118321Y-102953213D01*
X104211722Y-102933360D01*
X104251192Y-102915787D01*
X104380156Y-102858369D01*
X104380158Y-102858368D01*
X104386186Y-102855684D01*
X104394361Y-102849745D01*
X104456987Y-102804244D01*
X104540687Y-102743432D01*
X104588730Y-102690075D01*
X104664055Y-102606418D01*
X104664056Y-102606417D01*
X104668474Y-102601510D01*
X104763961Y-102436122D01*
X104822976Y-102254494D01*
X104835119Y-102138965D01*
X104842248Y-102071131D01*
X104842938Y-102064566D01*
X104840553Y-102041871D01*
X104823666Y-101881201D01*
X104823666Y-101881199D01*
X104822976Y-101874638D01*
X104763961Y-101693010D01*
X104735393Y-101643528D01*
X104686061Y-101558084D01*
X104676155Y-101540926D01*
X104659417Y-101471931D01*
X104682637Y-101404839D01*
X104738444Y-101360952D01*
X104809119Y-101354203D01*
X104836523Y-101362819D01*
X104895370Y-101389019D01*
X104924512Y-101401994D01*
X105017913Y-101421847D01*
X105104856Y-101440328D01*
X105104861Y-101440328D01*
X105111313Y-101441700D01*
X105302287Y-101441700D01*
X105308739Y-101440328D01*
X105308744Y-101440328D01*
X105395688Y-101421847D01*
X105489088Y-101401994D01*
X105495119Y-101399309D01*
X105657522Y-101327003D01*
X105657524Y-101327002D01*
X105663552Y-101324318D01*
X105818053Y-101212066D01*
X105835389Y-101192813D01*
X105930837Y-101086806D01*
X105938625Y-101078157D01*
X105999071Y-101040917D01*
X106031754Y-101036468D01*
X110045455Y-101020381D01*
X110113654Y-101040110D01*
X110160362Y-101093579D01*
X110171269Y-101159550D01*
X110167773Y-101192813D01*
X110168463Y-101199378D01*
X110184736Y-101354203D01*
X110187735Y-101382741D01*
X110246750Y-101564369D01*
X110342237Y-101729757D01*
X110470024Y-101871679D01*
X110489464Y-101885803D01*
X110608858Y-101972548D01*
X110624525Y-101983931D01*
X110630561Y-101986618D01*
X110630562Y-101986619D01*
X110651386Y-101995891D01*
X110705482Y-102041871D01*
X110726131Y-102109798D01*
X110719971Y-102149930D01*
X110683956Y-102260772D01*
X110683049Y-102263563D01*
X110642975Y-102322168D01*
X110589413Y-102347873D01*
X110567611Y-102352507D01*
X110561584Y-102355190D01*
X110561585Y-102355190D01*
X110399177Y-102427498D01*
X110399175Y-102427499D01*
X110393147Y-102430183D01*
X110387806Y-102434063D01*
X110387805Y-102434064D01*
X110337742Y-102470437D01*
X110238646Y-102542435D01*
X110234225Y-102547345D01*
X110234224Y-102547346D01*
X110181036Y-102606418D01*
X110110859Y-102684357D01*
X110015372Y-102849745D01*
X109956357Y-103031373D01*
X109955667Y-103037934D01*
X109955667Y-103037936D01*
X109944162Y-103147398D01*
X109936395Y-103221301D01*
X109937085Y-103227866D01*
X109955529Y-103403348D01*
X109956357Y-103411229D01*
X110015372Y-103592857D01*
X110018675Y-103598579D01*
X110018676Y-103598580D01*
X110037971Y-103632000D01*
X110110859Y-103758245D01*
X110115277Y-103763152D01*
X110115278Y-103763153D01*
X110161902Y-103814934D01*
X110238646Y-103900167D01*
X110267308Y-103920991D01*
X110374847Y-103999123D01*
X110393147Y-104012419D01*
X110399175Y-104015103D01*
X110399177Y-104015104D01*
X110561580Y-104087410D01*
X110567611Y-104090095D01*
X110652948Y-104108234D01*
X110747955Y-104128429D01*
X110747960Y-104128429D01*
X110754412Y-104129801D01*
X110945386Y-104129801D01*
X110951838Y-104128429D01*
X110951843Y-104128429D01*
X111046850Y-104108234D01*
X111132187Y-104090095D01*
X111138218Y-104087410D01*
X111300621Y-104015104D01*
X111300623Y-104015103D01*
X111306651Y-104012419D01*
X111329275Y-103995982D01*
X111360258Y-103973471D01*
X111427125Y-103949613D01*
X111496277Y-103965693D01*
X111545757Y-104016607D01*
X111559871Y-104073598D01*
X111559629Y-104075900D01*
X111579591Y-104265828D01*
X111638606Y-104447456D01*
X111734093Y-104612844D01*
X111861880Y-104754766D01*
X112016381Y-104867018D01*
X112022409Y-104869702D01*
X112022411Y-104869703D01*
X112083286Y-104896806D01*
X112190845Y-104944694D01*
X112284246Y-104964547D01*
X112371189Y-104983028D01*
X112371194Y-104983028D01*
X112377646Y-104984400D01*
X112568620Y-104984400D01*
X112575075Y-104983028D01*
X112575084Y-104983027D01*
X112625863Y-104972233D01*
X112696654Y-104977634D01*
X112753287Y-105020450D01*
X112771894Y-105056541D01*
X112805073Y-105158656D01*
X112900560Y-105324044D01*
X112904978Y-105328951D01*
X112904979Y-105328952D01*
X113002388Y-105437136D01*
X113028347Y-105465966D01*
X113062546Y-105490813D01*
X113177245Y-105574147D01*
X113182848Y-105578218D01*
X113188876Y-105580902D01*
X113188878Y-105580903D01*
X113334043Y-105645534D01*
X113357312Y-105655894D01*
X113450712Y-105675747D01*
X113537656Y-105694228D01*
X113537661Y-105694228D01*
X113544113Y-105695600D01*
X113735087Y-105695600D01*
X113741539Y-105694228D01*
X113741544Y-105694228D01*
X113828487Y-105675747D01*
X113921888Y-105655894D01*
X113945157Y-105645534D01*
X114090322Y-105580903D01*
X114090324Y-105580902D01*
X114096352Y-105578218D01*
X114101956Y-105574147D01*
X114216654Y-105490813D01*
X114250853Y-105465966D01*
X114307965Y-105402536D01*
X114368410Y-105365298D01*
X114439394Y-105366650D01*
X114495234Y-105402536D01*
X114552347Y-105465966D01*
X114586546Y-105490813D01*
X114701245Y-105574147D01*
X114706848Y-105578218D01*
X114712876Y-105580902D01*
X114712878Y-105580903D01*
X114858043Y-105645534D01*
X114881312Y-105655894D01*
X114974712Y-105675747D01*
X115061656Y-105694228D01*
X115061661Y-105694228D01*
X115068113Y-105695600D01*
X115259087Y-105695600D01*
X115265539Y-105694228D01*
X115265544Y-105694228D01*
X115352487Y-105675747D01*
X115445888Y-105655894D01*
X115469157Y-105645534D01*
X115614322Y-105580903D01*
X115614324Y-105580902D01*
X115620352Y-105578218D01*
X115625956Y-105574147D01*
X115740654Y-105490813D01*
X115774853Y-105465966D01*
X115800812Y-105437136D01*
X115898221Y-105328952D01*
X115898222Y-105328951D01*
X115902640Y-105324044D01*
X115998127Y-105158656D01*
X116057142Y-104977028D01*
X116060541Y-104944694D01*
X116076414Y-104793665D01*
X116077104Y-104787100D01*
X116057142Y-104597172D01*
X115998127Y-104415544D01*
X115902640Y-104250156D01*
X115872017Y-104216145D01*
X115779275Y-104113145D01*
X115779271Y-104113141D01*
X115774853Y-104108234D01*
X115643551Y-104012837D01*
X115625694Y-103999863D01*
X115625693Y-103999862D01*
X115620352Y-103995982D01*
X115614324Y-103993298D01*
X115614322Y-103993297D01*
X115451919Y-103920991D01*
X115451918Y-103920991D01*
X115445888Y-103918306D01*
X115337447Y-103895256D01*
X115265544Y-103879972D01*
X115265539Y-103879972D01*
X115259087Y-103878600D01*
X115068113Y-103878600D01*
X115061661Y-103879972D01*
X115061656Y-103879972D01*
X114989753Y-103895256D01*
X114881312Y-103918306D01*
X114875282Y-103920991D01*
X114875281Y-103920991D01*
X114712878Y-103993297D01*
X114712876Y-103993298D01*
X114706848Y-103995982D01*
X114701507Y-103999862D01*
X114701506Y-103999863D01*
X114683649Y-104012837D01*
X114552347Y-104108234D01*
X114495235Y-104171664D01*
X114434790Y-104208902D01*
X114363806Y-104207550D01*
X114307966Y-104171664D01*
X114250853Y-104108234D01*
X114119551Y-104012837D01*
X114101694Y-103999863D01*
X114101693Y-103999862D01*
X114096352Y-103995982D01*
X114090324Y-103993298D01*
X114090322Y-103993297D01*
X113927919Y-103920991D01*
X113927918Y-103920991D01*
X113921888Y-103918306D01*
X113813447Y-103895256D01*
X113741544Y-103879972D01*
X113741539Y-103879972D01*
X113735087Y-103878600D01*
X113544113Y-103878600D01*
X113537658Y-103879972D01*
X113537649Y-103879973D01*
X113486870Y-103890767D01*
X113416079Y-103885366D01*
X113359446Y-103842550D01*
X113340839Y-103806458D01*
X113326570Y-103762544D01*
X113307660Y-103704344D01*
X113212173Y-103538956D01*
X113084386Y-103397034D01*
X112929885Y-103284782D01*
X112923857Y-103282098D01*
X112923855Y-103282097D01*
X112796960Y-103225600D01*
X118974496Y-103225600D01*
X118975186Y-103232165D01*
X118991060Y-103383194D01*
X118994458Y-103415528D01*
X119053473Y-103597156D01*
X119056776Y-103602878D01*
X119056777Y-103602879D01*
X119073590Y-103632000D01*
X119148960Y-103762544D01*
X119153378Y-103767451D01*
X119153379Y-103767452D01*
X119254693Y-103879973D01*
X119276747Y-103904466D01*
X119299492Y-103920991D01*
X119407031Y-103999123D01*
X119431248Y-104016718D01*
X119437276Y-104019402D01*
X119437278Y-104019403D01*
X119599681Y-104091709D01*
X119605712Y-104094394D01*
X119670824Y-104108234D01*
X119786056Y-104132728D01*
X119786061Y-104132728D01*
X119792513Y-104134100D01*
X119983487Y-104134100D01*
X119989939Y-104132728D01*
X119989944Y-104132728D01*
X120105176Y-104108234D01*
X120170288Y-104094394D01*
X120176319Y-104091709D01*
X120338722Y-104019403D01*
X120338724Y-104019402D01*
X120344752Y-104016718D01*
X120368970Y-103999123D01*
X120476508Y-103920991D01*
X120499253Y-103904466D01*
X120521307Y-103879973D01*
X120622621Y-103767452D01*
X120622622Y-103767451D01*
X120627040Y-103762544D01*
X120702410Y-103632000D01*
X120719223Y-103602879D01*
X120719224Y-103602878D01*
X120722527Y-103597156D01*
X120781542Y-103415528D01*
X120784941Y-103383194D01*
X120800814Y-103232165D01*
X120801504Y-103225600D01*
X120791904Y-103134257D01*
X120782232Y-103042235D01*
X120782232Y-103042233D01*
X120781542Y-103035672D01*
X120722527Y-102854044D01*
X120627040Y-102688656D01*
X120581744Y-102638349D01*
X120503675Y-102551645D01*
X120503674Y-102551644D01*
X120499253Y-102546734D01*
X120400157Y-102474736D01*
X120350094Y-102438363D01*
X120350093Y-102438362D01*
X120344752Y-102434482D01*
X120338724Y-102431798D01*
X120338722Y-102431797D01*
X120176319Y-102359491D01*
X120176318Y-102359491D01*
X120170288Y-102356806D01*
X120057721Y-102332879D01*
X119989944Y-102318472D01*
X119989939Y-102318472D01*
X119983487Y-102317100D01*
X119792513Y-102317100D01*
X119786061Y-102318472D01*
X119786056Y-102318472D01*
X119718279Y-102332879D01*
X119605712Y-102356806D01*
X119599682Y-102359491D01*
X119599681Y-102359491D01*
X119437278Y-102431797D01*
X119437276Y-102431798D01*
X119431248Y-102434482D01*
X119425907Y-102438362D01*
X119425906Y-102438363D01*
X119375843Y-102474736D01*
X119276747Y-102546734D01*
X119272326Y-102551644D01*
X119272325Y-102551645D01*
X119194257Y-102638349D01*
X119148960Y-102688656D01*
X119053473Y-102854044D01*
X118994458Y-103035672D01*
X118993768Y-103042233D01*
X118993768Y-103042235D01*
X118984096Y-103134257D01*
X118974496Y-103225600D01*
X112796960Y-103225600D01*
X112761452Y-103209791D01*
X112761451Y-103209791D01*
X112755421Y-103207106D01*
X112662020Y-103187253D01*
X112575077Y-103168772D01*
X112575072Y-103168772D01*
X112568620Y-103167400D01*
X112447073Y-103167400D01*
X112378952Y-103147398D01*
X112332459Y-103093742D01*
X112322355Y-103023468D01*
X112337954Y-102978400D01*
X112388023Y-102891679D01*
X112388024Y-102891678D01*
X112391327Y-102885956D01*
X112450342Y-102704328D01*
X112461149Y-102601510D01*
X112469614Y-102520965D01*
X112470304Y-102514400D01*
X112461904Y-102434482D01*
X112451032Y-102331035D01*
X112451032Y-102331033D01*
X112450342Y-102324472D01*
X112391327Y-102142844D01*
X112295840Y-101977456D01*
X112287917Y-101968656D01*
X112172475Y-101840445D01*
X112172474Y-101840444D01*
X112168053Y-101835534D01*
X112063256Y-101759394D01*
X112018894Y-101727163D01*
X112018893Y-101727162D01*
X112013552Y-101723282D01*
X112007515Y-101720594D01*
X111986691Y-101711322D01*
X111932595Y-101665342D01*
X111911946Y-101597415D01*
X111918106Y-101557283D01*
X111974819Y-101382741D01*
X111977819Y-101354203D01*
X111994091Y-101199378D01*
X111994781Y-101192813D01*
X111990413Y-101151255D01*
X112003185Y-101081416D01*
X112051687Y-101029569D01*
X112115215Y-101012086D01*
X112772658Y-101009451D01*
X112857428Y-101009111D01*
X112925628Y-101028840D01*
X112972336Y-101082309D01*
X112983243Y-101121939D01*
X113000058Y-101281928D01*
X113059073Y-101463556D01*
X113154560Y-101628944D01*
X113158978Y-101633851D01*
X113158979Y-101633852D01*
X113277670Y-101765672D01*
X113282347Y-101770866D01*
X113307959Y-101789474D01*
X113421104Y-101871679D01*
X113436848Y-101883118D01*
X113442876Y-101885802D01*
X113442878Y-101885803D01*
X113598107Y-101954915D01*
X113611312Y-101960794D01*
X113701904Y-101980050D01*
X113791656Y-101999128D01*
X113791661Y-101999128D01*
X113798113Y-102000500D01*
X113989087Y-102000500D01*
X113995539Y-101999128D01*
X113995544Y-101999128D01*
X114085296Y-101980050D01*
X114175888Y-101960794D01*
X114189093Y-101954915D01*
X114344322Y-101885803D01*
X114344324Y-101885802D01*
X114350352Y-101883118D01*
X114366097Y-101871679D01*
X114479241Y-101789474D01*
X114504853Y-101770866D01*
X114509530Y-101765672D01*
X114628221Y-101633852D01*
X114628222Y-101633851D01*
X114632640Y-101628944D01*
X114728127Y-101463556D01*
X114787142Y-101281928D01*
X114800576Y-101154106D01*
X114827589Y-101088450D01*
X114885810Y-101047820D01*
X114956755Y-101045117D01*
X114977134Y-101052170D01*
X115129277Y-101119908D01*
X115129285Y-101119911D01*
X115135312Y-101122594D01*
X115228713Y-101142447D01*
X115315656Y-101160928D01*
X115315661Y-101160928D01*
X115322113Y-101162300D01*
X115513087Y-101162300D01*
X115519539Y-101160928D01*
X115519544Y-101160928D01*
X115606488Y-101142447D01*
X115699888Y-101122594D01*
X115746882Y-101101671D01*
X115868322Y-101047603D01*
X115868324Y-101047602D01*
X115874352Y-101044918D01*
X115885983Y-101036468D01*
X115907750Y-101020653D01*
X115981304Y-100996590D01*
X116005703Y-100996493D01*
X116073901Y-101016220D01*
X116120609Y-101069689D01*
X116131516Y-101109318D01*
X116149658Y-101281928D01*
X116208673Y-101463556D01*
X116304160Y-101628944D01*
X116308578Y-101633851D01*
X116308579Y-101633852D01*
X116427270Y-101765672D01*
X116431947Y-101770866D01*
X116457559Y-101789474D01*
X116570704Y-101871679D01*
X116586448Y-101883118D01*
X116592476Y-101885802D01*
X116592478Y-101885803D01*
X116747707Y-101954915D01*
X116760912Y-101960794D01*
X116851504Y-101980050D01*
X116941256Y-101999128D01*
X116941261Y-101999128D01*
X116947713Y-102000500D01*
X117138687Y-102000500D01*
X117145139Y-101999128D01*
X117145144Y-101999128D01*
X117234896Y-101980050D01*
X117325488Y-101960794D01*
X117338693Y-101954915D01*
X117493922Y-101885803D01*
X117493924Y-101885802D01*
X117499952Y-101883118D01*
X117515697Y-101871679D01*
X117628841Y-101789474D01*
X117654453Y-101770866D01*
X117659130Y-101765672D01*
X117777821Y-101633852D01*
X117777822Y-101633851D01*
X117782240Y-101628944D01*
X117877727Y-101463556D01*
X117936742Y-101281928D01*
X117938245Y-101267626D01*
X117955758Y-101101004D01*
X117982771Y-101035348D01*
X118040993Y-100994718D01*
X118080560Y-100988177D01*
X126137266Y-100955885D01*
X126205466Y-100975614D01*
X126252174Y-101029083D01*
X126262559Y-101099316D01*
X126233325Y-101164014D01*
X126211833Y-101183819D01*
X126199454Y-101192813D01*
X126094877Y-101268793D01*
X126083947Y-101276734D01*
X126079526Y-101281644D01*
X126079525Y-101281645D01*
X125971163Y-101401994D01*
X125956160Y-101418656D01*
X125860673Y-101584044D01*
X125801658Y-101765672D01*
X125800968Y-101772233D01*
X125800968Y-101772235D01*
X125783662Y-101936895D01*
X125781696Y-101955600D01*
X125782386Y-101962165D01*
X125797903Y-102109798D01*
X125801658Y-102145528D01*
X125860673Y-102327156D01*
X125863976Y-102332878D01*
X125863977Y-102332879D01*
X125876858Y-102355190D01*
X125956160Y-102492544D01*
X125960578Y-102497451D01*
X125960579Y-102497452D01*
X126003332Y-102544934D01*
X126083947Y-102634466D01*
X126145861Y-102679449D01*
X126214231Y-102729123D01*
X126238448Y-102746718D01*
X126244476Y-102749402D01*
X126244478Y-102749403D01*
X126367654Y-102804244D01*
X126412912Y-102824394D01*
X126505254Y-102844022D01*
X126593256Y-102862728D01*
X126593261Y-102862728D01*
X126599713Y-102864100D01*
X126790687Y-102864100D01*
X126797139Y-102862728D01*
X126797144Y-102862728D01*
X126885146Y-102844022D01*
X126977488Y-102824394D01*
X127022746Y-102804244D01*
X127145922Y-102749403D01*
X127145924Y-102749402D01*
X127151952Y-102746718D01*
X127176170Y-102729123D01*
X127244539Y-102679449D01*
X127306453Y-102634466D01*
X127387068Y-102544934D01*
X127429821Y-102497452D01*
X127429822Y-102497451D01*
X127434240Y-102492544D01*
X127513542Y-102355190D01*
X127526423Y-102332879D01*
X127526424Y-102332878D01*
X127529727Y-102327156D01*
X127588742Y-102145528D01*
X127592498Y-102109798D01*
X127608014Y-101962165D01*
X127608704Y-101955600D01*
X127606738Y-101936895D01*
X127589432Y-101772235D01*
X127589432Y-101772233D01*
X127588742Y-101765672D01*
X127529727Y-101584044D01*
X127434240Y-101418656D01*
X127419238Y-101401994D01*
X127310875Y-101281645D01*
X127310874Y-101281644D01*
X127306453Y-101276734D01*
X127181910Y-101186248D01*
X127172452Y-101179376D01*
X127129098Y-101123153D01*
X127123023Y-101052417D01*
X127156155Y-100989626D01*
X127217975Y-100954714D01*
X127246006Y-100951441D01*
X128400204Y-100946815D01*
X130182283Y-100939673D01*
X130182284Y-100939673D01*
X130200400Y-100939600D01*
X130533236Y-100659317D01*
X130663327Y-100549767D01*
X130728317Y-100521188D01*
X130798442Y-100532282D01*
X130851436Y-100579527D01*
X130870475Y-100647923D01*
X130869798Y-100659309D01*
X130861696Y-100736400D01*
X130862386Y-100742965D01*
X130879109Y-100902072D01*
X130881658Y-100926328D01*
X130940673Y-101107956D01*
X130943976Y-101113678D01*
X130943977Y-101113679D01*
X130947574Y-101119909D01*
X131036160Y-101273344D01*
X131040578Y-101278251D01*
X131040579Y-101278252D01*
X131128752Y-101376178D01*
X131163947Y-101415266D01*
X131318448Y-101527518D01*
X131324476Y-101530202D01*
X131324478Y-101530203D01*
X131467994Y-101594100D01*
X131492912Y-101605194D01*
X131586312Y-101625047D01*
X131673256Y-101643528D01*
X131673261Y-101643528D01*
X131679713Y-101644900D01*
X131870687Y-101644900D01*
X131877139Y-101643528D01*
X131877144Y-101643528D01*
X131964088Y-101625047D01*
X132057488Y-101605194D01*
X132082406Y-101594100D01*
X132225922Y-101530203D01*
X132225924Y-101530202D01*
X132231952Y-101527518D01*
X132386453Y-101415266D01*
X132421648Y-101376178D01*
X132509821Y-101278252D01*
X132509822Y-101278251D01*
X132514240Y-101273344D01*
X132602826Y-101119909D01*
X132606423Y-101113679D01*
X132606424Y-101113678D01*
X132609727Y-101107956D01*
X132668742Y-100926328D01*
X132671292Y-100902072D01*
X132688014Y-100742965D01*
X132688704Y-100736400D01*
X132668742Y-100546472D01*
X132609727Y-100364844D01*
X132597273Y-100343272D01*
X132552145Y-100265109D01*
X132514240Y-100199456D01*
X132453612Y-100132121D01*
X132390875Y-100062445D01*
X132390874Y-100062444D01*
X132386453Y-100057534D01*
X132246367Y-99955755D01*
X132237294Y-99949163D01*
X132237293Y-99949162D01*
X132231952Y-99945282D01*
X132225924Y-99942598D01*
X132225922Y-99942597D01*
X132063519Y-99870291D01*
X132063518Y-99870291D01*
X132057488Y-99867606D01*
X131937394Y-99842079D01*
X131877144Y-99829272D01*
X131877139Y-99829272D01*
X131870687Y-99827900D01*
X131679713Y-99827900D01*
X131673261Y-99829272D01*
X131673256Y-99829272D01*
X131613006Y-99842079D01*
X131492912Y-99867606D01*
X131486882Y-99870291D01*
X131486881Y-99870291D01*
X131339716Y-99935813D01*
X131269349Y-99945247D01*
X131205052Y-99915141D01*
X131167238Y-99855052D01*
X131162474Y-99821998D01*
X131142611Y-97885342D01*
X131161913Y-97817020D01*
X131215089Y-97769979D01*
X131285256Y-97759155D01*
X131319850Y-97768942D01*
X131492912Y-97845994D01*
X131586313Y-97865847D01*
X131673256Y-97884328D01*
X131673261Y-97884328D01*
X131679713Y-97885700D01*
X131870687Y-97885700D01*
X131877139Y-97884328D01*
X131877144Y-97884328D01*
X131964088Y-97865847D01*
X132057488Y-97845994D01*
X132122565Y-97817020D01*
X132225922Y-97771003D01*
X132225924Y-97771002D01*
X132231952Y-97768318D01*
X132386453Y-97656066D01*
X132414254Y-97625190D01*
X132509821Y-97519052D01*
X132509822Y-97519051D01*
X132514240Y-97514144D01*
X132572514Y-97413210D01*
X132606423Y-97354479D01*
X132606424Y-97354478D01*
X132609727Y-97348756D01*
X132668742Y-97167128D01*
X132675588Y-97101991D01*
X132702601Y-97036334D01*
X132760823Y-96995704D01*
X132774701Y-96991915D01*
X132813022Y-96983769D01*
X132813027Y-96983767D01*
X132819488Y-96982394D01*
X132897132Y-96947825D01*
X132987922Y-96907403D01*
X132987924Y-96907402D01*
X132993952Y-96904718D01*
X133148453Y-96792466D01*
X133276240Y-96650544D01*
X133371727Y-96485156D01*
X133430742Y-96303528D01*
X133432746Y-96284466D01*
X133450014Y-96120165D01*
X133450704Y-96113600D01*
X133447157Y-96079853D01*
X133431432Y-95930235D01*
X133431432Y-95930233D01*
X133430742Y-95923672D01*
X133371727Y-95742044D01*
X133276240Y-95576656D01*
X133167182Y-95455534D01*
X133152875Y-95439645D01*
X133152874Y-95439644D01*
X133148453Y-95434734D01*
X133010703Y-95334652D01*
X132999294Y-95326363D01*
X132999293Y-95326362D01*
X132993952Y-95322482D01*
X132987924Y-95319798D01*
X132987922Y-95319797D01*
X132825519Y-95247491D01*
X132825518Y-95247491D01*
X132819488Y-95244806D01*
X132726088Y-95224953D01*
X132639144Y-95206472D01*
X132639139Y-95206472D01*
X132632687Y-95205100D01*
X132441713Y-95205100D01*
X132435261Y-95206472D01*
X132435256Y-95206472D01*
X132348312Y-95224953D01*
X132254912Y-95244806D01*
X132248882Y-95247491D01*
X132248881Y-95247491D01*
X132086478Y-95319797D01*
X132086476Y-95319798D01*
X132080448Y-95322482D01*
X132075107Y-95326362D01*
X132075106Y-95326363D01*
X132063697Y-95334652D01*
X131925947Y-95434734D01*
X131921526Y-95439644D01*
X131921525Y-95439645D01*
X131907219Y-95455534D01*
X131798160Y-95576656D01*
X131702673Y-95742044D01*
X131643658Y-95923672D01*
X131642968Y-95930233D01*
X131642968Y-95930235D01*
X131636812Y-95988809D01*
X131609799Y-96054466D01*
X131551577Y-96095096D01*
X131537699Y-96098885D01*
X131499378Y-96107031D01*
X131499373Y-96107033D01*
X131492912Y-96108406D01*
X131486882Y-96111091D01*
X131486881Y-96111091D01*
X131390935Y-96153809D01*
X131318448Y-96186082D01*
X131313109Y-96189961D01*
X131244114Y-96206699D01*
X131177022Y-96183479D01*
X131133135Y-96127672D01*
X131124116Y-96082134D01*
X131123417Y-96013968D01*
X131064640Y-90283223D01*
X131083942Y-90214902D01*
X131113276Y-90182474D01*
X131151105Y-90153052D01*
X131943818Y-89536497D01*
X132009870Y-89510463D01*
X132022206Y-89509959D01*
X136432037Y-89546105D01*
G37*
G04 #@! TD.AperFunction*
M02*
