G04 #@! TF.GenerationSoftware,KiCad,Pcbnew,6.0.11-2627ca5db0~126~ubuntu20.04.1*
G04 #@! TF.CreationDate,2024-01-15T23:09:37+09:00*
G04 #@! TF.ProjectId,motor_driver,6d6f746f-725f-4647-9269-7665722e6b69,rev?*
G04 #@! TF.SameCoordinates,Original*
G04 #@! TF.FileFunction,Copper,L1,Top*
G04 #@! TF.FilePolarity,Positive*
%FSLAX46Y46*%
G04 Gerber Fmt 4.6, Leading zero omitted, Abs format (unit mm)*
G04 Created by KiCad (PCBNEW 6.0.11-2627ca5db0~126~ubuntu20.04.1) date 2024-01-15 23:09:37*
%MOMM*%
%LPD*%
G01*
G04 APERTURE LIST*
G04 Aperture macros list*
%AMRoundRect*
0 Rectangle with rounded corners*
0 $1 Rounding radius*
0 $2 $3 $4 $5 $6 $7 $8 $9 X,Y pos of 4 corners*
0 Add a 4 corners polygon primitive as box body*
4,1,4,$2,$3,$4,$5,$6,$7,$8,$9,$2,$3,0*
0 Add four circle primitives for the rounded corners*
1,1,$1+$1,$2,$3*
1,1,$1+$1,$4,$5*
1,1,$1+$1,$6,$7*
1,1,$1+$1,$8,$9*
0 Add four rect primitives between the rounded corners*
20,1,$1+$1,$2,$3,$4,$5,0*
20,1,$1+$1,$4,$5,$6,$7,0*
20,1,$1+$1,$6,$7,$8,$9,0*
20,1,$1+$1,$8,$9,$2,$3,0*%
G04 Aperture macros list end*
G04 #@! TA.AperFunction,SMDPad,CuDef*
%ADD10RoundRect,0.225000X-0.225000X-0.250000X0.225000X-0.250000X0.225000X0.250000X-0.225000X0.250000X0*%
G04 #@! TD*
G04 #@! TA.AperFunction,SMDPad,CuDef*
%ADD11RoundRect,0.147500X0.172500X-0.147500X0.172500X0.147500X-0.172500X0.147500X-0.172500X-0.147500X0*%
G04 #@! TD*
G04 #@! TA.AperFunction,SMDPad,CuDef*
%ADD12RoundRect,0.250000X-1.000000X1.950000X-1.000000X-1.950000X1.000000X-1.950000X1.000000X1.950000X0*%
G04 #@! TD*
G04 #@! TA.AperFunction,SMDPad,CuDef*
%ADD13RoundRect,0.249999X0.450001X1.075001X-0.450001X1.075001X-0.450001X-1.075001X0.450001X-1.075001X0*%
G04 #@! TD*
G04 #@! TA.AperFunction,SMDPad,CuDef*
%ADD14RoundRect,0.075000X-0.662500X-0.075000X0.662500X-0.075000X0.662500X0.075000X-0.662500X0.075000X0*%
G04 #@! TD*
G04 #@! TA.AperFunction,SMDPad,CuDef*
%ADD15RoundRect,0.075000X-0.075000X-0.662500X0.075000X-0.662500X0.075000X0.662500X-0.075000X0.662500X0*%
G04 #@! TD*
G04 #@! TA.AperFunction,ComponentPad*
%ADD16C,3.600000*%
G04 #@! TD*
G04 #@! TA.AperFunction,ConnectorPad*
%ADD17C,6.400000*%
G04 #@! TD*
G04 #@! TA.AperFunction,SMDPad,CuDef*
%ADD18RoundRect,0.155000X-0.212500X-0.155000X0.212500X-0.155000X0.212500X0.155000X-0.212500X0.155000X0*%
G04 #@! TD*
G04 #@! TA.AperFunction,SMDPad,CuDef*
%ADD19RoundRect,0.155000X0.212500X0.155000X-0.212500X0.155000X-0.212500X-0.155000X0.212500X-0.155000X0*%
G04 #@! TD*
G04 #@! TA.AperFunction,SMDPad,CuDef*
%ADD20R,0.800000X2.900000*%
G04 #@! TD*
G04 #@! TA.AperFunction,SMDPad,CuDef*
%ADD21R,1.800000X3.800000*%
G04 #@! TD*
G04 #@! TA.AperFunction,SMDPad,CuDef*
%ADD22RoundRect,0.225000X-0.250000X0.225000X-0.250000X-0.225000X0.250000X-0.225000X0.250000X0.225000X0*%
G04 #@! TD*
G04 #@! TA.AperFunction,SMDPad,CuDef*
%ADD23RoundRect,0.160000X0.197500X0.160000X-0.197500X0.160000X-0.197500X-0.160000X0.197500X-0.160000X0*%
G04 #@! TD*
G04 #@! TA.AperFunction,SMDPad,CuDef*
%ADD24RoundRect,0.200000X-0.200000X-0.275000X0.200000X-0.275000X0.200000X0.275000X-0.200000X0.275000X0*%
G04 #@! TD*
G04 #@! TA.AperFunction,SMDPad,CuDef*
%ADD25RoundRect,0.237500X0.237500X-0.250000X0.237500X0.250000X-0.237500X0.250000X-0.237500X-0.250000X0*%
G04 #@! TD*
G04 #@! TA.AperFunction,SMDPad,CuDef*
%ADD26R,0.650000X1.050000*%
G04 #@! TD*
G04 #@! TA.AperFunction,SMDPad,CuDef*
%ADD27RoundRect,0.175000X-0.175000X0.200000X-0.175000X-0.200000X0.175000X-0.200000X0.175000X0.200000X0*%
G04 #@! TD*
G04 #@! TA.AperFunction,SMDPad,CuDef*
%ADD28R,0.610000X2.000000*%
G04 #@! TD*
G04 #@! TA.AperFunction,SMDPad,CuDef*
%ADD29R,2.680000X3.600000*%
G04 #@! TD*
G04 #@! TA.AperFunction,SMDPad,CuDef*
%ADD30RoundRect,0.160000X-0.160000X0.197500X-0.160000X-0.197500X0.160000X-0.197500X0.160000X0.197500X0*%
G04 #@! TD*
G04 #@! TA.AperFunction,SMDPad,CuDef*
%ADD31RoundRect,0.200000X-0.275000X0.200000X-0.275000X-0.200000X0.275000X-0.200000X0.275000X0.200000X0*%
G04 #@! TD*
G04 #@! TA.AperFunction,ComponentPad*
%ADD32R,3.800000X3.800000*%
G04 #@! TD*
G04 #@! TA.AperFunction,ComponentPad*
%ADD33C,4.000000*%
G04 #@! TD*
G04 #@! TA.AperFunction,SMDPad,CuDef*
%ADD34R,0.800000X0.750000*%
G04 #@! TD*
G04 #@! TA.AperFunction,SMDPad,CuDef*
%ADD35R,2.400000X4.200000*%
G04 #@! TD*
G04 #@! TA.AperFunction,SMDPad,CuDef*
%ADD36R,0.750000X4.200000*%
G04 #@! TD*
G04 #@! TA.AperFunction,SMDPad,CuDef*
%ADD37R,0.550000X3.280000*%
G04 #@! TD*
G04 #@! TA.AperFunction,SMDPad,CuDef*
%ADD38RoundRect,0.150000X0.150000X-0.825000X0.150000X0.825000X-0.150000X0.825000X-0.150000X-0.825000X0*%
G04 #@! TD*
G04 #@! TA.AperFunction,SMDPad,CuDef*
%ADD39RoundRect,0.237500X0.237500X-0.287500X0.237500X0.287500X-0.237500X0.287500X-0.237500X-0.287500X0*%
G04 #@! TD*
G04 #@! TA.AperFunction,SMDPad,CuDef*
%ADD40RoundRect,0.237500X-0.250000X-0.237500X0.250000X-0.237500X0.250000X0.237500X-0.250000X0.237500X0*%
G04 #@! TD*
G04 #@! TA.AperFunction,ComponentPad*
%ADD41R,1.000000X1.000000*%
G04 #@! TD*
G04 #@! TA.AperFunction,ComponentPad*
%ADD42O,1.000000X1.000000*%
G04 #@! TD*
G04 #@! TA.AperFunction,SMDPad,CuDef*
%ADD43RoundRect,0.225000X0.250000X-0.225000X0.250000X0.225000X-0.250000X0.225000X-0.250000X-0.225000X0*%
G04 #@! TD*
G04 #@! TA.AperFunction,SMDPad,CuDef*
%ADD44RoundRect,0.237500X-0.237500X0.250000X-0.237500X-0.250000X0.237500X-0.250000X0.237500X0.250000X0*%
G04 #@! TD*
G04 #@! TA.AperFunction,SMDPad,CuDef*
%ADD45RoundRect,0.147500X-0.172500X0.147500X-0.172500X-0.147500X0.172500X-0.147500X0.172500X0.147500X0*%
G04 #@! TD*
G04 #@! TA.AperFunction,SMDPad,CuDef*
%ADD46RoundRect,0.155000X-0.155000X0.212500X-0.155000X-0.212500X0.155000X-0.212500X0.155000X0.212500X0*%
G04 #@! TD*
G04 #@! TA.AperFunction,SMDPad,CuDef*
%ADD47RoundRect,0.249999X-0.450001X-1.075001X0.450001X-1.075001X0.450001X1.075001X-0.450001X1.075001X0*%
G04 #@! TD*
G04 #@! TA.AperFunction,SMDPad,CuDef*
%ADD48RoundRect,0.225000X0.225000X0.250000X-0.225000X0.250000X-0.225000X-0.250000X0.225000X-0.250000X0*%
G04 #@! TD*
G04 #@! TA.AperFunction,SMDPad,CuDef*
%ADD49RoundRect,0.062500X0.350000X0.062500X-0.350000X0.062500X-0.350000X-0.062500X0.350000X-0.062500X0*%
G04 #@! TD*
G04 #@! TA.AperFunction,SMDPad,CuDef*
%ADD50RoundRect,0.062500X0.062500X0.350000X-0.062500X0.350000X-0.062500X-0.350000X0.062500X-0.350000X0*%
G04 #@! TD*
G04 #@! TA.AperFunction,ComponentPad*
%ADD51C,0.508000*%
G04 #@! TD*
G04 #@! TA.AperFunction,SMDPad,CuDef*
%ADD52R,4.600000X4.600000*%
G04 #@! TD*
G04 #@! TA.AperFunction,ViaPad*
%ADD53C,0.800000*%
G04 #@! TD*
G04 #@! TA.AperFunction,ViaPad*
%ADD54C,0.508000*%
G04 #@! TD*
G04 #@! TA.AperFunction,Conductor*
%ADD55C,0.250000*%
G04 #@! TD*
G04 #@! TA.AperFunction,Conductor*
%ADD56C,0.500000*%
G04 #@! TD*
G04 #@! TA.AperFunction,Conductor*
%ADD57C,2.650000*%
G04 #@! TD*
G04 #@! TA.AperFunction,Conductor*
%ADD58C,0.750000*%
G04 #@! TD*
G04 #@! TA.AperFunction,Conductor*
%ADD59C,1.400000*%
G04 #@! TD*
G04 #@! TA.AperFunction,Conductor*
%ADD60C,2.000000*%
G04 #@! TD*
G04 #@! TA.AperFunction,Conductor*
%ADD61C,0.610000*%
G04 #@! TD*
G04 APERTURE END LIST*
D10*
X112478000Y-108559600D03*
X114028000Y-108559600D03*
D11*
X124358400Y-123857100D03*
X124358400Y-122887100D03*
D12*
X95504000Y-100694000D03*
X95504000Y-108094000D03*
D13*
X122332000Y-96470380D03*
X117532000Y-96470380D03*
D14*
X122532700Y-105047600D03*
X122532700Y-105547600D03*
X122532700Y-106047600D03*
X122532700Y-106547600D03*
X122532700Y-107047600D03*
X122532700Y-107547600D03*
X122532700Y-108047600D03*
X122532700Y-108547600D03*
X122532700Y-109047600D03*
X122532700Y-109547600D03*
X122532700Y-110047600D03*
X122532700Y-110547600D03*
D15*
X123945200Y-111960100D03*
X124445200Y-111960100D03*
X124945200Y-111960100D03*
X125445200Y-111960100D03*
X125945200Y-111960100D03*
X126445200Y-111960100D03*
X126945200Y-111960100D03*
X127445200Y-111960100D03*
X127945200Y-111960100D03*
X128445200Y-111960100D03*
X128945200Y-111960100D03*
X129445200Y-111960100D03*
D14*
X130857700Y-110547600D03*
X130857700Y-110047600D03*
X130857700Y-109547600D03*
X130857700Y-109047600D03*
X130857700Y-108547600D03*
X130857700Y-108047600D03*
X130857700Y-107547600D03*
X130857700Y-107047600D03*
X130857700Y-106547600D03*
X130857700Y-106047600D03*
X130857700Y-105547600D03*
X130857700Y-105047600D03*
D15*
X129445200Y-103635100D03*
X128945200Y-103635100D03*
X128445200Y-103635100D03*
X127945200Y-103635100D03*
X127445200Y-103635100D03*
X126945200Y-103635100D03*
X126445200Y-103635100D03*
X125945200Y-103635100D03*
X125445200Y-103635100D03*
X124945200Y-103635100D03*
X124445200Y-103635100D03*
X123945200Y-103635100D03*
D16*
X94524000Y-79310400D03*
D17*
X94524000Y-79310400D03*
D10*
X112491000Y-111658400D03*
X114041000Y-111658400D03*
D18*
X121142500Y-98756380D03*
X122277500Y-98756380D03*
D19*
X100427200Y-98653600D03*
X99292200Y-98653600D03*
D20*
X128081600Y-83362800D03*
X126581600Y-83362800D03*
X125081600Y-83362800D03*
X123581600Y-83362800D03*
D21*
X130681600Y-78662800D03*
X120981600Y-78662800D03*
D22*
X129082800Y-115303000D03*
X129082800Y-116853000D03*
D23*
X118276750Y-105105200D03*
X117081750Y-105105200D03*
D24*
X136350400Y-97901600D03*
X138000400Y-97901600D03*
D25*
X135382000Y-92622400D03*
X135382000Y-90797400D03*
D19*
X118195950Y-109169200D03*
X117060950Y-109169200D03*
D26*
X110599800Y-119515885D03*
X110599800Y-123665885D03*
X108449800Y-119515885D03*
X108449800Y-123665885D03*
D27*
X117061650Y-106462200D03*
X116061650Y-106462200D03*
X117061650Y-107812200D03*
X116061650Y-107812200D03*
D25*
X133604000Y-92622400D03*
X133604000Y-90797400D03*
D28*
X113610400Y-83753600D03*
X112610400Y-83753600D03*
X111610400Y-83753600D03*
X110610400Y-83753600D03*
X109610400Y-83753600D03*
X108610400Y-83753600D03*
X107610400Y-83753600D03*
X106610400Y-83753600D03*
X105610400Y-83753600D03*
X104610400Y-83753600D03*
X103610400Y-83753600D03*
D29*
X116600400Y-80953600D03*
X100620400Y-80953600D03*
D30*
X106273600Y-122608400D03*
X106273600Y-123803400D03*
D10*
X130797000Y-112471200D03*
X132347000Y-112471200D03*
D31*
X116128800Y-116116600D03*
X116128800Y-117766600D03*
D32*
X98715200Y-113893600D03*
D33*
X93715200Y-113893600D03*
D16*
X136524000Y-79310400D03*
D17*
X136524000Y-79310400D03*
D34*
X105969400Y-89331800D03*
X105969400Y-90601800D03*
X105969400Y-91871800D03*
X105969400Y-93141800D03*
X111759400Y-93141800D03*
X111759400Y-91871800D03*
X111759400Y-90601800D03*
X111759400Y-89331800D03*
D35*
X109319400Y-91236800D03*
D36*
X107294400Y-91236800D03*
D37*
X106644400Y-91696800D03*
D38*
X126974600Y-94270600D03*
X128244600Y-94270600D03*
X129514600Y-94270600D03*
X130784600Y-94270600D03*
X130784600Y-89320600D03*
X129514600Y-89320600D03*
X128244600Y-89320600D03*
X126974600Y-89320600D03*
D39*
X106273600Y-121056400D03*
X106273600Y-119306400D03*
D25*
X126746000Y-99007300D03*
X126746000Y-97182300D03*
D40*
X127967100Y-87020400D03*
X129792100Y-87020400D03*
D25*
X130200400Y-121261500D03*
X130200400Y-119436500D03*
D22*
X127355600Y-115353800D03*
X127355600Y-116903800D03*
D41*
X136550400Y-99822000D03*
D42*
X137820400Y-99822000D03*
X136550400Y-101092000D03*
X137820400Y-101092000D03*
X136550400Y-102362000D03*
X137820400Y-102362000D03*
X136550400Y-103632000D03*
X137820400Y-103632000D03*
X136550400Y-104902000D03*
X137820400Y-104902000D03*
D24*
X136335000Y-96266000D03*
X137985000Y-96266000D03*
D43*
X92654800Y-92316600D03*
X92654800Y-90766600D03*
D44*
X110540800Y-115986985D03*
X110540800Y-117811985D03*
D43*
X131521200Y-103658000D03*
X131521200Y-102108000D03*
D44*
X124374300Y-119434600D03*
X124374300Y-121259600D03*
X127152400Y-119434600D03*
X127152400Y-121259600D03*
D11*
X121564400Y-123882000D03*
X121564400Y-122912000D03*
D45*
X130200400Y-122927900D03*
X130200400Y-123897900D03*
D24*
X136335000Y-106994800D03*
X137985000Y-106994800D03*
D11*
X127152400Y-123880100D03*
X127152400Y-122910100D03*
D34*
X116939800Y-89332980D03*
X116939800Y-90602980D03*
X116939800Y-91872980D03*
X116939800Y-93142980D03*
X122729800Y-93142980D03*
X122729800Y-91872980D03*
X122729800Y-90602980D03*
X122729800Y-89332980D03*
D35*
X120289800Y-91237980D03*
D36*
X118264800Y-91237980D03*
D37*
X117614800Y-91697980D03*
D46*
X118238050Y-106569700D03*
X118238050Y-107704700D03*
D43*
X133146800Y-105118200D03*
X133146800Y-103568200D03*
D39*
X103378000Y-121095800D03*
X103378000Y-119345800D03*
D47*
X106612400Y-96469200D03*
X111412400Y-96469200D03*
D11*
X118821200Y-123882000D03*
X118821200Y-122912000D03*
D10*
X112491000Y-110083600D03*
X114041000Y-110083600D03*
D17*
X136524000Y-121310400D03*
D16*
X136524000Y-121310400D03*
D22*
X107696000Y-116175285D03*
X107696000Y-117725285D03*
D39*
X100533200Y-121107200D03*
X100533200Y-119357200D03*
D48*
X122390200Y-103225600D03*
X120840200Y-103225600D03*
D30*
X103378000Y-122608400D03*
X103378000Y-123803400D03*
D43*
X123698000Y-101447600D03*
X123698000Y-99897600D03*
D22*
X125730000Y-115353800D03*
X125730000Y-116903800D03*
D43*
X110878400Y-111582800D03*
X110878400Y-110032800D03*
D26*
X115679800Y-119515885D03*
X115679800Y-123665885D03*
X113529800Y-119515885D03*
X113529800Y-123665885D03*
D43*
X122123200Y-101447600D03*
X122123200Y-99897600D03*
D47*
X95741200Y-96469200D03*
X100541200Y-96469200D03*
D19*
X111357900Y-98602800D03*
X110222900Y-98602800D03*
D16*
X94524000Y-121310400D03*
D17*
X94524000Y-121310400D03*
D44*
X121564400Y-119436500D03*
X121564400Y-121261500D03*
D49*
X109347300Y-109084600D03*
X109347300Y-108584600D03*
X109347300Y-108084600D03*
X109347300Y-107584600D03*
X109347300Y-107084600D03*
X109347300Y-106584600D03*
X109347300Y-106084600D03*
X109347300Y-105584600D03*
X109347300Y-105084600D03*
X109347300Y-104584600D03*
D50*
X108659800Y-103897100D03*
X108159800Y-103897100D03*
X107659800Y-103897100D03*
X107159800Y-103897100D03*
X106659800Y-103897100D03*
X106159800Y-103897100D03*
X105659800Y-103897100D03*
X105159800Y-103897100D03*
X104659800Y-103897100D03*
X104159800Y-103897100D03*
D49*
X103472300Y-104584600D03*
X103472300Y-105084600D03*
X103472300Y-105584600D03*
X103472300Y-106084600D03*
X103472300Y-106584600D03*
X103472300Y-107084600D03*
X103472300Y-107584600D03*
X103472300Y-108084600D03*
X103472300Y-108584600D03*
X103472300Y-109084600D03*
D50*
X104159800Y-109772100D03*
X104659800Y-109772100D03*
X105159800Y-109772100D03*
X105659800Y-109772100D03*
X106159800Y-109772100D03*
X106659800Y-109772100D03*
X107159800Y-109772100D03*
X107659800Y-109772100D03*
X108159800Y-109772100D03*
X108659800Y-109772100D03*
D51*
X106409800Y-106834600D03*
D52*
X106409800Y-106834600D03*
D51*
X107679800Y-106834600D03*
X105139800Y-106834600D03*
D34*
X94892800Y-89281000D03*
X94892800Y-90551000D03*
X94892800Y-91821000D03*
X94892800Y-93091000D03*
X100682800Y-93091000D03*
X100682800Y-91821000D03*
X100682800Y-90551000D03*
X100682800Y-89281000D03*
D35*
X98242800Y-91186000D03*
D36*
X96217800Y-91186000D03*
D37*
X95567800Y-91646000D03*
D45*
X135382000Y-88481700D03*
X135382000Y-89451700D03*
X133604000Y-88497600D03*
X133604000Y-89467600D03*
D44*
X118837100Y-119436500D03*
X118837100Y-121261500D03*
D10*
X130797000Y-114046000D03*
X132347000Y-114046000D03*
D22*
X113334800Y-116175285D03*
X113334800Y-117725285D03*
D30*
X100533200Y-122619800D03*
X100533200Y-123814800D03*
D19*
X101557900Y-105410000D03*
X100422900Y-105410000D03*
D53*
X131775200Y-100736400D03*
D54*
X107285200Y-89509600D03*
X107285200Y-90424000D03*
X105964400Y-91846400D03*
X116934800Y-91898380D03*
X118255600Y-91339580D03*
X106726400Y-90830400D03*
X117696800Y-91847580D03*
X105964400Y-93116400D03*
D53*
X111556800Y-112623600D03*
D54*
X96210800Y-89509600D03*
X118255600Y-93015980D03*
X116934800Y-93168380D03*
D53*
X94792800Y-99314000D03*
D54*
X118255600Y-89561580D03*
X96210800Y-90424000D03*
X106726400Y-91795600D03*
X95652000Y-90830400D03*
X94890000Y-90576400D03*
D53*
X94792800Y-101955600D03*
D54*
X96210800Y-92100400D03*
X107285200Y-92100400D03*
D53*
X96774000Y-110896400D03*
D54*
X107285200Y-91287600D03*
X106726400Y-92811600D03*
X94890000Y-91846400D03*
X118255600Y-90475980D03*
X96210800Y-92964000D03*
X118255600Y-92152380D03*
X96210800Y-91287600D03*
X94890000Y-93116400D03*
X95652000Y-92811600D03*
X105964400Y-90576400D03*
X116934800Y-90628380D03*
X95652000Y-91795600D03*
X107285200Y-92964000D03*
X117696800Y-92863580D03*
D53*
X96266000Y-101955600D03*
D54*
X117696800Y-90882380D03*
D53*
X92659200Y-93726000D03*
X96215200Y-99314000D03*
X95504000Y-100685600D03*
X115163600Y-104787100D03*
X91084400Y-84734400D03*
X139954000Y-90474800D03*
X125628400Y-124714000D03*
X130708400Y-78689200D03*
X98348800Y-98653600D03*
X92964000Y-117144800D03*
X138887200Y-83413600D03*
D54*
X104999200Y-95605600D03*
D53*
X130200400Y-116890800D03*
X91084400Y-110337600D03*
X92964000Y-117144800D03*
X110490000Y-124714000D03*
X111709200Y-75895200D03*
X100584000Y-80975200D03*
D54*
X104542000Y-96469200D03*
D53*
X117348000Y-81991200D03*
X101346000Y-81991200D03*
X98628199Y-123418601D03*
X96062800Y-83413600D03*
X91084400Y-95199200D03*
D54*
X104999200Y-97282000D03*
D53*
X100431598Y-75895200D03*
D54*
X93264400Y-95656400D03*
X104135600Y-97282000D03*
D53*
X91084400Y-115316000D03*
X137464800Y-89611200D03*
X132435600Y-122986800D03*
X138633200Y-117195600D03*
X121869200Y-75895200D03*
X107594400Y-82092800D03*
X105359200Y-124714000D03*
X98653600Y-80822802D03*
X120954800Y-78689200D03*
X132334000Y-115112800D03*
D54*
X125069600Y-96926400D03*
D53*
X106730800Y-75895200D03*
X91084400Y-100279200D03*
X127000000Y-75895200D03*
X99872800Y-81991200D03*
X114015000Y-112661100D03*
X139954000Y-105765600D03*
X117348000Y-80010000D03*
X115874800Y-81991200D03*
X91084400Y-105359200D03*
X99872800Y-80010000D03*
X130708400Y-79908400D03*
X132435600Y-80822800D03*
X130708400Y-77419200D03*
X101346000Y-80010000D03*
X113893600Y-101092000D03*
X120650000Y-124714000D03*
X116586000Y-80975200D03*
X126974600Y-91617800D03*
X113898075Y-99470523D03*
D54*
X94128000Y-95656400D03*
X123393200Y-96926400D03*
D53*
X98602800Y-119735600D03*
X121005600Y-77470000D03*
X115417600Y-100253800D03*
X122957100Y-123880100D03*
D54*
X124206000Y-96469200D03*
D53*
X139954000Y-115874802D03*
X116992400Y-99415600D03*
X98653600Y-77673200D03*
X108449800Y-122741000D03*
X91084400Y-90068400D03*
X131470400Y-75895200D03*
X120954800Y-79908400D03*
D54*
X93264400Y-97332800D03*
D53*
X132044400Y-88087200D03*
X99923600Y-124714000D03*
X92405198Y-83413600D03*
X119888000Y-103225600D03*
X117043200Y-101092000D03*
X92202000Y-89712800D03*
X139954000Y-84480400D03*
X115874800Y-80010000D03*
X130708402Y-124714000D03*
X96012000Y-117144800D03*
D54*
X94128000Y-97332800D03*
D53*
X108966000Y-78638400D03*
D54*
X123393200Y-96062800D03*
D53*
X132435600Y-119735600D03*
D54*
X125069600Y-96062800D03*
D53*
X125323600Y-98755200D03*
X96266000Y-109372400D03*
X116789200Y-75895200D03*
X115570000Y-124714000D03*
X136906000Y-110845600D03*
X139954000Y-100685600D03*
X135001000Y-83388200D03*
X132943600Y-93827600D03*
X132689600Y-83007200D03*
X139954000Y-110744000D03*
D54*
X104135600Y-95605600D03*
D53*
X109118400Y-98653600D03*
X132435600Y-76911200D03*
X134975600Y-117195600D03*
X113538000Y-120700800D03*
X99009200Y-105423300D03*
X139954000Y-95605600D03*
D54*
X93721600Y-96469200D03*
D53*
X96215200Y-106730800D03*
X110916965Y-108084601D03*
X115112800Y-108559600D03*
X131114800Y-83058000D03*
X128081601Y-80939201D03*
X102514400Y-78079600D03*
X114168400Y-96134400D03*
X103632000Y-82143600D03*
X137397600Y-86300600D03*
X136601200Y-93776800D03*
X97790000Y-104698800D03*
X127521300Y-110483919D03*
X101414144Y-100820656D03*
X110849899Y-103221301D03*
X111081277Y-101192813D03*
X103929434Y-102064566D03*
X121641466Y-102385923D03*
X131419600Y-111556800D03*
X117246400Y-116128800D03*
X121158000Y-101447600D03*
X104519800Y-110787025D03*
X130505200Y-103682800D03*
X132029200Y-90322400D03*
X129387600Y-122123200D03*
X113588800Y-122021600D03*
X136702800Y-108508800D03*
X126785672Y-109804444D03*
X101955600Y-121818400D03*
X104902000Y-121158000D03*
X125932001Y-110324300D03*
X124932498Y-110324300D03*
X107238800Y-120294400D03*
X127965200Y-96824800D03*
X104610401Y-83753599D03*
X105613200Y-83769200D03*
X107614300Y-77688400D03*
X128981200Y-96824800D03*
X106629200Y-83769200D03*
X129997200Y-96824800D03*
X99009200Y-94132400D03*
X112473133Y-104075900D03*
X105206800Y-100533200D03*
X111099600Y-99923600D03*
X123230902Y-112674400D03*
X100482400Y-108813600D03*
X121869200Y-114198400D03*
X99060000Y-108610400D03*
X114142833Y-114922900D03*
X97942400Y-108305600D03*
X126695200Y-101955600D03*
X135229600Y-111150400D03*
X113639600Y-104787100D03*
X102362000Y-89306400D03*
X102870000Y-97383600D03*
X93573600Y-89306400D03*
X105562400Y-98856800D03*
X113233200Y-89357200D03*
X104343200Y-89306400D03*
X111556800Y-102514400D03*
X124307600Y-89357200D03*
X110337600Y-94119100D03*
X115265200Y-89357200D03*
X103886000Y-100279200D03*
X128676400Y-113842800D03*
X124866400Y-118059200D03*
X134924800Y-107086400D03*
X135432800Y-93929200D03*
X134162800Y-94792800D03*
X132994400Y-110032800D03*
X119719481Y-109854772D03*
X98145600Y-103276400D03*
X99194086Y-103137154D03*
X120650000Y-109067600D03*
X100101400Y-102641400D03*
X120176661Y-108187285D03*
X124866400Y-106324400D03*
X98247200Y-106527600D03*
X124538357Y-107880241D03*
X101525627Y-108772629D03*
X123861139Y-109729728D03*
X102326575Y-109614300D03*
X120943469Y-112215102D03*
X102971600Y-110693200D03*
X109728000Y-111874900D03*
X122072400Y-112268000D03*
X107486330Y-111332586D03*
X106019600Y-111302800D03*
X131775200Y-96977200D03*
X132384800Y-106070400D03*
X132537200Y-96113600D03*
X132852455Y-106953748D03*
X127658890Y-106111091D03*
X128383390Y-107082101D03*
X129450744Y-107124856D03*
D55*
X135483600Y-100533200D02*
X135483600Y-106143400D01*
X135483600Y-106143400D02*
X136335000Y-106994800D01*
X130857700Y-108047600D02*
X133963600Y-108047600D01*
X133963600Y-108047600D02*
X134924800Y-107086400D01*
X136550400Y-99822000D02*
X136194800Y-99822000D01*
X136194800Y-99822000D02*
X135483600Y-100533200D01*
X133146800Y-103568200D02*
X132981400Y-103568200D01*
X132981400Y-103568200D02*
X131521200Y-102108000D01*
X131521200Y-102108000D02*
X131521200Y-100990400D01*
X131521200Y-100990400D02*
X131775200Y-100736400D01*
X110134400Y-107289600D02*
X109929400Y-107084600D01*
X112491000Y-111658400D02*
X112491000Y-108572600D01*
X92654800Y-93721600D02*
X92659200Y-93726000D01*
X112491000Y-108572600D02*
X112478000Y-108559600D01*
X92654800Y-92316600D02*
X92654800Y-93721600D01*
X110134400Y-107289600D02*
X109829600Y-107594400D01*
X112478000Y-108559600D02*
X112478000Y-108546600D01*
X109357100Y-107594400D02*
X109347300Y-107584600D01*
X111243402Y-107289600D02*
X110134400Y-107289600D01*
X112478000Y-108559600D02*
X112478000Y-108524198D01*
X109829600Y-107594400D02*
X109357100Y-107594400D01*
X111556800Y-112623600D02*
X111556800Y-112592600D01*
X112478000Y-108524198D02*
X111243402Y-107289600D01*
X109929400Y-107084600D02*
X109347300Y-107084600D01*
X111556800Y-112592600D02*
X112491000Y-111658400D01*
X103378000Y-123803400D02*
X100544600Y-123803400D01*
D56*
X132435600Y-76860400D02*
X131470400Y-75895200D01*
D55*
X116061650Y-106462200D02*
X116061650Y-106730093D01*
X117061650Y-107812200D02*
X117061650Y-109168500D01*
D57*
X122332000Y-96470380D02*
X124332000Y-96470380D01*
D55*
X113529800Y-117920285D02*
X113334800Y-117725285D01*
X135382000Y-88481700D02*
X133619900Y-88481700D01*
D56*
X134975600Y-117195600D02*
X138633200Y-117195600D01*
D55*
X108659800Y-109772100D02*
X108609800Y-109722100D01*
D56*
X116789200Y-75895200D02*
X111709200Y-75895200D01*
X121869200Y-75895200D02*
X116789200Y-75895200D01*
X132435600Y-76911200D02*
X132435600Y-80822800D01*
D57*
X95741200Y-96469200D02*
X93741200Y-96469200D01*
D56*
X99923600Y-124714000D02*
X98602800Y-123393202D01*
X98602800Y-119735600D02*
X98602800Y-123393202D01*
D55*
X127152400Y-123880100D02*
X127206298Y-123880100D01*
D56*
X132435600Y-122986800D02*
X130708402Y-124714000D01*
D55*
X104209800Y-104634600D02*
X106409800Y-106834600D01*
X99292200Y-98653600D02*
X98348800Y-98653600D01*
X108312285Y-123803400D02*
X108449800Y-123665885D01*
X118823100Y-123880100D02*
X118821200Y-123882000D01*
D56*
X125628400Y-124714000D02*
X130708402Y-124714000D01*
D55*
X123698000Y-99897600D02*
X122123200Y-99897600D01*
X123698000Y-99897600D02*
X124181200Y-99897600D01*
X129032000Y-116903800D02*
X129082800Y-116853000D01*
D56*
X98653600Y-77673200D02*
X100431598Y-75895200D01*
D55*
X130162600Y-116853000D02*
X130200400Y-116890800D01*
D56*
X132435600Y-80822800D02*
X135001000Y-83388200D01*
D55*
X120840200Y-103225600D02*
X119888000Y-103225600D01*
X132347000Y-114046000D02*
X132347000Y-112471200D01*
D56*
X92862400Y-117144800D02*
X96012000Y-117144800D01*
X139954000Y-105765600D02*
X139954000Y-110744000D01*
D55*
X92654800Y-90165600D02*
X92202000Y-89712800D01*
X132347000Y-114046000D02*
X132347000Y-115099800D01*
X123581600Y-81163600D02*
X122326400Y-79908400D01*
X113529800Y-119515885D02*
X113529800Y-120692600D01*
X107696000Y-117725285D02*
X107696000Y-118762085D01*
X128244600Y-94647351D02*
X128244600Y-94270600D01*
X125730000Y-116903800D02*
X129032000Y-116903800D01*
X108609800Y-109722100D02*
X108609800Y-109034600D01*
D56*
X139954000Y-110744000D02*
X139954000Y-115874800D01*
D55*
X116061650Y-105685150D02*
X115163600Y-104787100D01*
X110222900Y-98602800D02*
X109169200Y-98602800D01*
X109347300Y-104584600D02*
X108659800Y-104584600D01*
X100422900Y-105410000D02*
X99022500Y-105410000D01*
X104159800Y-103897100D02*
X104209800Y-103947100D01*
D56*
X132435600Y-119735600D02*
X134975600Y-117195600D01*
D55*
X106273600Y-123803400D02*
X103378000Y-123803400D01*
D56*
X135001000Y-83388200D02*
X135026400Y-83413600D01*
X111709200Y-75895200D02*
X100431598Y-75895200D01*
D55*
X114041000Y-111658400D02*
X114041000Y-110083600D01*
X106422515Y-123654485D02*
X106273600Y-123803400D01*
X116061650Y-106730093D02*
X117061650Y-107730093D01*
X128663100Y-120973800D02*
X130200400Y-119436500D01*
X100544600Y-123803400D02*
X100533200Y-123814800D01*
X116061650Y-106462200D02*
X116061650Y-105685150D01*
X132454800Y-88497600D02*
X132044400Y-88087200D01*
D56*
X138633200Y-117195600D02*
X139954000Y-115874800D01*
X99923600Y-124714000D02*
X105359200Y-124714000D01*
D55*
X118238050Y-107704700D02*
X117169150Y-107704700D01*
D56*
X96012000Y-117144800D02*
X98602800Y-119735600D01*
D55*
X128244600Y-92887800D02*
X126974600Y-91617800D01*
D56*
X98653600Y-77673200D02*
X98653600Y-80822802D01*
D55*
X109169200Y-98602800D02*
X109118400Y-98653600D01*
X132347000Y-115099800D02*
X132334000Y-115112800D01*
X127206298Y-123880100D02*
X128663100Y-122423298D01*
X113529800Y-120692600D02*
X113538000Y-120700800D01*
D56*
X96062800Y-83413600D02*
X98653600Y-80822802D01*
D55*
X135026400Y-83413600D02*
X135026402Y-83413600D01*
X107696000Y-118762085D02*
X108449800Y-119515885D01*
D56*
X131470400Y-75895200D02*
X121869200Y-75895200D01*
D55*
X133604000Y-88497600D02*
X132454800Y-88497600D01*
D56*
X91084400Y-84734400D02*
X92405198Y-83413600D01*
D55*
X129082800Y-116853000D02*
X130162600Y-116853000D01*
X106273600Y-123803400D02*
X108312285Y-123803400D01*
X113529800Y-119515885D02*
X113529800Y-117920285D01*
D56*
X139954000Y-95605600D02*
X139954000Y-100685600D01*
D55*
X108449800Y-123665885D02*
X108449800Y-122741000D01*
X107610400Y-82108800D02*
X107594400Y-82092800D01*
X114041000Y-112635100D02*
X114015000Y-112661100D01*
D57*
X106612400Y-96469200D02*
X104612400Y-96469200D01*
D55*
X127152400Y-123880100D02*
X122957100Y-123880100D01*
X133619900Y-88481700D02*
X133604000Y-88497600D01*
D56*
X92862400Y-117144800D02*
X91084400Y-115366802D01*
X139954000Y-100685600D02*
X139954000Y-105765600D01*
D55*
X122277500Y-96524880D02*
X122332000Y-96470380D01*
X107610400Y-83753600D02*
X107610400Y-82108800D01*
D56*
X139954000Y-84480400D02*
X139954000Y-90474800D01*
X138887200Y-83413600D02*
X139954000Y-84480400D01*
X91084400Y-84734400D02*
X91084400Y-115366802D01*
D55*
X104209800Y-103947100D02*
X104209800Y-104634600D01*
X108659800Y-104584600D02*
X106409800Y-106834600D01*
X108449800Y-119515885D02*
X108449800Y-122741000D01*
D56*
X139954000Y-90474800D02*
X139954000Y-95605600D01*
X105359200Y-124714000D02*
X120650000Y-124714000D01*
D55*
X108659800Y-103897100D02*
X108659800Y-104584600D01*
D56*
X138887200Y-83413600D02*
X135026402Y-83413600D01*
D55*
X108609800Y-109034600D02*
X106409800Y-106834600D01*
X106262200Y-123814800D02*
X106273600Y-123803400D01*
X104659800Y-108584600D02*
X106409800Y-106834600D01*
X128663100Y-122423298D02*
X128663100Y-120973800D01*
X92654800Y-90766600D02*
X92654800Y-90165600D01*
X126746000Y-97182300D02*
X126746000Y-97332800D01*
X99022500Y-105410000D02*
X99009200Y-105423300D01*
X123581600Y-83362800D02*
X123581600Y-81163600D01*
X122277500Y-98756380D02*
X122277500Y-96524880D01*
X104659800Y-109772100D02*
X104659800Y-108584600D01*
D56*
X96062800Y-83413600D02*
X92405198Y-83413600D01*
D55*
X114041000Y-111658400D02*
X114041000Y-112635100D01*
X126974600Y-91617800D02*
X126974600Y-89320600D01*
X124181200Y-99897600D02*
X125323600Y-98755200D01*
D56*
X132435600Y-76860400D02*
X132435600Y-76911200D01*
D55*
X122957100Y-123880100D02*
X118823100Y-123880100D01*
X122326400Y-79908400D02*
X120954800Y-79908400D01*
X128244600Y-94270600D02*
X128244600Y-92887800D01*
D56*
X120650000Y-124714000D02*
X125628400Y-124714000D01*
X132435600Y-122986800D02*
X132435600Y-119735600D01*
D55*
X126746000Y-97332800D02*
X125323600Y-98755200D01*
X110001800Y-109728000D02*
X110001800Y-110706200D01*
X109358400Y-109084600D02*
X110001800Y-109728000D01*
X109347300Y-109084600D02*
X109358400Y-109084600D01*
X110001800Y-110706200D02*
X110878400Y-111582800D01*
X109807808Y-108584600D02*
X109347300Y-108584600D01*
X110878400Y-109655192D02*
X109807808Y-108584600D01*
X110878400Y-110032800D02*
X110878400Y-109655192D01*
X114028000Y-108559600D02*
X115112800Y-108559600D01*
X109347300Y-108084600D02*
X110916965Y-108084601D01*
X128081600Y-83362800D02*
X128081601Y-80939201D01*
X130784600Y-90754200D02*
X129514600Y-92024200D01*
X130784600Y-89320600D02*
X130784600Y-90754200D01*
X129514600Y-92024200D02*
X129514600Y-94270600D01*
X131114800Y-88990400D02*
X130784600Y-89320600D01*
X103610400Y-82165200D02*
X103632000Y-82143600D01*
X131114800Y-83058000D02*
X131114800Y-88990400D01*
X103610400Y-83753600D02*
X103610400Y-82165200D01*
X127445200Y-110560019D02*
X127521300Y-110483919D01*
X102065812Y-105410000D02*
X101557900Y-105410000D01*
X103472300Y-106084600D02*
X102740412Y-106084600D01*
X100846700Y-104698800D02*
X97790000Y-104698800D01*
X101557900Y-105410000D02*
X100846700Y-104698800D01*
X127355600Y-115353800D02*
X127445200Y-115264200D01*
X127445200Y-115264200D02*
X127445200Y-111960100D01*
X97790000Y-104698800D02*
X97803300Y-104685500D01*
X127445200Y-111960100D02*
X127445200Y-110560019D01*
X102740412Y-106084600D02*
X102065812Y-105410000D01*
D58*
X100682800Y-96327600D02*
X100541200Y-96469200D01*
D59*
X100682800Y-93091000D02*
X100682800Y-96327600D01*
D55*
X100427200Y-98653600D02*
X101414144Y-99640544D01*
X110849899Y-104237301D02*
X110849899Y-103221301D01*
X101414144Y-99640544D02*
X101414144Y-100820656D01*
D58*
X100541200Y-97269600D02*
X100541200Y-96469200D01*
D55*
X100427200Y-96583200D02*
X100541200Y-96469200D01*
D59*
X100682800Y-90551000D02*
X100682800Y-93091000D01*
D55*
X100427200Y-98653600D02*
X100427200Y-96583200D01*
X110002600Y-105084600D02*
X110849899Y-104237301D01*
X109347300Y-105084600D02*
X110002600Y-105084600D01*
D59*
X111412400Y-94784800D02*
X111760000Y-94437200D01*
D55*
X111760000Y-94437200D02*
X111759400Y-94436600D01*
D59*
X111412400Y-96469200D02*
X111412400Y-94784800D01*
D55*
X108159800Y-103897100D02*
X108159800Y-101800900D01*
X111357900Y-98602800D02*
X111357900Y-96523700D01*
D59*
X111759400Y-94436600D02*
X111759400Y-90601800D01*
D55*
X108159800Y-101800900D02*
X108180750Y-101779950D01*
X111357900Y-98602800D02*
X108180750Y-101779950D01*
X111357900Y-96523700D02*
X111412400Y-96469200D01*
X104659800Y-102794932D02*
X103929434Y-102064566D01*
D58*
X117532000Y-95929600D02*
X117532000Y-96470380D01*
D55*
X118872000Y-98755200D02*
X117532000Y-97415200D01*
D59*
X122729800Y-90602980D02*
X122729800Y-93142980D01*
X122729800Y-93142980D02*
X121537180Y-94335600D01*
X119378820Y-96470380D02*
X117532000Y-96470380D01*
X121513600Y-94335600D02*
X119378820Y-96470380D01*
D55*
X115803710Y-96470380D02*
X111081277Y-101192813D01*
D58*
X121537180Y-94335600D02*
X121513600Y-94335600D01*
D55*
X117535700Y-96466680D02*
X117532000Y-96470380D01*
X117532000Y-97415200D02*
X117532000Y-96470380D01*
X117532000Y-96470380D02*
X115803710Y-96470380D01*
X104698800Y-103858100D02*
X104659800Y-103897100D01*
X121141320Y-98755200D02*
X118872000Y-98755200D01*
X121142500Y-98756380D02*
X121141320Y-98755200D01*
X104659800Y-103897100D02*
X104659800Y-102794932D01*
X104605383Y-110787025D02*
X104519800Y-110787025D01*
X136350400Y-97901600D02*
X136350400Y-96281400D01*
X131747312Y-105047600D02*
X132334000Y-104460912D01*
X122390200Y-103225600D02*
X122390200Y-103134657D01*
X105109800Y-109822100D02*
X105109800Y-110282608D01*
X127945200Y-111156915D02*
X127945200Y-111960100D01*
X132334000Y-104460912D02*
X132334000Y-103835200D01*
X123945200Y-103635100D02*
X123945200Y-103269600D01*
X129082800Y-115303000D02*
X127945200Y-114165400D01*
X127945200Y-114165400D02*
X127945200Y-111960100D01*
X136350400Y-96281400D02*
X136335000Y-96266000D01*
X131521200Y-103658000D02*
X130530000Y-103658000D01*
X130797000Y-112471200D02*
X129956300Y-112471200D01*
X131419600Y-111848600D02*
X130797000Y-112471200D01*
X122390200Y-103225600D02*
X122390200Y-103439449D01*
X129956300Y-112471200D02*
X129445200Y-111960100D01*
X122123200Y-101447600D02*
X121158000Y-101447600D01*
X105109800Y-110282608D02*
X104605383Y-110787025D01*
X122532700Y-104245251D02*
X122532700Y-103368100D01*
X116128800Y-116116600D02*
X117234200Y-116116600D01*
X132156800Y-103658000D02*
X131521200Y-103658000D01*
X129184685Y-110896400D02*
X128205715Y-110896400D01*
X129445200Y-111960100D02*
X129445200Y-111156915D01*
X136550400Y-98101600D02*
X136350400Y-97901600D01*
X131419600Y-111556800D02*
X131419600Y-111848600D01*
X136550400Y-99822000D02*
X136550400Y-98101600D01*
X123945200Y-103269600D02*
X122123200Y-101447600D01*
X128205715Y-110896400D02*
X127945200Y-111156915D01*
X129445200Y-111156915D02*
X129184685Y-110896400D01*
X116070115Y-116175285D02*
X116128800Y-116116600D01*
X130857700Y-105047600D02*
X131747312Y-105047600D01*
X130530000Y-103658000D02*
X130505200Y-103682800D01*
X130200400Y-123897900D02*
X130182184Y-123897900D01*
X117234200Y-116116600D02*
X117246400Y-116128800D01*
X113334800Y-116175285D02*
X116070115Y-116175285D01*
X132334000Y-103835200D02*
X132156800Y-103658000D01*
X122532700Y-105047600D02*
X122532700Y-104245251D01*
X105159800Y-109772100D02*
X105109800Y-109822100D01*
X130182184Y-123897900D02*
X129387600Y-123103316D01*
X122390200Y-103134657D02*
X121641466Y-102385923D01*
X129387600Y-123103316D02*
X129387600Y-122123200D01*
X122532700Y-103368100D02*
X122390200Y-103225600D01*
X116061650Y-109583600D02*
X116061650Y-107812200D01*
X119583200Y-106883200D02*
X120802400Y-106883200D01*
X116460050Y-109982000D02*
X116061650Y-109583600D01*
X118922800Y-107543600D02*
X119583200Y-106883200D01*
X118187250Y-109169200D02*
X117374450Y-109982000D01*
X120802400Y-106883200D02*
X121005600Y-107086400D01*
X122532700Y-107547600D02*
X121466800Y-107547600D01*
X118922800Y-108442350D02*
X118195950Y-109169200D01*
X118922800Y-107543600D02*
X118922800Y-108442350D01*
X121466800Y-107547600D02*
X121005600Y-107086400D01*
X117374450Y-109982000D02*
X116460050Y-109982000D01*
X124445200Y-103635100D02*
X124445200Y-102194800D01*
X124445200Y-102194800D02*
X123698000Y-101447600D01*
X126945200Y-114138600D02*
X126945200Y-111960100D01*
X125730000Y-115353800D02*
X126945200Y-114138600D01*
X110352500Y-116175285D02*
X110540800Y-115986985D01*
X111851015Y-120283815D02*
X113588800Y-122021600D01*
X117246400Y-110591600D02*
X111851015Y-115986985D01*
X119430800Y-107848400D02*
X119430800Y-108966000D01*
X107696000Y-116175285D02*
X110352500Y-116175285D01*
X122532700Y-108047600D02*
X121306400Y-108047600D01*
X120721585Y-107462785D02*
X119816415Y-107462785D01*
X111851015Y-115986985D02*
X111851015Y-120283815D01*
X136702800Y-108508800D02*
X136702800Y-108277000D01*
X121306400Y-108047600D02*
X120721585Y-107462785D01*
X118922800Y-109488673D02*
X117819873Y-110591600D01*
X119816415Y-107462785D02*
X119430800Y-107848400D01*
X137985000Y-106994800D02*
X137985000Y-105066600D01*
X117819873Y-110591600D02*
X117246400Y-110591600D01*
X136702800Y-108277000D02*
X137985000Y-106994800D01*
X137985000Y-105066600D02*
X137820400Y-104902000D01*
X111851015Y-115986985D02*
X110540800Y-115986985D01*
X118922800Y-109474000D02*
X118922800Y-109488673D01*
X119430800Y-108966000D02*
X118922800Y-109474000D01*
X128945200Y-112763285D02*
X128945200Y-111960100D01*
X130227915Y-114046000D02*
X128945200Y-112763285D01*
X130797000Y-114046000D02*
X130227915Y-114046000D01*
X100533200Y-122619800D02*
X100533200Y-121107200D01*
X126445200Y-105607222D02*
X126489902Y-105651924D01*
X126746000Y-109764772D02*
X126785672Y-109804444D01*
X105244300Y-113551300D02*
X100533200Y-118262400D01*
X126489902Y-105651924D02*
X126489902Y-105702724D01*
X126746000Y-105958822D02*
X126746000Y-109764772D01*
X105244300Y-110799502D02*
X105244300Y-113551300D01*
X100533200Y-119357200D02*
X101955600Y-120779600D01*
X105659800Y-109772100D02*
X105659800Y-110384002D01*
X126445200Y-103635100D02*
X126445200Y-105607222D01*
X105659800Y-110384002D02*
X105244300Y-110799502D01*
X126489902Y-105702724D02*
X126746000Y-105958822D01*
X100533200Y-118262400D02*
X100533200Y-119357200D01*
X101955600Y-120779600D02*
X101955600Y-121818400D01*
X103378000Y-122608400D02*
X103378000Y-121095800D01*
X125945200Y-103635100D02*
X125945200Y-105742912D01*
X125932001Y-107020687D02*
X125932001Y-110324300D01*
X103378000Y-119345800D02*
X103378000Y-117703600D01*
X106659800Y-110664402D02*
X106659800Y-109772100D01*
X103378000Y-119634000D02*
X104902000Y-121158000D01*
X106744100Y-110748702D02*
X106659800Y-110664402D01*
X125945200Y-105742912D02*
X126040401Y-105838113D01*
X103378000Y-119345800D02*
X103378000Y-119634000D01*
X126040401Y-106912287D02*
X125932001Y-107020687D01*
X126040401Y-105838113D02*
X126040401Y-106912287D01*
X103378000Y-117703600D02*
X106744100Y-114337500D01*
X106744100Y-114337500D02*
X106744100Y-110748702D01*
X106273600Y-122608400D02*
X106273600Y-121056400D01*
X125064898Y-105599900D02*
X124945200Y-105480202D01*
X107659800Y-109772100D02*
X107659800Y-110481458D01*
X124968000Y-110288798D02*
X124932498Y-110324300D01*
X125166498Y-105599900D02*
X125064898Y-105599900D01*
X106273600Y-119306400D02*
X106370000Y-119210000D01*
X108210830Y-111032488D02*
X108210830Y-113835970D01*
X106273600Y-119329200D02*
X107238800Y-120294400D01*
X124932498Y-110324300D02*
X124932498Y-110119102D01*
X106273600Y-115773200D02*
X106273600Y-119306400D01*
X124945200Y-105480202D02*
X124945200Y-103635100D01*
X125476000Y-109575600D02*
X125476000Y-106840998D01*
X125590900Y-106024302D02*
X125166498Y-105599900D01*
X106273600Y-119306400D02*
X106273600Y-119329200D01*
X107665000Y-109777300D02*
X107659800Y-109772100D01*
X125590900Y-106726098D02*
X125590900Y-106024302D01*
X124932498Y-110119102D02*
X125476000Y-109575600D01*
X125476000Y-106840998D02*
X125590900Y-106726098D01*
X107659800Y-110481458D02*
X108210830Y-111032488D01*
X108210830Y-113835970D02*
X106273600Y-115773200D01*
X130200400Y-122927900D02*
X130200400Y-121261500D01*
X118821200Y-121277400D02*
X118837100Y-121261500D01*
X118821200Y-122912000D02*
X118821200Y-121277400D01*
X121564400Y-122912000D02*
X121564400Y-121261500D01*
X124358400Y-122887100D02*
X124358400Y-121275500D01*
X124358400Y-121275500D02*
X124374300Y-121259600D01*
X127152400Y-122910100D02*
X127152400Y-121259600D01*
X135382000Y-89451700D02*
X135382000Y-90797400D01*
X133604000Y-89467600D02*
X133604000Y-90797400D01*
X127445200Y-99591095D02*
X127965200Y-99071095D01*
X127965200Y-99071095D02*
X127965200Y-96824800D01*
X127445200Y-103635100D02*
X127445200Y-99591095D01*
X128981200Y-98755200D02*
X128981200Y-96824800D01*
X107274400Y-77688400D02*
X106680000Y-78282800D01*
X106680000Y-78282800D02*
X106680000Y-80213200D01*
X127945200Y-103635100D02*
X127945200Y-99791200D01*
X107614300Y-77688400D02*
X107274400Y-77688400D01*
X106680000Y-80213200D02*
X105610400Y-81282800D01*
X127945200Y-99791200D02*
X128981200Y-98755200D01*
X105610400Y-81282800D02*
X105610400Y-83753600D01*
X128445200Y-100408800D02*
X129997200Y-98856800D01*
X129997200Y-98856800D02*
X129997200Y-96824800D01*
X128445200Y-103635100D02*
X128445200Y-100408800D01*
D60*
X107645200Y-87579200D02*
X108864400Y-86360000D01*
X98242800Y-88447200D02*
X99110800Y-87579200D01*
D55*
X112776000Y-105003600D02*
X112776000Y-104378767D01*
X98242800Y-93366000D02*
X98242800Y-91186000D01*
D60*
X98242800Y-91186000D02*
X98242800Y-88447200D01*
X106781600Y-87579200D02*
X107645200Y-87579200D01*
D55*
X112776000Y-104378767D02*
X112473133Y-104075900D01*
X111745499Y-106034101D02*
X112776000Y-105003600D01*
X109397799Y-106034101D02*
X111745499Y-106034101D01*
D61*
X108864400Y-86360000D02*
X108864400Y-85953600D01*
X108610400Y-83753600D02*
X108610400Y-86106000D01*
X108610400Y-86106000D02*
X108864400Y-86360000D01*
X108864400Y-85953600D02*
X109610400Y-85207600D01*
D55*
X98242800Y-88447200D02*
X98247200Y-88442800D01*
X99009200Y-94132400D02*
X98242800Y-93366000D01*
X109347300Y-106084600D02*
X109397799Y-106034101D01*
D60*
X99110800Y-87579200D02*
X106781600Y-87579200D01*
D61*
X109610400Y-85207600D02*
X109610400Y-83753600D01*
D55*
X111048800Y-87782400D02*
X111099600Y-87731600D01*
X109319400Y-96100373D02*
X109319400Y-91236800D01*
X107159800Y-98259973D02*
X109319400Y-96100373D01*
D60*
X109319400Y-89511800D02*
X111048800Y-87782400D01*
X111099600Y-87731600D02*
X111099600Y-86258400D01*
D61*
X110610400Y-83753600D02*
X110610400Y-85769200D01*
X110610400Y-85769200D02*
X111099600Y-86258400D01*
X111610400Y-85747600D02*
X111099600Y-86258400D01*
D55*
X107159800Y-103897100D02*
X107159800Y-98259973D01*
D60*
X109319400Y-91236800D02*
X109319400Y-89511800D01*
D61*
X111610400Y-83753600D02*
X111610400Y-85747600D01*
D55*
X112471200Y-95910400D02*
X114198400Y-94183200D01*
X112428099Y-98569011D02*
X112471200Y-98525910D01*
X112471200Y-98525910D02*
X112471200Y-95910400D01*
X120289800Y-93587980D02*
X120289800Y-91237980D01*
D60*
X120289800Y-88539800D02*
X120289800Y-91237980D01*
D55*
X114198400Y-94183200D02*
X119694580Y-94183200D01*
X105206800Y-101346000D02*
X105659800Y-101799000D01*
D61*
X112610400Y-83753600D02*
X112610400Y-85236800D01*
D55*
X105659800Y-103897100D02*
X105659800Y-101799000D01*
D60*
X119024400Y-87274400D02*
X114648000Y-87274400D01*
D55*
X105206800Y-100533200D02*
X105206800Y-101346000D01*
X119694580Y-94183200D02*
X120289800Y-93587980D01*
X111099600Y-99923600D02*
X112428099Y-98595101D01*
D60*
X119024400Y-87274400D02*
X120289800Y-88539800D01*
D61*
X113610400Y-83753600D02*
X113610400Y-86236800D01*
D55*
X112428099Y-98595101D02*
X112428099Y-98569011D01*
D61*
X112610400Y-85236800D02*
X113610400Y-86236800D01*
D60*
X114648000Y-87274400D02*
X113610400Y-86236800D01*
D55*
X101401502Y-107733500D02*
X101003700Y-107733500D01*
X100482400Y-108254800D02*
X100482400Y-108813600D01*
X101003700Y-107733500D02*
X100482400Y-108254800D01*
X103472300Y-108084600D02*
X101752602Y-108084600D01*
X123945200Y-111960100D02*
X123230902Y-112674400D01*
X101752602Y-108084600D02*
X101401502Y-107733500D01*
X100386401Y-107283999D02*
X101973329Y-107283999D01*
X123722710Y-114198400D02*
X121869200Y-114198400D01*
X103472300Y-107584600D02*
X102273930Y-107584600D01*
X124945200Y-111960100D02*
X124945200Y-112975910D01*
X124945200Y-112975910D02*
X123722710Y-114198400D01*
X102273930Y-107584600D02*
X101973329Y-107283999D01*
X99060000Y-108610400D02*
X100386401Y-107283999D01*
X124420200Y-111985100D02*
X124420200Y-112788285D01*
X123734585Y-113473900D02*
X115591833Y-113473900D01*
X124445200Y-111960100D02*
X124420200Y-111985100D01*
X124420200Y-112788285D02*
X123734585Y-113473900D01*
X115591833Y-113473900D02*
X114142833Y-114922900D01*
X103472300Y-107084600D02*
X102409620Y-107084600D01*
X99413502Y-106834498D02*
X102159518Y-106834498D01*
X102409620Y-107084600D02*
X102159518Y-106834498D01*
X97942400Y-108305600D02*
X99413502Y-106834498D01*
X126695200Y-101955600D02*
X126945200Y-102205600D01*
X126945200Y-102205600D02*
X126945200Y-103635100D01*
X129445200Y-101593200D02*
X135788400Y-95250000D01*
X137260000Y-95973538D02*
X137260000Y-97178800D01*
X129445200Y-103635100D02*
X129445200Y-101593200D01*
X136536462Y-95250000D02*
X137260000Y-95973538D01*
X137260000Y-97178800D02*
X137982800Y-97901600D01*
X137982800Y-97901600D02*
X138000400Y-97901600D01*
X137820400Y-99822000D02*
X137820400Y-98081600D01*
X135788400Y-95250000D02*
X136536462Y-95250000D01*
X137820400Y-98081600D02*
X138000400Y-97901600D01*
X137414000Y-94742000D02*
X138023600Y-95351600D01*
X139141200Y-97422200D02*
X137985000Y-96266000D01*
X135432800Y-94742000D02*
X137414000Y-94742000D01*
X137820400Y-101092000D02*
X139141200Y-99771200D01*
X138023600Y-95351600D02*
X138023600Y-96227400D01*
X128945200Y-101229600D02*
X135432800Y-94742000D01*
X138023600Y-96227400D02*
X137985000Y-96266000D01*
X128945200Y-103635100D02*
X128945200Y-101229600D01*
X139141200Y-99771200D02*
X139141200Y-97422200D01*
X130857700Y-105547600D02*
X131883002Y-105547600D01*
X131883002Y-105547600D02*
X132084702Y-105345900D01*
X132684898Y-105345900D02*
X132912598Y-105118200D01*
X132912598Y-105118200D02*
X133146800Y-105118200D01*
X132084702Y-105345900D02*
X132684898Y-105345900D01*
X128244600Y-87297900D02*
X127967100Y-87020400D01*
X128244600Y-89320600D02*
X128244600Y-87297900D01*
X125081600Y-84949600D02*
X127152400Y-87020400D01*
X127152400Y-87020400D02*
X127967100Y-87020400D01*
X125081600Y-83362800D02*
X125081600Y-84949600D01*
X129792100Y-87020400D02*
X129792100Y-88038300D01*
X129514600Y-88315800D02*
X129514600Y-89320600D01*
X129792100Y-86510500D02*
X129792100Y-87020400D01*
X129792100Y-88038300D02*
X129514600Y-88315800D01*
X127766800Y-85598000D02*
X128879600Y-85598000D01*
X126581600Y-84412800D02*
X127766800Y-85598000D01*
X126581600Y-83362800D02*
X126581600Y-84412800D01*
X128879600Y-85598000D02*
X129792100Y-86510500D01*
X130857700Y-109047600D02*
X133126800Y-109047600D01*
X133126800Y-109047600D02*
X135229600Y-111150400D01*
X113074600Y-106584600D02*
X114096800Y-105562400D01*
X109347300Y-106584600D02*
X113074600Y-106584600D01*
X114096800Y-105562400D02*
X114096800Y-105244300D01*
X114096800Y-105244300D02*
X113639600Y-104787100D01*
X102336600Y-89281000D02*
X102362000Y-89306400D01*
D58*
X100682800Y-89281000D02*
X102336600Y-89281000D01*
D55*
X106659800Y-98929602D02*
X105862498Y-98132300D01*
X103618700Y-98132300D02*
X102870000Y-97383600D01*
X105862498Y-98132300D02*
X103618700Y-98132300D01*
X106659800Y-103897100D02*
X106659800Y-98929602D01*
X93599000Y-89281000D02*
X93573600Y-89306400D01*
D58*
X94892800Y-89281000D02*
X93599000Y-89281000D01*
D55*
X106159800Y-103897100D02*
X106172000Y-103884900D01*
X106172000Y-100431600D02*
X105552535Y-99812135D01*
X106172000Y-103884900D02*
X106172000Y-100431600D01*
X105552535Y-99812135D02*
X105562400Y-99802270D01*
X105562400Y-99802270D02*
X105562400Y-98856800D01*
X113207800Y-89331800D02*
X113233200Y-89357200D01*
D58*
X111759400Y-89331800D02*
X113207800Y-89331800D01*
X105969400Y-89331800D02*
X104368600Y-89331800D01*
D55*
X104368600Y-89331800D02*
X104343200Y-89306400D01*
X110163000Y-105584600D02*
X111574399Y-104173201D01*
X109347300Y-105584600D02*
X110163000Y-105584600D01*
X111574399Y-102531999D02*
X111556800Y-102514400D01*
X111574399Y-104173201D02*
X111574399Y-102531999D01*
X122754020Y-89357200D02*
X122729800Y-89332980D01*
D58*
X124307600Y-89357200D02*
X122754020Y-89357200D01*
D55*
X109931200Y-94525500D02*
X110337600Y-94119100D01*
X107659800Y-98639000D02*
X109931200Y-96367600D01*
X109931200Y-96367600D02*
X109931200Y-94525500D01*
X107659800Y-103897100D02*
X107659800Y-98639000D01*
D58*
X115265200Y-89357200D02*
X116915580Y-89357200D01*
D55*
X116915580Y-89357200D02*
X116939800Y-89332980D01*
X105159800Y-102010200D02*
X103886000Y-100736400D01*
X105159800Y-103897100D02*
X105159800Y-102569000D01*
X105159800Y-102569000D02*
X105159800Y-102010200D01*
X103886000Y-100736400D02*
X103886000Y-100279200D01*
X125945200Y-113250093D02*
X125945200Y-111960100D01*
X119758793Y-119436500D02*
X125945200Y-113250093D01*
X118837100Y-119436500D02*
X119758793Y-119436500D01*
X121678000Y-107047600D02*
X121462800Y-106832400D01*
X121462800Y-106832400D02*
X121462800Y-105562400D01*
X121462800Y-105562400D02*
X121005600Y-105105200D01*
X121005600Y-105105200D02*
X118276750Y-105105200D01*
X122532700Y-107047600D02*
X121678000Y-107047600D01*
X126445200Y-111960100D02*
X126445200Y-113385783D01*
X126445200Y-113385783D02*
X121564400Y-118266583D01*
X121564400Y-118266583D02*
X121564400Y-119436500D01*
X124374300Y-119434600D02*
X124374300Y-118551300D01*
X128445200Y-111960100D02*
X128445200Y-113611600D01*
X124374300Y-118551300D02*
X124866400Y-118059200D01*
X128445200Y-113611600D02*
X128676400Y-113842800D01*
X133756400Y-115214400D02*
X133756400Y-112627783D01*
X133756400Y-112627783D02*
X131676217Y-110547600D01*
X131368800Y-117602000D02*
X133756400Y-115214400D01*
X127152400Y-119434600D02*
X127152400Y-118973600D01*
X131064000Y-117906800D02*
X131368800Y-117602000D01*
X128219200Y-117906800D02*
X131064000Y-117906800D01*
X127152400Y-118973600D02*
X128219200Y-117906800D01*
X131676217Y-110547600D02*
X130857700Y-110547600D01*
X110599800Y-117870985D02*
X110540800Y-117811985D01*
X110599800Y-119515885D02*
X110599800Y-117870985D01*
X115679800Y-118215600D02*
X116128800Y-117766600D01*
X115679800Y-119515885D02*
X115679800Y-118215600D01*
X135382000Y-92622400D02*
X135382000Y-93878400D01*
X135382000Y-93878400D02*
X135432800Y-93929200D01*
X132994400Y-110032800D02*
X130872500Y-110032800D01*
X133604000Y-92622400D02*
X134162800Y-93181200D01*
X134162800Y-93181200D02*
X134162800Y-94792800D01*
X130872500Y-110032800D02*
X130857700Y-110047600D01*
X125445200Y-113114403D02*
X121618003Y-116941600D01*
X119938800Y-116941600D02*
X116890800Y-119989600D01*
X125445200Y-111960100D02*
X125445200Y-113114403D01*
X116890800Y-122454885D02*
X115679800Y-123665885D01*
X116890800Y-119989600D02*
X116890800Y-122454885D01*
X121618003Y-116941600D02*
X119938800Y-116941600D01*
X122532700Y-109547600D02*
X121593825Y-109547600D01*
X102876102Y-105584600D02*
X101431502Y-104140000D01*
X121593825Y-109547600D02*
X121286653Y-109854772D01*
X103472300Y-105584600D02*
X102876102Y-105584600D01*
X99009200Y-104140000D02*
X98145600Y-103276400D01*
X101431502Y-104140000D02*
X99009200Y-104140000D01*
X121286653Y-109854772D02*
X119719481Y-109854772D01*
X103472300Y-105084600D02*
X103011792Y-105084600D01*
X99521756Y-103137154D02*
X99194086Y-103137154D01*
X122532700Y-109047600D02*
X120670000Y-109047600D01*
X120670000Y-109047600D02*
X120650000Y-109067600D01*
X101318492Y-103391300D02*
X99775902Y-103391300D01*
X103011792Y-105084600D02*
X101318492Y-103391300D01*
X99775902Y-103391300D02*
X99521756Y-103137154D01*
X103472300Y-103421500D02*
X103472300Y-104584600D01*
X100101400Y-102641400D02*
X100177600Y-102717600D01*
X120794283Y-108187285D02*
X120176661Y-108187285D01*
X102768400Y-102717600D02*
X103472300Y-103421500D01*
X122532700Y-108547600D02*
X121154598Y-108547600D01*
X121154598Y-108547600D02*
X120794283Y-108187285D01*
X100177600Y-102717600D02*
X102768400Y-102717600D01*
X98407299Y-106367501D02*
X102328211Y-106367501D01*
X122532700Y-105547600D02*
X124089600Y-105547600D01*
X98247200Y-106527600D02*
X98407299Y-106367501D01*
X124089600Y-105547600D02*
X124866400Y-106324400D01*
X103472300Y-106584600D02*
X102545310Y-106584600D01*
X102545310Y-106584600D02*
X102328211Y-106367501D01*
X101713656Y-108584600D02*
X101525627Y-108772629D01*
X124538357Y-107122555D02*
X124538357Y-107880241D01*
X123471575Y-106047600D02*
X124141900Y-106717925D01*
X103472300Y-108584600D02*
X101713656Y-108584600D01*
X124141900Y-106717925D02*
X124141900Y-106726098D01*
X122532700Y-106047600D02*
X123471575Y-106047600D01*
X124141900Y-106726098D02*
X124538357Y-107122555D01*
X102954600Y-109084600D02*
X102424900Y-109614300D01*
X123850400Y-109718989D02*
X123861139Y-109729728D01*
X123633900Y-108803554D02*
X123633900Y-109003500D01*
X122532700Y-106547600D02*
X123335885Y-106547600D01*
X123850400Y-109220000D02*
X123850400Y-109718989D01*
X123633900Y-106845615D02*
X123633900Y-108803554D01*
X123633900Y-109003500D02*
X123850400Y-109220000D01*
X123335885Y-106547600D02*
X123633900Y-106845615D01*
X102424900Y-109614300D02*
X102326575Y-109614300D01*
X103472300Y-109084600D02*
X102954600Y-109084600D01*
X121729515Y-110047600D02*
X120943469Y-110833646D01*
X102971600Y-110693200D02*
X103238700Y-110693200D01*
X122532700Y-110047600D02*
X121729515Y-110047600D01*
X120943469Y-110833646D02*
X120943469Y-112215102D01*
X103238700Y-110693200D02*
X104159800Y-109772100D01*
X108159800Y-109772100D02*
X108159800Y-110306700D01*
X107211331Y-111057587D02*
X107486330Y-111332586D01*
X106159800Y-109772100D02*
X106159800Y-111162600D01*
X108159800Y-110306700D02*
X109728000Y-111874900D01*
X122532700Y-111807700D02*
X122532700Y-110547600D01*
X107211331Y-110629422D02*
X107211331Y-111057587D01*
X107193601Y-110611692D02*
X107211331Y-110629422D01*
X122072400Y-112268000D02*
X122532700Y-111807700D01*
X106159800Y-111162600D02*
X106019600Y-111302800D01*
X107159800Y-109772100D02*
X107193601Y-109805901D01*
X107193601Y-109805901D02*
X107193601Y-110611692D01*
X127355600Y-95758000D02*
X127508000Y-95910400D01*
X130759200Y-95910400D02*
X131775200Y-96926400D01*
X132384800Y-106070400D02*
X130880500Y-106070400D01*
X126974600Y-95377000D02*
X127355600Y-95758000D01*
X130880500Y-106070400D02*
X130857700Y-106047600D01*
X131775200Y-96926400D02*
X131775200Y-96977200D01*
X126974600Y-94270600D02*
X126974600Y-95377000D01*
X127508000Y-95910400D02*
X130759200Y-95910400D01*
X132537200Y-96023200D02*
X132537200Y-96113600D01*
X130857700Y-106547600D02*
X131693600Y-106547600D01*
X131693600Y-106547600D02*
X132099748Y-106953748D01*
X130784600Y-94270600D02*
X132537200Y-96023200D01*
X132099748Y-106953748D02*
X132852455Y-106953748D01*
X126746000Y-100838000D02*
X126746000Y-99007300D01*
X125445200Y-102138800D02*
X126746000Y-100838000D01*
X125445200Y-103635100D02*
X125445200Y-102138800D01*
X117873750Y-106934000D02*
X118238050Y-106569700D01*
X117061650Y-106468800D02*
X117526850Y-106934000D01*
X117526850Y-106934000D02*
X117873750Y-106934000D01*
X117061650Y-106462200D02*
X117061650Y-105125300D01*
X130857700Y-109547600D02*
X129207200Y-109547600D01*
X129207200Y-109547600D02*
X127658890Y-107999290D01*
X127658890Y-107999290D02*
X127658890Y-106111091D01*
X130845700Y-108559600D02*
X130857700Y-108547600D01*
X129848889Y-108547600D02*
X128383390Y-107082101D01*
X130857700Y-108547600D02*
X129848889Y-108547600D01*
X130857700Y-107047600D02*
X129528000Y-107047600D01*
X129528000Y-107047600D02*
X129450744Y-107124856D01*
X130845700Y-107035600D02*
X130857700Y-107047600D01*
M02*
