M48
; DRILL file {KiCad 6.0.11-2627ca5db0~126~ubuntu20.04.1} date Mon 15 Jan 2024 11:11:20 PM JST
; FORMAT={-:-/ absolute / metric / decimal}
; #@! TF.CreationDate,2024-01-15T23:11:20+09:00
; #@! TF.GenerationSoftware,Kicad,Pcbnew,6.0.11-2627ca5db0~126~ubuntu20.04.1
; #@! TF.FileFunction,Plated,1,4,PTH
FMAT,2
METRIC
; #@! TA.AperFunction,Plated,PTH,ViaDrill
T1C0.300
; #@! TA.AperFunction,Plated,PTH,ComponentDrill
T2C0.300
; #@! TA.AperFunction,Plated,PTH,ViaDrill
T3C0.400
; #@! TA.AperFunction,Plated,PTH,ComponentDrill
T4C0.650
; #@! TA.AperFunction,Plated,PTH,ComponentDrill
T5C2.700
; #@! TA.AperFunction,Plated,PTH,ComponentDrill
T6C3.200
%
G90
G05
T1
X93.264Y-95.656
X93.264Y-97.333
X93.722Y-96.469
X94.128Y-95.656
X94.128Y-97.333
X94.89Y-90.576
X94.89Y-91.846
X94.89Y-93.116
X95.652Y-90.83
X95.652Y-91.796
X95.652Y-92.812
X96.211Y-89.51
X96.211Y-90.424
X96.211Y-91.288
X96.211Y-92.1
X96.211Y-92.964
X104.136Y-95.606
X104.136Y-97.282
X104.542Y-96.469
X104.999Y-95.606
X104.999Y-97.282
X105.964Y-90.576
X105.964Y-91.846
X105.964Y-93.116
X106.726Y-90.83
X106.726Y-91.796
X106.726Y-92.812
X107.285Y-89.51
X107.285Y-90.424
X107.285Y-91.288
X107.285Y-92.1
X107.285Y-92.964
X116.935Y-90.628
X116.935Y-91.898
X116.935Y-93.168
X117.697Y-90.882
X117.697Y-91.848
X117.697Y-92.864
X118.256Y-89.562
X118.256Y-90.476
X118.256Y-91.34
X118.256Y-92.152
X118.256Y-93.016
X123.393Y-96.063
X123.393Y-96.926
X124.206Y-96.469
X125.07Y-96.063
X125.07Y-96.926
T2
X105.14Y-106.835
X106.41Y-106.835
X107.68Y-106.835
T3
X91.084Y-84.734
X91.084Y-90.068
X91.084Y-95.199
X91.084Y-100.279
X91.084Y-105.359
X91.084Y-110.338
X91.084Y-115.316
X92.202Y-89.713
X92.405Y-83.414
X92.659Y-93.726
X92.964Y-117.145
X92.964Y-117.145
X93.574Y-89.306
X94.793Y-99.314
X94.793Y-101.956
X95.504Y-100.686
X96.012Y-117.145
X96.063Y-83.414
X96.215Y-99.314
X96.215Y-106.731
X96.266Y-101.956
X96.266Y-109.372
X96.774Y-110.896
X97.79Y-104.699
X97.942Y-108.306
X98.146Y-103.276
X98.247Y-106.528
X98.349Y-98.654
X98.603Y-119.736
X98.628Y-123.419
X98.654Y-77.673
X98.654Y-80.823
X99.009Y-94.132
X99.009Y-105.423
X99.06Y-108.61
X99.194Y-103.137
X99.873Y-80.01
X99.873Y-81.991
X99.924Y-124.714
X100.101Y-102.641
X100.432Y-75.895
X100.482Y-108.814
X100.584Y-80.975
X101.346Y-80.01
X101.346Y-81.991
X101.414Y-100.821
X101.526Y-108.773
X101.956Y-121.818
X102.327Y-109.614
X102.362Y-89.306
X102.514Y-78.08
X102.87Y-97.384
X102.972Y-110.693
X103.632Y-82.144
X103.886Y-100.279
X103.929Y-102.065
X104.343Y-89.306
X104.52Y-110.787
X104.61Y-83.754
X104.902Y-121.158
X105.207Y-100.533
X105.359Y-124.714
X105.562Y-98.857
X105.613Y-83.769
X106.02Y-111.303
X106.629Y-83.769
X106.731Y-75.895
X107.239Y-120.294
X107.486Y-111.333
X107.594Y-82.093
X107.614Y-77.688
X108.45Y-122.741
X108.966Y-78.638
X109.118Y-98.654
X109.728Y-111.875
X110.338Y-94.119
X110.49Y-124.714
X110.85Y-103.221
X110.917Y-108.085
X111.081Y-101.193
X111.1Y-99.924
X111.557Y-102.514
X111.557Y-112.624
X111.709Y-75.895
X112.473Y-104.076
X113.233Y-89.357
X113.538Y-120.701
X113.589Y-122.022
X113.64Y-104.787
X113.894Y-101.092
X113.898Y-99.471
X114.015Y-112.661
X114.143Y-114.923
X114.168Y-96.134
X115.113Y-108.56
X115.164Y-104.787
X115.265Y-89.357
X115.418Y-100.254
X115.57Y-124.714
X115.875Y-80.01
X115.875Y-81.991
X116.586Y-80.975
X116.789Y-75.895
X116.992Y-99.416
X117.043Y-101.092
X117.246Y-116.129
X117.348Y-80.01
X117.348Y-81.991
X119.719Y-109.855
X119.888Y-103.226
X120.177Y-108.187
X120.65Y-109.068
X120.65Y-124.714
X120.943Y-112.215
X120.955Y-78.689
X120.955Y-79.908
X121.006Y-77.47
X121.158Y-101.448
X121.641Y-102.386
X121.869Y-75.895
X121.869Y-114.198
X122.072Y-112.268
X122.957Y-123.88
X123.231Y-112.674
X123.861Y-109.73
X124.308Y-89.357
X124.538Y-107.88
X124.866Y-106.324
X124.866Y-118.059
X124.932Y-110.324
X125.324Y-98.755
X125.628Y-124.714
X125.932Y-110.324
X126.695Y-101.956
X126.786Y-109.804
X126.975Y-91.618
X127.0Y-75.895
X127.521Y-110.484
X127.659Y-106.111
X127.965Y-96.825
X128.082Y-80.939
X128.383Y-107.082
X128.676Y-113.843
X128.981Y-96.825
X129.388Y-122.123
X129.451Y-107.125
X129.997Y-96.825
X130.2Y-116.891
X130.505Y-103.683
X130.708Y-77.419
X130.708Y-78.689
X130.708Y-79.908
X130.708Y-124.714
X131.115Y-83.058
X131.42Y-111.557
X131.47Y-75.895
X131.775Y-96.977
X131.775Y-100.736
X132.029Y-90.322
X132.044Y-88.087
X132.334Y-115.113
X132.385Y-106.07
X132.436Y-76.911
X132.436Y-80.823
X132.436Y-119.736
X132.436Y-122.987
X132.537Y-96.114
X132.69Y-83.007
X132.852Y-106.954
X132.944Y-93.828
X132.994Y-110.033
X134.163Y-94.793
X134.925Y-107.086
X134.976Y-117.196
X135.001Y-83.388
X135.23Y-111.15
X135.433Y-93.929
X136.601Y-93.777
X136.703Y-108.509
X136.906Y-110.846
X137.398Y-86.301
X137.465Y-89.611
X138.633Y-117.196
X138.887Y-83.414
X139.954Y-84.48
X139.954Y-90.475
X139.954Y-95.606
X139.954Y-100.686
X139.954Y-105.766
X139.954Y-110.744
X139.954Y-115.875
T4
X136.55Y-99.822
X136.55Y-101.092
X136.55Y-102.362
X136.55Y-103.632
X136.55Y-104.902
X137.82Y-99.822
X137.82Y-101.092
X137.82Y-102.362
X137.82Y-103.632
X137.82Y-104.902
T5
X93.715Y-113.894
X98.715Y-113.894
T6
X94.524Y-79.31
X94.524Y-121.31
X136.524Y-79.31
X136.524Y-121.31
T0
M30
