G04 #@! TF.GenerationSoftware,KiCad,Pcbnew,6.0.11-2627ca5db0~126~ubuntu20.04.1*
G04 #@! TF.CreationDate,2024-01-15T23:09:37+09:00*
G04 #@! TF.ProjectId,motor_driver,6d6f746f-725f-4647-9269-7665722e6b69,rev?*
G04 #@! TF.SameCoordinates,Original*
G04 #@! TF.FileFunction,Copper,L4,Bot*
G04 #@! TF.FilePolarity,Positive*
%FSLAX46Y46*%
G04 Gerber Fmt 4.6, Leading zero omitted, Abs format (unit mm)*
G04 Created by KiCad (PCBNEW 6.0.11-2627ca5db0~126~ubuntu20.04.1) date 2024-01-15 23:09:37*
%MOMM*%
%LPD*%
G01*
G04 APERTURE LIST*
G04 Aperture macros list*
%AMRoundRect*
0 Rectangle with rounded corners*
0 $1 Rounding radius*
0 $2 $3 $4 $5 $6 $7 $8 $9 X,Y pos of 4 corners*
0 Add a 4 corners polygon primitive as box body*
4,1,4,$2,$3,$4,$5,$6,$7,$8,$9,$2,$3,0*
0 Add four circle primitives for the rounded corners*
1,1,$1+$1,$2,$3*
1,1,$1+$1,$4,$5*
1,1,$1+$1,$6,$7*
1,1,$1+$1,$8,$9*
0 Add four rect primitives between the rounded corners*
20,1,$1+$1,$2,$3,$4,$5,0*
20,1,$1+$1,$4,$5,$6,$7,0*
20,1,$1+$1,$6,$7,$8,$9,0*
20,1,$1+$1,$8,$9,$2,$3,0*%
G04 Aperture macros list end*
G04 #@! TA.AperFunction,ComponentPad*
%ADD10C,3.600000*%
G04 #@! TD*
G04 #@! TA.AperFunction,ConnectorPad*
%ADD11C,6.400000*%
G04 #@! TD*
G04 #@! TA.AperFunction,ComponentPad*
%ADD12R,3.800000X3.800000*%
G04 #@! TD*
G04 #@! TA.AperFunction,ComponentPad*
%ADD13C,4.000000*%
G04 #@! TD*
G04 #@! TA.AperFunction,ComponentPad*
%ADD14R,1.000000X1.000000*%
G04 #@! TD*
G04 #@! TA.AperFunction,ComponentPad*
%ADD15O,1.000000X1.000000*%
G04 #@! TD*
G04 #@! TA.AperFunction,ComponentPad*
%ADD16C,0.508000*%
G04 #@! TD*
G04 #@! TA.AperFunction,SMDPad,CuDef*
%ADD17RoundRect,0.250000X0.450000X-0.350000X0.450000X0.350000X-0.450000X0.350000X-0.450000X-0.350000X0*%
G04 #@! TD*
G04 #@! TA.AperFunction,SMDPad,CuDef*
%ADD18RoundRect,0.225000X0.250000X-0.225000X0.250000X0.225000X-0.250000X0.225000X-0.250000X-0.225000X0*%
G04 #@! TD*
G04 #@! TA.AperFunction,SMDPad,CuDef*
%ADD19RoundRect,0.225000X-0.225000X-0.250000X0.225000X-0.250000X0.225000X0.250000X-0.225000X0.250000X0*%
G04 #@! TD*
G04 #@! TA.AperFunction,SMDPad,CuDef*
%ADD20RoundRect,0.250000X-0.450000X0.350000X-0.450000X-0.350000X0.450000X-0.350000X0.450000X0.350000X0*%
G04 #@! TD*
G04 #@! TA.AperFunction,SMDPad,CuDef*
%ADD21R,2.400000X1.450000*%
G04 #@! TD*
G04 #@! TA.AperFunction,SMDPad,CuDef*
%ADD22RoundRect,0.100000X-0.100000X0.687500X-0.100000X-0.687500X0.100000X-0.687500X0.100000X0.687500X0*%
G04 #@! TD*
G04 #@! TA.AperFunction,SMDPad,CuDef*
%ADD23R,5.000000X3.400000*%
G04 #@! TD*
G04 #@! TA.AperFunction,SMDPad,CuDef*
%ADD24RoundRect,0.150000X0.512500X0.150000X-0.512500X0.150000X-0.512500X-0.150000X0.512500X-0.150000X0*%
G04 #@! TD*
G04 #@! TA.AperFunction,SMDPad,CuDef*
%ADD25RoundRect,0.225000X-0.250000X0.225000X-0.250000X-0.225000X0.250000X-0.225000X0.250000X0.225000X0*%
G04 #@! TD*
G04 #@! TA.AperFunction,SMDPad,CuDef*
%ADD26R,0.650000X1.560000*%
G04 #@! TD*
G04 #@! TA.AperFunction,SMDPad,CuDef*
%ADD27RoundRect,0.150000X-0.150000X0.587500X-0.150000X-0.587500X0.150000X-0.587500X0.150000X0.587500X0*%
G04 #@! TD*
G04 #@! TA.AperFunction,SMDPad,CuDef*
%ADD28RoundRect,0.200000X-0.200000X-0.275000X0.200000X-0.275000X0.200000X0.275000X-0.200000X0.275000X0*%
G04 #@! TD*
G04 #@! TA.AperFunction,SMDPad,CuDef*
%ADD29RoundRect,0.140000X-0.170000X0.140000X-0.170000X-0.140000X0.170000X-0.140000X0.170000X0.140000X0*%
G04 #@! TD*
G04 #@! TA.AperFunction,ViaPad*
%ADD30C,0.800000*%
G04 #@! TD*
G04 #@! TA.AperFunction,ViaPad*
%ADD31C,0.508000*%
G04 #@! TD*
G04 #@! TA.AperFunction,Conductor*
%ADD32C,0.250000*%
G04 #@! TD*
G04 #@! TA.AperFunction,Conductor*
%ADD33C,0.500000*%
G04 #@! TD*
G04 #@! TA.AperFunction,Conductor*
%ADD34C,0.750000*%
G04 #@! TD*
G04 APERTURE END LIST*
D10*
X94524000Y-79310400D03*
D11*
X94524000Y-79310400D03*
D12*
X98715200Y-113893600D03*
D13*
X93715200Y-113893600D03*
D10*
X136524000Y-79310400D03*
D11*
X136524000Y-79310400D03*
D14*
X136550400Y-99822000D03*
D15*
X137820400Y-99822000D03*
X136550400Y-101092000D03*
X137820400Y-101092000D03*
X136550400Y-102362000D03*
X137820400Y-102362000D03*
X136550400Y-103632000D03*
X137820400Y-103632000D03*
X136550400Y-104902000D03*
X137820400Y-104902000D03*
D11*
X136524000Y-121310400D03*
D10*
X136524000Y-121310400D03*
D11*
X94524000Y-121310400D03*
D10*
X94524000Y-121310400D03*
D16*
X106409800Y-106834600D03*
X107679800Y-106834600D03*
X105139800Y-106834600D03*
D17*
X93569200Y-92592400D03*
X93569200Y-90592400D03*
D18*
X135295600Y-86300600D03*
X135295600Y-84750600D03*
D19*
X131117000Y-85830400D03*
X132667000Y-85830400D03*
D20*
X124300800Y-90593580D03*
X124300800Y-92593580D03*
D21*
X129438400Y-123338600D03*
X129438400Y-119688600D03*
D19*
X131421800Y-92688400D03*
X132971800Y-92688400D03*
D17*
X104343200Y-92592400D03*
X104343200Y-90592400D03*
X115265200Y-92592400D03*
X115265200Y-90592400D03*
D20*
X102357600Y-90592400D03*
X102357600Y-92592400D03*
D22*
X113518400Y-97416700D03*
X114168400Y-97416700D03*
X114818400Y-97416700D03*
X115468400Y-97416700D03*
X116118400Y-97416700D03*
X116768400Y-97416700D03*
X117418400Y-97416700D03*
X117418400Y-103141700D03*
X116768400Y-103141700D03*
X116118400Y-103141700D03*
X115468400Y-103141700D03*
X114818400Y-103141700D03*
X114168400Y-103141700D03*
X113518400Y-103141700D03*
D23*
X115468400Y-100279200D03*
D24*
X107614300Y-77688400D03*
X107614300Y-78638400D03*
X107614300Y-79588400D03*
X105339300Y-79588400D03*
X105339300Y-78638400D03*
X105339300Y-77688400D03*
D25*
X134736800Y-90999000D03*
X134736800Y-92549000D03*
D26*
X136530000Y-88138000D03*
X137480000Y-88138000D03*
X138430000Y-88138000D03*
X138430000Y-90838000D03*
X136530000Y-90838000D03*
D20*
X113233200Y-90592400D03*
X113233200Y-92592400D03*
D26*
X131094400Y-88087200D03*
X132044400Y-88087200D03*
X132994400Y-88087200D03*
X132994400Y-90787200D03*
X131094400Y-90787200D03*
D25*
X103559600Y-78082200D03*
X103559600Y-79632200D03*
D27*
X135158400Y-114046000D03*
X137058400Y-114046000D03*
X136108400Y-115921000D03*
D19*
X136603400Y-92739200D03*
X138153400Y-92739200D03*
D28*
X135232600Y-112087900D03*
X136882600Y-112087900D03*
D29*
X112064800Y-98224400D03*
X112064800Y-99184400D03*
D19*
X131131100Y-84095600D03*
X132681100Y-84095600D03*
D30*
X131775200Y-100736400D03*
D31*
X107285200Y-89509600D03*
X107285200Y-90424000D03*
X105964400Y-91846400D03*
X116934800Y-91898380D03*
X118255600Y-91339580D03*
X106726400Y-90830400D03*
X117696800Y-91847580D03*
X105964400Y-93116400D03*
D30*
X111556800Y-112623600D03*
D31*
X96210800Y-89509600D03*
X118255600Y-93015980D03*
X116934800Y-93168380D03*
D30*
X94792800Y-99314000D03*
D31*
X118255600Y-89561580D03*
X96210800Y-90424000D03*
X106726400Y-91795600D03*
X95652000Y-90830400D03*
X94890000Y-90576400D03*
D30*
X94792800Y-101955600D03*
D31*
X96210800Y-92100400D03*
X107285200Y-92100400D03*
D30*
X96774000Y-110896400D03*
D31*
X107285200Y-91287600D03*
X106726400Y-92811600D03*
X94890000Y-91846400D03*
X118255600Y-90475980D03*
X96210800Y-92964000D03*
X118255600Y-92152380D03*
X96210800Y-91287600D03*
X94890000Y-93116400D03*
X95652000Y-92811600D03*
X105964400Y-90576400D03*
X116934800Y-90628380D03*
X95652000Y-91795600D03*
X107285200Y-92964000D03*
X117696800Y-92863580D03*
D30*
X96266000Y-101955600D03*
D31*
X117696800Y-90882380D03*
D30*
X92659200Y-93726000D03*
X96215200Y-99314000D03*
X95504000Y-100685600D03*
X115163600Y-104787100D03*
X91084400Y-84734400D03*
X139954000Y-90474800D03*
X125628400Y-124714000D03*
X130708400Y-78689200D03*
X98348800Y-98653600D03*
X92964000Y-117144800D03*
X138887200Y-83413600D03*
D31*
X104999200Y-95605600D03*
D30*
X130200400Y-116890800D03*
X91084400Y-110337600D03*
X92964000Y-117144800D03*
X110490000Y-124714000D03*
X111709200Y-75895200D03*
X100584000Y-80975200D03*
D31*
X104542000Y-96469200D03*
D30*
X117348000Y-81991200D03*
X101346000Y-81991200D03*
X98628199Y-123418601D03*
X96062800Y-83413600D03*
X91084400Y-95199200D03*
D31*
X104999200Y-97282000D03*
D30*
X100431598Y-75895200D03*
D31*
X93264400Y-95656400D03*
X104135600Y-97282000D03*
D30*
X91084400Y-115316000D03*
X137464800Y-89611200D03*
X132435600Y-122986800D03*
X138633200Y-117195600D03*
X121869200Y-75895200D03*
X107594400Y-82092800D03*
X105359200Y-124714000D03*
X98653600Y-80822802D03*
X120954800Y-78689200D03*
X132334000Y-115112800D03*
D31*
X125069600Y-96926400D03*
D30*
X106730800Y-75895200D03*
X91084400Y-100279200D03*
X127000000Y-75895200D03*
X99872800Y-81991200D03*
X114015000Y-112661100D03*
X139954000Y-105765600D03*
X117348000Y-80010000D03*
X115874800Y-81991200D03*
X91084400Y-105359200D03*
X99872800Y-80010000D03*
X130708400Y-79908400D03*
X132435600Y-80822800D03*
X130708400Y-77419200D03*
X101346000Y-80010000D03*
X113893600Y-101092000D03*
X120650000Y-124714000D03*
X116586000Y-80975200D03*
X126974600Y-91617800D03*
X113898075Y-99470523D03*
D31*
X94128000Y-95656400D03*
X123393200Y-96926400D03*
D30*
X98602800Y-119735600D03*
X121005600Y-77470000D03*
X115417600Y-100253800D03*
X122957100Y-123880100D03*
D31*
X124206000Y-96469200D03*
D30*
X139954000Y-115874802D03*
X116992400Y-99415600D03*
X98653600Y-77673200D03*
X108449800Y-122741000D03*
X91084400Y-90068400D03*
X131470400Y-75895200D03*
X120954800Y-79908400D03*
D31*
X93264400Y-97332800D03*
D30*
X132044400Y-88087200D03*
X99923600Y-124714000D03*
X92405198Y-83413600D03*
X119888000Y-103225600D03*
X117043200Y-101092000D03*
X92202000Y-89712800D03*
X139954000Y-84480400D03*
X115874800Y-80010000D03*
X130708402Y-124714000D03*
X96012000Y-117144800D03*
D31*
X94128000Y-97332800D03*
D30*
X108966000Y-78638400D03*
D31*
X123393200Y-96062800D03*
D30*
X132435600Y-119735600D03*
D31*
X125069600Y-96062800D03*
D30*
X125323600Y-98755200D03*
X96266000Y-109372400D03*
X116789200Y-75895200D03*
X115570000Y-124714000D03*
X136906000Y-110845600D03*
X139954000Y-100685600D03*
X135001000Y-83388200D03*
X132943600Y-93827600D03*
X132689600Y-83007200D03*
X139954000Y-110744000D03*
D31*
X104135600Y-95605600D03*
D30*
X109118400Y-98653600D03*
X132435600Y-76911200D03*
X134975600Y-117195600D03*
X113538000Y-120700800D03*
X99009200Y-105423300D03*
X139954000Y-95605600D03*
D31*
X93721600Y-96469200D03*
D30*
X96215200Y-106730800D03*
X110916965Y-108084601D03*
X115112800Y-108559600D03*
X131114800Y-83058000D03*
X128081601Y-80939201D03*
X102514400Y-78079600D03*
X114168400Y-96134400D03*
X103632000Y-82143600D03*
X137397600Y-86300600D03*
X136601200Y-93776800D03*
X97790000Y-104698800D03*
X127521300Y-110483919D03*
X101414144Y-100820656D03*
X110849899Y-103221301D03*
X111081277Y-101192813D03*
X103929434Y-102064566D03*
X121641466Y-102385923D03*
X131419600Y-111556800D03*
X117246400Y-116128800D03*
X121158000Y-101447600D03*
X104519800Y-110787025D03*
X130505200Y-103682800D03*
X132029200Y-90322400D03*
X129387600Y-122123200D03*
X113588800Y-122021600D03*
X136702800Y-108508800D03*
X126785672Y-109804444D03*
X101955600Y-121818400D03*
X104902000Y-121158000D03*
X125932001Y-110324300D03*
X124932498Y-110324300D03*
X107238800Y-120294400D03*
X127965200Y-96824800D03*
X104610401Y-83753599D03*
X105613200Y-83769200D03*
X107614300Y-77688400D03*
X128981200Y-96824800D03*
X106629200Y-83769200D03*
X129997200Y-96824800D03*
X99009200Y-94132400D03*
X112473133Y-104075900D03*
X105206800Y-100533200D03*
X111099600Y-99923600D03*
X123230902Y-112674400D03*
X100482400Y-108813600D03*
X121869200Y-114198400D03*
X99060000Y-108610400D03*
X114142833Y-114922900D03*
X97942400Y-108305600D03*
X126695200Y-101955600D03*
X135229600Y-111150400D03*
X113639600Y-104787100D03*
X102362000Y-89306400D03*
X102870000Y-97383600D03*
X93573600Y-89306400D03*
X105562400Y-98856800D03*
X113233200Y-89357200D03*
X104343200Y-89306400D03*
X111556800Y-102514400D03*
X124307600Y-89357200D03*
X110337600Y-94119100D03*
X115265200Y-89357200D03*
X103886000Y-100279200D03*
X128676400Y-113842800D03*
X124866400Y-118059200D03*
X134924800Y-107086400D03*
X135432800Y-93929200D03*
X134162800Y-94792800D03*
X132994400Y-110032800D03*
X119719481Y-109854772D03*
X98145600Y-103276400D03*
X99194086Y-103137154D03*
X120650000Y-109067600D03*
X100101400Y-102641400D03*
X120176661Y-108187285D03*
X124866400Y-106324400D03*
X98247200Y-106527600D03*
X124538357Y-107880241D03*
X101525627Y-108772629D03*
X123861139Y-109729728D03*
X102326575Y-109614300D03*
X120943469Y-112215102D03*
X102971600Y-110693200D03*
X109728000Y-111874900D03*
X122072400Y-112268000D03*
X107486330Y-111332586D03*
X106019600Y-111302800D03*
X131775200Y-96977200D03*
X132384800Y-106070400D03*
X132537200Y-96113600D03*
X132852455Y-106953748D03*
X127658890Y-106111091D03*
X128383390Y-107082101D03*
X129450744Y-107124856D03*
D32*
X135432800Y-106578400D02*
X134924800Y-107086400D01*
X135432800Y-93929200D02*
X135432800Y-106578400D01*
D33*
X132435600Y-122986802D02*
X130708402Y-124714000D01*
X132435600Y-119735598D02*
X132435600Y-122986802D01*
D32*
X103559600Y-79632200D02*
X101723800Y-79632200D01*
X137058400Y-114046000D02*
X137058400Y-112263700D01*
D33*
X131470400Y-75895200D02*
X132435600Y-76860400D01*
D32*
X113611952Y-99184400D02*
X113898075Y-99470523D01*
D33*
X92862398Y-117144800D02*
X91084400Y-115366802D01*
D32*
X103559600Y-79632200D02*
X105295500Y-79632200D01*
X137058400Y-112263700D02*
X136882600Y-112087900D01*
X116118400Y-97416700D02*
X116118400Y-99629200D01*
X132044400Y-88087200D02*
X132044400Y-86453000D01*
D33*
X98653600Y-80822802D02*
X98653600Y-77673198D01*
X138633202Y-117195600D02*
X134975598Y-117195600D01*
D32*
X115468400Y-100279200D02*
X117418400Y-98329200D01*
D33*
X135026402Y-83413600D02*
X138887200Y-83413600D01*
D32*
X116768400Y-97416700D02*
X116768400Y-98979200D01*
X135295600Y-84750600D02*
X133336100Y-84750600D01*
X133111200Y-92549000D02*
X132971800Y-92688400D01*
X137464800Y-92050600D02*
X137464800Y-89611200D01*
D33*
X96062802Y-83413600D02*
X98653600Y-80822802D01*
D32*
X137480000Y-88138000D02*
X137480000Y-89596000D01*
D33*
X132435600Y-76860400D02*
X132435600Y-80822800D01*
X134975598Y-117195600D02*
X132435600Y-119735598D01*
D32*
X116118400Y-99629200D02*
X115468400Y-100279200D01*
X132971800Y-92688400D02*
X132971800Y-93799400D01*
D33*
X99923598Y-124714000D02*
X98602800Y-123393202D01*
D32*
X136882600Y-112087900D02*
X136882600Y-110869000D01*
X132667000Y-85830400D02*
X132667000Y-84109700D01*
D33*
X98602800Y-123393202D02*
X98602800Y-119735598D01*
D32*
X137480000Y-89596000D02*
X137464800Y-89611200D01*
X132971800Y-93799400D02*
X132943600Y-93827600D01*
X136882600Y-110869000D02*
X136906000Y-110845600D01*
D33*
X100431598Y-75895200D02*
X131470400Y-75895200D01*
D32*
X105295500Y-79632200D02*
X105339300Y-79588400D01*
X138153400Y-92739200D02*
X137464800Y-92050600D01*
D33*
X139954000Y-84480400D02*
X139954000Y-115874802D01*
X92405198Y-83413600D02*
X96062802Y-83413600D01*
D32*
X132681100Y-84095600D02*
X132681100Y-83015700D01*
X132044400Y-86453000D02*
X132667000Y-85830400D01*
D33*
X96012002Y-117144800D02*
X92862398Y-117144800D01*
X132435600Y-80822800D02*
X135026402Y-83413600D01*
X98602800Y-119735598D02*
X96012002Y-117144800D01*
D32*
X116768400Y-98979200D02*
X115468400Y-100279200D01*
D33*
X139954000Y-115874802D02*
X138633202Y-117195600D01*
X130708402Y-124714000D02*
X99923598Y-124714000D01*
D32*
X101723800Y-79632200D02*
X101346000Y-80010000D01*
X132681100Y-83015700D02*
X132689600Y-83007200D01*
X134736800Y-92549000D02*
X133111200Y-92549000D01*
X133336100Y-84750600D02*
X132681100Y-84095600D01*
D33*
X91084400Y-84734398D02*
X92405198Y-83413600D01*
X98653600Y-77673198D02*
X100431598Y-75895200D01*
X91084400Y-115366802D02*
X91084400Y-84734398D01*
D32*
X107614300Y-78638400D02*
X108966000Y-78638400D01*
X132667000Y-84109700D02*
X132681100Y-84095600D01*
X117418400Y-98329200D02*
X117418400Y-97416700D01*
D33*
X138887200Y-83413600D02*
X139954000Y-84480400D01*
D32*
X112064800Y-99184400D02*
X113611952Y-99184400D01*
X114637801Y-108084601D02*
X115112800Y-108559600D01*
X110916965Y-108084601D02*
X114637801Y-108084601D01*
X102517000Y-78082200D02*
X102514400Y-78079600D01*
X138430000Y-87333000D02*
X138430000Y-88138000D01*
X134171400Y-86300600D02*
X135295600Y-86300600D01*
X131131100Y-83074300D02*
X131114800Y-83058000D01*
X104115800Y-78638400D02*
X105339300Y-78638400D01*
X131094400Y-84132300D02*
X131131100Y-84095600D01*
X132994400Y-88087200D02*
X132994400Y-87477600D01*
X114168400Y-97416700D02*
X114168400Y-96134400D01*
X103559600Y-78082200D02*
X102517000Y-78082200D01*
X103559600Y-78082200D02*
X104115800Y-78638400D01*
X136530000Y-88138000D02*
X136530000Y-87535000D01*
X132994400Y-87477600D02*
X134171400Y-86300600D01*
X131094400Y-88087200D02*
X131094400Y-84132300D01*
X136530000Y-87535000D02*
X135295600Y-86300600D01*
X137397600Y-86300600D02*
X138430000Y-87333000D01*
X135295600Y-86300600D02*
X137397600Y-86300600D01*
X131131100Y-84095600D02*
X131131100Y-83074300D01*
X136530000Y-92665800D02*
X136603400Y-92739200D01*
X136530000Y-90838000D02*
X136530000Y-92665800D01*
X136603400Y-92739200D02*
X136603400Y-93774600D01*
X136603400Y-93774600D02*
X136601200Y-93776800D01*
X103734980Y-103530400D02*
X101659189Y-101454609D01*
X110849899Y-103221301D02*
X110092198Y-102463600D01*
X110092198Y-102463600D02*
X106222800Y-102463600D01*
X101659189Y-101065701D02*
X101414144Y-100820656D01*
X106222800Y-102463600D02*
X105156000Y-103530400D01*
X101659189Y-101454609D02*
X101659189Y-101065701D01*
X105156000Y-103530400D02*
X103734980Y-103530400D01*
X104394000Y-101295200D02*
X103929434Y-101759766D01*
X103929434Y-101759766D02*
X103929434Y-102064566D01*
X111081277Y-101192813D02*
X110978890Y-101295200D01*
X110978890Y-101295200D02*
X104394000Y-101295200D01*
X112710700Y-98224400D02*
X113518400Y-97416700D01*
X112064800Y-98224400D02*
X112710700Y-98224400D01*
X131094400Y-92384800D02*
X131094400Y-90787200D01*
X131094400Y-90787200D02*
X131559200Y-90322400D01*
X131421800Y-92688400D02*
X131398000Y-92688400D01*
X131559200Y-90322400D02*
X132029200Y-90322400D01*
X129387600Y-123287800D02*
X129438400Y-123338600D01*
X129387600Y-122123200D02*
X129387600Y-123287800D01*
X131398000Y-92688400D02*
X131094400Y-92384800D01*
X134736800Y-90999000D02*
X133206200Y-90999000D01*
X133206200Y-90999000D02*
X132994400Y-90787200D01*
X113639600Y-121970800D02*
X124155200Y-121970800D01*
X136652000Y-108508800D02*
X136702800Y-108508800D01*
X113588800Y-122021600D02*
X113639600Y-121970800D01*
X124155200Y-121970800D02*
X124155200Y-121005600D01*
X124155200Y-121005600D02*
X136652000Y-108508800D01*
X114858800Y-118110000D02*
X121412000Y-118110000D01*
X101955600Y-121818400D02*
X102057200Y-121920000D01*
X102057200Y-121920000D02*
X111048800Y-121920000D01*
X111048800Y-121920000D02*
X114858800Y-118110000D01*
X126785672Y-112736328D02*
X126785672Y-109804444D01*
X121412000Y-118110000D02*
X126785672Y-112736328D01*
X104902000Y-121158000D02*
X110744000Y-121158000D01*
X125932001Y-112472399D02*
X125932001Y-110324300D01*
X114350800Y-117551200D02*
X120853200Y-117551200D01*
X110744000Y-121158000D02*
X114350800Y-117551200D01*
X120853200Y-117551200D02*
X125932001Y-112472399D01*
X110591600Y-120294400D02*
X113893600Y-116992400D01*
X124932498Y-112405102D02*
X124932498Y-110324300D01*
X113893600Y-116992400D02*
X120345200Y-116992400D01*
X107238800Y-120294400D02*
X110591600Y-120294400D01*
X120345200Y-116992400D02*
X124932498Y-112405102D01*
X105339300Y-77688400D02*
X105730000Y-77688400D01*
X106375200Y-78333600D02*
X106375200Y-79886751D01*
X104610401Y-81651550D02*
X104610401Y-83753599D01*
X124612400Y-86309200D02*
X127965200Y-89662000D01*
X104610401Y-83753599D02*
X104610401Y-85001601D01*
X105730000Y-77688400D02*
X106375200Y-78333600D01*
X105918000Y-86309200D02*
X124612400Y-86309200D01*
X106375200Y-79886751D02*
X104610401Y-81651550D01*
X104610401Y-85001601D02*
X105918000Y-86309200D01*
X127965200Y-89662000D02*
X127965200Y-96824800D01*
X124764800Y-85547200D02*
X128981200Y-89763600D01*
X105613200Y-83769200D02*
X105613200Y-84734400D01*
X105613200Y-84734400D02*
X106426000Y-85547200D01*
X128981200Y-89763600D02*
X128981200Y-96824800D01*
X106426000Y-85547200D02*
X124764800Y-85547200D01*
X106629200Y-84277200D02*
X107238800Y-84886800D01*
X129997200Y-90068400D02*
X129997200Y-96824800D01*
X124815600Y-84886800D02*
X129997200Y-90068400D01*
X107614300Y-79588400D02*
X107614300Y-80142500D01*
X106629200Y-81127600D02*
X106629200Y-83769200D01*
X107238800Y-84886800D02*
X124815600Y-84886800D01*
X107614300Y-80142500D02*
X106629200Y-81127600D01*
X106629200Y-83769200D02*
X106629200Y-84277200D01*
X100366350Y-100797460D02*
X100366350Y-95489550D01*
X99110800Y-94132400D02*
X99009200Y-94132400D01*
X100366350Y-95489550D02*
X99009200Y-94132400D01*
X110999380Y-104038400D02*
X103607290Y-104038400D01*
X112473133Y-104075900D02*
X111036880Y-104075900D01*
X111036880Y-104075900D02*
X110999380Y-104038400D01*
X103607290Y-104038400D02*
X100366350Y-100797460D01*
X110954899Y-100068301D02*
X111099600Y-99923600D01*
X105206800Y-100533200D02*
X105671699Y-100068301D01*
X105671699Y-100068301D02*
X110954899Y-100068301D01*
X122516199Y-113389103D02*
X123230902Y-112674400D01*
X100482400Y-108813600D02*
X100482400Y-109321600D01*
X100482400Y-109321600D02*
X104549903Y-113389103D01*
X104549903Y-113389103D02*
X122516199Y-113389103D01*
X104648000Y-114198400D02*
X121869200Y-114198400D01*
X99060000Y-108610400D02*
X104648000Y-114198400D01*
X99923600Y-110388400D02*
X104455967Y-114920767D01*
X104455967Y-114920767D02*
X114140700Y-114920767D01*
X97942400Y-109778800D02*
X98552000Y-110388400D01*
X114140700Y-114920767D02*
X114142833Y-114922900D01*
X97942400Y-108305600D02*
X97942400Y-109778800D01*
X98552000Y-110388400D02*
X99923600Y-110388400D01*
X124866400Y-100177600D02*
X124917200Y-100177600D01*
X120382500Y-100177600D02*
X124866400Y-100177600D01*
X117418400Y-103141700D02*
X120382500Y-100177600D01*
X124917200Y-100177600D02*
X126695200Y-101955600D01*
X135158400Y-114046000D02*
X135158400Y-112162100D01*
X135158400Y-112162100D02*
X135232600Y-112087900D01*
X135229600Y-111150400D02*
X135229600Y-112084900D01*
X135229600Y-112084900D02*
X135232600Y-112087900D01*
X136108400Y-115921000D02*
X136062200Y-115874800D01*
X133252200Y-115874800D02*
X129438400Y-119688600D01*
X136062200Y-115874800D02*
X133252200Y-115874800D01*
X111989290Y-104800400D02*
X113626300Y-104800400D01*
X111844589Y-104655699D02*
X111989290Y-104800400D01*
X93569200Y-92592400D02*
X93569200Y-93569200D01*
X99212400Y-100727802D02*
X103140297Y-104655699D01*
X93569200Y-93569200D02*
X94843600Y-94843600D01*
X103140297Y-104655699D02*
X111844589Y-104655699D01*
X98145600Y-94843600D02*
X99212400Y-95910400D01*
X113626300Y-104800400D02*
X113639600Y-104787100D01*
X94843600Y-94843600D02*
X98145600Y-94843600D01*
X99212400Y-95910400D02*
X99212400Y-100727802D01*
X102362000Y-90588000D02*
X102357600Y-90592400D01*
D34*
X102362000Y-89306400D02*
X102362000Y-90588000D01*
D32*
X104343200Y-92592400D02*
X104343200Y-93065600D01*
X102870000Y-94538800D02*
X102870000Y-97180400D01*
X104343200Y-93065600D02*
X102870000Y-94538800D01*
X93573600Y-90588000D02*
X93569200Y-90592400D01*
D34*
X93573600Y-89306400D02*
X93573600Y-90588000D01*
D32*
X114452400Y-94843600D02*
X115265200Y-94030800D01*
X109575600Y-94843600D02*
X114452400Y-94843600D01*
X115265200Y-94030800D02*
X115265200Y-92592400D01*
X105562400Y-98856800D02*
X109575600Y-94843600D01*
D34*
X113233200Y-89357200D02*
X113233200Y-90592400D01*
X104343200Y-89306400D02*
X104343200Y-90592400D01*
D32*
X102357600Y-92592400D02*
X102145500Y-92804500D01*
X103794859Y-102954589D02*
X104766611Y-102954589D01*
X104766611Y-102954589D02*
X105816400Y-101904800D01*
X102145500Y-92804500D02*
X102145500Y-101305230D01*
X110947200Y-101904800D02*
X111556800Y-102514400D01*
X105816400Y-101904800D02*
X110947200Y-101904800D01*
X102145500Y-101305230D02*
X103794859Y-102954589D01*
D34*
X124300800Y-90593580D02*
X124300800Y-89364000D01*
D32*
X124300800Y-89364000D02*
X124307600Y-89357200D01*
X113233200Y-92592400D02*
X113233200Y-93624400D01*
X112738500Y-94119100D02*
X110337600Y-94119100D01*
X113233200Y-93624400D02*
X112738500Y-94119100D01*
D34*
X115265200Y-90592400D02*
X115265200Y-89357200D01*
D32*
X123647200Y-94335600D02*
X124300800Y-93682000D01*
X110337600Y-95351600D02*
X115468400Y-95351600D01*
X103886000Y-100279200D02*
X104546400Y-99618800D01*
X115468400Y-95351600D02*
X116484400Y-94335600D01*
X124300800Y-93682000D02*
X124300800Y-92593580D01*
X116484400Y-94335600D02*
X123647200Y-94335600D01*
X106070400Y-99618800D02*
X110337600Y-95351600D01*
X104546400Y-99618800D02*
X106070400Y-99618800D01*
X124866400Y-118059200D02*
X128676400Y-114249200D01*
X128676400Y-114249200D02*
X128676400Y-113842800D01*
X134162800Y-94792800D02*
X134162800Y-106324400D01*
X134162800Y-108864400D02*
X132994400Y-110032800D01*
X134162800Y-106324400D02*
X134162800Y-108864400D01*
X101295200Y-106070400D02*
X100939600Y-106070400D01*
X111353600Y-106476800D02*
X110947200Y-106070400D01*
X110947200Y-106070400D02*
X101295200Y-106070400D01*
X100939600Y-106070400D02*
X98145600Y-103276400D01*
X114452400Y-106476800D02*
X111353600Y-106476800D01*
X118338372Y-109854772D02*
X114960400Y-106476800D01*
X114960400Y-106476800D02*
X114452400Y-106476800D01*
X118338372Y-109854772D02*
X119719481Y-109854772D01*
X120599200Y-109016800D02*
X118211600Y-109016800D01*
X120650000Y-109067600D02*
X120599200Y-109016800D01*
X115163600Y-105968800D02*
X111810800Y-105968800D01*
X99377954Y-103137154D02*
X101803200Y-105562400D01*
X111404400Y-105562400D02*
X111810800Y-105968800D01*
X101803200Y-105562400D02*
X111404400Y-105562400D01*
X99194086Y-103137154D02*
X99377954Y-103137154D01*
X118211600Y-109016800D02*
X115163600Y-105968800D01*
X100089300Y-102653500D02*
X100089300Y-103212810D01*
X120176661Y-108187285D02*
X118144085Y-108187285D01*
X100089300Y-103212810D02*
X101981690Y-105105200D01*
X100101400Y-102641400D02*
X100089300Y-102653500D01*
X115468400Y-105511600D02*
X112064800Y-105511600D01*
X111658400Y-105105200D02*
X112064800Y-105511600D01*
X118144085Y-108187285D02*
X115468400Y-105511600D01*
X101981690Y-105105200D02*
X111658400Y-105105200D01*
X102819200Y-108356400D02*
X109575600Y-108356400D01*
X118313200Y-110591600D02*
X120802400Y-110591600D01*
X115011200Y-107289600D02*
X118313200Y-110591600D01*
X121920000Y-109474000D02*
X121716800Y-109474000D01*
X98247200Y-106527600D02*
X99009200Y-107289600D01*
X109575600Y-108356400D02*
X110642400Y-107289600D01*
X99009200Y-107289600D02*
X101752400Y-107289600D01*
X124866400Y-106527600D02*
X121920000Y-109474000D01*
X120802400Y-110591600D02*
X121920000Y-109474000D01*
X101752400Y-107289600D02*
X102819200Y-108356400D01*
X124866400Y-106324400D02*
X124866400Y-106527600D01*
X110642400Y-107289600D02*
X115011200Y-107289600D01*
X120988589Y-111041101D02*
X116883101Y-111041101D01*
X116078000Y-110236000D02*
X112572800Y-110236000D01*
X123706598Y-108754202D02*
X122478800Y-109982000D01*
X111226600Y-108889800D02*
X101642798Y-108889800D01*
X123706598Y-108712000D02*
X123706598Y-108754202D01*
X112572800Y-110236000D02*
X111226600Y-108889800D01*
X101642798Y-108889800D02*
X101525627Y-108772629D01*
X122047690Y-109982000D02*
X120988589Y-111041101D01*
X116883101Y-111041101D02*
X116078000Y-110236000D01*
X124538357Y-107880241D02*
X123706598Y-108712000D01*
X122478800Y-109982000D02*
X122047690Y-109982000D01*
X122999267Y-110591600D02*
X122073780Y-110591600D01*
X111052072Y-109426472D02*
X102514403Y-109426472D01*
X121174778Y-111490602D02*
X120004998Y-111490602D01*
X102514403Y-109426472D02*
X102326575Y-109614300D01*
X122073780Y-110591600D02*
X121174778Y-111490602D01*
X119684800Y-111810800D02*
X116586000Y-111810800D01*
X115570000Y-110794800D02*
X112420400Y-110794800D01*
X116586000Y-111810800D02*
X115570000Y-110794800D01*
X112420400Y-110794800D02*
X111052072Y-109426472D01*
X120004998Y-111490602D02*
X119684800Y-111810800D01*
X123861139Y-109729728D02*
X122999267Y-110591600D01*
X116128800Y-112318800D02*
X120839771Y-112318800D01*
X110388400Y-109880400D02*
X111810800Y-111302800D01*
X103784400Y-109880400D02*
X110388400Y-109880400D01*
X115112800Y-111302800D02*
X116128800Y-112318800D01*
X111810800Y-111302800D02*
X115112800Y-111302800D01*
X120839771Y-112318800D02*
X120943469Y-112215102D01*
X102971600Y-110693200D02*
X103784400Y-109880400D01*
X121400798Y-112939602D02*
X122072400Y-112268000D01*
X106019600Y-111302800D02*
X106578400Y-111861600D01*
X121243567Y-112939602D02*
X121400798Y-112939602D01*
X108015344Y-111861600D02*
X107486330Y-111332586D01*
X109741300Y-111861600D02*
X114655600Y-111861600D01*
X109714700Y-111861600D02*
X109728000Y-111874900D01*
X114655600Y-111861600D02*
X115733602Y-112939602D01*
X115733602Y-112939602D02*
X121243567Y-112939602D01*
X108015344Y-111861600D02*
X109714700Y-111861600D01*
X106578400Y-111861600D02*
X108015344Y-111861600D01*
X109728000Y-111874900D02*
X109741300Y-111861600D01*
X133096000Y-105308400D02*
X133096000Y-105359200D01*
X133096000Y-105359200D02*
X132384800Y-106070400D01*
X133096000Y-98298000D02*
X133096000Y-105308400D01*
X131775200Y-96977200D02*
X133096000Y-98298000D01*
X132537200Y-96113600D02*
X133654800Y-97231200D01*
X133654800Y-106151403D02*
X132852455Y-106953748D01*
X133654800Y-97231200D02*
X133654800Y-106151403D01*
X127658890Y-105713290D02*
X127658890Y-106111091D01*
X126441200Y-104495600D02*
X127658890Y-105713290D01*
X116768400Y-103141700D02*
X116768400Y-103880241D01*
X116768400Y-103880241D02*
X117383759Y-104495600D01*
X117383759Y-104495600D02*
X126441200Y-104495600D01*
X127284389Y-107082101D02*
X125352687Y-105150399D01*
X128383390Y-107082101D02*
X127284389Y-107082101D01*
X117388558Y-105150399D02*
X116118400Y-103880241D01*
X125352687Y-105150399D02*
X117388558Y-105150399D01*
X116118400Y-103880241D02*
X116118400Y-103141700D01*
X115468400Y-103880241D02*
X115468400Y-103141700D01*
X128549400Y-108026200D02*
X127592798Y-108026200D01*
X129450744Y-107124856D02*
X128549400Y-108026200D01*
X117188059Y-105599900D02*
X115468400Y-103880241D01*
X127592798Y-108026200D02*
X125166498Y-105599900D01*
X125166498Y-105599900D02*
X117188059Y-105599900D01*
M02*
