G04 #@! TF.GenerationSoftware,KiCad,Pcbnew,6.0.11-2627ca5db0~126~ubuntu20.04.1*
G04 #@! TF.CreationDate,2024-01-15T23:09:37+09:00*
G04 #@! TF.ProjectId,motor_driver,6d6f746f-725f-4647-9269-7665722e6b69,rev?*
G04 #@! TF.SameCoordinates,Original*
G04 #@! TF.FileFunction,Paste,Top*
G04 #@! TF.FilePolarity,Positive*
%FSLAX46Y46*%
G04 Gerber Fmt 4.6, Leading zero omitted, Abs format (unit mm)*
G04 Created by KiCad (PCBNEW 6.0.11-2627ca5db0~126~ubuntu20.04.1) date 2024-01-15 23:09:37*
%MOMM*%
%LPD*%
G01*
G04 APERTURE LIST*
G04 Aperture macros list*
%AMRoundRect*
0 Rectangle with rounded corners*
0 $1 Rounding radius*
0 $2 $3 $4 $5 $6 $7 $8 $9 X,Y pos of 4 corners*
0 Add a 4 corners polygon primitive as box body*
4,1,4,$2,$3,$4,$5,$6,$7,$8,$9,$2,$3,0*
0 Add four circle primitives for the rounded corners*
1,1,$1+$1,$2,$3*
1,1,$1+$1,$4,$5*
1,1,$1+$1,$6,$7*
1,1,$1+$1,$8,$9*
0 Add four rect primitives between the rounded corners*
20,1,$1+$1,$2,$3,$4,$5,0*
20,1,$1+$1,$4,$5,$6,$7,0*
20,1,$1+$1,$6,$7,$8,$9,0*
20,1,$1+$1,$8,$9,$2,$3,0*%
G04 Aperture macros list end*
%ADD10RoundRect,0.225000X-0.225000X-0.250000X0.225000X-0.250000X0.225000X0.250000X-0.225000X0.250000X0*%
%ADD11RoundRect,0.147500X0.172500X-0.147500X0.172500X0.147500X-0.172500X0.147500X-0.172500X-0.147500X0*%
%ADD12RoundRect,0.250000X-1.000000X1.950000X-1.000000X-1.950000X1.000000X-1.950000X1.000000X1.950000X0*%
%ADD13RoundRect,0.249999X0.450001X1.075001X-0.450001X1.075001X-0.450001X-1.075001X0.450001X-1.075001X0*%
%ADD14RoundRect,0.075000X-0.662500X-0.075000X0.662500X-0.075000X0.662500X0.075000X-0.662500X0.075000X0*%
%ADD15RoundRect,0.075000X-0.075000X-0.662500X0.075000X-0.662500X0.075000X0.662500X-0.075000X0.662500X0*%
%ADD16RoundRect,0.155000X-0.212500X-0.155000X0.212500X-0.155000X0.212500X0.155000X-0.212500X0.155000X0*%
%ADD17RoundRect,0.155000X0.212500X0.155000X-0.212500X0.155000X-0.212500X-0.155000X0.212500X-0.155000X0*%
%ADD18R,0.800000X2.900000*%
%ADD19R,1.800000X3.800000*%
%ADD20RoundRect,0.225000X-0.250000X0.225000X-0.250000X-0.225000X0.250000X-0.225000X0.250000X0.225000X0*%
%ADD21RoundRect,0.160000X0.197500X0.160000X-0.197500X0.160000X-0.197500X-0.160000X0.197500X-0.160000X0*%
%ADD22RoundRect,0.200000X-0.200000X-0.275000X0.200000X-0.275000X0.200000X0.275000X-0.200000X0.275000X0*%
%ADD23RoundRect,0.237500X0.237500X-0.250000X0.237500X0.250000X-0.237500X0.250000X-0.237500X-0.250000X0*%
%ADD24R,0.650000X1.050000*%
%ADD25RoundRect,0.175000X-0.175000X0.200000X-0.175000X-0.200000X0.175000X-0.200000X0.175000X0.200000X0*%
%ADD26R,0.610000X2.000000*%
%ADD27R,2.680000X3.600000*%
%ADD28RoundRect,0.160000X-0.160000X0.197500X-0.160000X-0.197500X0.160000X-0.197500X0.160000X0.197500X0*%
%ADD29RoundRect,0.200000X-0.275000X0.200000X-0.275000X-0.200000X0.275000X-0.200000X0.275000X0.200000X0*%
%ADD30R,0.800000X0.750000*%
%ADD31R,2.400000X4.200000*%
%ADD32R,0.750000X4.200000*%
%ADD33R,0.550000X3.280000*%
%ADD34RoundRect,0.150000X0.150000X-0.825000X0.150000X0.825000X-0.150000X0.825000X-0.150000X-0.825000X0*%
%ADD35RoundRect,0.237500X0.237500X-0.287500X0.237500X0.287500X-0.237500X0.287500X-0.237500X-0.287500X0*%
%ADD36RoundRect,0.237500X-0.250000X-0.237500X0.250000X-0.237500X0.250000X0.237500X-0.250000X0.237500X0*%
%ADD37RoundRect,0.225000X0.250000X-0.225000X0.250000X0.225000X-0.250000X0.225000X-0.250000X-0.225000X0*%
%ADD38RoundRect,0.237500X-0.237500X0.250000X-0.237500X-0.250000X0.237500X-0.250000X0.237500X0.250000X0*%
%ADD39RoundRect,0.147500X-0.172500X0.147500X-0.172500X-0.147500X0.172500X-0.147500X0.172500X0.147500X0*%
%ADD40RoundRect,0.155000X-0.155000X0.212500X-0.155000X-0.212500X0.155000X-0.212500X0.155000X0.212500X0*%
%ADD41RoundRect,0.249999X-0.450001X-1.075001X0.450001X-1.075001X0.450001X1.075001X-0.450001X1.075001X0*%
%ADD42RoundRect,0.225000X0.225000X0.250000X-0.225000X0.250000X-0.225000X-0.250000X0.225000X-0.250000X0*%
%ADD43RoundRect,0.232500X0.232500X0.232500X-0.232500X0.232500X-0.232500X-0.232500X0.232500X-0.232500X0*%
%ADD44RoundRect,0.062500X0.350000X0.062500X-0.350000X0.062500X-0.350000X-0.062500X0.350000X-0.062500X0*%
%ADD45RoundRect,0.062500X0.062500X0.350000X-0.062500X0.350000X-0.062500X-0.350000X0.062500X-0.350000X0*%
G04 APERTURE END LIST*
D10*
X112478000Y-108559600D03*
X114028000Y-108559600D03*
D11*
X124358400Y-123857100D03*
X124358400Y-122887100D03*
D12*
X95504000Y-100694000D03*
X95504000Y-108094000D03*
D13*
X122332000Y-96470380D03*
X117532000Y-96470380D03*
D14*
X122532700Y-105047600D03*
X122532700Y-105547600D03*
X122532700Y-106047600D03*
X122532700Y-106547600D03*
X122532700Y-107047600D03*
X122532700Y-107547600D03*
X122532700Y-108047600D03*
X122532700Y-108547600D03*
X122532700Y-109047600D03*
X122532700Y-109547600D03*
X122532700Y-110047600D03*
X122532700Y-110547600D03*
D15*
X123945200Y-111960100D03*
X124445200Y-111960100D03*
X124945200Y-111960100D03*
X125445200Y-111960100D03*
X125945200Y-111960100D03*
X126445200Y-111960100D03*
X126945200Y-111960100D03*
X127445200Y-111960100D03*
X127945200Y-111960100D03*
X128445200Y-111960100D03*
X128945200Y-111960100D03*
X129445200Y-111960100D03*
D14*
X130857700Y-110547600D03*
X130857700Y-110047600D03*
X130857700Y-109547600D03*
X130857700Y-109047600D03*
X130857700Y-108547600D03*
X130857700Y-108047600D03*
X130857700Y-107547600D03*
X130857700Y-107047600D03*
X130857700Y-106547600D03*
X130857700Y-106047600D03*
X130857700Y-105547600D03*
X130857700Y-105047600D03*
D15*
X129445200Y-103635100D03*
X128945200Y-103635100D03*
X128445200Y-103635100D03*
X127945200Y-103635100D03*
X127445200Y-103635100D03*
X126945200Y-103635100D03*
X126445200Y-103635100D03*
X125945200Y-103635100D03*
X125445200Y-103635100D03*
X124945200Y-103635100D03*
X124445200Y-103635100D03*
X123945200Y-103635100D03*
D10*
X112491000Y-111658400D03*
X114041000Y-111658400D03*
D16*
X121142500Y-98756380D03*
X122277500Y-98756380D03*
D17*
X100427200Y-98653600D03*
X99292200Y-98653600D03*
D18*
X128081600Y-83362800D03*
X126581600Y-83362800D03*
X125081600Y-83362800D03*
X123581600Y-83362800D03*
D19*
X130681600Y-78662800D03*
X120981600Y-78662800D03*
D20*
X129082800Y-115303000D03*
X129082800Y-116853000D03*
D21*
X118276750Y-105105200D03*
X117081750Y-105105200D03*
D22*
X136350400Y-97901600D03*
X138000400Y-97901600D03*
D23*
X135382000Y-92622400D03*
X135382000Y-90797400D03*
D17*
X118195950Y-109169200D03*
X117060950Y-109169200D03*
D24*
X110599800Y-119515885D03*
X110599800Y-123665885D03*
X108449800Y-119515885D03*
X108449800Y-123665885D03*
D25*
X117061650Y-106462200D03*
X116061650Y-106462200D03*
X117061650Y-107812200D03*
X116061650Y-107812200D03*
D23*
X133604000Y-92622400D03*
X133604000Y-90797400D03*
D26*
X113610400Y-83753600D03*
X112610400Y-83753600D03*
X111610400Y-83753600D03*
X110610400Y-83753600D03*
X109610400Y-83753600D03*
X108610400Y-83753600D03*
X107610400Y-83753600D03*
X106610400Y-83753600D03*
X105610400Y-83753600D03*
X104610400Y-83753600D03*
X103610400Y-83753600D03*
D27*
X116600400Y-80953600D03*
X100620400Y-80953600D03*
D28*
X106273600Y-122608400D03*
X106273600Y-123803400D03*
D10*
X130797000Y-112471200D03*
X132347000Y-112471200D03*
D29*
X116128800Y-116116600D03*
X116128800Y-117766600D03*
D30*
X105969400Y-89331800D03*
X105969400Y-90601800D03*
X105969400Y-91871800D03*
X105969400Y-93141800D03*
X111759400Y-93141800D03*
X111759400Y-91871800D03*
X111759400Y-90601800D03*
X111759400Y-89331800D03*
D31*
X109319400Y-91236800D03*
D32*
X107294400Y-91236800D03*
D33*
X106644400Y-91696800D03*
D34*
X126974600Y-94270600D03*
X128244600Y-94270600D03*
X129514600Y-94270600D03*
X130784600Y-94270600D03*
X130784600Y-89320600D03*
X129514600Y-89320600D03*
X128244600Y-89320600D03*
X126974600Y-89320600D03*
D35*
X106273600Y-121056400D03*
X106273600Y-119306400D03*
D23*
X126746000Y-99007300D03*
X126746000Y-97182300D03*
D36*
X127967100Y-87020400D03*
X129792100Y-87020400D03*
D23*
X130200400Y-121261500D03*
X130200400Y-119436500D03*
D20*
X127355600Y-115353800D03*
X127355600Y-116903800D03*
D22*
X136335000Y-96266000D03*
X137985000Y-96266000D03*
D37*
X92654800Y-92316600D03*
X92654800Y-90766600D03*
D38*
X110540800Y-115986985D03*
X110540800Y-117811985D03*
D37*
X131521200Y-103658000D03*
X131521200Y-102108000D03*
D38*
X124374300Y-119434600D03*
X124374300Y-121259600D03*
X127152400Y-119434600D03*
X127152400Y-121259600D03*
D11*
X121564400Y-123882000D03*
X121564400Y-122912000D03*
D39*
X130200400Y-122927900D03*
X130200400Y-123897900D03*
D22*
X136335000Y-106994800D03*
X137985000Y-106994800D03*
D11*
X127152400Y-123880100D03*
X127152400Y-122910100D03*
D30*
X116939800Y-89332980D03*
X116939800Y-90602980D03*
X116939800Y-91872980D03*
X116939800Y-93142980D03*
X122729800Y-93142980D03*
X122729800Y-91872980D03*
X122729800Y-90602980D03*
X122729800Y-89332980D03*
D31*
X120289800Y-91237980D03*
D32*
X118264800Y-91237980D03*
D33*
X117614800Y-91697980D03*
D40*
X118238050Y-106569700D03*
X118238050Y-107704700D03*
D37*
X133146800Y-105118200D03*
X133146800Y-103568200D03*
D35*
X103378000Y-121095800D03*
X103378000Y-119345800D03*
D41*
X106612400Y-96469200D03*
X111412400Y-96469200D03*
D11*
X118821200Y-123882000D03*
X118821200Y-122912000D03*
D10*
X112491000Y-110083600D03*
X114041000Y-110083600D03*
D20*
X107696000Y-116175285D03*
X107696000Y-117725285D03*
D35*
X100533200Y-121107200D03*
X100533200Y-119357200D03*
D42*
X122390200Y-103225600D03*
X120840200Y-103225600D03*
D28*
X103378000Y-122608400D03*
X103378000Y-123803400D03*
D37*
X123698000Y-101447600D03*
X123698000Y-99897600D03*
D20*
X125730000Y-115353800D03*
X125730000Y-116903800D03*
D37*
X110878400Y-111582800D03*
X110878400Y-110032800D03*
D24*
X115679800Y-119515885D03*
X115679800Y-123665885D03*
X113529800Y-119515885D03*
X113529800Y-123665885D03*
D37*
X122123200Y-101447600D03*
X122123200Y-99897600D03*
D41*
X95741200Y-96469200D03*
X100541200Y-96469200D03*
D17*
X111357900Y-98602800D03*
X110222900Y-98602800D03*
D38*
X121564400Y-119436500D03*
X121564400Y-121261500D03*
D43*
X106984800Y-106259600D03*
X108134800Y-105109600D03*
X105834800Y-106259600D03*
X106984800Y-105109600D03*
X108134800Y-106259600D03*
X104684800Y-108559600D03*
X106984800Y-107409600D03*
X105834800Y-107409600D03*
X104684800Y-105109600D03*
X104684800Y-107409600D03*
X105834800Y-105109600D03*
X104684800Y-106259600D03*
X108134800Y-107409600D03*
X105834800Y-108559600D03*
X108134800Y-108559600D03*
X106984800Y-108559600D03*
D44*
X109347300Y-109084600D03*
X109347300Y-108584600D03*
X109347300Y-108084600D03*
X109347300Y-107584600D03*
X109347300Y-107084600D03*
X109347300Y-106584600D03*
X109347300Y-106084600D03*
X109347300Y-105584600D03*
X109347300Y-105084600D03*
X109347300Y-104584600D03*
D45*
X108659800Y-103897100D03*
X108159800Y-103897100D03*
X107659800Y-103897100D03*
X107159800Y-103897100D03*
X106659800Y-103897100D03*
X106159800Y-103897100D03*
X105659800Y-103897100D03*
X105159800Y-103897100D03*
X104659800Y-103897100D03*
X104159800Y-103897100D03*
D44*
X103472300Y-104584600D03*
X103472300Y-105084600D03*
X103472300Y-105584600D03*
X103472300Y-106084600D03*
X103472300Y-106584600D03*
X103472300Y-107084600D03*
X103472300Y-107584600D03*
X103472300Y-108084600D03*
X103472300Y-108584600D03*
X103472300Y-109084600D03*
D45*
X104159800Y-109772100D03*
X104659800Y-109772100D03*
X105159800Y-109772100D03*
X105659800Y-109772100D03*
X106159800Y-109772100D03*
X106659800Y-109772100D03*
X107159800Y-109772100D03*
X107659800Y-109772100D03*
X108159800Y-109772100D03*
X108659800Y-109772100D03*
D30*
X94892800Y-89281000D03*
X94892800Y-90551000D03*
X94892800Y-91821000D03*
X94892800Y-93091000D03*
X100682800Y-93091000D03*
X100682800Y-91821000D03*
X100682800Y-90551000D03*
X100682800Y-89281000D03*
D31*
X98242800Y-91186000D03*
D32*
X96217800Y-91186000D03*
D33*
X95567800Y-91646000D03*
D39*
X135382000Y-88481700D03*
X135382000Y-89451700D03*
X133604000Y-88497600D03*
X133604000Y-89467600D03*
D38*
X118837100Y-119436500D03*
X118837100Y-121261500D03*
D10*
X130797000Y-114046000D03*
X132347000Y-114046000D03*
D20*
X113334800Y-116175285D03*
X113334800Y-117725285D03*
D28*
X100533200Y-122619800D03*
X100533200Y-123814800D03*
D17*
X101557900Y-105410000D03*
X100422900Y-105410000D03*
M02*
