%TF.GenerationSoftware,KiCad,Pcbnew,6.0.11-2627ca5db0~126~ubuntu20.04.1*%
%TF.CreationDate,2024-01-15T23:11:24+09:00*%
%TF.ProjectId,motor_driver,6d6f746f-725f-4647-9269-7665722e6b69,rev?*%
%TF.SameCoordinates,Original*%
%TF.FileFunction,Drillmap*%
%TF.FilePolarity,Positive*%
%FSLAX45Y45*%
G04 Gerber Fmt 4.5, Leading zero omitted, Abs format (unit mm)*
G04 Created by KiCad (PCBNEW 6.0.11-2627ca5db0~126~ubuntu20.04.1) date 2024-01-15 23:11:24*
%MOMM*%
%LPD*%
G01*
G04 APERTURE LIST*
%ADD10C,0.200000*%
G04 APERTURE END LIST*
D10*
X9352400Y-7531040D02*
G75*
G03*
X9052400Y-7831040I0J-300000D01*
G01*
X9052400Y-7831040D02*
X9052400Y-12231040D01*
X14052400Y-7831040D02*
G75*
G03*
X13752400Y-7531040I-300000J0D01*
G01*
X9352400Y-12531040D02*
X13752400Y-12531040D01*
X14052400Y-12231040D02*
X14052400Y-7831040D01*
X13752400Y-7531040D02*
X9352400Y-7531040D01*
X13752400Y-12531040D02*
G75*
G03*
X14052400Y-12231040I0J300000D01*
G01*
X9052400Y-12231040D02*
G75*
G03*
X9352400Y-12531040I300000J0D01*
G01*
X9300019Y-12851516D02*
X9300019Y-12651516D01*
X9347638Y-12651516D01*
X9376210Y-12661040D01*
X9395257Y-12680088D01*
X9404781Y-12699135D01*
X9414305Y-12737230D01*
X9414305Y-12765802D01*
X9404781Y-12803897D01*
X9395257Y-12822945D01*
X9376210Y-12841992D01*
X9347638Y-12851516D01*
X9300019Y-12851516D01*
X9500019Y-12851516D02*
X9500019Y-12718183D01*
X9500019Y-12756278D02*
X9509543Y-12737230D01*
X9519067Y-12727707D01*
X9538114Y-12718183D01*
X9557162Y-12718183D01*
X9623829Y-12851516D02*
X9623829Y-12718183D01*
X9623829Y-12651516D02*
X9614305Y-12661040D01*
X9623829Y-12670564D01*
X9633352Y-12661040D01*
X9623829Y-12651516D01*
X9623829Y-12670564D01*
X9747638Y-12851516D02*
X9728590Y-12841992D01*
X9719067Y-12822945D01*
X9719067Y-12651516D01*
X9852400Y-12851516D02*
X9833352Y-12841992D01*
X9823829Y-12822945D01*
X9823829Y-12651516D01*
X10080971Y-12851516D02*
X10080971Y-12651516D01*
X10147638Y-12794373D01*
X10214305Y-12651516D01*
X10214305Y-12851516D01*
X10395257Y-12851516D02*
X10395257Y-12746754D01*
X10385733Y-12727707D01*
X10366686Y-12718183D01*
X10328590Y-12718183D01*
X10309543Y-12727707D01*
X10395257Y-12841992D02*
X10376210Y-12851516D01*
X10328590Y-12851516D01*
X10309543Y-12841992D01*
X10300019Y-12822945D01*
X10300019Y-12803897D01*
X10309543Y-12784849D01*
X10328590Y-12775326D01*
X10376210Y-12775326D01*
X10395257Y-12765802D01*
X10490495Y-12718183D02*
X10490495Y-12918183D01*
X10490495Y-12727707D02*
X10509543Y-12718183D01*
X10547638Y-12718183D01*
X10566686Y-12727707D01*
X10576210Y-12737230D01*
X10585733Y-12756278D01*
X10585733Y-12813421D01*
X10576210Y-12832468D01*
X10566686Y-12841992D01*
X10547638Y-12851516D01*
X10509543Y-12851516D01*
X10490495Y-12841992D01*
X10671448Y-12832468D02*
X10680971Y-12841992D01*
X10671448Y-12851516D01*
X10661924Y-12841992D01*
X10671448Y-12832468D01*
X10671448Y-12851516D01*
X10671448Y-12727707D02*
X10680971Y-12737230D01*
X10671448Y-12746754D01*
X10661924Y-12737230D01*
X10671448Y-12727707D01*
X10671448Y-12746754D01*
M02*
