%TF.GenerationSoftware,KiCad,Pcbnew,8.0.4-8.0.4-0~ubuntu22.04.1*%
%TF.CreationDate,2024-08-14T23:01:58+09:00*%
%TF.ProjectId,pdb,7064622e-6b69-4636-9164-5f7063625858,rev?*%
%TF.SameCoordinates,Original*%
%TF.FileFunction,Copper,L2,Bot*%
%TF.FilePolarity,Positive*%
%FSLAX46Y46*%
G04 Gerber Fmt 4.6, Leading zero omitted, Abs format (unit mm)*
G04 Created by KiCad (PCBNEW 8.0.4-8.0.4-0~ubuntu22.04.1) date 2024-08-14 23:01:58*
%MOMM*%
%LPD*%
G01*
G04 APERTURE LIST*
G04 Aperture macros list*
%AMRoundRect*
0 Rectangle with rounded corners*
0 $1 Rounding radius*
0 $2 $3 $4 $5 $6 $7 $8 $9 X,Y pos of 4 corners*
0 Add a 4 corners polygon primitive as box body*
4,1,4,$2,$3,$4,$5,$6,$7,$8,$9,$2,$3,0*
0 Add four circle primitives for the rounded corners*
1,1,$1+$1,$2,$3*
1,1,$1+$1,$4,$5*
1,1,$1+$1,$6,$7*
1,1,$1+$1,$8,$9*
0 Add four rect primitives between the rounded corners*
20,1,$1+$1,$2,$3,$4,$5,0*
20,1,$1+$1,$4,$5,$6,$7,0*
20,1,$1+$1,$6,$7,$8,$9,0*
20,1,$1+$1,$8,$9,$2,$3,0*%
G04 Aperture macros list end*
%TA.AperFunction,ComponentPad*%
%ADD10C,1.400000*%
%TD*%
%TA.AperFunction,ComponentPad*%
%ADD11R,3.500000X3.500000*%
%TD*%
%TA.AperFunction,ComponentPad*%
%ADD12C,3.500000*%
%TD*%
%TA.AperFunction,ComponentPad*%
%ADD13C,3.600000*%
%TD*%
%TA.AperFunction,ConnectorPad*%
%ADD14C,5.600000*%
%TD*%
%TA.AperFunction,ComponentPad*%
%ADD15RoundRect,0.750000X-1.000000X0.750000X-1.000000X-0.750000X1.000000X-0.750000X1.000000X0.750000X0*%
%TD*%
%TA.AperFunction,ComponentPad*%
%ADD16RoundRect,0.875000X-0.875000X0.875000X-0.875000X-0.875000X0.875000X-0.875000X0.875000X0.875000X0*%
%TD*%
G04 APERTURE END LIST*
D10*
%TO.P,J3,*%
%TO.N,*%
X132060000Y-103000000D03*
X121060000Y-103000000D03*
D11*
%TO.P,J3,1,Pin_1*%
%TO.N,GND*%
X124060000Y-93000000D03*
D12*
%TO.P,J3,2,Pin_2*%
%TO.N,+BATT*%
X129060000Y-93000000D03*
%TD*%
D13*
%TO.P,H2,1*%
%TO.N,N/C*%
X175068400Y-89306400D03*
D14*
X175068400Y-89306400D03*
%TD*%
D13*
%TO.P,H1,1*%
%TO.N,N/C*%
X90068400Y-89306400D03*
D14*
X90068400Y-89306400D03*
%TD*%
D10*
%TO.P,J4,*%
%TO.N,*%
X118180000Y-102970000D03*
X107180000Y-102970000D03*
D11*
%TO.P,J4,1,Pin_1*%
%TO.N,GND*%
X110180000Y-92970000D03*
D12*
%TO.P,J4,2,Pin_2*%
%TO.N,+BATT*%
X115180000Y-92970000D03*
%TD*%
D11*
%TO.P,J6,1*%
%TO.N,+BATT*%
X165587500Y-100275000D03*
D15*
%TO.P,J6,2*%
%TO.N,GND*%
X165587500Y-94275000D03*
D16*
%TO.P,J6,3*%
%TO.N,N/C*%
X160887500Y-97275000D03*
%TD*%
D10*
%TO.P,J1,*%
%TO.N,*%
X147730000Y-89665000D03*
X158730000Y-89665000D03*
D11*
%TO.P,J1,1,Pin_1*%
%TO.N,GND*%
X155730000Y-99665000D03*
D12*
%TO.P,J1,2,Pin_2*%
%TO.N,+BATT*%
X150730000Y-99665000D03*
%TD*%
D10*
%TO.P,J2,*%
%TO.N,*%
X145780000Y-103000000D03*
X134780000Y-103000000D03*
D11*
%TO.P,J2,1,Pin_1*%
%TO.N,GND*%
X137780000Y-93000000D03*
D12*
%TO.P,J2,2,Pin_2*%
%TO.N,+BATT*%
X142780000Y-93000000D03*
%TD*%
D10*
%TO.P,J5,*%
%TO.N,*%
X104200000Y-102940000D03*
X93200000Y-102940000D03*
D11*
%TO.P,J5,1,Pin_1*%
%TO.N,GND*%
X96200000Y-92940000D03*
D12*
%TO.P,J5,2,Pin_2*%
%TO.N,+BATT*%
X101200000Y-92940000D03*
%TD*%
%TA.AperFunction,Conductor*%
%TO.N,GND*%
G36*
X170833321Y-86326402D02*
G01*
X170879814Y-86380058D01*
X170891200Y-86432400D01*
X170891200Y-89865201D01*
X172367440Y-91224278D01*
X172386387Y-91246266D01*
X172430653Y-91311553D01*
X172430655Y-91311555D01*
X172430658Y-91311559D01*
X172505418Y-91399573D01*
X172662916Y-91584995D01*
X172923362Y-91831704D01*
X172923377Y-91831717D01*
X173208986Y-92048831D01*
X173350285Y-92133848D01*
X173354143Y-92136169D01*
X173374524Y-92151435D01*
X174091600Y-92811600D01*
X174091599Y-92811600D01*
X174298284Y-92819626D01*
X177947291Y-92961334D01*
X178014583Y-92983964D01*
X178058958Y-93039384D01*
X178068400Y-93087239D01*
X178068400Y-104305274D01*
X178068380Y-104307522D01*
X178065992Y-104441376D01*
X178064730Y-104457060D01*
X178026471Y-104723159D01*
X178022649Y-104740725D01*
X177947232Y-104997571D01*
X177940950Y-105014415D01*
X177829743Y-105257924D01*
X177821127Y-105273703D01*
X177676398Y-105498905D01*
X177665625Y-105513296D01*
X177490321Y-105715608D01*
X177477608Y-105728321D01*
X177275296Y-105903625D01*
X177260905Y-105914398D01*
X177035703Y-106059127D01*
X177019924Y-106067743D01*
X176776415Y-106178950D01*
X176759571Y-106185232D01*
X176502725Y-106260649D01*
X176485159Y-106264471D01*
X176219060Y-106302730D01*
X176203376Y-106303992D01*
X176071900Y-106306337D01*
X176069520Y-106306380D01*
X176067274Y-106306400D01*
X89069526Y-106306400D01*
X89067279Y-106306380D01*
X89064831Y-106306336D01*
X88933423Y-106303992D01*
X88917739Y-106302730D01*
X88651640Y-106264471D01*
X88634074Y-106260649D01*
X88377228Y-106185232D01*
X88360384Y-106178950D01*
X88116875Y-106067743D01*
X88101096Y-106059127D01*
X87875894Y-105914398D01*
X87861503Y-105903625D01*
X87659191Y-105728321D01*
X87646478Y-105715608D01*
X87471174Y-105513296D01*
X87460401Y-105498905D01*
X87315672Y-105273703D01*
X87307056Y-105257924D01*
X87195849Y-105014415D01*
X87189567Y-104997571D01*
X87114150Y-104740725D01*
X87110328Y-104723159D01*
X87072069Y-104457060D01*
X87070807Y-104441375D01*
X87068420Y-104307521D01*
X87068400Y-104305274D01*
X87068400Y-102940000D01*
X91986884Y-102940000D01*
X92005314Y-103150655D01*
X92021391Y-103210655D01*
X92060043Y-103354908D01*
X92060045Y-103354912D01*
X92149412Y-103546561D01*
X92270692Y-103719767D01*
X92270696Y-103719772D01*
X92270699Y-103719776D01*
X92420224Y-103869301D01*
X92420228Y-103869304D01*
X92420232Y-103869307D01*
X92593438Y-103990587D01*
X92593441Y-103990588D01*
X92593442Y-103990589D01*
X92785090Y-104079956D01*
X92989345Y-104134686D01*
X93200000Y-104153116D01*
X93410655Y-104134686D01*
X93614910Y-104079956D01*
X93806558Y-103990589D01*
X93979776Y-103869301D01*
X94129301Y-103719776D01*
X94250589Y-103546558D01*
X94339956Y-103354910D01*
X94394686Y-103150655D01*
X94413116Y-102940000D01*
X102986884Y-102940000D01*
X103005314Y-103150655D01*
X103021391Y-103210655D01*
X103060043Y-103354908D01*
X103060045Y-103354912D01*
X103149412Y-103546561D01*
X103270692Y-103719767D01*
X103270696Y-103719772D01*
X103270699Y-103719776D01*
X103420224Y-103869301D01*
X103420228Y-103869304D01*
X103420232Y-103869307D01*
X103593438Y-103990587D01*
X103593441Y-103990588D01*
X103593442Y-103990589D01*
X103785090Y-104079956D01*
X103989345Y-104134686D01*
X104200000Y-104153116D01*
X104410655Y-104134686D01*
X104614910Y-104079956D01*
X104806558Y-103990589D01*
X104979776Y-103869301D01*
X105129301Y-103719776D01*
X105250589Y-103546558D01*
X105339956Y-103354910D01*
X105394686Y-103150655D01*
X105410491Y-102970000D01*
X105966884Y-102970000D01*
X105985314Y-103180655D01*
X106014643Y-103290113D01*
X106040043Y-103384908D01*
X106040045Y-103384912D01*
X106129412Y-103576561D01*
X106250692Y-103749767D01*
X106250696Y-103749772D01*
X106250699Y-103749776D01*
X106400224Y-103899301D01*
X106400228Y-103899304D01*
X106400232Y-103899307D01*
X106573438Y-104020587D01*
X106573441Y-104020588D01*
X106573442Y-104020589D01*
X106765090Y-104109956D01*
X106969345Y-104164686D01*
X107180000Y-104183116D01*
X107390655Y-104164686D01*
X107594910Y-104109956D01*
X107786558Y-104020589D01*
X107959776Y-103899301D01*
X108109301Y-103749776D01*
X108230589Y-103576558D01*
X108319956Y-103384910D01*
X108374686Y-103180655D01*
X108393116Y-102970000D01*
X116966884Y-102970000D01*
X116985314Y-103180655D01*
X117014643Y-103290113D01*
X117040043Y-103384908D01*
X117040045Y-103384912D01*
X117129412Y-103576561D01*
X117250692Y-103749767D01*
X117250696Y-103749772D01*
X117250699Y-103749776D01*
X117400224Y-103899301D01*
X117400228Y-103899304D01*
X117400232Y-103899307D01*
X117573438Y-104020587D01*
X117573441Y-104020588D01*
X117573442Y-104020589D01*
X117765090Y-104109956D01*
X117969345Y-104164686D01*
X118180000Y-104183116D01*
X118390655Y-104164686D01*
X118594910Y-104109956D01*
X118786558Y-104020589D01*
X118959776Y-103899301D01*
X119109301Y-103749776D01*
X119230589Y-103576558D01*
X119319956Y-103384910D01*
X119374686Y-103180655D01*
X119390491Y-103000000D01*
X119846884Y-103000000D01*
X119865314Y-103210655D01*
X119894643Y-103320113D01*
X119920043Y-103414908D01*
X119920045Y-103414912D01*
X120009412Y-103606561D01*
X120130692Y-103779767D01*
X120130696Y-103779772D01*
X120130699Y-103779776D01*
X120280224Y-103929301D01*
X120280228Y-103929304D01*
X120280232Y-103929307D01*
X120453438Y-104050587D01*
X120453441Y-104050588D01*
X120453442Y-104050589D01*
X120645090Y-104139956D01*
X120849345Y-104194686D01*
X121060000Y-104213116D01*
X121270655Y-104194686D01*
X121474910Y-104139956D01*
X121666558Y-104050589D01*
X121839776Y-103929301D01*
X121989301Y-103779776D01*
X122110589Y-103606558D01*
X122199956Y-103414910D01*
X122254686Y-103210655D01*
X122273116Y-103000000D01*
X130846884Y-103000000D01*
X130865314Y-103210655D01*
X130894643Y-103320113D01*
X130920043Y-103414908D01*
X130920045Y-103414912D01*
X131009412Y-103606561D01*
X131130692Y-103779767D01*
X131130696Y-103779772D01*
X131130699Y-103779776D01*
X131280224Y-103929301D01*
X131280228Y-103929304D01*
X131280232Y-103929307D01*
X131453438Y-104050587D01*
X131453441Y-104050588D01*
X131453442Y-104050589D01*
X131645090Y-104139956D01*
X131849345Y-104194686D01*
X132060000Y-104213116D01*
X132270655Y-104194686D01*
X132474910Y-104139956D01*
X132666558Y-104050589D01*
X132839776Y-103929301D01*
X132989301Y-103779776D01*
X133110589Y-103606558D01*
X133199956Y-103414910D01*
X133254686Y-103210655D01*
X133273116Y-103000000D01*
X133566884Y-103000000D01*
X133585314Y-103210655D01*
X133614643Y-103320113D01*
X133640043Y-103414908D01*
X133640045Y-103414912D01*
X133729412Y-103606561D01*
X133850692Y-103779767D01*
X133850696Y-103779772D01*
X133850699Y-103779776D01*
X134000224Y-103929301D01*
X134000228Y-103929304D01*
X134000232Y-103929307D01*
X134173438Y-104050587D01*
X134173441Y-104050588D01*
X134173442Y-104050589D01*
X134365090Y-104139956D01*
X134569345Y-104194686D01*
X134780000Y-104213116D01*
X134990655Y-104194686D01*
X135194910Y-104139956D01*
X135386558Y-104050589D01*
X135559776Y-103929301D01*
X135709301Y-103779776D01*
X135830589Y-103606558D01*
X135919956Y-103414910D01*
X135974686Y-103210655D01*
X135993116Y-103000000D01*
X144566884Y-103000000D01*
X144585314Y-103210655D01*
X144614643Y-103320113D01*
X144640043Y-103414908D01*
X144640045Y-103414912D01*
X144729412Y-103606561D01*
X144850692Y-103779767D01*
X144850696Y-103779772D01*
X144850699Y-103779776D01*
X145000224Y-103929301D01*
X145000228Y-103929304D01*
X145000232Y-103929307D01*
X145173438Y-104050587D01*
X145173441Y-104050588D01*
X145173442Y-104050589D01*
X145365090Y-104139956D01*
X145569345Y-104194686D01*
X145780000Y-104213116D01*
X145990655Y-104194686D01*
X146194910Y-104139956D01*
X146386558Y-104050589D01*
X146559776Y-103929301D01*
X146709301Y-103779776D01*
X146830589Y-103606558D01*
X146919956Y-103414910D01*
X146974686Y-103210655D01*
X146993116Y-103000000D01*
X146974686Y-102789345D01*
X146919956Y-102585090D01*
X146830589Y-102393442D01*
X146830588Y-102393441D01*
X146830587Y-102393438D01*
X146709307Y-102220232D01*
X146709304Y-102220228D01*
X146709301Y-102220224D01*
X146559776Y-102070699D01*
X146559772Y-102070696D01*
X146559767Y-102070692D01*
X146386561Y-101949412D01*
X146194912Y-101860045D01*
X146194908Y-101860043D01*
X146082952Y-101830045D01*
X145990655Y-101805314D01*
X145780000Y-101786884D01*
X145569345Y-101805314D01*
X145514616Y-101819978D01*
X145365091Y-101860043D01*
X145365087Y-101860045D01*
X145173438Y-101949412D01*
X145000232Y-102070692D01*
X145000221Y-102070701D01*
X144850701Y-102220221D01*
X144850692Y-102220232D01*
X144729412Y-102393438D01*
X144640045Y-102585087D01*
X144640043Y-102585091D01*
X144601391Y-102729345D01*
X144585314Y-102789345D01*
X144566884Y-103000000D01*
X135993116Y-103000000D01*
X135974686Y-102789345D01*
X135919956Y-102585090D01*
X135830589Y-102393442D01*
X135830588Y-102393441D01*
X135830587Y-102393438D01*
X135709307Y-102220232D01*
X135709304Y-102220228D01*
X135709301Y-102220224D01*
X135559776Y-102070699D01*
X135559772Y-102070696D01*
X135559767Y-102070692D01*
X135386561Y-101949412D01*
X135194912Y-101860045D01*
X135194908Y-101860043D01*
X135082952Y-101830045D01*
X134990655Y-101805314D01*
X134780000Y-101786884D01*
X134569345Y-101805314D01*
X134514616Y-101819978D01*
X134365091Y-101860043D01*
X134365087Y-101860045D01*
X134173438Y-101949412D01*
X134000232Y-102070692D01*
X134000221Y-102070701D01*
X133850701Y-102220221D01*
X133850692Y-102220232D01*
X133729412Y-102393438D01*
X133640045Y-102585087D01*
X133640043Y-102585091D01*
X133601391Y-102729345D01*
X133585314Y-102789345D01*
X133566884Y-103000000D01*
X133273116Y-103000000D01*
X133254686Y-102789345D01*
X133199956Y-102585090D01*
X133110589Y-102393442D01*
X133110588Y-102393441D01*
X133110587Y-102393438D01*
X132989307Y-102220232D01*
X132989304Y-102220228D01*
X132989301Y-102220224D01*
X132839776Y-102070699D01*
X132839772Y-102070696D01*
X132839767Y-102070692D01*
X132666561Y-101949412D01*
X132474912Y-101860045D01*
X132474908Y-101860043D01*
X132362952Y-101830045D01*
X132270655Y-101805314D01*
X132060000Y-101786884D01*
X131849345Y-101805314D01*
X131794616Y-101819978D01*
X131645091Y-101860043D01*
X131645087Y-101860045D01*
X131453438Y-101949412D01*
X131280232Y-102070692D01*
X131280221Y-102070701D01*
X131130701Y-102220221D01*
X131130692Y-102220232D01*
X131009412Y-102393438D01*
X130920045Y-102585087D01*
X130920043Y-102585091D01*
X130881391Y-102729345D01*
X130865314Y-102789345D01*
X130846884Y-103000000D01*
X122273116Y-103000000D01*
X122254686Y-102789345D01*
X122199956Y-102585090D01*
X122110589Y-102393442D01*
X122110588Y-102393441D01*
X122110587Y-102393438D01*
X121989307Y-102220232D01*
X121989304Y-102220228D01*
X121989301Y-102220224D01*
X121839776Y-102070699D01*
X121839772Y-102070696D01*
X121839767Y-102070692D01*
X121666561Y-101949412D01*
X121474912Y-101860045D01*
X121474908Y-101860043D01*
X121362952Y-101830045D01*
X121270655Y-101805314D01*
X121060000Y-101786884D01*
X120849345Y-101805314D01*
X120794616Y-101819978D01*
X120645091Y-101860043D01*
X120645087Y-101860045D01*
X120453438Y-101949412D01*
X120280232Y-102070692D01*
X120280221Y-102070701D01*
X120130701Y-102220221D01*
X120130692Y-102220232D01*
X120009412Y-102393438D01*
X119920045Y-102585087D01*
X119920043Y-102585091D01*
X119881391Y-102729345D01*
X119865314Y-102789345D01*
X119846884Y-103000000D01*
X119390491Y-103000000D01*
X119393116Y-102970000D01*
X119374686Y-102759345D01*
X119319956Y-102555090D01*
X119230589Y-102363442D01*
X119230588Y-102363441D01*
X119230587Y-102363438D01*
X119109307Y-102190232D01*
X119109304Y-102190228D01*
X119109301Y-102190224D01*
X118959776Y-102040699D01*
X118959772Y-102040696D01*
X118959767Y-102040692D01*
X118786561Y-101919412D01*
X118594912Y-101830045D01*
X118594908Y-101830043D01*
X118482952Y-101800045D01*
X118390655Y-101775314D01*
X118180000Y-101756884D01*
X117969345Y-101775314D01*
X117926165Y-101786884D01*
X117765091Y-101830043D01*
X117765087Y-101830045D01*
X117573438Y-101919412D01*
X117400232Y-102040692D01*
X117400221Y-102040701D01*
X117250701Y-102190221D01*
X117250692Y-102190232D01*
X117129412Y-102363438D01*
X117040045Y-102555087D01*
X117040043Y-102555091D01*
X117032005Y-102585091D01*
X116985314Y-102759345D01*
X116966884Y-102970000D01*
X108393116Y-102970000D01*
X108374686Y-102759345D01*
X108319956Y-102555090D01*
X108230589Y-102363442D01*
X108230588Y-102363441D01*
X108230587Y-102363438D01*
X108109307Y-102190232D01*
X108109304Y-102190228D01*
X108109301Y-102190224D01*
X107959776Y-102040699D01*
X107959772Y-102040696D01*
X107959767Y-102040692D01*
X107786561Y-101919412D01*
X107594912Y-101830045D01*
X107594908Y-101830043D01*
X107482952Y-101800045D01*
X107390655Y-101775314D01*
X107180000Y-101756884D01*
X106969345Y-101775314D01*
X106926165Y-101786884D01*
X106765091Y-101830043D01*
X106765087Y-101830045D01*
X106573438Y-101919412D01*
X106400232Y-102040692D01*
X106400221Y-102040701D01*
X106250701Y-102190221D01*
X106250692Y-102190232D01*
X106129412Y-102363438D01*
X106040045Y-102555087D01*
X106040043Y-102555091D01*
X106032005Y-102585091D01*
X105985314Y-102759345D01*
X105966884Y-102970000D01*
X105410491Y-102970000D01*
X105413116Y-102940000D01*
X105394686Y-102729345D01*
X105339956Y-102525090D01*
X105250589Y-102333442D01*
X105250588Y-102333441D01*
X105250587Y-102333438D01*
X105129307Y-102160232D01*
X105129304Y-102160228D01*
X105129301Y-102160224D01*
X104979776Y-102010699D01*
X104979772Y-102010696D01*
X104979767Y-102010692D01*
X104806561Y-101889412D01*
X104642606Y-101812959D01*
X104614910Y-101800044D01*
X104614908Y-101800043D01*
X104520113Y-101774643D01*
X104410655Y-101745314D01*
X104200000Y-101726884D01*
X103989345Y-101745314D01*
X103949259Y-101756055D01*
X103785091Y-101800043D01*
X103785087Y-101800045D01*
X103593438Y-101889412D01*
X103420232Y-102010692D01*
X103420221Y-102010701D01*
X103270701Y-102160221D01*
X103270692Y-102160232D01*
X103149412Y-102333438D01*
X103060045Y-102525087D01*
X103060043Y-102525091D01*
X103019978Y-102674616D01*
X103005314Y-102729345D01*
X102986884Y-102940000D01*
X94413116Y-102940000D01*
X94394686Y-102729345D01*
X94339956Y-102525090D01*
X94250589Y-102333442D01*
X94250588Y-102333441D01*
X94250587Y-102333438D01*
X94129307Y-102160232D01*
X94129304Y-102160228D01*
X94129301Y-102160224D01*
X93979776Y-102010699D01*
X93979772Y-102010696D01*
X93979767Y-102010692D01*
X93806561Y-101889412D01*
X93642606Y-101812959D01*
X93614910Y-101800044D01*
X93614908Y-101800043D01*
X93520113Y-101774643D01*
X93410655Y-101745314D01*
X93200000Y-101726884D01*
X92989345Y-101745314D01*
X92949259Y-101756055D01*
X92785091Y-101800043D01*
X92785087Y-101800045D01*
X92593438Y-101889412D01*
X92420232Y-102010692D01*
X92420221Y-102010701D01*
X92270701Y-102160221D01*
X92270692Y-102160232D01*
X92149412Y-102333438D01*
X92060045Y-102525087D01*
X92060043Y-102525091D01*
X92019978Y-102674616D01*
X92005314Y-102729345D01*
X91986884Y-102940000D01*
X87068400Y-102940000D01*
X87068400Y-99664996D01*
X148466654Y-99664996D01*
X148466654Y-99665003D01*
X148486016Y-99960421D01*
X148486018Y-99960435D01*
X148543776Y-100250795D01*
X148543778Y-100250805D01*
X148638938Y-100531137D01*
X148638944Y-100531151D01*
X148769883Y-100796670D01*
X148934359Y-101042827D01*
X148934361Y-101042830D01*
X148934367Y-101042838D01*
X149129573Y-101265427D01*
X149352162Y-101460633D01*
X149598327Y-101625115D01*
X149863855Y-101756059D01*
X150144203Y-101851224D01*
X150434574Y-101908983D01*
X150593677Y-101919411D01*
X150729997Y-101928346D01*
X150730000Y-101928346D01*
X150730003Y-101928346D01*
X150866323Y-101919411D01*
X151025426Y-101908983D01*
X151315797Y-101851224D01*
X151596145Y-101756059D01*
X151861673Y-101625115D01*
X152107838Y-101460633D01*
X152330427Y-101265427D01*
X152525633Y-101042838D01*
X152690115Y-100796673D01*
X152821059Y-100531145D01*
X152916224Y-100250797D01*
X152973983Y-99960426D01*
X152993346Y-99665000D01*
X152973983Y-99369574D01*
X152916224Y-99079203D01*
X152821059Y-98798855D01*
X152690115Y-98533327D01*
X152568594Y-98351458D01*
X152525640Y-98287172D01*
X152525638Y-98287170D01*
X152525633Y-98287162D01*
X152330427Y-98064573D01*
X152107838Y-97869367D01*
X152107830Y-97869361D01*
X152107827Y-97869359D01*
X151861670Y-97704883D01*
X151596151Y-97573944D01*
X151596145Y-97573941D01*
X151596140Y-97573939D01*
X151596137Y-97573938D01*
X151315805Y-97478778D01*
X151315799Y-97478776D01*
X151315797Y-97478776D01*
X151218566Y-97459435D01*
X151025435Y-97421018D01*
X151025421Y-97421016D01*
X150730003Y-97401654D01*
X150729997Y-97401654D01*
X150434578Y-97421016D01*
X150434564Y-97421018D01*
X150192818Y-97469105D01*
X150144203Y-97478776D01*
X150144201Y-97478776D01*
X150144194Y-97478778D01*
X149863862Y-97573938D01*
X149863848Y-97573944D01*
X149598329Y-97704883D01*
X149352172Y-97869359D01*
X149352165Y-97869364D01*
X149352162Y-97869367D01*
X149129573Y-98064573D01*
X148934367Y-98287162D01*
X148934364Y-98287165D01*
X148934359Y-98287172D01*
X148769883Y-98533329D01*
X148638944Y-98798848D01*
X148638938Y-98798862D01*
X148543778Y-99079194D01*
X148543776Y-99079204D01*
X148486018Y-99369564D01*
X148486016Y-99369578D01*
X148466654Y-99664996D01*
X87068400Y-99664996D01*
X87068400Y-96305829D01*
X158629000Y-96305829D01*
X158629000Y-96305840D01*
X158629000Y-96305841D01*
X158629000Y-98244159D01*
X158629001Y-98244170D01*
X158631811Y-98297092D01*
X158670635Y-98497836D01*
X158676531Y-98528317D01*
X158759682Y-98748652D01*
X158759684Y-98748657D01*
X158878873Y-98951766D01*
X159030680Y-99131819D01*
X159210733Y-99283626D01*
X159413842Y-99402815D01*
X159413844Y-99402816D01*
X159413848Y-99402818D01*
X159634186Y-99485970D01*
X159865408Y-99530689D01*
X159918329Y-99533500D01*
X161856670Y-99533499D01*
X161909592Y-99530689D01*
X162140814Y-99485970D01*
X162361152Y-99402818D01*
X162564268Y-99283625D01*
X162744319Y-99131819D01*
X162896125Y-98951768D01*
X163015318Y-98748652D01*
X163085115Y-98563701D01*
X163127881Y-98507031D01*
X163194497Y-98482477D01*
X163263812Y-98497836D01*
X163313820Y-98548232D01*
X163329000Y-98608190D01*
X163329000Y-102073649D01*
X163335509Y-102134196D01*
X163335511Y-102134204D01*
X163386610Y-102271202D01*
X163386612Y-102271207D01*
X163474238Y-102388261D01*
X163591292Y-102475887D01*
X163591294Y-102475888D01*
X163591296Y-102475889D01*
X163650375Y-102497924D01*
X163728295Y-102526988D01*
X163728303Y-102526990D01*
X163788850Y-102533499D01*
X163788855Y-102533499D01*
X163788862Y-102533500D01*
X163788868Y-102533500D01*
X167386132Y-102533500D01*
X167386138Y-102533500D01*
X167386145Y-102533499D01*
X167386149Y-102533499D01*
X167446696Y-102526990D01*
X167446699Y-102526989D01*
X167446701Y-102526989D01*
X167451793Y-102525090D01*
X167465545Y-102519960D01*
X167583704Y-102475889D01*
X167700761Y-102388261D01*
X167788389Y-102271204D01*
X167839489Y-102134201D01*
X167846000Y-102073638D01*
X167846000Y-98476362D01*
X167845999Y-98476350D01*
X167839490Y-98415803D01*
X167839488Y-98415795D01*
X167795213Y-98297092D01*
X167788389Y-98278796D01*
X167788388Y-98278794D01*
X167788387Y-98278792D01*
X167700761Y-98161738D01*
X167583707Y-98074112D01*
X167583702Y-98074110D01*
X167446704Y-98023011D01*
X167446696Y-98023009D01*
X167386149Y-98016500D01*
X167386138Y-98016500D01*
X163788862Y-98016500D01*
X163788850Y-98016500D01*
X163728303Y-98023009D01*
X163728295Y-98023011D01*
X163591297Y-98074110D01*
X163591292Y-98074112D01*
X163474238Y-98161738D01*
X163386611Y-98278794D01*
X163382585Y-98286168D01*
X163332381Y-98336368D01*
X163263007Y-98351458D01*
X163196487Y-98326645D01*
X163153942Y-98269808D01*
X163145999Y-98225784D01*
X163145999Y-96305830D01*
X163143189Y-96252908D01*
X163098470Y-96021686D01*
X163015318Y-95801348D01*
X163015316Y-95801344D01*
X163015315Y-95801342D01*
X162896126Y-95598233D01*
X162744319Y-95418180D01*
X162564266Y-95266373D01*
X162361157Y-95147184D01*
X162361152Y-95147182D01*
X162140818Y-95064031D01*
X162140815Y-95064030D01*
X162140814Y-95064030D01*
X161909592Y-95019311D01*
X161856671Y-95016500D01*
X161856658Y-95016500D01*
X159918340Y-95016500D01*
X159878829Y-95018598D01*
X159865408Y-95019311D01*
X159865407Y-95019311D01*
X159804685Y-95031055D01*
X159634186Y-95064030D01*
X159634184Y-95064030D01*
X159634182Y-95064031D01*
X159413847Y-95147182D01*
X159413842Y-95147184D01*
X159210733Y-95266373D01*
X159030680Y-95418180D01*
X158878873Y-95598233D01*
X158759684Y-95801342D01*
X158759682Y-95801347D01*
X158676531Y-96021681D01*
X158676530Y-96021685D01*
X158676530Y-96021686D01*
X158631811Y-96252908D01*
X158629000Y-96305829D01*
X87068400Y-96305829D01*
X87068400Y-93351802D01*
X87088402Y-93283681D01*
X87142058Y-93237188D01*
X87195575Y-93225808D01*
X91724406Y-93268134D01*
X91795599Y-93268800D01*
X91795599Y-93268799D01*
X91795600Y-93268800D01*
X92101986Y-92939996D01*
X98936654Y-92939996D01*
X98936654Y-92940003D01*
X98956016Y-93235421D01*
X98956018Y-93235435D01*
X99013776Y-93525795D01*
X99013778Y-93525805D01*
X99108938Y-93806137D01*
X99108944Y-93806151D01*
X99239883Y-94071670D01*
X99404359Y-94317827D01*
X99404361Y-94317830D01*
X99404367Y-94317838D01*
X99599573Y-94540427D01*
X99822162Y-94735633D01*
X99822170Y-94735638D01*
X99822172Y-94735640D01*
X99911958Y-94795633D01*
X100068327Y-94900115D01*
X100333855Y-95031059D01*
X100614203Y-95126224D01*
X100904574Y-95183983D01*
X101073388Y-95195047D01*
X101199997Y-95203346D01*
X101200000Y-95203346D01*
X101200003Y-95203346D01*
X101310784Y-95196084D01*
X101495426Y-95183983D01*
X101785797Y-95126224D01*
X102066145Y-95031059D01*
X102331673Y-94900115D01*
X102577838Y-94735633D01*
X102800427Y-94540427D01*
X102995633Y-94317838D01*
X103160115Y-94071673D01*
X103291059Y-93806145D01*
X103386224Y-93525797D01*
X103443983Y-93235426D01*
X103459413Y-93000003D01*
X103461380Y-92969996D01*
X112916654Y-92969996D01*
X112916654Y-92970003D01*
X112936016Y-93265421D01*
X112936018Y-93265435D01*
X112993776Y-93555795D01*
X112993778Y-93555805D01*
X113088938Y-93836137D01*
X113088944Y-93836151D01*
X113219883Y-94101670D01*
X113384359Y-94347827D01*
X113384361Y-94347830D01*
X113384367Y-94347838D01*
X113579573Y-94570427D01*
X113802162Y-94765633D01*
X113802170Y-94765638D01*
X113802172Y-94765640D01*
X113921840Y-94845599D01*
X114048327Y-94930115D01*
X114313855Y-95061059D01*
X114594203Y-95156224D01*
X114884574Y-95213983D01*
X115053388Y-95225047D01*
X115179997Y-95233346D01*
X115180000Y-95233346D01*
X115180003Y-95233346D01*
X115290784Y-95226084D01*
X115475426Y-95213983D01*
X115765797Y-95156224D01*
X116046145Y-95061059D01*
X116311673Y-94930115D01*
X116557838Y-94765633D01*
X116780427Y-94570427D01*
X116975633Y-94347838D01*
X117140115Y-94101673D01*
X117271059Y-93836145D01*
X117366224Y-93555797D01*
X117423983Y-93265426D01*
X117441380Y-92999996D01*
X126796654Y-92999996D01*
X126796654Y-93000003D01*
X126816016Y-93295421D01*
X126816018Y-93295435D01*
X126873776Y-93585795D01*
X126873778Y-93585805D01*
X126968938Y-93866137D01*
X126968944Y-93866151D01*
X127099883Y-94131670D01*
X127264359Y-94377827D01*
X127264361Y-94377830D01*
X127264367Y-94377838D01*
X127459573Y-94600427D01*
X127682162Y-94795633D01*
X127928327Y-94960115D01*
X128193855Y-95091059D01*
X128474203Y-95186224D01*
X128764574Y-95243983D01*
X128933388Y-95255047D01*
X129059997Y-95263346D01*
X129060000Y-95263346D01*
X129060003Y-95263346D01*
X129170784Y-95256084D01*
X129355426Y-95243983D01*
X129645797Y-95186224D01*
X129926145Y-95091059D01*
X130191673Y-94960115D01*
X130437838Y-94795633D01*
X130660427Y-94600427D01*
X130855633Y-94377838D01*
X131020115Y-94131673D01*
X131151059Y-93866145D01*
X131246224Y-93585797D01*
X131303983Y-93295426D01*
X131323346Y-93000000D01*
X131323346Y-92999996D01*
X140516654Y-92999996D01*
X140516654Y-93000003D01*
X140536016Y-93295421D01*
X140536018Y-93295435D01*
X140593776Y-93585795D01*
X140593778Y-93585805D01*
X140688938Y-93866137D01*
X140688944Y-93866151D01*
X140819883Y-94131670D01*
X140984359Y-94377827D01*
X140984361Y-94377830D01*
X140984367Y-94377838D01*
X141179573Y-94600427D01*
X141402162Y-94795633D01*
X141648327Y-94960115D01*
X141913855Y-95091059D01*
X142194203Y-95186224D01*
X142484574Y-95243983D01*
X142653388Y-95255047D01*
X142779997Y-95263346D01*
X142780000Y-95263346D01*
X142780003Y-95263346D01*
X142890784Y-95256084D01*
X143075426Y-95243983D01*
X143365797Y-95186224D01*
X143646145Y-95091059D01*
X143911673Y-94960115D01*
X144157838Y-94795633D01*
X144380427Y-94600427D01*
X144575633Y-94377838D01*
X144740115Y-94131673D01*
X144871059Y-93866145D01*
X144966224Y-93585797D01*
X145023983Y-93295426D01*
X145043346Y-93000000D01*
X145041379Y-92969996D01*
X145023983Y-92704578D01*
X145023983Y-92704574D01*
X144966224Y-92414203D01*
X144871059Y-92133855D01*
X144740115Y-91868327D01*
X144575633Y-91622162D01*
X144380427Y-91399573D01*
X144157838Y-91204367D01*
X144157830Y-91204361D01*
X144157827Y-91204359D01*
X143911670Y-91039883D01*
X143646151Y-90908944D01*
X143646145Y-90908941D01*
X143646140Y-90908939D01*
X143646137Y-90908938D01*
X143365805Y-90813778D01*
X143365799Y-90813776D01*
X143365797Y-90813776D01*
X143268566Y-90794435D01*
X143075435Y-90756018D01*
X143075421Y-90756016D01*
X142780003Y-90736654D01*
X142779997Y-90736654D01*
X142484578Y-90756016D01*
X142484564Y-90756018D01*
X142242818Y-90804105D01*
X142194203Y-90813776D01*
X142194201Y-90813776D01*
X142194194Y-90813778D01*
X141913862Y-90908938D01*
X141913848Y-90908944D01*
X141648329Y-91039883D01*
X141402172Y-91204359D01*
X141402165Y-91204364D01*
X141402162Y-91204367D01*
X141179573Y-91399573D01*
X140984367Y-91622162D01*
X140984364Y-91622165D01*
X140984359Y-91622172D01*
X140819883Y-91868329D01*
X140688944Y-92133848D01*
X140688938Y-92133862D01*
X140593778Y-92414194D01*
X140593776Y-92414204D01*
X140536018Y-92704564D01*
X140536016Y-92704578D01*
X140516654Y-92999996D01*
X131323346Y-92999996D01*
X131321379Y-92969996D01*
X131303983Y-92704578D01*
X131303983Y-92704574D01*
X131246224Y-92414203D01*
X131151059Y-92133855D01*
X131020115Y-91868327D01*
X130855633Y-91622162D01*
X130660427Y-91399573D01*
X130437838Y-91204367D01*
X130437830Y-91204361D01*
X130437827Y-91204359D01*
X130191670Y-91039883D01*
X129926151Y-90908944D01*
X129926145Y-90908941D01*
X129926140Y-90908939D01*
X129926137Y-90908938D01*
X129645805Y-90813778D01*
X129645799Y-90813776D01*
X129645797Y-90813776D01*
X129548566Y-90794435D01*
X129355435Y-90756018D01*
X129355421Y-90756016D01*
X129060003Y-90736654D01*
X129059997Y-90736654D01*
X128764578Y-90756016D01*
X128764564Y-90756018D01*
X128522818Y-90804105D01*
X128474203Y-90813776D01*
X128474201Y-90813776D01*
X128474194Y-90813778D01*
X128193862Y-90908938D01*
X128193848Y-90908944D01*
X127928329Y-91039883D01*
X127682172Y-91204359D01*
X127682165Y-91204364D01*
X127682162Y-91204367D01*
X127459573Y-91399573D01*
X127264367Y-91622162D01*
X127264364Y-91622165D01*
X127264359Y-91622172D01*
X127099883Y-91868329D01*
X126968944Y-92133848D01*
X126968938Y-92133862D01*
X126873778Y-92414194D01*
X126873776Y-92414204D01*
X126816018Y-92704564D01*
X126816016Y-92704578D01*
X126796654Y-92999996D01*
X117441380Y-92999996D01*
X117443346Y-92970000D01*
X117441379Y-92939996D01*
X117432964Y-92811600D01*
X117423983Y-92674574D01*
X117366224Y-92384203D01*
X117271059Y-92103855D01*
X117140115Y-91838327D01*
X116995685Y-91622172D01*
X116975640Y-91592172D01*
X116975638Y-91592170D01*
X116975633Y-91592162D01*
X116780427Y-91369573D01*
X116557838Y-91174367D01*
X116557830Y-91174361D01*
X116557827Y-91174359D01*
X116311670Y-91009883D01*
X116046151Y-90878944D01*
X116046145Y-90878941D01*
X116046140Y-90878939D01*
X116046137Y-90878938D01*
X115765805Y-90783778D01*
X115765799Y-90783776D01*
X115765797Y-90783776D01*
X115626240Y-90756016D01*
X115475435Y-90726018D01*
X115475421Y-90726016D01*
X115180003Y-90706654D01*
X115179997Y-90706654D01*
X114884578Y-90726016D01*
X114884564Y-90726018D01*
X114642818Y-90774105D01*
X114594203Y-90783776D01*
X114594201Y-90783776D01*
X114594194Y-90783778D01*
X114313862Y-90878938D01*
X114313848Y-90878944D01*
X114048329Y-91009883D01*
X113802172Y-91174359D01*
X113802165Y-91174364D01*
X113802162Y-91174367D01*
X113579573Y-91369573D01*
X113384367Y-91592162D01*
X113384364Y-91592165D01*
X113384359Y-91592172D01*
X113219883Y-91838329D01*
X113088944Y-92103848D01*
X113088938Y-92103862D01*
X112993778Y-92384194D01*
X112993776Y-92384204D01*
X112936018Y-92674564D01*
X112936016Y-92674578D01*
X112916654Y-92969996D01*
X103461380Y-92969996D01*
X103463346Y-92940003D01*
X103463346Y-92939996D01*
X103447916Y-92704578D01*
X103443983Y-92644574D01*
X103386224Y-92354203D01*
X103291059Y-92073855D01*
X103160115Y-91808327D01*
X103075599Y-91681840D01*
X102995640Y-91562172D01*
X102995638Y-91562170D01*
X102995633Y-91562162D01*
X102800427Y-91339573D01*
X102577838Y-91144367D01*
X102577830Y-91144361D01*
X102577827Y-91144359D01*
X102331670Y-90979883D01*
X102066151Y-90848944D01*
X102066145Y-90848941D01*
X102066140Y-90848939D01*
X102066137Y-90848938D01*
X101785805Y-90753778D01*
X101785799Y-90753776D01*
X101785797Y-90753776D01*
X101646240Y-90726016D01*
X101495435Y-90696018D01*
X101495421Y-90696016D01*
X101200003Y-90676654D01*
X101199997Y-90676654D01*
X100904578Y-90696016D01*
X100904564Y-90696018D01*
X100662818Y-90744105D01*
X100614203Y-90753776D01*
X100614201Y-90753776D01*
X100614194Y-90753778D01*
X100333862Y-90848938D01*
X100333848Y-90848944D01*
X100068329Y-90979883D01*
X99822172Y-91144359D01*
X99822165Y-91144364D01*
X99822162Y-91144367D01*
X99599573Y-91339573D01*
X99404367Y-91562162D01*
X99404364Y-91562165D01*
X99404359Y-91562172D01*
X99239883Y-91808329D01*
X99108944Y-92073848D01*
X99108938Y-92073862D01*
X99013778Y-92354194D01*
X99013776Y-92354204D01*
X98956018Y-92644564D01*
X98956016Y-92644578D01*
X98936654Y-92939996D01*
X92101986Y-92939996D01*
X93878400Y-91033600D01*
X93878400Y-89665000D01*
X146516884Y-89665000D01*
X146535314Y-89875655D01*
X146564643Y-89985113D01*
X146590043Y-90079908D01*
X146590045Y-90079912D01*
X146679412Y-90271561D01*
X146800692Y-90444767D01*
X146800696Y-90444772D01*
X146800699Y-90444776D01*
X146950224Y-90594301D01*
X146950228Y-90594304D01*
X146950232Y-90594307D01*
X147123438Y-90715587D01*
X147123441Y-90715588D01*
X147123442Y-90715589D01*
X147315090Y-90804956D01*
X147519345Y-90859686D01*
X147730000Y-90878116D01*
X147940655Y-90859686D01*
X148144910Y-90804956D01*
X148336558Y-90715589D01*
X148509776Y-90594301D01*
X148659301Y-90444776D01*
X148780589Y-90271558D01*
X148869956Y-90079910D01*
X148924686Y-89875655D01*
X148943116Y-89665000D01*
X157516884Y-89665000D01*
X157535314Y-89875655D01*
X157564643Y-89985113D01*
X157590043Y-90079908D01*
X157590045Y-90079912D01*
X157679412Y-90271561D01*
X157800692Y-90444767D01*
X157800696Y-90444772D01*
X157800699Y-90444776D01*
X157950224Y-90594301D01*
X157950228Y-90594304D01*
X157950232Y-90594307D01*
X158123438Y-90715587D01*
X158123441Y-90715588D01*
X158123442Y-90715589D01*
X158315090Y-90804956D01*
X158519345Y-90859686D01*
X158730000Y-90878116D01*
X158940655Y-90859686D01*
X159144910Y-90804956D01*
X159336558Y-90715589D01*
X159509776Y-90594301D01*
X159659301Y-90444776D01*
X159780589Y-90271558D01*
X159869956Y-90079910D01*
X159924686Y-89875655D01*
X159943116Y-89665000D01*
X159924686Y-89454345D01*
X159869956Y-89250090D01*
X159780589Y-89058442D01*
X159780588Y-89058441D01*
X159780587Y-89058438D01*
X159659307Y-88885232D01*
X159659304Y-88885228D01*
X159659301Y-88885224D01*
X159509776Y-88735699D01*
X159509772Y-88735696D01*
X159509767Y-88735692D01*
X159336561Y-88614412D01*
X159144912Y-88525045D01*
X159144908Y-88525043D01*
X159050113Y-88499643D01*
X158940655Y-88470314D01*
X158730000Y-88451884D01*
X158519345Y-88470314D01*
X158464616Y-88484978D01*
X158315091Y-88525043D01*
X158315087Y-88525045D01*
X158123438Y-88614412D01*
X157950232Y-88735692D01*
X157950221Y-88735701D01*
X157800701Y-88885221D01*
X157800692Y-88885232D01*
X157679412Y-89058438D01*
X157590045Y-89250087D01*
X157590043Y-89250091D01*
X157549978Y-89399616D01*
X157535314Y-89454345D01*
X157516884Y-89665000D01*
X148943116Y-89665000D01*
X148924686Y-89454345D01*
X148869956Y-89250090D01*
X148780589Y-89058442D01*
X148780588Y-89058441D01*
X148780587Y-89058438D01*
X148659307Y-88885232D01*
X148659304Y-88885228D01*
X148659301Y-88885224D01*
X148509776Y-88735699D01*
X148509772Y-88735696D01*
X148509767Y-88735692D01*
X148336561Y-88614412D01*
X148144912Y-88525045D01*
X148144908Y-88525043D01*
X148050113Y-88499643D01*
X147940655Y-88470314D01*
X147730000Y-88451884D01*
X147519345Y-88470314D01*
X147464616Y-88484978D01*
X147315091Y-88525043D01*
X147315087Y-88525045D01*
X147123438Y-88614412D01*
X146950232Y-88735692D01*
X146950221Y-88735701D01*
X146800701Y-88885221D01*
X146800692Y-88885232D01*
X146679412Y-89058438D01*
X146590045Y-89250087D01*
X146590043Y-89250091D01*
X146549978Y-89399616D01*
X146535314Y-89454345D01*
X146516884Y-89665000D01*
X93878400Y-89665000D01*
X93878400Y-86432400D01*
X93898402Y-86364279D01*
X93952058Y-86317786D01*
X94004400Y-86306400D01*
X170765200Y-86306400D01*
X170833321Y-86326402D01*
G37*
%TD.AperFunction*%
%TD*%
M02*
