M48
; DRILL file {KiCad 8.0.4-8.0.4-0~ubuntu22.04.1} date 2024-08-14T23:02:01+0900
; FORMAT={-:-/ absolute / metric / decimal}
; #@! TF.CreationDate,2024-08-14T23:02:01+09:00
; #@! TF.GenerationSoftware,Kicad,Pcbnew,8.0.4-8.0.4-0~ubuntu22.04.1
; #@! TF.FileFunction,Plated,1,2,PTH
FMAT,2
METRIC
; #@! TA.AperFunction,Plated,PTH,ComponentDrill
T1C1.000
; #@! TA.AperFunction,Plated,PTH,ComponentDrill
T2C1.900
; #@! TA.AperFunction,Plated,PTH,ComponentDrill
T3C3.200
%
G90
G05
T1
X93.2Y-102.94
X104.2Y-102.94
X107.18Y-102.97
X118.18Y-102.97
X121.06Y-103.0
X132.06Y-103.0
X134.78Y-103.0
X145.78Y-103.0
X147.73Y-89.665
X158.73Y-89.665
T2
X96.2Y-92.94
X101.2Y-92.94
X110.18Y-92.97
X115.18Y-92.97
X124.06Y-93.0
X129.06Y-93.0
X137.78Y-93.0
X142.78Y-93.0
X150.73Y-99.665
X155.73Y-99.665
T3
X90.068Y-89.306
X175.068Y-89.306
T1
G00X160.887Y-96.275
M15
G01X160.887Y-98.275
M16
G05
G00X166.588Y-94.275
M15
G01X164.588Y-94.275
M16
G05
G00X166.588Y-100.275
M15
G01X164.588Y-100.275
M16
G05
M30
