%TF.GenerationSoftware,KiCad,Pcbnew,8.0.4-8.0.4-0~ubuntu22.04.1*%
%TF.CreationDate,2024-08-14T23:01:59+09:00*%
%TF.ProjectId,pdb,7064622e-6b69-4636-9164-5f7063625858,rev?*%
%TF.SameCoordinates,Original*%
%TF.FileFunction,Legend,Top*%
%TF.FilePolarity,Positive*%
%FSLAX46Y46*%
G04 Gerber Fmt 4.6, Leading zero omitted, Abs format (unit mm)*
G04 Created by KiCad (PCBNEW 8.0.4-8.0.4-0~ubuntu22.04.1) date 2024-08-14 23:01:59*
%MOMM*%
%LPD*%
G01*
G04 APERTURE LIST*
G04 Aperture macros list*
%AMRoundRect*
0 Rectangle with rounded corners*
0 $1 Rounding radius*
0 $2 $3 $4 $5 $6 $7 $8 $9 X,Y pos of 4 corners*
0 Add a 4 corners polygon primitive as box body*
4,1,4,$2,$3,$4,$5,$6,$7,$8,$9,$2,$3,0*
0 Add four circle primitives for the rounded corners*
1,1,$1+$1,$2,$3*
1,1,$1+$1,$4,$5*
1,1,$1+$1,$6,$7*
1,1,$1+$1,$8,$9*
0 Add four rect primitives between the rounded corners*
20,1,$1+$1,$2,$3,$4,$5,0*
20,1,$1+$1,$4,$5,$6,$7,0*
20,1,$1+$1,$6,$7,$8,$9,0*
20,1,$1+$1,$8,$9,$2,$3,0*%
G04 Aperture macros list end*
%ADD10C,0.150000*%
%ADD11C,0.120000*%
%ADD12C,1.400000*%
%ADD13R,3.500000X3.500000*%
%ADD14C,3.500000*%
%ADD15C,3.600000*%
%ADD16C,5.600000*%
%ADD17RoundRect,0.750000X-1.000000X0.750000X-1.000000X-0.750000X1.000000X-0.750000X1.000000X0.750000X0*%
%ADD18RoundRect,0.875000X-0.875000X0.875000X-0.875000X-0.875000X0.875000X-0.875000X0.875000X0.875000X0*%
G04 APERTURE END LIST*
D10*
X119866666Y-104784819D02*
X119866666Y-105499104D01*
X119866666Y-105499104D02*
X119819047Y-105641961D01*
X119819047Y-105641961D02*
X119723809Y-105737200D01*
X119723809Y-105737200D02*
X119580952Y-105784819D01*
X119580952Y-105784819D02*
X119485714Y-105784819D01*
X120247619Y-104784819D02*
X120866666Y-104784819D01*
X120866666Y-104784819D02*
X120533333Y-105165771D01*
X120533333Y-105165771D02*
X120676190Y-105165771D01*
X120676190Y-105165771D02*
X120771428Y-105213390D01*
X120771428Y-105213390D02*
X120819047Y-105261009D01*
X120819047Y-105261009D02*
X120866666Y-105356247D01*
X120866666Y-105356247D02*
X120866666Y-105594342D01*
X120866666Y-105594342D02*
X120819047Y-105689580D01*
X120819047Y-105689580D02*
X120771428Y-105737200D01*
X120771428Y-105737200D02*
X120676190Y-105784819D01*
X120676190Y-105784819D02*
X120390476Y-105784819D01*
X120390476Y-105784819D02*
X120295238Y-105737200D01*
X120295238Y-105737200D02*
X120247619Y-105689580D01*
X120488571Y-93114700D02*
X121631429Y-93114700D01*
X131488571Y-93114700D02*
X132631429Y-93114700D01*
X132060000Y-93686128D02*
X132060000Y-92543271D01*
X105866666Y-104814819D02*
X105866666Y-105529104D01*
X105866666Y-105529104D02*
X105819047Y-105671961D01*
X105819047Y-105671961D02*
X105723809Y-105767200D01*
X105723809Y-105767200D02*
X105580952Y-105814819D01*
X105580952Y-105814819D02*
X105485714Y-105814819D01*
X106771428Y-105148152D02*
X106771428Y-105814819D01*
X106533333Y-104767200D02*
X106295238Y-105481485D01*
X106295238Y-105481485D02*
X106914285Y-105481485D01*
X106608571Y-93084700D02*
X107751429Y-93084700D01*
X117608571Y-93084700D02*
X118751429Y-93084700D01*
X118180000Y-93656128D02*
X118180000Y-92513271D01*
X159196666Y-86904819D02*
X159196666Y-87619104D01*
X159196666Y-87619104D02*
X159149047Y-87761961D01*
X159149047Y-87761961D02*
X159053809Y-87857200D01*
X159053809Y-87857200D02*
X158910952Y-87904819D01*
X158910952Y-87904819D02*
X158815714Y-87904819D01*
X160101428Y-86904819D02*
X159910952Y-86904819D01*
X159910952Y-86904819D02*
X159815714Y-86952438D01*
X159815714Y-86952438D02*
X159768095Y-87000057D01*
X159768095Y-87000057D02*
X159672857Y-87142914D01*
X159672857Y-87142914D02*
X159625238Y-87333390D01*
X159625238Y-87333390D02*
X159625238Y-87714342D01*
X159625238Y-87714342D02*
X159672857Y-87809580D01*
X159672857Y-87809580D02*
X159720476Y-87857200D01*
X159720476Y-87857200D02*
X159815714Y-87904819D01*
X159815714Y-87904819D02*
X160006190Y-87904819D01*
X160006190Y-87904819D02*
X160101428Y-87857200D01*
X160101428Y-87857200D02*
X160149047Y-87809580D01*
X160149047Y-87809580D02*
X160196666Y-87714342D01*
X160196666Y-87714342D02*
X160196666Y-87476247D01*
X160196666Y-87476247D02*
X160149047Y-87381009D01*
X160149047Y-87381009D02*
X160101428Y-87333390D01*
X160101428Y-87333390D02*
X160006190Y-87285771D01*
X160006190Y-87285771D02*
X159815714Y-87285771D01*
X159815714Y-87285771D02*
X159720476Y-87333390D01*
X159720476Y-87333390D02*
X159672857Y-87381009D01*
X159672857Y-87381009D02*
X159625238Y-87476247D01*
X146456666Y-86884819D02*
X146456666Y-87599104D01*
X146456666Y-87599104D02*
X146409047Y-87741961D01*
X146409047Y-87741961D02*
X146313809Y-87837200D01*
X146313809Y-87837200D02*
X146170952Y-87884819D01*
X146170952Y-87884819D02*
X146075714Y-87884819D01*
X147456666Y-87884819D02*
X146885238Y-87884819D01*
X147170952Y-87884819D02*
X147170952Y-86884819D01*
X147170952Y-86884819D02*
X147075714Y-87027676D01*
X147075714Y-87027676D02*
X146980476Y-87122914D01*
X146980476Y-87122914D02*
X146885238Y-87170533D01*
X147158571Y-99779700D02*
X148301429Y-99779700D01*
X147730000Y-100351128D02*
X147730000Y-99208271D01*
X158158571Y-99779700D02*
X159301429Y-99779700D01*
X133616666Y-104784819D02*
X133616666Y-105499104D01*
X133616666Y-105499104D02*
X133569047Y-105641961D01*
X133569047Y-105641961D02*
X133473809Y-105737200D01*
X133473809Y-105737200D02*
X133330952Y-105784819D01*
X133330952Y-105784819D02*
X133235714Y-105784819D01*
X134045238Y-104880057D02*
X134092857Y-104832438D01*
X134092857Y-104832438D02*
X134188095Y-104784819D01*
X134188095Y-104784819D02*
X134426190Y-104784819D01*
X134426190Y-104784819D02*
X134521428Y-104832438D01*
X134521428Y-104832438D02*
X134569047Y-104880057D01*
X134569047Y-104880057D02*
X134616666Y-104975295D01*
X134616666Y-104975295D02*
X134616666Y-105070533D01*
X134616666Y-105070533D02*
X134569047Y-105213390D01*
X134569047Y-105213390D02*
X133997619Y-105784819D01*
X133997619Y-105784819D02*
X134616666Y-105784819D01*
X134208571Y-93114700D02*
X135351429Y-93114700D01*
X145208571Y-93114700D02*
X146351429Y-93114700D01*
X145780000Y-93686128D02*
X145780000Y-92543271D01*
X91646666Y-104814819D02*
X91646666Y-105529104D01*
X91646666Y-105529104D02*
X91599047Y-105671961D01*
X91599047Y-105671961D02*
X91503809Y-105767200D01*
X91503809Y-105767200D02*
X91360952Y-105814819D01*
X91360952Y-105814819D02*
X91265714Y-105814819D01*
X92599047Y-104814819D02*
X92122857Y-104814819D01*
X92122857Y-104814819D02*
X92075238Y-105291009D01*
X92075238Y-105291009D02*
X92122857Y-105243390D01*
X92122857Y-105243390D02*
X92218095Y-105195771D01*
X92218095Y-105195771D02*
X92456190Y-105195771D01*
X92456190Y-105195771D02*
X92551428Y-105243390D01*
X92551428Y-105243390D02*
X92599047Y-105291009D01*
X92599047Y-105291009D02*
X92646666Y-105386247D01*
X92646666Y-105386247D02*
X92646666Y-105624342D01*
X92646666Y-105624342D02*
X92599047Y-105719580D01*
X92599047Y-105719580D02*
X92551428Y-105767200D01*
X92551428Y-105767200D02*
X92456190Y-105814819D01*
X92456190Y-105814819D02*
X92218095Y-105814819D01*
X92218095Y-105814819D02*
X92122857Y-105767200D01*
X92122857Y-105767200D02*
X92075238Y-105719580D01*
X103628571Y-93054700D02*
X104771429Y-93054700D01*
X104200000Y-93626128D02*
X104200000Y-92483271D01*
X92628571Y-93054700D02*
X93771429Y-93054700D01*
D11*
%TO.C,J3*%
X121500000Y-101890000D02*
X120910000Y-101890000D01*
X121500000Y-101890000D02*
X121500000Y-96990000D01*
X121500000Y-104110000D02*
X120910000Y-104110000D01*
X121500000Y-106210000D02*
X121500000Y-104110000D01*
X131620000Y-96990000D02*
X121500000Y-96990000D01*
X131620000Y-101890000D02*
X131620000Y-96990000D01*
X131620000Y-106210000D02*
X121500000Y-106210000D01*
X131620000Y-106210000D02*
X131620000Y-104110000D01*
X132210000Y-101890000D02*
X131620000Y-101890000D01*
X132210000Y-104110000D02*
X131620000Y-104110000D01*
X120910000Y-104110000D02*
G75*
G02*
X120910000Y-101890000I0J1110000D01*
G01*
X132210000Y-101890000D02*
G75*
G02*
X132210000Y-104110000I0J-1110000D01*
G01*
%TO.C,J4*%
X107620000Y-101860000D02*
X107030000Y-101860000D01*
X107620000Y-101860000D02*
X107620000Y-96960000D01*
X107620000Y-104080000D02*
X107030000Y-104080000D01*
X107620000Y-106180000D02*
X107620000Y-104080000D01*
X117740000Y-96960000D02*
X107620000Y-96960000D01*
X117740000Y-101860000D02*
X117740000Y-96960000D01*
X117740000Y-106180000D02*
X107620000Y-106180000D01*
X117740000Y-106180000D02*
X117740000Y-104080000D01*
X118330000Y-101860000D02*
X117740000Y-101860000D01*
X118330000Y-104080000D02*
X117740000Y-104080000D01*
X107030000Y-104080000D02*
G75*
G02*
X107030000Y-101860000I0J1110000D01*
G01*
X118330000Y-101860000D02*
G75*
G02*
X118330000Y-104080000I0J-1110000D01*
G01*
%TO.C,J6*%
X160987500Y-86475000D02*
X170187500Y-86475000D01*
X160987500Y-95275000D02*
X160987500Y-86475000D01*
X160987500Y-101175000D02*
X160987500Y-99275000D01*
X163687500Y-101175000D02*
X160987500Y-101175000D01*
X169337500Y-101375000D02*
X170387500Y-101375000D01*
X170187500Y-86475000D02*
X170187500Y-101175000D01*
X170187500Y-101175000D02*
X167587500Y-101175000D01*
X170387500Y-100325000D02*
X170387500Y-101375000D01*
%TO.C,J1*%
X147580000Y-88555000D02*
X148170000Y-88555000D01*
X147580000Y-90775000D02*
X148170000Y-90775000D01*
X148170000Y-86455000D02*
X148170000Y-88555000D01*
X148170000Y-86455000D02*
X158290000Y-86455000D01*
X148170000Y-90775000D02*
X148170000Y-95675000D01*
X148170000Y-95675000D02*
X158290000Y-95675000D01*
X158290000Y-86455000D02*
X158290000Y-88555000D01*
X158290000Y-88555000D02*
X158880000Y-88555000D01*
X158290000Y-90775000D02*
X158290000Y-95675000D01*
X158290000Y-90775000D02*
X158880000Y-90775000D01*
X147580000Y-90775000D02*
G75*
G02*
X147580000Y-88555000I0J1110000D01*
G01*
X158880000Y-88555000D02*
G75*
G02*
X158880000Y-90775000I0J-1110000D01*
G01*
%TO.C,J2*%
X135220000Y-101890000D02*
X134630000Y-101890000D01*
X135220000Y-101890000D02*
X135220000Y-96990000D01*
X135220000Y-104110000D02*
X134630000Y-104110000D01*
X135220000Y-106210000D02*
X135220000Y-104110000D01*
X145340000Y-96990000D02*
X135220000Y-96990000D01*
X145340000Y-101890000D02*
X145340000Y-96990000D01*
X145340000Y-106210000D02*
X135220000Y-106210000D01*
X145340000Y-106210000D02*
X145340000Y-104110000D01*
X145930000Y-101890000D02*
X145340000Y-101890000D01*
X145930000Y-104110000D02*
X145340000Y-104110000D01*
X134630000Y-104110000D02*
G75*
G02*
X134630000Y-101890000I0J1110000D01*
G01*
X145930000Y-101890000D02*
G75*
G02*
X145930000Y-104110000I0J-1110000D01*
G01*
%TO.C,J5*%
X93640000Y-101830000D02*
X93050000Y-101830000D01*
X93640000Y-101830000D02*
X93640000Y-96930000D01*
X93640000Y-104050000D02*
X93050000Y-104050000D01*
X93640000Y-106150000D02*
X93640000Y-104050000D01*
X103760000Y-96930000D02*
X93640000Y-96930000D01*
X103760000Y-101830000D02*
X103760000Y-96930000D01*
X103760000Y-106150000D02*
X93640000Y-106150000D01*
X103760000Y-106150000D02*
X103760000Y-104050000D01*
X104350000Y-101830000D02*
X103760000Y-101830000D01*
X104350000Y-104050000D02*
X103760000Y-104050000D01*
X93050000Y-104050000D02*
G75*
G02*
X93050000Y-101830000I0J1110000D01*
G01*
X104350000Y-101830000D02*
G75*
G02*
X104350000Y-104050000I0J-1110000D01*
G01*
%TD*%
%LPC*%
D12*
%TO.C,J3*%
X132060000Y-103000000D03*
X121060000Y-103000000D03*
D13*
X124060000Y-93000000D03*
D14*
X129060000Y-93000000D03*
%TD*%
D15*
%TO.C,H2*%
X175068400Y-89306400D03*
D16*
X175068400Y-89306400D03*
%TD*%
D15*
%TO.C,H1*%
X90068400Y-89306400D03*
D16*
X90068400Y-89306400D03*
%TD*%
D12*
%TO.C,J4*%
X118180000Y-102970000D03*
X107180000Y-102970000D03*
D13*
X110180000Y-92970000D03*
D14*
X115180000Y-92970000D03*
%TD*%
D13*
%TO.C,J6*%
X165587500Y-100275000D03*
D17*
X165587500Y-94275000D03*
D18*
X160887500Y-97275000D03*
%TD*%
D12*
%TO.C,J1*%
X147730000Y-89665000D03*
X158730000Y-89665000D03*
D13*
X155730000Y-99665000D03*
D14*
X150730000Y-99665000D03*
%TD*%
D12*
%TO.C,J2*%
X145780000Y-103000000D03*
X134780000Y-103000000D03*
D13*
X137780000Y-93000000D03*
D14*
X142780000Y-93000000D03*
%TD*%
D12*
%TO.C,J5*%
X104200000Y-102940000D03*
X93200000Y-102940000D03*
D13*
X96200000Y-92940000D03*
D14*
X101200000Y-92940000D03*
%TD*%
%LPD*%
M02*
