%TF.GenerationSoftware,KiCad,Pcbnew,8.0.4-8.0.4-0~ubuntu22.04.1*%
%TF.CreationDate,2024-08-14T22:53:29+09:00*%
%TF.ProjectId,main,6d61696e-2e6b-4696-9361-645f70636258,rev?*%
%TF.SameCoordinates,Original*%
%TF.FileFunction,Soldermask,Top*%
%TF.FilePolarity,Negative*%
%FSLAX46Y46*%
G04 Gerber Fmt 4.6, Leading zero omitted, Abs format (unit mm)*
G04 Created by KiCad (PCBNEW 8.0.4-8.0.4-0~ubuntu22.04.1) date 2024-08-14 22:53:29*
%MOMM*%
%LPD*%
G01*
G04 APERTURE LIST*
G04 Aperture macros list*
%AMRoundRect*
0 Rectangle with rounded corners*
0 $1 Rounding radius*
0 $2 $3 $4 $5 $6 $7 $8 $9 X,Y pos of 4 corners*
0 Add a 4 corners polygon primitive as box body*
4,1,4,$2,$3,$4,$5,$6,$7,$8,$9,$2,$3,0*
0 Add four circle primitives for the rounded corners*
1,1,$1+$1,$2,$3*
1,1,$1+$1,$4,$5*
1,1,$1+$1,$6,$7*
1,1,$1+$1,$8,$9*
0 Add four rect primitives between the rounded corners*
20,1,$1+$1,$2,$3,$4,$5,0*
20,1,$1+$1,$4,$5,$6,$7,0*
20,1,$1+$1,$6,$7,$8,$9,0*
20,1,$1+$1,$8,$9,$2,$3,0*%
G04 Aperture macros list end*
%ADD10RoundRect,0.218750X0.218750X0.256250X-0.218750X0.256250X-0.218750X-0.256250X0.218750X-0.256250X0*%
%ADD11RoundRect,0.237500X-0.300000X-0.237500X0.300000X-0.237500X0.300000X0.237500X-0.300000X0.237500X0*%
%ADD12RoundRect,0.250000X-0.450000X0.262500X-0.450000X-0.262500X0.450000X-0.262500X0.450000X0.262500X0*%
%ADD13RoundRect,0.237500X0.237500X-0.250000X0.237500X0.250000X-0.237500X0.250000X-0.237500X-0.250000X0*%
%ADD14R,1.600000X1.050000*%
%ADD15C,0.375000*%
%ADD16C,5.200000*%
%ADD17R,1.700000X1.700000*%
%ADD18O,1.700000X1.700000*%
%ADD19R,0.700000X1.200000*%
%ADD20R,1.000000X0.800000*%
%ADD21R,1.000000X1.200000*%
%ADD22R,1.000000X2.800000*%
%ADD23R,1.300000X1.900000*%
%ADD24RoundRect,0.237500X-0.237500X0.250000X-0.237500X-0.250000X0.237500X-0.250000X0.237500X0.250000X0*%
%ADD25C,3.800000*%
%ADD26RoundRect,0.237500X-0.250000X-0.237500X0.250000X-0.237500X0.250000X0.237500X-0.250000X0.237500X0*%
%ADD27RoundRect,0.237500X0.250000X0.237500X-0.250000X0.237500X-0.250000X-0.237500X0.250000X-0.237500X0*%
%ADD28RoundRect,0.200000X-1.250000X0.200000X-1.250000X-0.200000X1.250000X-0.200000X1.250000X0.200000X0*%
%ADD29RoundRect,0.250000X-1.650000X0.650000X-1.650000X-0.650000X1.650000X-0.650000X1.650000X0.650000X0*%
%ADD30RoundRect,0.218750X0.256250X-0.218750X0.256250X0.218750X-0.256250X0.218750X-0.256250X-0.218750X0*%
%ADD31R,2.400000X1.450000*%
%ADD32RoundRect,0.250000X-0.337500X-0.475000X0.337500X-0.475000X0.337500X0.475000X-0.337500X0.475000X0*%
%ADD33RoundRect,0.155000X0.155000X-0.212500X0.155000X0.212500X-0.155000X0.212500X-0.155000X-0.212500X0*%
%ADD34RoundRect,0.237500X-0.237500X0.300000X-0.237500X-0.300000X0.237500X-0.300000X0.237500X0.300000X0*%
%ADD35C,1.070000*%
%ADD36RoundRect,0.075000X-0.700000X-0.075000X0.700000X-0.075000X0.700000X0.075000X-0.700000X0.075000X0*%
%ADD37RoundRect,0.075000X-0.075000X-0.700000X0.075000X-0.700000X0.075000X0.700000X-0.075000X0.700000X0*%
%ADD38R,2.900000X0.800000*%
%ADD39R,3.800000X1.800000*%
%ADD40RoundRect,0.200000X0.275000X-0.200000X0.275000X0.200000X-0.275000X0.200000X-0.275000X-0.200000X0*%
%ADD41RoundRect,0.200000X0.200000X1.250000X-0.200000X1.250000X-0.200000X-1.250000X0.200000X-1.250000X0*%
%ADD42RoundRect,0.250000X0.650000X1.650000X-0.650000X1.650000X-0.650000X-1.650000X0.650000X-1.650000X0*%
%ADD43C,1.400000*%
%ADD44R,3.500000X3.500000*%
%ADD45C,3.500000*%
%ADD46RoundRect,0.250000X1.950000X1.000000X-1.950000X1.000000X-1.950000X-1.000000X1.950000X-1.000000X0*%
%ADD47RoundRect,0.375000X-0.375000X0.625000X-0.375000X-0.625000X0.375000X-0.625000X0.375000X0.625000X0*%
%ADD48RoundRect,0.500000X-1.400000X0.500000X-1.400000X-0.500000X1.400000X-0.500000X1.400000X0.500000X0*%
%ADD49RoundRect,0.175000X-0.175000X0.200000X-0.175000X-0.200000X0.175000X-0.200000X0.175000X0.200000X0*%
%ADD50RoundRect,0.155000X-0.155000X0.212500X-0.155000X-0.212500X0.155000X-0.212500X0.155000X0.212500X0*%
%ADD51RoundRect,0.250000X-0.475000X0.337500X-0.475000X-0.337500X0.475000X-0.337500X0.475000X0.337500X0*%
%ADD52RoundRect,0.150000X-0.150000X0.587500X-0.150000X-0.587500X0.150000X-0.587500X0.150000X0.587500X0*%
%ADD53RoundRect,0.237500X0.300000X0.237500X-0.300000X0.237500X-0.300000X-0.237500X0.300000X-0.237500X0*%
%ADD54RoundRect,0.250000X1.500000X-0.250000X1.500000X0.250000X-1.500000X0.250000X-1.500000X-0.250000X0*%
%ADD55RoundRect,0.250001X1.449999X-0.499999X1.449999X0.499999X-1.449999X0.499999X-1.449999X-0.499999X0*%
%ADD56RoundRect,0.250000X0.475000X-0.337500X0.475000X0.337500X-0.475000X0.337500X-0.475000X-0.337500X0*%
%ADD57RoundRect,0.150000X-0.825000X-0.150000X0.825000X-0.150000X0.825000X0.150000X-0.825000X0.150000X0*%
%ADD58R,0.700000X1.100000*%
%ADD59R,0.800000X1.100000*%
G04 APERTURE END LIST*
D10*
%TO.C,D7*%
X162719000Y-99016400D03*
X161144000Y-99016400D03*
%TD*%
D11*
%TO.C,C12*%
X137161100Y-82448400D03*
X138886100Y-82448400D03*
%TD*%
D12*
%TO.C,R1*%
X157017900Y-109716300D03*
X157017900Y-111541300D03*
%TD*%
D13*
%TO.C,R10*%
X159736000Y-69874200D03*
X159736000Y-68049200D03*
%TD*%
D14*
%TO.C,SW2*%
X110210000Y-136930000D03*
X110210000Y-141380000D03*
D15*
X111110000Y-139155000D03*
X109310000Y-139155000D03*
%TD*%
D16*
%TO.C,H3*%
X94550000Y-140100000D03*
X94550000Y-140100000D03*
%TD*%
D17*
%TO.C,J12*%
X180086000Y-83355200D03*
D18*
X180086000Y-80815200D03*
X180086000Y-78275200D03*
X180086000Y-75735200D03*
%TD*%
D19*
%TO.C,J9*%
X159640000Y-64550000D03*
X160740000Y-64550000D03*
X161840000Y-64550000D03*
X162940000Y-64550000D03*
X164040000Y-64550000D03*
X165140000Y-64550000D03*
X166240000Y-64550000D03*
X167340000Y-64550000D03*
X168290000Y-64550000D03*
D20*
X169240000Y-54050000D03*
D21*
X169240000Y-60250000D03*
D22*
X169240000Y-49900000D03*
D21*
X158090000Y-64550000D03*
D23*
X155740000Y-49450000D03*
%TD*%
D24*
%TO.C,R5*%
X154000000Y-138630200D03*
X154000000Y-140455200D03*
%TD*%
D25*
%TO.C,H6*%
X138090000Y-103360000D03*
%TD*%
D26*
%TO.C,R24*%
X178037500Y-72975000D03*
X179862500Y-72975000D03*
%TD*%
D25*
%TO.C,H8*%
X119490000Y-130060000D03*
%TD*%
D27*
%TO.C,R16*%
X133425000Y-87700000D03*
X131600000Y-87700000D03*
%TD*%
D11*
%TO.C,C6*%
X148437500Y-99175600D03*
X150162500Y-99175600D03*
%TD*%
D28*
%TO.C,J5*%
X100231400Y-59343600D03*
X100231400Y-60843600D03*
X100231400Y-62343600D03*
X100231400Y-63843600D03*
X100231400Y-65343600D03*
X100231400Y-66843600D03*
D29*
X95531400Y-56743600D03*
X95531400Y-69443600D03*
%TD*%
D30*
%TO.C,D3*%
X140157600Y-140401900D03*
X140157600Y-138826900D03*
%TD*%
D24*
%TO.C,R18*%
X164770000Y-94317500D03*
X164770000Y-96142500D03*
%TD*%
D25*
%TO.C,H5*%
X119490000Y-103360000D03*
%TD*%
D27*
%TO.C,R20*%
X95142500Y-103721400D03*
X93317500Y-103721400D03*
%TD*%
D31*
%TO.C,SP1*%
X94190000Y-114080000D03*
X94190000Y-110430000D03*
%TD*%
D32*
%TO.C,C4*%
X148217500Y-106095000D03*
X150292500Y-106095000D03*
%TD*%
D11*
%TO.C,C7*%
X151283500Y-85953600D03*
X153008500Y-85953600D03*
%TD*%
D16*
%TO.C,H2*%
X179525000Y-51275000D03*
X179525000Y-51275000D03*
%TD*%
%TO.C,H4*%
X179541600Y-140093000D03*
X179541600Y-140093000D03*
%TD*%
D24*
%TO.C,R15*%
X146125000Y-135400000D03*
X146125000Y-137225000D03*
%TD*%
D33*
%TO.C,C16*%
X129305000Y-90293600D03*
X129305000Y-89158600D03*
%TD*%
D34*
%TO.C,C14*%
X101828000Y-133161700D03*
X101828000Y-134886700D03*
%TD*%
D28*
%TO.C,J7*%
X100079000Y-121167200D03*
X100079000Y-122667200D03*
X100079000Y-124167200D03*
X100079000Y-125667200D03*
X100079000Y-127167200D03*
X100079000Y-128667200D03*
D29*
X95379000Y-118567200D03*
X95379000Y-131267200D03*
%TD*%
D35*
%TO.C,J11*%
X178705000Y-62730000D03*
X179975000Y-62730000D03*
X178705000Y-64000000D03*
X179975000Y-64000000D03*
X178705000Y-65270000D03*
X179975000Y-65270000D03*
X178705000Y-66540000D03*
X179975000Y-66540000D03*
X178705000Y-67810000D03*
X179975000Y-67810000D03*
%TD*%
D36*
%TO.C,U3*%
X137835000Y-86318400D03*
X137835000Y-86818400D03*
X137835000Y-87318400D03*
X137835000Y-87818400D03*
X137835000Y-88318400D03*
X137835000Y-88818400D03*
X137835000Y-89318400D03*
X137835000Y-89818400D03*
X137835000Y-90318400D03*
X137835000Y-90818400D03*
X137835000Y-91318400D03*
X137835000Y-91818400D03*
X137835000Y-92318400D03*
X137835000Y-92818400D03*
X137835000Y-93318400D03*
X137835000Y-93818400D03*
D37*
X139760000Y-95743400D03*
X140260000Y-95743400D03*
X140760000Y-95743400D03*
X141260000Y-95743400D03*
X141760000Y-95743400D03*
X142260000Y-95743400D03*
X142760000Y-95743400D03*
X143260000Y-95743400D03*
X143760000Y-95743400D03*
X144260000Y-95743400D03*
X144760000Y-95743400D03*
X145260000Y-95743400D03*
X145760000Y-95743400D03*
X146260000Y-95743400D03*
X146760000Y-95743400D03*
X147260000Y-95743400D03*
D36*
X149185000Y-93818400D03*
X149185000Y-93318400D03*
X149185000Y-92818400D03*
X149185000Y-92318400D03*
X149185000Y-91818400D03*
X149185000Y-91318400D03*
X149185000Y-90818400D03*
X149185000Y-90318400D03*
X149185000Y-89818400D03*
X149185000Y-89318400D03*
X149185000Y-88818400D03*
X149185000Y-88318400D03*
X149185000Y-87818400D03*
X149185000Y-87318400D03*
X149185000Y-86818400D03*
X149185000Y-86318400D03*
D37*
X147260000Y-84393400D03*
X146760000Y-84393400D03*
X146260000Y-84393400D03*
X145760000Y-84393400D03*
X145260000Y-84393400D03*
X144760000Y-84393400D03*
X144260000Y-84393400D03*
X143760000Y-84393400D03*
X143260000Y-84393400D03*
X142760000Y-84393400D03*
X142260000Y-84393400D03*
X141760000Y-84393400D03*
X141260000Y-84393400D03*
X140760000Y-84393400D03*
X140260000Y-84393400D03*
X139760000Y-84393400D03*
%TD*%
D24*
%TO.C,R13*%
X143050000Y-135387500D03*
X143050000Y-137212500D03*
%TD*%
%TO.C,R4*%
X156625000Y-138617700D03*
X156625000Y-140442700D03*
%TD*%
D38*
%TO.C,J8*%
X172050000Y-97510000D03*
X172050000Y-96010000D03*
X172050000Y-94510000D03*
X172050000Y-93010000D03*
D39*
X176750000Y-100110000D03*
X176750000Y-90410000D03*
%TD*%
D25*
%TO.C,H7*%
X138090000Y-130060000D03*
%TD*%
D14*
%TO.C,SW1*%
X103555200Y-137007300D03*
X103555200Y-141457300D03*
D15*
X104455200Y-139232300D03*
X102655200Y-139232300D03*
%TD*%
D40*
%TO.C,R3*%
X156150000Y-127065000D03*
X156150000Y-125415000D03*
%TD*%
D34*
%TO.C,C9*%
X140740000Y-98390000D03*
X140740000Y-100115000D03*
%TD*%
D41*
%TO.C,J4*%
X116119600Y-56797400D03*
X114619600Y-56797400D03*
X113119600Y-56797400D03*
X111619600Y-56797400D03*
X110119600Y-56797400D03*
X108619600Y-56797400D03*
D42*
X118719600Y-52097400D03*
X106019600Y-52097400D03*
%TD*%
D30*
%TO.C,D4*%
X143108400Y-140367000D03*
X143108400Y-138792000D03*
%TD*%
%TO.C,D1*%
X156625000Y-137017700D03*
X156625000Y-135442700D03*
%TD*%
D41*
%TO.C,J3*%
X132172400Y-56848200D03*
X130672400Y-56848200D03*
X129172400Y-56848200D03*
X127672400Y-56848200D03*
X126172400Y-56848200D03*
X124672400Y-56848200D03*
D42*
X134772400Y-52148200D03*
X122072400Y-52148200D03*
%TD*%
D11*
%TO.C,C10*%
X148437500Y-97550000D03*
X150162500Y-97550000D03*
%TD*%
D43*
%TO.C,J1*%
X172922500Y-139147500D03*
X161922500Y-139147500D03*
D44*
X164922500Y-129147500D03*
D45*
X169922500Y-129147500D03*
%TD*%
D16*
%TO.C,H1*%
X94550000Y-51300000D03*
X94550000Y-51300000D03*
%TD*%
D24*
%TO.C,R14*%
X104723600Y-133113600D03*
X104723600Y-134938600D03*
%TD*%
D46*
%TO.C,C1*%
X170560000Y-121270000D03*
X163160000Y-121270000D03*
%TD*%
D47*
%TO.C,U2*%
X152692500Y-108470000D03*
X150392500Y-108470000D03*
X148092500Y-108470000D03*
D48*
X150392500Y-114770000D03*
%TD*%
D30*
%TO.C,D5*%
X146125000Y-140379000D03*
X146125000Y-138804000D03*
%TD*%
D49*
%TO.C,Y1*%
X131575000Y-89138100D03*
X130575000Y-89138100D03*
X131575000Y-90488100D03*
X130575000Y-90488100D03*
%TD*%
D28*
%TO.C,J6*%
X100180600Y-75294800D03*
X100180600Y-76794800D03*
X100180600Y-78294800D03*
X100180600Y-79794800D03*
X100180600Y-81294800D03*
X100180600Y-82794800D03*
D29*
X95480600Y-72694800D03*
X95480600Y-85394800D03*
%TD*%
D10*
%TO.C,D8*%
X162719000Y-102016400D03*
X161144000Y-102016400D03*
%TD*%
D50*
%TO.C,C15*%
X132759400Y-89158600D03*
X132759400Y-90293600D03*
%TD*%
D51*
%TO.C,C5*%
X165907900Y-108880100D03*
X165907900Y-110955100D03*
%TD*%
D52*
%TO.C,Q1*%
X95180000Y-106282500D03*
X93280000Y-106282500D03*
X94230000Y-108157500D03*
%TD*%
D26*
%TO.C,R22*%
X157548900Y-99027800D03*
X159373900Y-99027800D03*
%TD*%
D53*
%TO.C,C13*%
X134942500Y-92040000D03*
X133217500Y-92040000D03*
%TD*%
D13*
%TO.C,R11*%
X158161200Y-69874200D03*
X158161200Y-68049200D03*
%TD*%
%TO.C,R25*%
X173425000Y-62700000D03*
X173425000Y-60875000D03*
%TD*%
D26*
%TO.C,R23*%
X157500000Y-102025000D03*
X159325000Y-102025000D03*
%TD*%
D54*
%TO.C,J10*%
X116100000Y-124125000D03*
X116100000Y-122125000D03*
X116100000Y-120125000D03*
X116100000Y-118125000D03*
X116100000Y-116125000D03*
X116100000Y-114125000D03*
X116100000Y-112125000D03*
X116100000Y-110125000D03*
D55*
X121850000Y-126475000D03*
X121850000Y-107775000D03*
%TD*%
D40*
%TO.C,R2*%
X156160000Y-130190000D03*
X156160000Y-128540000D03*
%TD*%
D13*
%TO.C,R7*%
X168016400Y-69819600D03*
X168016400Y-67994600D03*
%TD*%
D24*
%TO.C,R17*%
X149250000Y-135387500D03*
X149250000Y-137212500D03*
%TD*%
D13*
%TO.C,R9*%
X161310800Y-69876100D03*
X161310800Y-68051100D03*
%TD*%
%TO.C,R26*%
X174975000Y-62687500D03*
X174975000Y-60862500D03*
%TD*%
D56*
%TO.C,C2*%
X165907900Y-114460300D03*
X165907900Y-112385300D03*
%TD*%
D57*
%TO.C,U4*%
X157595800Y-93446600D03*
X157595800Y-94716600D03*
X157595800Y-95986600D03*
X157595800Y-97256600D03*
X162545800Y-97256600D03*
X162545800Y-95986600D03*
X162545800Y-94716600D03*
X162545800Y-93446600D03*
%TD*%
D30*
%TO.C,D2*%
X154000000Y-137012300D03*
X154000000Y-135437300D03*
%TD*%
D56*
%TO.C,C3*%
X155110000Y-108447500D03*
X155110000Y-106372500D03*
%TD*%
D24*
%TO.C,R12*%
X140150000Y-135387500D03*
X140150000Y-137212500D03*
%TD*%
D41*
%TO.C,J2*%
X148178000Y-56808200D03*
X146678000Y-56808200D03*
X145178000Y-56808200D03*
X143678000Y-56808200D03*
X142178000Y-56808200D03*
X140678000Y-56808200D03*
D42*
X150778000Y-52108200D03*
X138078000Y-52108200D03*
%TD*%
D13*
%TO.C,R8*%
X166390800Y-69821500D03*
X166390800Y-67996500D03*
%TD*%
D26*
%TO.C,R19*%
X93295000Y-102151400D03*
X95120000Y-102151400D03*
%TD*%
D24*
%TO.C,R21*%
X111530800Y-133136000D03*
X111530800Y-134961000D03*
%TD*%
D40*
%TO.C,R6*%
X141050000Y-79675000D03*
X141050000Y-78025000D03*
%TD*%
D53*
%TO.C,C8*%
X137209700Y-84734400D03*
X135484700Y-84734400D03*
%TD*%
D30*
%TO.C,D6*%
X149250000Y-140315700D03*
X149250000Y-138740700D03*
%TD*%
D34*
%TO.C,C17*%
X108584400Y-133186000D03*
X108584400Y-134911000D03*
%TD*%
D58*
%TO.C,U1*%
X159339900Y-113243200D03*
X160439900Y-113243200D03*
D59*
X161589900Y-113243200D03*
D58*
X162739900Y-113243200D03*
X163839900Y-113243200D03*
X163839900Y-111543200D03*
X163839900Y-109843200D03*
X162739900Y-109843200D03*
D59*
X161589900Y-109843200D03*
D58*
X160439900Y-109843200D03*
X159339900Y-109843200D03*
X159339900Y-111543200D03*
D59*
X161589900Y-111543200D03*
D58*
X162739900Y-111543200D03*
%TD*%
D11*
%TO.C,C11*%
X151283500Y-84328000D03*
X153008500Y-84328000D03*
%TD*%
M02*
