%TF.GenerationSoftware,KiCad,Pcbnew,8.0.4-8.0.4-0~ubuntu22.04.1*%
%TF.CreationDate,2024-08-14T22:53:29+09:00*%
%TF.ProjectId,main,6d61696e-2e6b-4696-9361-645f70636258,rev?*%
%TF.SameCoordinates,Original*%
%TF.FileFunction,Soldermask,Bot*%
%TF.FilePolarity,Negative*%
%FSLAX46Y46*%
G04 Gerber Fmt 4.6, Leading zero omitted, Abs format (unit mm)*
G04 Created by KiCad (PCBNEW 8.0.4-8.0.4-0~ubuntu22.04.1) date 2024-08-14 22:53:29*
%MOMM*%
%LPD*%
G01*
G04 APERTURE LIST*
%ADD10C,0.375000*%
%ADD11C,5.200000*%
%ADD12R,1.700000X1.700000*%
%ADD13O,1.700000X1.700000*%
%ADD14C,3.800000*%
%ADD15C,1.070000*%
%ADD16C,1.400000*%
%ADD17R,3.500000X3.500000*%
%ADD18C,3.500000*%
%ADD19R,0.700000X1.100000*%
%ADD20R,0.800000X1.100000*%
G04 APERTURE END LIST*
D10*
%TO.C,SW2*%
X111110000Y-139155000D03*
X109310000Y-139155000D03*
%TD*%
D11*
%TO.C,H3*%
X94550000Y-140100000D03*
X94550000Y-140100000D03*
%TD*%
D12*
%TO.C,J12*%
X180086000Y-83355200D03*
D13*
X180086000Y-80815200D03*
X180086000Y-78275200D03*
X180086000Y-75735200D03*
%TD*%
D14*
%TO.C,H6*%
X138090000Y-103360000D03*
%TD*%
%TO.C,H8*%
X119490000Y-130060000D03*
%TD*%
%TO.C,H5*%
X119490000Y-103360000D03*
%TD*%
D11*
%TO.C,H2*%
X179525000Y-51275000D03*
X179525000Y-51275000D03*
%TD*%
%TO.C,H4*%
X179541600Y-140093000D03*
X179541600Y-140093000D03*
%TD*%
D15*
%TO.C,J11*%
X178705000Y-62730000D03*
X179975000Y-62730000D03*
X178705000Y-64000000D03*
X179975000Y-64000000D03*
X178705000Y-65270000D03*
X179975000Y-65270000D03*
X178705000Y-66540000D03*
X179975000Y-66540000D03*
X178705000Y-67810000D03*
X179975000Y-67810000D03*
%TD*%
D14*
%TO.C,H7*%
X138090000Y-130060000D03*
%TD*%
D10*
%TO.C,SW1*%
X104455200Y-139232300D03*
X102655200Y-139232300D03*
%TD*%
D16*
%TO.C,J1*%
X172922500Y-139147500D03*
X161922500Y-139147500D03*
D17*
X164922500Y-129147500D03*
D18*
X169922500Y-129147500D03*
%TD*%
D11*
%TO.C,H1*%
X94550000Y-51300000D03*
X94550000Y-51300000D03*
%TD*%
D19*
%TO.C,U1*%
X159339900Y-113243200D03*
X160439900Y-113243200D03*
D20*
X161589900Y-113243200D03*
D19*
X162739900Y-113243200D03*
X163839900Y-113243200D03*
X163839900Y-111543200D03*
X163839900Y-109843200D03*
X162739900Y-109843200D03*
D20*
X161589900Y-109843200D03*
D19*
X160439900Y-109843200D03*
X159339900Y-109843200D03*
X159339900Y-111543200D03*
D20*
X161589900Y-111543200D03*
D19*
X162739900Y-111543200D03*
%TD*%
M02*
