M48
; DRILL file {KiCad 8.0.4-8.0.4-0~ubuntu22.04.1} date 2024-08-14T22:53:35+0900
; FORMAT={-:-/ absolute / metric / decimal}
; #@! TF.CreationDate,2024-08-14T22:53:35+09:00
; #@! TF.GenerationSoftware,Kicad,Pcbnew,8.0.4-8.0.4-0~ubuntu22.04.1
; #@! TF.FileFunction,Plated,1,2,PTH
FMAT,2
METRIC
; #@! TA.AperFunction,Plated,PTH,ViaDrill
T1C0.400
; #@! TA.AperFunction,Plated,PTH,ComponentDrill
T2C0.500
; #@! TA.AperFunction,Plated,PTH,ComponentDrill
T3C0.700
; #@! TA.AperFunction,Plated,PTH,ComponentDrill
T4C0.750
; #@! TA.AperFunction,Plated,PTH,ComponentDrill
T5C1.000
; #@! TA.AperFunction,Plated,PTH,ComponentDrill
T6C1.900
; #@! TA.AperFunction,Plated,PTH,ComponentDrill
T7C2.200
; #@! TA.AperFunction,Plated,PTH,ComponentDrill
T8C3.200
%
G90
G05
T1
X92.01Y-107.731
X92.5Y-116.05
X94.285Y-60.757
X94.386Y-127.864
X94.47Y-99.61
X94.488Y-79.451
X94.59Y-122.022
X95.402Y-118.618
X95.402Y-131.47
X95.504Y-72.593
X95.504Y-85.496
X95.656Y-56.744
X95.707Y-69.393
X97.587Y-136.398
X97.6Y-87.62
X97.825Y-60.85
X98.05Y-82.8
X98.178Y-122.653
X98.2Y-76.795
X99.75Y-87.63
X100.25Y-67.9
X100.61Y-106.11
X100.81Y-92.55
X101.855Y-136.007
X102.35Y-63.85
X102.375Y-79.825
X102.5Y-128.7
X102.575Y-125.6
X102.575Y-127.125
X103.85Y-65.35
X103.85Y-81.375
X106.02Y-52.07
X106.075Y-78.325
X106.39Y-87.6
X106.45Y-62.325
X106.629Y-81.991
X107.375Y-123.5
X107.4Y-112.89
X108.356Y-69.291
X108.625Y-59.25
X108.65Y-136.17
X108.81Y-127.92
X108.966Y-126.136
X109.275Y-121.6
X110.1Y-60.95
X110.4Y-96.66
X111.575Y-59.25
X112.675Y-123.15
X112.675Y-125.0
X113.233Y-51.918
X113.4Y-122.1
X114.575Y-54.85
X116.36Y-91.2
X117.35Y-84.08
X117.958Y-62.789
X118.77Y-52.172
X118.9Y-65.975
X121.825Y-126.475
X121.827Y-107.843
X122.123Y-52.121
X122.834Y-71.882
X123.31Y-110.125
X123.53Y-139.14
X123.59Y-130.11
X124.65Y-59.025
X124.775Y-133.25
X124.98Y-65.94
X126.12Y-103.28
X126.138Y-60.95
X126.55Y-75.95
X126.56Y-123.38
X127.65Y-59.075
X127.965Y-62.687
X128.168Y-51.613
X128.17Y-97.01
X128.32Y-89.17
X130.302Y-75.794
X130.7Y-54.809
X131.04Y-128.54
X131.56Y-111.64
X131.83Y-92.093
X132.08Y-65.7
X132.15Y-139.28
X133.625Y-90.3
X133.63Y-71.026
X134.188Y-84.287
X134.3Y-128.49
X134.432Y-58.169
X134.432Y-80.95
X134.772Y-52.019
X135.5Y-90.6
X136.225Y-91.593
X136.89Y-114.65
X137.025Y-61.6
X137.08Y-67.33
X138.074Y-52.07
X138.9Y-81.3
X138.983Y-85.59
X139.41Y-122.59
X139.75Y-80.175
X139.759Y-86.456
X140.035Y-97.39
X140.158Y-141.419
X140.484Y-82.95
X140.65Y-58.95
X140.71Y-101.36
X141.075Y-76.325
X141.49Y-73.32
X141.675Y-108.675
X141.775Y-71.026
X141.883Y-80.454
X142.535Y-78.925
X142.75Y-76.925
X143.108Y-141.369
X143.575Y-88.475
X143.65Y-59.625
X145.07Y-97.58
X145.485Y-75.4
X145.593Y-51.156
X146.025Y-54.6
X146.083Y-141.369
X147.472Y-69.545
X147.55Y-92.595
X147.575Y-87.3
X148.06Y-63.55
X149.283Y-141.445
X150.355Y-104.77
X150.405Y-116.595
X150.825Y-52.222
X151.073Y-72.553
X151.175Y-89.543
X151.431Y-97.546
X151.431Y-99.171
X152.275Y-90.35
X152.5Y-133.225
X153.3Y-89.691
X154.0Y-141.468
X154.31Y-125.885
X154.975Y-84.325
X154.975Y-85.975
X155.11Y-104.95
X155.6Y-74.2
X155.74Y-49.45
X155.925Y-94.725
X156.14Y-124.275
X156.625Y-141.543
X156.77Y-119.31
X157.836Y-61.011
X158.12Y-65.76
X160.225Y-87.325
X160.85Y-93.45
X161.38Y-82.8
X162.01Y-120.595
X162.01Y-121.945
X162.025Y-90.45
X163.21Y-121.27
X163.656Y-102.041
X163.72Y-62.91
X163.806Y-99.041
X164.033Y-53.289
X164.05Y-77.56
X164.1Y-67.25
X164.435Y-120.595
X164.435Y-121.97
X165.168Y-65.908
X165.178Y-69.028
X165.97Y-100.9
X169.24Y-49.9
X169.24Y-54.05
X169.24Y-60.25
X169.275Y-69.095
X169.275Y-71.025
X169.88Y-93.01
X170.65Y-87.35
X171.425Y-65.625
X172.19Y-81.29
X172.53Y-74.42
X173.84Y-55.11
X174.93Y-112.62
X175.768Y-135.534
X176.583Y-99.765
X176.685Y-90.164
X177.38Y-124.51
X178.463Y-95.6
X178.613Y-105.461
X178.664Y-90.424
X179.925Y-87.3
T2
X159.34Y-109.843
X159.34Y-111.543
X159.34Y-113.243
X160.44Y-109.843
X160.44Y-113.243
X161.59Y-109.843
X161.59Y-111.543
X161.59Y-113.243
X162.74Y-109.843
X162.74Y-111.543
X162.74Y-113.243
X163.84Y-109.843
X163.84Y-111.543
X163.84Y-113.243
T3
X178.705Y-62.73
X178.705Y-64.0
X178.705Y-65.27
X178.705Y-66.54
X178.705Y-67.81
X179.975Y-62.73
X179.975Y-64.0
X179.975Y-65.27
X179.975Y-66.54
X179.975Y-67.81
T4
X102.655Y-139.232
X104.455Y-139.232
X109.31Y-139.155
X111.11Y-139.155
T5
X161.922Y-139.147
X172.922Y-139.147
X180.086Y-75.735
X180.086Y-78.275
X180.086Y-80.815
X180.086Y-83.355
T6
X164.922Y-129.148
X169.922Y-129.148
T7
X119.49Y-103.36
X119.49Y-130.06
X138.09Y-103.36
X138.09Y-130.06
T8
X94.55Y-51.3
X94.55Y-140.1
X179.525Y-51.275
X179.542Y-140.093
M30
