%TF.GenerationSoftware,KiCad,Pcbnew,8.0.4-8.0.4-0~ubuntu22.04.1*%
%TF.CreationDate,2024-08-14T22:53:29+09:00*%
%TF.ProjectId,main,6d61696e-2e6b-4696-9361-645f70636258,rev?*%
%TF.SameCoordinates,Original*%
%TF.FileFunction,Profile,NP*%
%FSLAX46Y46*%
G04 Gerber Fmt 4.6, Leading zero omitted, Abs format (unit mm)*
G04 Created by KiCad (PCBNEW 8.0.4-8.0.4-0~ubuntu22.04.1) date 2024-08-14 22:53:29*
%MOMM*%
%LPD*%
G01*
G04 APERTURE LIST*
%TA.AperFunction,Profile*%
%ADD10C,0.200000*%
%TD*%
G04 APERTURE END LIST*
D10*
X181191600Y-140093000D02*
G75*
G02*
X177891600Y-140093000I-1650000J0D01*
G01*
X177891600Y-140093000D02*
G75*
G02*
X181191600Y-140093000I1650000J0D01*
G01*
X91541600Y-51308000D02*
G75*
G02*
X94541600Y-48308000I3000000J0D01*
G01*
X94541600Y-143093000D02*
G75*
G02*
X91541600Y-140093000I0J3000000D01*
G01*
X120490000Y-103360000D02*
G75*
G02*
X118490000Y-103360000I-1000000J0D01*
G01*
X118490000Y-103360000D02*
G75*
G02*
X120490000Y-103360000I1000000J0D01*
G01*
X91541600Y-51308000D02*
X91541600Y-140093000D01*
X139090000Y-103360000D02*
G75*
G02*
X137090000Y-103360000I-1000000J0D01*
G01*
X137090000Y-103360000D02*
G75*
G02*
X139090000Y-103360000I1000000J0D01*
G01*
X94541600Y-143093000D02*
X179541600Y-143093000D01*
X182541600Y-140093000D02*
G75*
G02*
X179541600Y-143093000I-3000000J0D01*
G01*
X179541600Y-48308000D02*
X94541600Y-48308000D01*
X179541600Y-48308000D02*
G75*
G02*
X182541600Y-51308000I0J-3000000D01*
G01*
X120490000Y-130060000D02*
G75*
G02*
X118490000Y-130060000I-1000000J0D01*
G01*
X118490000Y-130060000D02*
G75*
G02*
X120490000Y-130060000I1000000J0D01*
G01*
X181191600Y-51308000D02*
G75*
G02*
X177891600Y-51308000I-1650000J0D01*
G01*
X177891600Y-51308000D02*
G75*
G02*
X181191600Y-51308000I1650000J0D01*
G01*
X182541600Y-140093000D02*
X182541600Y-51308000D01*
X96191600Y-51308000D02*
G75*
G02*
X92891600Y-51308000I-1650000J0D01*
G01*
X92891600Y-51308000D02*
G75*
G02*
X96191600Y-51308000I1650000J0D01*
G01*
X96191600Y-140093000D02*
G75*
G02*
X92891600Y-140093000I-1650000J0D01*
G01*
X92891600Y-140093000D02*
G75*
G02*
X96191600Y-140093000I1650000J0D01*
G01*
X139090000Y-130060000D02*
G75*
G02*
X137090000Y-130060000I-1000000J0D01*
G01*
X137090000Y-130060000D02*
G75*
G02*
X139090000Y-130060000I1000000J0D01*
G01*
M02*
