%TF.GenerationSoftware,KiCad,Pcbnew,8.0.4-8.0.4-0~ubuntu22.04.1*%
%TF.CreationDate,2024-08-14T22:53:29+09:00*%
%TF.ProjectId,main,6d61696e-2e6b-4696-9361-645f70636258,rev?*%
%TF.SameCoordinates,Original*%
%TF.FileFunction,Copper,L2,Bot*%
%TF.FilePolarity,Positive*%
%FSLAX46Y46*%
G04 Gerber Fmt 4.6, Leading zero omitted, Abs format (unit mm)*
G04 Created by KiCad (PCBNEW 8.0.4-8.0.4-0~ubuntu22.04.1) date 2024-08-14 22:53:29*
%MOMM*%
%LPD*%
G01*
G04 APERTURE LIST*
%TA.AperFunction,ComponentPad*%
%ADD10C,0.375000*%
%TD*%
%TA.AperFunction,ComponentPad*%
%ADD11C,5.200000*%
%TD*%
%TA.AperFunction,ConnectorPad*%
%ADD12C,5.200000*%
%TD*%
%TA.AperFunction,ComponentPad*%
%ADD13R,1.700000X1.700000*%
%TD*%
%TA.AperFunction,ComponentPad*%
%ADD14O,1.700000X1.700000*%
%TD*%
%TA.AperFunction,ComponentPad*%
%ADD15C,3.800000*%
%TD*%
%TA.AperFunction,ComponentPad*%
%ADD16C,1.070000*%
%TD*%
%TA.AperFunction,ComponentPad*%
%ADD17C,1.400000*%
%TD*%
%TA.AperFunction,ComponentPad*%
%ADD18R,3.500000X3.500000*%
%TD*%
%TA.AperFunction,ComponentPad*%
%ADD19C,3.500000*%
%TD*%
%TA.AperFunction,ComponentPad*%
%ADD20R,0.700000X1.100000*%
%TD*%
%TA.AperFunction,ComponentPad*%
%ADD21R,0.800000X1.100000*%
%TD*%
%TA.AperFunction,ViaPad*%
%ADD22C,0.800000*%
%TD*%
%TA.AperFunction,Conductor*%
%ADD23C,0.500000*%
%TD*%
%TA.AperFunction,Conductor*%
%ADD24C,0.250000*%
%TD*%
%TA.AperFunction,Conductor*%
%ADD25C,0.950000*%
%TD*%
G04 APERTURE END LIST*
D10*
%TO.P,SW2,MH1*%
%TO.N,N/C*%
X111110000Y-139155000D03*
%TO.P,SW2,MH2*%
X109310000Y-139155000D03*
%TD*%
D11*
%TO.P,H3,1*%
%TO.N,N/C*%
X94550000Y-140100000D03*
D12*
X94550000Y-140100000D03*
%TD*%
D13*
%TO.P,J12,1,Pin_1*%
%TO.N,/stm32f405rg/USART1_RX*%
X180086000Y-83355200D03*
D14*
%TO.P,J12,2,Pin_2*%
%TO.N,/stm32f405rg/USART1_TX*%
X180086000Y-80815200D03*
%TO.P,J12,3,Pin_3*%
%TO.N,GND*%
X180086000Y-78275200D03*
%TO.P,J12,4,Pin_4*%
%TO.N,+3.3V*%
X180086000Y-75735200D03*
%TD*%
D15*
%TO.P,H6,1*%
%TO.N,N/C*%
X138090000Y-103360000D03*
%TD*%
%TO.P,H8,1*%
%TO.N,N/C*%
X119490000Y-130060000D03*
%TD*%
%TO.P,H5,1*%
%TO.N,N/C*%
X119490000Y-103360000D03*
%TD*%
D11*
%TO.P,H2,1*%
%TO.N,N/C*%
X179525000Y-51275000D03*
D12*
X179525000Y-51275000D03*
%TD*%
D11*
%TO.P,H4,1*%
%TO.N,N/C*%
X179541600Y-140093000D03*
D12*
X179541600Y-140093000D03*
%TD*%
D16*
%TO.P,J11,1,VTref*%
%TO.N,+3.3V*%
X178705000Y-62730000D03*
%TO.P,J11,2,SWDIO/TMS*%
%TO.N,/stm32f405rg/SWDIO*%
X179975000Y-62730000D03*
%TO.P,J11,3,GND*%
%TO.N,GND*%
X178705000Y-64000000D03*
%TO.P,J11,4,SWDCLK/TCK*%
%TO.N,/stm32f405rg/SWCLK*%
X179975000Y-64000000D03*
%TO.P,J11,5,GND*%
%TO.N,GND*%
X178705000Y-65270000D03*
%TO.P,J11,6,SWO/TDO*%
%TO.N,unconnected-(J11-SWO{slash}TDO-Pad6)*%
X179975000Y-65270000D03*
%TO.P,J11,7,KEY*%
%TO.N,unconnected-(J11-KEY-Pad7)*%
X178705000Y-66540000D03*
%TO.P,J11,8,NC/TDI*%
%TO.N,unconnected-(J11-NC{slash}TDI-Pad8)*%
X179975000Y-66540000D03*
%TO.P,J11,9,GNDDetect*%
%TO.N,GND*%
X178705000Y-67810000D03*
%TO.P,J11,10,~{RESET}*%
%TO.N,/stm32f405rg/NRST*%
X179975000Y-67810000D03*
%TD*%
D15*
%TO.P,H7,1*%
%TO.N,N/C*%
X138090000Y-130060000D03*
%TD*%
D10*
%TO.P,SW1,MH1*%
%TO.N,N/C*%
X104455200Y-139232300D03*
%TO.P,SW1,MH2*%
X102655200Y-139232300D03*
%TD*%
D17*
%TO.P,J1,*%
%TO.N,*%
X172922500Y-139147500D03*
X161922500Y-139147500D03*
D18*
%TO.P,J1,1,Pin_1*%
%TO.N,GND*%
X164922500Y-129147500D03*
D19*
%TO.P,J1,2,Pin_2*%
%TO.N,+BATT*%
X169922500Y-129147500D03*
%TD*%
D11*
%TO.P,H1,1*%
%TO.N,N/C*%
X94550000Y-51300000D03*
D12*
X94550000Y-51300000D03*
%TD*%
D20*
%TO.P,U1,1,EN*%
%TO.N,+BATT*%
X159339900Y-113243200D03*
%TO.P,U1,2,NC*%
%TO.N,unconnected-(U1-NC-Pad2)*%
X160439900Y-113243200D03*
D21*
%TO.P,U1,3,VIN*%
%TO.N,+BATT*%
X161589900Y-113243200D03*
D20*
%TO.P,U1,4,VIN*%
X162739900Y-113243200D03*
%TO.P,U1,5,VIN*%
X163839900Y-113243200D03*
%TO.P,U1,6,GND*%
%TO.N,GND*%
X163839900Y-111543200D03*
%TO.P,U1,7,VOUT*%
%TO.N,+5V*%
X163839900Y-109843200D03*
%TO.P,U1,8,VOUT*%
X162739900Y-109843200D03*
D21*
%TO.P,U1,9,VOUT*%
X161589900Y-109843200D03*
D20*
%TO.P,U1,10,PG*%
%TO.N,unconnected-(U1-PG-Pad10)*%
X160439900Y-109843200D03*
%TO.P,U1,11,FB*%
%TO.N,Net-(U1-FB)*%
X159339900Y-109843200D03*
%TO.P,U1,12,GND*%
%TO.N,GND*%
X159339900Y-111543200D03*
D21*
%TO.P,U1,13,GND*%
X161589900Y-111543200D03*
D20*
%TO.P,U1,14,GND*%
X162739900Y-111543200D03*
%TD*%
D22*
%TO.N,GND*%
X95504000Y-85496400D03*
X151431200Y-99171400D03*
X178664000Y-90424000D03*
X106019600Y-52070000D03*
X108356400Y-69291200D03*
X158120000Y-65760000D03*
X94470000Y-99610000D03*
X145592800Y-51155600D03*
X94386400Y-127863600D03*
X169240000Y-54050000D03*
X137080000Y-67330000D03*
X172190000Y-81290000D03*
X113400000Y-122100000D03*
X117350000Y-84080000D03*
X177380000Y-124510000D03*
X148060000Y-63550000D03*
X147472400Y-69545200D03*
X176685200Y-90164400D03*
X161380000Y-82800000D03*
X176583200Y-99765400D03*
X133625000Y-90300000D03*
X169240000Y-49900000D03*
X132080000Y-65700000D03*
X164050000Y-77560000D03*
X136225000Y-91593400D03*
X116360000Y-91200000D03*
X95504000Y-72593200D03*
X92010000Y-107731400D03*
X140484300Y-82950000D03*
X138074400Y-52070000D03*
X172530000Y-74420000D03*
X124980000Y-65940000D03*
X95402400Y-118618000D03*
X126120000Y-103280000D03*
X117957600Y-62788800D03*
X126550000Y-75950000D03*
X128168400Y-51612800D03*
X154000000Y-141467700D03*
X156625000Y-141542700D03*
X157835600Y-61010800D03*
X122834400Y-71882000D03*
X155110000Y-104950000D03*
X100810000Y-92550000D03*
X140710000Y-101360000D03*
X164435000Y-120595000D03*
X100610000Y-106110000D03*
X178613000Y-105461000D03*
X108966000Y-126136400D03*
X110400000Y-96660000D03*
X164033200Y-53289200D03*
X128320000Y-89170000D03*
X169240000Y-60250000D03*
X156140000Y-124275000D03*
X143108400Y-141369500D03*
X139410000Y-122590000D03*
X131830000Y-92093400D03*
X94284800Y-60756800D03*
X156770000Y-119310000D03*
X140158400Y-141419500D03*
X94589600Y-122021600D03*
X164435000Y-121970000D03*
X154975000Y-84325000D03*
X178463200Y-95599600D03*
X121825000Y-126475000D03*
X136890000Y-114650000D03*
X175768000Y-135534400D03*
X169880000Y-93010000D03*
X98050000Y-82800000D03*
X140035000Y-97390000D03*
X122123200Y-52120800D03*
X163656500Y-102041400D03*
X134300000Y-128490000D03*
X134188253Y-84286747D03*
X101855200Y-136007300D03*
X130302000Y-75793600D03*
X150405000Y-116595000D03*
X92500000Y-116050000D03*
X173840000Y-55110000D03*
X155925000Y-94725000D03*
X126560000Y-123380000D03*
X107400000Y-112890000D03*
X146083400Y-141369500D03*
X95656400Y-56743600D03*
X106629200Y-81991200D03*
X140650000Y-58950000D03*
X160850000Y-93450000D03*
X138900000Y-81300000D03*
X131560000Y-111640000D03*
X113233200Y-51917600D03*
X121827205Y-107842829D03*
X127965200Y-62687200D03*
X155740000Y-49450000D03*
X108625000Y-59250000D03*
X132150000Y-139280000D03*
X165970000Y-100900000D03*
X163210000Y-121270000D03*
X95402400Y-131470400D03*
X128170000Y-97010000D03*
X108650000Y-136170000D03*
X123530000Y-139140000D03*
X150825200Y-52222400D03*
X150355000Y-104770000D03*
X151431200Y-97546400D03*
X118770400Y-52171600D03*
X95707200Y-69392800D03*
X154975000Y-85975000D03*
X124650000Y-59025000D03*
X97586800Y-136398000D03*
X131040000Y-128540000D03*
X149283400Y-141444500D03*
X174930000Y-112620000D03*
X141075000Y-76325000D03*
X162010000Y-121945000D03*
X162010000Y-120595000D03*
X102500000Y-128700000D03*
X165167862Y-65907745D03*
X94488000Y-79451200D03*
X163806500Y-99041400D03*
X141490000Y-73320000D03*
X100250000Y-67900000D03*
X123590000Y-130110000D03*
X134772400Y-52019200D03*
%TO.N,+3.3V*%
X124775000Y-133250000D03*
X152500000Y-133225000D03*
%TO.N,/stm32f405rg/NRST*%
X108810000Y-127920000D03*
X135500000Y-90600000D03*
%TO.N,/imu/SPI_MISO*%
X134431800Y-58168800D03*
X98177903Y-122652903D03*
X97825000Y-60850000D03*
X134431800Y-80950000D03*
X114575000Y-54850000D03*
X98200000Y-76794800D03*
X130700000Y-54808800D03*
X146025000Y-54600000D03*
X138983500Y-85589800D03*
%TO.N,/imu/SPI_CLK*%
X102575000Y-125600000D03*
X111575000Y-59250000D03*
X102375000Y-79825000D03*
X143650000Y-59625000D03*
X127650000Y-59075000D03*
X102350000Y-63850000D03*
X143575000Y-88475000D03*
%TO.N,/imu/SPI_MOSI*%
X139759300Y-86456500D03*
X126138298Y-60950000D03*
X110100000Y-60950000D03*
X103850000Y-65350000D03*
X137025000Y-61600000D03*
X102575000Y-127125000D03*
X103850000Y-81375000D03*
X139750000Y-80175000D03*
%TO.N,/stm32f405rg/SPI2_CS2*%
X141775000Y-71025600D03*
X133629600Y-71025600D03*
%TO.N,/stm32f405rg/SPI2_CS3*%
X142750000Y-76925000D03*
X118900000Y-65975000D03*
%TO.N,/stm32f405rg/SPI2_CS4*%
X106450000Y-62325000D03*
X142535000Y-78925000D03*
%TO.N,/stm32f405rg/SPI2_CS5*%
X106075000Y-78325000D03*
X141883042Y-80453621D03*
%TO.N,/stm32f405rg/SPI2_CS6*%
X109275000Y-121600000D03*
X107375000Y-123500000D03*
%TO.N,/stm32f405rg/SWDIO*%
X170650000Y-87350000D03*
X160225000Y-87325000D03*
X179925000Y-87300000D03*
%TO.N,/stm32f405rg/SWCLK*%
X155600000Y-74200000D03*
X171425000Y-65625000D03*
%TO.N,/stm32f405rg/USART1_RX*%
X153300000Y-89691400D03*
%TO.N,/stm32f405rg/USART1_TX*%
X151175000Y-89543400D03*
%TO.N,/stm32f405rg/SW1*%
X112675000Y-123150000D03*
X112675000Y-125000000D03*
%TO.N,/stm32f405rg/SDIO_CK*%
X145485000Y-75400000D03*
X164100000Y-67250000D03*
%TO.N,/stm32f405rg/SDIO_D0*%
X165178252Y-69028252D03*
X147575000Y-87300000D03*
%TO.N,/stm32f405rg/SDIO_D1*%
X152275000Y-90350000D03*
X162025000Y-90450000D03*
X169275000Y-69094600D03*
X169275000Y-71025000D03*
%TO.N,/stm32f405rg/TIM3_LCD_BL*%
X123310000Y-110125000D03*
X141675000Y-108675000D03*
%TO.N,/stm32f405rg/TIM12_SP*%
X99750000Y-87630000D03*
X147550000Y-92595000D03*
X106390000Y-87600000D03*
X97600000Y-87620000D03*
%TO.N,/stm32f405rg/SDIO_SW*%
X151072653Y-72552653D03*
X163720000Y-62910000D03*
%TO.N,/power/ADC_BATTERY*%
X145070000Y-97580000D03*
X154310000Y-125885000D03*
%TD*%
D23*
%TO.N,+5V*%
X161589900Y-109843200D02*
X162739900Y-109843200D01*
D24*
%TO.N,GND*%
X161589500Y-111543000D02*
X161589700Y-111543000D01*
X163839000Y-111543000D02*
X163839900Y-111543000D01*
D25*
X158789000Y-111543000D02*
X159340100Y-111543000D01*
D24*
X163839900Y-111543000D02*
X163840000Y-111543000D01*
D25*
X162739500Y-111543000D02*
X162739700Y-111543000D01*
X161589700Y-111543000D02*
X161590000Y-111543000D01*
X159340100Y-111543000D02*
X161589000Y-111543000D01*
D24*
X162739000Y-111543000D02*
X162739500Y-111543000D01*
D25*
X162739000Y-111543000D02*
X162739500Y-111543000D01*
X162739700Y-111543000D02*
X162740000Y-111543000D01*
D24*
X162739700Y-111543000D02*
X162739900Y-111543200D01*
X162739700Y-111543000D02*
X162740000Y-111543000D01*
X161589700Y-111543000D02*
X161590000Y-111543000D01*
X161589700Y-111543000D02*
X161589900Y-111543200D01*
D25*
X161589000Y-111543000D02*
X161589500Y-111543000D01*
D24*
X161589000Y-111543000D02*
X161589500Y-111543000D01*
D25*
X161589500Y-111543000D02*
X161589700Y-111543000D01*
D24*
X162739500Y-111543000D02*
X162739700Y-111543000D01*
D25*
X161590000Y-111543000D02*
X162739000Y-111543000D01*
X162740000Y-111543000D02*
X163839000Y-111543000D01*
D24*
X163839900Y-111543200D02*
X163839900Y-111543000D01*
X159340100Y-111543000D02*
X159339900Y-111543200D01*
%TO.N,+3.3V*%
X152475000Y-133250000D02*
X124775000Y-133250000D01*
X152500000Y-133225000D02*
X152475000Y-133250000D01*
%TO.N,/stm32f405rg/NRST*%
X134925000Y-91175000D02*
X135500000Y-90600000D01*
X110850000Y-105250000D02*
X124925000Y-91175000D01*
X110850000Y-125840000D02*
X110850000Y-125880000D01*
X110850000Y-125840000D02*
X110850000Y-105250000D01*
X110850000Y-125880000D02*
X108810000Y-127920000D01*
X124925000Y-91175000D02*
X134925000Y-91175000D01*
D25*
%TO.N,+BATT*%
X163840000Y-113243000D02*
X163839700Y-113243000D01*
X163839500Y-113243000D02*
X163839000Y-113243000D01*
X163839700Y-113243000D02*
X163839500Y-113243000D01*
X162740100Y-113243000D02*
X162740000Y-113243100D01*
X163839700Y-113243000D02*
X163840000Y-113243000D01*
X162739900Y-113243100D02*
X162739900Y-113243200D01*
X163839700Y-113243000D02*
X163839900Y-113243200D01*
X163839000Y-113243000D02*
X163839500Y-113243000D01*
X163839500Y-113243000D02*
X163839700Y-113243000D01*
X162740100Y-113243000D02*
X162740000Y-113243000D01*
X162739100Y-113243100D02*
X162739000Y-113243000D01*
X159339700Y-113243000D02*
X159339900Y-113243200D01*
X161590100Y-113243000D02*
X161589900Y-113243200D01*
X159339700Y-113243000D02*
X159340000Y-113243000D01*
X159339000Y-113243000D02*
X159339700Y-113243000D01*
X162739900Y-113243100D02*
X162739100Y-113243100D01*
X162740000Y-113243100D02*
X162739900Y-113243100D01*
D24*
%TO.N,/imu/SPI_MISO*%
X113900000Y-54175000D02*
X114075000Y-54175000D01*
X98077903Y-122652903D02*
X98177903Y-122652903D01*
X134431800Y-82231800D02*
X134431800Y-80950000D01*
X96680505Y-61994495D02*
X96680505Y-62050000D01*
X130700000Y-54808800D02*
X130700000Y-54675000D01*
X134431800Y-58168800D02*
X134431800Y-56206800D01*
X130700000Y-54675000D02*
X130200000Y-54175000D01*
X138983500Y-84533500D02*
X137975000Y-83525000D01*
X96680505Y-60319495D02*
X96680505Y-62050000D01*
X132375000Y-54200000D02*
X130950000Y-54200000D01*
X96680505Y-121255505D02*
X98077903Y-122652903D01*
X130925000Y-54175000D02*
X130200000Y-54175000D01*
X130950000Y-54200000D02*
X130925000Y-54175000D01*
X137975000Y-83525000D02*
X135775000Y-83525000D01*
X97825000Y-60850000D02*
X96680505Y-61994495D01*
X138983500Y-85589800D02*
X138983500Y-84533500D01*
X134431800Y-56206800D02*
X132425000Y-54200000D01*
X135775000Y-83525000D02*
X135750000Y-83550000D01*
X96680505Y-62050000D02*
X96680505Y-77850000D01*
X102825000Y-54175000D02*
X96680505Y-60319495D01*
X114075000Y-54175000D02*
X102825000Y-54175000D01*
X132425000Y-54200000D02*
X132375000Y-54200000D01*
X135750000Y-83550000D02*
X134431800Y-82231800D01*
X145625000Y-54200000D02*
X132375000Y-54200000D01*
X96680505Y-77850000D02*
X96680505Y-121255505D01*
X97735705Y-76794800D02*
X96680505Y-77850000D01*
X114575000Y-54850000D02*
X113900000Y-54175000D01*
X98200000Y-76794800D02*
X97735705Y-76794800D01*
X130200000Y-54175000D02*
X114075000Y-54175000D01*
X146025000Y-54600000D02*
X145625000Y-54200000D01*
%TO.N,/imu/SPI_CLK*%
X103125000Y-125050000D02*
X103125000Y-80475000D01*
X102350000Y-63850000D02*
X102500000Y-63850000D01*
X126450000Y-60225000D02*
X143050000Y-60225000D01*
X103125000Y-64475000D02*
X103125000Y-62374695D01*
X102375000Y-79825000D02*
X102475000Y-79825000D01*
X143575000Y-59700000D02*
X143650000Y-59625000D01*
X105274695Y-60225000D02*
X110600000Y-60225000D01*
X103125000Y-64475000D02*
X103125000Y-80475000D01*
X143575000Y-88475000D02*
X143575000Y-59700000D01*
X143650000Y-59650000D02*
X143650000Y-59625000D01*
X143050000Y-60225000D02*
X143650000Y-59625000D01*
X102475000Y-79825000D02*
X103125000Y-80475000D01*
X111575000Y-59250000D02*
X110600000Y-60225000D01*
X102500000Y-63850000D02*
X103125000Y-64475000D01*
X126500000Y-60225000D02*
X126450000Y-60225000D01*
X103125000Y-62374695D02*
X105274695Y-60225000D01*
X110600000Y-60225000D02*
X126450000Y-60225000D01*
X127650000Y-59075000D02*
X126500000Y-60225000D01*
X102575000Y-125600000D02*
X103125000Y-125050000D01*
%TO.N,/imu/SPI_MOSI*%
X104800000Y-82325000D02*
X104800000Y-66425000D01*
X137025000Y-61600000D02*
X125525000Y-61600000D01*
X110100000Y-60950000D02*
X109450000Y-61600000D01*
X139759300Y-86456500D02*
X139759300Y-80184300D01*
X139759300Y-80184300D02*
X139750000Y-80175000D01*
X109450000Y-61600000D02*
X109325000Y-61600000D01*
X109325000Y-61600000D02*
X125525000Y-61600000D01*
X103850000Y-65350000D02*
X104800000Y-66300000D01*
X104800000Y-66425000D02*
X104800000Y-62900000D01*
X104800000Y-125850000D02*
X104800000Y-82325000D01*
X126138298Y-60986702D02*
X125525000Y-61600000D01*
X104800000Y-62900000D02*
X106100000Y-61600000D01*
X102575000Y-127125000D02*
X103525000Y-127125000D01*
X106100000Y-61600000D02*
X109325000Y-61600000D01*
X103850000Y-81375000D02*
X104800000Y-82325000D01*
X126138298Y-60950000D02*
X126138298Y-60986702D01*
X104800000Y-66300000D02*
X104800000Y-66425000D01*
X103525000Y-127125000D02*
X104800000Y-125850000D01*
%TO.N,/stm32f405rg/SPI2_CS2*%
X141775000Y-71025600D02*
X133629600Y-71025600D01*
%TO.N,/stm32f405rg/SPI2_CS3*%
X125700000Y-72775000D02*
X118900000Y-65975000D01*
X142750000Y-76925000D02*
X138600000Y-72775000D01*
X138600000Y-72775000D02*
X125700000Y-72775000D01*
%TO.N,/stm32f405rg/SPI2_CS4*%
X106450000Y-62325000D02*
X111075000Y-62325000D01*
X137059600Y-73449600D02*
X142535000Y-78925000D01*
X122199600Y-73449600D02*
X137059600Y-73449600D01*
X111075000Y-62325000D02*
X122199600Y-73449600D01*
%TO.N,/stm32f405rg/SPI2_CS5*%
X141883042Y-80453621D02*
X141883042Y-80433042D01*
X139775000Y-78325000D02*
X106075000Y-78325000D01*
X141883042Y-80433042D02*
X139775000Y-78325000D01*
%TO.N,/stm32f405rg/SPI2_CS6*%
X107375000Y-123500000D02*
X109275000Y-121600000D01*
%TO.N,/stm32f405rg/SWDIO*%
X160225000Y-87325000D02*
X170625000Y-87325000D01*
X182150000Y-85075000D02*
X182150000Y-64905000D01*
X170625000Y-87325000D02*
X170650000Y-87350000D01*
X182150000Y-64905000D02*
X179975000Y-62730000D01*
X179925000Y-87300000D02*
X182150000Y-85075000D01*
%TO.N,/stm32f405rg/SWCLK*%
X155600000Y-74200000D02*
X159000000Y-74200000D01*
X169925000Y-67125000D02*
X169600000Y-67125000D01*
X171425000Y-65625000D02*
X169925000Y-67125000D01*
X166056199Y-67125000D02*
X169600000Y-67125000D01*
X159000000Y-74200000D02*
X164453252Y-68746748D01*
X164453252Y-68727947D02*
X166056199Y-67125000D01*
X164453252Y-68746748D02*
X164453252Y-68727947D01*
%TO.N,/stm32f405rg/USART1_RX*%
X153300000Y-89691400D02*
X172572900Y-89691400D01*
X178909100Y-83355200D02*
X180086000Y-83355200D01*
X172572900Y-89691400D02*
X178909100Y-83355200D01*
%TO.N,/stm32f405rg/USART1_TX*%
X151752000Y-88966400D02*
X170757900Y-88966400D01*
X178909100Y-80815200D02*
X180086000Y-80815200D01*
X151175000Y-89543400D02*
X151752000Y-88966400D01*
X170757900Y-88966400D02*
X178909100Y-80815200D01*
%TO.N,/stm32f405rg/SW1*%
X112675000Y-123150000D02*
X112675000Y-125000000D01*
%TO.N,/stm32f405rg/SDIO_CK*%
X164100000Y-68425000D02*
X164100000Y-67250000D01*
X159125000Y-73400000D02*
X164100000Y-68425000D01*
X145485000Y-75400000D02*
X145485000Y-75375000D01*
X147460000Y-73400000D02*
X159125000Y-73400000D01*
X145485000Y-75375000D02*
X147460000Y-73400000D01*
%TO.N,/stm32f405rg/SDIO_D0*%
X147575000Y-86550000D02*
X147575000Y-87300000D01*
X165178252Y-69028252D02*
X165096748Y-69028252D01*
X165096748Y-69028252D02*
X147575000Y-86550000D01*
%TO.N,/stm32f405rg/SDIO_D1*%
X162025000Y-90450000D02*
X152375000Y-90450000D01*
X169275000Y-69094600D02*
X169275000Y-71025000D01*
X152375000Y-90450000D02*
X152275000Y-90350000D01*
%TO.N,/stm32f405rg/TIM3_LCD_BL*%
X123310000Y-110125000D02*
X123335000Y-110150000D01*
X123335000Y-110150000D02*
X140200000Y-110150000D01*
X140200000Y-110150000D02*
X141675000Y-108675000D01*
%TO.N,/stm32f405rg/TIM12_SP*%
X147550000Y-92595000D02*
X144872495Y-92595000D01*
X139877495Y-87600000D02*
X106390000Y-87600000D01*
X97610000Y-87630000D02*
X97600000Y-87620000D01*
X144872495Y-92595000D02*
X139877495Y-87600000D01*
X99750000Y-87630000D02*
X97610000Y-87630000D01*
%TO.N,/stm32f405rg/SDIO_SW*%
X163720000Y-62910000D02*
X154430000Y-62910000D01*
X151072653Y-72552653D02*
X151072653Y-66267347D01*
X151072653Y-66267347D02*
X151105000Y-66235000D01*
X154430000Y-62910000D02*
X151105000Y-66235000D01*
%TO.N,/power/ADC_BATTERY*%
X154305000Y-125885000D02*
X145020000Y-116600000D01*
X154310000Y-125885000D02*
X154305000Y-125885000D01*
X145020000Y-97630000D02*
X145020000Y-116600000D01*
X145070000Y-97580000D02*
X145020000Y-97630000D01*
%TD*%
%TA.AperFunction,Conductor*%
%TO.N,GND*%
G36*
X139528273Y-78978185D02*
G01*
X139548915Y-78994819D01*
X139629993Y-79075897D01*
X139663478Y-79137220D01*
X139658494Y-79206912D01*
X139616622Y-79262845D01*
X139568094Y-79284868D01*
X139467713Y-79306205D01*
X139293246Y-79383883D01*
X139138745Y-79496135D01*
X139010959Y-79638057D01*
X138915473Y-79803443D01*
X138915470Y-79803450D01*
X138858781Y-79977923D01*
X138856458Y-79985072D01*
X138836496Y-80175000D01*
X138856458Y-80364928D01*
X138856459Y-80364931D01*
X138915470Y-80546549D01*
X138915473Y-80546556D01*
X139010960Y-80711944D01*
X139093951Y-80804114D01*
X139124180Y-80867104D01*
X139125800Y-80887085D01*
X139125800Y-83480533D01*
X139106115Y-83547572D01*
X139053311Y-83593327D01*
X138984153Y-83603271D01*
X138920597Y-83574246D01*
X138914119Y-83568214D01*
X138378836Y-83032931D01*
X138378832Y-83032928D01*
X138275081Y-82963603D01*
X138275072Y-82963598D01*
X138159785Y-82915845D01*
X138159777Y-82915843D01*
X138037398Y-82891500D01*
X138037394Y-82891500D01*
X136038766Y-82891500D01*
X135971727Y-82871815D01*
X135951085Y-82855181D01*
X135101619Y-82005715D01*
X135068134Y-81944392D01*
X135065300Y-81918034D01*
X135065300Y-81651756D01*
X135084985Y-81584717D01*
X135097146Y-81568788D01*
X135170840Y-81486944D01*
X135266327Y-81321556D01*
X135325342Y-81139928D01*
X135345304Y-80950000D01*
X135325342Y-80760072D01*
X135266327Y-80578444D01*
X135170840Y-80413056D01*
X135043053Y-80271134D01*
X134888552Y-80158882D01*
X134714088Y-80081206D01*
X134714086Y-80081205D01*
X134527287Y-80041500D01*
X134336313Y-80041500D01*
X134149514Y-80081205D01*
X133975046Y-80158883D01*
X133820545Y-80271135D01*
X133692759Y-80413057D01*
X133597273Y-80578443D01*
X133597270Y-80578450D01*
X133538259Y-80760068D01*
X133538258Y-80760072D01*
X133518296Y-80950000D01*
X133538258Y-81139928D01*
X133538259Y-81139931D01*
X133597270Y-81321549D01*
X133597273Y-81321556D01*
X133692760Y-81486944D01*
X133766449Y-81568784D01*
X133796680Y-81631775D01*
X133798300Y-81651756D01*
X133798300Y-82294198D01*
X133822643Y-82416577D01*
X133822645Y-82416585D01*
X133870398Y-82531872D01*
X133870403Y-82531881D01*
X133939728Y-82635632D01*
X133939731Y-82635636D01*
X135346163Y-84042068D01*
X135346167Y-84042071D01*
X135449918Y-84111396D01*
X135449924Y-84111399D01*
X135449925Y-84111400D01*
X135565215Y-84159155D01*
X135660886Y-84178185D01*
X135687601Y-84183499D01*
X135687605Y-84183500D01*
X135687606Y-84183500D01*
X135812395Y-84183500D01*
X135812396Y-84183499D01*
X135834439Y-84179114D01*
X135926102Y-84160883D01*
X135950293Y-84158500D01*
X137661234Y-84158500D01*
X137728273Y-84178185D01*
X137748915Y-84194819D01*
X138313681Y-84759585D01*
X138347166Y-84820908D01*
X138350000Y-84847266D01*
X138350000Y-84888041D01*
X138330315Y-84955080D01*
X138318150Y-84971013D01*
X138244463Y-85052850D01*
X138244458Y-85052857D01*
X138148973Y-85218243D01*
X138148970Y-85218250D01*
X138135475Y-85259785D01*
X138089958Y-85399872D01*
X138069996Y-85589800D01*
X138089958Y-85779728D01*
X138089959Y-85779731D01*
X138148970Y-85961349D01*
X138148973Y-85961356D01*
X138244460Y-86126744D01*
X138346790Y-86240394D01*
X138370361Y-86266572D01*
X138372247Y-86268666D01*
X138526748Y-86380918D01*
X138701212Y-86458594D01*
X138756928Y-86470436D01*
X138761201Y-86471345D01*
X138822683Y-86504537D01*
X138856459Y-86565700D01*
X138858740Y-86579671D01*
X138865757Y-86646421D01*
X138865758Y-86646429D01*
X138873786Y-86671135D01*
X138917016Y-86804182D01*
X138919011Y-86874023D01*
X138882931Y-86933856D01*
X138820230Y-86964684D01*
X138799085Y-86966500D01*
X107097309Y-86966500D01*
X107030270Y-86946815D01*
X107005160Y-86925473D01*
X107001254Y-86921135D01*
X106936411Y-86874023D01*
X106846752Y-86808882D01*
X106672288Y-86731206D01*
X106672286Y-86731205D01*
X106485487Y-86691500D01*
X106294513Y-86691500D01*
X106107714Y-86731205D01*
X105933246Y-86808883D01*
X105778745Y-86921135D01*
X105649650Y-87064510D01*
X105590163Y-87101159D01*
X105520306Y-87099828D01*
X105462258Y-87060942D01*
X105434448Y-86996845D01*
X105433500Y-86981538D01*
X105433500Y-79224227D01*
X105453185Y-79157188D01*
X105505989Y-79111433D01*
X105575147Y-79101489D01*
X105611971Y-79114235D01*
X105612311Y-79113474D01*
X105618245Y-79116116D01*
X105618248Y-79116118D01*
X105792712Y-79193794D01*
X105979513Y-79233500D01*
X106170487Y-79233500D01*
X106357288Y-79193794D01*
X106531752Y-79116118D01*
X106686253Y-79003866D01*
X106690160Y-78999527D01*
X106749646Y-78962879D01*
X106782309Y-78958500D01*
X139461234Y-78958500D01*
X139528273Y-78978185D01*
G37*
%TD.AperFunction*%
%TA.AperFunction,Conductor*%
G36*
X105760475Y-62937942D02*
G01*
X105809291Y-62971152D01*
X105838747Y-63003866D01*
X105993248Y-63116118D01*
X106167712Y-63193794D01*
X106354513Y-63233500D01*
X106545487Y-63233500D01*
X106732288Y-63193794D01*
X106906752Y-63116118D01*
X107061253Y-63003866D01*
X107065160Y-62999527D01*
X107124646Y-62962879D01*
X107157309Y-62958500D01*
X110761234Y-62958500D01*
X110828273Y-62978185D01*
X110848915Y-62994819D01*
X121795763Y-73941668D01*
X121795767Y-73941671D01*
X121899518Y-74010996D01*
X121899524Y-74010999D01*
X121899525Y-74011000D01*
X122014815Y-74058755D01*
X122137201Y-74083099D01*
X122137205Y-74083100D01*
X122137206Y-74083100D01*
X122261994Y-74083100D01*
X136745834Y-74083100D01*
X136812873Y-74102785D01*
X136833515Y-74119419D01*
X141588378Y-78874282D01*
X141621863Y-78935605D01*
X141624017Y-78948999D01*
X141626069Y-78968518D01*
X141613502Y-79037248D01*
X141565771Y-79088273D01*
X141498031Y-79105392D01*
X141431789Y-79083171D01*
X141415068Y-79069163D01*
X140178836Y-77832931D01*
X140178832Y-77832928D01*
X140075081Y-77763603D01*
X140075072Y-77763598D01*
X139959785Y-77715845D01*
X139959777Y-77715843D01*
X139837398Y-77691500D01*
X139837394Y-77691500D01*
X106782309Y-77691500D01*
X106715270Y-77671815D01*
X106690160Y-77650473D01*
X106686254Y-77646135D01*
X106553429Y-77549631D01*
X106531752Y-77533882D01*
X106357288Y-77456206D01*
X106357286Y-77456205D01*
X106170487Y-77416500D01*
X105979513Y-77416500D01*
X105792714Y-77456205D01*
X105792712Y-77456206D01*
X105618248Y-77533882D01*
X105618245Y-77533883D01*
X105612311Y-77536526D01*
X105611659Y-77535063D01*
X105551590Y-77549631D01*
X105485565Y-77526773D01*
X105442379Y-77471849D01*
X105433500Y-77425772D01*
X105433500Y-63213765D01*
X105453185Y-63146726D01*
X105469815Y-63126088D01*
X105629460Y-62966442D01*
X105690783Y-62932958D01*
X105760475Y-62937942D01*
G37*
%TD.AperFunction*%
%TA.AperFunction,Conductor*%
G36*
X138353273Y-73428185D02*
G01*
X138373915Y-73444819D01*
X141803378Y-76874282D01*
X141836863Y-76935605D01*
X141839018Y-76949000D01*
X141847530Y-77029980D01*
X141834961Y-77098710D01*
X141787229Y-77149735D01*
X141719489Y-77166853D01*
X141653248Y-77144631D01*
X141636528Y-77130624D01*
X138126085Y-73620181D01*
X138092600Y-73558858D01*
X138097584Y-73489166D01*
X138139456Y-73433233D01*
X138204920Y-73408816D01*
X138213766Y-73408500D01*
X138286234Y-73408500D01*
X138353273Y-73428185D01*
G37*
%TD.AperFunction*%
%TA.AperFunction,Conductor*%
G36*
X142884539Y-60878185D02*
G01*
X142930294Y-60930989D01*
X142941500Y-60982500D01*
X142941500Y-75892500D01*
X142921815Y-75959539D01*
X142869011Y-76005294D01*
X142817500Y-76016500D01*
X142788766Y-76016500D01*
X142721727Y-75996815D01*
X142701085Y-75980181D01*
X139003836Y-72282931D01*
X139003832Y-72282928D01*
X138900081Y-72213603D01*
X138900072Y-72213598D01*
X138784785Y-72165845D01*
X138784777Y-72165843D01*
X138662398Y-72141500D01*
X138662394Y-72141500D01*
X133929126Y-72141500D01*
X133862087Y-72121815D01*
X133816332Y-72069011D01*
X133806388Y-71999853D01*
X133835413Y-71936297D01*
X133894191Y-71898523D01*
X133903346Y-71896210D01*
X133911884Y-71894395D01*
X133911884Y-71894394D01*
X133911888Y-71894394D01*
X134086352Y-71816718D01*
X134240853Y-71704466D01*
X134244760Y-71700127D01*
X134304246Y-71663479D01*
X134336909Y-71659100D01*
X141067691Y-71659100D01*
X141134730Y-71678785D01*
X141159840Y-71700127D01*
X141163747Y-71704466D01*
X141318248Y-71816718D01*
X141492712Y-71894394D01*
X141679513Y-71934100D01*
X141870487Y-71934100D01*
X142057288Y-71894394D01*
X142231752Y-71816718D01*
X142386253Y-71704466D01*
X142514040Y-71562544D01*
X142609527Y-71397156D01*
X142668542Y-71215528D01*
X142688504Y-71025600D01*
X142668542Y-70835672D01*
X142609527Y-70654044D01*
X142514040Y-70488656D01*
X142386253Y-70346734D01*
X142231752Y-70234482D01*
X142057288Y-70156806D01*
X142057286Y-70156805D01*
X141870487Y-70117100D01*
X141679513Y-70117100D01*
X141492714Y-70156805D01*
X141318246Y-70234483D01*
X141163745Y-70346735D01*
X141159840Y-70351073D01*
X141100354Y-70387721D01*
X141067691Y-70392100D01*
X134336909Y-70392100D01*
X134269870Y-70372415D01*
X134244760Y-70351073D01*
X134240854Y-70346735D01*
X134236018Y-70343221D01*
X134086352Y-70234482D01*
X133911888Y-70156806D01*
X133911886Y-70156805D01*
X133725087Y-70117100D01*
X133534113Y-70117100D01*
X133347314Y-70156805D01*
X133172846Y-70234483D01*
X133018345Y-70346735D01*
X132890559Y-70488657D01*
X132795073Y-70654043D01*
X132795070Y-70654050D01*
X132736254Y-70835068D01*
X132736058Y-70835672D01*
X132716096Y-71025600D01*
X132736058Y-71215528D01*
X132736059Y-71215531D01*
X132795070Y-71397149D01*
X132795073Y-71397156D01*
X132890560Y-71562544D01*
X133018347Y-71704466D01*
X133172848Y-71816718D01*
X133347312Y-71894394D01*
X133347314Y-71894394D01*
X133347315Y-71894395D01*
X133355854Y-71896210D01*
X133417336Y-71929402D01*
X133451113Y-71990565D01*
X133446461Y-72060279D01*
X133404857Y-72116412D01*
X133339509Y-72141140D01*
X133330074Y-72141500D01*
X126013766Y-72141500D01*
X125946727Y-72121815D01*
X125926085Y-72105181D01*
X119846620Y-66025716D01*
X119813135Y-65964393D01*
X119810983Y-65951015D01*
X119793542Y-65785072D01*
X119734527Y-65603444D01*
X119639040Y-65438056D01*
X119511253Y-65296134D01*
X119356752Y-65183882D01*
X119182288Y-65106206D01*
X119182286Y-65106205D01*
X118995487Y-65066500D01*
X118804513Y-65066500D01*
X118617714Y-65106205D01*
X118530480Y-65145044D01*
X118480259Y-65167404D01*
X118443246Y-65183883D01*
X118288745Y-65296135D01*
X118160959Y-65438057D01*
X118065473Y-65603443D01*
X118065470Y-65603450D01*
X118006459Y-65785068D01*
X118006458Y-65785072D01*
X117986496Y-65975000D01*
X118006458Y-66164928D01*
X118006459Y-66164931D01*
X118065470Y-66346549D01*
X118065473Y-66346556D01*
X118160960Y-66511944D01*
X118288747Y-66653866D01*
X118443248Y-66766118D01*
X118617712Y-66843794D01*
X118804513Y-66883500D01*
X118861234Y-66883500D01*
X118928273Y-66903185D01*
X118948915Y-66919819D01*
X124633515Y-72604419D01*
X124667000Y-72665742D01*
X124662016Y-72735434D01*
X124620144Y-72791367D01*
X124554680Y-72815784D01*
X124545834Y-72816100D01*
X122513366Y-72816100D01*
X122446327Y-72796415D01*
X122425685Y-72779781D01*
X112091085Y-62445181D01*
X112057600Y-62383858D01*
X112062584Y-62314166D01*
X112104456Y-62258233D01*
X112169920Y-62233816D01*
X112178766Y-62233500D01*
X125462606Y-62233500D01*
X125587394Y-62233500D01*
X136317691Y-62233500D01*
X136384730Y-62253185D01*
X136409840Y-62274527D01*
X136411616Y-62276500D01*
X136413747Y-62278866D01*
X136568248Y-62391118D01*
X136742712Y-62468794D01*
X136929513Y-62508500D01*
X137120487Y-62508500D01*
X137307288Y-62468794D01*
X137481752Y-62391118D01*
X137636253Y-62278866D01*
X137764040Y-62136944D01*
X137859527Y-61971556D01*
X137918542Y-61789928D01*
X137938504Y-61600000D01*
X137918542Y-61410072D01*
X137859527Y-61228444D01*
X137764040Y-61063056D01*
X137760222Y-61057801D01*
X137761937Y-61056554D01*
X137735987Y-61002490D01*
X137744607Y-60933154D01*
X137789344Y-60879485D01*
X137855995Y-60858523D01*
X137858365Y-60858500D01*
X142817500Y-60858500D01*
X142884539Y-60878185D01*
G37*
%TD.AperFunction*%
%TA.AperFunction,Conductor*%
G36*
X178053459Y-48327685D02*
G01*
X178099214Y-48380489D01*
X178109158Y-48449647D01*
X178080133Y-48513203D01*
X178046401Y-48540528D01*
X177868571Y-48638811D01*
X177583821Y-48840851D01*
X177323496Y-49073493D01*
X177323493Y-49073496D01*
X177090851Y-49333821D01*
X176888811Y-49618571D01*
X176719923Y-49924149D01*
X176719921Y-49924153D01*
X176586317Y-50246705D01*
X176489662Y-50582199D01*
X176489660Y-50582207D01*
X176431179Y-50926402D01*
X176431177Y-50926414D01*
X176411602Y-51275000D01*
X176431177Y-51623585D01*
X176431179Y-51623597D01*
X176489660Y-51967792D01*
X176489662Y-51967800D01*
X176586317Y-52303294D01*
X176719921Y-52625846D01*
X176719923Y-52625850D01*
X176888811Y-52931428D01*
X177090851Y-53216178D01*
X177323493Y-53476503D01*
X177323496Y-53476506D01*
X177583821Y-53709148D01*
X177583827Y-53709152D01*
X177583828Y-53709153D01*
X177868572Y-53911189D01*
X178174147Y-54080075D01*
X178174149Y-54080076D01*
X178174153Y-54080078D01*
X178496705Y-54213682D01*
X178496710Y-54213684D01*
X178832204Y-54310339D01*
X179176410Y-54368822D01*
X179525000Y-54388398D01*
X179873590Y-54368822D01*
X180217796Y-54310339D01*
X180553290Y-54213684D01*
X180875853Y-54080075D01*
X181181428Y-53911189D01*
X181466172Y-53709153D01*
X181495515Y-53682931D01*
X181573098Y-53613598D01*
X181726505Y-53476505D01*
X181885881Y-53298162D01*
X181959148Y-53216178D01*
X181959149Y-53216176D01*
X181959153Y-53216172D01*
X182161189Y-52931428D01*
X182309072Y-52663855D01*
X182358729Y-52614702D01*
X182427077Y-52600199D01*
X182492416Y-52624949D01*
X182534001Y-52681096D01*
X182541600Y-52723836D01*
X182541600Y-64101334D01*
X182521915Y-64168373D01*
X182469111Y-64214128D01*
X182399953Y-64224072D01*
X182336397Y-64195047D01*
X182329919Y-64189015D01*
X181051332Y-62910428D01*
X181017847Y-62849105D01*
X181015610Y-62810597D01*
X181023549Y-62730000D01*
X181003401Y-62525438D01*
X180943733Y-62328738D01*
X180892828Y-62233500D01*
X180846838Y-62147458D01*
X180846836Y-62147455D01*
X180716436Y-61988563D01*
X180557544Y-61858163D01*
X180557541Y-61858161D01*
X180376264Y-61761268D01*
X180376263Y-61761267D01*
X180376262Y-61761267D01*
X180179562Y-61701599D01*
X180179560Y-61701598D01*
X180179562Y-61701598D01*
X179975000Y-61681451D01*
X179770439Y-61701598D01*
X179573737Y-61761267D01*
X179398452Y-61854958D01*
X179330050Y-61869199D01*
X179281548Y-61854958D01*
X179106262Y-61761267D01*
X179097140Y-61758500D01*
X178909562Y-61701599D01*
X178909560Y-61701598D01*
X178909562Y-61701598D01*
X178705000Y-61681451D01*
X178500439Y-61701598D01*
X178303735Y-61761268D01*
X178122458Y-61858161D01*
X178122455Y-61858163D01*
X177963563Y-61988563D01*
X177833163Y-62147455D01*
X177833161Y-62147458D01*
X177736268Y-62328735D01*
X177676598Y-62525439D01*
X177656451Y-62730000D01*
X177676598Y-62934560D01*
X177681670Y-62951280D01*
X177734696Y-63126084D01*
X177736268Y-63131264D01*
X177833161Y-63312541D01*
X177833163Y-63312544D01*
X177963563Y-63471436D01*
X178122455Y-63601836D01*
X178122458Y-63601838D01*
X178220353Y-63654163D01*
X178303738Y-63698733D01*
X178500438Y-63758401D01*
X178500437Y-63758401D01*
X178520585Y-63760385D01*
X178705000Y-63778549D01*
X178800279Y-63769164D01*
X178868923Y-63782182D01*
X178919634Y-63830247D01*
X178936309Y-63898098D01*
X178935835Y-63904721D01*
X178926451Y-63999999D01*
X178946598Y-64204560D01*
X179006267Y-64401262D01*
X179099958Y-64576548D01*
X179114199Y-64644950D01*
X179099958Y-64693452D01*
X179006267Y-64868737D01*
X178946598Y-65065439D01*
X178926451Y-65270000D01*
X178935835Y-65365278D01*
X178922816Y-65433924D01*
X178874751Y-65484634D01*
X178806900Y-65501309D01*
X178800278Y-65500835D01*
X178705000Y-65491451D01*
X178500439Y-65511598D01*
X178303735Y-65571268D01*
X178122458Y-65668161D01*
X178122455Y-65668163D01*
X177963563Y-65798563D01*
X177833163Y-65957455D01*
X177833161Y-65957458D01*
X177736268Y-66138735D01*
X177676598Y-66335439D01*
X177656451Y-66540000D01*
X177676598Y-66744560D01*
X177676599Y-66744562D01*
X177729762Y-66919819D01*
X177736268Y-66941264D01*
X177833161Y-67122541D01*
X177833163Y-67122544D01*
X177963563Y-67281436D01*
X178122455Y-67411836D01*
X178122458Y-67411838D01*
X178220353Y-67464163D01*
X178303738Y-67508733D01*
X178500438Y-67568401D01*
X178500437Y-67568401D01*
X178520585Y-67570385D01*
X178705000Y-67588549D01*
X178800279Y-67579164D01*
X178868923Y-67592182D01*
X178919634Y-67640247D01*
X178936309Y-67708098D01*
X178935835Y-67714721D01*
X178926451Y-67809999D01*
X178946598Y-68014560D01*
X178946599Y-68014562D01*
X178998634Y-68186100D01*
X179006268Y-68211264D01*
X179103161Y-68392541D01*
X179103163Y-68392544D01*
X179233563Y-68551436D01*
X179392455Y-68681836D01*
X179392458Y-68681838D01*
X179490353Y-68734163D01*
X179573738Y-68778733D01*
X179770438Y-68838401D01*
X179770437Y-68838401D01*
X179788778Y-68840207D01*
X179975000Y-68858549D01*
X180179562Y-68838401D01*
X180376262Y-68778733D01*
X180557543Y-68681837D01*
X180716436Y-68551436D01*
X180846837Y-68392543D01*
X180943733Y-68211262D01*
X181003401Y-68014562D01*
X181023549Y-67810000D01*
X181003401Y-67605438D01*
X180943733Y-67408738D01*
X180850042Y-67233453D01*
X180835800Y-67165050D01*
X180850042Y-67116547D01*
X180889626Y-67042489D01*
X180943733Y-66941262D01*
X181003401Y-66744562D01*
X181023549Y-66540000D01*
X181003401Y-66335438D01*
X180943733Y-66138738D01*
X180852083Y-65967272D01*
X180850042Y-65963453D01*
X180835800Y-65895050D01*
X180850042Y-65846547D01*
X180875690Y-65798563D01*
X180943733Y-65671262D01*
X181003401Y-65474562D01*
X181023549Y-65270000D01*
X181003401Y-65065438D01*
X180968079Y-64948999D01*
X180967457Y-64879136D01*
X181004705Y-64820023D01*
X181067999Y-64790432D01*
X181137243Y-64799757D01*
X181174422Y-64825326D01*
X181480181Y-65131085D01*
X181513666Y-65192408D01*
X181516500Y-65218766D01*
X181516500Y-75024776D01*
X181496815Y-75091815D01*
X181444011Y-75137570D01*
X181374853Y-75147514D01*
X181311297Y-75118489D01*
X181288532Y-75090136D01*
X181287666Y-75090703D01*
X181161723Y-74897934D01*
X181161715Y-74897923D01*
X181009243Y-74732297D01*
X181009238Y-74732292D01*
X180831577Y-74594012D01*
X180831572Y-74594008D01*
X180633580Y-74486861D01*
X180633577Y-74486859D01*
X180633574Y-74486858D01*
X180633571Y-74486857D01*
X180633569Y-74486856D01*
X180420637Y-74413756D01*
X180198569Y-74376700D01*
X179973431Y-74376700D01*
X179751362Y-74413756D01*
X179538430Y-74486856D01*
X179538419Y-74486861D01*
X179340427Y-74594008D01*
X179340422Y-74594012D01*
X179162761Y-74732292D01*
X179162756Y-74732297D01*
X179010284Y-74897923D01*
X179010276Y-74897934D01*
X178887140Y-75086407D01*
X178796703Y-75292585D01*
X178741436Y-75510828D01*
X178741434Y-75510840D01*
X178722844Y-75735194D01*
X178722844Y-75735205D01*
X178741434Y-75959559D01*
X178741436Y-75959571D01*
X178796703Y-76177814D01*
X178887140Y-76383992D01*
X179010276Y-76572465D01*
X179010284Y-76572476D01*
X179162756Y-76738102D01*
X179162760Y-76738106D01*
X179340424Y-76876389D01*
X179340425Y-76876389D01*
X179340427Y-76876391D01*
X179449846Y-76935605D01*
X179538426Y-76983542D01*
X179751365Y-77056644D01*
X179973431Y-77093700D01*
X180198569Y-77093700D01*
X180420635Y-77056644D01*
X180633574Y-76983542D01*
X180831576Y-76876389D01*
X181009240Y-76738106D01*
X181131892Y-76604872D01*
X181161715Y-76572476D01*
X181161716Y-76572474D01*
X181161722Y-76572468D01*
X181259215Y-76423244D01*
X181287666Y-76379697D01*
X181289265Y-76380742D01*
X181332662Y-76337016D01*
X181400878Y-76321906D01*
X181466434Y-76346075D01*
X181508517Y-76401850D01*
X181516500Y-76445623D01*
X181516500Y-80104776D01*
X181496815Y-80171815D01*
X181444011Y-80217570D01*
X181374853Y-80227514D01*
X181311297Y-80198489D01*
X181288532Y-80170136D01*
X181287666Y-80170703D01*
X181203253Y-80041500D01*
X181161722Y-79977932D01*
X181161719Y-79977929D01*
X181161715Y-79977923D01*
X181009243Y-79812297D01*
X181009238Y-79812292D01*
X180831577Y-79674012D01*
X180831572Y-79674008D01*
X180633580Y-79566861D01*
X180633577Y-79566859D01*
X180633574Y-79566858D01*
X180633571Y-79566857D01*
X180633569Y-79566856D01*
X180420637Y-79493756D01*
X180198569Y-79456700D01*
X179973431Y-79456700D01*
X179751362Y-79493756D01*
X179538430Y-79566856D01*
X179538419Y-79566861D01*
X179340427Y-79674008D01*
X179340422Y-79674012D01*
X179162761Y-79812292D01*
X179162756Y-79812297D01*
X179010284Y-79977923D01*
X179010276Y-79977934D01*
X178910200Y-80131111D01*
X178857054Y-80176468D01*
X178830584Y-80184906D01*
X178724317Y-80206044D01*
X178724314Y-80206045D01*
X178690548Y-80220029D01*
X178690549Y-80220030D01*
X178609026Y-80253798D01*
X178609022Y-80253800D01*
X178505271Y-80323124D01*
X178505263Y-80323130D01*
X171717225Y-87111169D01*
X171655902Y-87144654D01*
X171586210Y-87139670D01*
X171530277Y-87097798D01*
X171511613Y-87061806D01*
X171484529Y-86978449D01*
X171484526Y-86978443D01*
X171477631Y-86966500D01*
X171389040Y-86813056D01*
X171261253Y-86671134D01*
X171106752Y-86558882D01*
X170932288Y-86481206D01*
X170932286Y-86481205D01*
X170745487Y-86441500D01*
X170554513Y-86441500D01*
X170367714Y-86481205D01*
X170193246Y-86558883D01*
X170139075Y-86598241D01*
X170043310Y-86667818D01*
X169977506Y-86691298D01*
X169970426Y-86691500D01*
X160932309Y-86691500D01*
X160865270Y-86671815D01*
X160840160Y-86650473D01*
X160836254Y-86646135D01*
X160835850Y-86645841D01*
X160681752Y-86533882D01*
X160507288Y-86456206D01*
X160507286Y-86456205D01*
X160320487Y-86416500D01*
X160129513Y-86416500D01*
X159942714Y-86456205D01*
X159768246Y-86533883D01*
X159613745Y-86646135D01*
X159485959Y-86788057D01*
X159390473Y-86953443D01*
X159390470Y-86953450D01*
X159336332Y-87120070D01*
X159331458Y-87135072D01*
X159311496Y-87325000D01*
X159331458Y-87514928D01*
X159331459Y-87514931D01*
X159390470Y-87696549D01*
X159390473Y-87696556D01*
X159485960Y-87861944D01*
X159613747Y-88003866D01*
X159757876Y-88108582D01*
X159800541Y-88163912D01*
X159806520Y-88233526D01*
X159773914Y-88295321D01*
X159713075Y-88329678D01*
X159684990Y-88332900D01*
X151689601Y-88332900D01*
X151567222Y-88357243D01*
X151567214Y-88357245D01*
X151451927Y-88404998D01*
X151451918Y-88405003D01*
X151348168Y-88474327D01*
X151313996Y-88508500D01*
X151223913Y-88598582D01*
X151162593Y-88632066D01*
X151136234Y-88634900D01*
X151079513Y-88634900D01*
X150892714Y-88674605D01*
X150718246Y-88752283D01*
X150563745Y-88864535D01*
X150435959Y-89006457D01*
X150340473Y-89171843D01*
X150340470Y-89171850D01*
X150281459Y-89353468D01*
X150281458Y-89353472D01*
X150261496Y-89543400D01*
X150281458Y-89733328D01*
X150281459Y-89733331D01*
X150340470Y-89914949D01*
X150340473Y-89914956D01*
X150435960Y-90080344D01*
X150563747Y-90222266D01*
X150718248Y-90334518D01*
X150892712Y-90412194D01*
X151079513Y-90451900D01*
X151262765Y-90451900D01*
X151329804Y-90471585D01*
X151375559Y-90524389D01*
X151380696Y-90537582D01*
X151440470Y-90721550D01*
X151440473Y-90721556D01*
X151535960Y-90886944D01*
X151663747Y-91028866D01*
X151818248Y-91141118D01*
X151992712Y-91218794D01*
X152179513Y-91258500D01*
X152370487Y-91258500D01*
X152557288Y-91218794D01*
X152731752Y-91141118D01*
X152737500Y-91136942D01*
X152778462Y-91107182D01*
X152844268Y-91083702D01*
X152851347Y-91083500D01*
X161317691Y-91083500D01*
X161384730Y-91103185D01*
X161409840Y-91124527D01*
X161413747Y-91128866D01*
X161568248Y-91241118D01*
X161742712Y-91318794D01*
X161929513Y-91358500D01*
X162120487Y-91358500D01*
X162307288Y-91318794D01*
X162481752Y-91241118D01*
X162636253Y-91128866D01*
X162764040Y-90986944D01*
X162859527Y-90821556D01*
X162918542Y-90639928D01*
X162938504Y-90450000D01*
X162938504Y-90449997D01*
X162938504Y-90448900D01*
X162938683Y-90448288D01*
X162939183Y-90443537D01*
X162940051Y-90443628D01*
X162958189Y-90381861D01*
X163010993Y-90336106D01*
X163062504Y-90324900D01*
X172635295Y-90324900D01*
X172635296Y-90324899D01*
X172757685Y-90300555D01*
X172872975Y-90252800D01*
X172976733Y-90183471D01*
X178651253Y-84508949D01*
X178712574Y-84475466D01*
X178782266Y-84480450D01*
X178838198Y-84522321D01*
X178865572Y-84558887D01*
X178872739Y-84568461D01*
X178989796Y-84656089D01*
X179126799Y-84707189D01*
X179154050Y-84710118D01*
X179187345Y-84713699D01*
X179187362Y-84713700D01*
X180984638Y-84713700D01*
X180984654Y-84713699D01*
X181011692Y-84710791D01*
X181045201Y-84707189D01*
X181182204Y-84656089D01*
X181299261Y-84568461D01*
X181299263Y-84568457D01*
X181304819Y-84562903D01*
X181366142Y-84529418D01*
X181435834Y-84534402D01*
X181491767Y-84576274D01*
X181516184Y-84641738D01*
X181516500Y-84650584D01*
X181516500Y-84761234D01*
X181496815Y-84828273D01*
X181480181Y-84848915D01*
X179973915Y-86355181D01*
X179912592Y-86388666D01*
X179886234Y-86391500D01*
X179829513Y-86391500D01*
X179642714Y-86431205D01*
X179468246Y-86508883D01*
X179313745Y-86621135D01*
X179185959Y-86763057D01*
X179090473Y-86928443D01*
X179090470Y-86928450D01*
X179034354Y-87101159D01*
X179031458Y-87110072D01*
X179011496Y-87300000D01*
X179031458Y-87489928D01*
X179031459Y-87489931D01*
X179090470Y-87671549D01*
X179090473Y-87671556D01*
X179185960Y-87836944D01*
X179313747Y-87978866D01*
X179468248Y-88091118D01*
X179642712Y-88168794D01*
X179829513Y-88208500D01*
X180020487Y-88208500D01*
X180207288Y-88168794D01*
X180381752Y-88091118D01*
X180536253Y-87978866D01*
X180664040Y-87836944D01*
X180759527Y-87671556D01*
X180818542Y-87489928D01*
X180835981Y-87323997D01*
X180862564Y-87259387D01*
X180871611Y-87249291D01*
X182329920Y-85790983D01*
X182391242Y-85757499D01*
X182460934Y-85762483D01*
X182516867Y-85804355D01*
X182541284Y-85869819D01*
X182541600Y-85878665D01*
X182541600Y-138614128D01*
X182521915Y-138681167D01*
X182469111Y-138726922D01*
X182399953Y-138736866D01*
X182336397Y-138707841D01*
X182309072Y-138674109D01*
X182195568Y-138468741D01*
X182177789Y-138436572D01*
X181975753Y-138151828D01*
X181975752Y-138151827D01*
X181975748Y-138151821D01*
X181743106Y-137891496D01*
X181743103Y-137891493D01*
X181482778Y-137658851D01*
X181198028Y-137456811D01*
X180892450Y-137287923D01*
X180892446Y-137287921D01*
X180569894Y-137154317D01*
X180234400Y-137057662D01*
X180234392Y-137057660D01*
X179890197Y-136999179D01*
X179890185Y-136999177D01*
X179541600Y-136979602D01*
X179193014Y-136999177D01*
X179193002Y-136999179D01*
X178848807Y-137057660D01*
X178848799Y-137057662D01*
X178513305Y-137154317D01*
X178190753Y-137287921D01*
X178190749Y-137287923D01*
X177885171Y-137456811D01*
X177600421Y-137658851D01*
X177340096Y-137891493D01*
X177340093Y-137891496D01*
X177107451Y-138151821D01*
X176905411Y-138436571D01*
X176736523Y-138742149D01*
X176736521Y-138742153D01*
X176602917Y-139064705D01*
X176506262Y-139400199D01*
X176506260Y-139400207D01*
X176447779Y-139744402D01*
X176447777Y-139744414D01*
X176428202Y-140093000D01*
X176447777Y-140441585D01*
X176447779Y-140441597D01*
X176506260Y-140785792D01*
X176506262Y-140785800D01*
X176602917Y-141121294D01*
X176736521Y-141443846D01*
X176736523Y-141443850D01*
X176905411Y-141749428D01*
X177107451Y-142034178D01*
X177340093Y-142294503D01*
X177340096Y-142294506D01*
X177600421Y-142527148D01*
X177600427Y-142527152D01*
X177600428Y-142527153D01*
X177885172Y-142729189D01*
X178122710Y-142860472D01*
X178171863Y-142910129D01*
X178186366Y-142978477D01*
X178161616Y-143043816D01*
X178105469Y-143085401D01*
X178062729Y-143093000D01*
X96041537Y-143093000D01*
X95974498Y-143073315D01*
X95928743Y-143020511D01*
X95918799Y-142951353D01*
X95947824Y-142887797D01*
X95981556Y-142860472D01*
X96010495Y-142844477D01*
X96206428Y-142736189D01*
X96491172Y-142534153D01*
X96751505Y-142301505D01*
X96984153Y-142041172D01*
X97186189Y-141756428D01*
X97355075Y-141450853D01*
X97357975Y-141443853D01*
X97488682Y-141128294D01*
X97488684Y-141128290D01*
X97585339Y-140792796D01*
X97643822Y-140448590D01*
X97663398Y-140100000D01*
X97643822Y-139751410D01*
X97585339Y-139407204D01*
X97509879Y-139145278D01*
X101771700Y-139145278D01*
X101771700Y-139319321D01*
X101805650Y-139489999D01*
X101805653Y-139490011D01*
X101872249Y-139650789D01*
X101872250Y-139650791D01*
X101968940Y-139795497D01*
X101968943Y-139795501D01*
X102091998Y-139918556D01*
X102092002Y-139918559D01*
X102236706Y-140015248D01*
X102236707Y-140015248D01*
X102236708Y-140015249D01*
X102236710Y-140015250D01*
X102385308Y-140076801D01*
X102397493Y-140081848D01*
X102568178Y-140115799D01*
X102568182Y-140115800D01*
X102568183Y-140115800D01*
X102742218Y-140115800D01*
X102742219Y-140115799D01*
X102912907Y-140081848D01*
X103073694Y-140015248D01*
X103218398Y-139918559D01*
X103341459Y-139795498D01*
X103438148Y-139650794D01*
X103440638Y-139644783D01*
X103484478Y-139590378D01*
X103550772Y-139568312D01*
X103618471Y-139585590D01*
X103666083Y-139636726D01*
X103669762Y-139644783D01*
X103672250Y-139650791D01*
X103768940Y-139795497D01*
X103768943Y-139795501D01*
X103891998Y-139918556D01*
X103892002Y-139918559D01*
X104036706Y-140015248D01*
X104036707Y-140015248D01*
X104036708Y-140015249D01*
X104036710Y-140015250D01*
X104185308Y-140076801D01*
X104197493Y-140081848D01*
X104368178Y-140115799D01*
X104368182Y-140115800D01*
X104368183Y-140115800D01*
X104542218Y-140115800D01*
X104542219Y-140115799D01*
X104712907Y-140081848D01*
X104873694Y-140015248D01*
X105018398Y-139918559D01*
X105141459Y-139795498D01*
X105238148Y-139650794D01*
X105304748Y-139490007D01*
X105338700Y-139319317D01*
X105338700Y-139145283D01*
X105323323Y-139067978D01*
X108426500Y-139067978D01*
X108426500Y-139242021D01*
X108460450Y-139412699D01*
X108460453Y-139412711D01*
X108527049Y-139573489D01*
X108527050Y-139573491D01*
X108623740Y-139718197D01*
X108623743Y-139718201D01*
X108746798Y-139841256D01*
X108746802Y-139841259D01*
X108891506Y-139937948D01*
X108891507Y-139937948D01*
X108891508Y-139937949D01*
X108891510Y-139937950D01*
X109052288Y-140004546D01*
X109052293Y-140004548D01*
X109222978Y-140038499D01*
X109222982Y-140038500D01*
X109222983Y-140038500D01*
X109397018Y-140038500D01*
X109397019Y-140038499D01*
X109567707Y-140004548D01*
X109728494Y-139937948D01*
X109873198Y-139841259D01*
X109996259Y-139718198D01*
X110092948Y-139573494D01*
X110094419Y-139569941D01*
X110095438Y-139567483D01*
X110139278Y-139513078D01*
X110205572Y-139491012D01*
X110273271Y-139508290D01*
X110320883Y-139559426D01*
X110324562Y-139567483D01*
X110327050Y-139573491D01*
X110423740Y-139718197D01*
X110423743Y-139718201D01*
X110546798Y-139841256D01*
X110546802Y-139841259D01*
X110691506Y-139937948D01*
X110691507Y-139937948D01*
X110691508Y-139937949D01*
X110691510Y-139937950D01*
X110852288Y-140004546D01*
X110852293Y-140004548D01*
X111022978Y-140038499D01*
X111022982Y-140038500D01*
X111022983Y-140038500D01*
X111197018Y-140038500D01*
X111197019Y-140038499D01*
X111367707Y-140004548D01*
X111528494Y-139937948D01*
X111673198Y-139841259D01*
X111796259Y-139718198D01*
X111892948Y-139573494D01*
X111959548Y-139412707D01*
X111993500Y-139242017D01*
X111993500Y-139147498D01*
X160709384Y-139147498D01*
X160709384Y-139147501D01*
X160727813Y-139358149D01*
X160727815Y-139358160D01*
X160782541Y-139562402D01*
X160782543Y-139562406D01*
X160782544Y-139562410D01*
X160787713Y-139573494D01*
X160871910Y-139754056D01*
X160871911Y-139754058D01*
X160993200Y-139927278D01*
X161142721Y-140076799D01*
X161142724Y-140076801D01*
X161315942Y-140198089D01*
X161507590Y-140287456D01*
X161711845Y-140342186D01*
X161862312Y-140355350D01*
X161922498Y-140360616D01*
X161922500Y-140360616D01*
X161922502Y-140360616D01*
X161975163Y-140356008D01*
X162133155Y-140342186D01*
X162337410Y-140287456D01*
X162529058Y-140198089D01*
X162702276Y-140076801D01*
X162851801Y-139927276D01*
X162973089Y-139754058D01*
X163062456Y-139562410D01*
X163117186Y-139358155D01*
X163135616Y-139147500D01*
X163135616Y-139147498D01*
X171709384Y-139147498D01*
X171709384Y-139147501D01*
X171727813Y-139358149D01*
X171727815Y-139358160D01*
X171782541Y-139562402D01*
X171782543Y-139562406D01*
X171782544Y-139562410D01*
X171787713Y-139573494D01*
X171871910Y-139754056D01*
X171871911Y-139754058D01*
X171993200Y-139927278D01*
X172142721Y-140076799D01*
X172142724Y-140076801D01*
X172315942Y-140198089D01*
X172507590Y-140287456D01*
X172711845Y-140342186D01*
X172862312Y-140355350D01*
X172922498Y-140360616D01*
X172922500Y-140360616D01*
X172922502Y-140360616D01*
X172975163Y-140356008D01*
X173133155Y-140342186D01*
X173337410Y-140287456D01*
X173529058Y-140198089D01*
X173702276Y-140076801D01*
X173851801Y-139927276D01*
X173973089Y-139754058D01*
X174062456Y-139562410D01*
X174117186Y-139358155D01*
X174135616Y-139147500D01*
X174117186Y-138936845D01*
X174069791Y-138759964D01*
X174062458Y-138732597D01*
X174062457Y-138732596D01*
X174062456Y-138732590D01*
X173973089Y-138540942D01*
X173862322Y-138382750D01*
X173851799Y-138367721D01*
X173702278Y-138218200D01*
X173529058Y-138096911D01*
X173529056Y-138096910D01*
X173507571Y-138086891D01*
X173337410Y-138007544D01*
X173337406Y-138007543D01*
X173337402Y-138007541D01*
X173133160Y-137952815D01*
X173133156Y-137952814D01*
X173133155Y-137952814D01*
X173133154Y-137952813D01*
X173133149Y-137952813D01*
X172922502Y-137934384D01*
X172922498Y-137934384D01*
X172711850Y-137952813D01*
X172711839Y-137952815D01*
X172507597Y-138007541D01*
X172507588Y-138007545D01*
X172315943Y-138096910D01*
X172315941Y-138096911D01*
X172142721Y-138218200D01*
X171993200Y-138367721D01*
X171871911Y-138540941D01*
X171871910Y-138540943D01*
X171782545Y-138732588D01*
X171782541Y-138732597D01*
X171727815Y-138936839D01*
X171727813Y-138936850D01*
X171709384Y-139147498D01*
X163135616Y-139147498D01*
X163117186Y-138936845D01*
X163069791Y-138759964D01*
X163062458Y-138732597D01*
X163062457Y-138732596D01*
X163062456Y-138732590D01*
X162973089Y-138540942D01*
X162862322Y-138382750D01*
X162851799Y-138367721D01*
X162702278Y-138218200D01*
X162529058Y-138096911D01*
X162529056Y-138096910D01*
X162507571Y-138086891D01*
X162337410Y-138007544D01*
X162337406Y-138007543D01*
X162337402Y-138007541D01*
X162133160Y-137952815D01*
X162133156Y-137952814D01*
X162133155Y-137952814D01*
X162133154Y-137952813D01*
X162133149Y-137952813D01*
X161922502Y-137934384D01*
X161922498Y-137934384D01*
X161711850Y-137952813D01*
X161711839Y-137952815D01*
X161507597Y-138007541D01*
X161507588Y-138007545D01*
X161315943Y-138096910D01*
X161315941Y-138096911D01*
X161142721Y-138218200D01*
X160993200Y-138367721D01*
X160871911Y-138540941D01*
X160871910Y-138540943D01*
X160782545Y-138732588D01*
X160782541Y-138732597D01*
X160727815Y-138936839D01*
X160727813Y-138936850D01*
X160709384Y-139147498D01*
X111993500Y-139147498D01*
X111993500Y-139067983D01*
X111959548Y-138897293D01*
X111927113Y-138818987D01*
X111892950Y-138736510D01*
X111892949Y-138736508D01*
X111892084Y-138735214D01*
X111796259Y-138591802D01*
X111796256Y-138591798D01*
X111673201Y-138468743D01*
X111673197Y-138468740D01*
X111528491Y-138372050D01*
X111528489Y-138372049D01*
X111367711Y-138305453D01*
X111367699Y-138305450D01*
X111197021Y-138271500D01*
X111197017Y-138271500D01*
X111022983Y-138271500D01*
X111022978Y-138271500D01*
X110852300Y-138305450D01*
X110852288Y-138305453D01*
X110691510Y-138372049D01*
X110691508Y-138372050D01*
X110546802Y-138468740D01*
X110546798Y-138468743D01*
X110423743Y-138591798D01*
X110423740Y-138591802D01*
X110327051Y-138736506D01*
X110324561Y-138742520D01*
X110280719Y-138796923D01*
X110214425Y-138818987D01*
X110146725Y-138801707D01*
X110099115Y-138750569D01*
X110095439Y-138742520D01*
X110092948Y-138736506D01*
X109996259Y-138591802D01*
X109996256Y-138591798D01*
X109873201Y-138468743D01*
X109873197Y-138468740D01*
X109728491Y-138372050D01*
X109728489Y-138372049D01*
X109567711Y-138305453D01*
X109567699Y-138305450D01*
X109397021Y-138271500D01*
X109397017Y-138271500D01*
X109222983Y-138271500D01*
X109222978Y-138271500D01*
X109052300Y-138305450D01*
X109052288Y-138305453D01*
X108891510Y-138372049D01*
X108891508Y-138372050D01*
X108746802Y-138468740D01*
X108746798Y-138468743D01*
X108623743Y-138591798D01*
X108623740Y-138591802D01*
X108527050Y-138736508D01*
X108527049Y-138736510D01*
X108460453Y-138897288D01*
X108460450Y-138897300D01*
X108426500Y-139067978D01*
X105323323Y-139067978D01*
X105304748Y-138974593D01*
X105304746Y-138974588D01*
X105238150Y-138813810D01*
X105238149Y-138813808D01*
X105230063Y-138801707D01*
X105141459Y-138669102D01*
X105141456Y-138669098D01*
X105018401Y-138546043D01*
X105018397Y-138546040D01*
X104873691Y-138449350D01*
X104873689Y-138449349D01*
X104712911Y-138382753D01*
X104712899Y-138382750D01*
X104542221Y-138348800D01*
X104542217Y-138348800D01*
X104368183Y-138348800D01*
X104368178Y-138348800D01*
X104197500Y-138382750D01*
X104197488Y-138382753D01*
X104036710Y-138449349D01*
X104036708Y-138449350D01*
X103892002Y-138546040D01*
X103891998Y-138546043D01*
X103768943Y-138669098D01*
X103768940Y-138669102D01*
X103672251Y-138813806D01*
X103669761Y-138819820D01*
X103625919Y-138874223D01*
X103559625Y-138896287D01*
X103491925Y-138879007D01*
X103444315Y-138827869D01*
X103440639Y-138819820D01*
X103438148Y-138813806D01*
X103341459Y-138669102D01*
X103341456Y-138669098D01*
X103218401Y-138546043D01*
X103218397Y-138546040D01*
X103073691Y-138449350D01*
X103073689Y-138449349D01*
X102912911Y-138382753D01*
X102912899Y-138382750D01*
X102742221Y-138348800D01*
X102742217Y-138348800D01*
X102568183Y-138348800D01*
X102568178Y-138348800D01*
X102397500Y-138382750D01*
X102397488Y-138382753D01*
X102236710Y-138449349D01*
X102236708Y-138449350D01*
X102092002Y-138546040D01*
X102091998Y-138546043D01*
X101968943Y-138669098D01*
X101968940Y-138669102D01*
X101872250Y-138813808D01*
X101872249Y-138813810D01*
X101805653Y-138974588D01*
X101805650Y-138974600D01*
X101771700Y-139145278D01*
X97509879Y-139145278D01*
X97488684Y-139071710D01*
X97485785Y-139064710D01*
X97355078Y-138749153D01*
X97355076Y-138749149D01*
X97351412Y-138742520D01*
X97186189Y-138443572D01*
X96984153Y-138158828D01*
X96984152Y-138158827D01*
X96984148Y-138158821D01*
X96751506Y-137898496D01*
X96751503Y-137898493D01*
X96491178Y-137665851D01*
X96206428Y-137463811D01*
X95900850Y-137294923D01*
X95900846Y-137294921D01*
X95578294Y-137161317D01*
X95242800Y-137064662D01*
X95242792Y-137064660D01*
X94898597Y-137006179D01*
X94898585Y-137006177D01*
X94550000Y-136986602D01*
X94201414Y-137006177D01*
X94201402Y-137006179D01*
X93857207Y-137064660D01*
X93857199Y-137064662D01*
X93521705Y-137161317D01*
X93199153Y-137294921D01*
X93199149Y-137294923D01*
X92893571Y-137463811D01*
X92608821Y-137665851D01*
X92348496Y-137898493D01*
X92348493Y-137898496D01*
X92115851Y-138158821D01*
X91913811Y-138443571D01*
X91774128Y-138696308D01*
X91724471Y-138745461D01*
X91656123Y-138759964D01*
X91590784Y-138735214D01*
X91549199Y-138679067D01*
X91541600Y-138636327D01*
X91541600Y-133250000D01*
X123861496Y-133250000D01*
X123881458Y-133439928D01*
X123881459Y-133439931D01*
X123940470Y-133621549D01*
X123940473Y-133621556D01*
X124035960Y-133786944D01*
X124163747Y-133928866D01*
X124318248Y-134041118D01*
X124492712Y-134118794D01*
X124679513Y-134158500D01*
X124870487Y-134158500D01*
X125057288Y-134118794D01*
X125231752Y-134041118D01*
X125386253Y-133928866D01*
X125390160Y-133924527D01*
X125449646Y-133887879D01*
X125482309Y-133883500D01*
X151820426Y-133883500D01*
X151887465Y-133903185D01*
X151893296Y-133907171D01*
X152043248Y-134016118D01*
X152217712Y-134093794D01*
X152404513Y-134133500D01*
X152595487Y-134133500D01*
X152782288Y-134093794D01*
X152956752Y-134016118D01*
X153111253Y-133903866D01*
X153239040Y-133761944D01*
X153334527Y-133596556D01*
X153393542Y-133414928D01*
X153413504Y-133225000D01*
X153393542Y-133035072D01*
X153334527Y-132853444D01*
X153239040Y-132688056D01*
X153111253Y-132546134D01*
X152956752Y-132433882D01*
X152782288Y-132356206D01*
X152782286Y-132356205D01*
X152595487Y-132316500D01*
X152404513Y-132316500D01*
X152217714Y-132356205D01*
X152217712Y-132356206D01*
X152101082Y-132408133D01*
X152043246Y-132433883D01*
X151888744Y-132546136D01*
X151888741Y-132546138D01*
X151862330Y-132575472D01*
X151802843Y-132612121D01*
X151770180Y-132616500D01*
X138799403Y-132616500D01*
X138732364Y-132596815D01*
X138686609Y-132544011D01*
X138676665Y-132474853D01*
X138705690Y-132411297D01*
X138764468Y-132373523D01*
X138768566Y-132372396D01*
X138776558Y-132370343D01*
X138835739Y-132355149D01*
X138835742Y-132355148D01*
X139117508Y-132243589D01*
X139117509Y-132243588D01*
X139117507Y-132243588D01*
X139117517Y-132243585D01*
X139383090Y-132097584D01*
X139628271Y-131919450D01*
X139849192Y-131711992D01*
X140042370Y-131478480D01*
X140204758Y-131222598D01*
X140333794Y-130948381D01*
X140427445Y-130660154D01*
X140484233Y-130362462D01*
X140503262Y-130060000D01*
X140500345Y-130013637D01*
X140484234Y-129757548D01*
X140484233Y-129757544D01*
X140484233Y-129757538D01*
X140427445Y-129459846D01*
X140333794Y-129171619D01*
X140322445Y-129147500D01*
X167659154Y-129147500D01*
X167678517Y-129442924D01*
X167678518Y-129442936D01*
X167736274Y-129733289D01*
X167736279Y-129733309D01*
X167831437Y-130013637D01*
X167831441Y-130013647D01*
X167962379Y-130279163D01*
X167962388Y-130279178D01*
X168126868Y-130525339D01*
X168322072Y-130747927D01*
X168495893Y-130900364D01*
X168544662Y-130943133D01*
X168790827Y-131107615D01*
X168790830Y-131107616D01*
X168790836Y-131107620D01*
X169056352Y-131238558D01*
X169056362Y-131238562D01*
X169336690Y-131333720D01*
X169336694Y-131333721D01*
X169336703Y-131333724D01*
X169532993Y-131372769D01*
X169627063Y-131391481D01*
X169627064Y-131391481D01*
X169627074Y-131391483D01*
X169922500Y-131410846D01*
X170217926Y-131391483D01*
X170508297Y-131333724D01*
X170508309Y-131333720D01*
X170788637Y-131238562D01*
X170788647Y-131238558D01*
X171054163Y-131107620D01*
X171054163Y-131107619D01*
X171054173Y-131107615D01*
X171300338Y-130943133D01*
X171522927Y-130747927D01*
X171718133Y-130525338D01*
X171882615Y-130279173D01*
X172013559Y-130013645D01*
X172108724Y-129733297D01*
X172166483Y-129442926D01*
X172185846Y-129147500D01*
X172166483Y-128852074D01*
X172108724Y-128561703D01*
X172108720Y-128561690D01*
X172013562Y-128281362D01*
X172013558Y-128281352D01*
X171882620Y-128015836D01*
X171882611Y-128015821D01*
X171834624Y-127944003D01*
X171718133Y-127769662D01*
X171645114Y-127686400D01*
X171522927Y-127547072D01*
X171300339Y-127351868D01*
X171054178Y-127187388D01*
X171054163Y-127187379D01*
X170788647Y-127056441D01*
X170788637Y-127056437D01*
X170508309Y-126961279D01*
X170508289Y-126961274D01*
X170217936Y-126903518D01*
X170217927Y-126903517D01*
X170217926Y-126903517D01*
X169922500Y-126884154D01*
X169627074Y-126903517D01*
X169627073Y-126903517D01*
X169627063Y-126903518D01*
X169336710Y-126961274D01*
X169336690Y-126961279D01*
X169056362Y-127056437D01*
X169056352Y-127056441D01*
X168790836Y-127187379D01*
X168790821Y-127187388D01*
X168544660Y-127351868D01*
X168322072Y-127547072D01*
X168126868Y-127769660D01*
X167962388Y-128015821D01*
X167962379Y-128015836D01*
X167831441Y-128281352D01*
X167831437Y-128281362D01*
X167736279Y-128561690D01*
X167736274Y-128561710D01*
X167678518Y-128852063D01*
X167678517Y-128852075D01*
X167659154Y-129147500D01*
X140322445Y-129147500D01*
X140204758Y-128897402D01*
X140135833Y-128788794D01*
X140042373Y-128641524D01*
X140042370Y-128641520D01*
X139849192Y-128408008D01*
X139628271Y-128200550D01*
X139628268Y-128200548D01*
X139628262Y-128200543D01*
X139383101Y-128022423D01*
X139383094Y-128022418D01*
X139383090Y-128022416D01*
X139117517Y-127876415D01*
X139117514Y-127876413D01*
X139117509Y-127876411D01*
X139117508Y-127876410D01*
X138835742Y-127764851D01*
X138835739Y-127764850D01*
X138542197Y-127689483D01*
X138241539Y-127651500D01*
X138241530Y-127651500D01*
X137938470Y-127651500D01*
X137938460Y-127651500D01*
X137637802Y-127689483D01*
X137344260Y-127764850D01*
X137344257Y-127764851D01*
X137062491Y-127876410D01*
X137062490Y-127876411D01*
X136796910Y-128022416D01*
X136796898Y-128022423D01*
X136551737Y-128200543D01*
X136551727Y-128200551D01*
X136330810Y-128408006D01*
X136137626Y-128641524D01*
X135975247Y-128897393D01*
X135975244Y-128897397D01*
X135975242Y-128897402D01*
X135846206Y-129171619D01*
X135846204Y-129171624D01*
X135846203Y-129171625D01*
X135758053Y-129442924D01*
X135752555Y-129459846D01*
X135700393Y-129733289D01*
X135695766Y-129757544D01*
X135695765Y-129757548D01*
X135676738Y-130059994D01*
X135676738Y-130060005D01*
X135695765Y-130362451D01*
X135695766Y-130362455D01*
X135695766Y-130362459D01*
X135695767Y-130362462D01*
X135752555Y-130660154D01*
X135752557Y-130660159D01*
X135846203Y-130948374D01*
X135846204Y-130948375D01*
X135846206Y-130948381D01*
X135975242Y-131222598D01*
X135975246Y-131222605D01*
X135975247Y-131222606D01*
X136137626Y-131478475D01*
X136137629Y-131478479D01*
X136137630Y-131478480D01*
X136330808Y-131711992D01*
X136551727Y-131919448D01*
X136551737Y-131919456D01*
X136796898Y-132097576D01*
X136796903Y-132097578D01*
X136796910Y-132097584D01*
X137062483Y-132243585D01*
X137062488Y-132243587D01*
X137062490Y-132243588D01*
X137062491Y-132243589D01*
X137344258Y-132355148D01*
X137344261Y-132355149D01*
X137386564Y-132366010D01*
X137411434Y-132372396D01*
X137471472Y-132408133D01*
X137502658Y-132470657D01*
X137495090Y-132540116D01*
X137451172Y-132594457D01*
X137384846Y-132616427D01*
X137380597Y-132616500D01*
X125482309Y-132616500D01*
X125415270Y-132596815D01*
X125390160Y-132575473D01*
X125386254Y-132571135D01*
X125351844Y-132546134D01*
X125231752Y-132458882D01*
X125057288Y-132381206D01*
X125057286Y-132381205D01*
X124870487Y-132341500D01*
X124679513Y-132341500D01*
X124492714Y-132381205D01*
X124318246Y-132458883D01*
X124163745Y-132571135D01*
X124035959Y-132713057D01*
X123940473Y-132878443D01*
X123940470Y-132878450D01*
X123889582Y-133035068D01*
X123881458Y-133060072D01*
X123861496Y-133250000D01*
X91541600Y-133250000D01*
X91541600Y-130059994D01*
X117076738Y-130059994D01*
X117076738Y-130060005D01*
X117095765Y-130362451D01*
X117095766Y-130362455D01*
X117095766Y-130362459D01*
X117095767Y-130362462D01*
X117152555Y-130660154D01*
X117152557Y-130660159D01*
X117246203Y-130948374D01*
X117246204Y-130948375D01*
X117246206Y-130948381D01*
X117375242Y-131222598D01*
X117375246Y-131222605D01*
X117375247Y-131222606D01*
X117537626Y-131478475D01*
X117537629Y-131478479D01*
X117537630Y-131478480D01*
X117730808Y-131711992D01*
X117951727Y-131919448D01*
X117951737Y-131919456D01*
X118196898Y-132097576D01*
X118196903Y-132097578D01*
X118196910Y-132097584D01*
X118462483Y-132243585D01*
X118462488Y-132243587D01*
X118462490Y-132243588D01*
X118462491Y-132243589D01*
X118744257Y-132355148D01*
X118744260Y-132355149D01*
X118815824Y-132373523D01*
X119037800Y-132430516D01*
X119185028Y-132449115D01*
X119338460Y-132468499D01*
X119338466Y-132468499D01*
X119338470Y-132468500D01*
X119338472Y-132468500D01*
X119641528Y-132468500D01*
X119641530Y-132468500D01*
X119641535Y-132468499D01*
X119641539Y-132468499D01*
X119721357Y-132458415D01*
X119942200Y-132430516D01*
X120235739Y-132355149D01*
X120235742Y-132355148D01*
X120517508Y-132243589D01*
X120517509Y-132243588D01*
X120517507Y-132243588D01*
X120517517Y-132243585D01*
X120783090Y-132097584D01*
X121028271Y-131919450D01*
X121249192Y-131711992D01*
X121442370Y-131478480D01*
X121604758Y-131222598D01*
X121733794Y-130948381D01*
X121827445Y-130660154D01*
X121884233Y-130362462D01*
X121903262Y-130060000D01*
X121900345Y-130013637D01*
X121884234Y-129757548D01*
X121884233Y-129757544D01*
X121884233Y-129757538D01*
X121827445Y-129459846D01*
X121733794Y-129171619D01*
X121604758Y-128897402D01*
X121535833Y-128788794D01*
X121442373Y-128641524D01*
X121442370Y-128641520D01*
X121249192Y-128408008D01*
X121028271Y-128200550D01*
X121028268Y-128200548D01*
X121028262Y-128200543D01*
X120783101Y-128022423D01*
X120783094Y-128022418D01*
X120783090Y-128022416D01*
X120517517Y-127876415D01*
X120517514Y-127876413D01*
X120517509Y-127876411D01*
X120517508Y-127876410D01*
X120235742Y-127764851D01*
X120235739Y-127764850D01*
X119942197Y-127689483D01*
X119641539Y-127651500D01*
X119641530Y-127651500D01*
X119338470Y-127651500D01*
X119338460Y-127651500D01*
X119037802Y-127689483D01*
X118744260Y-127764850D01*
X118744257Y-127764851D01*
X118462491Y-127876410D01*
X118462490Y-127876411D01*
X118196910Y-128022416D01*
X118196898Y-128022423D01*
X117951737Y-128200543D01*
X117951727Y-128200551D01*
X117730810Y-128408006D01*
X117537626Y-128641524D01*
X117375247Y-128897393D01*
X117375244Y-128897397D01*
X117375242Y-128897402D01*
X117246206Y-129171619D01*
X117246204Y-129171624D01*
X117246203Y-129171625D01*
X117158053Y-129442924D01*
X117152555Y-129459846D01*
X117100393Y-129733289D01*
X117095766Y-129757544D01*
X117095765Y-129757548D01*
X117076738Y-130059994D01*
X91541600Y-130059994D01*
X91541600Y-60257096D01*
X96047005Y-60257096D01*
X96047005Y-121317903D01*
X96071348Y-121440282D01*
X96071350Y-121440290D01*
X96119103Y-121555577D01*
X96119108Y-121555586D01*
X96188433Y-121659337D01*
X96188436Y-121659341D01*
X97243026Y-122713930D01*
X97276511Y-122775253D01*
X97278666Y-122788648D01*
X97284361Y-122842833D01*
X97284362Y-122842835D01*
X97343373Y-123024452D01*
X97343376Y-123024459D01*
X97438863Y-123189847D01*
X97566650Y-123331769D01*
X97721151Y-123444021D01*
X97895615Y-123521697D01*
X98082416Y-123561403D01*
X98273390Y-123561403D01*
X98460191Y-123521697D01*
X98634655Y-123444021D01*
X98789156Y-123331769D01*
X98916943Y-123189847D01*
X99012430Y-123024459D01*
X99071445Y-122842831D01*
X99091407Y-122652903D01*
X99071445Y-122462975D01*
X99012430Y-122281347D01*
X98916943Y-122115959D01*
X98789156Y-121974037D01*
X98634655Y-121861785D01*
X98460191Y-121784109D01*
X98460189Y-121784108D01*
X98273390Y-121744403D01*
X98116669Y-121744403D01*
X98049630Y-121724718D01*
X98028988Y-121708084D01*
X97350324Y-121029420D01*
X97316839Y-120968097D01*
X97314005Y-120941739D01*
X97314005Y-88641133D01*
X97333690Y-88574094D01*
X97386494Y-88528339D01*
X97455652Y-88518395D01*
X97463776Y-88519841D01*
X97504513Y-88528500D01*
X97504514Y-88528500D01*
X97695487Y-88528500D01*
X97882288Y-88488794D01*
X98056752Y-88411118D01*
X98211253Y-88298866D01*
X98211258Y-88298859D01*
X98215159Y-88295349D01*
X98278150Y-88265120D01*
X98298130Y-88263500D01*
X99042691Y-88263500D01*
X99109730Y-88283185D01*
X99134840Y-88304527D01*
X99138747Y-88308866D01*
X99293248Y-88421118D01*
X99467712Y-88498794D01*
X99654513Y-88538500D01*
X99845487Y-88538500D01*
X100032288Y-88498794D01*
X100206752Y-88421118D01*
X100361253Y-88308866D01*
X100489040Y-88166944D01*
X100584527Y-88001556D01*
X100643542Y-87819928D01*
X100663504Y-87630000D01*
X100643542Y-87440072D01*
X100584527Y-87258444D01*
X100489040Y-87093056D01*
X100361253Y-86951134D01*
X100206752Y-86838882D01*
X100032288Y-86761206D01*
X100032286Y-86761205D01*
X99845487Y-86721500D01*
X99654513Y-86721500D01*
X99467714Y-86761205D01*
X99407406Y-86788056D01*
X99315709Y-86828882D01*
X99293246Y-86838883D01*
X99138745Y-86951135D01*
X99134840Y-86955473D01*
X99075354Y-86992121D01*
X99042691Y-86996500D01*
X98316313Y-86996500D01*
X98249274Y-86976815D01*
X98224163Y-86955472D01*
X98211254Y-86941135D01*
X98201236Y-86933856D01*
X98056752Y-86828882D01*
X97882288Y-86751206D01*
X97882286Y-86751205D01*
X97695487Y-86711500D01*
X97504513Y-86711500D01*
X97479407Y-86716836D01*
X97463784Y-86720157D01*
X97394117Y-86714839D01*
X97338384Y-86672701D01*
X97314280Y-86607121D01*
X97314005Y-86598866D01*
X97314005Y-78163765D01*
X97333690Y-78096726D01*
X97350320Y-78076088D01*
X97750273Y-77676134D01*
X97811594Y-77642651D01*
X97881285Y-77647635D01*
X97888372Y-77650531D01*
X97917712Y-77663594D01*
X98104513Y-77703300D01*
X98295487Y-77703300D01*
X98482288Y-77663594D01*
X98656752Y-77585918D01*
X98811253Y-77473666D01*
X98939040Y-77331744D01*
X99034527Y-77166356D01*
X99093542Y-76984728D01*
X99113504Y-76794800D01*
X99093542Y-76604872D01*
X99034527Y-76423244D01*
X98939040Y-76257856D01*
X98811253Y-76115934D01*
X98656752Y-76003682D01*
X98482288Y-75926006D01*
X98482286Y-75926005D01*
X98295487Y-75886300D01*
X98104513Y-75886300D01*
X97917714Y-75926005D01*
X97743246Y-76003683D01*
X97588747Y-76115934D01*
X97530154Y-76181007D01*
X97470667Y-76217654D01*
X97400810Y-76216323D01*
X97342762Y-76177435D01*
X97314953Y-76113338D01*
X97314005Y-76098033D01*
X97314005Y-63850000D01*
X101436496Y-63850000D01*
X101456458Y-64039928D01*
X101456459Y-64039931D01*
X101515470Y-64221549D01*
X101515473Y-64221556D01*
X101610960Y-64386944D01*
X101738747Y-64528866D01*
X101893248Y-64641118D01*
X102067712Y-64718794D01*
X102254513Y-64758500D01*
X102367500Y-64758500D01*
X102434539Y-64778185D01*
X102480294Y-64830989D01*
X102491500Y-64882500D01*
X102491500Y-78792500D01*
X102471815Y-78859539D01*
X102419011Y-78905294D01*
X102367500Y-78916500D01*
X102279513Y-78916500D01*
X102092714Y-78956205D01*
X101918246Y-79033883D01*
X101763745Y-79146135D01*
X101635959Y-79288057D01*
X101540473Y-79453443D01*
X101540470Y-79453450D01*
X101503622Y-79566858D01*
X101481458Y-79635072D01*
X101461496Y-79825000D01*
X101481458Y-80014928D01*
X101481459Y-80014931D01*
X101540470Y-80196549D01*
X101540473Y-80196556D01*
X101635960Y-80361944D01*
X101694887Y-80427389D01*
X101743735Y-80481641D01*
X101763747Y-80503866D01*
X101918248Y-80616118D01*
X102092712Y-80693794D01*
X102279513Y-80733500D01*
X102367500Y-80733500D01*
X102434539Y-80753185D01*
X102480294Y-80805989D01*
X102491500Y-80857500D01*
X102491500Y-124588539D01*
X102471815Y-124655578D01*
X102419011Y-124701333D01*
X102393281Y-124709829D01*
X102292714Y-124731205D01*
X102118246Y-124808883D01*
X101963745Y-124921135D01*
X101835959Y-125063057D01*
X101740473Y-125228443D01*
X101740470Y-125228450D01*
X101681459Y-125410068D01*
X101681458Y-125410072D01*
X101661496Y-125600000D01*
X101681458Y-125789928D01*
X101681459Y-125789931D01*
X101740470Y-125971549D01*
X101740471Y-125971551D01*
X101740473Y-125971556D01*
X101835960Y-126136944D01*
X101912180Y-126221595D01*
X101964343Y-126279528D01*
X101994573Y-126342519D01*
X101985948Y-126411855D01*
X101964343Y-126445472D01*
X101835959Y-126588057D01*
X101740473Y-126753443D01*
X101740470Y-126753450D01*
X101681459Y-126935068D01*
X101681458Y-126935072D01*
X101661496Y-127125000D01*
X101681458Y-127314928D01*
X101681459Y-127314931D01*
X101740470Y-127496549D01*
X101740473Y-127496556D01*
X101835960Y-127661944D01*
X101963747Y-127803866D01*
X102118248Y-127916118D01*
X102292712Y-127993794D01*
X102479513Y-128033500D01*
X102670487Y-128033500D01*
X102857288Y-127993794D01*
X103031752Y-127916118D01*
X103186253Y-127803866D01*
X103190160Y-127799527D01*
X103249646Y-127762879D01*
X103282309Y-127758500D01*
X103587395Y-127758500D01*
X103587396Y-127758499D01*
X103709785Y-127734155D01*
X103825075Y-127686400D01*
X103928833Y-127617071D01*
X105292071Y-126253833D01*
X105361400Y-126150075D01*
X105409155Y-126034785D01*
X105433500Y-125912394D01*
X105433500Y-125787607D01*
X105433500Y-123500000D01*
X106461496Y-123500000D01*
X106481458Y-123689928D01*
X106481459Y-123689931D01*
X106540470Y-123871549D01*
X106540473Y-123871556D01*
X106635960Y-124036944D01*
X106763747Y-124178866D01*
X106918248Y-124291118D01*
X107092712Y-124368794D01*
X107279513Y-124408500D01*
X107470487Y-124408500D01*
X107657288Y-124368794D01*
X107831752Y-124291118D01*
X107986253Y-124178866D01*
X108114040Y-124036944D01*
X108209527Y-123871556D01*
X108268542Y-123689928D01*
X108285981Y-123523999D01*
X108312564Y-123459388D01*
X108321611Y-123449292D01*
X109226086Y-122544819D01*
X109287409Y-122511334D01*
X109313767Y-122508500D01*
X109370487Y-122508500D01*
X109557288Y-122468794D01*
X109731752Y-122391118D01*
X109886253Y-122278866D01*
X110000350Y-122152147D01*
X110059836Y-122115499D01*
X110129693Y-122116829D01*
X110187742Y-122155716D01*
X110215552Y-122219813D01*
X110216500Y-122235120D01*
X110216500Y-125566233D01*
X110196815Y-125633272D01*
X110180181Y-125653914D01*
X108858915Y-126975181D01*
X108797592Y-127008666D01*
X108771234Y-127011500D01*
X108714513Y-127011500D01*
X108527714Y-127051205D01*
X108353246Y-127128883D01*
X108198745Y-127241135D01*
X108070959Y-127383057D01*
X107975473Y-127548443D01*
X107975470Y-127548450D01*
X107916459Y-127730068D01*
X107916458Y-127730072D01*
X107896496Y-127920000D01*
X107916458Y-128109928D01*
X107916459Y-128109931D01*
X107975470Y-128291549D01*
X107975473Y-128291556D01*
X108070960Y-128456944D01*
X108198747Y-128598866D01*
X108353248Y-128711118D01*
X108527712Y-128788794D01*
X108714513Y-128828500D01*
X108905487Y-128828500D01*
X109092288Y-128788794D01*
X109266752Y-128711118D01*
X109421253Y-128598866D01*
X109549040Y-128456944D01*
X109644527Y-128291556D01*
X109703542Y-128109928D01*
X109720981Y-127943999D01*
X109747564Y-127879388D01*
X109756611Y-127869292D01*
X111342072Y-126283833D01*
X111411401Y-126180075D01*
X111447853Y-126092071D01*
X111459155Y-126064785D01*
X111465123Y-126034785D01*
X111483499Y-125942398D01*
X111483500Y-125942395D01*
X111483500Y-123150000D01*
X111761496Y-123150000D01*
X111781458Y-123339928D01*
X111781459Y-123339931D01*
X111840470Y-123521549D01*
X111840473Y-123521556D01*
X111935959Y-123686943D01*
X111944070Y-123695951D01*
X112009649Y-123768784D01*
X112039880Y-123831775D01*
X112041500Y-123851756D01*
X112041500Y-124298241D01*
X112021815Y-124365280D01*
X112009650Y-124381213D01*
X111935963Y-124463050D01*
X111935958Y-124463057D01*
X111840473Y-124628443D01*
X111840470Y-124628450D01*
X111781844Y-124808883D01*
X111781458Y-124810072D01*
X111761496Y-125000000D01*
X111781458Y-125189928D01*
X111781459Y-125189931D01*
X111840470Y-125371549D01*
X111840473Y-125371556D01*
X111935960Y-125536944D01*
X112063747Y-125678866D01*
X112218248Y-125791118D01*
X112392712Y-125868794D01*
X112579513Y-125908500D01*
X112770487Y-125908500D01*
X112957288Y-125868794D01*
X113131752Y-125791118D01*
X113286253Y-125678866D01*
X113414040Y-125536944D01*
X113509527Y-125371556D01*
X113568542Y-125189928D01*
X113588504Y-125000000D01*
X113568542Y-124810072D01*
X113509527Y-124628444D01*
X113414040Y-124463056D01*
X113414036Y-124463050D01*
X113340350Y-124381213D01*
X113310120Y-124318221D01*
X113308500Y-124298241D01*
X113308500Y-123851756D01*
X113328185Y-123784717D01*
X113340346Y-123768788D01*
X113414040Y-123686944D01*
X113509527Y-123521556D01*
X113568542Y-123339928D01*
X113588504Y-123150000D01*
X113568542Y-122960072D01*
X113509527Y-122778444D01*
X113414040Y-122613056D01*
X113286253Y-122471134D01*
X113131752Y-122358882D01*
X112957288Y-122281206D01*
X112957286Y-122281205D01*
X112770487Y-122241500D01*
X112579513Y-122241500D01*
X112392714Y-122281205D01*
X112218246Y-122358883D01*
X112063745Y-122471135D01*
X111935959Y-122613057D01*
X111840473Y-122778443D01*
X111840470Y-122778450D01*
X111781459Y-122960068D01*
X111781458Y-122960072D01*
X111761496Y-123150000D01*
X111483500Y-123150000D01*
X111483500Y-110125000D01*
X122396496Y-110125000D01*
X122416458Y-110314928D01*
X122416459Y-110314931D01*
X122475470Y-110496549D01*
X122475473Y-110496556D01*
X122570960Y-110661944D01*
X122698747Y-110803866D01*
X122853248Y-110916118D01*
X123027712Y-110993794D01*
X123214513Y-111033500D01*
X123405487Y-111033500D01*
X123592288Y-110993794D01*
X123766752Y-110916118D01*
X123916689Y-110807181D01*
X123982494Y-110783702D01*
X123989574Y-110783500D01*
X140262395Y-110783500D01*
X140262396Y-110783499D01*
X140384785Y-110759155D01*
X140500075Y-110711400D01*
X140603833Y-110642071D01*
X141626085Y-109619819D01*
X141687408Y-109586334D01*
X141713766Y-109583500D01*
X141770487Y-109583500D01*
X141957288Y-109543794D01*
X142131752Y-109466118D01*
X142286253Y-109353866D01*
X142414040Y-109211944D01*
X142509527Y-109046556D01*
X142568542Y-108864928D01*
X142588504Y-108675000D01*
X142568542Y-108485072D01*
X142509527Y-108303444D01*
X142414040Y-108138056D01*
X142286253Y-107996134D01*
X142131752Y-107883882D01*
X141957288Y-107806206D01*
X141957286Y-107806205D01*
X141770487Y-107766500D01*
X141579513Y-107766500D01*
X141392714Y-107806205D01*
X141218246Y-107883883D01*
X141063745Y-107996135D01*
X140935959Y-108138057D01*
X140840473Y-108303443D01*
X140840470Y-108303450D01*
X140781459Y-108485068D01*
X140781458Y-108485072D01*
X140764019Y-108650996D01*
X140737434Y-108715610D01*
X140728379Y-108725715D01*
X139973915Y-109480181D01*
X139912592Y-109513666D01*
X139886234Y-109516500D01*
X124039820Y-109516500D01*
X123972781Y-109496815D01*
X123947670Y-109475472D01*
X123921258Y-109446138D01*
X123921255Y-109446136D01*
X123921254Y-109446135D01*
X123921253Y-109446134D01*
X123766752Y-109333882D01*
X123592288Y-109256206D01*
X123592286Y-109256205D01*
X123405487Y-109216500D01*
X123214513Y-109216500D01*
X123027714Y-109256205D01*
X122853246Y-109333883D01*
X122698745Y-109446135D01*
X122570959Y-109588057D01*
X122475473Y-109753443D01*
X122475470Y-109753450D01*
X122416459Y-109935068D01*
X122416458Y-109935072D01*
X122396496Y-110125000D01*
X111483500Y-110125000D01*
X111483500Y-105563766D01*
X111503185Y-105496727D01*
X111519819Y-105476085D01*
X113635910Y-103359994D01*
X117076738Y-103359994D01*
X117076738Y-103360005D01*
X117095765Y-103662451D01*
X117095766Y-103662455D01*
X117095766Y-103662459D01*
X117095767Y-103662462D01*
X117152555Y-103960154D01*
X117152557Y-103960159D01*
X117246203Y-104248374D01*
X117246204Y-104248375D01*
X117246206Y-104248381D01*
X117375242Y-104522598D01*
X117375246Y-104522605D01*
X117375247Y-104522606D01*
X117537626Y-104778475D01*
X117537629Y-104778479D01*
X117537630Y-104778480D01*
X117730808Y-105011992D01*
X117951727Y-105219448D01*
X117951737Y-105219456D01*
X118196898Y-105397576D01*
X118196903Y-105397578D01*
X118196910Y-105397584D01*
X118462483Y-105543585D01*
X118462488Y-105543587D01*
X118462490Y-105543588D01*
X118462491Y-105543589D01*
X118744257Y-105655148D01*
X118744260Y-105655149D01*
X118842107Y-105680271D01*
X119037800Y-105730516D01*
X119185028Y-105749115D01*
X119338460Y-105768499D01*
X119338466Y-105768499D01*
X119338470Y-105768500D01*
X119338472Y-105768500D01*
X119641528Y-105768500D01*
X119641530Y-105768500D01*
X119641535Y-105768499D01*
X119641539Y-105768499D01*
X119721357Y-105758415D01*
X119942200Y-105730516D01*
X120235739Y-105655149D01*
X120235742Y-105655148D01*
X120517508Y-105543589D01*
X120517509Y-105543588D01*
X120517507Y-105543588D01*
X120517517Y-105543585D01*
X120783090Y-105397584D01*
X121028271Y-105219450D01*
X121249192Y-105011992D01*
X121442370Y-104778480D01*
X121604758Y-104522598D01*
X121733794Y-104248381D01*
X121827445Y-103960154D01*
X121884233Y-103662462D01*
X121903262Y-103360000D01*
X121903262Y-103359994D01*
X135676738Y-103359994D01*
X135676738Y-103360005D01*
X135695765Y-103662451D01*
X135695766Y-103662455D01*
X135695766Y-103662459D01*
X135695767Y-103662462D01*
X135752555Y-103960154D01*
X135752557Y-103960159D01*
X135846203Y-104248374D01*
X135846204Y-104248375D01*
X135846206Y-104248381D01*
X135975242Y-104522598D01*
X135975246Y-104522605D01*
X135975247Y-104522606D01*
X136137626Y-104778475D01*
X136137629Y-104778479D01*
X136137630Y-104778480D01*
X136330808Y-105011992D01*
X136551727Y-105219448D01*
X136551737Y-105219456D01*
X136796898Y-105397576D01*
X136796903Y-105397578D01*
X136796910Y-105397584D01*
X137062483Y-105543585D01*
X137062488Y-105543587D01*
X137062490Y-105543588D01*
X137062491Y-105543589D01*
X137344257Y-105655148D01*
X137344260Y-105655149D01*
X137442107Y-105680271D01*
X137637800Y-105730516D01*
X137785028Y-105749115D01*
X137938460Y-105768499D01*
X137938466Y-105768499D01*
X137938470Y-105768500D01*
X137938472Y-105768500D01*
X138241528Y-105768500D01*
X138241530Y-105768500D01*
X138241535Y-105768499D01*
X138241539Y-105768499D01*
X138321357Y-105758415D01*
X138542200Y-105730516D01*
X138835739Y-105655149D01*
X138835742Y-105655148D01*
X139117508Y-105543589D01*
X139117509Y-105543588D01*
X139117507Y-105543588D01*
X139117517Y-105543585D01*
X139383090Y-105397584D01*
X139628271Y-105219450D01*
X139849192Y-105011992D01*
X140042370Y-104778480D01*
X140204758Y-104522598D01*
X140333794Y-104248381D01*
X140427445Y-103960154D01*
X140484233Y-103662462D01*
X140503262Y-103360000D01*
X140484233Y-103057538D01*
X140427445Y-102759846D01*
X140333794Y-102471619D01*
X140204758Y-102197402D01*
X140042370Y-101941520D01*
X139849192Y-101708008D01*
X139628271Y-101500550D01*
X139628268Y-101500548D01*
X139628262Y-101500543D01*
X139383101Y-101322423D01*
X139383094Y-101322418D01*
X139383090Y-101322416D01*
X139117517Y-101176415D01*
X139117514Y-101176413D01*
X139117509Y-101176411D01*
X139117508Y-101176410D01*
X138835742Y-101064851D01*
X138835739Y-101064850D01*
X138542197Y-100989483D01*
X138241539Y-100951500D01*
X138241530Y-100951500D01*
X137938470Y-100951500D01*
X137938460Y-100951500D01*
X137637802Y-100989483D01*
X137344260Y-101064850D01*
X137344257Y-101064851D01*
X137062491Y-101176410D01*
X137062490Y-101176411D01*
X136796910Y-101322416D01*
X136796898Y-101322423D01*
X136551737Y-101500543D01*
X136551727Y-101500551D01*
X136330810Y-101708006D01*
X136137626Y-101941524D01*
X135975247Y-102197393D01*
X135975244Y-102197397D01*
X135975242Y-102197402D01*
X135846206Y-102471619D01*
X135846204Y-102471624D01*
X135846203Y-102471625D01*
X135756850Y-102746626D01*
X135752555Y-102759846D01*
X135695767Y-103057538D01*
X135695766Y-103057544D01*
X135695765Y-103057548D01*
X135676738Y-103359994D01*
X121903262Y-103359994D01*
X121884233Y-103057538D01*
X121827445Y-102759846D01*
X121733794Y-102471619D01*
X121604758Y-102197402D01*
X121442370Y-101941520D01*
X121249192Y-101708008D01*
X121028271Y-101500550D01*
X121028268Y-101500548D01*
X121028262Y-101500543D01*
X120783101Y-101322423D01*
X120783094Y-101322418D01*
X120783090Y-101322416D01*
X120517517Y-101176415D01*
X120517514Y-101176413D01*
X120517509Y-101176411D01*
X120517508Y-101176410D01*
X120235742Y-101064851D01*
X120235739Y-101064850D01*
X119942197Y-100989483D01*
X119641539Y-100951500D01*
X119641530Y-100951500D01*
X119338470Y-100951500D01*
X119338460Y-100951500D01*
X119037802Y-100989483D01*
X118744260Y-101064850D01*
X118744257Y-101064851D01*
X118462491Y-101176410D01*
X118462490Y-101176411D01*
X118196910Y-101322416D01*
X118196898Y-101322423D01*
X117951737Y-101500543D01*
X117951727Y-101500551D01*
X117730810Y-101708006D01*
X117537626Y-101941524D01*
X117375247Y-102197393D01*
X117375244Y-102197397D01*
X117375242Y-102197402D01*
X117246206Y-102471619D01*
X117246204Y-102471624D01*
X117246203Y-102471625D01*
X117156850Y-102746626D01*
X117152555Y-102759846D01*
X117095767Y-103057538D01*
X117095766Y-103057544D01*
X117095765Y-103057548D01*
X117076738Y-103359994D01*
X113635910Y-103359994D01*
X119415904Y-97580000D01*
X144156496Y-97580000D01*
X144176458Y-97769928D01*
X144176459Y-97769931D01*
X144235470Y-97951549D01*
X144235473Y-97951556D01*
X144330959Y-98116943D01*
X144354649Y-98143253D01*
X144384880Y-98206245D01*
X144386500Y-98226226D01*
X144386500Y-116662398D01*
X144410843Y-116784777D01*
X144410845Y-116784785D01*
X144458598Y-116900072D01*
X144458603Y-116900081D01*
X144527928Y-117003832D01*
X144527931Y-117003836D01*
X153363966Y-125839870D01*
X153397451Y-125901193D01*
X153399605Y-125914587D01*
X153416458Y-126074928D01*
X153416459Y-126074931D01*
X153475470Y-126256549D01*
X153475473Y-126256556D01*
X153570960Y-126421944D01*
X153698747Y-126563866D01*
X153853248Y-126676118D01*
X154027712Y-126753794D01*
X154214513Y-126793500D01*
X154405487Y-126793500D01*
X154592288Y-126753794D01*
X154766752Y-126676118D01*
X154921253Y-126563866D01*
X155049040Y-126421944D01*
X155144527Y-126256556D01*
X155203542Y-126074928D01*
X155223504Y-125885000D01*
X155203542Y-125695072D01*
X155144527Y-125513444D01*
X155049040Y-125348056D01*
X154921253Y-125206134D01*
X154766752Y-125093882D01*
X154592288Y-125016206D01*
X154592286Y-125016205D01*
X154405487Y-124976500D01*
X154343766Y-124976500D01*
X154276727Y-124956815D01*
X154256085Y-124940181D01*
X145689819Y-116373915D01*
X145656334Y-116312592D01*
X145653500Y-116286234D01*
X145653500Y-113146129D01*
X158355500Y-113146129D01*
X158355500Y-113339870D01*
X158393292Y-113529868D01*
X158393295Y-113529877D01*
X158469764Y-113714491D01*
X158468603Y-113714971D01*
X158481400Y-113766053D01*
X158481400Y-113841854D01*
X158487911Y-113902402D01*
X158487911Y-113902404D01*
X158539011Y-114039404D01*
X158626639Y-114156461D01*
X158743696Y-114244089D01*
X158880699Y-114295189D01*
X158907950Y-114298118D01*
X158941245Y-114301699D01*
X158941262Y-114301700D01*
X159738538Y-114301700D01*
X159738554Y-114301699D01*
X159785177Y-114296685D01*
X159799101Y-114295189D01*
X159846566Y-114277484D01*
X159916257Y-114272500D01*
X159933229Y-114277483D01*
X159980699Y-114295189D01*
X159987660Y-114295937D01*
X160041245Y-114301699D01*
X160041262Y-114301700D01*
X160838538Y-114301700D01*
X160838554Y-114301699D01*
X160885177Y-114296685D01*
X160899101Y-114295189D01*
X160946566Y-114277484D01*
X161016257Y-114272500D01*
X161033229Y-114277483D01*
X161080699Y-114295189D01*
X161087660Y-114295937D01*
X161141245Y-114301699D01*
X161141262Y-114301700D01*
X162038538Y-114301700D01*
X162038554Y-114301699D01*
X162085177Y-114296685D01*
X162099101Y-114295189D01*
X162146566Y-114277484D01*
X162216257Y-114272500D01*
X162233229Y-114277483D01*
X162280699Y-114295189D01*
X162287660Y-114295937D01*
X162341245Y-114301699D01*
X162341262Y-114301700D01*
X163138538Y-114301700D01*
X163138554Y-114301699D01*
X163185177Y-114296685D01*
X163199101Y-114295189D01*
X163246566Y-114277484D01*
X163316257Y-114272500D01*
X163333229Y-114277483D01*
X163380699Y-114295189D01*
X163387660Y-114295937D01*
X163441245Y-114301699D01*
X163441262Y-114301700D01*
X164238538Y-114301700D01*
X164238554Y-114301699D01*
X164265592Y-114298791D01*
X164299101Y-114295189D01*
X164436104Y-114244089D01*
X164553161Y-114156461D01*
X164640789Y-114039404D01*
X164691889Y-113902401D01*
X164695491Y-113868892D01*
X164698399Y-113841854D01*
X164698400Y-113841837D01*
X164698400Y-113764588D01*
X164710741Y-113715790D01*
X164708995Y-113715073D01*
X164709131Y-113714742D01*
X164709216Y-113714562D01*
X164709929Y-113712819D01*
X164710152Y-113712278D01*
X164711567Y-113708862D01*
X164785705Y-113529876D01*
X164823500Y-113339866D01*
X164823500Y-113146134D01*
X164823163Y-113144440D01*
X164785707Y-112956131D01*
X164785704Y-112956122D01*
X164709236Y-112771510D01*
X164710779Y-112770870D01*
X164698400Y-112721444D01*
X164698400Y-112644562D01*
X164698399Y-112644545D01*
X164695057Y-112613470D01*
X164691889Y-112583999D01*
X164640789Y-112446996D01*
X164553161Y-112329939D01*
X164436104Y-112242311D01*
X164299103Y-112191211D01*
X164238554Y-112184700D01*
X164238538Y-112184700D01*
X163441262Y-112184700D01*
X163441245Y-112184700D01*
X163380702Y-112191210D01*
X163380691Y-112191212D01*
X163333232Y-112208914D01*
X163263540Y-112213898D01*
X163246568Y-112208914D01*
X163199108Y-112191212D01*
X163199097Y-112191210D01*
X163138554Y-112184700D01*
X163138538Y-112184700D01*
X162341262Y-112184700D01*
X162341245Y-112184700D01*
X162280702Y-112191210D01*
X162280691Y-112191212D01*
X162233232Y-112208914D01*
X162163540Y-112213898D01*
X162146568Y-112208914D01*
X162099108Y-112191212D01*
X162099097Y-112191210D01*
X162038554Y-112184700D01*
X162038538Y-112184700D01*
X161141262Y-112184700D01*
X161141245Y-112184700D01*
X161080702Y-112191210D01*
X161080691Y-112191212D01*
X161033232Y-112208914D01*
X160963540Y-112213898D01*
X160946568Y-112208914D01*
X160899108Y-112191212D01*
X160899097Y-112191210D01*
X160838554Y-112184700D01*
X160838538Y-112184700D01*
X160041262Y-112184700D01*
X160041245Y-112184700D01*
X159980702Y-112191210D01*
X159980691Y-112191212D01*
X159933232Y-112208914D01*
X159863540Y-112213898D01*
X159846568Y-112208914D01*
X159799108Y-112191212D01*
X159799097Y-112191210D01*
X159738554Y-112184700D01*
X159738538Y-112184700D01*
X158941262Y-112184700D01*
X158941245Y-112184700D01*
X158880697Y-112191211D01*
X158880695Y-112191211D01*
X158743695Y-112242311D01*
X158626639Y-112329939D01*
X158539011Y-112446995D01*
X158487911Y-112583995D01*
X158487911Y-112583997D01*
X158481400Y-112644545D01*
X158481400Y-112719947D01*
X158468605Y-112771030D01*
X158469764Y-112771510D01*
X158393295Y-112956122D01*
X158393292Y-112956131D01*
X158355500Y-113146129D01*
X145653500Y-113146129D01*
X145653500Y-109244545D01*
X158481400Y-109244545D01*
X158481400Y-110441854D01*
X158487911Y-110502402D01*
X158487911Y-110502404D01*
X158539011Y-110639404D01*
X158626639Y-110756461D01*
X158743696Y-110844089D01*
X158880699Y-110895189D01*
X158907950Y-110898118D01*
X158941245Y-110901699D01*
X158941262Y-110901700D01*
X159738538Y-110901700D01*
X159738554Y-110901699D01*
X159785177Y-110896685D01*
X159799101Y-110895189D01*
X159846566Y-110877484D01*
X159916257Y-110872500D01*
X159933229Y-110877483D01*
X159980699Y-110895189D01*
X159987660Y-110895937D01*
X160041245Y-110901699D01*
X160041262Y-110901700D01*
X160838538Y-110901700D01*
X160838554Y-110901699D01*
X160885177Y-110896685D01*
X160899101Y-110895189D01*
X160946566Y-110877484D01*
X161016257Y-110872500D01*
X161033229Y-110877483D01*
X161080699Y-110895189D01*
X161087660Y-110895937D01*
X161141245Y-110901699D01*
X161141262Y-110901700D01*
X162038538Y-110901700D01*
X162038554Y-110901699D01*
X162085177Y-110896685D01*
X162099101Y-110895189D01*
X162146566Y-110877484D01*
X162216257Y-110872500D01*
X162233229Y-110877483D01*
X162280699Y-110895189D01*
X162287660Y-110895937D01*
X162341245Y-110901699D01*
X162341262Y-110901700D01*
X163138538Y-110901700D01*
X163138554Y-110901699D01*
X163185177Y-110896685D01*
X163199101Y-110895189D01*
X163246566Y-110877484D01*
X163316257Y-110872500D01*
X163333229Y-110877483D01*
X163380699Y-110895189D01*
X163387660Y-110895937D01*
X163441245Y-110901699D01*
X163441262Y-110901700D01*
X164238538Y-110901700D01*
X164238554Y-110901699D01*
X164265592Y-110898791D01*
X164299101Y-110895189D01*
X164436104Y-110844089D01*
X164553161Y-110756461D01*
X164640789Y-110639404D01*
X164691889Y-110502401D01*
X164695491Y-110468892D01*
X164698399Y-110441854D01*
X164698400Y-110441837D01*
X164698400Y-109244562D01*
X164698399Y-109244545D01*
X164694893Y-109211942D01*
X164691889Y-109183999D01*
X164640789Y-109046996D01*
X164553161Y-108929939D01*
X164436104Y-108842311D01*
X164299103Y-108791211D01*
X164238554Y-108784700D01*
X164238538Y-108784700D01*
X163441262Y-108784700D01*
X163441245Y-108784700D01*
X163380702Y-108791210D01*
X163380691Y-108791212D01*
X163333232Y-108808914D01*
X163263540Y-108813898D01*
X163246568Y-108808914D01*
X163199108Y-108791212D01*
X163199097Y-108791210D01*
X163138554Y-108784700D01*
X163138538Y-108784700D01*
X162341262Y-108784700D01*
X162341245Y-108784700D01*
X162280702Y-108791210D01*
X162280691Y-108791212D01*
X162233232Y-108808914D01*
X162163540Y-108813898D01*
X162146568Y-108808914D01*
X162099108Y-108791212D01*
X162099097Y-108791210D01*
X162038554Y-108784700D01*
X162038538Y-108784700D01*
X161141262Y-108784700D01*
X161141245Y-108784700D01*
X161080702Y-108791210D01*
X161080691Y-108791212D01*
X161033232Y-108808914D01*
X160963540Y-108813898D01*
X160946568Y-108808914D01*
X160899108Y-108791212D01*
X160899097Y-108791210D01*
X160838554Y-108784700D01*
X160838538Y-108784700D01*
X160041262Y-108784700D01*
X160041245Y-108784700D01*
X159980702Y-108791210D01*
X159980691Y-108791212D01*
X159933232Y-108808914D01*
X159863540Y-108813898D01*
X159846568Y-108808914D01*
X159799108Y-108791212D01*
X159799097Y-108791210D01*
X159738554Y-108784700D01*
X159738538Y-108784700D01*
X158941262Y-108784700D01*
X158941245Y-108784700D01*
X158880697Y-108791211D01*
X158880695Y-108791211D01*
X158743695Y-108842311D01*
X158626639Y-108929939D01*
X158539011Y-109046995D01*
X158487911Y-109183995D01*
X158487911Y-109183997D01*
X158481400Y-109244545D01*
X145653500Y-109244545D01*
X145653500Y-98337287D01*
X145673185Y-98270248D01*
X145685345Y-98254320D01*
X145809040Y-98116944D01*
X145904527Y-97951556D01*
X145963542Y-97769928D01*
X145983504Y-97580000D01*
X145963542Y-97390072D01*
X145904527Y-97208444D01*
X145809040Y-97043056D01*
X145681253Y-96901134D01*
X145526752Y-96788882D01*
X145352288Y-96711206D01*
X145352286Y-96711205D01*
X145165487Y-96671500D01*
X144974513Y-96671500D01*
X144787714Y-96711205D01*
X144613246Y-96788883D01*
X144458745Y-96901135D01*
X144330959Y-97043057D01*
X144235473Y-97208443D01*
X144235470Y-97208450D01*
X144176459Y-97390068D01*
X144176458Y-97390072D01*
X144156496Y-97580000D01*
X119415904Y-97580000D01*
X125151085Y-91844819D01*
X125212408Y-91811334D01*
X125238766Y-91808500D01*
X134987395Y-91808500D01*
X134987396Y-91808499D01*
X135109785Y-91784155D01*
X135225075Y-91736400D01*
X135328833Y-91667071D01*
X135451086Y-91544817D01*
X135512407Y-91511334D01*
X135538766Y-91508500D01*
X135595487Y-91508500D01*
X135782288Y-91468794D01*
X135956752Y-91391118D01*
X136111253Y-91278866D01*
X136239040Y-91136944D01*
X136334527Y-90971556D01*
X136393542Y-90789928D01*
X136413504Y-90600000D01*
X136393542Y-90410072D01*
X136334527Y-90228444D01*
X136239040Y-90063056D01*
X136111253Y-89921134D01*
X135956752Y-89808882D01*
X135782288Y-89731206D01*
X135782286Y-89731205D01*
X135595487Y-89691500D01*
X135404513Y-89691500D01*
X135217714Y-89731205D01*
X135043246Y-89808883D01*
X134888745Y-89921135D01*
X134760959Y-90063057D01*
X134665473Y-90228443D01*
X134665470Y-90228450D01*
X134606457Y-90410073D01*
X134604315Y-90430460D01*
X134577731Y-90495075D01*
X134520434Y-90535061D01*
X134480994Y-90541500D01*
X124862601Y-90541500D01*
X124740222Y-90565843D01*
X124740214Y-90565845D01*
X124624927Y-90613598D01*
X124624918Y-90613603D01*
X124521167Y-90682928D01*
X124521163Y-90682931D01*
X113881680Y-101322416D01*
X110446167Y-104757929D01*
X110402047Y-104802049D01*
X110357927Y-104846168D01*
X110288603Y-104949918D01*
X110288598Y-104949927D01*
X110240845Y-105065214D01*
X110240843Y-105065222D01*
X110216500Y-105187601D01*
X110216500Y-120964879D01*
X110196815Y-121031918D01*
X110144011Y-121077673D01*
X110074853Y-121087617D01*
X110011297Y-121058592D01*
X110000350Y-121047851D01*
X109886254Y-120921135D01*
X109731753Y-120808883D01*
X109731752Y-120808882D01*
X109557288Y-120731206D01*
X109557286Y-120731205D01*
X109370487Y-120691500D01*
X109179513Y-120691500D01*
X108992714Y-120731205D01*
X108818246Y-120808883D01*
X108663745Y-120921135D01*
X108535959Y-121063057D01*
X108440473Y-121228443D01*
X108440470Y-121228450D01*
X108381459Y-121410068D01*
X108381458Y-121410072D01*
X108378283Y-121440282D01*
X108364019Y-121575995D01*
X108337434Y-121640609D01*
X108328379Y-121650714D01*
X107423915Y-122555181D01*
X107362592Y-122588666D01*
X107336234Y-122591500D01*
X107279513Y-122591500D01*
X107092714Y-122631205D01*
X106918246Y-122708883D01*
X106763745Y-122821135D01*
X106635959Y-122963057D01*
X106540473Y-123128443D01*
X106540470Y-123128450D01*
X106481459Y-123310068D01*
X106481458Y-123310072D01*
X106461496Y-123500000D01*
X105433500Y-123500000D01*
X105433500Y-88218461D01*
X105453185Y-88151422D01*
X105505989Y-88105667D01*
X105575147Y-88095723D01*
X105638703Y-88124748D01*
X105649650Y-88135489D01*
X105650959Y-88136943D01*
X105650960Y-88136944D01*
X105778747Y-88278866D01*
X105933248Y-88391118D01*
X106107712Y-88468794D01*
X106294513Y-88508500D01*
X106485487Y-88508500D01*
X106672288Y-88468794D01*
X106846752Y-88391118D01*
X107001253Y-88278866D01*
X107005160Y-88274527D01*
X107064646Y-88237879D01*
X107097309Y-88233500D01*
X139563729Y-88233500D01*
X139630768Y-88253185D01*
X139651410Y-88269819D01*
X144468658Y-93087069D01*
X144468661Y-93087072D01*
X144572414Y-93156397D01*
X144572420Y-93156401D01*
X144635109Y-93182367D01*
X144687710Y-93204155D01*
X144810096Y-93228499D01*
X144810100Y-93228500D01*
X144810101Y-93228500D01*
X144934889Y-93228500D01*
X146842691Y-93228500D01*
X146909730Y-93248185D01*
X146934840Y-93269527D01*
X146938747Y-93273866D01*
X147093248Y-93386118D01*
X147267712Y-93463794D01*
X147454513Y-93503500D01*
X147645487Y-93503500D01*
X147832288Y-93463794D01*
X148006752Y-93386118D01*
X148161253Y-93273866D01*
X148289040Y-93131944D01*
X148384527Y-92966556D01*
X148443542Y-92784928D01*
X148463504Y-92595000D01*
X148443542Y-92405072D01*
X148384527Y-92223444D01*
X148289040Y-92058056D01*
X148161253Y-91916134D01*
X148006752Y-91803882D01*
X147832288Y-91726206D01*
X147832286Y-91726205D01*
X147645487Y-91686500D01*
X147454513Y-91686500D01*
X147267714Y-91726205D01*
X147093246Y-91803883D01*
X146938745Y-91916135D01*
X146934840Y-91920473D01*
X146875354Y-91957121D01*
X146842691Y-91961500D01*
X145186262Y-91961500D01*
X145119223Y-91941815D01*
X145098581Y-91925181D01*
X140424484Y-87251085D01*
X140390999Y-87189762D01*
X140395983Y-87120070D01*
X140420011Y-87080436D01*
X140498340Y-86993444D01*
X140593827Y-86828056D01*
X140652842Y-86646428D01*
X140672804Y-86456500D01*
X140652842Y-86266572D01*
X140593827Y-86084944D01*
X140498340Y-85919556D01*
X140498336Y-85919550D01*
X140424650Y-85837713D01*
X140394420Y-85774721D01*
X140392800Y-85754741D01*
X140392800Y-80866428D01*
X140412485Y-80799389D01*
X140424650Y-80783456D01*
X140445705Y-80760072D01*
X140489040Y-80711944D01*
X140584527Y-80546556D01*
X140643542Y-80364928D01*
X140643542Y-80364919D01*
X140644348Y-80361132D01*
X140645421Y-80359143D01*
X140645550Y-80358748D01*
X140645622Y-80358771D01*
X140677538Y-80299648D01*
X140738699Y-80265868D01*
X140808414Y-80270517D01*
X140853321Y-80299225D01*
X140934004Y-80379908D01*
X140967489Y-80441231D01*
X140969643Y-80454622D01*
X140989500Y-80643549D01*
X140989501Y-80643552D01*
X141048512Y-80825170D01*
X141048515Y-80825177D01*
X141144002Y-80990565D01*
X141271789Y-81132487D01*
X141426290Y-81244739D01*
X141600754Y-81322415D01*
X141787555Y-81362121D01*
X141978529Y-81362121D01*
X142165330Y-81322415D01*
X142339794Y-81244739D01*
X142494295Y-81132487D01*
X142622082Y-80990565D01*
X142710114Y-80838088D01*
X142760679Y-80789875D01*
X142829286Y-80776651D01*
X142894151Y-80802619D01*
X142934680Y-80859533D01*
X142941500Y-80900090D01*
X142941500Y-87773241D01*
X142921815Y-87840280D01*
X142909650Y-87856213D01*
X142835963Y-87938050D01*
X142835958Y-87938057D01*
X142740473Y-88103443D01*
X142740470Y-88103450D01*
X142686414Y-88269819D01*
X142681458Y-88285072D01*
X142661496Y-88475000D01*
X142681458Y-88664928D01*
X142681459Y-88664931D01*
X142740470Y-88846549D01*
X142740473Y-88846556D01*
X142835960Y-89011944D01*
X142963747Y-89153866D01*
X143118248Y-89266118D01*
X143292712Y-89343794D01*
X143479513Y-89383500D01*
X143670487Y-89383500D01*
X143857288Y-89343794D01*
X144031752Y-89266118D01*
X144186253Y-89153866D01*
X144314040Y-89011944D01*
X144409527Y-88846556D01*
X144468542Y-88664928D01*
X144488504Y-88475000D01*
X144468542Y-88285072D01*
X144409527Y-88103444D01*
X144361783Y-88020750D01*
X144314041Y-87938057D01*
X144314036Y-87938050D01*
X144240350Y-87856213D01*
X144210120Y-87793221D01*
X144208500Y-87773241D01*
X144208500Y-75400000D01*
X144571496Y-75400000D01*
X144591458Y-75589928D01*
X144591459Y-75589931D01*
X144650470Y-75771549D01*
X144650473Y-75771556D01*
X144745960Y-75936944D01*
X144873747Y-76078866D01*
X145028248Y-76191118D01*
X145202712Y-76268794D01*
X145389513Y-76308500D01*
X145580487Y-76308500D01*
X145767288Y-76268794D01*
X145941752Y-76191118D01*
X146096253Y-76078866D01*
X146224040Y-75936944D01*
X146319527Y-75771556D01*
X146378542Y-75589928D01*
X146398504Y-75400000D01*
X146398503Y-75399997D01*
X146398917Y-75396065D01*
X146425502Y-75331450D01*
X146434547Y-75321355D01*
X147686086Y-74069819D01*
X147747409Y-74036334D01*
X147773767Y-74033500D01*
X154566280Y-74033500D01*
X154633319Y-74053185D01*
X154679074Y-74105989D01*
X154689600Y-74170460D01*
X154686496Y-74200000D01*
X154706458Y-74389928D01*
X154706459Y-74389931D01*
X154765470Y-74571549D01*
X154765473Y-74571556D01*
X154860960Y-74736944D01*
X154947899Y-74833500D01*
X154974512Y-74863057D01*
X154988747Y-74878866D01*
X155143248Y-74991118D01*
X155317712Y-75068794D01*
X155504513Y-75108500D01*
X155695487Y-75108500D01*
X155882288Y-75068794D01*
X156056752Y-74991118D01*
X156211253Y-74878866D01*
X156215160Y-74874527D01*
X156274646Y-74837879D01*
X156307309Y-74833500D01*
X158096233Y-74833500D01*
X158163272Y-74853185D01*
X158209027Y-74905989D01*
X158218971Y-74975147D01*
X158189946Y-75038703D01*
X158183914Y-75045181D01*
X152650653Y-80578443D01*
X147171167Y-86057929D01*
X147144153Y-86084943D01*
X147082927Y-86146168D01*
X147013603Y-86249918D01*
X147013598Y-86249927D01*
X146965845Y-86365214D01*
X146965843Y-86365222D01*
X146941500Y-86487601D01*
X146941500Y-86598241D01*
X146921815Y-86665280D01*
X146909650Y-86681213D01*
X146835963Y-86763050D01*
X146835958Y-86763057D01*
X146740473Y-86928443D01*
X146740470Y-86928450D01*
X146684354Y-87101159D01*
X146681458Y-87110072D01*
X146661496Y-87300000D01*
X146681458Y-87489928D01*
X146681459Y-87489931D01*
X146740470Y-87671549D01*
X146740473Y-87671556D01*
X146835960Y-87836944D01*
X146963747Y-87978866D01*
X147118248Y-88091118D01*
X147292712Y-88168794D01*
X147479513Y-88208500D01*
X147670487Y-88208500D01*
X147857288Y-88168794D01*
X148031752Y-88091118D01*
X148186253Y-87978866D01*
X148314040Y-87836944D01*
X148409527Y-87671556D01*
X148468542Y-87489928D01*
X148488504Y-87300000D01*
X148468542Y-87110072D01*
X148413495Y-86940658D01*
X148409529Y-86928450D01*
X148409528Y-86928449D01*
X148409527Y-86928444D01*
X148357818Y-86838882D01*
X148341046Y-86809831D01*
X148324573Y-86741930D01*
X148347426Y-86675904D01*
X148360746Y-86660156D01*
X165047834Y-69973071D01*
X165109157Y-69939586D01*
X165135515Y-69936752D01*
X165273739Y-69936752D01*
X165460540Y-69897046D01*
X165635004Y-69819370D01*
X165789505Y-69707118D01*
X165917292Y-69565196D01*
X166012779Y-69399808D01*
X166071794Y-69218180D01*
X166084783Y-69094600D01*
X168361496Y-69094600D01*
X168381458Y-69284528D01*
X168381459Y-69284531D01*
X168440470Y-69466149D01*
X168440473Y-69466156D01*
X168497652Y-69565194D01*
X168535960Y-69631544D01*
X168609649Y-69713384D01*
X168639880Y-69776375D01*
X168641500Y-69796356D01*
X168641500Y-70323241D01*
X168621815Y-70390280D01*
X168609650Y-70406213D01*
X168535963Y-70488050D01*
X168535958Y-70488057D01*
X168440473Y-70653443D01*
X168440470Y-70653450D01*
X168381459Y-70835068D01*
X168381458Y-70835072D01*
X168361496Y-71025000D01*
X168381458Y-71214928D01*
X168381459Y-71214931D01*
X168440470Y-71396549D01*
X168440473Y-71396556D01*
X168535960Y-71561944D01*
X168663747Y-71703866D01*
X168818248Y-71816118D01*
X168992712Y-71893794D01*
X169179513Y-71933500D01*
X169370487Y-71933500D01*
X169557288Y-71893794D01*
X169731752Y-71816118D01*
X169886253Y-71703866D01*
X170014040Y-71561944D01*
X170109527Y-71396556D01*
X170168542Y-71214928D01*
X170188504Y-71025000D01*
X170168542Y-70835072D01*
X170109527Y-70653444D01*
X170014387Y-70488657D01*
X170014041Y-70488057D01*
X170014036Y-70488050D01*
X169940350Y-70406213D01*
X169910120Y-70343221D01*
X169908500Y-70323241D01*
X169908500Y-69796356D01*
X169928185Y-69729317D01*
X169940346Y-69713388D01*
X170014040Y-69631544D01*
X170109527Y-69466156D01*
X170168542Y-69284528D01*
X170188504Y-69094600D01*
X170168542Y-68904672D01*
X170109527Y-68723044D01*
X170014040Y-68557656D01*
X169886253Y-68415734D01*
X169731752Y-68303482D01*
X169557288Y-68225806D01*
X169557286Y-68225805D01*
X169370487Y-68186100D01*
X169179513Y-68186100D01*
X168992714Y-68225805D01*
X168818246Y-68303483D01*
X168663745Y-68415735D01*
X168535959Y-68557657D01*
X168440473Y-68723043D01*
X168440470Y-68723050D01*
X168396444Y-68858549D01*
X168381458Y-68904672D01*
X168361496Y-69094600D01*
X166084783Y-69094600D01*
X166091756Y-69028252D01*
X166071794Y-68838324D01*
X166012779Y-68656696D01*
X165917292Y-68491308D01*
X165838964Y-68404315D01*
X165808736Y-68341328D01*
X165817361Y-68271993D01*
X165843432Y-68233669D01*
X166282284Y-67794819D01*
X166343607Y-67761334D01*
X166369965Y-67758500D01*
X169987395Y-67758500D01*
X169987396Y-67758499D01*
X170109785Y-67734155D01*
X170225075Y-67686400D01*
X170328833Y-67617071D01*
X171376085Y-66569819D01*
X171437408Y-66536334D01*
X171463766Y-66533500D01*
X171520487Y-66533500D01*
X171707288Y-66493794D01*
X171881752Y-66416118D01*
X172036253Y-66303866D01*
X172164040Y-66161944D01*
X172259527Y-65996556D01*
X172318542Y-65814928D01*
X172338504Y-65625000D01*
X172318542Y-65435072D01*
X172259527Y-65253444D01*
X172164040Y-65088056D01*
X172036253Y-64946134D01*
X171881752Y-64833882D01*
X171707288Y-64756206D01*
X171707286Y-64756205D01*
X171520487Y-64716500D01*
X171329513Y-64716500D01*
X171142714Y-64756205D01*
X170968246Y-64833883D01*
X170813745Y-64946135D01*
X170685959Y-65088057D01*
X170590473Y-65253443D01*
X170590470Y-65253450D01*
X170531831Y-65433924D01*
X170531458Y-65435072D01*
X170514019Y-65600996D01*
X170487434Y-65665610D01*
X170478379Y-65675715D01*
X169698915Y-66455181D01*
X169637592Y-66488666D01*
X169611234Y-66491500D01*
X165993800Y-66491500D01*
X165871421Y-66515843D01*
X165871413Y-66515845D01*
X165756126Y-66563598D01*
X165756117Y-66563603D01*
X165652366Y-66632928D01*
X165652362Y-66632931D01*
X165193441Y-67091852D01*
X165132118Y-67125337D01*
X165062426Y-67120353D01*
X165006493Y-67078481D01*
X164987829Y-67042489D01*
X164934529Y-66878450D01*
X164934528Y-66878449D01*
X164934527Y-66878444D01*
X164839040Y-66713056D01*
X164711253Y-66571134D01*
X164556752Y-66458882D01*
X164382288Y-66381206D01*
X164382286Y-66381205D01*
X164195487Y-66341500D01*
X164004513Y-66341500D01*
X163817714Y-66381205D01*
X163643246Y-66458883D01*
X163488745Y-66571135D01*
X163360959Y-66713057D01*
X163265473Y-66878443D01*
X163265470Y-66878450D01*
X163245061Y-66941264D01*
X163206458Y-67060072D01*
X163186496Y-67250000D01*
X163206458Y-67439928D01*
X163206459Y-67439931D01*
X163265470Y-67621549D01*
X163265473Y-67621556D01*
X163344537Y-67758500D01*
X163360960Y-67786944D01*
X163434649Y-67868784D01*
X163464880Y-67931775D01*
X163466500Y-67951756D01*
X163466500Y-68111234D01*
X163446815Y-68178273D01*
X163430181Y-68198915D01*
X158898915Y-72730181D01*
X158837592Y-72763666D01*
X158811234Y-72766500D01*
X152101397Y-72766500D01*
X152034358Y-72746815D01*
X151988603Y-72694011D01*
X151978076Y-72629539D01*
X151980716Y-72604419D01*
X151986157Y-72552653D01*
X151966195Y-72362725D01*
X151907180Y-72181097D01*
X151811693Y-72015709D01*
X151811689Y-72015703D01*
X151738003Y-71933866D01*
X151707773Y-71870874D01*
X151706153Y-71850894D01*
X151706153Y-66581113D01*
X151725838Y-66514074D01*
X151742472Y-66493432D01*
X154656085Y-63579819D01*
X154717408Y-63546334D01*
X154743766Y-63543500D01*
X163012691Y-63543500D01*
X163079730Y-63563185D01*
X163104840Y-63584527D01*
X163108747Y-63588866D01*
X163263248Y-63701118D01*
X163437712Y-63778794D01*
X163624513Y-63818500D01*
X163815487Y-63818500D01*
X164002288Y-63778794D01*
X164176752Y-63701118D01*
X164331253Y-63588866D01*
X164459040Y-63446944D01*
X164554527Y-63281556D01*
X164613542Y-63099928D01*
X164633504Y-62910000D01*
X164613542Y-62720072D01*
X164554527Y-62538444D01*
X164459040Y-62373056D01*
X164331253Y-62231134D01*
X164176752Y-62118882D01*
X164002288Y-62041206D01*
X164002286Y-62041205D01*
X163815487Y-62001500D01*
X163624513Y-62001500D01*
X163437714Y-62041205D01*
X163263246Y-62118883D01*
X163108745Y-62231135D01*
X163104840Y-62235473D01*
X163045354Y-62272121D01*
X163012691Y-62276500D01*
X154367601Y-62276500D01*
X154245222Y-62300843D01*
X154245214Y-62300845D01*
X154129927Y-62348598D01*
X154129918Y-62348603D01*
X154026167Y-62417928D01*
X154026163Y-62417931D01*
X150701170Y-65742925D01*
X150701166Y-65742927D01*
X150701167Y-65742928D01*
X150639897Y-65804199D01*
X150639896Y-65804199D01*
X150580584Y-65863510D01*
X150580581Y-65863514D01*
X150511256Y-65967265D01*
X150511251Y-65967274D01*
X150463498Y-66082561D01*
X150463496Y-66082569D01*
X150439153Y-66204948D01*
X150439153Y-71850894D01*
X150419468Y-71917933D01*
X150407303Y-71933866D01*
X150333616Y-72015703D01*
X150333611Y-72015710D01*
X150238126Y-72181096D01*
X150238123Y-72181103D01*
X150179112Y-72362721D01*
X150179111Y-72362725D01*
X150159149Y-72552653D01*
X150167230Y-72629539D01*
X150154660Y-72698269D01*
X150106928Y-72749292D01*
X150043909Y-72766500D01*
X147397601Y-72766500D01*
X147275222Y-72790842D01*
X147275213Y-72790845D01*
X147159924Y-72838599D01*
X147159921Y-72838600D01*
X147056167Y-72907927D01*
X147056163Y-72907930D01*
X145508915Y-74455181D01*
X145447592Y-74488666D01*
X145421234Y-74491500D01*
X145389513Y-74491500D01*
X145202714Y-74531205D01*
X145028246Y-74608883D01*
X144873745Y-74721135D01*
X144745959Y-74863057D01*
X144650473Y-75028443D01*
X144650470Y-75028450D01*
X144611784Y-75147514D01*
X144591458Y-75210072D01*
X144571496Y-75400000D01*
X144208500Y-75400000D01*
X144208500Y-60405375D01*
X144228185Y-60338336D01*
X144256525Y-60308328D01*
X144256424Y-60308215D01*
X144257817Y-60306959D01*
X144259617Y-60305055D01*
X144261254Y-60303865D01*
X144303360Y-60257101D01*
X144389040Y-60161944D01*
X144484527Y-59996556D01*
X144543542Y-59814928D01*
X144563504Y-59625000D01*
X144543542Y-59435072D01*
X144484527Y-59253444D01*
X144389040Y-59088056D01*
X144261253Y-58946134D01*
X144106752Y-58833882D01*
X143932288Y-58756206D01*
X143932286Y-58756205D01*
X143745487Y-58716500D01*
X143554513Y-58716500D01*
X143367714Y-58756205D01*
X143193246Y-58833883D01*
X143038745Y-58946135D01*
X142910959Y-59088057D01*
X142815473Y-59253443D01*
X142815470Y-59253450D01*
X142756459Y-59435068D01*
X142756458Y-59435072D01*
X142751687Y-59480463D01*
X142725103Y-59545076D01*
X142667806Y-59585061D01*
X142628367Y-59591500D01*
X128608104Y-59591500D01*
X128541065Y-59571815D01*
X128495310Y-59519011D01*
X128485366Y-59449853D01*
X128490173Y-59429182D01*
X128513543Y-59357253D01*
X128543542Y-59264928D01*
X128563504Y-59075000D01*
X128543542Y-58885072D01*
X128484527Y-58703444D01*
X128389040Y-58538056D01*
X128261253Y-58396134D01*
X128106752Y-58283882D01*
X127932288Y-58206206D01*
X127932286Y-58206205D01*
X127745487Y-58166500D01*
X127554513Y-58166500D01*
X127367714Y-58206205D01*
X127193246Y-58283883D01*
X127038745Y-58396135D01*
X126910959Y-58538057D01*
X126815473Y-58703443D01*
X126815470Y-58703450D01*
X126756459Y-58885068D01*
X126756458Y-58885072D01*
X126739019Y-59050995D01*
X126712434Y-59115609D01*
X126703380Y-59125714D01*
X126273913Y-59555182D01*
X126212593Y-59588666D01*
X126186234Y-59591500D01*
X112589451Y-59591500D01*
X112522412Y-59571815D01*
X112476657Y-59519011D01*
X112466713Y-59449853D01*
X112468161Y-59441718D01*
X112468537Y-59439941D01*
X112468542Y-59439928D01*
X112488504Y-59250000D01*
X112468542Y-59060072D01*
X112409527Y-58878444D01*
X112314040Y-58713056D01*
X112186253Y-58571134D01*
X112031752Y-58458882D01*
X111857288Y-58381206D01*
X111857286Y-58381205D01*
X111670487Y-58341500D01*
X111479513Y-58341500D01*
X111292714Y-58381205D01*
X111118246Y-58458883D01*
X110963745Y-58571135D01*
X110835959Y-58713057D01*
X110740473Y-58878443D01*
X110740470Y-58878450D01*
X110684407Y-59050995D01*
X110681458Y-59060072D01*
X110675621Y-59115609D01*
X110664019Y-59225997D01*
X110637434Y-59290611D01*
X110628379Y-59300716D01*
X110373915Y-59555181D01*
X110312592Y-59588666D01*
X110286234Y-59591500D01*
X105212296Y-59591500D01*
X105089917Y-59615843D01*
X105089909Y-59615845D01*
X104974622Y-59663598D01*
X104974613Y-59663603D01*
X104870862Y-59732928D01*
X104870858Y-59732931D01*
X103216849Y-61386942D01*
X102721167Y-61882624D01*
X102677047Y-61926744D01*
X102632927Y-61970863D01*
X102563603Y-62074613D01*
X102563598Y-62074622D01*
X102515845Y-62189909D01*
X102515843Y-62189917D01*
X102491500Y-62312296D01*
X102491500Y-62817500D01*
X102471815Y-62884539D01*
X102419011Y-62930294D01*
X102367500Y-62941500D01*
X102254513Y-62941500D01*
X102067714Y-62981205D01*
X101893246Y-63058883D01*
X101738745Y-63171135D01*
X101610959Y-63313057D01*
X101515473Y-63478443D01*
X101515470Y-63478450D01*
X101456459Y-63660068D01*
X101456458Y-63660072D01*
X101436496Y-63850000D01*
X97314005Y-63850000D01*
X97314005Y-62308261D01*
X97333690Y-62241222D01*
X97350324Y-62220580D01*
X97776085Y-61794819D01*
X97837408Y-61761334D01*
X97863766Y-61758500D01*
X97920487Y-61758500D01*
X98107288Y-61718794D01*
X98281752Y-61641118D01*
X98436253Y-61528866D01*
X98564040Y-61386944D01*
X98659527Y-61221556D01*
X98718542Y-61039928D01*
X98738504Y-60850000D01*
X98718542Y-60660072D01*
X98659527Y-60478444D01*
X98564040Y-60313056D01*
X98436253Y-60171134D01*
X98281752Y-60058882D01*
X98281751Y-60058881D01*
X98138850Y-59995257D01*
X98085613Y-59950007D01*
X98065292Y-59883158D01*
X98084337Y-59815934D01*
X98101600Y-59794302D01*
X103051085Y-54844819D01*
X103112408Y-54811334D01*
X103138766Y-54808500D01*
X113545484Y-54808500D01*
X113612523Y-54828185D01*
X113658278Y-54880989D01*
X113668804Y-54919535D01*
X113681458Y-55039928D01*
X113681459Y-55039931D01*
X113740470Y-55221549D01*
X113740473Y-55221556D01*
X113835960Y-55386944D01*
X113963747Y-55528866D01*
X114118248Y-55641118D01*
X114292712Y-55718794D01*
X114479513Y-55758500D01*
X114670487Y-55758500D01*
X114857288Y-55718794D01*
X115031752Y-55641118D01*
X115186253Y-55528866D01*
X115314040Y-55386944D01*
X115409527Y-55221556D01*
X115468542Y-55039928D01*
X115481195Y-54919536D01*
X115507780Y-54854924D01*
X115565077Y-54814939D01*
X115604516Y-54808500D01*
X129674815Y-54808500D01*
X129741854Y-54828185D01*
X129787609Y-54880989D01*
X129798134Y-54919533D01*
X129806458Y-54998728D01*
X129806459Y-54998731D01*
X129865470Y-55180349D01*
X129865473Y-55180356D01*
X129960960Y-55345744D01*
X130088747Y-55487666D01*
X130243248Y-55599918D01*
X130417712Y-55677594D01*
X130604513Y-55717300D01*
X130795487Y-55717300D01*
X130982288Y-55677594D01*
X131156752Y-55599918D01*
X131311253Y-55487666D01*
X131439040Y-55345744D01*
X131534527Y-55180356D01*
X131593542Y-54998728D01*
X131599237Y-54944536D01*
X131625822Y-54879924D01*
X131683119Y-54839939D01*
X131722558Y-54833500D01*
X132111234Y-54833500D01*
X132178273Y-54853185D01*
X132198915Y-54869819D01*
X133761981Y-56432885D01*
X133795466Y-56494208D01*
X133798300Y-56520566D01*
X133798300Y-57467041D01*
X133778615Y-57534080D01*
X133766450Y-57550013D01*
X133692763Y-57631850D01*
X133692758Y-57631857D01*
X133597273Y-57797243D01*
X133597270Y-57797250D01*
X133538259Y-57978868D01*
X133538258Y-57978872D01*
X133518296Y-58168800D01*
X133538258Y-58358728D01*
X133538259Y-58358731D01*
X133597270Y-58540349D01*
X133597273Y-58540356D01*
X133692760Y-58705744D01*
X133820547Y-58847666D01*
X133975048Y-58959918D01*
X134149512Y-59037594D01*
X134336313Y-59077300D01*
X134527287Y-59077300D01*
X134714088Y-59037594D01*
X134888552Y-58959918D01*
X135043053Y-58847666D01*
X135170840Y-58705744D01*
X135266327Y-58540356D01*
X135325342Y-58358728D01*
X135345304Y-58168800D01*
X135325342Y-57978872D01*
X135266327Y-57797244D01*
X135170840Y-57631856D01*
X135170836Y-57631850D01*
X135097150Y-57550013D01*
X135066920Y-57487021D01*
X135065300Y-57467041D01*
X135065300Y-56144405D01*
X135065299Y-56144401D01*
X135040957Y-56022022D01*
X135040954Y-56022013D01*
X134993201Y-55906725D01*
X134993199Y-55906723D01*
X134993199Y-55906721D01*
X134923872Y-55802967D01*
X134923869Y-55802963D01*
X134166086Y-55045181D01*
X134132601Y-54983858D01*
X134137585Y-54914167D01*
X134179457Y-54858233D01*
X134244921Y-54833816D01*
X134253767Y-54833500D01*
X145055525Y-54833500D01*
X145122564Y-54853185D01*
X145168319Y-54905989D01*
X145173456Y-54919183D01*
X145190469Y-54971547D01*
X145190473Y-54971556D01*
X145285960Y-55136944D01*
X145413747Y-55278866D01*
X145568248Y-55391118D01*
X145742712Y-55468794D01*
X145929513Y-55508500D01*
X146120487Y-55508500D01*
X146307288Y-55468794D01*
X146481752Y-55391118D01*
X146636253Y-55278866D01*
X146764040Y-55136944D01*
X146859527Y-54971556D01*
X146918542Y-54789928D01*
X146938504Y-54600000D01*
X146918542Y-54410072D01*
X146859527Y-54228444D01*
X146764040Y-54063056D01*
X146636253Y-53921134D01*
X146481752Y-53808882D01*
X146307288Y-53731206D01*
X146307286Y-53731205D01*
X146120487Y-53691500D01*
X146041860Y-53691500D01*
X145974821Y-53671815D01*
X145972969Y-53670602D01*
X145925072Y-53638598D01*
X145809785Y-53590845D01*
X145809777Y-53590843D01*
X145687398Y-53566500D01*
X145687394Y-53566500D01*
X132437394Y-53566500D01*
X131125293Y-53566500D01*
X131101102Y-53564117D01*
X130987398Y-53541500D01*
X130987394Y-53541500D01*
X130262394Y-53541500D01*
X114137394Y-53541500D01*
X102887394Y-53541500D01*
X102762606Y-53541500D01*
X102762601Y-53541500D01*
X102640222Y-53565843D01*
X102640214Y-53565845D01*
X102524927Y-53613598D01*
X102524918Y-53613603D01*
X102421167Y-53682928D01*
X102421163Y-53682931D01*
X97762596Y-58341500D01*
X96276672Y-59827424D01*
X96232552Y-59871544D01*
X96188432Y-59915663D01*
X96119108Y-60019413D01*
X96119103Y-60019422D01*
X96071350Y-60134709D01*
X96071348Y-60134717D01*
X96047005Y-60257096D01*
X91541600Y-60257096D01*
X91541600Y-52763672D01*
X91561285Y-52696633D01*
X91614089Y-52650878D01*
X91683247Y-52640934D01*
X91746803Y-52669959D01*
X91774126Y-52703689D01*
X91807278Y-52763672D01*
X91913811Y-52956428D01*
X92115851Y-53241178D01*
X92348493Y-53501503D01*
X92348496Y-53501506D01*
X92608821Y-53734148D01*
X92608827Y-53734152D01*
X92608828Y-53734153D01*
X92893572Y-53936189D01*
X93153913Y-54080075D01*
X93199149Y-54105076D01*
X93199153Y-54105078D01*
X93461349Y-54213682D01*
X93521710Y-54238684D01*
X93857204Y-54335339D01*
X94201410Y-54393822D01*
X94550000Y-54413398D01*
X94898590Y-54393822D01*
X95242796Y-54335339D01*
X95578290Y-54238684D01*
X95900853Y-54105075D01*
X96206428Y-53936189D01*
X96491172Y-53734153D01*
X96548490Y-53682931D01*
X96626067Y-53613603D01*
X96751505Y-53501505D01*
X96984153Y-53241172D01*
X97186189Y-52956428D01*
X97355075Y-52650853D01*
X97488684Y-52328290D01*
X97585339Y-51992796D01*
X97643822Y-51648590D01*
X97663398Y-51300000D01*
X97643822Y-50951410D01*
X97585339Y-50607204D01*
X97488684Y-50271710D01*
X97478327Y-50246705D01*
X97355078Y-49949153D01*
X97355076Y-49949149D01*
X97186188Y-49643571D01*
X97168450Y-49618572D01*
X96984153Y-49358828D01*
X96984152Y-49358827D01*
X96984148Y-49358821D01*
X96751506Y-49098496D01*
X96751503Y-49098493D01*
X96491178Y-48865851D01*
X96206428Y-48663811D01*
X95983365Y-48540528D01*
X95934212Y-48490871D01*
X95919709Y-48422523D01*
X95944459Y-48357184D01*
X96000606Y-48315599D01*
X96043346Y-48308000D01*
X177986420Y-48308000D01*
X178053459Y-48327685D01*
G37*
%TD.AperFunction*%
%TD*%
M02*
