%TF.GenerationSoftware,KiCad,Pcbnew,8.0.4-8.0.4-0~ubuntu22.04.1*%
%TF.CreationDate,2024-08-14T22:53:29+09:00*%
%TF.ProjectId,main,6d61696e-2e6b-4696-9361-645f70636258,rev?*%
%TF.SameCoordinates,Original*%
%TF.FileFunction,Legend,Bot*%
%TF.FilePolarity,Positive*%
%FSLAX46Y46*%
G04 Gerber Fmt 4.6, Leading zero omitted, Abs format (unit mm)*
G04 Created by KiCad (PCBNEW 8.0.4-8.0.4-0~ubuntu22.04.1) date 2024-08-14 22:53:29*
%MOMM*%
%LPD*%
G01*
G04 APERTURE LIST*
%ADD10C,0.000000*%
%ADD11C,0.375000*%
%ADD12C,5.200000*%
%ADD13R,1.700000X1.700000*%
%ADD14O,1.700000X1.700000*%
%ADD15C,3.800000*%
%ADD16C,1.070000*%
%ADD17C,1.400000*%
%ADD18R,3.500000X3.500000*%
%ADD19C,3.500000*%
%ADD20R,0.700000X1.100000*%
%ADD21R,0.800000X1.100000*%
G04 APERTURE END LIST*
D10*
%TO.C,G\u002A\u002A\u002A*%
G36*
X121658504Y-82104974D02*
G01*
X115934234Y-82104974D01*
X110209964Y-82104974D01*
X110209964Y-76392291D01*
X110209964Y-71004062D01*
X110546366Y-71004062D01*
X111096596Y-71554650D01*
X111646825Y-72105238D01*
X111646825Y-76392291D01*
X111646825Y-80679345D01*
X111096596Y-81229933D01*
X110546366Y-81780521D01*
X115934234Y-81780521D01*
X121322102Y-81780521D01*
X120771872Y-81229933D01*
X120221643Y-80679345D01*
X120221643Y-76392291D01*
X120221643Y-72105238D01*
X120771872Y-71554650D01*
X121322102Y-71004062D01*
X115934234Y-71004062D01*
X110546366Y-71004062D01*
X110209964Y-71004062D01*
X110209964Y-70679609D01*
X115934234Y-70679609D01*
X121658504Y-70679609D01*
X121658504Y-76392291D01*
X121658504Y-81780521D01*
X121658504Y-82104974D01*
G37*
G36*
X115964484Y-72967654D02*
G01*
X116010746Y-73018615D01*
X116065812Y-73095135D01*
X116124294Y-73188563D01*
X116180803Y-73290250D01*
X116229949Y-73391547D01*
X116266344Y-73483806D01*
X116279530Y-73523859D01*
X116316517Y-73638776D01*
X116357212Y-73767884D01*
X116394942Y-73890094D01*
X116411319Y-73943088D01*
X116445432Y-74042063D01*
X116481717Y-74119376D01*
X116526388Y-74179256D01*
X116585658Y-74225932D01*
X116665740Y-74263631D01*
X116772848Y-74296583D01*
X116913194Y-74329016D01*
X117092993Y-74365159D01*
X117221471Y-74390845D01*
X117477159Y-74446552D01*
X117692205Y-74501187D01*
X117870465Y-74556393D01*
X118015797Y-74613812D01*
X118132055Y-74675088D01*
X118223097Y-74741862D01*
X118292779Y-74815778D01*
X118344956Y-74898478D01*
X118359116Y-74927654D01*
X118380790Y-74981068D01*
X118398673Y-75041062D01*
X118413073Y-75112052D01*
X118424300Y-75198458D01*
X118432665Y-75304696D01*
X118438478Y-75435185D01*
X118442047Y-75594343D01*
X118443683Y-75786586D01*
X118443695Y-76016334D01*
X118442394Y-76288003D01*
X118441196Y-76542460D01*
X118441363Y-76790010D01*
X118443581Y-77001808D01*
X118448315Y-77183460D01*
X118456028Y-77340569D01*
X118467184Y-77478741D01*
X118482247Y-77603580D01*
X118501680Y-77720691D01*
X118525948Y-77835678D01*
X118555515Y-77954146D01*
X118590843Y-78081699D01*
X118593147Y-78089770D01*
X118621781Y-78195223D01*
X118643109Y-78283315D01*
X118655112Y-78345040D01*
X118655772Y-78371389D01*
X118641757Y-78373620D01*
X118607263Y-78342788D01*
X118558735Y-78271443D01*
X118497362Y-78161420D01*
X118424337Y-78014554D01*
X118418904Y-78003128D01*
X118322566Y-77789805D01*
X118245642Y-77593348D01*
X118185650Y-77403258D01*
X118140106Y-77209036D01*
X118106527Y-77000181D01*
X118082430Y-76766196D01*
X118065332Y-76496580D01*
X118064610Y-76482168D01*
X118056131Y-76328534D01*
X118046744Y-76182400D01*
X118037165Y-76053466D01*
X118028110Y-75951437D01*
X118020294Y-75886014D01*
X117986974Y-75741974D01*
X117932830Y-75621574D01*
X117854450Y-75526605D01*
X117747703Y-75454294D01*
X117608459Y-75401865D01*
X117432589Y-75366543D01*
X117215962Y-75345553D01*
X117131154Y-75341871D01*
X116922830Y-75349821D01*
X116749569Y-75385074D01*
X116608931Y-75448602D01*
X116498480Y-75541376D01*
X116415777Y-75664367D01*
X116408097Y-75680752D01*
X116374486Y-75775200D01*
X116340478Y-75902292D01*
X116308103Y-76051018D01*
X116279388Y-76210372D01*
X116256365Y-76369344D01*
X116241063Y-76516926D01*
X116235511Y-76642110D01*
X116235592Y-76670272D01*
X116238535Y-76757471D01*
X116248715Y-76818705D01*
X116270186Y-76870200D01*
X116307003Y-76928179D01*
X116317762Y-76944276D01*
X116377847Y-77046204D01*
X116446707Y-77178733D01*
X116519240Y-77330840D01*
X116590344Y-77491502D01*
X116654918Y-77649693D01*
X116707861Y-77794390D01*
X116735950Y-77879412D01*
X116782452Y-78026611D01*
X116833426Y-78194170D01*
X116887250Y-78376203D01*
X116942300Y-78566827D01*
X116996952Y-78760155D01*
X117049584Y-78950302D01*
X117098572Y-79131384D01*
X117142294Y-79297516D01*
X117179125Y-79442811D01*
X117207442Y-79561386D01*
X117225623Y-79647354D01*
X117232044Y-79694832D01*
X117231552Y-79716111D01*
X117223955Y-79735810D01*
X117201254Y-79717102D01*
X117188405Y-79694658D01*
X117158733Y-79633185D01*
X117115355Y-79538507D01*
X117060550Y-79415735D01*
X116996597Y-79269981D01*
X116925775Y-79106357D01*
X116850362Y-78929974D01*
X116825821Y-78872256D01*
X116718175Y-78619978D01*
X116625970Y-78405948D01*
X116547338Y-78226370D01*
X116480405Y-78077446D01*
X116423300Y-77955378D01*
X116374153Y-77856371D01*
X116331093Y-77776626D01*
X116292247Y-77712346D01*
X116255746Y-77659735D01*
X116219716Y-77614996D01*
X116182288Y-77574331D01*
X116153157Y-77545266D01*
X116054889Y-77465357D01*
X115965849Y-77428244D01*
X115879316Y-77433918D01*
X115788573Y-77482369D01*
X115686901Y-77573587D01*
X115663943Y-77597753D01*
X115630008Y-77636520D01*
X115597108Y-77679538D01*
X115563337Y-77730651D01*
X115526789Y-77793705D01*
X115485557Y-77872546D01*
X115437736Y-77971017D01*
X115381419Y-78092963D01*
X115314700Y-78242231D01*
X115235672Y-78422665D01*
X115142430Y-78638110D01*
X115033066Y-78892410D01*
X115022741Y-78916449D01*
X114944687Y-79097212D01*
X114871846Y-79264298D01*
X114806371Y-79412878D01*
X114750417Y-79538124D01*
X114706141Y-79635205D01*
X114675697Y-79699293D01*
X114661241Y-79725558D01*
X114646434Y-79734960D01*
X114638120Y-79721463D01*
X114640361Y-79678395D01*
X114653699Y-79602788D01*
X114678672Y-79491673D01*
X114715821Y-79342081D01*
X114765685Y-79151043D01*
X114811524Y-78979419D01*
X114909528Y-78622226D01*
X114999924Y-78307214D01*
X115083390Y-78032048D01*
X115160607Y-77794390D01*
X115170253Y-77766396D01*
X115225992Y-77618038D01*
X115292319Y-77458444D01*
X115364131Y-77298637D01*
X115436327Y-77149641D01*
X115503806Y-77022480D01*
X115561465Y-76928179D01*
X115572472Y-76911976D01*
X115605016Y-76857176D01*
X115623242Y-76804747D01*
X115631204Y-76738467D01*
X115632957Y-76642110D01*
X115632631Y-76615072D01*
X115624586Y-76483589D01*
X115607272Y-76332314D01*
X115582718Y-76172257D01*
X115552953Y-76014425D01*
X115520008Y-75869827D01*
X115485910Y-75749472D01*
X115452692Y-75664367D01*
X115418345Y-75604253D01*
X115326623Y-75496804D01*
X115208098Y-75418524D01*
X115059560Y-75368125D01*
X114877797Y-75344317D01*
X114659599Y-75345810D01*
X114579785Y-75351274D01*
X114378191Y-75375576D01*
X114215644Y-75414354D01*
X114087779Y-75469894D01*
X113990228Y-75544482D01*
X113918626Y-75640404D01*
X113868607Y-75759945D01*
X113864021Y-75781848D01*
X113855062Y-75850616D01*
X113844907Y-75953573D01*
X113834208Y-76083191D01*
X113823619Y-76231940D01*
X113813792Y-76392291D01*
X113796062Y-76661002D01*
X113773569Y-76900003D01*
X113744716Y-77110160D01*
X113707461Y-77300313D01*
X113659761Y-77479305D01*
X113599572Y-77655977D01*
X113524851Y-77839171D01*
X113433555Y-78037729D01*
X113392949Y-78120245D01*
X113329403Y-78238766D01*
X113277008Y-78321898D01*
X113237521Y-78366990D01*
X113212696Y-78371389D01*
X113212319Y-78370864D01*
X113213868Y-78341649D01*
X113226615Y-78277713D01*
X113248540Y-78188060D01*
X113277625Y-78081699D01*
X113309513Y-77967077D01*
X113339713Y-77847813D01*
X113364555Y-77732698D01*
X113384502Y-77616122D01*
X113400019Y-77492476D01*
X113411571Y-77356150D01*
X113419621Y-77201536D01*
X113424635Y-77023023D01*
X113427075Y-76815003D01*
X113427407Y-76571866D01*
X113426095Y-76288003D01*
X113424782Y-76011438D01*
X113425097Y-75765342D01*
X113427720Y-75557551D01*
X113433253Y-75383971D01*
X113442301Y-75240507D01*
X113455466Y-75123064D01*
X113473350Y-75027550D01*
X113496556Y-74949867D01*
X113525688Y-74885924D01*
X113561349Y-74831624D01*
X113604140Y-74782873D01*
X113654665Y-74735577D01*
X113713571Y-74690434D01*
X113817384Y-74631079D01*
X113950134Y-74574407D01*
X114115284Y-74519299D01*
X114316300Y-74464633D01*
X114556645Y-74409288D01*
X114839784Y-74352143D01*
X114860404Y-74348177D01*
X114978752Y-74324426D01*
X115083726Y-74301799D01*
X115164585Y-74282690D01*
X115210587Y-74269495D01*
X115250656Y-74251876D01*
X115319067Y-74203839D01*
X115375470Y-74132647D01*
X115425183Y-74030624D01*
X115473526Y-73890094D01*
X115489072Y-73839372D01*
X115528905Y-73711587D01*
X115568814Y-73586035D01*
X115602124Y-73483806D01*
X115635237Y-73398985D01*
X115683604Y-73298071D01*
X115739742Y-73196110D01*
X115798264Y-73101750D01*
X115853779Y-73023642D01*
X115900898Y-72970435D01*
X115934234Y-72950777D01*
X115964484Y-72967654D01*
G37*
%TD*%
%LPC*%
D11*
%TO.C,SW2*%
X111110000Y-139155000D03*
X109310000Y-139155000D03*
%TD*%
D12*
%TO.C,H3*%
X94550000Y-140100000D03*
X94550000Y-140100000D03*
%TD*%
D13*
%TO.C,J12*%
X180086000Y-83355200D03*
D14*
X180086000Y-80815200D03*
X180086000Y-78275200D03*
X180086000Y-75735200D03*
%TD*%
D15*
%TO.C,H6*%
X138090000Y-103360000D03*
%TD*%
%TO.C,H8*%
X119490000Y-130060000D03*
%TD*%
%TO.C,H5*%
X119490000Y-103360000D03*
%TD*%
D12*
%TO.C,H2*%
X179525000Y-51275000D03*
X179525000Y-51275000D03*
%TD*%
%TO.C,H4*%
X179541600Y-140093000D03*
X179541600Y-140093000D03*
%TD*%
D16*
%TO.C,J11*%
X178705000Y-62730000D03*
X179975000Y-62730000D03*
X178705000Y-64000000D03*
X179975000Y-64000000D03*
X178705000Y-65270000D03*
X179975000Y-65270000D03*
X178705000Y-66540000D03*
X179975000Y-66540000D03*
X178705000Y-67810000D03*
X179975000Y-67810000D03*
%TD*%
D15*
%TO.C,H7*%
X138090000Y-130060000D03*
%TD*%
D11*
%TO.C,SW1*%
X104455200Y-139232300D03*
X102655200Y-139232300D03*
%TD*%
D17*
%TO.C,J1*%
X172922500Y-139147500D03*
X161922500Y-139147500D03*
D18*
X164922500Y-129147500D03*
D19*
X169922500Y-129147500D03*
%TD*%
D12*
%TO.C,H1*%
X94550000Y-51300000D03*
X94550000Y-51300000D03*
%TD*%
D20*
%TO.C,U1*%
X159339900Y-113243200D03*
X160439900Y-113243200D03*
D21*
X161589900Y-113243200D03*
D20*
X162739900Y-113243200D03*
X163839900Y-113243200D03*
X163839900Y-111543200D03*
X163839900Y-109843200D03*
X162739900Y-109843200D03*
D21*
X161589900Y-109843200D03*
D20*
X160439900Y-109843200D03*
X159339900Y-109843200D03*
X159339900Y-111543200D03*
D21*
X161589900Y-111543200D03*
D20*
X162739900Y-111543200D03*
%TD*%
%LPD*%
M02*
