%TF.GenerationSoftware,KiCad,Pcbnew,8.0.4-8.0.4-0~ubuntu22.04.1*%
%TF.CreationDate,2024-08-14T23:11:35+09:00*%
%TF.ProjectId,motor_driver,6d6f746f-725f-4647-9269-7665722e6b69,rev?*%
%TF.SameCoordinates,Original*%
%TF.FileFunction,Soldermask,Bot*%
%TF.FilePolarity,Negative*%
%FSLAX46Y46*%
G04 Gerber Fmt 4.6, Leading zero omitted, Abs format (unit mm)*
G04 Created by KiCad (PCBNEW 8.0.4-8.0.4-0~ubuntu22.04.1) date 2024-08-14 23:11:35*
%MOMM*%
%LPD*%
G01*
G04 APERTURE LIST*
G04 Aperture macros list*
%AMRoundRect*
0 Rectangle with rounded corners*
0 $1 Rounding radius*
0 $2 $3 $4 $5 $6 $7 $8 $9 X,Y pos of 4 corners*
0 Add a 4 corners polygon primitive as box body*
4,1,4,$2,$3,$4,$5,$6,$7,$8,$9,$2,$3,0*
0 Add four circle primitives for the rounded corners*
1,1,$1+$1,$2,$3*
1,1,$1+$1,$4,$5*
1,1,$1+$1,$6,$7*
1,1,$1+$1,$8,$9*
0 Add four rect primitives between the rounded corners*
20,1,$1+$1,$2,$3,$4,$5,0*
20,1,$1+$1,$4,$5,$6,$7,0*
20,1,$1+$1,$6,$7,$8,$9,0*
20,1,$1+$1,$8,$9,$2,$3,0*%
G04 Aperture macros list end*
%ADD10C,3.600000*%
%ADD11C,6.400000*%
%ADD12R,3.800000X3.800000*%
%ADD13C,4.000000*%
%ADD14C,1.070000*%
%ADD15C,0.508000*%
%ADD16RoundRect,0.250000X0.450000X-0.350000X0.450000X0.350000X-0.450000X0.350000X-0.450000X-0.350000X0*%
%ADD17RoundRect,0.237500X0.237500X-0.300000X0.237500X0.300000X-0.237500X0.300000X-0.237500X-0.300000X0*%
%ADD18RoundRect,0.237500X-0.300000X-0.237500X0.300000X-0.237500X0.300000X0.237500X-0.300000X0.237500X0*%
%ADD19RoundRect,0.250000X-0.450000X0.350000X-0.450000X-0.350000X0.450000X-0.350000X0.450000X0.350000X0*%
%ADD20R,0.610000X2.000000*%
%ADD21R,2.680000X3.600000*%
%ADD22R,3.100000X3.000000*%
%ADD23RoundRect,0.100000X-0.100000X0.687500X-0.100000X-0.687500X0.100000X-0.687500X0.100000X0.687500X0*%
%ADD24RoundRect,0.237500X-0.237500X0.300000X-0.237500X-0.300000X0.237500X-0.300000X0.237500X0.300000X0*%
%ADD25R,0.650000X1.560000*%
G04 APERTURE END LIST*
D10*
%TO.C,H1*%
X94524000Y-79310400D03*
D11*
X94524000Y-79310400D03*
%TD*%
D12*
%TO.C,J1*%
X93960000Y-114740000D03*
D13*
X93960000Y-109740000D03*
%TD*%
D10*
%TO.C,H3*%
X136524000Y-79310400D03*
D11*
X136524000Y-79310400D03*
%TD*%
D14*
%TO.C,J3*%
X136620000Y-105320000D03*
X137890000Y-105320000D03*
X136620000Y-106590000D03*
X137890000Y-106590000D03*
X136620000Y-107860000D03*
X137890000Y-107860000D03*
X136620000Y-109130000D03*
X137890000Y-109130000D03*
X136620000Y-110400000D03*
X137890000Y-110400000D03*
%TD*%
D10*
%TO.C,H4*%
X136524000Y-121310400D03*
D11*
X136524000Y-121310400D03*
%TD*%
D10*
%TO.C,H2*%
X94524000Y-121310400D03*
D11*
X94524000Y-121310400D03*
%TD*%
D15*
%TO.C,U1*%
X106400000Y-110245000D03*
X104975000Y-110255000D03*
X103575000Y-110270000D03*
X106400000Y-111520000D03*
X103575000Y-111520000D03*
X104975000Y-111525000D03*
X106400000Y-112795000D03*
X104975000Y-112795000D03*
X103575000Y-112820000D03*
%TD*%
D16*
%TO.C,R1*%
X115306400Y-91866400D03*
X115306400Y-89866400D03*
%TD*%
D17*
%TO.C,C15*%
X135295600Y-86388100D03*
X135295600Y-84663100D03*
%TD*%
D18*
%TO.C,C14*%
X131029500Y-85830400D03*
X132754500Y-85830400D03*
%TD*%
D19*
%TO.C,R9*%
X102345200Y-89837600D03*
X102345200Y-91837600D03*
%TD*%
D18*
%TO.C,C17*%
X131334300Y-92688400D03*
X133059300Y-92688400D03*
%TD*%
D16*
%TO.C,R2*%
X104423800Y-91840600D03*
X104423800Y-89840600D03*
%TD*%
%TO.C,R3*%
X93309600Y-91836420D03*
X93309600Y-89836420D03*
%TD*%
D20*
%TO.C,J2*%
X103610400Y-83753600D03*
X104610400Y-83753600D03*
X105610400Y-83753600D03*
X106610400Y-83753600D03*
X107610400Y-83753600D03*
X108610400Y-83753600D03*
X109610400Y-83753600D03*
X110610400Y-83753600D03*
X111610400Y-83753600D03*
X112610400Y-83753600D03*
X113610400Y-83753600D03*
D21*
X100620400Y-80953600D03*
X116600400Y-80953600D03*
%TD*%
D19*
%TO.C,R7*%
X124122100Y-89851200D03*
X124122100Y-91851200D03*
%TD*%
D22*
%TO.C,U2*%
X115468400Y-100279200D03*
D23*
X113518400Y-97416700D03*
X114168400Y-97416700D03*
X114818400Y-97416700D03*
X115468400Y-97416700D03*
X116118400Y-97416700D03*
X116768400Y-97416700D03*
X117418400Y-97416700D03*
X117418400Y-103141700D03*
X116768400Y-103141700D03*
X116118400Y-103141700D03*
X115468400Y-103141700D03*
X114818400Y-103141700D03*
X114168400Y-103141700D03*
X113518400Y-103141700D03*
%TD*%
D24*
%TO.C,C16*%
X134736800Y-90911500D03*
X134736800Y-92636500D03*
%TD*%
D25*
%TO.C,U3*%
X136530000Y-88138000D03*
X137480000Y-88138000D03*
X138430000Y-88138000D03*
X138430000Y-90838000D03*
X136530000Y-90838000D03*
%TD*%
D19*
%TO.C,R8*%
X113313800Y-89840600D03*
X113313800Y-91840600D03*
%TD*%
D25*
%TO.C,U4*%
X131094400Y-88087200D03*
X132044400Y-88087200D03*
X132994400Y-88087200D03*
X132994400Y-90787200D03*
X131094400Y-90787200D03*
%TD*%
D18*
%TO.C,C18*%
X136515900Y-92739200D03*
X138240900Y-92739200D03*
%TD*%
D24*
%TO.C,C5*%
X111930000Y-99405000D03*
X111930000Y-101130000D03*
%TD*%
D18*
%TO.C,C13*%
X131043600Y-84095600D03*
X132768600Y-84095600D03*
%TD*%
M02*
