M48
; DRILL file {KiCad 8.0.4-8.0.4-0~ubuntu22.04.1} date 2024-08-14T23:11:36+0900
; FORMAT={-:-/ absolute / metric / decimal}
; #@! TF.CreationDate,2024-08-14T23:11:36+09:00
; #@! TF.GenerationSoftware,Kicad,Pcbnew,8.0.4-8.0.4-0~ubuntu22.04.1
; #@! TF.FileFunction,Plated,1,4,PTH
FMAT,2
METRIC
; #@! TA.AperFunction,Plated,PTH,ViaDrill
T1C0.300
; #@! TA.AperFunction,Plated,PTH,ComponentDrill
T2C0.300
; #@! TA.AperFunction,Plated,PTH,ViaDrill
T3C0.400
; #@! TA.AperFunction,Plated,PTH,ComponentDrill
T4C0.700
; #@! TA.AperFunction,Plated,PTH,ComponentDrill
T5C2.700
; #@! TA.AperFunction,Plated,PTH,ComponentDrill
T6C3.200
%
G90
G05
T1
X93.233Y-95.144
X93.233Y-96.007
X94.096Y-95.601
X94.909Y-95.144
X94.909Y-96.007
X94.979Y-89.872
X94.979Y-91.142
X94.979Y-92.412
X95.741Y-90.126
X95.741Y-91.092
X95.741Y-92.108
X96.3Y-88.806
X96.3Y-89.72
X96.3Y-90.584
X96.3Y-91.396
X96.3Y-92.26
X104.216Y-94.854
X104.216Y-96.53
X104.623Y-95.717
X105.08Y-94.854
X105.08Y-96.53
X106.045Y-89.825
X106.045Y-91.095
X106.045Y-92.365
X106.807Y-90.079
X106.807Y-91.044
X106.807Y-92.06
X107.366Y-88.758
X107.366Y-89.672
X107.366Y-90.536
X107.366Y-91.349
X107.366Y-92.212
X116.627Y-89.85
X116.627Y-91.12
X116.627Y-92.39
X117.389Y-90.104
X117.389Y-91.07
X117.389Y-92.086
X117.948Y-88.784
X117.948Y-89.698
X117.948Y-90.562
X117.948Y-91.374
X117.948Y-92.238
X124.39Y-94.83
X124.463Y-96.486
X124.87Y-95.673
X125.327Y-94.81
X125.327Y-96.486
T2
X103.575Y-110.27
X103.575Y-111.52
X103.575Y-112.82
X104.975Y-110.255
X104.975Y-111.525
X104.975Y-112.795
X106.4Y-110.245
X106.4Y-111.52
X106.4Y-112.795
T3
X91.084Y-84.734
X91.084Y-90.068
X91.084Y-95.199
X91.084Y-100.279
X91.084Y-105.359
X91.084Y-110.338
X91.084Y-115.316
X91.96Y-88.8
X92.25Y-92.86
X92.405Y-83.414
X92.964Y-117.145
X92.964Y-117.145
X93.31Y-88.601
X94.4Y-103.41
X94.4Y-104.61
X94.41Y-99.23
X94.41Y-100.35
X94.41Y-105.8
X94.42Y-98.07
X96.012Y-117.145
X96.063Y-83.414
X97.64Y-101.34
X97.655Y-102.51
X98.603Y-119.736
X98.628Y-123.419
X98.65Y-98.91
X98.654Y-77.673
X98.654Y-80.823
X98.69Y-97.72
X99.302Y-118.29
X99.873Y-80.01
X99.873Y-81.991
X99.924Y-124.714
X100.0Y-122.26
X100.02Y-98.95
X100.432Y-75.895
X100.584Y-80.975
X100.89Y-114.21
X101.346Y-80.01
X101.346Y-81.991
X101.58Y-108.17
X102.272Y-118.27
X102.35Y-107.49
X102.352Y-88.601
X103.2Y-98.13
X104.12Y-84.68
X104.13Y-83.53
X104.424Y-88.555
X104.45Y-116.978
X105.359Y-124.714
X105.814Y-101.861
X105.85Y-120.44
X106.1Y-83.53
X106.1Y-116.94
X106.12Y-84.71
X106.731Y-75.895
X106.93Y-100.406
X108.11Y-84.64
X108.12Y-83.54
X108.12Y-101.148
X108.28Y-119.58
X108.3Y-121.125
X108.35Y-123.0
X108.46Y-102.67
X108.48Y-104.22
X108.58Y-116.945
X108.615Y-97.861
X108.94Y-108.77
X109.21Y-118.845
X109.26Y-77.48
X109.26Y-78.66
X109.26Y-79.78
X109.64Y-82.17
X110.005Y-109.755
X110.418Y-93.367
X110.49Y-124.714
X111.14Y-114.145
X111.669Y-110.324
X111.709Y-75.895
X111.93Y-102.31
X112.27Y-80.93
X113.14Y-113.21
X113.184Y-88.59
X113.39Y-108.8
X113.51Y-107.775
X113.894Y-101.092
X113.898Y-99.471
X113.92Y-112.29
X114.27Y-93.55
X114.85Y-113.18
X115.14Y-95.63
X115.311Y-88.58
X115.418Y-100.254
X115.57Y-124.714
X115.993Y-113.093
X116.487Y-122.898
X116.687Y-108.017
X116.789Y-75.895
X116.992Y-99.416
X117.043Y-101.092
X117.15Y-113.14
X117.36Y-79.91
X118.58Y-122.855
X118.645Y-98.475
X118.718Y-108.038
X118.79Y-103.84
X118.96Y-78.66
X118.96Y-79.8
X118.97Y-77.47
X119.88Y-81.93
X120.65Y-124.714
X121.22Y-78.689
X121.22Y-79.908
X121.271Y-77.47
X121.869Y-75.895
X122.0Y-99.09
X122.3Y-104.28
X122.49Y-117.18
X122.5Y-102.27
X122.67Y-83.35
X123.24Y-108.14
X123.31Y-123.82
X123.61Y-117.94
X123.847Y-102.27
X124.072Y-106.816
X124.126Y-88.565
X124.38Y-108.95
X124.43Y-116.38
X124.61Y-97.58
X125.297Y-101.545
X125.47Y-109.11
X125.628Y-124.714
X125.779Y-113.813
X126.35Y-97.57
X126.41Y-107.15
X126.649Y-110.576
X127.0Y-75.895
X127.075Y-100.544
X127.55Y-107.865
X127.797Y-101.235
X128.28Y-116.39
X128.39Y-113.43
X128.5Y-109.46
X129.22Y-114.06
X129.632Y-103.775
X129.635Y-102.085
X129.92Y-85.56
X130.05Y-115.65
X130.475Y-111.61
X130.708Y-124.714
X130.891Y-117.561
X130.974Y-77.419
X130.974Y-78.689
X130.974Y-79.908
X131.115Y-83.058
X131.354Y-96.007
X131.371Y-97.049
X131.47Y-75.895
X131.87Y-94.25
X132.029Y-90.322
X132.05Y-105.626
X132.074Y-108.365
X132.076Y-106.626
X132.436Y-76.911
X132.436Y-80.823
X132.436Y-119.736
X132.436Y-122.987
X132.69Y-83.007
X133.026Y-106.936
X133.03Y-95.69
X133.733Y-109.017
X134.03Y-95.711
X134.859Y-116.202
X134.976Y-117.196
X135.001Y-83.388
X136.41Y-114.22
X137.45Y-86.14
X138.45Y-86.14
X138.633Y-117.196
X138.887Y-83.414
X139.954Y-84.48
X139.954Y-90.475
X139.954Y-95.606
X139.954Y-100.686
X139.954Y-105.766
X139.954Y-110.744
X139.954Y-115.875
T4
X136.62Y-105.32
X136.62Y-106.59
X136.62Y-107.86
X136.62Y-109.13
X136.62Y-110.4
X137.89Y-105.32
X137.89Y-106.59
X137.89Y-107.86
X137.89Y-109.13
X137.89Y-110.4
T5
X93.96Y-109.74
X93.96Y-114.74
T6
X94.524Y-79.31
X94.524Y-121.31
X136.524Y-79.31
X136.524Y-121.31
M30
