%TF.GenerationSoftware,KiCad,Pcbnew,8.0.4-8.0.4-0~ubuntu22.04.1*%
%TF.CreationDate,2024-08-14T23:11:35+09:00*%
%TF.ProjectId,motor_driver,6d6f746f-725f-4647-9269-7665722e6b69,rev?*%
%TF.SameCoordinates,Original*%
%TF.FileFunction,Legend,Bot*%
%TF.FilePolarity,Positive*%
%FSLAX46Y46*%
G04 Gerber Fmt 4.6, Leading zero omitted, Abs format (unit mm)*
G04 Created by KiCad (PCBNEW 8.0.4-8.0.4-0~ubuntu22.04.1) date 2024-08-14 23:11:35*
%MOMM*%
%LPD*%
G01*
G04 APERTURE LIST*
G04 Aperture macros list*
%AMRoundRect*
0 Rectangle with rounded corners*
0 $1 Rounding radius*
0 $2 $3 $4 $5 $6 $7 $8 $9 X,Y pos of 4 corners*
0 Add a 4 corners polygon primitive as box body*
4,1,4,$2,$3,$4,$5,$6,$7,$8,$9,$2,$3,0*
0 Add four circle primitives for the rounded corners*
1,1,$1+$1,$2,$3*
1,1,$1+$1,$4,$5*
1,1,$1+$1,$6,$7*
1,1,$1+$1,$8,$9*
0 Add four rect primitives between the rounded corners*
20,1,$1+$1,$2,$3,$4,$5,0*
20,1,$1+$1,$4,$5,$6,$7,0*
20,1,$1+$1,$6,$7,$8,$9,0*
20,1,$1+$1,$8,$9,$2,$3,0*%
G04 Aperture macros list end*
%ADD10C,0.100000*%
%ADD11C,0.120000*%
%ADD12C,3.600000*%
%ADD13C,6.400000*%
%ADD14R,3.800000X3.800000*%
%ADD15C,4.000000*%
%ADD16C,1.070000*%
%ADD17C,0.508000*%
%ADD18RoundRect,0.250000X0.450000X-0.350000X0.450000X0.350000X-0.450000X0.350000X-0.450000X-0.350000X0*%
%ADD19RoundRect,0.237500X0.237500X-0.300000X0.237500X0.300000X-0.237500X0.300000X-0.237500X-0.300000X0*%
%ADD20RoundRect,0.237500X-0.300000X-0.237500X0.300000X-0.237500X0.300000X0.237500X-0.300000X0.237500X0*%
%ADD21RoundRect,0.250000X-0.450000X0.350000X-0.450000X-0.350000X0.450000X-0.350000X0.450000X0.350000X0*%
%ADD22R,0.610000X2.000000*%
%ADD23R,2.680000X3.600000*%
%ADD24R,3.100000X3.000000*%
%ADD25RoundRect,0.100000X-0.100000X0.687500X-0.100000X-0.687500X0.100000X-0.687500X0.100000X0.687500X0*%
%ADD26RoundRect,0.237500X-0.237500X0.300000X-0.237500X-0.300000X0.237500X-0.300000X0.237500X0.300000X0*%
%ADD27R,0.650000X1.560000*%
G04 APERTURE END LIST*
D10*
X117275033Y-90749733D02*
X116941700Y-90516400D01*
X117275033Y-90349733D02*
X116575033Y-90349733D01*
X116575033Y-90349733D02*
X116575033Y-90616400D01*
X116575033Y-90616400D02*
X116608366Y-90683067D01*
X116608366Y-90683067D02*
X116641700Y-90716400D01*
X116641700Y-90716400D02*
X116708366Y-90749733D01*
X116708366Y-90749733D02*
X116808366Y-90749733D01*
X116808366Y-90749733D02*
X116875033Y-90716400D01*
X116875033Y-90716400D02*
X116908366Y-90683067D01*
X116908366Y-90683067D02*
X116941700Y-90616400D01*
X116941700Y-90616400D02*
X116941700Y-90349733D01*
X117275033Y-91416400D02*
X117275033Y-91016400D01*
X117275033Y-91216400D02*
X116575033Y-91216400D01*
X116575033Y-91216400D02*
X116675033Y-91149733D01*
X116675033Y-91149733D02*
X116741700Y-91083067D01*
X116741700Y-91083067D02*
X116775033Y-91016400D01*
X134351966Y-85089999D02*
X134385300Y-85056666D01*
X134385300Y-85056666D02*
X134418633Y-84956666D01*
X134418633Y-84956666D02*
X134418633Y-84889999D01*
X134418633Y-84889999D02*
X134385300Y-84789999D01*
X134385300Y-84789999D02*
X134318633Y-84723333D01*
X134318633Y-84723333D02*
X134251966Y-84689999D01*
X134251966Y-84689999D02*
X134118633Y-84656666D01*
X134118633Y-84656666D02*
X134018633Y-84656666D01*
X134018633Y-84656666D02*
X133885300Y-84689999D01*
X133885300Y-84689999D02*
X133818633Y-84723333D01*
X133818633Y-84723333D02*
X133751966Y-84789999D01*
X133751966Y-84789999D02*
X133718633Y-84889999D01*
X133718633Y-84889999D02*
X133718633Y-84956666D01*
X133718633Y-84956666D02*
X133751966Y-85056666D01*
X133751966Y-85056666D02*
X133785300Y-85089999D01*
X134418633Y-85756666D02*
X134418633Y-85356666D01*
X134418633Y-85556666D02*
X133718633Y-85556666D01*
X133718633Y-85556666D02*
X133818633Y-85489999D01*
X133818633Y-85489999D02*
X133885300Y-85423333D01*
X133885300Y-85423333D02*
X133918633Y-85356666D01*
X133718633Y-86390000D02*
X133718633Y-86056666D01*
X133718633Y-86056666D02*
X134051966Y-86023333D01*
X134051966Y-86023333D02*
X134018633Y-86056666D01*
X134018633Y-86056666D02*
X133985300Y-86123333D01*
X133985300Y-86123333D02*
X133985300Y-86290000D01*
X133985300Y-86290000D02*
X134018633Y-86356666D01*
X134018633Y-86356666D02*
X134051966Y-86390000D01*
X134051966Y-86390000D02*
X134118633Y-86423333D01*
X134118633Y-86423333D02*
X134285300Y-86423333D01*
X134285300Y-86423333D02*
X134351966Y-86390000D01*
X134351966Y-86390000D02*
X134385300Y-86356666D01*
X134385300Y-86356666D02*
X134418633Y-86290000D01*
X134418633Y-86290000D02*
X134418633Y-86123333D01*
X134418633Y-86123333D02*
X134385300Y-86056666D01*
X134385300Y-86056666D02*
X134351966Y-86023333D01*
X129620000Y-86111966D02*
X129653333Y-86145300D01*
X129653333Y-86145300D02*
X129753333Y-86178633D01*
X129753333Y-86178633D02*
X129820000Y-86178633D01*
X129820000Y-86178633D02*
X129920000Y-86145300D01*
X129920000Y-86145300D02*
X129986667Y-86078633D01*
X129986667Y-86078633D02*
X130020000Y-86011966D01*
X130020000Y-86011966D02*
X130053333Y-85878633D01*
X130053333Y-85878633D02*
X130053333Y-85778633D01*
X130053333Y-85778633D02*
X130020000Y-85645300D01*
X130020000Y-85645300D02*
X129986667Y-85578633D01*
X129986667Y-85578633D02*
X129920000Y-85511966D01*
X129920000Y-85511966D02*
X129820000Y-85478633D01*
X129820000Y-85478633D02*
X129753333Y-85478633D01*
X129753333Y-85478633D02*
X129653333Y-85511966D01*
X129653333Y-85511966D02*
X129620000Y-85545300D01*
X128953333Y-86178633D02*
X129353333Y-86178633D01*
X129153333Y-86178633D02*
X129153333Y-85478633D01*
X129153333Y-85478633D02*
X129220000Y-85578633D01*
X129220000Y-85578633D02*
X129286667Y-85645300D01*
X129286667Y-85645300D02*
X129353333Y-85678633D01*
X128353333Y-85711966D02*
X128353333Y-86178633D01*
X128520000Y-85445300D02*
X128686666Y-85945300D01*
X128686666Y-85945300D02*
X128253333Y-85945300D01*
X101013833Y-90720933D02*
X100680500Y-90487600D01*
X101013833Y-90320933D02*
X100313833Y-90320933D01*
X100313833Y-90320933D02*
X100313833Y-90587600D01*
X100313833Y-90587600D02*
X100347166Y-90654267D01*
X100347166Y-90654267D02*
X100380500Y-90687600D01*
X100380500Y-90687600D02*
X100447166Y-90720933D01*
X100447166Y-90720933D02*
X100547166Y-90720933D01*
X100547166Y-90720933D02*
X100613833Y-90687600D01*
X100613833Y-90687600D02*
X100647166Y-90654267D01*
X100647166Y-90654267D02*
X100680500Y-90587600D01*
X100680500Y-90587600D02*
X100680500Y-90320933D01*
X101013833Y-91054267D02*
X101013833Y-91187600D01*
X101013833Y-91187600D02*
X100980500Y-91254267D01*
X100980500Y-91254267D02*
X100947166Y-91287600D01*
X100947166Y-91287600D02*
X100847166Y-91354267D01*
X100847166Y-91354267D02*
X100713833Y-91387600D01*
X100713833Y-91387600D02*
X100447166Y-91387600D01*
X100447166Y-91387600D02*
X100380500Y-91354267D01*
X100380500Y-91354267D02*
X100347166Y-91320933D01*
X100347166Y-91320933D02*
X100313833Y-91254267D01*
X100313833Y-91254267D02*
X100313833Y-91120933D01*
X100313833Y-91120933D02*
X100347166Y-91054267D01*
X100347166Y-91054267D02*
X100380500Y-91020933D01*
X100380500Y-91020933D02*
X100447166Y-90987600D01*
X100447166Y-90987600D02*
X100613833Y-90987600D01*
X100613833Y-90987600D02*
X100680500Y-91020933D01*
X100680500Y-91020933D02*
X100713833Y-91054267D01*
X100713833Y-91054267D02*
X100747166Y-91120933D01*
X100747166Y-91120933D02*
X100747166Y-91254267D01*
X100747166Y-91254267D02*
X100713833Y-91320933D01*
X100713833Y-91320933D02*
X100680500Y-91354267D01*
X100680500Y-91354267D02*
X100613833Y-91387600D01*
X132646800Y-94370366D02*
X132680133Y-94403700D01*
X132680133Y-94403700D02*
X132780133Y-94437033D01*
X132780133Y-94437033D02*
X132846800Y-94437033D01*
X132846800Y-94437033D02*
X132946800Y-94403700D01*
X132946800Y-94403700D02*
X133013467Y-94337033D01*
X133013467Y-94337033D02*
X133046800Y-94270366D01*
X133046800Y-94270366D02*
X133080133Y-94137033D01*
X133080133Y-94137033D02*
X133080133Y-94037033D01*
X133080133Y-94037033D02*
X133046800Y-93903700D01*
X133046800Y-93903700D02*
X133013467Y-93837033D01*
X133013467Y-93837033D02*
X132946800Y-93770366D01*
X132946800Y-93770366D02*
X132846800Y-93737033D01*
X132846800Y-93737033D02*
X132780133Y-93737033D01*
X132780133Y-93737033D02*
X132680133Y-93770366D01*
X132680133Y-93770366D02*
X132646800Y-93803700D01*
X131980133Y-94437033D02*
X132380133Y-94437033D01*
X132180133Y-94437033D02*
X132180133Y-93737033D01*
X132180133Y-93737033D02*
X132246800Y-93837033D01*
X132246800Y-93837033D02*
X132313467Y-93903700D01*
X132313467Y-93903700D02*
X132380133Y-93937033D01*
X131746800Y-93737033D02*
X131280133Y-93737033D01*
X131280133Y-93737033D02*
X131580133Y-94437033D01*
X106392433Y-90723933D02*
X106059100Y-90490600D01*
X106392433Y-90323933D02*
X105692433Y-90323933D01*
X105692433Y-90323933D02*
X105692433Y-90590600D01*
X105692433Y-90590600D02*
X105725766Y-90657267D01*
X105725766Y-90657267D02*
X105759100Y-90690600D01*
X105759100Y-90690600D02*
X105825766Y-90723933D01*
X105825766Y-90723933D02*
X105925766Y-90723933D01*
X105925766Y-90723933D02*
X105992433Y-90690600D01*
X105992433Y-90690600D02*
X106025766Y-90657267D01*
X106025766Y-90657267D02*
X106059100Y-90590600D01*
X106059100Y-90590600D02*
X106059100Y-90323933D01*
X105759100Y-90990600D02*
X105725766Y-91023933D01*
X105725766Y-91023933D02*
X105692433Y-91090600D01*
X105692433Y-91090600D02*
X105692433Y-91257267D01*
X105692433Y-91257267D02*
X105725766Y-91323933D01*
X105725766Y-91323933D02*
X105759100Y-91357267D01*
X105759100Y-91357267D02*
X105825766Y-91390600D01*
X105825766Y-91390600D02*
X105892433Y-91390600D01*
X105892433Y-91390600D02*
X105992433Y-91357267D01*
X105992433Y-91357267D02*
X106392433Y-90957267D01*
X106392433Y-90957267D02*
X106392433Y-91390600D01*
X95278233Y-90719753D02*
X94944900Y-90486420D01*
X95278233Y-90319753D02*
X94578233Y-90319753D01*
X94578233Y-90319753D02*
X94578233Y-90586420D01*
X94578233Y-90586420D02*
X94611566Y-90653087D01*
X94611566Y-90653087D02*
X94644900Y-90686420D01*
X94644900Y-90686420D02*
X94711566Y-90719753D01*
X94711566Y-90719753D02*
X94811566Y-90719753D01*
X94811566Y-90719753D02*
X94878233Y-90686420D01*
X94878233Y-90686420D02*
X94911566Y-90653087D01*
X94911566Y-90653087D02*
X94944900Y-90586420D01*
X94944900Y-90586420D02*
X94944900Y-90319753D01*
X94578233Y-90953087D02*
X94578233Y-91386420D01*
X94578233Y-91386420D02*
X94844900Y-91153087D01*
X94844900Y-91153087D02*
X94844900Y-91253087D01*
X94844900Y-91253087D02*
X94878233Y-91319753D01*
X94878233Y-91319753D02*
X94911566Y-91353087D01*
X94911566Y-91353087D02*
X94978233Y-91386420D01*
X94978233Y-91386420D02*
X95144900Y-91386420D01*
X95144900Y-91386420D02*
X95211566Y-91353087D01*
X95211566Y-91353087D02*
X95244900Y-91319753D01*
X95244900Y-91319753D02*
X95278233Y-91253087D01*
X95278233Y-91253087D02*
X95278233Y-91053087D01*
X95278233Y-91053087D02*
X95244900Y-90986420D01*
X95244900Y-90986420D02*
X95211566Y-90953087D01*
X115623333Y-83428633D02*
X115623333Y-83928633D01*
X115623333Y-83928633D02*
X115656666Y-84028633D01*
X115656666Y-84028633D02*
X115723333Y-84095300D01*
X115723333Y-84095300D02*
X115823333Y-84128633D01*
X115823333Y-84128633D02*
X115890000Y-84128633D01*
X115323333Y-83495300D02*
X115290000Y-83461966D01*
X115290000Y-83461966D02*
X115223333Y-83428633D01*
X115223333Y-83428633D02*
X115056667Y-83428633D01*
X115056667Y-83428633D02*
X114990000Y-83461966D01*
X114990000Y-83461966D02*
X114956667Y-83495300D01*
X114956667Y-83495300D02*
X114923333Y-83561966D01*
X114923333Y-83561966D02*
X114923333Y-83628633D01*
X114923333Y-83628633D02*
X114956667Y-83728633D01*
X114956667Y-83728633D02*
X115356667Y-84128633D01*
X115356667Y-84128633D02*
X114923333Y-84128633D01*
X126218633Y-90636633D02*
X125885300Y-90403300D01*
X126218633Y-90236633D02*
X125518633Y-90236633D01*
X125518633Y-90236633D02*
X125518633Y-90503300D01*
X125518633Y-90503300D02*
X125551966Y-90569967D01*
X125551966Y-90569967D02*
X125585300Y-90603300D01*
X125585300Y-90603300D02*
X125651966Y-90636633D01*
X125651966Y-90636633D02*
X125751966Y-90636633D01*
X125751966Y-90636633D02*
X125818633Y-90603300D01*
X125818633Y-90603300D02*
X125851966Y-90569967D01*
X125851966Y-90569967D02*
X125885300Y-90503300D01*
X125885300Y-90503300D02*
X125885300Y-90236633D01*
X125518633Y-90869967D02*
X125518633Y-91336633D01*
X125518633Y-91336633D02*
X126218633Y-91036633D01*
X116013333Y-95438633D02*
X116013333Y-96005300D01*
X116013333Y-96005300D02*
X115980000Y-96071966D01*
X115980000Y-96071966D02*
X115946666Y-96105300D01*
X115946666Y-96105300D02*
X115880000Y-96138633D01*
X115880000Y-96138633D02*
X115746666Y-96138633D01*
X115746666Y-96138633D02*
X115680000Y-96105300D01*
X115680000Y-96105300D02*
X115646666Y-96071966D01*
X115646666Y-96071966D02*
X115613333Y-96005300D01*
X115613333Y-96005300D02*
X115613333Y-95438633D01*
X115313333Y-95505300D02*
X115280000Y-95471966D01*
X115280000Y-95471966D02*
X115213333Y-95438633D01*
X115213333Y-95438633D02*
X115046667Y-95438633D01*
X115046667Y-95438633D02*
X114980000Y-95471966D01*
X114980000Y-95471966D02*
X114946667Y-95505300D01*
X114946667Y-95505300D02*
X114913333Y-95571966D01*
X114913333Y-95571966D02*
X114913333Y-95638633D01*
X114913333Y-95638633D02*
X114946667Y-95738633D01*
X114946667Y-95738633D02*
X115346667Y-96138633D01*
X115346667Y-96138633D02*
X114913333Y-96138633D01*
X135180000Y-94334466D02*
X135213333Y-94367800D01*
X135213333Y-94367800D02*
X135313333Y-94401133D01*
X135313333Y-94401133D02*
X135380000Y-94401133D01*
X135380000Y-94401133D02*
X135480000Y-94367800D01*
X135480000Y-94367800D02*
X135546667Y-94301133D01*
X135546667Y-94301133D02*
X135580000Y-94234466D01*
X135580000Y-94234466D02*
X135613333Y-94101133D01*
X135613333Y-94101133D02*
X135613333Y-94001133D01*
X135613333Y-94001133D02*
X135580000Y-93867800D01*
X135580000Y-93867800D02*
X135546667Y-93801133D01*
X135546667Y-93801133D02*
X135480000Y-93734466D01*
X135480000Y-93734466D02*
X135380000Y-93701133D01*
X135380000Y-93701133D02*
X135313333Y-93701133D01*
X135313333Y-93701133D02*
X135213333Y-93734466D01*
X135213333Y-93734466D02*
X135180000Y-93767800D01*
X134513333Y-94401133D02*
X134913333Y-94401133D01*
X134713333Y-94401133D02*
X134713333Y-93701133D01*
X134713333Y-93701133D02*
X134780000Y-93801133D01*
X134780000Y-93801133D02*
X134846667Y-93867800D01*
X134846667Y-93867800D02*
X134913333Y-93901133D01*
X133913333Y-93701133D02*
X134046666Y-93701133D01*
X134046666Y-93701133D02*
X134113333Y-93734466D01*
X134113333Y-93734466D02*
X134146666Y-93767800D01*
X134146666Y-93767800D02*
X134213333Y-93867800D01*
X134213333Y-93867800D02*
X134246666Y-94001133D01*
X134246666Y-94001133D02*
X134246666Y-94267800D01*
X134246666Y-94267800D02*
X134213333Y-94334466D01*
X134213333Y-94334466D02*
X134180000Y-94367800D01*
X134180000Y-94367800D02*
X134113333Y-94401133D01*
X134113333Y-94401133D02*
X133980000Y-94401133D01*
X133980000Y-94401133D02*
X133913333Y-94367800D01*
X133913333Y-94367800D02*
X133880000Y-94334466D01*
X133880000Y-94334466D02*
X133846666Y-94267800D01*
X133846666Y-94267800D02*
X133846666Y-94101133D01*
X133846666Y-94101133D02*
X133880000Y-94034466D01*
X133880000Y-94034466D02*
X133913333Y-94001133D01*
X133913333Y-94001133D02*
X133980000Y-93967800D01*
X133980000Y-93967800D02*
X134113333Y-93967800D01*
X134113333Y-93967800D02*
X134180000Y-94001133D01*
X134180000Y-94001133D02*
X134213333Y-94034466D01*
X134213333Y-94034466D02*
X134246666Y-94101133D01*
X135473333Y-88468633D02*
X135473333Y-89035300D01*
X135473333Y-89035300D02*
X135440000Y-89101966D01*
X135440000Y-89101966D02*
X135406666Y-89135300D01*
X135406666Y-89135300D02*
X135340000Y-89168633D01*
X135340000Y-89168633D02*
X135206666Y-89168633D01*
X135206666Y-89168633D02*
X135140000Y-89135300D01*
X135140000Y-89135300D02*
X135106666Y-89101966D01*
X135106666Y-89101966D02*
X135073333Y-89035300D01*
X135073333Y-89035300D02*
X135073333Y-88468633D01*
X134806667Y-88468633D02*
X134373333Y-88468633D01*
X134373333Y-88468633D02*
X134606667Y-88735300D01*
X134606667Y-88735300D02*
X134506667Y-88735300D01*
X134506667Y-88735300D02*
X134440000Y-88768633D01*
X134440000Y-88768633D02*
X134406667Y-88801966D01*
X134406667Y-88801966D02*
X134373333Y-88868633D01*
X134373333Y-88868633D02*
X134373333Y-89035300D01*
X134373333Y-89035300D02*
X134406667Y-89101966D01*
X134406667Y-89101966D02*
X134440000Y-89135300D01*
X134440000Y-89135300D02*
X134506667Y-89168633D01*
X134506667Y-89168633D02*
X134706667Y-89168633D01*
X134706667Y-89168633D02*
X134773333Y-89135300D01*
X134773333Y-89135300D02*
X134806667Y-89101966D01*
X111982433Y-90723933D02*
X111649100Y-90490600D01*
X111982433Y-90323933D02*
X111282433Y-90323933D01*
X111282433Y-90323933D02*
X111282433Y-90590600D01*
X111282433Y-90590600D02*
X111315766Y-90657267D01*
X111315766Y-90657267D02*
X111349100Y-90690600D01*
X111349100Y-90690600D02*
X111415766Y-90723933D01*
X111415766Y-90723933D02*
X111515766Y-90723933D01*
X111515766Y-90723933D02*
X111582433Y-90690600D01*
X111582433Y-90690600D02*
X111615766Y-90657267D01*
X111615766Y-90657267D02*
X111649100Y-90590600D01*
X111649100Y-90590600D02*
X111649100Y-90323933D01*
X111582433Y-91123933D02*
X111549100Y-91057267D01*
X111549100Y-91057267D02*
X111515766Y-91023933D01*
X111515766Y-91023933D02*
X111449100Y-90990600D01*
X111449100Y-90990600D02*
X111415766Y-90990600D01*
X111415766Y-90990600D02*
X111349100Y-91023933D01*
X111349100Y-91023933D02*
X111315766Y-91057267D01*
X111315766Y-91057267D02*
X111282433Y-91123933D01*
X111282433Y-91123933D02*
X111282433Y-91257267D01*
X111282433Y-91257267D02*
X111315766Y-91323933D01*
X111315766Y-91323933D02*
X111349100Y-91357267D01*
X111349100Y-91357267D02*
X111415766Y-91390600D01*
X111415766Y-91390600D02*
X111449100Y-91390600D01*
X111449100Y-91390600D02*
X111515766Y-91357267D01*
X111515766Y-91357267D02*
X111549100Y-91323933D01*
X111549100Y-91323933D02*
X111582433Y-91257267D01*
X111582433Y-91257267D02*
X111582433Y-91123933D01*
X111582433Y-91123933D02*
X111615766Y-91057267D01*
X111615766Y-91057267D02*
X111649100Y-91023933D01*
X111649100Y-91023933D02*
X111715766Y-90990600D01*
X111715766Y-90990600D02*
X111849100Y-90990600D01*
X111849100Y-90990600D02*
X111915766Y-91023933D01*
X111915766Y-91023933D02*
X111949100Y-91057267D01*
X111949100Y-91057267D02*
X111982433Y-91123933D01*
X111982433Y-91123933D02*
X111982433Y-91257267D01*
X111982433Y-91257267D02*
X111949100Y-91323933D01*
X111949100Y-91323933D02*
X111915766Y-91357267D01*
X111915766Y-91357267D02*
X111849100Y-91390600D01*
X111849100Y-91390600D02*
X111715766Y-91390600D01*
X111715766Y-91390600D02*
X111649100Y-91357267D01*
X111649100Y-91357267D02*
X111615766Y-91323933D01*
X111615766Y-91323933D02*
X111582433Y-91257267D01*
X130013333Y-88478633D02*
X130013333Y-89045300D01*
X130013333Y-89045300D02*
X129980000Y-89111966D01*
X129980000Y-89111966D02*
X129946666Y-89145300D01*
X129946666Y-89145300D02*
X129880000Y-89178633D01*
X129880000Y-89178633D02*
X129746666Y-89178633D01*
X129746666Y-89178633D02*
X129680000Y-89145300D01*
X129680000Y-89145300D02*
X129646666Y-89111966D01*
X129646666Y-89111966D02*
X129613333Y-89045300D01*
X129613333Y-89045300D02*
X129613333Y-88478633D01*
X128980000Y-88711966D02*
X128980000Y-89178633D01*
X129146667Y-88445300D02*
X129313333Y-88945300D01*
X129313333Y-88945300D02*
X128880000Y-88945300D01*
X137828400Y-94321966D02*
X137861733Y-94355300D01*
X137861733Y-94355300D02*
X137961733Y-94388633D01*
X137961733Y-94388633D02*
X138028400Y-94388633D01*
X138028400Y-94388633D02*
X138128400Y-94355300D01*
X138128400Y-94355300D02*
X138195067Y-94288633D01*
X138195067Y-94288633D02*
X138228400Y-94221966D01*
X138228400Y-94221966D02*
X138261733Y-94088633D01*
X138261733Y-94088633D02*
X138261733Y-93988633D01*
X138261733Y-93988633D02*
X138228400Y-93855300D01*
X138228400Y-93855300D02*
X138195067Y-93788633D01*
X138195067Y-93788633D02*
X138128400Y-93721966D01*
X138128400Y-93721966D02*
X138028400Y-93688633D01*
X138028400Y-93688633D02*
X137961733Y-93688633D01*
X137961733Y-93688633D02*
X137861733Y-93721966D01*
X137861733Y-93721966D02*
X137828400Y-93755300D01*
X137161733Y-94388633D02*
X137561733Y-94388633D01*
X137361733Y-94388633D02*
X137361733Y-93688633D01*
X137361733Y-93688633D02*
X137428400Y-93788633D01*
X137428400Y-93788633D02*
X137495067Y-93855300D01*
X137495067Y-93855300D02*
X137561733Y-93888633D01*
X136761733Y-93988633D02*
X136828400Y-93955300D01*
X136828400Y-93955300D02*
X136861733Y-93921966D01*
X136861733Y-93921966D02*
X136895066Y-93855300D01*
X136895066Y-93855300D02*
X136895066Y-93821966D01*
X136895066Y-93821966D02*
X136861733Y-93755300D01*
X136861733Y-93755300D02*
X136828400Y-93721966D01*
X136828400Y-93721966D02*
X136761733Y-93688633D01*
X136761733Y-93688633D02*
X136628400Y-93688633D01*
X136628400Y-93688633D02*
X136561733Y-93721966D01*
X136561733Y-93721966D02*
X136528400Y-93755300D01*
X136528400Y-93755300D02*
X136495066Y-93821966D01*
X136495066Y-93821966D02*
X136495066Y-93855300D01*
X136495066Y-93855300D02*
X136528400Y-93921966D01*
X136528400Y-93921966D02*
X136561733Y-93955300D01*
X136561733Y-93955300D02*
X136628400Y-93988633D01*
X136628400Y-93988633D02*
X136761733Y-93988633D01*
X136761733Y-93988633D02*
X136828400Y-94021966D01*
X136828400Y-94021966D02*
X136861733Y-94055300D01*
X136861733Y-94055300D02*
X136895066Y-94121966D01*
X136895066Y-94121966D02*
X136895066Y-94255300D01*
X136895066Y-94255300D02*
X136861733Y-94321966D01*
X136861733Y-94321966D02*
X136828400Y-94355300D01*
X136828400Y-94355300D02*
X136761733Y-94388633D01*
X136761733Y-94388633D02*
X136628400Y-94388633D01*
X136628400Y-94388633D02*
X136561733Y-94355300D01*
X136561733Y-94355300D02*
X136528400Y-94321966D01*
X136528400Y-94321966D02*
X136495066Y-94255300D01*
X136495066Y-94255300D02*
X136495066Y-94121966D01*
X136495066Y-94121966D02*
X136528400Y-94055300D01*
X136528400Y-94055300D02*
X136561733Y-94021966D01*
X136561733Y-94021966D02*
X136628400Y-93988633D01*
X110751966Y-100150833D02*
X110785300Y-100117500D01*
X110785300Y-100117500D02*
X110818633Y-100017500D01*
X110818633Y-100017500D02*
X110818633Y-99950833D01*
X110818633Y-99950833D02*
X110785300Y-99850833D01*
X110785300Y-99850833D02*
X110718633Y-99784167D01*
X110718633Y-99784167D02*
X110651966Y-99750833D01*
X110651966Y-99750833D02*
X110518633Y-99717500D01*
X110518633Y-99717500D02*
X110418633Y-99717500D01*
X110418633Y-99717500D02*
X110285300Y-99750833D01*
X110285300Y-99750833D02*
X110218633Y-99784167D01*
X110218633Y-99784167D02*
X110151966Y-99850833D01*
X110151966Y-99850833D02*
X110118633Y-99950833D01*
X110118633Y-99950833D02*
X110118633Y-100017500D01*
X110118633Y-100017500D02*
X110151966Y-100117500D01*
X110151966Y-100117500D02*
X110185300Y-100150833D01*
X110118633Y-100784167D02*
X110118633Y-100450833D01*
X110118633Y-100450833D02*
X110451966Y-100417500D01*
X110451966Y-100417500D02*
X110418633Y-100450833D01*
X110418633Y-100450833D02*
X110385300Y-100517500D01*
X110385300Y-100517500D02*
X110385300Y-100684167D01*
X110385300Y-100684167D02*
X110418633Y-100750833D01*
X110418633Y-100750833D02*
X110451966Y-100784167D01*
X110451966Y-100784167D02*
X110518633Y-100817500D01*
X110518633Y-100817500D02*
X110685300Y-100817500D01*
X110685300Y-100817500D02*
X110751966Y-100784167D01*
X110751966Y-100784167D02*
X110785300Y-100750833D01*
X110785300Y-100750833D02*
X110818633Y-100684167D01*
X110818633Y-100684167D02*
X110818633Y-100517500D01*
X110818633Y-100517500D02*
X110785300Y-100450833D01*
X110785300Y-100450833D02*
X110751966Y-100417500D01*
X129620000Y-84421966D02*
X129653333Y-84455300D01*
X129653333Y-84455300D02*
X129753333Y-84488633D01*
X129753333Y-84488633D02*
X129820000Y-84488633D01*
X129820000Y-84488633D02*
X129920000Y-84455300D01*
X129920000Y-84455300D02*
X129986667Y-84388633D01*
X129986667Y-84388633D02*
X130020000Y-84321966D01*
X130020000Y-84321966D02*
X130053333Y-84188633D01*
X130053333Y-84188633D02*
X130053333Y-84088633D01*
X130053333Y-84088633D02*
X130020000Y-83955300D01*
X130020000Y-83955300D02*
X129986667Y-83888633D01*
X129986667Y-83888633D02*
X129920000Y-83821966D01*
X129920000Y-83821966D02*
X129820000Y-83788633D01*
X129820000Y-83788633D02*
X129753333Y-83788633D01*
X129753333Y-83788633D02*
X129653333Y-83821966D01*
X129653333Y-83821966D02*
X129620000Y-83855300D01*
X128953333Y-84488633D02*
X129353333Y-84488633D01*
X129153333Y-84488633D02*
X129153333Y-83788633D01*
X129153333Y-83788633D02*
X129220000Y-83888633D01*
X129220000Y-83888633D02*
X129286667Y-83955300D01*
X129286667Y-83955300D02*
X129353333Y-83988633D01*
X128720000Y-83788633D02*
X128286666Y-83788633D01*
X128286666Y-83788633D02*
X128520000Y-84055300D01*
X128520000Y-84055300D02*
X128420000Y-84055300D01*
X128420000Y-84055300D02*
X128353333Y-84088633D01*
X128353333Y-84088633D02*
X128320000Y-84121966D01*
X128320000Y-84121966D02*
X128286666Y-84188633D01*
X128286666Y-84188633D02*
X128286666Y-84355300D01*
X128286666Y-84355300D02*
X128320000Y-84421966D01*
X128320000Y-84421966D02*
X128353333Y-84455300D01*
X128353333Y-84455300D02*
X128420000Y-84488633D01*
X128420000Y-84488633D02*
X128620000Y-84488633D01*
X128620000Y-84488633D02*
X128686666Y-84455300D01*
X128686666Y-84455300D02*
X128720000Y-84421966D01*
D11*
%TO.C,R1*%
X114571400Y-91093464D02*
X114571400Y-90639336D01*
X116041400Y-91093464D02*
X116041400Y-90639336D01*
%TO.C,C15*%
X134785600Y-85379333D02*
X134785600Y-85671867D01*
X135805600Y-85379333D02*
X135805600Y-85671867D01*
%TO.C,C14*%
X132038267Y-85320400D02*
X131745733Y-85320400D01*
X132038267Y-86340400D02*
X131745733Y-86340400D01*
%TO.C,R9*%
X101610200Y-90610536D02*
X101610200Y-91064664D01*
X103080200Y-90610536D02*
X103080200Y-91064664D01*
%TO.C,C17*%
X132343067Y-92178400D02*
X132050533Y-92178400D01*
X132343067Y-93198400D02*
X132050533Y-93198400D01*
%TO.C,R2*%
X103688800Y-91067664D02*
X103688800Y-90613536D01*
X105158800Y-91067664D02*
X105158800Y-90613536D01*
%TO.C,R3*%
X92574600Y-91063484D02*
X92574600Y-90609356D01*
X94044600Y-91063484D02*
X94044600Y-90609356D01*
D10*
%TO.C,J2*%
X99150400Y-75453600D02*
X99150400Y-78103600D01*
X103110400Y-85503600D02*
X103110400Y-85503600D01*
X103110400Y-85603600D02*
X103110400Y-85603600D01*
X118070400Y-75453600D02*
X99150400Y-75453600D01*
X118070400Y-78103600D02*
X118070400Y-75453600D01*
X103110400Y-85503600D02*
G75*
G02*
X103110400Y-85603600I0J-50000D01*
G01*
X103110400Y-85603600D02*
G75*
G02*
X103110400Y-85503600I0J50000D01*
G01*
D11*
%TO.C,R7*%
X123387100Y-90624136D02*
X123387100Y-91078264D01*
X124857100Y-90624136D02*
X124857100Y-91078264D01*
%TO.C,U2*%
X112858400Y-98343616D02*
X112858400Y-96629200D01*
X112858400Y-102214784D02*
X112858400Y-102479200D01*
X118078400Y-98343616D02*
X118078400Y-98079200D01*
X118078400Y-102214784D02*
X118078400Y-102479200D01*
%TO.C,C16*%
X134226800Y-91920267D02*
X134226800Y-91627733D01*
X135246800Y-91920267D02*
X135246800Y-91627733D01*
%TO.C,U3*%
X135870000Y-90388000D02*
X135870000Y-87938000D01*
X139090000Y-88588000D02*
X139090000Y-90388000D01*
%TO.C,R8*%
X112578800Y-90613536D02*
X112578800Y-91067664D01*
X114048800Y-90613536D02*
X114048800Y-91067664D01*
%TO.C,U4*%
X130434400Y-90337200D02*
X130434400Y-87887200D01*
X133654400Y-88537200D02*
X133654400Y-90337200D01*
%TO.C,C18*%
X137524667Y-92229200D02*
X137232133Y-92229200D01*
X137524667Y-93249200D02*
X137232133Y-93249200D01*
%TO.C,C5*%
X111420000Y-100413767D02*
X111420000Y-100121233D01*
X112440000Y-100413767D02*
X112440000Y-100121233D01*
%TO.C,C13*%
X132052367Y-83585600D02*
X131759833Y-83585600D01*
X132052367Y-84605600D02*
X131759833Y-84605600D01*
%TD*%
%LPC*%
D12*
%TO.C,H1*%
X94524000Y-79310400D03*
D13*
X94524000Y-79310400D03*
%TD*%
D14*
%TO.C,J1*%
X93960000Y-114740000D03*
D15*
X93960000Y-109740000D03*
%TD*%
D12*
%TO.C,H3*%
X136524000Y-79310400D03*
D13*
X136524000Y-79310400D03*
%TD*%
D16*
%TO.C,J3*%
X136620000Y-105320000D03*
X137890000Y-105320000D03*
X136620000Y-106590000D03*
X137890000Y-106590000D03*
X136620000Y-107860000D03*
X137890000Y-107860000D03*
X136620000Y-109130000D03*
X137890000Y-109130000D03*
X136620000Y-110400000D03*
X137890000Y-110400000D03*
%TD*%
D12*
%TO.C,H4*%
X136524000Y-121310400D03*
D13*
X136524000Y-121310400D03*
%TD*%
D12*
%TO.C,H2*%
X94524000Y-121310400D03*
D13*
X94524000Y-121310400D03*
%TD*%
D17*
%TO.C,U1*%
X106400000Y-110245000D03*
X104975000Y-110255000D03*
X103575000Y-110270000D03*
X106400000Y-111520000D03*
X103575000Y-111520000D03*
X104975000Y-111525000D03*
X106400000Y-112795000D03*
X104975000Y-112795000D03*
X103575000Y-112820000D03*
%TD*%
D18*
%TO.C,R1*%
X115306400Y-91866400D03*
X115306400Y-89866400D03*
%TD*%
D19*
%TO.C,C15*%
X135295600Y-86388100D03*
X135295600Y-84663100D03*
%TD*%
D20*
%TO.C,C14*%
X131029500Y-85830400D03*
X132754500Y-85830400D03*
%TD*%
D21*
%TO.C,R9*%
X102345200Y-89837600D03*
X102345200Y-91837600D03*
%TD*%
D20*
%TO.C,C17*%
X131334300Y-92688400D03*
X133059300Y-92688400D03*
%TD*%
D18*
%TO.C,R2*%
X104423800Y-91840600D03*
X104423800Y-89840600D03*
%TD*%
%TO.C,R3*%
X93309600Y-91836420D03*
X93309600Y-89836420D03*
%TD*%
D22*
%TO.C,J2*%
X103610400Y-83753600D03*
X104610400Y-83753600D03*
X105610400Y-83753600D03*
X106610400Y-83753600D03*
X107610400Y-83753600D03*
X108610400Y-83753600D03*
X109610400Y-83753600D03*
X110610400Y-83753600D03*
X111610400Y-83753600D03*
X112610400Y-83753600D03*
X113610400Y-83753600D03*
D23*
X100620400Y-80953600D03*
X116600400Y-80953600D03*
%TD*%
D21*
%TO.C,R7*%
X124122100Y-89851200D03*
X124122100Y-91851200D03*
%TD*%
D24*
%TO.C,U2*%
X115468400Y-100279200D03*
D25*
X113518400Y-97416700D03*
X114168400Y-97416700D03*
X114818400Y-97416700D03*
X115468400Y-97416700D03*
X116118400Y-97416700D03*
X116768400Y-97416700D03*
X117418400Y-97416700D03*
X117418400Y-103141700D03*
X116768400Y-103141700D03*
X116118400Y-103141700D03*
X115468400Y-103141700D03*
X114818400Y-103141700D03*
X114168400Y-103141700D03*
X113518400Y-103141700D03*
%TD*%
D26*
%TO.C,C16*%
X134736800Y-90911500D03*
X134736800Y-92636500D03*
%TD*%
D27*
%TO.C,U3*%
X136530000Y-88138000D03*
X137480000Y-88138000D03*
X138430000Y-88138000D03*
X138430000Y-90838000D03*
X136530000Y-90838000D03*
%TD*%
D21*
%TO.C,R8*%
X113313800Y-89840600D03*
X113313800Y-91840600D03*
%TD*%
D27*
%TO.C,U4*%
X131094400Y-88087200D03*
X132044400Y-88087200D03*
X132994400Y-88087200D03*
X132994400Y-90787200D03*
X131094400Y-90787200D03*
%TD*%
D20*
%TO.C,C18*%
X136515900Y-92739200D03*
X138240900Y-92739200D03*
%TD*%
D26*
%TO.C,C5*%
X111930000Y-99405000D03*
X111930000Y-101130000D03*
%TD*%
D20*
%TO.C,C13*%
X131043600Y-84095600D03*
X132768600Y-84095600D03*
%TD*%
%LPD*%
M02*
