%TF.GenerationSoftware,KiCad,Pcbnew,8.0.4-8.0.4-0~ubuntu22.04.1*%
%TF.CreationDate,2024-08-14T23:11:35+09:00*%
%TF.ProjectId,motor_driver,6d6f746f-725f-4647-9269-7665722e6b69,rev?*%
%TF.SameCoordinates,Original*%
%TF.FileFunction,Copper,L3,Inr*%
%TF.FilePolarity,Positive*%
%FSLAX46Y46*%
G04 Gerber Fmt 4.6, Leading zero omitted, Abs format (unit mm)*
G04 Created by KiCad (PCBNEW 8.0.4-8.0.4-0~ubuntu22.04.1) date 2024-08-14 23:11:35*
%MOMM*%
%LPD*%
G01*
G04 APERTURE LIST*
%TA.AperFunction,ComponentPad*%
%ADD10C,3.600000*%
%TD*%
%TA.AperFunction,ComponentPad*%
%ADD11R,3.800000X3.800000*%
%TD*%
%TA.AperFunction,ComponentPad*%
%ADD12C,4.000000*%
%TD*%
%TA.AperFunction,ComponentPad*%
%ADD13C,1.070000*%
%TD*%
%TA.AperFunction,ComponentPad*%
%ADD14C,0.508000*%
%TD*%
%TA.AperFunction,ViaPad*%
%ADD15C,0.508000*%
%TD*%
%TA.AperFunction,ViaPad*%
%ADD16C,0.800000*%
%TD*%
%TA.AperFunction,Conductor*%
%ADD17C,0.250000*%
%TD*%
%TA.AperFunction,Conductor*%
%ADD18C,0.500000*%
%TD*%
G04 APERTURE END LIST*
D10*
%TO.N,N/C*%
%TO.C,H1*%
X94524000Y-79310400D03*
%TD*%
D11*
%TO.N,GND*%
%TO.C,J1*%
X93960000Y-114740000D03*
D12*
%TO.N,+BATT*%
X93960000Y-109740000D03*
%TD*%
D10*
%TO.N,N/C*%
%TO.C,H3*%
X136524000Y-79310400D03*
%TD*%
D13*
%TO.N,+3.3V*%
%TO.C,J3*%
X136620000Y-105320000D03*
%TO.N,/stm32g431cb/SWDIO*%
X137890000Y-105320000D03*
%TO.N,GND*%
X136620000Y-106590000D03*
%TO.N,/stm32g431cb/SWCLK*%
X137890000Y-106590000D03*
%TO.N,GND*%
X136620000Y-107860000D03*
%TO.N,unconnected-(J3-SWO{slash}TDO-Pad6)*%
X137890000Y-107860000D03*
%TO.N,unconnected-(J3-KEY-Pad7)*%
X136620000Y-109130000D03*
%TO.N,unconnected-(J3-NC{slash}TDI-Pad8)*%
X137890000Y-109130000D03*
%TO.N,GND*%
X136620000Y-110400000D03*
%TO.N,/stm32g431cb/NRST*%
X137890000Y-110400000D03*
%TD*%
D10*
%TO.N,N/C*%
%TO.C,H4*%
X136524000Y-121310400D03*
%TD*%
%TO.N,N/C*%
%TO.C,H2*%
X94524000Y-121310400D03*
%TD*%
D14*
%TO.N,GND*%
%TO.C,U1*%
X106400000Y-110245000D03*
X104975000Y-110255000D03*
X103575000Y-110270000D03*
X106400000Y-111520000D03*
X103575000Y-111520000D03*
X104975000Y-111525000D03*
X106400000Y-112795000D03*
X104975000Y-112795000D03*
X103575000Y-112820000D03*
%TD*%
D15*
%TO.N,+BATT*%
X107365800Y-88757800D03*
X107365800Y-89672200D03*
X106045000Y-91094600D03*
X94979200Y-91142400D03*
X96300000Y-90583600D03*
X106807000Y-90078600D03*
X95741200Y-91091600D03*
X106045000Y-92364600D03*
X117948000Y-88783600D03*
X96300000Y-92260000D03*
X94979200Y-92412400D03*
X96300000Y-88805600D03*
X117948000Y-89698000D03*
X106807000Y-91043800D03*
D16*
X92250000Y-92860000D03*
D15*
X117389200Y-90104400D03*
X116627200Y-89850400D03*
D16*
X94400000Y-103410000D03*
D15*
X117948000Y-91374400D03*
X107365800Y-91348600D03*
X107365800Y-90535800D03*
D16*
X94400000Y-104610000D03*
D15*
X106807000Y-92059800D03*
X116627200Y-91120400D03*
X96300000Y-89720000D03*
X117948000Y-92238000D03*
X96300000Y-91396400D03*
X117948000Y-90561600D03*
X116627200Y-92390400D03*
D16*
X94410000Y-105800000D03*
D15*
X117389200Y-92085600D03*
X106045000Y-89824600D03*
X94979200Y-89872400D03*
X117389200Y-91069600D03*
X107365800Y-92212200D03*
X95741200Y-92107600D03*
X95741200Y-90126400D03*
D16*
X105814242Y-101860638D03*
%TO.N,GND*%
X118790000Y-103840000D03*
X91084400Y-84734400D03*
X139954000Y-90474800D03*
X125628400Y-124714000D03*
X130973600Y-78689200D03*
X118580000Y-122855000D03*
X118960000Y-78660000D03*
X113140000Y-113210000D03*
X92964000Y-117144800D03*
X138887200Y-83413600D03*
D15*
X105079800Y-94853800D03*
D16*
X118970000Y-77470000D03*
X91084400Y-110337600D03*
X92964000Y-117144800D03*
X110490000Y-124714000D03*
X91960000Y-88800000D03*
X111709200Y-75895200D03*
X100584000Y-80975200D03*
X100890000Y-114210000D03*
D15*
X104622600Y-95717400D03*
D16*
X101346000Y-81991200D03*
X98628199Y-123418601D03*
X96062800Y-83413600D03*
X91084400Y-95199200D03*
X99302500Y-118290000D03*
X128390000Y-113430000D03*
D15*
X105079800Y-96530200D03*
D16*
X100431598Y-75895200D03*
X123847500Y-102270000D03*
D15*
X125326800Y-96486100D03*
X104216200Y-96530200D03*
D16*
X113510153Y-107775153D03*
X91084400Y-115316000D03*
X122670000Y-83350000D03*
X132435600Y-122986800D03*
X138633200Y-117195600D03*
X121869200Y-75895200D03*
X105359200Y-124714000D03*
X98653600Y-80822802D03*
X109640000Y-82170000D03*
X121220000Y-78689200D03*
D15*
X93232800Y-95143600D03*
D16*
X106730800Y-75895200D03*
X91084400Y-100279200D03*
X101580000Y-108170000D03*
X127000000Y-75895200D03*
X99872800Y-81991200D03*
X122000000Y-99090000D03*
X139954000Y-105765600D03*
X117360000Y-79910000D03*
X108300000Y-121125000D03*
X91084400Y-105359200D03*
X94420000Y-98070000D03*
X98690000Y-97720000D03*
X99872800Y-80010000D03*
X130973600Y-79908400D03*
X132435600Y-80822800D03*
X130973600Y-77419200D03*
X101346000Y-80010000D03*
X113893600Y-101092000D03*
X120650000Y-124714000D03*
X131870000Y-94250000D03*
X113898075Y-99470523D03*
D15*
X124463200Y-96486100D03*
X94909200Y-95143600D03*
D16*
X98602800Y-119735600D03*
X113390000Y-108800000D03*
X125779169Y-113812797D03*
X121270800Y-77470000D03*
X115417600Y-100253800D03*
X123310000Y-123820000D03*
X108480000Y-104220000D03*
D15*
X94096400Y-95600800D03*
D16*
X111140000Y-114145000D03*
X139954000Y-115874802D03*
X111930000Y-102310000D03*
X100000000Y-122260000D03*
X116992400Y-99415600D03*
X98653600Y-77673200D03*
X108940000Y-108770000D03*
X91084400Y-90068400D03*
X131470400Y-75895200D03*
X121220000Y-79908400D03*
D15*
X125326800Y-94809700D03*
D16*
X99923600Y-124714000D03*
X92405198Y-83413600D03*
X117043200Y-101092000D03*
X94410000Y-99230000D03*
X109260000Y-79780000D03*
X139954000Y-84480400D03*
X130708402Y-124714000D03*
X96012000Y-117144800D03*
D15*
X124390000Y-94830000D03*
D16*
X124610000Y-97580000D03*
D15*
X94909200Y-96007200D03*
D16*
X132435600Y-119735600D03*
X124430000Y-116380000D03*
D15*
X93232800Y-96007200D03*
D16*
X108460000Y-102670000D03*
X116789200Y-75895200D03*
X109260000Y-77480000D03*
X108350000Y-123000000D03*
X137449997Y-86140000D03*
X115570000Y-124714000D03*
X129220000Y-114060000D03*
X139954000Y-100685600D03*
X135001000Y-83388200D03*
X132689600Y-83007200D03*
X139954000Y-110744000D03*
D15*
X104216200Y-94853800D03*
D16*
X108615500Y-97860800D03*
X132435600Y-76911200D03*
X102350000Y-107490000D03*
X118960000Y-79800000D03*
X134975600Y-117195600D03*
X94410000Y-100350000D03*
X139954000Y-95605600D03*
X109260000Y-78660000D03*
D15*
X124869600Y-95673300D03*
D16*
X129634850Y-102084850D03*
%TO.N,+5V*%
X131114800Y-83058000D03*
X129920000Y-85560000D03*
X112270000Y-80930000D03*
X119880000Y-81930000D03*
X115140000Y-95630000D03*
X138450000Y-86140000D03*
%TO.N,+3.3VA*%
X133732653Y-109017347D03*
X102272038Y-118270462D03*
X104449999Y-116977519D03*
X126648600Y-110576319D03*
%TO.N,/drv8323/SLC*%
X100020000Y-98950000D03*
X97640000Y-101340000D03*
%TO.N,+3.3V*%
X136410000Y-114220000D03*
X129632500Y-103775200D03*
X130475000Y-111610000D03*
X122500000Y-102270000D03*
X130890851Y-117560851D03*
X116487500Y-122897891D03*
X132029200Y-90322400D03*
X122300000Y-104280000D03*
%TO.N,/stm32g431cb/OSC_OUT*%
X118717653Y-108037653D03*
X116687347Y-108017347D03*
%TO.N,/stm32g431cb/NRST*%
X134859109Y-116202406D03*
X123240000Y-108140000D03*
%TO.N,/drv8323/HALL_W*%
X127797500Y-101235195D03*
%TO.N,/drv8323/HALL_U*%
X127075000Y-100543825D03*
%TO.N,/drv8323/HALL_V*%
X126350000Y-97570000D03*
%TO.N,/drv8323/SHA*%
X108120000Y-83540000D03*
X108110000Y-84640000D03*
X114270000Y-93550000D03*
X106930000Y-100406396D03*
%TO.N,/drv8323/SHB*%
X106100000Y-83530000D03*
X106120000Y-84710000D03*
%TO.N,/drv8323/SHC*%
X104120000Y-84680000D03*
X104130000Y-83530000D03*
%TO.N,/drv8323/SPI1_MISO*%
X106100000Y-116940000D03*
X108580000Y-116945000D03*
%TO.N,/drv8323/SS_ENC*%
X125297500Y-101545000D03*
%TO.N,/drv8323/GHA*%
X108120000Y-101147633D03*
%TO.N,/drv8323/GHB*%
X103200000Y-98130000D03*
%TO.N,/drv8323/GHC*%
X98650000Y-98910000D03*
%TO.N,/drv8323/GLA*%
X118645000Y-98475000D03*
%TO.N,/drv8323/GLB*%
X110418200Y-93367300D03*
%TO.N,/drv8323/GLC*%
X97655000Y-102510000D03*
%TO.N,/stm32g431cb/LED1*%
X122490000Y-117180000D03*
X128280000Y-116390000D03*
%TO.N,/stm32g431cb/LED2*%
X123610000Y-117940000D03*
X130050000Y-115650000D03*
%TO.N,/stm32g431cb/LED_CAN_TX*%
X134029785Y-95710829D03*
X132073524Y-108365000D03*
%TO.N,/stm32g431cb/LED_CAN_RX*%
X133030000Y-95690000D03*
X133026339Y-106936459D03*
%TO.N,/stm32g431cb/ADC1_3*%
X105850000Y-120440000D03*
X117150000Y-113140000D03*
%TO.N,/stm32g431cb/ADC1_2*%
X108280000Y-119580000D03*
X115992653Y-113092653D03*
%TO.N,/stm32g431cb/ADC1_1*%
X114850000Y-113180000D03*
X109210000Y-118845000D03*
%TO.N,/stm32g431cb/CAN_TX*%
X131370754Y-97049246D03*
X132050178Y-105626136D03*
%TO.N,/stm32g431cb/CAN_RX*%
X131353849Y-96007035D03*
X132075812Y-106625807D03*
%TO.N,Net-(Q2-TR2_GATE)*%
X113183800Y-88590400D03*
%TO.N,Net-(Q2-TR1_GATE)*%
X104423800Y-88554600D03*
%TO.N,Net-(Q3-TR1_GATE)*%
X93309600Y-88601220D03*
%TO.N,Net-(Q3-TR2_GATE)*%
X102352000Y-88601220D03*
%TO.N,/drv8323/SPI2_CLK*%
X128500000Y-109460200D03*
%TO.N,/drv8323/SPI2_MOSI*%
X127550000Y-107865000D03*
%TO.N,/drv8323/SPI2_MISO*%
X126410000Y-107150000D03*
%TO.N,/stm32g431cb/TIM4_INHC*%
X110005305Y-109755305D03*
X124072500Y-106815921D03*
%TO.N,/stm32g431cb/TIM4_INHA*%
X113920000Y-112290000D03*
X125470000Y-109110000D03*
%TO.N,/stm32g431cb/TIM4_INHB*%
X124380000Y-108950000D03*
X111669195Y-110323800D03*
%TO.N,Net-(Q1-TR2_GATE)*%
X124126500Y-88565200D03*
%TO.N,Net-(Q1-TR1_GATE)*%
X115310800Y-88580400D03*
%TD*%
D17*
%TO.N,+BATT*%
X104223604Y-100270000D02*
X96930000Y-100270000D01*
X105814242Y-101860638D02*
X104223604Y-100270000D01*
X96930000Y-100270000D02*
X94400000Y-102800000D01*
X94400000Y-102800000D02*
X94400000Y-103410000D01*
D18*
%TO.N,GND*%
X135026402Y-83413600D02*
X138887200Y-83413600D01*
X92862398Y-117144800D02*
X91084400Y-115366802D01*
X138887200Y-83413600D02*
X139954000Y-84480400D01*
X98653600Y-77673198D02*
X100431598Y-75895200D01*
X91084400Y-115366802D02*
X91084400Y-84734400D01*
X132435600Y-119735598D02*
X132435600Y-122986802D01*
X132435600Y-76860400D02*
X132435600Y-80822802D01*
X130708402Y-124714000D02*
X99923598Y-124714000D01*
X132435600Y-80822800D02*
X135026402Y-83413600D01*
X131470400Y-75895200D02*
X132435600Y-76860400D01*
X96062802Y-83413600D02*
X98653600Y-80822802D01*
X139954000Y-84480400D02*
X139954000Y-115874802D01*
X132435600Y-122986802D02*
X130708402Y-124714000D01*
X96012002Y-117144800D02*
X92862398Y-117144800D01*
X139954000Y-115874802D02*
X138633202Y-117195600D01*
X138633202Y-117195600D02*
X134975598Y-117195600D01*
X98602800Y-119735598D02*
X96012002Y-117144800D01*
X99923598Y-124714000D02*
X98602800Y-123393202D01*
X92405198Y-83413600D02*
X96062802Y-83413600D01*
X134975598Y-117195600D02*
X132435600Y-119735598D01*
X100431598Y-75895200D02*
X131470400Y-75895200D01*
D17*
X111404400Y-112776000D02*
X111556800Y-112623600D01*
D18*
X98602800Y-123393202D02*
X98602800Y-119735598D01*
X98653600Y-80822802D02*
X98653600Y-77673198D01*
X91084400Y-84734400D02*
X92405198Y-83413600D01*
D17*
%TO.N,+3.3VA*%
X133732653Y-109017347D02*
X132190000Y-110560000D01*
X121009919Y-116215000D02*
X105212518Y-116215000D01*
X105212518Y-116215000D02*
X104449999Y-116977519D01*
X126664919Y-110560000D02*
X126648600Y-110576319D01*
X126648600Y-110576319D02*
X121009919Y-116215000D01*
X132190000Y-110560000D02*
X126664919Y-110560000D01*
%TD*%
%TA.AperFunction,Conductor*%
%TO.N,+5V*%
G36*
X130102242Y-76870065D02*
G01*
X130149025Y-76923468D01*
X130159509Y-76993686D01*
X130143816Y-77039429D01*
X130139074Y-77047640D01*
X130139073Y-77047643D01*
X130139073Y-77047644D01*
X130135471Y-77058731D01*
X130080057Y-77229272D01*
X130060096Y-77419200D01*
X130080057Y-77609127D01*
X130096564Y-77659928D01*
X130139073Y-77790756D01*
X130139076Y-77790761D01*
X130234557Y-77956140D01*
X130234558Y-77956142D01*
X130234560Y-77956144D01*
X130238430Y-77960442D01*
X130246937Y-77969890D01*
X130277654Y-78033898D01*
X130268889Y-78104352D01*
X130246937Y-78138510D01*
X130234557Y-78152259D01*
X130139076Y-78317638D01*
X130139073Y-78317645D01*
X130080057Y-78499272D01*
X130060096Y-78689200D01*
X130080057Y-78879127D01*
X130110126Y-78971670D01*
X130139073Y-79060756D01*
X130139076Y-79060761D01*
X130237861Y-79231863D01*
X130236385Y-79232714D01*
X130257397Y-79291615D01*
X130241312Y-79360766D01*
X130235598Y-79369655D01*
X130139076Y-79536838D01*
X130139073Y-79536845D01*
X130080057Y-79718472D01*
X130060096Y-79908400D01*
X130080057Y-80098327D01*
X130103851Y-80171554D01*
X130139073Y-80279956D01*
X130139076Y-80279961D01*
X130234558Y-80445341D01*
X130234565Y-80445351D01*
X130362344Y-80587264D01*
X130362347Y-80587266D01*
X130516848Y-80699518D01*
X130691312Y-80777194D01*
X130878113Y-80816900D01*
X131069087Y-80816900D01*
X131255888Y-80777194D01*
X131335807Y-80741611D01*
X131406173Y-80732178D01*
X131470470Y-80762284D01*
X131508284Y-80822373D01*
X131513041Y-80854866D01*
X131517599Y-81164799D01*
X131517600Y-81164800D01*
X131667055Y-81316705D01*
X131686355Y-81342069D01*
X131696560Y-81359744D01*
X131696562Y-81359747D01*
X131696565Y-81359751D01*
X131824344Y-81501664D01*
X131902470Y-81558426D01*
X131918226Y-81571994D01*
X131978305Y-81633058D01*
X132319722Y-81980072D01*
X132327267Y-81987740D01*
X132360784Y-82050327D01*
X132355144Y-82121099D01*
X132312137Y-82177587D01*
X132288700Y-82191214D01*
X132232851Y-82216080D01*
X132232848Y-82216082D01*
X132078344Y-82328335D01*
X131950565Y-82470248D01*
X131950558Y-82470258D01*
X131855076Y-82635638D01*
X131855073Y-82635645D01*
X131796057Y-82817272D01*
X131776096Y-83007200D01*
X131796057Y-83197127D01*
X131805011Y-83224683D01*
X131855073Y-83378756D01*
X131855076Y-83378761D01*
X131950558Y-83544141D01*
X131950565Y-83544151D01*
X132078344Y-83686064D01*
X132078347Y-83686066D01*
X132232848Y-83798318D01*
X132407312Y-83875994D01*
X132594113Y-83915700D01*
X132785087Y-83915700D01*
X132971888Y-83875994D01*
X133146352Y-83798318D01*
X133300853Y-83686066D01*
X133428640Y-83544144D01*
X133504833Y-83412173D01*
X133556214Y-83363182D01*
X133625928Y-83349746D01*
X133691839Y-83376132D01*
X133703768Y-83386807D01*
X134616399Y-84314400D01*
X134616400Y-84314400D01*
X138174189Y-84314400D01*
X138242310Y-84334402D01*
X138259330Y-84347519D01*
X138795156Y-84838693D01*
X138831856Y-84899468D01*
X138835798Y-84924175D01*
X138930238Y-86529650D01*
X138914270Y-86598828D01*
X138876100Y-86640698D01*
X138530852Y-86879342D01*
X138463442Y-86901622D01*
X138460716Y-86901684D01*
X138269115Y-86903979D01*
X138200760Y-86884794D01*
X138153628Y-86831699D01*
X138142683Y-86761551D01*
X138171400Y-86696622D01*
X138173971Y-86693677D01*
X138189031Y-86676951D01*
X138189032Y-86676949D01*
X138189037Y-86676944D01*
X138284524Y-86511556D01*
X138343539Y-86329928D01*
X138363501Y-86140000D01*
X138343539Y-85950072D01*
X138284524Y-85768444D01*
X138189037Y-85603056D01*
X138189035Y-85603054D01*
X138189031Y-85603048D01*
X138061252Y-85461135D01*
X137906749Y-85348882D01*
X137732285Y-85271206D01*
X137545484Y-85231500D01*
X137354510Y-85231500D01*
X137167708Y-85271206D01*
X136993244Y-85348882D01*
X136838741Y-85461135D01*
X136710962Y-85603048D01*
X136710955Y-85603058D01*
X136615473Y-85768438D01*
X136615470Y-85768445D01*
X136556454Y-85950072D01*
X136536493Y-86140000D01*
X136556454Y-86329927D01*
X136586523Y-86422470D01*
X136615470Y-86511556D01*
X136615473Y-86511561D01*
X136710955Y-86676941D01*
X136710962Y-86676951D01*
X136743468Y-86713052D01*
X136774186Y-86777059D01*
X136765421Y-86847513D01*
X136719958Y-86902044D01*
X136652231Y-86923339D01*
X136651341Y-86923353D01*
X130179327Y-87000863D01*
X130169713Y-87001068D01*
X130165107Y-87001210D01*
X130155707Y-87001586D01*
X130155692Y-87001588D01*
X130012226Y-87029454D01*
X130012225Y-87029454D01*
X129950883Y-87050784D01*
X129946526Y-87052068D01*
X129819638Y-87117716D01*
X129763172Y-87131798D01*
X129365266Y-87136321D01*
X128723599Y-87717999D01*
X128717984Y-93434793D01*
X128713550Y-97949826D01*
X128693482Y-98017925D01*
X128639781Y-98064365D01*
X128587551Y-98075700D01*
X127314365Y-98075700D01*
X127246244Y-98055698D01*
X127199751Y-98002042D01*
X127189647Y-97931768D01*
X127194532Y-97910763D01*
X127217407Y-97840364D01*
X127243542Y-97759928D01*
X127263504Y-97570000D01*
X127243542Y-97380072D01*
X127184527Y-97198444D01*
X127089040Y-97033056D01*
X127089038Y-97033054D01*
X127089034Y-97033048D01*
X126961255Y-96891135D01*
X126806752Y-96778882D01*
X126632288Y-96701206D01*
X126445487Y-96661500D01*
X126254513Y-96661500D01*
X126254511Y-96661500D01*
X126240912Y-96664390D01*
X126170121Y-96658985D01*
X126113491Y-96616166D01*
X126088999Y-96549527D01*
X126089511Y-96527044D01*
X126094125Y-96486100D01*
X126074887Y-96315354D01*
X126018136Y-96153170D01*
X126018134Y-96153167D01*
X126018134Y-96153166D01*
X125926720Y-96007682D01*
X125926719Y-96007680D01*
X125805219Y-95886180D01*
X125805217Y-95886179D01*
X125692688Y-95815472D01*
X125645650Y-95762294D01*
X125634516Y-95694677D01*
X125634916Y-95691128D01*
X125636925Y-95673300D01*
X125629170Y-95604477D01*
X125641419Y-95534550D01*
X125687341Y-95483686D01*
X125805219Y-95409619D01*
X125926719Y-95288119D01*
X126018136Y-95142630D01*
X126074887Y-94980446D01*
X126094125Y-94809700D01*
X126074887Y-94638954D01*
X126018136Y-94476770D01*
X126018134Y-94476767D01*
X126018134Y-94476766D01*
X125926720Y-94331282D01*
X125926719Y-94331280D01*
X125805219Y-94209780D01*
X125805217Y-94209779D01*
X125659733Y-94118365D01*
X125659730Y-94118364D01*
X125560172Y-94083527D01*
X125497546Y-94061613D01*
X125497544Y-94061612D01*
X125497546Y-94061612D01*
X125326800Y-94042375D01*
X125156055Y-94061612D01*
X124993871Y-94118363D01*
X124909282Y-94171514D01*
X124840960Y-94190819D01*
X124775210Y-94171513D01*
X124722933Y-94138665D01*
X124722930Y-94138664D01*
X124664913Y-94118363D01*
X124560746Y-94081913D01*
X124560744Y-94081912D01*
X124560746Y-94081912D01*
X124390000Y-94062675D01*
X124219255Y-94081912D01*
X124057069Y-94138664D01*
X124057066Y-94138665D01*
X123911582Y-94230079D01*
X123911580Y-94230080D01*
X123790080Y-94351580D01*
X123790079Y-94351582D01*
X123698665Y-94497066D01*
X123698664Y-94497069D01*
X123641912Y-94659255D01*
X123622675Y-94830000D01*
X123641912Y-95000744D01*
X123698664Y-95162930D01*
X123698665Y-95162933D01*
X123790079Y-95308417D01*
X123790080Y-95308419D01*
X123911580Y-95429919D01*
X123911582Y-95429920D01*
X124048239Y-95515788D01*
X124095277Y-95568966D01*
X124106411Y-95636578D01*
X124102275Y-95673296D01*
X124102275Y-95673299D01*
X124108042Y-95724488D01*
X124095792Y-95794420D01*
X124049872Y-95845280D01*
X123984779Y-95886181D01*
X123863280Y-96007680D01*
X123863279Y-96007682D01*
X123771865Y-96153166D01*
X123771864Y-96153169D01*
X123715112Y-96315355D01*
X123695875Y-96486100D01*
X123715112Y-96656844D01*
X123771864Y-96819030D01*
X123771865Y-96819033D01*
X123850519Y-96944210D01*
X123869825Y-97012531D01*
X123852952Y-97074245D01*
X123775474Y-97208441D01*
X123775473Y-97208445D01*
X123716457Y-97390072D01*
X123696496Y-97580000D01*
X123716457Y-97769927D01*
X123724973Y-97796135D01*
X123762219Y-97910764D01*
X123764247Y-97981731D01*
X123727585Y-98042529D01*
X123663873Y-98073854D01*
X123642386Y-98075700D01*
X119654692Y-98075700D01*
X119636485Y-98076220D01*
X119625378Y-98076537D01*
X119611014Y-98077358D01*
X119581795Y-98079867D01*
X119581791Y-98079868D01*
X119574225Y-98081857D01*
X119503257Y-98079826D01*
X119444653Y-98039750D01*
X119433080Y-98022996D01*
X119420982Y-98002042D01*
X119384040Y-97938056D01*
X119384036Y-97938051D01*
X119384034Y-97938048D01*
X119256255Y-97796135D01*
X119101752Y-97683882D01*
X118927288Y-97606206D01*
X118740487Y-97566500D01*
X118549513Y-97566500D01*
X118362711Y-97606206D01*
X118188247Y-97683882D01*
X118033744Y-97796135D01*
X117905965Y-97938048D01*
X117905958Y-97938058D01*
X117854475Y-98027228D01*
X117803092Y-98076220D01*
X117733378Y-98089655D01*
X117727427Y-98088944D01*
X117654513Y-98078461D01*
X117635308Y-98075700D01*
X117635307Y-98075700D01*
X113665662Y-98075700D01*
X113616028Y-98065512D01*
X113203278Y-97888619D01*
X113049559Y-97822739D01*
X112994825Y-97777520D01*
X112973228Y-97709888D01*
X112973219Y-97709490D01*
X112935137Y-95691127D01*
X112953851Y-95622642D01*
X112969507Y-95602240D01*
X113463595Y-95079089D01*
X113524907Y-95043301D01*
X113555605Y-95039607D01*
X113678535Y-95040013D01*
X113737923Y-95036764D01*
X113740049Y-95036523D01*
X113755053Y-95035729D01*
X114838070Y-95043071D01*
X114847415Y-95043789D01*
X114847434Y-95043542D01*
X114851926Y-95043877D01*
X114851933Y-95043878D01*
X115056489Y-95044551D01*
X121760000Y-95090000D01*
X122762800Y-94521200D01*
X122726490Y-88565200D01*
X123212996Y-88565200D01*
X123232957Y-88755127D01*
X123263026Y-88847670D01*
X123291973Y-88936756D01*
X123291976Y-88936761D01*
X123387458Y-89102141D01*
X123387465Y-89102151D01*
X123515244Y-89244064D01*
X123515247Y-89244066D01*
X123669748Y-89356318D01*
X123844212Y-89433994D01*
X124031013Y-89473700D01*
X124221987Y-89473700D01*
X124408788Y-89433994D01*
X124583252Y-89356318D01*
X124737753Y-89244066D01*
X124747297Y-89233466D01*
X124865534Y-89102151D01*
X124865535Y-89102149D01*
X124865540Y-89102144D01*
X124961027Y-88936756D01*
X125020042Y-88755128D01*
X125040004Y-88565200D01*
X125020042Y-88375272D01*
X124961027Y-88193644D01*
X124865540Y-88028256D01*
X124865538Y-88028254D01*
X124865534Y-88028248D01*
X124737755Y-87886335D01*
X124583252Y-87774082D01*
X124408788Y-87696406D01*
X124221987Y-87656700D01*
X124031013Y-87656700D01*
X123844211Y-87696406D01*
X123669747Y-87774082D01*
X123515244Y-87886335D01*
X123387465Y-88028248D01*
X123387458Y-88028258D01*
X123291976Y-88193638D01*
X123291973Y-88193645D01*
X123232957Y-88375272D01*
X123212996Y-88565200D01*
X122726490Y-88565200D01*
X122700945Y-84375019D01*
X122720532Y-84306779D01*
X122773903Y-84259960D01*
X122800742Y-84251006D01*
X122952288Y-84218794D01*
X123126752Y-84141118D01*
X123281253Y-84028866D01*
X123409040Y-83886944D01*
X123504527Y-83721556D01*
X123563542Y-83539928D01*
X123583504Y-83350000D01*
X123563542Y-83160072D01*
X123504527Y-82978444D01*
X123409040Y-82813056D01*
X123409038Y-82813054D01*
X123409034Y-82813048D01*
X123281255Y-82671135D01*
X123126752Y-82558882D01*
X122952288Y-82481206D01*
X122765487Y-82441500D01*
X122574513Y-82441500D01*
X122387711Y-82481206D01*
X122213247Y-82558882D01*
X122058744Y-82671135D01*
X121930965Y-82813048D01*
X121930958Y-82813058D01*
X121844402Y-82962978D01*
X121835473Y-82978444D01*
X121830725Y-82993056D01*
X121790643Y-83116413D01*
X121750568Y-83175018D01*
X121685171Y-83202654D01*
X121615215Y-83190547D01*
X121584417Y-83169193D01*
X121528383Y-83116413D01*
X121150000Y-82760000D01*
X121149999Y-82759999D01*
X110575378Y-82744557D01*
X110507287Y-82724455D01*
X110460872Y-82670732D01*
X110450871Y-82600443D01*
X110466442Y-82555559D01*
X110474527Y-82541556D01*
X110533542Y-82359928D01*
X110553504Y-82170000D01*
X110533542Y-81980072D01*
X110474527Y-81798444D01*
X110379040Y-81633056D01*
X110379038Y-81633054D01*
X110379034Y-81633048D01*
X110251255Y-81491135D01*
X110096752Y-81378882D01*
X109922288Y-81301206D01*
X109735487Y-81261500D01*
X109544513Y-81261500D01*
X109357711Y-81301206D01*
X109183247Y-81378882D01*
X109028744Y-81491135D01*
X108900965Y-81633048D01*
X108900958Y-81633058D01*
X108805476Y-81798438D01*
X108805473Y-81798445D01*
X108746457Y-81980072D01*
X108726496Y-82170000D01*
X108746457Y-82359927D01*
X108776526Y-82452470D01*
X108805473Y-82541556D01*
X108811554Y-82552089D01*
X108811978Y-82552823D01*
X108828715Y-82621819D01*
X108805494Y-82688911D01*
X108749686Y-82732797D01*
X108702675Y-82741822D01*
X108587117Y-82741654D01*
X108536051Y-82730761D01*
X108521887Y-82724455D01*
X108402288Y-82671206D01*
X108215487Y-82631500D01*
X108024513Y-82631500D01*
X107837709Y-82671206D01*
X107707002Y-82729400D01*
X107655570Y-82740293D01*
X106583003Y-82738726D01*
X106531939Y-82727833D01*
X106382290Y-82661206D01*
X106195487Y-82621500D01*
X106004513Y-82621500D01*
X105817709Y-82661206D01*
X105671219Y-82726427D01*
X105619787Y-82737320D01*
X104606520Y-82735840D01*
X104555456Y-82724947D01*
X104412290Y-82661206D01*
X104225487Y-82621500D01*
X104034513Y-82621500D01*
X103847709Y-82661206D01*
X103707659Y-82723560D01*
X103656227Y-82734453D01*
X102509825Y-82732779D01*
X102441734Y-82712677D01*
X102423699Y-82698576D01*
X102394589Y-82671206D01*
X102212065Y-82499592D01*
X102176139Y-82438358D01*
X102178543Y-82368859D01*
X102180524Y-82362759D01*
X102180527Y-82362756D01*
X102239542Y-82181128D01*
X102259504Y-81991200D01*
X102239542Y-81801272D01*
X102180527Y-81619644D01*
X102085040Y-81454256D01*
X102085038Y-81454254D01*
X102085034Y-81454248D01*
X101957255Y-81312335D01*
X101802752Y-81200082D01*
X101628284Y-81122404D01*
X101622209Y-81120430D01*
X101563606Y-81080352D01*
X101535973Y-81014954D01*
X101548085Y-80944998D01*
X101596094Y-80892695D01*
X101622226Y-80880763D01*
X101628279Y-80878795D01*
X101628288Y-80878794D01*
X101802752Y-80801118D01*
X101957253Y-80688866D01*
X102045266Y-80591118D01*
X102085034Y-80546951D01*
X102085035Y-80546949D01*
X102085040Y-80546944D01*
X102180527Y-80381556D01*
X102239542Y-80199928D01*
X102259504Y-80010000D01*
X102239542Y-79820072D01*
X102180527Y-79638444D01*
X102085040Y-79473056D01*
X102085038Y-79473054D01*
X102085034Y-79473048D01*
X101957255Y-79331135D01*
X101802752Y-79218882D01*
X101628285Y-79141204D01*
X101594688Y-79134063D01*
X101532215Y-79100334D01*
X101497895Y-79038184D01*
X101494887Y-79010819D01*
X101494918Y-78028561D01*
X101514922Y-77960442D01*
X101535964Y-77935514D01*
X102525804Y-77031878D01*
X102589596Y-77000724D01*
X102610063Y-76998937D01*
X108296957Y-76968142D01*
X108365182Y-76987774D01*
X108411965Y-77041177D01*
X108422449Y-77111395D01*
X108417469Y-77133075D01*
X108366457Y-77290071D01*
X108346496Y-77480000D01*
X108366457Y-77669927D01*
X108367957Y-77674542D01*
X108425473Y-77851556D01*
X108425476Y-77851561D01*
X108515218Y-78007000D01*
X108531956Y-78075996D01*
X108515218Y-78133000D01*
X108425476Y-78288438D01*
X108425473Y-78288445D01*
X108366457Y-78470072D01*
X108346496Y-78660000D01*
X108366457Y-78849927D01*
X108396526Y-78942470D01*
X108425473Y-79031556D01*
X108438999Y-79054984D01*
X108497898Y-79157000D01*
X108514636Y-79225995D01*
X108497898Y-79283000D01*
X108425476Y-79408438D01*
X108425473Y-79408445D01*
X108366457Y-79590072D01*
X108346496Y-79780000D01*
X108366457Y-79969927D01*
X108372956Y-79989927D01*
X108425473Y-80151556D01*
X108425476Y-80151561D01*
X108520958Y-80316941D01*
X108520965Y-80316951D01*
X108648744Y-80458864D01*
X108709999Y-80503368D01*
X108803248Y-80571118D01*
X108977712Y-80648794D01*
X109164513Y-80688500D01*
X109355487Y-80688500D01*
X109542288Y-80648794D01*
X109716752Y-80571118D01*
X109871253Y-80458866D01*
X109878116Y-80451244D01*
X109999034Y-80316951D01*
X109999035Y-80316949D01*
X109999040Y-80316944D01*
X110094527Y-80151556D01*
X110153542Y-79969928D01*
X110173504Y-79780000D01*
X110153542Y-79590072D01*
X110094527Y-79408444D01*
X110022100Y-79282997D01*
X110005363Y-79214005D01*
X110022099Y-79157003D01*
X110094527Y-79031556D01*
X110153542Y-78849928D01*
X110173504Y-78660000D01*
X110153542Y-78470072D01*
X110094527Y-78288444D01*
X110004780Y-78132999D01*
X109988043Y-78064005D01*
X110004781Y-78007000D01*
X110004812Y-78006946D01*
X110094527Y-77851556D01*
X110153542Y-77669928D01*
X110173504Y-77480000D01*
X110153542Y-77290072D01*
X110099148Y-77122668D01*
X110097121Y-77051705D01*
X110133783Y-76990906D01*
X110197495Y-76959581D01*
X110218291Y-76957737D01*
X118022234Y-76915478D01*
X118090458Y-76935110D01*
X118137241Y-76988513D01*
X118147725Y-77058731D01*
X118138024Y-77092713D01*
X118135474Y-77098440D01*
X118076457Y-77280072D01*
X118056496Y-77470000D01*
X118076457Y-77659927D01*
X118079707Y-77669928D01*
X118135473Y-77841556D01*
X118175668Y-77911175D01*
X118223105Y-77993339D01*
X118239843Y-78062334D01*
X118223105Y-78119339D01*
X118125476Y-78288438D01*
X118125473Y-78288445D01*
X118066457Y-78470072D01*
X118046496Y-78660000D01*
X118066457Y-78849927D01*
X118096526Y-78942470D01*
X118125473Y-79031556D01*
X118125476Y-79031561D01*
X118138999Y-79054984D01*
X118155737Y-79123979D01*
X118132517Y-79191071D01*
X118076709Y-79234958D01*
X118006034Y-79241707D01*
X117955819Y-79219920D01*
X117816752Y-79118882D01*
X117642288Y-79041206D01*
X117455487Y-79001500D01*
X117264513Y-79001500D01*
X117077711Y-79041206D01*
X116903247Y-79118882D01*
X116748744Y-79231135D01*
X116620965Y-79373048D01*
X116620958Y-79373058D01*
X116525476Y-79538438D01*
X116525473Y-79538445D01*
X116466457Y-79720072D01*
X116446496Y-79910000D01*
X116466457Y-80099927D01*
X116489733Y-80171561D01*
X116525473Y-80281556D01*
X116545903Y-80316941D01*
X116620958Y-80446941D01*
X116620965Y-80446951D01*
X116748744Y-80588864D01*
X116783166Y-80613873D01*
X116903248Y-80701118D01*
X117077712Y-80778794D01*
X117264513Y-80818500D01*
X117455487Y-80818500D01*
X117642288Y-80778794D01*
X117816752Y-80701118D01*
X117971253Y-80588866D01*
X117972696Y-80587264D01*
X118070298Y-80478865D01*
X118099040Y-80446944D01*
X118099043Y-80446937D01*
X118102925Y-80441598D01*
X118104083Y-80442439D01*
X118150021Y-80398623D01*
X118219733Y-80385176D01*
X118285648Y-80411552D01*
X118301412Y-80426296D01*
X118323876Y-80451244D01*
X118348747Y-80478866D01*
X118503248Y-80591118D01*
X118677712Y-80668794D01*
X118864513Y-80708500D01*
X119055487Y-80708500D01*
X119242288Y-80668794D01*
X119416752Y-80591118D01*
X119571253Y-80478866D01*
X119596124Y-80451244D01*
X119699034Y-80336951D01*
X119699035Y-80336949D01*
X119699040Y-80336944D01*
X119794527Y-80171556D01*
X119853542Y-79989928D01*
X119873504Y-79800000D01*
X119853542Y-79610072D01*
X119794527Y-79428444D01*
X119716327Y-79292999D01*
X119699590Y-79224005D01*
X119716328Y-79167000D01*
X119794527Y-79031556D01*
X119853542Y-78849928D01*
X119873504Y-78660000D01*
X119853542Y-78470072D01*
X119794527Y-78288444D01*
X119706893Y-78136659D01*
X119690156Y-78067665D01*
X119706894Y-78010660D01*
X119709038Y-78006945D01*
X119709040Y-78006944D01*
X119804527Y-77841556D01*
X119863542Y-77659928D01*
X119883504Y-77470000D01*
X119863542Y-77280072D01*
X119804527Y-77098444D01*
X119802107Y-77094252D01*
X119785366Y-77025262D01*
X119808583Y-76958168D01*
X119864388Y-76914278D01*
X119910538Y-76905252D01*
X120330208Y-76902980D01*
X120398433Y-76922612D01*
X120445215Y-76976015D01*
X120455700Y-77046233D01*
X120440008Y-77091973D01*
X120436278Y-77098433D01*
X120436273Y-77098445D01*
X120377257Y-77280072D01*
X120357296Y-77470000D01*
X120377257Y-77659927D01*
X120380507Y-77669928D01*
X120436273Y-77841556D01*
X120436276Y-77841561D01*
X120517258Y-77981827D01*
X120533996Y-78050823D01*
X120510775Y-78117914D01*
X120501776Y-78129136D01*
X120480960Y-78152255D01*
X120480958Y-78152257D01*
X120385476Y-78317638D01*
X120385473Y-78317645D01*
X120326457Y-78499272D01*
X120306496Y-78689200D01*
X120326457Y-78879127D01*
X120356526Y-78971670D01*
X120385473Y-79060756D01*
X120385476Y-79060761D01*
X120484261Y-79231863D01*
X120482785Y-79232714D01*
X120503797Y-79291615D01*
X120487712Y-79360766D01*
X120481998Y-79369655D01*
X120385476Y-79536838D01*
X120385473Y-79536845D01*
X120326457Y-79718472D01*
X120306496Y-79908400D01*
X120326457Y-80098327D01*
X120350251Y-80171554D01*
X120385473Y-80279956D01*
X120385476Y-80279961D01*
X120480958Y-80445341D01*
X120480965Y-80445351D01*
X120608744Y-80587264D01*
X120608747Y-80587266D01*
X120763248Y-80699518D01*
X120937712Y-80777194D01*
X121124513Y-80816900D01*
X121315487Y-80816900D01*
X121502288Y-80777194D01*
X121676752Y-80699518D01*
X121831253Y-80587266D01*
X121928858Y-80478865D01*
X121959034Y-80445351D01*
X121959035Y-80445349D01*
X121959040Y-80445344D01*
X122054527Y-80279956D01*
X122113542Y-80098328D01*
X122133504Y-79908400D01*
X122113542Y-79718472D01*
X122054527Y-79536844D01*
X121959040Y-79371456D01*
X121959039Y-79371455D01*
X121955738Y-79365737D01*
X121957216Y-79364883D01*
X121936202Y-79306006D01*
X121952276Y-79236853D01*
X121957997Y-79227949D01*
X121959037Y-79226146D01*
X121959040Y-79226144D01*
X122054527Y-79060756D01*
X122113542Y-78879128D01*
X122133504Y-78689200D01*
X122113542Y-78499272D01*
X122054527Y-78317644D01*
X121973541Y-78177372D01*
X121956803Y-78108377D01*
X121980023Y-78041285D01*
X121989019Y-78030067D01*
X122009840Y-78006944D01*
X122105327Y-77841556D01*
X122164342Y-77659928D01*
X122184304Y-77470000D01*
X122164342Y-77280072D01*
X122105327Y-77098444D01*
X122095734Y-77081829D01*
X122078996Y-77012836D01*
X122102215Y-76945743D01*
X122158022Y-76901855D01*
X122204164Y-76892832D01*
X130034015Y-76850432D01*
X130102242Y-76870065D01*
G37*
%TD.AperFunction*%
%TD*%
%TA.AperFunction,Conductor*%
%TO.N,+3.3V*%
G36*
X138118319Y-89552289D02*
G01*
X138120106Y-89552300D01*
X138121069Y-89552304D01*
X138123204Y-89552308D01*
X138125672Y-89552307D01*
X138193797Y-89572283D01*
X138214812Y-89589212D01*
X138796422Y-90170822D01*
X138830448Y-90233134D01*
X138833321Y-90258639D01*
X138979268Y-104648980D01*
X138959957Y-104717300D01*
X138906776Y-104764335D01*
X138836608Y-104775151D01*
X138771732Y-104746314D01*
X138755875Y-104730192D01*
X138631436Y-104578564D01*
X138472543Y-104448163D01*
X138291262Y-104351267D01*
X138094555Y-104291597D01*
X137890003Y-104271451D01*
X137889997Y-104271451D01*
X137685444Y-104291597D01*
X137488737Y-104351267D01*
X137307456Y-104448163D01*
X137148564Y-104578564D01*
X137018163Y-104737456D01*
X136921267Y-104918737D01*
X136861597Y-105115444D01*
X136841451Y-105319997D01*
X136841451Y-105320004D01*
X136850595Y-105412853D01*
X136837366Y-105482606D01*
X136788525Y-105534134D01*
X136719580Y-105551077D01*
X136712853Y-105550595D01*
X136620004Y-105541451D01*
X136619997Y-105541451D01*
X136415444Y-105561597D01*
X136218737Y-105621267D01*
X136037456Y-105718163D01*
X135878564Y-105848564D01*
X135748163Y-106007456D01*
X135651267Y-106188737D01*
X135591597Y-106385444D01*
X135571451Y-106589997D01*
X135571451Y-106590002D01*
X135591597Y-106794555D01*
X135591598Y-106794561D01*
X135591599Y-106794562D01*
X135598022Y-106815735D01*
X135651267Y-106991262D01*
X135744454Y-107165604D01*
X135758926Y-107235110D01*
X135744454Y-107284396D01*
X135651267Y-107458737D01*
X135591597Y-107655444D01*
X135571451Y-107859997D01*
X135571451Y-107860002D01*
X135591597Y-108064555D01*
X135591598Y-108064561D01*
X135591599Y-108064562D01*
X135636935Y-108214017D01*
X135651267Y-108261262D01*
X135744454Y-108435604D01*
X135758926Y-108505110D01*
X135744454Y-108554396D01*
X135651267Y-108728737D01*
X135591597Y-108925444D01*
X135571451Y-109129997D01*
X135571451Y-109130002D01*
X135591597Y-109334555D01*
X135591598Y-109334561D01*
X135591599Y-109334562D01*
X135608083Y-109388903D01*
X135651267Y-109531262D01*
X135744454Y-109705604D01*
X135758926Y-109775110D01*
X135744454Y-109824396D01*
X135651267Y-109998737D01*
X135591597Y-110195444D01*
X135571451Y-110399997D01*
X135571451Y-110400002D01*
X135591597Y-110604555D01*
X135591598Y-110604561D01*
X135591599Y-110604562D01*
X135651267Y-110801262D01*
X135748163Y-110982543D01*
X135878564Y-111141436D01*
X136037457Y-111271837D01*
X136218738Y-111368733D01*
X136415438Y-111428401D01*
X136415442Y-111428401D01*
X136415444Y-111428402D01*
X136619997Y-111448549D01*
X136620000Y-111448549D01*
X136620003Y-111448549D01*
X136824555Y-111428402D01*
X136824556Y-111428401D01*
X136824562Y-111428401D01*
X137021262Y-111368733D01*
X137195606Y-111275544D01*
X137265110Y-111261073D01*
X137314392Y-111275543D01*
X137488738Y-111368733D01*
X137685438Y-111428401D01*
X137685442Y-111428401D01*
X137685444Y-111428402D01*
X137889997Y-111448549D01*
X137890000Y-111448549D01*
X137890003Y-111448549D01*
X138094555Y-111428402D01*
X138094556Y-111428401D01*
X138094562Y-111428401D01*
X138291262Y-111368733D01*
X138472543Y-111271837D01*
X138631436Y-111141436D01*
X138761837Y-110982543D01*
X138806136Y-110899662D01*
X138855886Y-110849017D01*
X138925122Y-110833307D01*
X138991862Y-110857522D01*
X139034915Y-110913975D01*
X139043251Y-110957783D01*
X139086263Y-115198662D01*
X139066952Y-115266982D01*
X139049364Y-115289035D01*
X138108510Y-116229889D01*
X138046198Y-116263915D01*
X138017477Y-116266779D01*
X135887449Y-116234009D01*
X135819644Y-116212962D01*
X135773982Y-116158597D01*
X135764077Y-116121194D01*
X135752651Y-116012478D01*
X135751338Y-116008438D01*
X135693636Y-115830850D01*
X135598149Y-115665462D01*
X135598147Y-115665460D01*
X135598143Y-115665454D01*
X135470364Y-115523541D01*
X135315861Y-115411288D01*
X135141397Y-115333612D01*
X134954596Y-115293906D01*
X134763622Y-115293906D01*
X134576820Y-115333612D01*
X134402356Y-115411288D01*
X134247853Y-115523541D01*
X134120074Y-115665454D01*
X134120067Y-115665464D01*
X134024585Y-115830844D01*
X134024582Y-115830850D01*
X134017367Y-115853056D01*
X133965566Y-116012478D01*
X133945605Y-116202406D01*
X133965566Y-116392333D01*
X133981418Y-116441118D01*
X134024582Y-116573962D01*
X134029522Y-116582519D01*
X134106716Y-116716223D01*
X134123454Y-116785219D01*
X134100233Y-116852310D01*
X134084629Y-116870335D01*
X131365200Y-119467999D01*
X131365199Y-119468000D01*
X131514663Y-122407442D01*
X131498146Y-122476491D01*
X131475723Y-122505082D01*
X130487231Y-123446503D01*
X130424107Y-123478999D01*
X130400490Y-123481262D01*
X124240786Y-123488899D01*
X124172641Y-123468981D01*
X124131511Y-123425899D01*
X124049041Y-123283058D01*
X124049034Y-123283048D01*
X123921255Y-123141135D01*
X123766752Y-123028882D01*
X123592288Y-122951206D01*
X123405487Y-122911500D01*
X123214513Y-122911500D01*
X123027711Y-122951206D01*
X122853247Y-123028882D01*
X122698744Y-123141135D01*
X122570965Y-123283048D01*
X122570961Y-123283054D01*
X122570960Y-123283056D01*
X122516706Y-123377027D01*
X122487155Y-123428210D01*
X122435772Y-123477203D01*
X122378192Y-123491209D01*
X119478046Y-123494806D01*
X119409901Y-123474888D01*
X119363341Y-123421290D01*
X119353150Y-123351029D01*
X119368768Y-123305811D01*
X119414527Y-123226556D01*
X119473542Y-123044928D01*
X119493504Y-122855000D01*
X119473542Y-122665072D01*
X119414527Y-122483444D01*
X119319040Y-122318056D01*
X119319038Y-122318054D01*
X119319034Y-122318048D01*
X119191255Y-122176135D01*
X119036752Y-122063882D01*
X118862288Y-121986206D01*
X118675487Y-121946500D01*
X118484513Y-121946500D01*
X118297711Y-121986206D01*
X118123247Y-122063882D01*
X117968744Y-122176135D01*
X117840965Y-122318048D01*
X117840958Y-122318058D01*
X117745476Y-122483438D01*
X117745473Y-122483445D01*
X117686457Y-122665072D01*
X117666496Y-122855000D01*
X117686457Y-123044927D01*
X117716526Y-123137470D01*
X117745473Y-123226556D01*
X117745476Y-123226561D01*
X117792512Y-123308031D01*
X117809250Y-123377027D01*
X117786029Y-123444119D01*
X117730222Y-123488006D01*
X117683549Y-123497031D01*
X115334193Y-123499945D01*
X115266048Y-123480027D01*
X115255453Y-123472436D01*
X115049400Y-123308031D01*
X114659651Y-122997058D01*
X114618878Y-122938938D01*
X114612254Y-122896425D01*
X114619281Y-122483438D01*
X114658825Y-120159044D01*
X114679983Y-120091275D01*
X114718833Y-120053842D01*
X115589328Y-119518850D01*
X115656000Y-119500200D01*
X119210000Y-119520000D01*
X120340000Y-118740000D01*
X120335789Y-116974798D01*
X120355629Y-116906632D01*
X120409173Y-116860012D01*
X120461789Y-116848500D01*
X121072312Y-116848500D01*
X121072313Y-116848500D01*
X121194704Y-116824155D01*
X121309994Y-116776400D01*
X121413752Y-116707071D01*
X121450108Y-116670714D01*
X121512416Y-116636691D01*
X121583232Y-116641755D01*
X121640068Y-116684301D01*
X121664880Y-116750821D01*
X121655963Y-116801660D01*
X121657514Y-116802164D01*
X121655474Y-116808442D01*
X121655473Y-116808444D01*
X121642458Y-116848499D01*
X121596457Y-116990072D01*
X121576496Y-117180000D01*
X121596457Y-117369927D01*
X121626526Y-117462470D01*
X121655473Y-117551556D01*
X121655476Y-117551561D01*
X121750958Y-117716941D01*
X121750965Y-117716951D01*
X121878744Y-117858864D01*
X121878747Y-117858866D01*
X122033248Y-117971118D01*
X122207712Y-118048794D01*
X122394513Y-118088500D01*
X122585488Y-118088500D01*
X122592051Y-118087810D01*
X122592209Y-118089318D01*
X122655217Y-118094123D01*
X122711852Y-118136936D01*
X122730463Y-118173033D01*
X122775472Y-118311554D01*
X122775476Y-118311561D01*
X122870958Y-118476941D01*
X122870965Y-118476951D01*
X122998744Y-118618864D01*
X123039117Y-118648197D01*
X123153248Y-118731118D01*
X123327712Y-118808794D01*
X123514513Y-118848500D01*
X123705487Y-118848500D01*
X123892288Y-118808794D01*
X124066752Y-118731118D01*
X124221253Y-118618866D01*
X124305334Y-118525485D01*
X124349034Y-118476951D01*
X124349035Y-118476949D01*
X124349040Y-118476944D01*
X124444527Y-118311556D01*
X124503542Y-118129928D01*
X124523504Y-117940000D01*
X124503542Y-117750072D01*
X124444527Y-117568444D01*
X124392019Y-117477498D01*
X124375282Y-117408505D01*
X124398502Y-117341413D01*
X124454309Y-117297526D01*
X124501139Y-117288500D01*
X124525487Y-117288500D01*
X124712288Y-117248794D01*
X124886752Y-117171118D01*
X125041253Y-117058866D01*
X125041255Y-117058864D01*
X125169034Y-116916951D01*
X125169035Y-116916949D01*
X125169040Y-116916944D01*
X125264527Y-116751556D01*
X125323542Y-116569928D01*
X125342453Y-116390000D01*
X127366496Y-116390000D01*
X127386457Y-116579927D01*
X127406970Y-116643058D01*
X127445473Y-116761556D01*
X127445476Y-116761561D01*
X127540958Y-116926941D01*
X127540965Y-116926951D01*
X127668744Y-117068864D01*
X127729999Y-117113368D01*
X127823248Y-117181118D01*
X127997712Y-117258794D01*
X128184513Y-117298500D01*
X128375487Y-117298500D01*
X128562288Y-117258794D01*
X128736752Y-117181118D01*
X128891253Y-117068866D01*
X128895668Y-117063963D01*
X129019034Y-116926951D01*
X129019035Y-116926949D01*
X129019040Y-116926944D01*
X129114527Y-116761556D01*
X129173542Y-116579928D01*
X129193504Y-116390000D01*
X129193504Y-116389998D01*
X129193504Y-116384737D01*
X129213506Y-116316616D01*
X129267162Y-116270123D01*
X129337436Y-116260019D01*
X129402016Y-116289513D01*
X129413141Y-116300428D01*
X129438744Y-116328864D01*
X129438747Y-116328866D01*
X129593248Y-116441118D01*
X129767712Y-116518794D01*
X129954513Y-116558500D01*
X130145487Y-116558500D01*
X130332288Y-116518794D01*
X130506752Y-116441118D01*
X130661253Y-116328866D01*
X130712906Y-116271500D01*
X130789034Y-116186951D01*
X130789035Y-116186949D01*
X130789040Y-116186944D01*
X130884527Y-116021556D01*
X130943542Y-115839928D01*
X130963504Y-115650000D01*
X130943542Y-115460072D01*
X130884527Y-115278444D01*
X130789040Y-115113056D01*
X130789038Y-115113054D01*
X130789034Y-115113048D01*
X130661255Y-114971135D01*
X130506752Y-114858882D01*
X130332288Y-114781206D01*
X130145487Y-114741500D01*
X130093819Y-114741500D01*
X130025698Y-114721498D01*
X129979205Y-114667842D01*
X129969101Y-114597568D01*
X129984700Y-114552500D01*
X130019825Y-114491661D01*
X130054527Y-114431556D01*
X130113542Y-114249928D01*
X130133504Y-114060000D01*
X130113542Y-113870072D01*
X130054527Y-113688444D01*
X129959040Y-113523056D01*
X129959038Y-113523054D01*
X129959034Y-113523048D01*
X129831255Y-113381135D01*
X129676752Y-113268882D01*
X129612043Y-113240072D01*
X129502288Y-113191206D01*
X129502287Y-113191205D01*
X129502283Y-113191204D01*
X129321413Y-113152758D01*
X129258939Y-113119030D01*
X129227777Y-113068449D01*
X129224527Y-113058444D01*
X129129040Y-112893056D01*
X129129038Y-112893054D01*
X129129034Y-112893048D01*
X129001255Y-112751135D01*
X128846752Y-112638882D01*
X128672288Y-112561206D01*
X128485487Y-112521500D01*
X128294513Y-112521500D01*
X128107711Y-112561206D01*
X127933247Y-112638882D01*
X127778744Y-112751135D01*
X127650965Y-112893048D01*
X127650958Y-112893058D01*
X127555476Y-113058438D01*
X127555473Y-113058445D01*
X127496457Y-113240072D01*
X127476496Y-113430000D01*
X127496457Y-113619927D01*
X127518718Y-113688438D01*
X127555473Y-113801556D01*
X127555476Y-113801561D01*
X127650958Y-113966941D01*
X127650965Y-113966951D01*
X127778744Y-114108864D01*
X127778747Y-114108866D01*
X127933248Y-114221118D01*
X128107712Y-114298794D01*
X128288586Y-114337240D01*
X128351059Y-114370969D01*
X128382221Y-114421548D01*
X128385473Y-114431556D01*
X128385476Y-114431561D01*
X128480958Y-114596941D01*
X128480965Y-114596951D01*
X128608744Y-114738864D01*
X128608747Y-114738866D01*
X128763248Y-114851118D01*
X128937712Y-114928794D01*
X129124513Y-114968500D01*
X129176181Y-114968500D01*
X129244302Y-114988502D01*
X129290795Y-115042158D01*
X129300899Y-115112432D01*
X129285300Y-115157500D01*
X129215476Y-115278438D01*
X129215473Y-115278445D01*
X129156457Y-115460072D01*
X129136496Y-115650001D01*
X129136496Y-115655262D01*
X129116494Y-115723383D01*
X129062838Y-115769876D01*
X128992564Y-115779980D01*
X128927984Y-115750486D01*
X128916860Y-115739573D01*
X128891253Y-115711134D01*
X128736752Y-115598882D01*
X128562288Y-115521206D01*
X128375487Y-115481500D01*
X128184513Y-115481500D01*
X127997711Y-115521206D01*
X127823247Y-115598882D01*
X127668744Y-115711135D01*
X127540965Y-115853048D01*
X127540958Y-115853058D01*
X127448917Y-116012478D01*
X127445473Y-116018444D01*
X127430999Y-116062986D01*
X127386457Y-116200072D01*
X127366496Y-116390000D01*
X125342453Y-116390000D01*
X125343504Y-116380000D01*
X125323542Y-116190072D01*
X125264527Y-116008444D01*
X125169040Y-115843056D01*
X125169038Y-115843054D01*
X125169034Y-115843048D01*
X125041255Y-115701135D01*
X124886752Y-115588882D01*
X124712288Y-115511206D01*
X124525487Y-115471500D01*
X124334513Y-115471500D01*
X124147711Y-115511206D01*
X123973247Y-115588882D01*
X123818744Y-115701135D01*
X123690965Y-115843048D01*
X123690958Y-115843058D01*
X123685186Y-115853056D01*
X123595473Y-116008444D01*
X123591213Y-116021554D01*
X123536457Y-116190072D01*
X123516496Y-116380000D01*
X123536457Y-116569927D01*
X123561408Y-116646716D01*
X123595473Y-116751556D01*
X123595476Y-116751561D01*
X123647979Y-116842500D01*
X123664717Y-116911496D01*
X123641496Y-116978587D01*
X123585689Y-117022475D01*
X123538860Y-117031500D01*
X123514508Y-117031500D01*
X123507940Y-117032190D01*
X123507781Y-117030683D01*
X123444768Y-117025871D01*
X123388138Y-116983052D01*
X123369536Y-116946967D01*
X123324527Y-116808444D01*
X123229040Y-116643056D01*
X123229038Y-116643054D01*
X123229034Y-116643048D01*
X123101255Y-116501135D01*
X122946752Y-116388882D01*
X122772288Y-116311206D01*
X122585487Y-116271500D01*
X122394513Y-116271500D01*
X122207709Y-116311206D01*
X122111186Y-116354181D01*
X122040819Y-116363615D01*
X121976522Y-116333508D01*
X121938709Y-116273419D01*
X121939386Y-116202426D01*
X121970841Y-116149981D01*
X124701109Y-113419713D01*
X124763419Y-113385689D01*
X124834234Y-113390754D01*
X124891070Y-113433301D01*
X124915881Y-113499821D01*
X124910035Y-113547746D01*
X124885626Y-113622867D01*
X124865665Y-113812797D01*
X124885626Y-114002724D01*
X124904237Y-114060000D01*
X124944642Y-114184353D01*
X124944645Y-114184358D01*
X125040127Y-114349738D01*
X125040134Y-114349748D01*
X125167913Y-114491661D01*
X125167916Y-114491663D01*
X125322417Y-114603915D01*
X125496881Y-114681591D01*
X125683682Y-114721297D01*
X125874656Y-114721297D01*
X126061457Y-114681591D01*
X126235921Y-114603915D01*
X126390422Y-114491663D01*
X126444543Y-114431556D01*
X126518203Y-114349748D01*
X126518204Y-114349746D01*
X126518209Y-114349741D01*
X126613696Y-114184353D01*
X126672711Y-114002725D01*
X126692673Y-113812797D01*
X126672711Y-113622869D01*
X126613696Y-113441241D01*
X126518209Y-113275853D01*
X126518207Y-113275851D01*
X126518203Y-113275845D01*
X126390424Y-113133932D01*
X126235921Y-113021679D01*
X126061457Y-112944003D01*
X125874656Y-112904297D01*
X125683682Y-112904297D01*
X125683681Y-112904297D01*
X125506498Y-112941958D01*
X125435707Y-112936556D01*
X125379074Y-112893739D01*
X125354581Y-112827101D01*
X125370002Y-112757800D01*
X125391202Y-112729620D01*
X126599099Y-111521724D01*
X126661411Y-111487698D01*
X126688194Y-111484819D01*
X126744087Y-111484819D01*
X126930888Y-111445113D01*
X127105352Y-111367437D01*
X127259853Y-111255185D01*
X127277857Y-111235188D01*
X127338303Y-111197950D01*
X127371493Y-111193500D01*
X132252393Y-111193500D01*
X132252394Y-111193500D01*
X132374785Y-111169155D01*
X132490075Y-111121400D01*
X132593833Y-111052071D01*
X133683153Y-109962752D01*
X133745465Y-109928726D01*
X133772248Y-109925847D01*
X133828140Y-109925847D01*
X134014941Y-109886141D01*
X134189405Y-109808465D01*
X134343906Y-109696213D01*
X134388268Y-109646944D01*
X134471687Y-109554298D01*
X134471688Y-109554296D01*
X134471693Y-109554291D01*
X134567180Y-109388903D01*
X134626195Y-109207275D01*
X134646157Y-109017347D01*
X134626195Y-108827419D01*
X134567180Y-108645791D01*
X134471693Y-108480403D01*
X134471691Y-108480401D01*
X134471687Y-108480395D01*
X134343908Y-108338482D01*
X134189405Y-108226229D01*
X134014941Y-108148553D01*
X133828140Y-108108847D01*
X133637166Y-108108847D01*
X133450364Y-108148553D01*
X133275900Y-108226229D01*
X133170530Y-108302785D01*
X133103662Y-108326644D01*
X133034510Y-108310563D01*
X132985030Y-108259649D01*
X132971159Y-108214017D01*
X132969843Y-108201500D01*
X132967066Y-108175072D01*
X132913395Y-108009893D01*
X132911368Y-107938928D01*
X132948030Y-107878130D01*
X133011742Y-107846805D01*
X133033229Y-107844959D01*
X133121826Y-107844959D01*
X133308627Y-107805253D01*
X133483091Y-107727577D01*
X133637592Y-107615325D01*
X133654535Y-107596508D01*
X133765373Y-107473410D01*
X133765374Y-107473408D01*
X133765379Y-107473403D01*
X133860866Y-107308015D01*
X133919881Y-107126387D01*
X133939843Y-106936459D01*
X133919881Y-106746531D01*
X133860866Y-106564903D01*
X133765379Y-106399515D01*
X133765377Y-106399513D01*
X133765373Y-106399507D01*
X133637594Y-106257594D01*
X133483091Y-106145341D01*
X133308627Y-106067665D01*
X133121826Y-106027959D01*
X133048295Y-106027959D01*
X132980174Y-106007957D01*
X132933681Y-105954301D01*
X132923577Y-105884027D01*
X132928462Y-105863022D01*
X132943720Y-105816063D01*
X132949024Y-105765600D01*
X132963682Y-105626136D01*
X132943720Y-105436208D01*
X132884705Y-105254580D01*
X132789218Y-105089192D01*
X132789216Y-105089190D01*
X132789212Y-105089184D01*
X132661433Y-104947271D01*
X132506930Y-104835018D01*
X132332466Y-104757342D01*
X132145665Y-104717636D01*
X131954691Y-104717636D01*
X131767889Y-104757342D01*
X131593425Y-104835018D01*
X131438922Y-104947271D01*
X131311143Y-105089184D01*
X131311136Y-105089194D01*
X131215654Y-105254574D01*
X131215651Y-105254581D01*
X131156635Y-105436208D01*
X131136674Y-105626136D01*
X131156635Y-105816063D01*
X131178719Y-105884027D01*
X131215651Y-105997692D01*
X131215651Y-105997693D01*
X131215652Y-105997694D01*
X131266157Y-106085172D01*
X131282894Y-106154167D01*
X131266157Y-106211169D01*
X131241286Y-106254246D01*
X131241282Y-106254256D01*
X131182269Y-106435878D01*
X131162308Y-106625807D01*
X131182269Y-106815734D01*
X131182330Y-106815921D01*
X131241285Y-106997363D01*
X131241288Y-106997368D01*
X131336770Y-107162748D01*
X131336777Y-107162758D01*
X131464556Y-107304671D01*
X131585629Y-107392636D01*
X131628983Y-107448858D01*
X131635058Y-107519595D01*
X131601926Y-107582386D01*
X131585629Y-107596508D01*
X131462268Y-107686135D01*
X131334489Y-107828048D01*
X131334482Y-107828058D01*
X131239000Y-107993438D01*
X131238997Y-107993444D01*
X131231231Y-108017346D01*
X131179981Y-108175072D01*
X131160020Y-108365000D01*
X131179981Y-108554927D01*
X131209503Y-108645785D01*
X131238997Y-108736556D01*
X131239000Y-108736561D01*
X131334482Y-108901941D01*
X131334489Y-108901951D01*
X131462268Y-109043864D01*
X131462271Y-109043866D01*
X131616772Y-109156118D01*
X131791236Y-109233794D01*
X131978037Y-109273500D01*
X132169015Y-109273500D01*
X132275619Y-109250840D01*
X132346410Y-109256241D01*
X132403043Y-109299057D01*
X132427537Y-109365695D01*
X132412116Y-109434996D01*
X132390913Y-109463181D01*
X131964501Y-109889595D01*
X131902189Y-109923620D01*
X131875405Y-109926500D01*
X129477167Y-109926500D01*
X129409046Y-109906498D01*
X129362553Y-109852842D01*
X129352449Y-109782568D01*
X129357334Y-109761563D01*
X129393542Y-109650128D01*
X129413504Y-109460200D01*
X129393542Y-109270272D01*
X129334527Y-109088644D01*
X129239040Y-108923256D01*
X129239038Y-108923254D01*
X129239034Y-108923248D01*
X129111255Y-108781335D01*
X128956752Y-108669082D01*
X128782288Y-108591406D01*
X128595487Y-108551700D01*
X128420817Y-108551700D01*
X128352696Y-108531698D01*
X128306203Y-108478042D01*
X128296099Y-108407768D01*
X128311698Y-108362700D01*
X128341799Y-108310563D01*
X128384527Y-108236556D01*
X128443542Y-108054928D01*
X128463504Y-107865000D01*
X128443542Y-107675072D01*
X128384527Y-107493444D01*
X128289040Y-107328056D01*
X128289038Y-107328054D01*
X128289034Y-107328048D01*
X128161255Y-107186135D01*
X128006752Y-107073882D01*
X127832288Y-106996206D01*
X127645487Y-106956500D01*
X127454513Y-106956500D01*
X127454509Y-106956500D01*
X127423176Y-106963159D01*
X127352386Y-106957755D01*
X127295754Y-106914937D01*
X127277151Y-106878850D01*
X127244527Y-106778444D01*
X127149040Y-106613056D01*
X127149038Y-106613054D01*
X127149034Y-106613048D01*
X127021255Y-106471135D01*
X126866752Y-106358882D01*
X126692288Y-106281206D01*
X126505487Y-106241500D01*
X126314513Y-106241500D01*
X126127711Y-106281206D01*
X125953247Y-106358882D01*
X125798744Y-106471135D01*
X125670965Y-106613048D01*
X125670958Y-106613058D01*
X125575476Y-106778438D01*
X125575473Y-106778445D01*
X125516457Y-106960072D01*
X125496496Y-107150000D01*
X125516457Y-107339927D01*
X125531694Y-107386820D01*
X125575473Y-107521556D01*
X125575476Y-107521561D01*
X125670958Y-107686941D01*
X125670965Y-107686951D01*
X125798744Y-107828864D01*
X125798747Y-107828866D01*
X125953248Y-107941118D01*
X126127712Y-108018794D01*
X126314513Y-108058500D01*
X126505486Y-108058500D01*
X126505487Y-108058500D01*
X126536818Y-108051840D01*
X126607607Y-108057241D01*
X126664241Y-108100057D01*
X126682848Y-108136149D01*
X126715472Y-108236554D01*
X126715476Y-108236561D01*
X126810958Y-108401941D01*
X126810965Y-108401951D01*
X126938744Y-108543864D01*
X126953240Y-108554396D01*
X127093248Y-108656118D01*
X127267712Y-108733794D01*
X127454513Y-108773500D01*
X127629183Y-108773500D01*
X127697304Y-108793502D01*
X127743797Y-108847158D01*
X127753901Y-108917432D01*
X127738302Y-108962500D01*
X127685854Y-109053344D01*
X127665473Y-109088644D01*
X127652036Y-109130000D01*
X127606457Y-109270272D01*
X127586496Y-109460200D01*
X127606457Y-109650127D01*
X127632162Y-109729238D01*
X127641571Y-109758195D01*
X127642666Y-109761563D01*
X127644694Y-109832531D01*
X127608032Y-109893329D01*
X127544320Y-109924654D01*
X127522833Y-109926500D01*
X127340480Y-109926500D01*
X127272359Y-109906498D01*
X127265338Y-109901137D01*
X127265195Y-109901334D01*
X127105352Y-109785201D01*
X126930888Y-109707525D01*
X126744087Y-109667819D01*
X126553113Y-109667819D01*
X126553111Y-109667819D01*
X126423986Y-109695265D01*
X126353196Y-109689863D01*
X126296563Y-109647046D01*
X126272070Y-109580408D01*
X126287491Y-109511107D01*
X126288630Y-109509090D01*
X126304527Y-109481556D01*
X126363542Y-109299928D01*
X126383504Y-109110000D01*
X126363542Y-108920072D01*
X126304527Y-108738444D01*
X126209040Y-108573056D01*
X126209038Y-108573054D01*
X126209034Y-108573048D01*
X126081255Y-108431135D01*
X125926752Y-108318882D01*
X125752288Y-108241206D01*
X125565487Y-108201500D01*
X125374513Y-108201500D01*
X125187711Y-108241206D01*
X125106813Y-108277223D01*
X125036446Y-108286656D01*
X124981505Y-108264051D01*
X124836752Y-108158882D01*
X124662288Y-108081206D01*
X124475487Y-108041500D01*
X124284513Y-108041500D01*
X124284509Y-108041500D01*
X124281897Y-108042055D01*
X124280350Y-108041936D01*
X124277942Y-108042190D01*
X124277895Y-108041749D01*
X124211107Y-108036647D01*
X124154478Y-107993825D01*
X124137332Y-107955784D01*
X124135583Y-107956353D01*
X124110428Y-107878936D01*
X124108400Y-107807968D01*
X124145062Y-107747170D01*
X124204062Y-107716752D01*
X124354788Y-107684715D01*
X124529252Y-107607039D01*
X124683753Y-107494787D01*
X124683755Y-107494785D01*
X124811534Y-107352872D01*
X124811535Y-107352870D01*
X124811540Y-107352865D01*
X124907027Y-107187477D01*
X124966042Y-107005849D01*
X124986004Y-106815921D01*
X124966042Y-106625993D01*
X124907027Y-106444365D01*
X124811540Y-106278977D01*
X124811538Y-106278975D01*
X124811534Y-106278969D01*
X124683755Y-106137056D01*
X124529252Y-106024803D01*
X124354788Y-105947127D01*
X124167987Y-105907421D01*
X123977013Y-105907421D01*
X123790211Y-105947127D01*
X123615747Y-106024803D01*
X123461244Y-106137056D01*
X123333465Y-106278969D01*
X123333458Y-106278979D01*
X123242872Y-106435879D01*
X123237973Y-106444365D01*
X123229275Y-106471134D01*
X123178957Y-106625993D01*
X123158996Y-106815921D01*
X123178957Y-107005849D01*
X123202071Y-107076985D01*
X123204099Y-107147952D01*
X123167436Y-107208750D01*
X123108436Y-107239167D01*
X122957715Y-107271204D01*
X122783247Y-107348882D01*
X122628744Y-107461135D01*
X122500965Y-107603048D01*
X122500958Y-107603058D01*
X122405476Y-107768438D01*
X122405473Y-107768445D01*
X122346457Y-107950072D01*
X122326496Y-108140000D01*
X122346457Y-108329927D01*
X122369860Y-108401951D01*
X122405473Y-108511556D01*
X122428650Y-108551700D01*
X122500958Y-108676941D01*
X122500965Y-108676951D01*
X122628744Y-108818864D01*
X122628747Y-108818866D01*
X122783248Y-108931118D01*
X122957712Y-109008794D01*
X123144513Y-109048500D01*
X123335482Y-109048500D01*
X123335487Y-109048500D01*
X123338087Y-109047947D01*
X123339627Y-109048064D01*
X123342050Y-109047810D01*
X123342096Y-109048252D01*
X123408874Y-109053344D01*
X123465510Y-109096158D01*
X123482673Y-109134213D01*
X123484417Y-109133647D01*
X123486458Y-109139928D01*
X123545473Y-109321556D01*
X123545476Y-109321561D01*
X123640958Y-109486941D01*
X123640965Y-109486951D01*
X123768744Y-109628864D01*
X123822361Y-109667819D01*
X123923248Y-109741118D01*
X124097712Y-109818794D01*
X124284513Y-109858500D01*
X124475487Y-109858500D01*
X124662288Y-109818794D01*
X124743183Y-109782776D01*
X124813549Y-109773342D01*
X124868493Y-109795947D01*
X125013248Y-109901118D01*
X125187712Y-109978794D01*
X125374513Y-110018500D01*
X125565491Y-110018500D01*
X125694611Y-109991054D01*
X125765402Y-109996455D01*
X125822035Y-110039271D01*
X125846529Y-110105909D01*
X125831108Y-110175211D01*
X125829929Y-110177298D01*
X125814077Y-110204755D01*
X125814073Y-110204764D01*
X125755057Y-110386391D01*
X125737692Y-110551612D01*
X125710679Y-110617269D01*
X125701477Y-110627536D01*
X120784420Y-115544595D01*
X120722108Y-115578620D01*
X120695325Y-115581500D01*
X120458166Y-115581500D01*
X120390045Y-115561498D01*
X120343552Y-115507842D01*
X120332166Y-115455801D01*
X120331780Y-115293906D01*
X120300145Y-102031121D01*
X120319985Y-101962955D01*
X120347911Y-101932054D01*
X121515971Y-101006950D01*
X121581788Y-100980339D01*
X121593390Y-100979729D01*
X124365786Y-100962415D01*
X124434030Y-100981992D01*
X124480858Y-101035356D01*
X124491400Y-101105565D01*
X124475693Y-101151412D01*
X124466763Y-101166880D01*
X124462973Y-101173444D01*
X124460968Y-101179615D01*
X124403956Y-101355075D01*
X124403646Y-101356537D01*
X124403233Y-101357300D01*
X124401917Y-101361353D01*
X124401175Y-101361112D01*
X124369917Y-101419010D01*
X124307767Y-101453330D01*
X124236928Y-101448601D01*
X124229151Y-101445445D01*
X124129788Y-101401206D01*
X123942987Y-101361500D01*
X123752013Y-101361500D01*
X123565211Y-101401206D01*
X123390747Y-101478882D01*
X123236244Y-101591135D01*
X123108465Y-101733048D01*
X123108458Y-101733058D01*
X123034800Y-101860638D01*
X123012973Y-101898444D01*
X123002052Y-101932054D01*
X122953957Y-102080072D01*
X122933996Y-102270000D01*
X122953957Y-102459927D01*
X122984026Y-102552470D01*
X123012973Y-102641556D01*
X123012976Y-102641561D01*
X123108458Y-102806941D01*
X123108465Y-102806951D01*
X123236244Y-102948864D01*
X123236247Y-102948866D01*
X123390748Y-103061118D01*
X123565212Y-103138794D01*
X123752013Y-103178500D01*
X123942987Y-103178500D01*
X124129788Y-103138794D01*
X124304252Y-103061118D01*
X124458753Y-102948866D01*
X124458755Y-102948864D01*
X124586534Y-102806951D01*
X124586535Y-102806949D01*
X124586540Y-102806944D01*
X124682027Y-102641556D01*
X124741042Y-102459928D01*
X124741042Y-102459918D01*
X124741353Y-102458465D01*
X124741766Y-102457699D01*
X124743083Y-102453647D01*
X124743824Y-102453887D01*
X124775081Y-102395992D01*
X124837230Y-102361670D01*
X124908069Y-102366397D01*
X124915849Y-102369555D01*
X125015207Y-102413793D01*
X125202013Y-102453500D01*
X125392987Y-102453500D01*
X125579788Y-102413794D01*
X125754252Y-102336118D01*
X125908753Y-102223866D01*
X125908755Y-102223864D01*
X126036534Y-102081951D01*
X126036535Y-102081949D01*
X126036540Y-102081944D01*
X126132027Y-101916556D01*
X126191042Y-101734928D01*
X126211004Y-101545000D01*
X126191042Y-101355072D01*
X126152952Y-101237846D01*
X126150925Y-101166880D01*
X126187587Y-101106082D01*
X126251299Y-101074757D01*
X126321833Y-101082849D01*
X126366421Y-101114599D01*
X126463747Y-101222691D01*
X126618248Y-101334943D01*
X126792712Y-101412619D01*
X126836688Y-101421966D01*
X126899162Y-101455693D01*
X126930326Y-101506276D01*
X126962974Y-101606755D01*
X127058458Y-101772136D01*
X127058465Y-101772146D01*
X127186244Y-101914059D01*
X127186247Y-101914061D01*
X127340748Y-102026313D01*
X127515212Y-102103989D01*
X127702013Y-102143695D01*
X127892987Y-102143695D01*
X128079788Y-102103989D01*
X128254252Y-102026313D01*
X128408753Y-101914061D01*
X128524098Y-101785957D01*
X128584541Y-101748719D01*
X128655525Y-101750070D01*
X128714510Y-101789584D01*
X128742768Y-101854714D01*
X128741331Y-101888283D01*
X128741998Y-101888354D01*
X128721346Y-102084850D01*
X128741307Y-102274777D01*
X128761238Y-102336117D01*
X128800323Y-102456406D01*
X128828691Y-102505541D01*
X128895808Y-102621791D01*
X128895815Y-102621801D01*
X129023594Y-102763714D01*
X129023597Y-102763716D01*
X129178098Y-102875968D01*
X129352562Y-102953644D01*
X129539363Y-102993350D01*
X129730337Y-102993350D01*
X129917138Y-102953644D01*
X130091602Y-102875968D01*
X130246103Y-102763716D01*
X130356092Y-102641561D01*
X130373884Y-102621801D01*
X130373885Y-102621799D01*
X130373890Y-102621794D01*
X130469377Y-102456406D01*
X130528392Y-102274778D01*
X130548354Y-102084850D01*
X130528392Y-101894922D01*
X130469377Y-101713294D01*
X130373890Y-101547906D01*
X130373888Y-101547904D01*
X130373884Y-101547898D01*
X130246105Y-101405985D01*
X130091602Y-101293732D01*
X129917138Y-101216056D01*
X129737875Y-101177952D01*
X129675401Y-101144223D01*
X129641080Y-101082074D01*
X129645808Y-101011235D01*
X129688084Y-100954197D01*
X129754486Y-100929070D01*
X129763275Y-100928707D01*
X130196800Y-100926000D01*
X131162000Y-100113200D01*
X131158016Y-99724811D01*
X131159201Y-99706252D01*
X131164108Y-99670849D01*
X131167210Y-99648472D01*
X131166789Y-99565648D01*
X131159366Y-98103444D01*
X131159269Y-98084386D01*
X131178925Y-98016164D01*
X131232343Y-97969400D01*
X131285267Y-97957746D01*
X131466241Y-97957746D01*
X131653042Y-97918040D01*
X131827506Y-97840364D01*
X131982007Y-97728112D01*
X132109794Y-97586190D01*
X132205281Y-97420802D01*
X132264296Y-97239174D01*
X132284258Y-97049246D01*
X132264296Y-96859318D01*
X132205281Y-96677690D01*
X132148661Y-96579623D01*
X132146859Y-96576501D01*
X132130120Y-96507506D01*
X132146858Y-96450500D01*
X132188376Y-96378591D01*
X132188379Y-96378581D01*
X132188573Y-96378148D01*
X132188757Y-96377930D01*
X132191679Y-96372871D01*
X132192603Y-96373404D01*
X132234546Y-96324046D01*
X132302471Y-96303388D01*
X132370781Y-96322732D01*
X132397322Y-96345071D01*
X132418747Y-96368866D01*
X132573248Y-96481118D01*
X132747712Y-96558794D01*
X132934513Y-96598500D01*
X133125487Y-96598500D01*
X133312288Y-96558794D01*
X133456448Y-96494609D01*
X133526814Y-96485176D01*
X133566986Y-96499293D01*
X133567001Y-96499261D01*
X133567404Y-96499440D01*
X133570695Y-96500597D01*
X133573027Y-96501942D01*
X133573033Y-96501947D01*
X133747497Y-96579623D01*
X133934298Y-96619329D01*
X134125272Y-96619329D01*
X134312073Y-96579623D01*
X134486537Y-96501947D01*
X134641038Y-96389695D01*
X134641040Y-96389693D01*
X134768819Y-96247780D01*
X134768820Y-96247778D01*
X134768825Y-96247773D01*
X134864312Y-96082385D01*
X134923327Y-95900757D01*
X134943289Y-95710829D01*
X134923327Y-95520901D01*
X134864312Y-95339273D01*
X134768825Y-95173885D01*
X134768823Y-95173883D01*
X134768819Y-95173877D01*
X134641040Y-95031964D01*
X134486537Y-94919711D01*
X134312073Y-94842035D01*
X134125272Y-94802329D01*
X133934298Y-94802329D01*
X133747494Y-94842035D01*
X133603336Y-94906218D01*
X133532969Y-94915652D01*
X133492798Y-94901534D01*
X133492784Y-94901568D01*
X133492376Y-94901386D01*
X133489094Y-94900233D01*
X133486762Y-94898887D01*
X133486753Y-94898883D01*
X133486752Y-94898882D01*
X133312288Y-94821206D01*
X133125487Y-94781500D01*
X132934513Y-94781500D01*
X132934511Y-94781500D01*
X132843715Y-94800799D01*
X132772925Y-94795397D01*
X132716292Y-94752580D01*
X132691799Y-94685942D01*
X132702416Y-94626295D01*
X132704523Y-94621562D01*
X132704527Y-94621556D01*
X132763542Y-94439928D01*
X132783504Y-94250000D01*
X132763542Y-94060072D01*
X132704527Y-93878444D01*
X132609040Y-93713056D01*
X132609038Y-93713054D01*
X132609034Y-93713048D01*
X132481255Y-93571135D01*
X132326752Y-93458882D01*
X132152288Y-93381206D01*
X131965487Y-93341500D01*
X131774513Y-93341500D01*
X131587711Y-93381206D01*
X131413247Y-93458882D01*
X131335620Y-93515282D01*
X131268752Y-93539141D01*
X131199600Y-93523060D01*
X131150120Y-93472146D01*
X131135561Y-93413986D01*
X131135192Y-93341266D01*
X131119366Y-90223599D01*
X131139022Y-90155380D01*
X131168001Y-90123509D01*
X131928295Y-89532170D01*
X131994343Y-89506138D01*
X132006589Y-89505634D01*
X138118319Y-89552289D01*
G37*
%TD.AperFunction*%
%TD*%
%TA.AperFunction,Conductor*%
%TO.N,+BATT*%
G36*
X117967908Y-88535266D02*
G01*
X117989645Y-88537715D01*
X118017151Y-88543993D01*
X118043331Y-88553154D01*
X118068747Y-88565394D01*
X118081657Y-88573506D01*
X118092210Y-88580137D01*
X118114267Y-88597728D01*
X118136476Y-88619937D01*
X118136489Y-88619949D01*
X118170858Y-88649797D01*
X118190959Y-88667253D01*
X118202391Y-88675850D01*
X118219170Y-88688469D01*
X118219173Y-88688470D01*
X118219183Y-88688478D01*
X118279753Y-88727685D01*
X119006470Y-89128632D01*
X119056450Y-89179051D01*
X119071600Y-89238953D01*
X119071600Y-92881717D01*
X119051598Y-92949838D01*
X119013875Y-92987616D01*
X118557114Y-93282096D01*
X118489791Y-93302193D01*
X115245200Y-93326713D01*
X115176930Y-93307227D01*
X115130033Y-93253924D01*
X115124415Y-93239652D01*
X115104530Y-93178451D01*
X115104526Y-93178442D01*
X115009041Y-93013058D01*
X115009034Y-93013048D01*
X114881255Y-92871135D01*
X114726752Y-92758882D01*
X114552288Y-92681206D01*
X114365487Y-92641500D01*
X114174513Y-92641500D01*
X113987711Y-92681206D01*
X113813247Y-92758882D01*
X113658744Y-92871135D01*
X113530965Y-93013048D01*
X113530958Y-93013058D01*
X113435475Y-93178438D01*
X113410788Y-93254415D01*
X113370713Y-93313020D01*
X113305316Y-93340656D01*
X113291907Y-93341473D01*
X111444860Y-93355430D01*
X111376590Y-93335944D01*
X111329693Y-93282641D01*
X111318598Y-93242604D01*
X111311742Y-93177372D01*
X111252727Y-92995744D01*
X111157240Y-92830356D01*
X111157238Y-92830354D01*
X111157234Y-92830348D01*
X111029455Y-92688435D01*
X110874952Y-92576182D01*
X110700488Y-92498506D01*
X110513687Y-92458800D01*
X110322713Y-92458800D01*
X110135911Y-92498506D01*
X109961447Y-92576182D01*
X109806944Y-92688435D01*
X109679165Y-92830348D01*
X109679158Y-92830358D01*
X109583676Y-92995738D01*
X109583673Y-92995745D01*
X109524657Y-93177372D01*
X109516170Y-93258121D01*
X109489156Y-93323777D01*
X109430934Y-93364406D01*
X109391812Y-93370945D01*
X98725713Y-93451545D01*
X98724405Y-93451548D01*
X98041272Y-93449617D01*
X98041269Y-93449618D01*
X97278400Y-94321999D01*
X97278400Y-94322000D01*
X97263013Y-100431859D01*
X97242839Y-100499929D01*
X97189066Y-100546287D01*
X97188267Y-100546647D01*
X97183250Y-100548880D01*
X97183248Y-100548882D01*
X97028744Y-100661135D01*
X96900965Y-100803048D01*
X96900958Y-100803058D01*
X96805476Y-100968438D01*
X96805473Y-100968445D01*
X96746457Y-101150072D01*
X96726496Y-101340000D01*
X96746457Y-101529927D01*
X96757307Y-101563319D01*
X96805473Y-101711556D01*
X96805476Y-101711561D01*
X96899831Y-101874990D01*
X96916569Y-101943986D01*
X96899832Y-102000989D01*
X96820474Y-102138441D01*
X96820473Y-102138445D01*
X96761457Y-102320072D01*
X96741496Y-102510000D01*
X96761457Y-102699927D01*
X96791526Y-102792470D01*
X96820473Y-102881556D01*
X96820476Y-102881561D01*
X96915958Y-103046941D01*
X96915965Y-103046951D01*
X97043744Y-103188864D01*
X97203581Y-103304993D01*
X97246935Y-103361216D01*
X97255520Y-103407246D01*
X97250913Y-105236373D01*
X97250910Y-105236937D01*
X97231468Y-108017346D01*
X97219340Y-109751716D01*
X97219315Y-109755301D01*
X97219315Y-109755304D01*
X97201615Y-112286411D01*
X97201590Y-112289996D01*
X97201590Y-112289999D01*
X97172855Y-116398801D01*
X97152377Y-116466780D01*
X97098397Y-116512897D01*
X97048327Y-116523911D01*
X96736307Y-116527548D01*
X96667957Y-116508342D01*
X96641202Y-116485868D01*
X96623253Y-116465934D01*
X96468752Y-116353682D01*
X96443249Y-116342327D01*
X96389154Y-116296346D01*
X96368506Y-116228418D01*
X96368500Y-116227221D01*
X96368500Y-112791367D01*
X96368499Y-112791350D01*
X96361990Y-112730803D01*
X96361988Y-112730795D01*
X96310889Y-112593797D01*
X96310887Y-112593792D01*
X96223261Y-112476738D01*
X96106207Y-112389112D01*
X96106202Y-112389110D01*
X95969204Y-112338011D01*
X95969196Y-112338009D01*
X95908649Y-112331500D01*
X95908638Y-112331500D01*
X92011362Y-112331500D01*
X92011358Y-112331500D01*
X92011342Y-112331501D01*
X91982365Y-112334616D01*
X91912497Y-112322009D01*
X91860536Y-112273629D01*
X91842900Y-112209338D01*
X91842900Y-110874599D01*
X91859780Y-110811600D01*
X91918927Y-110709156D01*
X91977942Y-110527528D01*
X91997904Y-110337600D01*
X91977942Y-110147672D01*
X91918927Y-109966044D01*
X91859781Y-109863599D01*
X91842900Y-109800599D01*
X91842900Y-105896199D01*
X91859780Y-105833200D01*
X91918927Y-105730756D01*
X91977942Y-105549128D01*
X91997904Y-105359200D01*
X91977942Y-105169272D01*
X91918927Y-104987644D01*
X91859781Y-104885199D01*
X91842900Y-104822199D01*
X91842900Y-100816199D01*
X91859780Y-100753200D01*
X91918927Y-100650756D01*
X91977942Y-100469128D01*
X91997904Y-100279200D01*
X91977942Y-100089272D01*
X91918927Y-99907644D01*
X91864317Y-99813056D01*
X91859781Y-99805199D01*
X91842900Y-99742199D01*
X91842900Y-99230000D01*
X93496496Y-99230000D01*
X93516457Y-99419927D01*
X93525236Y-99446944D01*
X93575473Y-99601556D01*
X93575476Y-99601561D01*
X93647898Y-99727000D01*
X93664636Y-99795995D01*
X93647898Y-99853000D01*
X93575476Y-99978438D01*
X93575473Y-99978445D01*
X93516457Y-100160072D01*
X93496496Y-100350000D01*
X93516457Y-100539927D01*
X93537167Y-100603663D01*
X93575473Y-100721556D01*
X93575476Y-100721561D01*
X93670958Y-100886941D01*
X93670965Y-100886951D01*
X93798744Y-101028864D01*
X93798747Y-101028866D01*
X93953248Y-101141118D01*
X94127712Y-101218794D01*
X94314513Y-101258500D01*
X94505487Y-101258500D01*
X94692288Y-101218794D01*
X94866752Y-101141118D01*
X95021253Y-101028866D01*
X95149040Y-100886944D01*
X95244527Y-100721556D01*
X95303542Y-100539928D01*
X95323504Y-100350000D01*
X95303542Y-100160072D01*
X95244527Y-99978444D01*
X95172100Y-99852997D01*
X95155363Y-99784005D01*
X95172099Y-99727003D01*
X95244527Y-99601556D01*
X95303542Y-99419928D01*
X95323504Y-99230000D01*
X95303542Y-99040072D01*
X95244527Y-98858444D01*
X95165553Y-98721658D01*
X95148816Y-98652665D01*
X95165552Y-98595663D01*
X95254527Y-98441556D01*
X95313542Y-98259928D01*
X95333504Y-98070000D01*
X95313542Y-97880072D01*
X95254527Y-97698444D01*
X95159040Y-97533056D01*
X95159038Y-97533054D01*
X95159034Y-97533048D01*
X95031255Y-97391135D01*
X94876752Y-97278882D01*
X94702288Y-97201206D01*
X94515487Y-97161500D01*
X94324513Y-97161500D01*
X94137711Y-97201206D01*
X93963247Y-97278882D01*
X93808744Y-97391135D01*
X93680965Y-97533048D01*
X93680958Y-97533058D01*
X93585476Y-97698438D01*
X93585473Y-97698445D01*
X93526457Y-97880072D01*
X93506496Y-98070000D01*
X93526457Y-98259927D01*
X93556526Y-98352470D01*
X93585473Y-98441556D01*
X93585476Y-98441561D01*
X93664445Y-98578339D01*
X93681183Y-98647334D01*
X93664445Y-98704339D01*
X93575476Y-98858438D01*
X93575473Y-98858445D01*
X93516457Y-99040072D01*
X93496496Y-99230000D01*
X91842900Y-99230000D01*
X91842900Y-95736199D01*
X91859780Y-95673200D01*
X91918927Y-95570756D01*
X91977942Y-95389128D01*
X91997904Y-95199200D01*
X91992060Y-95143600D01*
X92465475Y-95143600D01*
X92484712Y-95314344D01*
X92541464Y-95476530D01*
X92541465Y-95476533D01*
X92561466Y-95508364D01*
X92580772Y-95576685D01*
X92561466Y-95642436D01*
X92541465Y-95674266D01*
X92541464Y-95674269D01*
X92484712Y-95836455D01*
X92465475Y-96007200D01*
X92484712Y-96177944D01*
X92541464Y-96340130D01*
X92541465Y-96340133D01*
X92632879Y-96485617D01*
X92632880Y-96485619D01*
X92754380Y-96607119D01*
X92754382Y-96607120D01*
X92899866Y-96698534D01*
X92899867Y-96698534D01*
X92899870Y-96698536D01*
X93062054Y-96755287D01*
X93062053Y-96755287D01*
X93079343Y-96757234D01*
X93232800Y-96774525D01*
X93403546Y-96755287D01*
X93565730Y-96698536D01*
X93711219Y-96607119D01*
X93832719Y-96485619D01*
X93876975Y-96415184D01*
X93930154Y-96368147D01*
X93997768Y-96357012D01*
X94096400Y-96368125D01*
X94147588Y-96362357D01*
X94217519Y-96374606D01*
X94268382Y-96420529D01*
X94309281Y-96485619D01*
X94309284Y-96485623D01*
X94430780Y-96607119D01*
X94430782Y-96607120D01*
X94576266Y-96698534D01*
X94576267Y-96698534D01*
X94576270Y-96698536D01*
X94738454Y-96755287D01*
X94738453Y-96755287D01*
X94755743Y-96757234D01*
X94909200Y-96774525D01*
X95079946Y-96755287D01*
X95242130Y-96698536D01*
X95387619Y-96607119D01*
X95509119Y-96485619D01*
X95600536Y-96340130D01*
X95657287Y-96177946D01*
X95676525Y-96007200D01*
X95657287Y-95836454D01*
X95600536Y-95674270D01*
X95600535Y-95674269D01*
X95600536Y-95674269D01*
X95580534Y-95642438D01*
X95561227Y-95574117D01*
X95580534Y-95508362D01*
X95600536Y-95476530D01*
X95657287Y-95314346D01*
X95676525Y-95143600D01*
X95657287Y-94972854D01*
X95600536Y-94810670D01*
X95600534Y-94810667D01*
X95600534Y-94810666D01*
X95509120Y-94665182D01*
X95509119Y-94665180D01*
X95387619Y-94543680D01*
X95387617Y-94543679D01*
X95242133Y-94452265D01*
X95242130Y-94452264D01*
X95079946Y-94395513D01*
X95079944Y-94395512D01*
X95079946Y-94395512D01*
X94909200Y-94376275D01*
X94738455Y-94395512D01*
X94576269Y-94452264D01*
X94576266Y-94452265D01*
X94430782Y-94543679D01*
X94430780Y-94543680D01*
X94309280Y-94665180D01*
X94309279Y-94665182D01*
X94238573Y-94777711D01*
X94185395Y-94824749D01*
X94117783Y-94835883D01*
X94096404Y-94833475D01*
X94096400Y-94833475D01*
X94027578Y-94841228D01*
X93957646Y-94828977D01*
X93906786Y-94783056D01*
X93832720Y-94665182D01*
X93832719Y-94665180D01*
X93711219Y-94543680D01*
X93711217Y-94543679D01*
X93565733Y-94452265D01*
X93565730Y-94452264D01*
X93403546Y-94395513D01*
X93403544Y-94395512D01*
X93403546Y-94395512D01*
X93232800Y-94376275D01*
X93062055Y-94395512D01*
X92899869Y-94452264D01*
X92899866Y-94452265D01*
X92754382Y-94543679D01*
X92754380Y-94543680D01*
X92632880Y-94665180D01*
X92632879Y-94665182D01*
X92541465Y-94810666D01*
X92541464Y-94810669D01*
X92484712Y-94972855D01*
X92465475Y-95143600D01*
X91992060Y-95143600D01*
X91977942Y-95009272D01*
X91918927Y-94827644D01*
X91860585Y-94726592D01*
X91859781Y-94725199D01*
X91842900Y-94662199D01*
X91842900Y-90605399D01*
X91859780Y-90542400D01*
X91918927Y-90439956D01*
X91977942Y-90258328D01*
X91997904Y-90068400D01*
X91977942Y-89878472D01*
X91974536Y-89867989D01*
X91972507Y-89797021D01*
X92009168Y-89736222D01*
X92068169Y-89705804D01*
X92242288Y-89668794D01*
X92416752Y-89591118D01*
X92571253Y-89478866D01*
X92653802Y-89387185D01*
X92714246Y-89349947D01*
X92785230Y-89351298D01*
X92821497Y-89369560D01*
X92852848Y-89392338D01*
X93027312Y-89470014D01*
X93214113Y-89509720D01*
X93405087Y-89509720D01*
X93591888Y-89470014D01*
X93766352Y-89392338D01*
X93920853Y-89280086D01*
X93920855Y-89280084D01*
X94048634Y-89138171D01*
X94048635Y-89138169D01*
X94048640Y-89138164D01*
X94144127Y-88972776D01*
X94203142Y-88791148D01*
X94203400Y-88788686D01*
X94203947Y-88787355D01*
X94204515Y-88784688D01*
X94205002Y-88784791D01*
X94230408Y-88723029D01*
X94288626Y-88682395D01*
X94328241Y-88675850D01*
X95865724Y-88670125D01*
X95967545Y-88655461D01*
X96006866Y-88649799D01*
X96006873Y-88649797D01*
X96006878Y-88649797D01*
X96073442Y-88630487D01*
X96164017Y-88589856D01*
X96173915Y-88585912D01*
X96188392Y-88580847D01*
X96229747Y-88573779D01*
X96368971Y-88573506D01*
X96410827Y-88580576D01*
X96426868Y-88586189D01*
X96436704Y-88589630D01*
X96446442Y-88593500D01*
X96465051Y-88601806D01*
X96523236Y-88627777D01*
X96523241Y-88627778D01*
X96523245Y-88627780D01*
X96563739Y-88639364D01*
X96590741Y-88647089D01*
X96733890Y-88666891D01*
X101329679Y-88649774D01*
X101397873Y-88669522D01*
X101444566Y-88723004D01*
X101455457Y-88762598D01*
X101458458Y-88791148D01*
X101517473Y-88972776D01*
X101517476Y-88972781D01*
X101612958Y-89138161D01*
X101612965Y-89138171D01*
X101740744Y-89280084D01*
X101740747Y-89280086D01*
X101895248Y-89392338D01*
X102069712Y-89470014D01*
X102256513Y-89509720D01*
X102447487Y-89509720D01*
X102634288Y-89470014D01*
X102808752Y-89392338D01*
X102963253Y-89280086D01*
X102963255Y-89280084D01*
X103091034Y-89138171D01*
X103091035Y-89138169D01*
X103091040Y-89138164D01*
X103186527Y-88972776D01*
X103245542Y-88791148D01*
X103249342Y-88754989D01*
X103276354Y-88689332D01*
X103334575Y-88648702D01*
X103374179Y-88642159D01*
X103405970Y-88642040D01*
X103474163Y-88661787D01*
X103520857Y-88715268D01*
X103529686Y-88741840D01*
X103530256Y-88744523D01*
X103545407Y-88791152D01*
X103589273Y-88926156D01*
X103604168Y-88951954D01*
X103684758Y-89091541D01*
X103684765Y-89091551D01*
X103812544Y-89233464D01*
X103861821Y-89269266D01*
X103967048Y-89345718D01*
X104141512Y-89423394D01*
X104328313Y-89463100D01*
X104519287Y-89463100D01*
X104706088Y-89423394D01*
X104880552Y-89345718D01*
X105035053Y-89233466D01*
X105074587Y-89189559D01*
X105162834Y-89091551D01*
X105162835Y-89091549D01*
X105162840Y-89091544D01*
X105258327Y-88926156D01*
X105317342Y-88744528D01*
X105317342Y-88744522D01*
X105318715Y-88738068D01*
X105320674Y-88738484D01*
X105344060Y-88681636D01*
X105402279Y-88641002D01*
X105441892Y-88634458D01*
X106920980Y-88628950D01*
X107022801Y-88614286D01*
X107062120Y-88608624D01*
X107062127Y-88608622D01*
X107062132Y-88608622D01*
X107128697Y-88589312D01*
X107186938Y-88563186D01*
X107238250Y-88552151D01*
X107494234Y-88551649D01*
X107545828Y-88562587D01*
X107599461Y-88586526D01*
X107666964Y-88605837D01*
X107810110Y-88625638D01*
X112158377Y-88609443D01*
X112226571Y-88629191D01*
X112273264Y-88682673D01*
X112284155Y-88722267D01*
X112290258Y-88780328D01*
X112290258Y-88780330D01*
X112290259Y-88780332D01*
X112293774Y-88791150D01*
X112349273Y-88961956D01*
X112349276Y-88961961D01*
X112444758Y-89127341D01*
X112444765Y-89127351D01*
X112572544Y-89269264D01*
X112633799Y-89313768D01*
X112727048Y-89381518D01*
X112901512Y-89459194D01*
X113088313Y-89498900D01*
X113279287Y-89498900D01*
X113466088Y-89459194D01*
X113640552Y-89381518D01*
X113795053Y-89269266D01*
X113822347Y-89238953D01*
X113922834Y-89127351D01*
X113922835Y-89127349D01*
X113922840Y-89127344D01*
X114018327Y-88961956D01*
X114077342Y-88780328D01*
X114084246Y-88714635D01*
X114111258Y-88648979D01*
X114169479Y-88608348D01*
X114209086Y-88601806D01*
X114285595Y-88601521D01*
X114353789Y-88621269D01*
X114400482Y-88674751D01*
X114411374Y-88714347D01*
X114411471Y-88715268D01*
X114417258Y-88770328D01*
X114417258Y-88770330D01*
X114417259Y-88770332D01*
X114424024Y-88791152D01*
X114476273Y-88951956D01*
X114488296Y-88972781D01*
X114571758Y-89117341D01*
X114571765Y-89117351D01*
X114699544Y-89259264D01*
X114699547Y-89259266D01*
X114854048Y-89371518D01*
X115028512Y-89449194D01*
X115215313Y-89488900D01*
X115406287Y-89488900D01*
X115593088Y-89449194D01*
X115767552Y-89371518D01*
X115922053Y-89259266D01*
X115940343Y-89238953D01*
X116049834Y-89117351D01*
X116049835Y-89117349D01*
X116049840Y-89117344D01*
X116145327Y-88951956D01*
X116204342Y-88770328D01*
X116211028Y-88706714D01*
X116238041Y-88641057D01*
X116296262Y-88600427D01*
X116335868Y-88593885D01*
X117643895Y-88589014D01*
X117698364Y-88584266D01*
X117728910Y-88581605D01*
X117728912Y-88581604D01*
X117728931Y-88581603D01*
X117770076Y-88574534D01*
X117852723Y-88553134D01*
X117878841Y-88543994D01*
X117906346Y-88537716D01*
X117933897Y-88534613D01*
X117962105Y-88534613D01*
X117967908Y-88535266D01*
G37*
%TD.AperFunction*%
%TD*%
%TA.AperFunction,Conductor*%
%TO.N,GND*%
G36*
X140091722Y-87433202D02*
G01*
X140138215Y-87486858D01*
X140149539Y-87543133D01*
X140132083Y-88101751D01*
X140106614Y-88916736D01*
X140084493Y-88984198D01*
X140029412Y-89028993D01*
X139980676Y-89038800D01*
X138123202Y-89038808D01*
X138122239Y-89038804D01*
X131467964Y-88988009D01*
X131467963Y-88988009D01*
X130603200Y-89699200D01*
X130603199Y-89699201D01*
X130632165Y-95405622D01*
X130615287Y-95469261D01*
X130519323Y-95635476D01*
X130519322Y-95635480D01*
X130460306Y-95817107D01*
X130440345Y-96007035D01*
X130460306Y-96196962D01*
X130519323Y-96378595D01*
X130577743Y-96479780D01*
X130594481Y-96548775D01*
X130577744Y-96605779D01*
X130536228Y-96677687D01*
X130477211Y-96859318D01*
X130457250Y-97049246D01*
X130477211Y-97239173D01*
X130507280Y-97331716D01*
X130536227Y-97420802D01*
X130536230Y-97420807D01*
X130626627Y-97577380D01*
X130643506Y-97639740D01*
X130653717Y-99651075D01*
X130634061Y-99719297D01*
X130612965Y-99744500D01*
X130027878Y-100282046D01*
X129964182Y-100313404D01*
X129943516Y-100315258D01*
X128052728Y-100328529D01*
X127984469Y-100309005D01*
X127937601Y-100255677D01*
X127932011Y-100241468D01*
X127931252Y-100239133D01*
X127909527Y-100172269D01*
X127814040Y-100006881D01*
X127814038Y-100006879D01*
X127814034Y-100006873D01*
X127686255Y-99864960D01*
X127531752Y-99752707D01*
X127357288Y-99675031D01*
X127170487Y-99635325D01*
X126979513Y-99635325D01*
X126792711Y-99675031D01*
X126618247Y-99752707D01*
X126463744Y-99864960D01*
X126335965Y-100006873D01*
X126335958Y-100006883D01*
X126240474Y-100172264D01*
X126213522Y-100255214D01*
X126173448Y-100313820D01*
X126108051Y-100341456D01*
X126094573Y-100342274D01*
X120720000Y-100379999D01*
X119120000Y-101709998D01*
X119120000Y-101710000D01*
X119140602Y-107042673D01*
X119120863Y-107110871D01*
X119067388Y-107157571D01*
X118997153Y-107167946D01*
X118988406Y-107166407D01*
X118813140Y-107129153D01*
X118622166Y-107129153D01*
X118435364Y-107168859D01*
X118260900Y-107246535D01*
X118106397Y-107358788D01*
X117978618Y-107500701D01*
X117978611Y-107500711D01*
X117894849Y-107645792D01*
X117883126Y-107666097D01*
X117864931Y-107722094D01*
X117824997Y-107844996D01*
X117784923Y-107903602D01*
X117719526Y-107931238D01*
X117649569Y-107919131D01*
X117597263Y-107871124D01*
X117581917Y-107832255D01*
X117580889Y-107827418D01*
X117569266Y-107791648D01*
X117521874Y-107645791D01*
X117426387Y-107480403D01*
X117426385Y-107480401D01*
X117426381Y-107480395D01*
X117298602Y-107338482D01*
X117144099Y-107226229D01*
X116969635Y-107148553D01*
X116782834Y-107108847D01*
X116591860Y-107108847D01*
X116405058Y-107148553D01*
X116230594Y-107226229D01*
X116076091Y-107338482D01*
X115948312Y-107480395D01*
X115948305Y-107480405D01*
X115868971Y-107617816D01*
X115852820Y-107645791D01*
X115846224Y-107666091D01*
X115793804Y-107827419D01*
X115773843Y-108017347D01*
X115793804Y-108207274D01*
X115811789Y-108262625D01*
X115852820Y-108388903D01*
X115852823Y-108388908D01*
X115948305Y-108554288D01*
X115948312Y-108554298D01*
X116076091Y-108696211D01*
X116076094Y-108696213D01*
X116230595Y-108808465D01*
X116405059Y-108886141D01*
X116591860Y-108925847D01*
X116782834Y-108925847D01*
X116969635Y-108886141D01*
X117144099Y-108808465D01*
X117298600Y-108696213D01*
X117408097Y-108574604D01*
X117426381Y-108554298D01*
X117426382Y-108554296D01*
X117426387Y-108554291D01*
X117521874Y-108388903D01*
X117580002Y-108210003D01*
X117620076Y-108151398D01*
X117685472Y-108123761D01*
X117755429Y-108135868D01*
X117807735Y-108183874D01*
X117823080Y-108222735D01*
X117824109Y-108227576D01*
X117838262Y-108271134D01*
X117883126Y-108409209D01*
X117883129Y-108409214D01*
X117978611Y-108574594D01*
X117978618Y-108574604D01*
X118106397Y-108716517D01*
X118106400Y-108716519D01*
X118260901Y-108828771D01*
X118435365Y-108906447D01*
X118622166Y-108946153D01*
X118813144Y-108946153D01*
X118996083Y-108907267D01*
X119066874Y-108912668D01*
X119123507Y-108955484D01*
X119148001Y-109022122D01*
X119148280Y-109030026D01*
X119173103Y-115455013D01*
X119153364Y-115523211D01*
X119099889Y-115569911D01*
X119047104Y-115581500D01*
X105150121Y-115581500D01*
X105027733Y-115605845D01*
X105027729Y-115605846D01*
X105005535Y-115615038D01*
X105005536Y-115615039D01*
X104912441Y-115653600D01*
X104808689Y-115722925D01*
X104808682Y-115722930D01*
X104499499Y-116032114D01*
X104437187Y-116066140D01*
X104410404Y-116069019D01*
X104354512Y-116069019D01*
X104167710Y-116108725D01*
X103993246Y-116186401D01*
X103838743Y-116298654D01*
X103710964Y-116440567D01*
X103710957Y-116440577D01*
X103615475Y-116605957D01*
X103615472Y-116605964D01*
X103556456Y-116787591D01*
X103536495Y-116977519D01*
X103556456Y-117167446D01*
X103582281Y-117246925D01*
X103615472Y-117349075D01*
X103615475Y-117349080D01*
X103710957Y-117514460D01*
X103710964Y-117514470D01*
X103838743Y-117656383D01*
X103838746Y-117656385D01*
X103993247Y-117768637D01*
X104167711Y-117846313D01*
X104354512Y-117886019D01*
X104545486Y-117886019D01*
X104732287Y-117846313D01*
X104906751Y-117768637D01*
X105061252Y-117656385D01*
X105189039Y-117514463D01*
X105189047Y-117514447D01*
X105189429Y-117513924D01*
X105189743Y-117513681D01*
X105193458Y-117509556D01*
X105194211Y-117510234D01*
X105245645Y-117470561D01*
X105316380Y-117464475D01*
X105379177Y-117497597D01*
X105385013Y-117503659D01*
X105488744Y-117618864D01*
X105540387Y-117656385D01*
X105643248Y-117731118D01*
X105817712Y-117808794D01*
X106004513Y-117848500D01*
X106195487Y-117848500D01*
X106382288Y-117808794D01*
X106556752Y-117731118D01*
X106711253Y-117618866D01*
X106805247Y-117514475D01*
X106839034Y-117476951D01*
X106839035Y-117476949D01*
X106839040Y-117476944D01*
X106934527Y-117311556D01*
X106993542Y-117129928D01*
X107011262Y-116961329D01*
X107038275Y-116895673D01*
X107096496Y-116855043D01*
X107136572Y-116848500D01*
X107542902Y-116848500D01*
X107611023Y-116868502D01*
X107657516Y-116922158D01*
X107668212Y-116961330D01*
X107686457Y-117134927D01*
X107697024Y-117167447D01*
X107745473Y-117316556D01*
X107745476Y-117316561D01*
X107840958Y-117481941D01*
X107840965Y-117481951D01*
X107968744Y-117623864D01*
X107968747Y-117623866D01*
X108123248Y-117736118D01*
X108297712Y-117813794D01*
X108484513Y-117853500D01*
X108641262Y-117853500D01*
X108709383Y-117873502D01*
X108755876Y-117927158D01*
X108765980Y-117997432D01*
X108736486Y-118062012D01*
X108715323Y-118081436D01*
X108598744Y-118166135D01*
X108470965Y-118308048D01*
X108470958Y-118308058D01*
X108375476Y-118473438D01*
X108375473Y-118473445D01*
X108339409Y-118584437D01*
X108299335Y-118643042D01*
X108233938Y-118670679D01*
X108219576Y-118671500D01*
X108184513Y-118671500D01*
X107997711Y-118711206D01*
X107823247Y-118788882D01*
X107668744Y-118901135D01*
X107540965Y-119043048D01*
X107540958Y-119043058D01*
X107445476Y-119208438D01*
X107445473Y-119208445D01*
X107386457Y-119390072D01*
X107366496Y-119580000D01*
X107386457Y-119769927D01*
X107409409Y-119840563D01*
X107445473Y-119951556D01*
X107445476Y-119951561D01*
X107540958Y-120116941D01*
X107540965Y-120116951D01*
X107668744Y-120258864D01*
X107668747Y-120258866D01*
X107823248Y-120371118D01*
X107997712Y-120448794D01*
X108184513Y-120488500D01*
X108375487Y-120488500D01*
X108562288Y-120448794D01*
X108736752Y-120371118D01*
X108891253Y-120258866D01*
X109019040Y-120116944D01*
X109114527Y-119951556D01*
X109150591Y-119840562D01*
X109190665Y-119781958D01*
X109256062Y-119754321D01*
X109270424Y-119753500D01*
X109305487Y-119753500D01*
X109492288Y-119713794D01*
X109666752Y-119636118D01*
X109821253Y-119523866D01*
X109821255Y-119523864D01*
X109949034Y-119381951D01*
X109949035Y-119381949D01*
X109949040Y-119381944D01*
X110044527Y-119216556D01*
X110103542Y-119034928D01*
X110123504Y-118845000D01*
X110103542Y-118655072D01*
X110044527Y-118473444D01*
X109949040Y-118308056D01*
X109949038Y-118308054D01*
X109949034Y-118308048D01*
X109821255Y-118166135D01*
X109666752Y-118053882D01*
X109492288Y-117976206D01*
X109305487Y-117936500D01*
X109148738Y-117936500D01*
X109080617Y-117916498D01*
X109034124Y-117862842D01*
X109024020Y-117792568D01*
X109053514Y-117727988D01*
X109074677Y-117708564D01*
X109109874Y-117682991D01*
X109191253Y-117623866D01*
X109289749Y-117514475D01*
X109319034Y-117481951D01*
X109319035Y-117481949D01*
X109319040Y-117481944D01*
X109414527Y-117316556D01*
X109473542Y-117134928D01*
X109491788Y-116961330D01*
X109518801Y-116895673D01*
X109577023Y-116855043D01*
X109617098Y-116848500D01*
X119052973Y-116848500D01*
X119121094Y-116868502D01*
X119167587Y-116922158D01*
X119178972Y-116974013D01*
X119179763Y-117178727D01*
X119160024Y-117246925D01*
X119131951Y-117278021D01*
X118064365Y-118122807D01*
X117998534Y-118149393D01*
X117986178Y-118150000D01*
X115549999Y-118150000D01*
X113670000Y-119399999D01*
X113669999Y-119400001D01*
X113651899Y-123002093D01*
X113631555Y-123070113D01*
X113605455Y-123099170D01*
X111487078Y-124823913D01*
X111421623Y-124851412D01*
X111405852Y-124852192D01*
X100095128Y-124702050D01*
X100027278Y-124681145D01*
X99981502Y-124626877D01*
X99970800Y-124576061D01*
X99970800Y-123120000D01*
X103002408Y-123120000D01*
X103022867Y-123242605D01*
X103060379Y-123311922D01*
X103082026Y-123351922D01*
X103173476Y-123436108D01*
X103287307Y-123486038D01*
X103411181Y-123496303D01*
X103531677Y-123465789D01*
X103635736Y-123397804D01*
X103712083Y-123299714D01*
X103752443Y-123182150D01*
X103755000Y-123120000D01*
X103753354Y-123080000D01*
X111302408Y-123080000D01*
X111322867Y-123202605D01*
X111375418Y-123299712D01*
X111382026Y-123311922D01*
X111473476Y-123396108D01*
X111587307Y-123446038D01*
X111711181Y-123456303D01*
X111831677Y-123425789D01*
X111935736Y-123357804D01*
X112012083Y-123259714D01*
X112052443Y-123142150D01*
X112055000Y-123080000D01*
X112052443Y-123017850D01*
X112012083Y-122900286D01*
X111935736Y-122802196D01*
X111935735Y-122802195D01*
X111935734Y-122802194D01*
X111935733Y-122802193D01*
X111846196Y-122743697D01*
X111831677Y-122734211D01*
X111831675Y-122734210D01*
X111831673Y-122734209D01*
X111711182Y-122703697D01*
X111711181Y-122703697D01*
X111587307Y-122713962D01*
X111587304Y-122713962D01*
X111587304Y-122713963D01*
X111473475Y-122763892D01*
X111473474Y-122763893D01*
X111382025Y-122848078D01*
X111322867Y-122957394D01*
X111302408Y-123080000D01*
X103753354Y-123080000D01*
X103752443Y-123057850D01*
X103712083Y-122940286D01*
X103635736Y-122842196D01*
X103635735Y-122842195D01*
X103635734Y-122842194D01*
X103635733Y-122842193D01*
X103557691Y-122791207D01*
X103531677Y-122774211D01*
X103531675Y-122774210D01*
X103531673Y-122774209D01*
X103411182Y-122743697D01*
X103411181Y-122743697D01*
X103287307Y-122753962D01*
X103287304Y-122753962D01*
X103287304Y-122753963D01*
X103173475Y-122803892D01*
X103173474Y-122803893D01*
X103082025Y-122888078D01*
X103022867Y-122997394D01*
X103002408Y-123120000D01*
X99970800Y-123120000D01*
X99970800Y-121320000D01*
X103002408Y-121320000D01*
X103022867Y-121442605D01*
X103060379Y-121511922D01*
X103082026Y-121551922D01*
X103173476Y-121636108D01*
X103287307Y-121686038D01*
X103411181Y-121696303D01*
X103531677Y-121665789D01*
X103635736Y-121597804D01*
X103712083Y-121499714D01*
X103752443Y-121382150D01*
X103755000Y-121320000D01*
X103752443Y-121257850D01*
X103712083Y-121140286D01*
X103635736Y-121042196D01*
X103635735Y-121042195D01*
X103635734Y-121042194D01*
X103635733Y-121042193D01*
X103557691Y-120991207D01*
X103531677Y-120974211D01*
X103531675Y-120974210D01*
X103531673Y-120974209D01*
X103411182Y-120943697D01*
X103411181Y-120943697D01*
X103287307Y-120953962D01*
X103287304Y-120953962D01*
X103287304Y-120953963D01*
X103173475Y-121003892D01*
X103173474Y-121003893D01*
X103082025Y-121088078D01*
X103022867Y-121197394D01*
X103002408Y-121320000D01*
X99970800Y-121320000D01*
X99970800Y-120440000D01*
X104936496Y-120440000D01*
X104956457Y-120629927D01*
X104983006Y-120711634D01*
X105015473Y-120811556D01*
X105015476Y-120811561D01*
X105110958Y-120976941D01*
X105110965Y-120976951D01*
X105238744Y-121118864D01*
X105238747Y-121118866D01*
X105393248Y-121231118D01*
X105567712Y-121308794D01*
X105754513Y-121348500D01*
X105945487Y-121348500D01*
X106132288Y-121308794D01*
X106196961Y-121280000D01*
X111302408Y-121280000D01*
X111322867Y-121402605D01*
X111375418Y-121499712D01*
X111382026Y-121511922D01*
X111473476Y-121596108D01*
X111587307Y-121646038D01*
X111711181Y-121656303D01*
X111831677Y-121625789D01*
X111935736Y-121557804D01*
X112012083Y-121459714D01*
X112052443Y-121342150D01*
X112055000Y-121280000D01*
X112052443Y-121217850D01*
X112012083Y-121100286D01*
X111935736Y-121002196D01*
X111935735Y-121002195D01*
X111935734Y-121002194D01*
X111935733Y-121002193D01*
X111846196Y-120943697D01*
X111831677Y-120934211D01*
X111831675Y-120934210D01*
X111831673Y-120934209D01*
X111711182Y-120903697D01*
X111711181Y-120903697D01*
X111587307Y-120913962D01*
X111587304Y-120913962D01*
X111587304Y-120913963D01*
X111473475Y-120963892D01*
X111473474Y-120963893D01*
X111382025Y-121048078D01*
X111322867Y-121157394D01*
X111302408Y-121280000D01*
X106196961Y-121280000D01*
X106306752Y-121231118D01*
X106461253Y-121118866D01*
X106461255Y-121118864D01*
X106589034Y-120976951D01*
X106589035Y-120976949D01*
X106589040Y-120976944D01*
X106684527Y-120811556D01*
X106743542Y-120629928D01*
X106763504Y-120440000D01*
X106743542Y-120250072D01*
X106684527Y-120068444D01*
X106589040Y-119903056D01*
X106589038Y-119903054D01*
X106589034Y-119903048D01*
X106461255Y-119761135D01*
X106306752Y-119648882D01*
X106132288Y-119571206D01*
X105945487Y-119531500D01*
X105754513Y-119531500D01*
X105567711Y-119571206D01*
X105393247Y-119648882D01*
X105238744Y-119761135D01*
X105110965Y-119903048D01*
X105110958Y-119903058D01*
X105015476Y-120068438D01*
X105015473Y-120068445D01*
X104956457Y-120250072D01*
X104936496Y-120440000D01*
X99970800Y-120440000D01*
X99970800Y-119468000D01*
X99970799Y-119467998D01*
X99008493Y-118270462D01*
X101358534Y-118270462D01*
X101378495Y-118460389D01*
X101408564Y-118552932D01*
X101437511Y-118642018D01*
X101465879Y-118691153D01*
X101532996Y-118807403D01*
X101533003Y-118807413D01*
X101660782Y-118949326D01*
X101660785Y-118949328D01*
X101815286Y-119061580D01*
X101989750Y-119139256D01*
X102176551Y-119178962D01*
X102367525Y-119178962D01*
X102554326Y-119139256D01*
X102728790Y-119061580D01*
X102883291Y-118949328D01*
X102974077Y-118848500D01*
X103011072Y-118807413D01*
X103011073Y-118807411D01*
X103011078Y-118807406D01*
X103106565Y-118642018D01*
X103165580Y-118460390D01*
X103185542Y-118270462D01*
X103165580Y-118080534D01*
X103106565Y-117898906D01*
X103011078Y-117733518D01*
X103011076Y-117733516D01*
X103011072Y-117733510D01*
X102883293Y-117591597D01*
X102728790Y-117479344D01*
X102554326Y-117401668D01*
X102367525Y-117361962D01*
X102176551Y-117361962D01*
X101989749Y-117401668D01*
X101815285Y-117479344D01*
X101660782Y-117591597D01*
X101533003Y-117733510D01*
X101532996Y-117733520D01*
X101437514Y-117898900D01*
X101437511Y-117898907D01*
X101378495Y-118080534D01*
X101358534Y-118270462D01*
X99008493Y-118270462D01*
X97712892Y-116658159D01*
X97685813Y-116592529D01*
X97685113Y-116578363D01*
X97715102Y-112290000D01*
X113006496Y-112290000D01*
X113026457Y-112479927D01*
X113038991Y-112518500D01*
X113085473Y-112661556D01*
X113085476Y-112661561D01*
X113180958Y-112826941D01*
X113180965Y-112826951D01*
X113308744Y-112968864D01*
X113308747Y-112968866D01*
X113463248Y-113081118D01*
X113637712Y-113158794D01*
X113824513Y-113198500D01*
X113824989Y-113198500D01*
X113825257Y-113198578D01*
X113831075Y-113199190D01*
X113830963Y-113200254D01*
X113893110Y-113218502D01*
X113939603Y-113272158D01*
X113950298Y-113311326D01*
X113956458Y-113369928D01*
X114015473Y-113551556D01*
X114015476Y-113551561D01*
X114110958Y-113716941D01*
X114110965Y-113716951D01*
X114238744Y-113858864D01*
X114257653Y-113872602D01*
X114393248Y-113971118D01*
X114567712Y-114048794D01*
X114754513Y-114088500D01*
X114945487Y-114088500D01*
X115132288Y-114048794D01*
X115306752Y-113971118D01*
X115409509Y-113896459D01*
X115476376Y-113872602D01*
X115534819Y-113883289D01*
X115535900Y-113883770D01*
X115535901Y-113883771D01*
X115710365Y-113961447D01*
X115897166Y-114001153D01*
X116088140Y-114001153D01*
X116274941Y-113961447D01*
X116449405Y-113883771D01*
X116464679Y-113872672D01*
X116531544Y-113848813D01*
X116600696Y-113864891D01*
X116612802Y-113872670D01*
X116693248Y-113931118D01*
X116867712Y-114008794D01*
X117054513Y-114048500D01*
X117245487Y-114048500D01*
X117432288Y-114008794D01*
X117606752Y-113931118D01*
X117761253Y-113818866D01*
X117889040Y-113676944D01*
X117984527Y-113511556D01*
X118043542Y-113329928D01*
X118063504Y-113140000D01*
X118043542Y-112950072D01*
X117984527Y-112768444D01*
X117889040Y-112603056D01*
X117889038Y-112603054D01*
X117889034Y-112603048D01*
X117761255Y-112461135D01*
X117606752Y-112348882D01*
X117432288Y-112271206D01*
X117245487Y-112231500D01*
X117054513Y-112231500D01*
X116867711Y-112271206D01*
X116693248Y-112348882D01*
X116677967Y-112359984D01*
X116611098Y-112383840D01*
X116541947Y-112367757D01*
X116529854Y-112359984D01*
X116449405Y-112301535D01*
X116274941Y-112223859D01*
X116088140Y-112184153D01*
X115897166Y-112184153D01*
X115710364Y-112223859D01*
X115535901Y-112301535D01*
X115433142Y-112376193D01*
X115366274Y-112400051D01*
X115307834Y-112389363D01*
X115132290Y-112311206D01*
X114945487Y-112271500D01*
X114945011Y-112271500D01*
X114944742Y-112271421D01*
X114938925Y-112270810D01*
X114939036Y-112269745D01*
X114876890Y-112251498D01*
X114830397Y-112197842D01*
X114819701Y-112158672D01*
X114818468Y-112146944D01*
X114813542Y-112100072D01*
X114754527Y-111918444D01*
X114659040Y-111753056D01*
X114659038Y-111753054D01*
X114659034Y-111753048D01*
X114531255Y-111611135D01*
X114376752Y-111498882D01*
X114202288Y-111421206D01*
X114015487Y-111381500D01*
X113824513Y-111381500D01*
X113637711Y-111421206D01*
X113463247Y-111498882D01*
X113308744Y-111611135D01*
X113180965Y-111753048D01*
X113180958Y-111753058D01*
X113085476Y-111918438D01*
X113085473Y-111918445D01*
X113026457Y-112100072D01*
X113006496Y-112290000D01*
X97715102Y-112290000D01*
X97732827Y-109755305D01*
X109091801Y-109755305D01*
X109111762Y-109945232D01*
X109129148Y-109998738D01*
X109170778Y-110126861D01*
X109170781Y-110126866D01*
X109266263Y-110292246D01*
X109266270Y-110292256D01*
X109394049Y-110434169D01*
X109455304Y-110478673D01*
X109548553Y-110546423D01*
X109723017Y-110624099D01*
X109909818Y-110663805D01*
X110100792Y-110663805D01*
X110287593Y-110624099D01*
X110462057Y-110546423D01*
X110584055Y-110457785D01*
X110650919Y-110433929D01*
X110720071Y-110450009D01*
X110769551Y-110500922D01*
X110777946Y-110520786D01*
X110834668Y-110695356D01*
X110834671Y-110695361D01*
X110930153Y-110860741D01*
X110930160Y-110860751D01*
X111057939Y-111002664D01*
X111057942Y-111002666D01*
X111212443Y-111114918D01*
X111386907Y-111192594D01*
X111573708Y-111232300D01*
X111764682Y-111232300D01*
X111951483Y-111192594D01*
X112125947Y-111114918D01*
X112280448Y-111002666D01*
X112408235Y-110860744D01*
X112503722Y-110695356D01*
X112562737Y-110513728D01*
X112582699Y-110323800D01*
X112562737Y-110133872D01*
X112503722Y-109952244D01*
X112408235Y-109786856D01*
X112408233Y-109786854D01*
X112408229Y-109786848D01*
X112280450Y-109644935D01*
X112125947Y-109532682D01*
X111951483Y-109455006D01*
X111764682Y-109415300D01*
X111573708Y-109415300D01*
X111386906Y-109455006D01*
X111212442Y-109532682D01*
X111090447Y-109621317D01*
X111023579Y-109645176D01*
X110954427Y-109629095D01*
X110904947Y-109578181D01*
X110896553Y-109558317D01*
X110839833Y-109383752D01*
X110839832Y-109383750D01*
X110839832Y-109383749D01*
X110744345Y-109218361D01*
X110744343Y-109218359D01*
X110744339Y-109218353D01*
X110616560Y-109076440D01*
X110462057Y-108964187D01*
X110287593Y-108886511D01*
X110100792Y-108846805D01*
X109909818Y-108846805D01*
X109723016Y-108886511D01*
X109548552Y-108964187D01*
X109394049Y-109076440D01*
X109266270Y-109218353D01*
X109266263Y-109218363D01*
X109234430Y-109273500D01*
X109170778Y-109383749D01*
X109160526Y-109415300D01*
X109111762Y-109565377D01*
X109091801Y-109755305D01*
X97732827Y-109755305D01*
X97776471Y-103514126D01*
X97796949Y-103446150D01*
X97850928Y-103400033D01*
X97876268Y-103391764D01*
X97937288Y-103378794D01*
X98111752Y-103301118D01*
X98266253Y-103188866D01*
X98394040Y-103046944D01*
X98489527Y-102881556D01*
X98548542Y-102699928D01*
X98568504Y-102510000D01*
X98548542Y-102320072D01*
X98489527Y-102138444D01*
X98395166Y-101975007D01*
X98378429Y-101906014D01*
X98395165Y-101849014D01*
X98474527Y-101711556D01*
X98533542Y-101529928D01*
X98553504Y-101340000D01*
X98533542Y-101150072D01*
X98507017Y-101068437D01*
X98504989Y-100997469D01*
X98541652Y-100936671D01*
X98605364Y-100905345D01*
X98626850Y-100903500D01*
X103909010Y-100903500D01*
X103977131Y-100923502D01*
X103998105Y-100940405D01*
X104867119Y-101809419D01*
X104901145Y-101871731D01*
X104903334Y-101885343D01*
X104920699Y-102050565D01*
X104949254Y-102138445D01*
X104979715Y-102232194D01*
X104979718Y-102232199D01*
X105075200Y-102397579D01*
X105075207Y-102397589D01*
X105202986Y-102539502D01*
X105202989Y-102539504D01*
X105357490Y-102651756D01*
X105531954Y-102729432D01*
X105718755Y-102769138D01*
X105909729Y-102769138D01*
X106096530Y-102729432D01*
X106270994Y-102651756D01*
X106425495Y-102539504D01*
X106425497Y-102539502D01*
X106553276Y-102397589D01*
X106553277Y-102397587D01*
X106553282Y-102397582D01*
X106648769Y-102232194D01*
X106707784Y-102050566D01*
X106727746Y-101860638D01*
X106707784Y-101670710D01*
X106648769Y-101489082D01*
X106648762Y-101489071D01*
X106646082Y-101483048D01*
X106647647Y-101482350D01*
X106632914Y-101421613D01*
X106656136Y-101354522D01*
X106711944Y-101310636D01*
X106782619Y-101303888D01*
X106784943Y-101304359D01*
X106798980Y-101307343D01*
X106834510Y-101314896D01*
X106834513Y-101314896D01*
X107025490Y-101314896D01*
X107077275Y-101303888D01*
X107095613Y-101299990D01*
X107166403Y-101305391D01*
X107223036Y-101348207D01*
X107241644Y-101384299D01*
X107285473Y-101519189D01*
X107285476Y-101519194D01*
X107380958Y-101684574D01*
X107380965Y-101684584D01*
X107508744Y-101826497D01*
X107539728Y-101849008D01*
X107663248Y-101938751D01*
X107837712Y-102016427D01*
X108024513Y-102056133D01*
X108215487Y-102056133D01*
X108402288Y-102016427D01*
X108576752Y-101938751D01*
X108731253Y-101826499D01*
X108813704Y-101734928D01*
X108859034Y-101684584D01*
X108859035Y-101684582D01*
X108859040Y-101684577D01*
X108954527Y-101519189D01*
X109013542Y-101337561D01*
X109033504Y-101147633D01*
X109013542Y-100957705D01*
X108954527Y-100776077D01*
X108859040Y-100610689D01*
X108859038Y-100610687D01*
X108859034Y-100610681D01*
X108731255Y-100468768D01*
X108576752Y-100356515D01*
X108402288Y-100278839D01*
X108215487Y-100239133D01*
X108024513Y-100239133D01*
X107954385Y-100254039D01*
X107883594Y-100248637D01*
X107826961Y-100205820D01*
X107808355Y-100169728D01*
X107764528Y-100034843D01*
X107764527Y-100034841D01*
X107764527Y-100034840D01*
X107669040Y-99869452D01*
X107669038Y-99869450D01*
X107669034Y-99869444D01*
X107541255Y-99727531D01*
X107386752Y-99615278D01*
X107212288Y-99537602D01*
X107025487Y-99497896D01*
X106834513Y-99497896D01*
X106647711Y-99537602D01*
X106473247Y-99615278D01*
X106318744Y-99727531D01*
X106190965Y-99869444D01*
X106190958Y-99869454D01*
X106095476Y-100034834D01*
X106095473Y-100034841D01*
X106036457Y-100216468D01*
X106016496Y-100406396D01*
X106036457Y-100596323D01*
X106041126Y-100610691D01*
X106095473Y-100777952D01*
X106095476Y-100777958D01*
X106098160Y-100783986D01*
X106096595Y-100784682D01*
X106111327Y-100845429D01*
X106088100Y-100912519D01*
X106032289Y-100956401D01*
X105961613Y-100963143D01*
X105959273Y-100962669D01*
X105935919Y-100957705D01*
X105909729Y-100952138D01*
X105853836Y-100952138D01*
X105785715Y-100932136D01*
X105764741Y-100915233D01*
X104627439Y-99777931D01*
X104627437Y-99777929D01*
X104523679Y-99708600D01*
X104408389Y-99660845D01*
X104334690Y-99646185D01*
X104286000Y-99636500D01*
X104285998Y-99636500D01*
X100890932Y-99636500D01*
X100822811Y-99616498D01*
X100776318Y-99562842D01*
X100766214Y-99492568D01*
X100781813Y-99447500D01*
X100782134Y-99446944D01*
X100854527Y-99321556D01*
X100913542Y-99139928D01*
X100933504Y-98950000D01*
X100913542Y-98760072D01*
X100854527Y-98578444D01*
X100759040Y-98413056D01*
X100759038Y-98413054D01*
X100759034Y-98413048D01*
X100631255Y-98271135D01*
X100476752Y-98158882D01*
X100411882Y-98130000D01*
X102286496Y-98130000D01*
X102306457Y-98319927D01*
X102323720Y-98373056D01*
X102365473Y-98501556D01*
X102365476Y-98501561D01*
X102460958Y-98666941D01*
X102460965Y-98666951D01*
X102588744Y-98808864D01*
X102649999Y-98853368D01*
X102743248Y-98921118D01*
X102917712Y-98998794D01*
X103104513Y-99038500D01*
X103295487Y-99038500D01*
X103482288Y-98998794D01*
X103656752Y-98921118D01*
X103811253Y-98808866D01*
X103811255Y-98808864D01*
X103939034Y-98666951D01*
X103939035Y-98666949D01*
X103939040Y-98666944D01*
X104034527Y-98501556D01*
X104093542Y-98319928D01*
X104113504Y-98130000D01*
X104093542Y-97940072D01*
X104034527Y-97758444D01*
X103939040Y-97593056D01*
X103939038Y-97593054D01*
X103939034Y-97593048D01*
X103811255Y-97451135D01*
X103656752Y-97338882D01*
X103482288Y-97261206D01*
X103295487Y-97221500D01*
X103104513Y-97221500D01*
X102917711Y-97261206D01*
X102743247Y-97338882D01*
X102588744Y-97451135D01*
X102460965Y-97593048D01*
X102460958Y-97593058D01*
X102365476Y-97758438D01*
X102365473Y-97758445D01*
X102306457Y-97940072D01*
X102286496Y-98130000D01*
X100411882Y-98130000D01*
X100302288Y-98081206D01*
X100115487Y-98041500D01*
X99924513Y-98041500D01*
X99737711Y-98081206D01*
X99563246Y-98158883D01*
X99563243Y-98158884D01*
X99433138Y-98253411D01*
X99366271Y-98277270D01*
X99297119Y-98261189D01*
X99265442Y-98235786D01*
X99261253Y-98231134D01*
X99106752Y-98118882D01*
X98932288Y-98041206D01*
X98745487Y-98001500D01*
X98554513Y-98001500D01*
X98367711Y-98041206D01*
X98193247Y-98118882D01*
X98038745Y-98231134D01*
X98033602Y-98236847D01*
X97973155Y-98274085D01*
X97902171Y-98272731D01*
X97843188Y-98233216D01*
X97814931Y-98168085D01*
X97813971Y-98151663D01*
X97836887Y-94874704D01*
X97857365Y-94806727D01*
X97865615Y-94795495D01*
X98510970Y-94011850D01*
X98569713Y-93971983D01*
X98607278Y-93965955D01*
X109602858Y-93882865D01*
X109671125Y-93902350D01*
X109697442Y-93924548D01*
X109806947Y-94046166D01*
X109961448Y-94158418D01*
X110135912Y-94236094D01*
X110322713Y-94275800D01*
X110513687Y-94275800D01*
X110700488Y-94236094D01*
X110874952Y-94158418D01*
X111029453Y-94046166D01*
X111150116Y-93912155D01*
X111210560Y-93874917D01*
X111242787Y-93870472D01*
X113323206Y-93854751D01*
X113391471Y-93874236D01*
X113433272Y-93917745D01*
X113461107Y-93965955D01*
X113530960Y-94086944D01*
X113530962Y-94086947D01*
X113530965Y-94086951D01*
X113658744Y-94228864D01*
X113658747Y-94228866D01*
X113754703Y-94298582D01*
X113798056Y-94354803D01*
X113804131Y-94425539D01*
X113771000Y-94488331D01*
X113709180Y-94523242D01*
X113680226Y-94526516D01*
X113280401Y-94525199D01*
X112416800Y-95439599D01*
X112416800Y-95439600D01*
X112467600Y-98132000D01*
X113001000Y-98360600D01*
X113534399Y-98589200D01*
X117635308Y-98589200D01*
X117703429Y-98609202D01*
X117749922Y-98662858D01*
X117755140Y-98676262D01*
X117810473Y-98846556D01*
X117810476Y-98846561D01*
X117905958Y-99011941D01*
X117905965Y-99011951D01*
X118033744Y-99153864D01*
X118033747Y-99153866D01*
X118188248Y-99266118D01*
X118362712Y-99343794D01*
X118549513Y-99383500D01*
X118740487Y-99383500D01*
X118927288Y-99343794D01*
X119101752Y-99266118D01*
X119256253Y-99153866D01*
X119384040Y-99011944D01*
X119479527Y-98846556D01*
X119534859Y-98676262D01*
X119574933Y-98617658D01*
X119640330Y-98590021D01*
X119654692Y-98589200D01*
X129282400Y-98589200D01*
X129433881Y-88086487D01*
X129454863Y-88018664D01*
X129486628Y-87985779D01*
X130113819Y-87537786D01*
X130180875Y-87514469D01*
X130185521Y-87514326D01*
X138628848Y-87413208D01*
X138630357Y-87413200D01*
X140023601Y-87413200D01*
X140091722Y-87433202D01*
G37*
%TD.AperFunction*%
%TA.AperFunction,Conductor*%
G36*
X103090707Y-83411338D02*
G01*
X103158805Y-83431412D01*
X103205242Y-83485116D01*
X103215883Y-83524168D01*
X103236457Y-83719927D01*
X103256343Y-83781127D01*
X103295473Y-83901556D01*
X103295476Y-83901561D01*
X103371558Y-84033339D01*
X103388296Y-84102334D01*
X103371558Y-84159339D01*
X103285476Y-84308438D01*
X103285473Y-84308445D01*
X103226457Y-84490072D01*
X103206496Y-84680000D01*
X103226457Y-84869927D01*
X103256526Y-84962470D01*
X103285473Y-85051556D01*
X103285476Y-85051561D01*
X103380958Y-85216941D01*
X103380965Y-85216951D01*
X103508744Y-85358864D01*
X103550038Y-85388866D01*
X103663248Y-85471118D01*
X103837712Y-85548794D01*
X104024513Y-85588500D01*
X104215487Y-85588500D01*
X104402288Y-85548794D01*
X104576752Y-85471118D01*
X104731253Y-85358866D01*
X104767271Y-85318864D01*
X104859034Y-85216951D01*
X104859035Y-85216949D01*
X104859040Y-85216944D01*
X104954527Y-85051556D01*
X104995293Y-84926089D01*
X105035367Y-84867486D01*
X105100763Y-84839849D01*
X105170720Y-84851956D01*
X105223026Y-84899962D01*
X105234958Y-84926090D01*
X105285473Y-85081556D01*
X105285476Y-85081561D01*
X105380958Y-85246941D01*
X105380965Y-85246951D01*
X105508744Y-85388864D01*
X105508747Y-85388866D01*
X105663248Y-85501118D01*
X105837712Y-85578794D01*
X106024513Y-85618500D01*
X106215487Y-85618500D01*
X106402288Y-85578794D01*
X106576752Y-85501118D01*
X106731253Y-85388866D01*
X106794283Y-85318864D01*
X106859034Y-85246951D01*
X106859035Y-85246949D01*
X106859040Y-85246944D01*
X106954527Y-85081556D01*
X107006539Y-84921479D01*
X107046613Y-84862874D01*
X107112009Y-84835237D01*
X107181966Y-84847344D01*
X107234272Y-84895350D01*
X107246204Y-84921478D01*
X107275473Y-85011556D01*
X107275476Y-85011561D01*
X107370958Y-85176941D01*
X107370965Y-85176951D01*
X107498744Y-85318864D01*
X107498747Y-85318866D01*
X107653248Y-85431118D01*
X107827712Y-85508794D01*
X108014513Y-85548500D01*
X108205487Y-85548500D01*
X108392288Y-85508794D01*
X108566752Y-85431118D01*
X108721253Y-85318866D01*
X108764166Y-85271206D01*
X108849034Y-85176951D01*
X108849035Y-85176949D01*
X108849040Y-85176944D01*
X108944527Y-85011556D01*
X109003542Y-84829928D01*
X109023504Y-84640000D01*
X109003542Y-84450072D01*
X108944527Y-84268444D01*
X108882874Y-84161659D01*
X108866137Y-84092665D01*
X108882875Y-84035660D01*
X108884215Y-84033339D01*
X108954527Y-83911556D01*
X109013542Y-83729928D01*
X109033504Y-83540000D01*
X109033503Y-83539999D01*
X109034194Y-83533433D01*
X109036453Y-83533670D01*
X109053506Y-83475594D01*
X109107162Y-83429101D01*
X109159631Y-83417715D01*
X120799521Y-83429946D01*
X120867618Y-83450020D01*
X120886476Y-83464889D01*
X121183138Y-83748651D01*
X121777006Y-84316695D01*
X121812407Y-84378236D01*
X121815912Y-84407672D01*
X121821561Y-93738036D01*
X121801600Y-93806169D01*
X121770499Y-93839405D01*
X120843580Y-94525156D01*
X120776921Y-94549591D01*
X120768227Y-94549862D01*
X114853624Y-94530381D01*
X114785570Y-94510155D01*
X114739254Y-94456347D01*
X114729381Y-94386040D01*
X114759087Y-94321556D01*
X114779979Y-94302446D01*
X114881252Y-94228867D01*
X114881255Y-94228864D01*
X115009034Y-94086951D01*
X115009035Y-94086949D01*
X115009040Y-94086944D01*
X115104527Y-93921556D01*
X115104528Y-93921551D01*
X115107214Y-93915521D01*
X115110004Y-93916763D01*
X115142389Y-93869099D01*
X115207702Y-93841267D01*
X115221470Y-93840407D01*
X118716000Y-93814000D01*
X119630400Y-93255200D01*
X119630400Y-88886400D01*
X118527813Y-88278076D01*
X118499589Y-88256851D01*
X118426419Y-88183681D01*
X118426418Y-88183680D01*
X118426416Y-88183678D01*
X118280933Y-88092265D01*
X118280930Y-88092264D01*
X118216223Y-88069622D01*
X118118746Y-88035513D01*
X118118744Y-88035512D01*
X118118746Y-88035512D01*
X117948000Y-88016275D01*
X117777257Y-88035512D01*
X117683127Y-88068449D01*
X117641982Y-88075518D01*
X116140314Y-88081111D01*
X116072120Y-88061363D01*
X116046209Y-88039422D01*
X115922055Y-87901535D01*
X115767552Y-87789282D01*
X115593088Y-87711606D01*
X115406287Y-87671900D01*
X115215313Y-87671900D01*
X115028511Y-87711606D01*
X114854047Y-87789282D01*
X114699544Y-87901535D01*
X114569812Y-88045618D01*
X114509366Y-88082858D01*
X114476645Y-88087307D01*
X114011448Y-88089040D01*
X113943254Y-88069292D01*
X113917346Y-88047354D01*
X113795053Y-87911534D01*
X113781289Y-87901534D01*
X113640552Y-87799282D01*
X113466088Y-87721606D01*
X113279287Y-87681900D01*
X113088313Y-87681900D01*
X112901511Y-87721606D01*
X112727047Y-87799282D01*
X112572546Y-87911534D01*
X112444690Y-88053533D01*
X112384244Y-88090772D01*
X112351523Y-88095221D01*
X107808198Y-88112142D01*
X107740695Y-88092831D01*
X107698732Y-88066465D01*
X107698729Y-88066463D01*
X107598291Y-88031318D01*
X107536546Y-88009713D01*
X107536544Y-88009712D01*
X107536546Y-88009712D01*
X107365800Y-87990475D01*
X107195055Y-88009712D01*
X107032872Y-88066463D01*
X107032870Y-88066463D01*
X107032870Y-88066464D01*
X107031045Y-88067611D01*
X106985633Y-88096144D01*
X106919068Y-88115454D01*
X105296009Y-88121499D01*
X105227815Y-88101751D01*
X105186421Y-88058501D01*
X105162840Y-88017656D01*
X105162838Y-88017654D01*
X105162836Y-88017650D01*
X105035055Y-87875735D01*
X104880552Y-87763482D01*
X104706088Y-87685806D01*
X104519287Y-87646100D01*
X104328313Y-87646100D01*
X104141511Y-87685806D01*
X103967047Y-87763482D01*
X103812544Y-87875735D01*
X103684765Y-88017648D01*
X103684756Y-88017662D01*
X103657418Y-88065010D01*
X103606034Y-88114002D01*
X103548770Y-88128006D01*
X103201797Y-88129298D01*
X103133602Y-88109550D01*
X103095198Y-88069423D01*
X103094925Y-88069622D01*
X103093463Y-88067611D01*
X103092210Y-88066301D01*
X103091041Y-88064277D01*
X103091039Y-88064275D01*
X103091034Y-88064270D01*
X103065141Y-88035512D01*
X102963255Y-87922355D01*
X102808752Y-87810102D01*
X102634288Y-87732426D01*
X102447487Y-87692720D01*
X102256513Y-87692720D01*
X102069711Y-87732426D01*
X101895247Y-87810102D01*
X101740744Y-87922355D01*
X101612965Y-88064268D01*
X101612956Y-88064281D01*
X101608126Y-88072647D01*
X101556741Y-88121637D01*
X101499480Y-88135639D01*
X96731978Y-88153395D01*
X96664473Y-88134083D01*
X96632933Y-88114265D01*
X96632930Y-88114264D01*
X96596467Y-88101505D01*
X96470746Y-88057513D01*
X96470744Y-88057512D01*
X96470746Y-88057512D01*
X96300000Y-88038275D01*
X96129255Y-88057512D01*
X95967070Y-88114263D01*
X95967069Y-88114264D01*
X95930376Y-88137319D01*
X95863812Y-88156629D01*
X94178798Y-88162904D01*
X94110603Y-88143156D01*
X94069211Y-88099906D01*
X94048640Y-88064276D01*
X94048638Y-88064274D01*
X94048636Y-88064270D01*
X93920855Y-87922355D01*
X93766352Y-87810102D01*
X93591888Y-87732426D01*
X93405087Y-87692720D01*
X93214113Y-87692720D01*
X93027311Y-87732426D01*
X92852847Y-87810102D01*
X92698344Y-87922355D01*
X92570565Y-88064268D01*
X92570561Y-88064274D01*
X92570560Y-88064276D01*
X92561318Y-88080282D01*
X92546243Y-88106393D01*
X92494859Y-88155385D01*
X92437594Y-88169389D01*
X91002249Y-88174735D01*
X90934055Y-88154987D01*
X90887362Y-88101505D01*
X90875793Y-88050565D01*
X90827652Y-84728834D01*
X90846665Y-84660433D01*
X90871364Y-84631582D01*
X92264487Y-83430614D01*
X92329141Y-83401286D01*
X92346884Y-83400049D01*
X103090707Y-83411338D01*
G37*
%TD.AperFunction*%
%TD*%
M02*
