%TF.GenerationSoftware,KiCad,Pcbnew,8.0.4-8.0.4-0~ubuntu22.04.1*%
%TF.CreationDate,2024-08-14T23:11:35+09:00*%
%TF.ProjectId,motor_driver,6d6f746f-725f-4647-9269-7665722e6b69,rev?*%
%TF.SameCoordinates,Original*%
%TF.FileFunction,Paste,Top*%
%TF.FilePolarity,Positive*%
%FSLAX46Y46*%
G04 Gerber Fmt 4.6, Leading zero omitted, Abs format (unit mm)*
G04 Created by KiCad (PCBNEW 8.0.4-8.0.4-0~ubuntu22.04.1) date 2024-08-14 23:11:35*
%MOMM*%
%LPD*%
G01*
G04 APERTURE LIST*
G04 Aperture macros list*
%AMRoundRect*
0 Rectangle with rounded corners*
0 $1 Rounding radius*
0 $2 $3 $4 $5 $6 $7 $8 $9 X,Y pos of 4 corners*
0 Add a 4 corners polygon primitive as box body*
4,1,4,$2,$3,$4,$5,$6,$7,$8,$9,$2,$3,0*
0 Add four circle primitives for the rounded corners*
1,1,$1+$1,$2,$3*
1,1,$1+$1,$4,$5*
1,1,$1+$1,$6,$7*
1,1,$1+$1,$8,$9*
0 Add four rect primitives between the rounded corners*
20,1,$1+$1,$2,$3,$4,$5,0*
20,1,$1+$1,$4,$5,$6,$7,0*
20,1,$1+$1,$6,$7,$8,$9,0*
20,1,$1+$1,$8,$9,$2,$3,0*%
G04 Aperture macros list end*
%ADD10RoundRect,0.218750X0.256250X-0.218750X0.256250X0.218750X-0.256250X0.218750X-0.256250X-0.218750X0*%
%ADD11R,0.800000X2.900000*%
%ADD12R,1.800000X3.800000*%
%ADD13RoundRect,0.237500X-0.300000X-0.237500X0.300000X-0.237500X0.300000X0.237500X-0.300000X0.237500X0*%
%ADD14RoundRect,0.249999X-0.450001X-1.075001X0.450001X-1.075001X0.450001X1.075001X-0.450001X1.075001X0*%
%ADD15RoundRect,0.075000X-0.662500X-0.075000X0.662500X-0.075000X0.662500X0.075000X-0.662500X0.075000X0*%
%ADD16RoundRect,0.075000X-0.075000X-0.662500X0.075000X-0.662500X0.075000X0.662500X-0.075000X0.662500X0*%
%ADD17RoundRect,0.155000X0.212500X0.155000X-0.212500X0.155000X-0.212500X-0.155000X0.212500X-0.155000X0*%
%ADD18RoundRect,0.155000X-0.212500X-0.155000X0.212500X-0.155000X0.212500X0.155000X-0.212500X0.155000X0*%
%ADD19RoundRect,0.225000X-0.250000X0.225000X-0.250000X-0.225000X0.250000X-0.225000X0.250000X0.225000X0*%
%ADD20RoundRect,0.160000X0.197500X0.160000X-0.197500X0.160000X-0.197500X-0.160000X0.197500X-0.160000X0*%
%ADD21RoundRect,0.237500X-0.250000X-0.237500X0.250000X-0.237500X0.250000X0.237500X-0.250000X0.237500X0*%
%ADD22RoundRect,0.237500X0.237500X-0.250000X0.237500X0.250000X-0.237500X0.250000X-0.237500X-0.250000X0*%
%ADD23RoundRect,0.175000X0.175000X-0.200000X0.175000X0.200000X-0.175000X0.200000X-0.175000X-0.200000X0*%
%ADD24RoundRect,0.262500X-0.262500X-0.537500X0.262500X-0.537500X0.262500X0.537500X-0.262500X0.537500X0*%
%ADD25R,0.800000X0.750000*%
%ADD26R,2.400000X4.200000*%
%ADD27R,0.750000X4.200000*%
%ADD28R,0.550000X3.280000*%
%ADD29RoundRect,0.150000X0.150000X-0.825000X0.150000X0.825000X-0.150000X0.825000X-0.150000X-0.825000X0*%
%ADD30RoundRect,0.237500X-0.237500X0.250000X-0.237500X-0.250000X0.237500X-0.250000X0.237500X0.250000X0*%
%ADD31RoundRect,0.237500X0.237500X-0.300000X0.237500X0.300000X-0.237500X0.300000X-0.237500X-0.300000X0*%
%ADD32RoundRect,0.225000X0.250000X-0.225000X0.250000X0.225000X-0.250000X0.225000X-0.250000X-0.225000X0*%
%ADD33RoundRect,0.262500X0.262500X0.537500X-0.262500X0.537500X-0.262500X-0.537500X0.262500X-0.537500X0*%
%ADD34RoundRect,0.155000X0.155000X-0.212500X0.155000X0.212500X-0.155000X0.212500X-0.155000X-0.212500X0*%
%ADD35RoundRect,0.250000X0.550000X-1.500000X0.550000X1.500000X-0.550000X1.500000X-0.550000X-1.500000X0*%
%ADD36RoundRect,0.237500X0.300000X0.237500X-0.300000X0.237500X-0.300000X-0.237500X0.300000X-0.237500X0*%
%ADD37RoundRect,0.225000X0.225000X0.250000X-0.225000X0.250000X-0.225000X-0.250000X0.225000X-0.250000X0*%
%ADD38RoundRect,0.249999X0.450001X1.075001X-0.450001X1.075001X-0.450001X-1.075001X0.450001X-1.075001X0*%
%ADD39RoundRect,0.232500X-0.232500X0.232500X-0.232500X-0.232500X0.232500X-0.232500X0.232500X0.232500X0*%
%ADD40RoundRect,0.062500X-0.062500X0.350000X-0.062500X-0.350000X0.062500X-0.350000X0.062500X0.350000X0*%
%ADD41RoundRect,0.062500X-0.350000X0.062500X-0.350000X-0.062500X0.350000X-0.062500X0.350000X0.062500X0*%
%ADD42RoundRect,0.218750X-0.256250X0.218750X-0.256250X-0.218750X0.256250X-0.218750X0.256250X0.218750X0*%
%ADD43RoundRect,0.237500X-0.237500X0.300000X-0.237500X-0.300000X0.237500X-0.300000X0.237500X0.300000X0*%
G04 APERTURE END LIST*
D10*
%TO.C,D3*%
X120557600Y-123807000D03*
X120557600Y-122232000D03*
%TD*%
%TO.C,D4*%
X122400000Y-123815000D03*
X122400000Y-122240000D03*
%TD*%
%TO.C,D5*%
X124240000Y-123784100D03*
X124240000Y-122209100D03*
%TD*%
%TO.C,D6*%
X126150000Y-123795500D03*
X126150000Y-122220500D03*
%TD*%
%TO.C,D1*%
X128060000Y-123843300D03*
X128060000Y-122268300D03*
%TD*%
%TO.C,D2*%
X129970000Y-123880000D03*
X129970000Y-122305000D03*
%TD*%
D11*
%TO.C,J5*%
X116360000Y-83360000D03*
X114860000Y-83360000D03*
X113360000Y-83360000D03*
X111860000Y-83360000D03*
D12*
X118960000Y-78660000D03*
X109260000Y-78660000D03*
%TD*%
D13*
%TO.C,C4*%
X105745000Y-105740000D03*
X107470000Y-105740000D03*
%TD*%
D14*
%TO.C,R6*%
X95970400Y-95599620D03*
X100770400Y-95599620D03*
%TD*%
D15*
%TO.C,U5*%
X121660000Y-105140000D03*
X121660000Y-105640000D03*
X121660000Y-106140000D03*
X121660000Y-106640000D03*
X121660000Y-107140000D03*
X121660000Y-107640000D03*
X121660000Y-108140000D03*
X121660000Y-108640000D03*
X121660000Y-109140000D03*
X121660000Y-109640000D03*
X121660000Y-110140000D03*
X121660000Y-110640000D03*
D16*
X123072500Y-112052500D03*
X123572500Y-112052500D03*
X124072500Y-112052500D03*
X124572500Y-112052500D03*
X125072500Y-112052500D03*
X125572500Y-112052500D03*
X126072500Y-112052500D03*
X126572500Y-112052500D03*
X127072500Y-112052500D03*
X127572500Y-112052500D03*
X128072500Y-112052500D03*
X128572500Y-112052500D03*
D15*
X129985000Y-110640000D03*
X129985000Y-110140000D03*
X129985000Y-109640000D03*
X129985000Y-109140000D03*
X129985000Y-108640000D03*
X129985000Y-108140000D03*
X129985000Y-107640000D03*
X129985000Y-107140000D03*
X129985000Y-106640000D03*
X129985000Y-106140000D03*
X129985000Y-105640000D03*
X129985000Y-105140000D03*
D16*
X128572500Y-103727500D03*
X128072500Y-103727500D03*
X127572500Y-103727500D03*
X127072500Y-103727500D03*
X126572500Y-103727500D03*
X126072500Y-103727500D03*
X125572500Y-103727500D03*
X125072500Y-103727500D03*
X124572500Y-103727500D03*
X124072500Y-103727500D03*
X123572500Y-103727500D03*
X123072500Y-103727500D03*
%TD*%
D13*
%TO.C,C1*%
X105747500Y-102650000D03*
X107472500Y-102650000D03*
%TD*%
D17*
%TO.C,C12*%
X100737900Y-97719620D03*
X99602900Y-97719620D03*
%TD*%
D18*
%TO.C,C10*%
X119625000Y-97750000D03*
X120760000Y-97750000D03*
%TD*%
D11*
%TO.C,J4*%
X128346800Y-83362800D03*
X126846800Y-83362800D03*
X125346800Y-83362800D03*
X123846800Y-83362800D03*
D12*
X130946800Y-78662800D03*
X121246800Y-78662800D03*
%TD*%
D19*
%TO.C,C27*%
X127090000Y-114850000D03*
X127090000Y-116400000D03*
%TD*%
D20*
%TO.C,R13*%
X115685000Y-110956250D03*
X114490000Y-110956250D03*
%TD*%
D21*
%TO.C,R21*%
X136238750Y-100758750D03*
X138063750Y-100758750D03*
%TD*%
D22*
%TO.C,R23*%
X134688000Y-91482500D03*
X134688000Y-89657500D03*
%TD*%
D17*
%TO.C,C20*%
X115592500Y-107255000D03*
X114457500Y-107255000D03*
%TD*%
D23*
%TO.C,Y1*%
X114470000Y-109760000D03*
X115470000Y-109760000D03*
X114470000Y-108410000D03*
X115470000Y-108410000D03*
%TD*%
D22*
%TO.C,R24*%
X132996800Y-91480900D03*
X132996800Y-89655900D03*
%TD*%
D24*
%TO.C,SW2*%
X109455000Y-122180000D03*
X113905000Y-122180000D03*
%TD*%
D22*
%TO.C,R19*%
X115450000Y-122905000D03*
X115450000Y-121080000D03*
%TD*%
D25*
%TO.C,Q2*%
X106050000Y-88580000D03*
X106050000Y-89850000D03*
X106050000Y-91120000D03*
X106050000Y-92390000D03*
X111840000Y-92390000D03*
X111840000Y-91120000D03*
X111840000Y-89850000D03*
X111840000Y-88580000D03*
D26*
X109400000Y-90485000D03*
D27*
X107375000Y-90485000D03*
D28*
X106725000Y-90945000D03*
%TD*%
D29*
%TO.C,U6*%
X126974600Y-94270600D03*
X128244600Y-94270600D03*
X129514600Y-94270600D03*
X130784600Y-94270600D03*
X130784600Y-89320600D03*
X129514600Y-89320600D03*
X128244600Y-89320600D03*
X126974600Y-89320600D03*
%TD*%
D22*
%TO.C,R17*%
X124610000Y-100442500D03*
X124610000Y-98617500D03*
%TD*%
D21*
%TO.C,R22*%
X126935000Y-87010000D03*
X128760000Y-87010000D03*
%TD*%
D30*
%TO.C,R10*%
X128060000Y-118986700D03*
X128060000Y-120811700D03*
%TD*%
D19*
%TO.C,C28*%
X125560000Y-114850000D03*
X125560000Y-116400000D03*
%TD*%
D21*
%TO.C,R20*%
X136241250Y-99198750D03*
X138066250Y-99198750D03*
%TD*%
D31*
%TO.C,C9*%
X92280000Y-91632500D03*
X92280000Y-89907500D03*
%TD*%
D30*
%TO.C,R11*%
X129970000Y-118995000D03*
X129970000Y-120820000D03*
%TD*%
D32*
%TO.C,C25*%
X130648500Y-103750400D03*
X130648500Y-102200400D03*
%TD*%
D30*
%TO.C,R15*%
X124255900Y-119059100D03*
X124255900Y-120884100D03*
%TD*%
%TO.C,R16*%
X126150000Y-119047500D03*
X126150000Y-120872500D03*
%TD*%
D33*
%TO.C,SW1*%
X105605000Y-122220000D03*
X101155000Y-122220000D03*
%TD*%
D21*
%TO.C,R18*%
X136387500Y-115200000D03*
X138212500Y-115200000D03*
%TD*%
D25*
%TO.C,Q3*%
X94984200Y-88577000D03*
X94984200Y-89847000D03*
X94984200Y-91117000D03*
X94984200Y-92387000D03*
X100774200Y-92387000D03*
X100774200Y-91117000D03*
X100774200Y-89847000D03*
X100774200Y-88577000D03*
D26*
X98334200Y-90482000D03*
D27*
X96309200Y-90482000D03*
D28*
X95659200Y-90942000D03*
%TD*%
D34*
%TO.C,C19*%
X113380000Y-110907500D03*
X113380000Y-109772500D03*
%TD*%
D19*
%TO.C,C24*%
X130400000Y-112515000D03*
X130400000Y-114065000D03*
%TD*%
D14*
%TO.C,R5*%
X106693000Y-95717400D03*
X111493000Y-95717400D03*
%TD*%
D35*
%TO.C,C8*%
X94400000Y-104610000D03*
X94400000Y-99210000D03*
%TD*%
D13*
%TO.C,C2*%
X105742500Y-104200000D03*
X107467500Y-104200000D03*
%TD*%
D36*
%TO.C,C6*%
X112015000Y-113210000D03*
X110290000Y-113210000D03*
%TD*%
D31*
%TO.C,C21*%
X107240000Y-122850000D03*
X107240000Y-121125000D03*
%TD*%
D37*
%TO.C,C22*%
X121275000Y-103840000D03*
X119725000Y-103840000D03*
%TD*%
D36*
%TO.C,C3*%
X109130000Y-107200000D03*
X107405000Y-107200000D03*
%TD*%
D37*
%TO.C,C23*%
X121295000Y-102250000D03*
X119745000Y-102250000D03*
%TD*%
D38*
%TO.C,R4*%
X122850000Y-95673300D03*
X118050000Y-95673300D03*
%TD*%
D17*
%TO.C,C11*%
X110855000Y-97810000D03*
X109720000Y-97810000D03*
%TD*%
D30*
%TO.C,R14*%
X122400000Y-119067000D03*
X122400000Y-120892000D03*
%TD*%
D39*
%TO.C,U1*%
X106700000Y-109820000D03*
X105550000Y-109820000D03*
X104400000Y-109820000D03*
X103250000Y-109820000D03*
X106700000Y-110970000D03*
X105550000Y-110970000D03*
X104400000Y-110970000D03*
X103250000Y-110970000D03*
X106700000Y-112120000D03*
X105550000Y-112120000D03*
X104400000Y-112120000D03*
X103250000Y-112120000D03*
X106700000Y-113270000D03*
X105550000Y-113270000D03*
X104400000Y-113270000D03*
X103250000Y-113270000D03*
D40*
X107225000Y-108607500D03*
X106725000Y-108607500D03*
X106225000Y-108607500D03*
X105725000Y-108607500D03*
X105225000Y-108607500D03*
X104725000Y-108607500D03*
X104225000Y-108607500D03*
X103725000Y-108607500D03*
X103225000Y-108607500D03*
X102725000Y-108607500D03*
D41*
X102037500Y-109295000D03*
X102037500Y-109795000D03*
X102037500Y-110295000D03*
X102037500Y-110795000D03*
X102037500Y-111295000D03*
X102037500Y-111795000D03*
X102037500Y-112295000D03*
X102037500Y-112795000D03*
X102037500Y-113295000D03*
X102037500Y-113795000D03*
D40*
X102725000Y-114482500D03*
X103225000Y-114482500D03*
X103725000Y-114482500D03*
X104225000Y-114482500D03*
X104725000Y-114482500D03*
X105225000Y-114482500D03*
X105725000Y-114482500D03*
X106225000Y-114482500D03*
X106725000Y-114482500D03*
X107225000Y-114482500D03*
D41*
X107912500Y-113795000D03*
X107912500Y-113295000D03*
X107912500Y-112795000D03*
X107912500Y-112295000D03*
X107912500Y-111795000D03*
X107912500Y-111295000D03*
X107912500Y-110795000D03*
X107912500Y-110295000D03*
X107912500Y-109795000D03*
X107912500Y-109295000D03*
%TD*%
D25*
%TO.C,Q1*%
X116630000Y-88555000D03*
X116630000Y-89825000D03*
X116630000Y-91095000D03*
X116630000Y-92365000D03*
X122420000Y-92365000D03*
X122420000Y-91095000D03*
X122420000Y-89825000D03*
X122420000Y-88555000D03*
D26*
X119980000Y-90460000D03*
D27*
X117955000Y-90460000D03*
D28*
X117305000Y-90920000D03*
%TD*%
D42*
%TO.C,D7*%
X134670000Y-93090000D03*
X134670000Y-94665000D03*
%TD*%
%TO.C,D8*%
X132996800Y-93095900D03*
X132996800Y-94670900D03*
%TD*%
D30*
%TO.C,R12*%
X120573500Y-119059000D03*
X120573500Y-120884000D03*
%TD*%
D43*
%TO.C,C26*%
X117562500Y-121130000D03*
X117562500Y-122855000D03*
%TD*%
D17*
%TO.C,C7*%
X101340000Y-118290000D03*
X100205000Y-118290000D03*
%TD*%
M02*
