%TF.GenerationSoftware,KiCad,Pcbnew,8.0.4-8.0.4-0~ubuntu22.04.1*%
%TF.CreationDate,2024-08-14T23:11:34+09:00*%
%TF.ProjectId,motor_driver,6d6f746f-725f-4647-9269-7665722e6b69,rev?*%
%TF.SameCoordinates,Original*%
%TF.FileFunction,Copper,L1,Top*%
%TF.FilePolarity,Positive*%
%FSLAX46Y46*%
G04 Gerber Fmt 4.6, Leading zero omitted, Abs format (unit mm)*
G04 Created by KiCad (PCBNEW 8.0.4-8.0.4-0~ubuntu22.04.1) date 2024-08-14 23:11:34*
%MOMM*%
%LPD*%
G01*
G04 APERTURE LIST*
G04 Aperture macros list*
%AMRoundRect*
0 Rectangle with rounded corners*
0 $1 Rounding radius*
0 $2 $3 $4 $5 $6 $7 $8 $9 X,Y pos of 4 corners*
0 Add a 4 corners polygon primitive as box body*
4,1,4,$2,$3,$4,$5,$6,$7,$8,$9,$2,$3,0*
0 Add four circle primitives for the rounded corners*
1,1,$1+$1,$2,$3*
1,1,$1+$1,$4,$5*
1,1,$1+$1,$6,$7*
1,1,$1+$1,$8,$9*
0 Add four rect primitives between the rounded corners*
20,1,$1+$1,$2,$3,$4,$5,0*
20,1,$1+$1,$4,$5,$6,$7,0*
20,1,$1+$1,$6,$7,$8,$9,0*
20,1,$1+$1,$8,$9,$2,$3,0*%
G04 Aperture macros list end*
%TA.AperFunction,SMDPad,CuDef*%
%ADD10RoundRect,0.218750X0.256250X-0.218750X0.256250X0.218750X-0.256250X0.218750X-0.256250X-0.218750X0*%
%TD*%
%TA.AperFunction,SMDPad,CuDef*%
%ADD11R,0.800000X2.900000*%
%TD*%
%TA.AperFunction,SMDPad,CuDef*%
%ADD12R,1.800000X3.800000*%
%TD*%
%TA.AperFunction,SMDPad,CuDef*%
%ADD13RoundRect,0.237500X-0.300000X-0.237500X0.300000X-0.237500X0.300000X0.237500X-0.300000X0.237500X0*%
%TD*%
%TA.AperFunction,SMDPad,CuDef*%
%ADD14RoundRect,0.249999X-0.450001X-1.075001X0.450001X-1.075001X0.450001X1.075001X-0.450001X1.075001X0*%
%TD*%
%TA.AperFunction,SMDPad,CuDef*%
%ADD15RoundRect,0.075000X-0.662500X-0.075000X0.662500X-0.075000X0.662500X0.075000X-0.662500X0.075000X0*%
%TD*%
%TA.AperFunction,SMDPad,CuDef*%
%ADD16RoundRect,0.075000X-0.075000X-0.662500X0.075000X-0.662500X0.075000X0.662500X-0.075000X0.662500X0*%
%TD*%
%TA.AperFunction,ComponentPad*%
%ADD17C,3.600000*%
%TD*%
%TA.AperFunction,ConnectorPad*%
%ADD18C,6.400000*%
%TD*%
%TA.AperFunction,SMDPad,CuDef*%
%ADD19RoundRect,0.155000X0.212500X0.155000X-0.212500X0.155000X-0.212500X-0.155000X0.212500X-0.155000X0*%
%TD*%
%TA.AperFunction,SMDPad,CuDef*%
%ADD20RoundRect,0.155000X-0.212500X-0.155000X0.212500X-0.155000X0.212500X0.155000X-0.212500X0.155000X0*%
%TD*%
%TA.AperFunction,SMDPad,CuDef*%
%ADD21RoundRect,0.225000X-0.250000X0.225000X-0.250000X-0.225000X0.250000X-0.225000X0.250000X0.225000X0*%
%TD*%
%TA.AperFunction,SMDPad,CuDef*%
%ADD22RoundRect,0.160000X0.197500X0.160000X-0.197500X0.160000X-0.197500X-0.160000X0.197500X-0.160000X0*%
%TD*%
%TA.AperFunction,ComponentPad*%
%ADD23R,3.800000X3.800000*%
%TD*%
%TA.AperFunction,ComponentPad*%
%ADD24C,4.000000*%
%TD*%
%TA.AperFunction,SMDPad,CuDef*%
%ADD25RoundRect,0.237500X-0.250000X-0.237500X0.250000X-0.237500X0.250000X0.237500X-0.250000X0.237500X0*%
%TD*%
%TA.AperFunction,SMDPad,CuDef*%
%ADD26RoundRect,0.237500X0.237500X-0.250000X0.237500X0.250000X-0.237500X0.250000X-0.237500X-0.250000X0*%
%TD*%
%TA.AperFunction,SMDPad,CuDef*%
%ADD27RoundRect,0.175000X0.175000X-0.200000X0.175000X0.200000X-0.175000X0.200000X-0.175000X-0.200000X0*%
%TD*%
%TA.AperFunction,SMDPad,CuDef*%
%ADD28RoundRect,0.262500X-0.262500X-0.537500X0.262500X-0.537500X0.262500X0.537500X-0.262500X0.537500X0*%
%TD*%
%TA.AperFunction,SMDPad,CuDef*%
%ADD29R,0.800000X0.750000*%
%TD*%
%TA.AperFunction,SMDPad,CuDef*%
%ADD30R,2.400000X4.200000*%
%TD*%
%TA.AperFunction,SMDPad,CuDef*%
%ADD31R,0.750000X4.200000*%
%TD*%
%TA.AperFunction,SMDPad,CuDef*%
%ADD32R,0.550000X3.280000*%
%TD*%
%TA.AperFunction,SMDPad,CuDef*%
%ADD33RoundRect,0.150000X0.150000X-0.825000X0.150000X0.825000X-0.150000X0.825000X-0.150000X-0.825000X0*%
%TD*%
%TA.AperFunction,SMDPad,CuDef*%
%ADD34RoundRect,0.237500X-0.237500X0.250000X-0.237500X-0.250000X0.237500X-0.250000X0.237500X0.250000X0*%
%TD*%
%TA.AperFunction,ComponentPad*%
%ADD35C,1.070000*%
%TD*%
%TA.AperFunction,SMDPad,CuDef*%
%ADD36RoundRect,0.237500X0.237500X-0.300000X0.237500X0.300000X-0.237500X0.300000X-0.237500X-0.300000X0*%
%TD*%
%TA.AperFunction,SMDPad,CuDef*%
%ADD37RoundRect,0.225000X0.250000X-0.225000X0.250000X0.225000X-0.250000X0.225000X-0.250000X-0.225000X0*%
%TD*%
%TA.AperFunction,SMDPad,CuDef*%
%ADD38RoundRect,0.262500X0.262500X0.537500X-0.262500X0.537500X-0.262500X-0.537500X0.262500X-0.537500X0*%
%TD*%
%TA.AperFunction,SMDPad,CuDef*%
%ADD39RoundRect,0.155000X0.155000X-0.212500X0.155000X0.212500X-0.155000X0.212500X-0.155000X-0.212500X0*%
%TD*%
%TA.AperFunction,SMDPad,CuDef*%
%ADD40RoundRect,0.250000X0.550000X-1.500000X0.550000X1.500000X-0.550000X1.500000X-0.550000X-1.500000X0*%
%TD*%
%TA.AperFunction,SMDPad,CuDef*%
%ADD41RoundRect,0.237500X0.300000X0.237500X-0.300000X0.237500X-0.300000X-0.237500X0.300000X-0.237500X0*%
%TD*%
%TA.AperFunction,SMDPad,CuDef*%
%ADD42RoundRect,0.225000X0.225000X0.250000X-0.225000X0.250000X-0.225000X-0.250000X0.225000X-0.250000X0*%
%TD*%
%TA.AperFunction,SMDPad,CuDef*%
%ADD43RoundRect,0.249999X0.450001X1.075001X-0.450001X1.075001X-0.450001X-1.075001X0.450001X-1.075001X0*%
%TD*%
%TA.AperFunction,SMDPad,CuDef*%
%ADD44RoundRect,0.062500X-0.062500X0.350000X-0.062500X-0.350000X0.062500X-0.350000X0.062500X0.350000X0*%
%TD*%
%TA.AperFunction,SMDPad,CuDef*%
%ADD45RoundRect,0.062500X-0.350000X0.062500X-0.350000X-0.062500X0.350000X-0.062500X0.350000X0.062500X0*%
%TD*%
%TA.AperFunction,ComponentPad*%
%ADD46C,0.508000*%
%TD*%
%TA.AperFunction,HeatsinkPad*%
%ADD47R,4.600000X4.600000*%
%TD*%
%TA.AperFunction,SMDPad,CuDef*%
%ADD48RoundRect,0.218750X-0.256250X0.218750X-0.256250X-0.218750X0.256250X-0.218750X0.256250X0.218750X0*%
%TD*%
%TA.AperFunction,SMDPad,CuDef*%
%ADD49RoundRect,0.237500X-0.237500X0.300000X-0.237500X-0.300000X0.237500X-0.300000X0.237500X0.300000X0*%
%TD*%
%TA.AperFunction,ViaPad*%
%ADD50C,0.508000*%
%TD*%
%TA.AperFunction,ViaPad*%
%ADD51C,0.800000*%
%TD*%
%TA.AperFunction,Conductor*%
%ADD52C,0.250000*%
%TD*%
%TA.AperFunction,Conductor*%
%ADD53C,0.500000*%
%TD*%
%TA.AperFunction,Conductor*%
%ADD54C,2.650000*%
%TD*%
%TA.AperFunction,Conductor*%
%ADD55C,0.750000*%
%TD*%
%TA.AperFunction,Conductor*%
%ADD56C,1.400000*%
%TD*%
%TA.AperFunction,Conductor*%
%ADD57C,1.500000*%
%TD*%
G04 APERTURE END LIST*
D10*
%TO.P,D3,1,K*%
%TO.N,GND*%
X120557600Y-123807000D03*
%TO.P,D3,2,A*%
%TO.N,Net-(D3-A)*%
X120557600Y-122232000D03*
%TD*%
%TO.P,D4,1,K*%
%TO.N,GND*%
X122400000Y-123815000D03*
%TO.P,D4,2,A*%
%TO.N,Net-(D4-A)*%
X122400000Y-122240000D03*
%TD*%
%TO.P,D5,1,K*%
%TO.N,GND*%
X124240000Y-123784100D03*
%TO.P,D5,2,A*%
%TO.N,Net-(D5-A)*%
X124240000Y-122209100D03*
%TD*%
%TO.P,D6,1,K*%
%TO.N,GND*%
X126150000Y-123795500D03*
%TO.P,D6,2,A*%
%TO.N,Net-(D6-A)*%
X126150000Y-122220500D03*
%TD*%
%TO.P,D1,1,K*%
%TO.N,GND*%
X128060000Y-123843300D03*
%TO.P,D1,2,A*%
%TO.N,Net-(D1-A)*%
X128060000Y-122268300D03*
%TD*%
%TO.P,D2,1,K*%
%TO.N,GND*%
X129970000Y-123880000D03*
%TO.P,D2,2,A*%
%TO.N,Net-(D2-A)*%
X129970000Y-122305000D03*
%TD*%
D11*
%TO.P,J5,1,Pin_1*%
%TO.N,+5V*%
X116360000Y-83360000D03*
%TO.P,J5,2,Pin_2*%
%TO.N,/stm32g431cb/CAN_L*%
X114860000Y-83360000D03*
%TO.P,J5,3,Pin_3*%
%TO.N,/stm32g431cb/CAN_H*%
X113360000Y-83360000D03*
%TO.P,J5,4,Pin_4*%
%TO.N,GND*%
X111860000Y-83360000D03*
D12*
%TO.P,J5,5,Pin_5*%
X118960000Y-78660000D03*
%TO.P,J5,6,Pin_6*%
X109260000Y-78660000D03*
%TD*%
D13*
%TO.P,C4,1*%
%TO.N,+BATT*%
X105745000Y-105740000D03*
%TO.P,C4,2*%
%TO.N,Net-(U1-VCP)*%
X107470000Y-105740000D03*
%TD*%
D14*
%TO.P,R6,1*%
%TO.N,GND*%
X95970400Y-95599620D03*
%TO.P,R6,2*%
%TO.N,/drv8323/SLC*%
X100770400Y-95599620D03*
%TD*%
D15*
%TO.P,U5,1,VBAT*%
%TO.N,+3.3V*%
X121660000Y-105140000D03*
%TO.P,U5,2,PC13*%
%TO.N,/stm32g431cb/INLC*%
X121660000Y-105640000D03*
%TO.P,U5,3,PC14*%
%TO.N,/stm32g431cb/INLB*%
X121660000Y-106140000D03*
%TO.P,U5,4,PC15*%
%TO.N,/stm32g431cb/INLA*%
X121660000Y-106640000D03*
%TO.P,U5,5,PF0-OSC_IN*%
%TO.N,/stm32g431cb/OSC_IN*%
X121660000Y-107140000D03*
%TO.P,U5,6,PF0-OSC_OUT*%
%TO.N,/stm32g431cb/OSC_OUT*%
X121660000Y-107640000D03*
%TO.P,U5,7,PG10-NRST*%
%TO.N,/stm32g431cb/NRST*%
X121660000Y-108140000D03*
%TO.P,U5,8,PA0*%
%TO.N,/stm32g431cb/ADC1_1*%
X121660000Y-108640000D03*
%TO.P,U5,9,PA1*%
%TO.N,/stm32g431cb/ADC1_2*%
X121660000Y-109140000D03*
%TO.P,U5,10,PA2*%
%TO.N,/stm32g431cb/ADC1_3*%
X121660000Y-109640000D03*
%TO.P,U5,11,PA3*%
%TO.N,/stm32g431cb/DRV_CAL*%
X121660000Y-110140000D03*
%TO.P,U5,12,PA4*%
%TO.N,/stm32g431cb/DRV_ENABLE*%
X121660000Y-110640000D03*
D16*
%TO.P,U5,13,PA5*%
%TO.N,/drv8323/SPI1_CLK*%
X123072500Y-112052500D03*
%TO.P,U5,14,PA6*%
%TO.N,/drv8323/SPI1_MISO*%
X123572500Y-112052500D03*
%TO.P,U5,15,PA7*%
%TO.N,/drv8323/SPI1_MOSI*%
X124072500Y-112052500D03*
%TO.P,U5,16,PB0*%
%TO.N,/stm32g431cb/SS_DRV*%
X124572500Y-112052500D03*
%TO.P,U5,17,PB1*%
%TO.N,/stm32g431cb/FAULTB*%
X125072500Y-112052500D03*
%TO.P,U5,18,PB2*%
%TO.N,/stm32g431cb/SW1*%
X125572500Y-112052500D03*
%TO.P,U5,19,VSSA*%
%TO.N,GND*%
X126072500Y-112052500D03*
%TO.P,U5,20,VREF+*%
%TO.N,+3.3VA*%
X126572500Y-112052500D03*
%TO.P,U5,21,VDDA*%
%TO.N,+3.3V*%
X127072500Y-112052500D03*
%TO.P,U5,22,PB10*%
%TO.N,/stm32g431cb/LED1*%
X127572500Y-112052500D03*
%TO.P,U5,23,VSS*%
%TO.N,GND*%
X128072500Y-112052500D03*
%TO.P,U5,24,VDD*%
%TO.N,+3.3V*%
X128572500Y-112052500D03*
D15*
%TO.P,U5,25,PB11*%
%TO.N,/stm32g431cb/LED2*%
X129985000Y-110640000D03*
%TO.P,U5,26,PB12*%
%TO.N,/stm32g431cb/LED3*%
X129985000Y-110140000D03*
%TO.P,U5,27,PB13*%
%TO.N,/drv8323/SPI2_CLK*%
X129985000Y-109640000D03*
%TO.P,U5,28,PB14*%
%TO.N,/stm32g431cb/LED4*%
X129985000Y-109140000D03*
%TO.P,U5,29,PB15*%
%TO.N,/drv8323/SPI2_MOSI*%
X129985000Y-108640000D03*
%TO.P,U5,30,PA8*%
%TO.N,/stm32g431cb/LED_CAN_TX*%
X129985000Y-108140000D03*
%TO.P,U5,31,PA9*%
%TO.N,/stm32g431cb/LED_CAN_RX*%
X129985000Y-107640000D03*
%TO.P,U5,32,PA10*%
%TO.N,/drv8323/SPI2_MISO*%
X129985000Y-107140000D03*
%TO.P,U5,33,PA11*%
%TO.N,/stm32g431cb/CAN_RX*%
X129985000Y-106640000D03*
%TO.P,U5,34,PA12*%
%TO.N,/stm32g431cb/CAN_TX*%
X129985000Y-106140000D03*
%TO.P,U5,35,VSS*%
%TO.N,GND*%
X129985000Y-105640000D03*
%TO.P,U5,36,VDD*%
%TO.N,+3.3V*%
X129985000Y-105140000D03*
D16*
%TO.P,U5,37,PA13*%
%TO.N,/stm32g431cb/SWDIO*%
X128572500Y-103727500D03*
%TO.P,U5,38,PA14*%
%TO.N,/stm32g431cb/SWCLK*%
X128072500Y-103727500D03*
%TO.P,U5,39,PA15*%
%TO.N,/drv8323/HALL_W*%
X127572500Y-103727500D03*
%TO.P,U5,40,PB3*%
%TO.N,/drv8323/HALL_U*%
X127072500Y-103727500D03*
%TO.P,U5,41,PB4*%
%TO.N,/drv8323/HALL_V*%
X126572500Y-103727500D03*
%TO.P,U5,42,PB5*%
%TO.N,/drv8323/SS_ENC*%
X126072500Y-103727500D03*
%TO.P,U5,43,PB6*%
%TO.N,/stm32g431cb/TIM4_INHA*%
X125572500Y-103727500D03*
%TO.P,U5,44,PB7*%
%TO.N,/stm32g431cb/TIM4_INHB*%
X125072500Y-103727500D03*
%TO.P,U5,45,PB8-BOOT0*%
%TO.N,Net-(U5-PB8-BOOT0)*%
X124572500Y-103727500D03*
%TO.P,U5,46,PB9*%
%TO.N,/stm32g431cb/TIM4_INHC*%
X124072500Y-103727500D03*
%TO.P,U5,47,VSS*%
%TO.N,GND*%
X123572500Y-103727500D03*
%TO.P,U5,48,VDD*%
%TO.N,+3.3V*%
X123072500Y-103727500D03*
%TD*%
D17*
%TO.P,H1,1*%
%TO.N,N/C*%
X94524000Y-79310400D03*
D18*
X94524000Y-79310400D03*
%TD*%
D13*
%TO.P,C1,1*%
%TO.N,+BATT*%
X105747500Y-102650000D03*
%TO.P,C1,2*%
%TO.N,GND*%
X107472500Y-102650000D03*
%TD*%
D19*
%TO.P,C12,1*%
%TO.N,/drv8323/SLC*%
X100737900Y-97719620D03*
%TO.P,C12,2*%
%TO.N,GND*%
X99602900Y-97719620D03*
%TD*%
D20*
%TO.P,C10,1*%
%TO.N,/drv8323/SLA*%
X119625000Y-97750000D03*
%TO.P,C10,2*%
%TO.N,GND*%
X120760000Y-97750000D03*
%TD*%
D11*
%TO.P,J4,1,Pin_1*%
%TO.N,+5V*%
X128346800Y-83362800D03*
%TO.P,J4,2,Pin_2*%
%TO.N,/stm32g431cb/CAN_L*%
X126846800Y-83362800D03*
%TO.P,J4,3,Pin_3*%
%TO.N,/stm32g431cb/CAN_H*%
X125346800Y-83362800D03*
%TO.P,J4,4,Pin_4*%
%TO.N,GND*%
X123846800Y-83362800D03*
D12*
%TO.P,J4,5,Pin_5*%
X130946800Y-78662800D03*
%TO.P,J4,6,Pin_6*%
X121246800Y-78662800D03*
%TD*%
D21*
%TO.P,C27,1*%
%TO.N,+3.3V*%
X127090000Y-114850000D03*
%TO.P,C27,2*%
%TO.N,GND*%
X127090000Y-116400000D03*
%TD*%
D22*
%TO.P,R13,1*%
%TO.N,/stm32g431cb/OSC_IN*%
X115685000Y-110956250D03*
%TO.P,R13,2*%
%TO.N,Net-(C19-Pad1)*%
X114490000Y-110956250D03*
%TD*%
D23*
%TO.P,J1,1,Pin_1*%
%TO.N,GND*%
X93960000Y-114740000D03*
D24*
%TO.P,J1,2,Pin_2*%
%TO.N,+BATT*%
X93960000Y-109740000D03*
%TD*%
D25*
%TO.P,R21,1*%
%TO.N,+3.3V*%
X136238750Y-100758750D03*
%TO.P,R21,2*%
%TO.N,/stm32g431cb/SWDIO*%
X138063750Y-100758750D03*
%TD*%
D26*
%TO.P,R23,1*%
%TO.N,Net-(D7-K)*%
X134688000Y-91482500D03*
%TO.P,R23,2*%
%TO.N,GND*%
X134688000Y-89657500D03*
%TD*%
D19*
%TO.P,C20,1*%
%TO.N,/stm32g431cb/OSC_OUT*%
X115592500Y-107255000D03*
%TO.P,C20,2*%
%TO.N,GND*%
X114457500Y-107255000D03*
%TD*%
D27*
%TO.P,Y1,1,1*%
%TO.N,Net-(C19-Pad1)*%
X114470000Y-109760000D03*
%TO.P,Y1,2,2*%
%TO.N,GND*%
X115470000Y-109760000D03*
X114470000Y-108410000D03*
%TO.P,Y1,3,3*%
%TO.N,/stm32g431cb/OSC_OUT*%
X115470000Y-108410000D03*
%TD*%
D26*
%TO.P,R24,1*%
%TO.N,Net-(D8-K)*%
X132996800Y-91480900D03*
%TO.P,R24,2*%
%TO.N,GND*%
X132996800Y-89655900D03*
%TD*%
D28*
%TO.P,SW2,1*%
%TO.N,GND*%
X109455000Y-122180000D03*
%TO.P,SW2,2*%
%TO.N,/stm32g431cb/SW1*%
X113905000Y-122180000D03*
%TD*%
D26*
%TO.P,R19,1*%
%TO.N,+3.3V*%
X115450000Y-122905000D03*
%TO.P,R19,2*%
%TO.N,/stm32g431cb/SW1*%
X115450000Y-121080000D03*
%TD*%
D17*
%TO.P,H3,1*%
%TO.N,N/C*%
X136524000Y-79310400D03*
D18*
X136524000Y-79310400D03*
%TD*%
D29*
%TO.P,Q2,1,TR1_GATE*%
%TO.N,Net-(Q2-TR1_GATE)*%
X106050000Y-88580000D03*
%TO.P,Q2,2,TR1_DRAIN1*%
%TO.N,+BATT*%
X106050000Y-89850000D03*
%TO.P,Q2,3,TR1_DRAIN2*%
X106050000Y-91120000D03*
%TO.P,Q2,4,TR1_DRAIN3*%
X106050000Y-92390000D03*
%TO.P,Q2,5,TR2_SOURCE1*%
%TO.N,/drv8323/SLB*%
X111840000Y-92390000D03*
%TO.P,Q2,6,TR2_SOURCE2*%
X111840000Y-91120000D03*
%TO.P,Q2,7,TR2_SOURCE3*%
X111840000Y-89850000D03*
%TO.P,Q2,8,TR2_GATE*%
%TO.N,Net-(Q2-TR2_GATE)*%
X111840000Y-88580000D03*
D30*
%TO.P,Q2,9,TR1_SOURCE/TR2_DRAIN*%
%TO.N,/drv8323/SHB*%
X109400000Y-90485000D03*
D31*
%TO.P,Q2,10,TR1_DRAIN4*%
%TO.N,+BATT*%
X107375000Y-90485000D03*
D32*
%TO.P,Q2,11,TR1_DRAIN5*%
X106725000Y-90945000D03*
%TD*%
D33*
%TO.P,U6,1,TXD*%
%TO.N,/stm32g431cb/CAN_TX*%
X126974600Y-94270600D03*
%TO.P,U6,2,VSS*%
%TO.N,GND*%
X128244600Y-94270600D03*
%TO.P,U6,3,VDD*%
%TO.N,+5V*%
X129514600Y-94270600D03*
%TO.P,U6,4,RXD*%
%TO.N,/stm32g431cb/CAN_RX*%
X130784600Y-94270600D03*
%TO.P,U6,5,Vio*%
%TO.N,+5V*%
X130784600Y-89320600D03*
%TO.P,U6,6,CANL*%
%TO.N,/stm32g431cb/CAN_L*%
X129514600Y-89320600D03*
%TO.P,U6,7,CANH*%
%TO.N,/stm32g431cb/CAN_H*%
X128244600Y-89320600D03*
%TO.P,U6,8,STBY*%
%TO.N,GND*%
X126974600Y-89320600D03*
%TD*%
D26*
%TO.P,R17,1*%
%TO.N,Net-(U5-PB8-BOOT0)*%
X124610000Y-100442500D03*
%TO.P,R17,2*%
%TO.N,GND*%
X124610000Y-98617500D03*
%TD*%
D25*
%TO.P,R22,1*%
%TO.N,/stm32g431cb/CAN_H*%
X126935000Y-87010000D03*
%TO.P,R22,2*%
%TO.N,/stm32g431cb/CAN_L*%
X128760000Y-87010000D03*
%TD*%
D34*
%TO.P,R10,1*%
%TO.N,+3.3V*%
X128060000Y-118986700D03*
%TO.P,R10,2*%
%TO.N,Net-(D1-A)*%
X128060000Y-120811700D03*
%TD*%
D21*
%TO.P,C28,1*%
%TO.N,+3.3VA*%
X125560000Y-114850000D03*
%TO.P,C28,2*%
%TO.N,GND*%
X125560000Y-116400000D03*
%TD*%
D35*
%TO.P,J3,1,VTref*%
%TO.N,+3.3V*%
X136620000Y-105320000D03*
%TO.P,J3,2,SWDIO/TMS*%
%TO.N,/stm32g431cb/SWDIO*%
X137890000Y-105320000D03*
%TO.P,J3,3,GND*%
%TO.N,GND*%
X136620000Y-106590000D03*
%TO.P,J3,4,SWDCLK/TCK*%
%TO.N,/stm32g431cb/SWCLK*%
X137890000Y-106590000D03*
%TO.P,J3,5,GND*%
%TO.N,GND*%
X136620000Y-107860000D03*
%TO.P,J3,6,SWO/TDO*%
%TO.N,unconnected-(J3-SWO{slash}TDO-Pad6)*%
X137890000Y-107860000D03*
%TO.P,J3,7,KEY*%
%TO.N,unconnected-(J3-KEY-Pad7)*%
X136620000Y-109130000D03*
%TO.P,J3,8,NC/TDI*%
%TO.N,unconnected-(J3-NC{slash}TDI-Pad8)*%
X137890000Y-109130000D03*
%TO.P,J3,9,GNDDetect*%
%TO.N,GND*%
X136620000Y-110400000D03*
%TO.P,J3,10,~{RESET}*%
%TO.N,/stm32g431cb/NRST*%
X137890000Y-110400000D03*
%TD*%
D25*
%TO.P,R20,1*%
%TO.N,+3.3V*%
X136241250Y-99198750D03*
%TO.P,R20,2*%
%TO.N,/stm32g431cb/SWCLK*%
X138066250Y-99198750D03*
%TD*%
D36*
%TO.P,C9,1*%
%TO.N,+BATT*%
X92280000Y-91632500D03*
%TO.P,C9,2*%
%TO.N,GND*%
X92280000Y-89907500D03*
%TD*%
D34*
%TO.P,R11,1*%
%TO.N,+3.3VA*%
X129970000Y-118995000D03*
%TO.P,R11,2*%
%TO.N,Net-(D2-A)*%
X129970000Y-120820000D03*
%TD*%
D37*
%TO.P,C25,1*%
%TO.N,+3.3V*%
X130648500Y-103750400D03*
%TO.P,C25,2*%
%TO.N,GND*%
X130648500Y-102200400D03*
%TD*%
D34*
%TO.P,R15,1*%
%TO.N,/stm32g431cb/LED3*%
X124255900Y-119059100D03*
%TO.P,R15,2*%
%TO.N,Net-(D5-A)*%
X124255900Y-120884100D03*
%TD*%
%TO.P,R16,1*%
%TO.N,/stm32g431cb/LED4*%
X126150000Y-119047500D03*
%TO.P,R16,2*%
%TO.N,Net-(D6-A)*%
X126150000Y-120872500D03*
%TD*%
D38*
%TO.P,SW1,1*%
%TO.N,/stm32g431cb/NRST*%
X105605000Y-122220000D03*
%TO.P,SW1,2*%
%TO.N,GND*%
X101155000Y-122220000D03*
%TD*%
D25*
%TO.P,R18,1*%
%TO.N,+3.3V*%
X136387500Y-115200000D03*
%TO.P,R18,2*%
%TO.N,/stm32g431cb/NRST*%
X138212500Y-115200000D03*
%TD*%
D29*
%TO.P,Q3,1,TR1_GATE*%
%TO.N,Net-(Q3-TR1_GATE)*%
X94984200Y-88577000D03*
%TO.P,Q3,2,TR1_DRAIN1*%
%TO.N,+BATT*%
X94984200Y-89847000D03*
%TO.P,Q3,3,TR1_DRAIN2*%
X94984200Y-91117000D03*
%TO.P,Q3,4,TR1_DRAIN3*%
X94984200Y-92387000D03*
%TO.P,Q3,5,TR2_SOURCE1*%
%TO.N,/drv8323/SLC*%
X100774200Y-92387000D03*
%TO.P,Q3,6,TR2_SOURCE2*%
X100774200Y-91117000D03*
%TO.P,Q3,7,TR2_SOURCE3*%
X100774200Y-89847000D03*
%TO.P,Q3,8,TR2_GATE*%
%TO.N,Net-(Q3-TR2_GATE)*%
X100774200Y-88577000D03*
D30*
%TO.P,Q3,9,TR1_SOURCE/TR2_DRAIN*%
%TO.N,/drv8323/SHC*%
X98334200Y-90482000D03*
D31*
%TO.P,Q3,10,TR1_DRAIN4*%
%TO.N,+BATT*%
X96309200Y-90482000D03*
D32*
%TO.P,Q3,11,TR1_DRAIN5*%
X95659200Y-90942000D03*
%TD*%
D39*
%TO.P,C19,1*%
%TO.N,Net-(C19-Pad1)*%
X113380000Y-110907500D03*
%TO.P,C19,2*%
%TO.N,GND*%
X113380000Y-109772500D03*
%TD*%
D21*
%TO.P,C24,1*%
%TO.N,+3.3V*%
X130400000Y-112515000D03*
%TO.P,C24,2*%
%TO.N,GND*%
X130400000Y-114065000D03*
%TD*%
D14*
%TO.P,R5,1*%
%TO.N,GND*%
X106693000Y-95717400D03*
%TO.P,R5,2*%
%TO.N,/drv8323/SLB*%
X111493000Y-95717400D03*
%TD*%
D40*
%TO.P,C8,1*%
%TO.N,+BATT*%
X94400000Y-104610000D03*
%TO.P,C8,2*%
%TO.N,GND*%
X94400000Y-99210000D03*
%TD*%
D13*
%TO.P,C2,1*%
%TO.N,+BATT*%
X105742500Y-104200000D03*
%TO.P,C2,2*%
%TO.N,GND*%
X107467500Y-104200000D03*
%TD*%
D17*
%TO.P,H4,1*%
%TO.N,N/C*%
X136524000Y-121310400D03*
D18*
X136524000Y-121310400D03*
%TD*%
D41*
%TO.P,C6,1*%
%TO.N,GND*%
X112015000Y-113210000D03*
%TO.P,C6,2*%
%TO.N,Net-(U1-DVDD)*%
X110290000Y-113210000D03*
%TD*%
D36*
%TO.P,C21,1*%
%TO.N,/stm32g431cb/NRST*%
X107240000Y-122850000D03*
%TO.P,C21,2*%
%TO.N,GND*%
X107240000Y-121125000D03*
%TD*%
D42*
%TO.P,C22,1*%
%TO.N,+3.3V*%
X121275000Y-103840000D03*
%TO.P,C22,2*%
%TO.N,GND*%
X119725000Y-103840000D03*
%TD*%
D41*
%TO.P,C3,1*%
%TO.N,Net-(U1-CPL)*%
X109130000Y-107200000D03*
%TO.P,C3,2*%
%TO.N,Net-(U1-CPH)*%
X107405000Y-107200000D03*
%TD*%
D42*
%TO.P,C23,1*%
%TO.N,+3.3V*%
X121295000Y-102250000D03*
%TO.P,C23,2*%
%TO.N,GND*%
X119745000Y-102250000D03*
%TD*%
D43*
%TO.P,R4,1*%
%TO.N,GND*%
X122850000Y-95673300D03*
%TO.P,R4,2*%
%TO.N,/drv8323/SLA*%
X118050000Y-95673300D03*
%TD*%
D19*
%TO.P,C11,1*%
%TO.N,/drv8323/SLB*%
X110855000Y-97810000D03*
%TO.P,C11,2*%
%TO.N,GND*%
X109720000Y-97810000D03*
%TD*%
D17*
%TO.P,H2,1*%
%TO.N,N/C*%
X94524000Y-121310400D03*
D18*
X94524000Y-121310400D03*
%TD*%
D34*
%TO.P,R14,1*%
%TO.N,/stm32g431cb/LED2*%
X122400000Y-119067000D03*
%TO.P,R14,2*%
%TO.N,Net-(D4-A)*%
X122400000Y-120892000D03*
%TD*%
D44*
%TO.P,U1,1,CPL*%
%TO.N,Net-(U1-CPL)*%
X107225000Y-108607500D03*
%TO.P,U1,2,CPH*%
%TO.N,Net-(U1-CPH)*%
X106725000Y-108607500D03*
%TO.P,U1,3,VCP*%
%TO.N,Net-(U1-VCP)*%
X106225000Y-108607500D03*
%TO.P,U1,4,VM*%
%TO.N,+BATT*%
X105725000Y-108607500D03*
%TO.P,U1,5,VDRAIN*%
X105225000Y-108607500D03*
%TO.P,U1,6,GHA*%
%TO.N,/drv8323/GHA*%
X104725000Y-108607500D03*
%TO.P,U1,7,SHA*%
%TO.N,/drv8323/SHA*%
X104225000Y-108607500D03*
%TO.P,U1,8,GLA*%
%TO.N,/drv8323/GLA*%
X103725000Y-108607500D03*
%TO.P,U1,9,SPA*%
%TO.N,/drv8323/SLA*%
X103225000Y-108607500D03*
%TO.P,U1,10,SNA*%
%TO.N,GND*%
X102725000Y-108607500D03*
D45*
%TO.P,U1,11,SNB*%
X102037500Y-109295000D03*
%TO.P,U1,12,SPB*%
%TO.N,/drv8323/SLB*%
X102037500Y-109795000D03*
%TO.P,U1,13,GLB*%
%TO.N,/drv8323/GLB*%
X102037500Y-110295000D03*
%TO.P,U1,14,SHB*%
%TO.N,/drv8323/SHB*%
X102037500Y-110795000D03*
%TO.P,U1,15,GHB*%
%TO.N,/drv8323/GHB*%
X102037500Y-111295000D03*
%TO.P,U1,16,GHC*%
%TO.N,/drv8323/GHC*%
X102037500Y-111795000D03*
%TO.P,U1,17,SHC*%
%TO.N,/drv8323/SHC*%
X102037500Y-112295000D03*
%TO.P,U1,18,GLC*%
%TO.N,/drv8323/GLC*%
X102037500Y-112795000D03*
%TO.P,U1,19,SPC*%
%TO.N,/drv8323/SLC*%
X102037500Y-113295000D03*
%TO.P,U1,20,SNC*%
%TO.N,GND*%
X102037500Y-113795000D03*
D44*
%TO.P,U1,21,SOC*%
%TO.N,/stm32g431cb/ADC1_3*%
X102725000Y-114482500D03*
%TO.P,U1,22,SOB*%
%TO.N,/stm32g431cb/ADC1_2*%
X103225000Y-114482500D03*
%TO.P,U1,23,SOA*%
%TO.N,/stm32g431cb/ADC1_1*%
X103725000Y-114482500D03*
%TO.P,U1,24,VREF*%
%TO.N,+3.3VA*%
X104225000Y-114482500D03*
%TO.P,U1,25,nFAULT*%
%TO.N,/stm32g431cb/FAULTB*%
X104725000Y-114482500D03*
%TO.P,U1,26,SDO*%
%TO.N,/drv8323/SPI1_MISO*%
X105225000Y-114482500D03*
%TO.P,U1,27,SDI*%
%TO.N,/drv8323/SPI1_MOSI*%
X105725000Y-114482500D03*
%TO.P,U1,28,SCLK*%
%TO.N,/drv8323/SPI1_CLK*%
X106225000Y-114482500D03*
%TO.P,U1,29,nSCS*%
%TO.N,/stm32g431cb/SS_DRV*%
X106725000Y-114482500D03*
%TO.P,U1,30,ENABLE*%
%TO.N,/stm32g431cb/DRV_ENABLE*%
X107225000Y-114482500D03*
D45*
%TO.P,U1,31,CAL*%
%TO.N,/stm32g431cb/DRV_CAL*%
X107912500Y-113795000D03*
%TO.P,U1,32,AGND*%
%TO.N,GND*%
X107912500Y-113295000D03*
%TO.P,U1,33,DVDD*%
%TO.N,Net-(U1-DVDD)*%
X107912500Y-112795000D03*
%TO.P,U1,34,INHA*%
%TO.N,/stm32g431cb/TIM4_INHA*%
X107912500Y-112295000D03*
%TO.P,U1,35,INLA*%
%TO.N,/stm32g431cb/INLA*%
X107912500Y-111795000D03*
%TO.P,U1,36,INHB*%
%TO.N,/stm32g431cb/TIM4_INHB*%
X107912500Y-111295000D03*
%TO.P,U1,37,INLB*%
%TO.N,/stm32g431cb/INLB*%
X107912500Y-110795000D03*
%TO.P,U1,38,INHC*%
%TO.N,/stm32g431cb/TIM4_INHC*%
X107912500Y-110295000D03*
%TO.P,U1,39,INLC*%
%TO.N,/stm32g431cb/INLC*%
X107912500Y-109795000D03*
%TO.P,U1,40,PGND*%
%TO.N,GND*%
X107912500Y-109295000D03*
D46*
%TO.P,U1,41,GND*%
X106400000Y-110245000D03*
X104975000Y-110255000D03*
X103575000Y-110270000D03*
X106400000Y-111520000D03*
X103575000Y-111520000D03*
X104975000Y-111525000D03*
D47*
X104975000Y-111545000D03*
D46*
X106400000Y-112795000D03*
X104975000Y-112795000D03*
X103575000Y-112820000D03*
%TD*%
D29*
%TO.P,Q1,1,TR1_GATE*%
%TO.N,Net-(Q1-TR1_GATE)*%
X116630000Y-88555000D03*
%TO.P,Q1,2,TR1_DRAIN1*%
%TO.N,+BATT*%
X116630000Y-89825000D03*
%TO.P,Q1,3,TR1_DRAIN2*%
X116630000Y-91095000D03*
%TO.P,Q1,4,TR1_DRAIN3*%
X116630000Y-92365000D03*
%TO.P,Q1,5,TR2_SOURCE1*%
%TO.N,/drv8323/SLA*%
X122420000Y-92365000D03*
%TO.P,Q1,6,TR2_SOURCE2*%
X122420000Y-91095000D03*
%TO.P,Q1,7,TR2_SOURCE3*%
X122420000Y-89825000D03*
%TO.P,Q1,8,TR2_GATE*%
%TO.N,Net-(Q1-TR2_GATE)*%
X122420000Y-88555000D03*
D30*
%TO.P,Q1,9,TR1_SOURCE/TR2_DRAIN*%
%TO.N,/drv8323/SHA*%
X119980000Y-90460000D03*
D31*
%TO.P,Q1,10,TR1_DRAIN4*%
%TO.N,+BATT*%
X117955000Y-90460000D03*
D32*
%TO.P,Q1,11,TR1_DRAIN5*%
X117305000Y-90920000D03*
%TD*%
D48*
%TO.P,D7,1,K*%
%TO.N,Net-(D7-K)*%
X134670000Y-93090000D03*
%TO.P,D7,2,A*%
%TO.N,/stm32g431cb/LED_CAN_TX*%
X134670000Y-94665000D03*
%TD*%
%TO.P,D8,1,K*%
%TO.N,Net-(D8-K)*%
X132996800Y-93095900D03*
%TO.P,D8,2,A*%
%TO.N,/stm32g431cb/LED_CAN_RX*%
X132996800Y-94670900D03*
%TD*%
D34*
%TO.P,R12,1*%
%TO.N,/stm32g431cb/LED1*%
X120573500Y-119059000D03*
%TO.P,R12,2*%
%TO.N,Net-(D3-A)*%
X120573500Y-120884000D03*
%TD*%
D49*
%TO.P,C26,1*%
%TO.N,/stm32g431cb/SW1*%
X117562500Y-121130000D03*
%TO.P,C26,2*%
%TO.N,GND*%
X117562500Y-122855000D03*
%TD*%
D19*
%TO.P,C7,1*%
%TO.N,+3.3VA*%
X101340000Y-118290000D03*
%TO.P,C7,2*%
%TO.N,GND*%
X100205000Y-118290000D03*
%TD*%
D50*
%TO.N,+BATT*%
X107365800Y-88757800D03*
X107365800Y-89672200D03*
X106045000Y-91094600D03*
X94979200Y-91142400D03*
X96300000Y-90583600D03*
X106807000Y-90078600D03*
X95741200Y-91091600D03*
X106045000Y-92364600D03*
X117948000Y-88783600D03*
X96300000Y-92260000D03*
X94979200Y-92412400D03*
X96300000Y-88805600D03*
X117948000Y-89698000D03*
X106807000Y-91043800D03*
D51*
X92250000Y-92860000D03*
D50*
X117389200Y-90104400D03*
X116627200Y-89850400D03*
D51*
X94400000Y-103410000D03*
D50*
X117948000Y-91374400D03*
X107365800Y-91348600D03*
X107365800Y-90535800D03*
D51*
X94400000Y-104610000D03*
D50*
X106807000Y-92059800D03*
X116627200Y-91120400D03*
X96300000Y-89720000D03*
X117948000Y-92238000D03*
X96300000Y-91396400D03*
X117948000Y-90561600D03*
X116627200Y-92390400D03*
D51*
X94410000Y-105800000D03*
D50*
X117389200Y-92085600D03*
X106045000Y-89824600D03*
X94979200Y-89872400D03*
X117389200Y-91069600D03*
X107365800Y-92212200D03*
X95741200Y-92107600D03*
X95741200Y-90126400D03*
D51*
X105814242Y-101860638D03*
%TO.N,GND*%
X118790000Y-103840000D03*
X91084400Y-84734400D03*
X139954000Y-90474800D03*
X125628400Y-124714000D03*
X130973600Y-78689200D03*
X118580000Y-122855000D03*
X118960000Y-78660000D03*
X113140000Y-113210000D03*
X92964000Y-117144800D03*
X138887200Y-83413600D03*
D50*
X105079800Y-94853800D03*
D51*
X118970000Y-77470000D03*
X91084400Y-110337600D03*
X92964000Y-117144800D03*
X110490000Y-124714000D03*
X91960000Y-88800000D03*
X111709200Y-75895200D03*
X100584000Y-80975200D03*
X100890000Y-114210000D03*
D50*
X104622600Y-95717400D03*
D51*
X101346000Y-81991200D03*
X98628199Y-123418601D03*
X96062800Y-83413600D03*
X91084400Y-95199200D03*
X99302500Y-118290000D03*
X128390000Y-113430000D03*
D50*
X105079800Y-96530200D03*
D51*
X100431598Y-75895200D03*
X123847500Y-102270000D03*
D50*
X125326800Y-96486100D03*
X104216200Y-96530200D03*
D51*
X113510153Y-107775153D03*
X91084400Y-115316000D03*
X122670000Y-83350000D03*
X132435600Y-122986800D03*
X138633200Y-117195600D03*
X121869200Y-75895200D03*
X105359200Y-124714000D03*
X98653600Y-80822802D03*
X109640000Y-82170000D03*
X121220000Y-78689200D03*
D50*
X93232800Y-95143600D03*
D51*
X106730800Y-75895200D03*
X91084400Y-100279200D03*
X101580000Y-108170000D03*
X127000000Y-75895200D03*
X99872800Y-81991200D03*
X122000000Y-99090000D03*
X139954000Y-105765600D03*
X117360000Y-79910000D03*
X108300000Y-121125000D03*
X91084400Y-105359200D03*
X94420000Y-98070000D03*
X98690000Y-97720000D03*
X99872800Y-80010000D03*
X130973600Y-79908400D03*
X132435600Y-80822800D03*
X130973600Y-77419200D03*
X101346000Y-80010000D03*
X113893600Y-101092000D03*
X120650000Y-124714000D03*
X131870000Y-94250000D03*
X113898075Y-99470523D03*
D50*
X124463200Y-96486100D03*
X94909200Y-95143600D03*
D51*
X98602800Y-119735600D03*
X113390000Y-108800000D03*
X125779169Y-113812797D03*
X121270800Y-77470000D03*
X115417600Y-100253800D03*
X123310000Y-123820000D03*
X108480000Y-104220000D03*
D50*
X94096400Y-95600800D03*
D51*
X111140000Y-114145000D03*
X139954000Y-115874802D03*
X111930000Y-102310000D03*
X100000000Y-122260000D03*
X116992400Y-99415600D03*
X98653600Y-77673200D03*
X108940000Y-108770000D03*
X91084400Y-90068400D03*
X131470400Y-75895200D03*
X121220000Y-79908400D03*
D50*
X125326800Y-94809700D03*
D51*
X99923600Y-124714000D03*
X92405198Y-83413600D03*
X117043200Y-101092000D03*
X94410000Y-99230000D03*
X109260000Y-79780000D03*
X139954000Y-84480400D03*
X130708402Y-124714000D03*
X96012000Y-117144800D03*
D50*
X124390000Y-94830000D03*
D51*
X124610000Y-97580000D03*
D50*
X94909200Y-96007200D03*
D51*
X132435600Y-119735600D03*
X124430000Y-116380000D03*
D50*
X93232800Y-96007200D03*
D51*
X108460000Y-102670000D03*
X116789200Y-75895200D03*
X109260000Y-77480000D03*
X108350000Y-123000000D03*
X137449997Y-86140000D03*
X115570000Y-124714000D03*
X129220000Y-114060000D03*
X139954000Y-100685600D03*
X135001000Y-83388200D03*
X132689600Y-83007200D03*
X139954000Y-110744000D03*
D50*
X104216200Y-94853800D03*
D51*
X108615500Y-97860800D03*
X132435600Y-76911200D03*
X102350000Y-107490000D03*
X118960000Y-79800000D03*
X134975600Y-117195600D03*
X94410000Y-100350000D03*
X139954000Y-95605600D03*
X109260000Y-78660000D03*
D50*
X124869600Y-95673300D03*
D51*
X129634850Y-102084850D03*
%TO.N,+5V*%
X131114800Y-83058000D03*
X129920000Y-85560000D03*
X112270000Y-80930000D03*
X119880000Y-81930000D03*
X115140000Y-95630000D03*
X138450000Y-86140000D03*
%TO.N,+3.3VA*%
X133732653Y-109017347D03*
X102272038Y-118270462D03*
X104449999Y-116977519D03*
X126648600Y-110576319D03*
%TO.N,/drv8323/SLC*%
X100020000Y-98950000D03*
X97640000Y-101340000D03*
%TO.N,+3.3V*%
X136410000Y-114220000D03*
X129632500Y-103775200D03*
X130475000Y-111610000D03*
X122500000Y-102270000D03*
X130890851Y-117560851D03*
X116487500Y-122897891D03*
X132029200Y-90322400D03*
X122300000Y-104280000D03*
%TO.N,/stm32g431cb/OSC_OUT*%
X118717653Y-108037653D03*
X116687347Y-108017347D03*
%TO.N,/stm32g431cb/NRST*%
X134859109Y-116202406D03*
X123240000Y-108140000D03*
%TO.N,/drv8323/HALL_W*%
X127797500Y-101235195D03*
%TO.N,/drv8323/HALL_U*%
X127075000Y-100543825D03*
%TO.N,/drv8323/HALL_V*%
X126350000Y-97570000D03*
%TO.N,/drv8323/SHA*%
X108120000Y-83540000D03*
X108110000Y-84640000D03*
X114270000Y-93550000D03*
X106930000Y-100406396D03*
%TO.N,/drv8323/SHB*%
X106100000Y-83530000D03*
X106120000Y-84710000D03*
%TO.N,/drv8323/SHC*%
X104120000Y-84680000D03*
X104130000Y-83530000D03*
%TO.N,/drv8323/SPI1_MISO*%
X106100000Y-116940000D03*
X108580000Y-116945000D03*
%TO.N,/drv8323/SS_ENC*%
X125297500Y-101545000D03*
%TO.N,/drv8323/GHA*%
X108120000Y-101147633D03*
%TO.N,/drv8323/GHB*%
X103200000Y-98130000D03*
%TO.N,/drv8323/GHC*%
X98650000Y-98910000D03*
%TO.N,/drv8323/GLA*%
X118645000Y-98475000D03*
%TO.N,/drv8323/GLB*%
X110418200Y-93367300D03*
%TO.N,/drv8323/GLC*%
X97655000Y-102510000D03*
%TO.N,/stm32g431cb/LED1*%
X122490000Y-117180000D03*
X128280000Y-116390000D03*
%TO.N,/stm32g431cb/LED2*%
X123610000Y-117940000D03*
X130050000Y-115650000D03*
%TO.N,/stm32g431cb/LED_CAN_TX*%
X134029785Y-95710829D03*
X132073524Y-108365000D03*
%TO.N,/stm32g431cb/LED_CAN_RX*%
X133030000Y-95690000D03*
X133026339Y-106936459D03*
%TO.N,/stm32g431cb/ADC1_3*%
X105850000Y-120440000D03*
X117150000Y-113140000D03*
%TO.N,/stm32g431cb/ADC1_2*%
X108280000Y-119580000D03*
X115992653Y-113092653D03*
%TO.N,/stm32g431cb/ADC1_1*%
X114850000Y-113180000D03*
X109210000Y-118845000D03*
%TO.N,/stm32g431cb/CAN_TX*%
X131370754Y-97049246D03*
X132050178Y-105626136D03*
%TO.N,/stm32g431cb/CAN_RX*%
X131353849Y-96007035D03*
X132075812Y-106625807D03*
%TO.N,Net-(Q2-TR2_GATE)*%
X113183800Y-88590400D03*
%TO.N,Net-(Q2-TR1_GATE)*%
X104423800Y-88554600D03*
%TO.N,Net-(Q3-TR1_GATE)*%
X93309600Y-88601220D03*
%TO.N,Net-(Q3-TR2_GATE)*%
X102352000Y-88601220D03*
%TO.N,/drv8323/SPI2_CLK*%
X128500000Y-109460200D03*
%TO.N,/drv8323/SPI2_MOSI*%
X127550000Y-107865000D03*
%TO.N,/drv8323/SPI2_MISO*%
X126410000Y-107150000D03*
%TO.N,/stm32g431cb/TIM4_INHC*%
X110005305Y-109755305D03*
X124072500Y-106815921D03*
%TO.N,/stm32g431cb/TIM4_INHA*%
X113920000Y-112290000D03*
X125470000Y-109110000D03*
%TO.N,/stm32g431cb/TIM4_INHB*%
X124380000Y-108950000D03*
X111669195Y-110323800D03*
%TO.N,Net-(Q1-TR2_GATE)*%
X124126500Y-88565200D03*
%TO.N,Net-(Q1-TR1_GATE)*%
X115310800Y-88580400D03*
%TD*%
D52*
%TO.N,+BATT*%
X105745000Y-104202500D02*
X105742500Y-104200000D01*
X105742500Y-102655000D02*
X105747500Y-102650000D01*
X105725000Y-105760000D02*
X105745000Y-105740000D01*
X92280000Y-91632500D02*
X92280000Y-92830000D01*
X105745000Y-105740000D02*
X105745000Y-104202500D01*
X105747500Y-101927380D02*
X105747500Y-102650000D01*
X105814242Y-101860638D02*
X105747500Y-101927380D01*
X92280000Y-92830000D02*
X92250000Y-92860000D01*
X105742500Y-104200000D02*
X105742500Y-102655000D01*
X105725000Y-108607500D02*
X105725000Y-105760000D01*
D53*
%TO.N,GND*%
X132435600Y-76860400D02*
X131470400Y-75895200D01*
D54*
X95970400Y-95599620D02*
X93970400Y-95599620D01*
D52*
X99995000Y-122255000D02*
X100000000Y-122260000D01*
X92280000Y-89907500D02*
X92280000Y-89120000D01*
X108940000Y-108770000D02*
X108415000Y-109295000D01*
X126974600Y-90854600D02*
X126974600Y-89320600D01*
X129225000Y-114065000D02*
X130400000Y-114065000D01*
X134688000Y-89657500D02*
X134688000Y-88042000D01*
D53*
X134975600Y-117195600D02*
X138633200Y-117195600D01*
D52*
X122000000Y-98550000D02*
X122000000Y-99090000D01*
X123572500Y-102545000D02*
X123572500Y-103727500D01*
X129220000Y-114060000D02*
X129225000Y-114065000D01*
X113510153Y-107769847D02*
X114025000Y-107255000D01*
X122682800Y-83362800D02*
X122670000Y-83350000D01*
D53*
X116789200Y-75895200D02*
X111709200Y-75895200D01*
D52*
X125560000Y-116400000D02*
X127090000Y-116400000D01*
D53*
X121869200Y-75895200D02*
X116789200Y-75895200D01*
X132435600Y-76911200D02*
X132435600Y-80822800D01*
D52*
X107467500Y-104200000D02*
X108460000Y-104200000D01*
X99602900Y-97719620D02*
X98690380Y-97719620D01*
X109455000Y-122180000D02*
X109170000Y-122180000D01*
X123846800Y-83362800D02*
X122682800Y-83362800D01*
X128390000Y-113430000D02*
X128390000Y-113175264D01*
X107240000Y-121125000D02*
X108300000Y-121125000D01*
D54*
X122850000Y-95673300D02*
X124850000Y-95673300D01*
D52*
X128244600Y-94270600D02*
X128244600Y-92124600D01*
D53*
X99923600Y-124714000D02*
X98602800Y-123393202D01*
D52*
X126974600Y-89320600D02*
X123846800Y-86192800D01*
D53*
X98602800Y-119735600D02*
X98602800Y-123393202D01*
D52*
X119725000Y-103840000D02*
X118790000Y-103840000D01*
D53*
X132435600Y-122986800D02*
X130708402Y-124714000D01*
D52*
X128650000Y-123885000D02*
X128655000Y-123880000D01*
X134970000Y-86140000D02*
X137449997Y-86140000D01*
X113512500Y-109760000D02*
X113415000Y-109662500D01*
X118580000Y-122855000D02*
X117562500Y-122855000D01*
X113510153Y-107775153D02*
X113510153Y-107769847D01*
X113380000Y-108810000D02*
X113390000Y-108800000D01*
X109170000Y-122180000D02*
X108350000Y-123000000D01*
X120559500Y-123502600D02*
X120557600Y-123504500D01*
X125779169Y-113812797D02*
X126072500Y-113519466D01*
D53*
X125628400Y-124714000D02*
X130708402Y-124714000D01*
D52*
X134686400Y-89655900D02*
X134688000Y-89657500D01*
X108440000Y-102650000D02*
X108460000Y-102670000D01*
X122590000Y-123825000D02*
X120575600Y-123825000D01*
X110670000Y-82170000D02*
X109640000Y-82170000D01*
X114470000Y-108673044D02*
X115470000Y-109673044D01*
X131911300Y-103463200D02*
X130648500Y-102200400D01*
D53*
X98653600Y-77673200D02*
X100431598Y-75895200D01*
X132435600Y-80822800D02*
X135001000Y-83388200D01*
X92862400Y-117144800D02*
X96012000Y-117144800D01*
D52*
X129634850Y-102084850D02*
X130532950Y-102084850D01*
D53*
X139954000Y-105765600D02*
X139954000Y-110744000D01*
D52*
X102037500Y-109295000D02*
X102037500Y-108627500D01*
X123310000Y-123820000D02*
X123325000Y-123805000D01*
X123325000Y-123805000D02*
X124620000Y-123805000D01*
X102725000Y-107865000D02*
X102350000Y-107490000D01*
X134688000Y-88042000D02*
X136590000Y-86140000D01*
X123310000Y-123820000D02*
X122595000Y-123820000D01*
X111860000Y-83360000D02*
X110670000Y-82170000D01*
X128244600Y-94647351D02*
X128244600Y-94270600D01*
X115472500Y-109924294D02*
X115472500Y-110011250D01*
X113380000Y-109772500D02*
X113380000Y-108810000D01*
X128655000Y-123880000D02*
X129940000Y-123880000D01*
X119745000Y-103820000D02*
X119725000Y-103840000D01*
X126650000Y-123835000D02*
X124650000Y-123835000D01*
D53*
X139954000Y-110744000D02*
X139954000Y-115874800D01*
D52*
X122387500Y-123802500D02*
X122400000Y-123815000D01*
X109035424Y-113295000D02*
X109885424Y-114145000D01*
X124610000Y-98617500D02*
X124610000Y-97580000D01*
X107472500Y-102650000D02*
X108440000Y-102650000D01*
X109720000Y-97810000D02*
X108666300Y-97810000D01*
X126072500Y-113519466D02*
X126072500Y-112052500D01*
X99995000Y-122220000D02*
X99995000Y-122255000D01*
X128072500Y-112857764D02*
X128072500Y-112052500D01*
X122405000Y-123810000D02*
X122400000Y-123815000D01*
X131059595Y-105590000D02*
X131061008Y-105590000D01*
X114460000Y-108648750D02*
X114472500Y-108661250D01*
D53*
X132435600Y-119735600D02*
X134975600Y-117195600D01*
D52*
X131911300Y-104739708D02*
X131911300Y-103463200D01*
X124650000Y-123835000D02*
X124620000Y-123805000D01*
X123846800Y-86192800D02*
X123846800Y-83362800D01*
D53*
X135001000Y-83388200D02*
X135026400Y-83413600D01*
X111709200Y-75895200D02*
X100431598Y-75895200D01*
D52*
X102725000Y-108607500D02*
X102725000Y-107865000D01*
X123847500Y-102270000D02*
X123572500Y-102545000D01*
X125560000Y-116400000D02*
X124450000Y-116400000D01*
D53*
X138633200Y-117195600D02*
X139954000Y-115874800D01*
X99923600Y-124714000D02*
X105359200Y-124714000D01*
X96012000Y-117144800D02*
X98602800Y-119735600D01*
D52*
X114025000Y-107255000D02*
X114457500Y-107255000D01*
X113140000Y-113210000D02*
X112015000Y-113210000D01*
D53*
X98653600Y-77673200D02*
X98653600Y-80822802D01*
D52*
X132996800Y-89655900D02*
X132996800Y-88113200D01*
X128390000Y-113175264D02*
X128072500Y-112857764D01*
X109885424Y-114145000D02*
X111140000Y-114145000D01*
X114457500Y-107255000D02*
X114457500Y-108397500D01*
X108460000Y-104200000D02*
X108480000Y-104220000D01*
X102037500Y-113795000D02*
X101305000Y-113795000D01*
X126150000Y-124040100D02*
X126203898Y-124040100D01*
D53*
X96062800Y-83413600D02*
X98653600Y-80822802D01*
D52*
X102037500Y-108627500D02*
X101580000Y-108170000D01*
X135026400Y-83413600D02*
X135026402Y-83413600D01*
D53*
X131470400Y-75895200D02*
X121869200Y-75895200D01*
D52*
X132996800Y-88113200D02*
X134970000Y-86140000D01*
D53*
X91084400Y-84734400D02*
X92405198Y-83413600D01*
D52*
X131009595Y-105640000D02*
X131059595Y-105590000D01*
X101155000Y-122220000D02*
X99995000Y-122220000D01*
D53*
X139954000Y-95605600D02*
X139954000Y-100685600D01*
D52*
X124619500Y-123805500D02*
X124620000Y-123805000D01*
D54*
X106693000Y-95717400D02*
X104693000Y-95717400D01*
D52*
X120760000Y-97750000D02*
X121200000Y-97750000D01*
X136590000Y-86140000D02*
X137449997Y-86140000D01*
D53*
X92862400Y-117144800D02*
X91084400Y-115366802D01*
X139954000Y-100685600D02*
X139954000Y-105765600D01*
D52*
X96024900Y-95545120D02*
X95970400Y-95599620D01*
X92280000Y-89120000D02*
X91960000Y-88800000D01*
D53*
X139954000Y-84480400D02*
X139954000Y-90474800D01*
D52*
X101305000Y-113795000D02*
X100890000Y-114210000D01*
D53*
X138887200Y-83413600D02*
X139954000Y-84480400D01*
X91084400Y-84734400D02*
X91084400Y-115366802D01*
D52*
X108415000Y-109295000D02*
X107912500Y-109295000D01*
X124450000Y-116400000D02*
X124430000Y-116380000D01*
X121200000Y-97750000D02*
X122000000Y-98550000D01*
D53*
X139954000Y-90474800D02*
X139954000Y-95605600D01*
X105359200Y-124714000D02*
X120650000Y-124714000D01*
X138887200Y-83413600D02*
X135026402Y-83413600D01*
D52*
X130532950Y-102084850D02*
X130648500Y-102200400D01*
X119745000Y-102250000D02*
X119745000Y-103820000D01*
X129985000Y-105640000D02*
X131009595Y-105640000D01*
X120575600Y-123825000D02*
X120557600Y-123807000D01*
X128244600Y-92124600D02*
X126974600Y-90854600D01*
X98690380Y-97719620D02*
X98690000Y-97720000D01*
X131061008Y-105590000D02*
X131911300Y-104739708D01*
D53*
X96062800Y-83413600D02*
X92405198Y-83413600D01*
D52*
X126114500Y-123760000D02*
X126150000Y-123795500D01*
X100205000Y-118290000D02*
X99302500Y-118290000D01*
X126200000Y-123845500D02*
X126150000Y-123795500D01*
D53*
X132435600Y-76860400D02*
X132435600Y-76911200D01*
D52*
X107912500Y-113295000D02*
X109035424Y-113295000D01*
X122410500Y-123825500D02*
X122400000Y-123815000D01*
X128650000Y-123885000D02*
X126700000Y-123885000D01*
D53*
X120650000Y-124714000D02*
X125628400Y-124714000D01*
X132435600Y-122986800D02*
X132435600Y-119735600D01*
D52*
%TO.N,+5V*%
X130784600Y-86424600D02*
X129920000Y-85560000D01*
X130784600Y-90754200D02*
X129514600Y-92024200D01*
X130784600Y-89320600D02*
X130784600Y-90754200D01*
X129514600Y-92024200D02*
X129514600Y-94270600D01*
X118450000Y-83360000D02*
X119880000Y-81930000D01*
X128346800Y-83362800D02*
X128346800Y-83986800D01*
X116360000Y-83360000D02*
X118450000Y-83360000D01*
X130784600Y-89320600D02*
X130784600Y-86424600D01*
X128346800Y-83986800D02*
X129920000Y-85560000D01*
%TO.N,+3.3VA*%
X104225000Y-115647500D02*
X104225000Y-114482500D01*
X133732653Y-115744354D02*
X133732653Y-109017347D01*
X126572500Y-110652419D02*
X126648600Y-110576319D01*
X104225000Y-115647500D02*
X104225000Y-116752520D01*
X126572500Y-114108448D02*
X126572500Y-112052500D01*
X125830948Y-114850000D02*
X126572500Y-114108448D01*
X125560000Y-114850000D02*
X125632500Y-114777500D01*
X129970000Y-118995000D02*
X130482007Y-118995000D01*
X104225000Y-116752520D02*
X104449999Y-116977519D01*
X102252500Y-118290000D02*
X102272038Y-118270462D01*
X125560000Y-114850000D02*
X125830948Y-114850000D01*
X130482007Y-118995000D02*
X133732653Y-115744354D01*
X126572500Y-112052500D02*
X126572500Y-110652419D01*
X101340000Y-118290000D02*
X102252500Y-118290000D01*
%TO.N,/drv8323/SLA*%
X112046800Y-97743200D02*
X117530000Y-97743200D01*
D55*
X117908400Y-95814900D02*
X118050000Y-95673300D01*
D56*
X122420000Y-92813300D02*
X119560000Y-95673300D01*
D52*
X117970000Y-97750000D02*
X119625000Y-97750000D01*
D55*
X118050000Y-94872900D02*
X118050000Y-95673300D01*
D52*
X110558604Y-99231396D02*
X112046800Y-97743200D01*
X118164000Y-95559300D02*
X118050000Y-95673300D01*
X118050000Y-97223200D02*
X117530000Y-97743200D01*
X105398604Y-99231396D02*
X110558604Y-99231396D01*
D56*
X122420000Y-89825000D02*
X122420000Y-92365000D01*
X119560000Y-95673300D02*
X118050000Y-95673300D01*
D52*
X118050000Y-95673300D02*
X118050000Y-97223200D01*
D56*
X122420000Y-92365000D02*
X122420000Y-92813300D01*
D52*
X103225000Y-108607500D02*
X103225000Y-101405000D01*
X117963200Y-97743200D02*
X117970000Y-97750000D01*
X117530000Y-97743200D02*
X117963200Y-97743200D01*
X103225000Y-101405000D02*
X105398604Y-99231396D01*
D56*
%TO.N,/drv8323/SLB*%
X111493000Y-94033000D02*
X111840600Y-93685400D01*
D52*
X111840600Y-93685400D02*
X111840000Y-93684800D01*
X105121396Y-98781396D02*
X109883604Y-98781396D01*
X101095000Y-109795000D02*
X100840000Y-109540000D01*
D56*
X111493000Y-95717400D02*
X111493000Y-94033000D01*
D52*
X110855000Y-97810000D02*
X110880000Y-97810000D01*
X111493000Y-97197000D02*
X111493000Y-95717400D01*
X100840000Y-103062792D02*
X105121396Y-98781396D01*
X102037500Y-109795000D02*
X101095000Y-109795000D01*
X109883604Y-98781396D02*
X110855000Y-97810000D01*
D56*
X111840000Y-93684800D02*
X111840000Y-89850000D01*
D52*
X111487900Y-96538700D02*
X111542400Y-96484200D01*
X110880000Y-97810000D02*
X111493000Y-97197000D01*
X100840000Y-109540000D02*
X100840000Y-103062792D01*
%TO.N,/drv8323/SLC*%
X102037500Y-113295000D02*
X98375000Y-113295000D01*
X100737900Y-97719620D02*
X100737900Y-95632120D01*
D55*
X100770400Y-96140400D02*
X100770400Y-95599620D01*
D52*
X96930000Y-111850000D02*
X96930000Y-102050000D01*
X100737900Y-95632120D02*
X100770400Y-95599620D01*
X98375000Y-113295000D02*
X97400000Y-112320000D01*
D56*
X100774200Y-89847000D02*
X100774200Y-92387000D01*
D52*
X100020000Y-98950000D02*
X100020000Y-98850000D01*
X100020000Y-98850000D02*
X100737900Y-98132100D01*
X96930000Y-102050000D02*
X97640000Y-101340000D01*
D56*
X100774200Y-92387000D02*
X100774200Y-95595820D01*
D52*
X100737900Y-98132100D02*
X100737900Y-97719620D01*
X100770400Y-94654800D02*
X100770400Y-95599620D01*
X97400000Y-112320000D02*
X96930000Y-111850000D01*
D56*
X100774200Y-95595820D02*
X100770400Y-95599620D01*
D52*
%TO.N,+3.3V*%
X130874612Y-105140000D02*
X131461300Y-104553312D01*
X127072500Y-111249315D02*
X127072500Y-112052500D01*
X130475000Y-111610000D02*
X130400000Y-111685000D01*
X131461300Y-104553312D02*
X131461300Y-103927600D01*
X136238750Y-100758750D02*
X136620000Y-101140000D01*
X128864200Y-118182500D02*
X130269202Y-118182500D01*
X121315000Y-102270000D02*
X121295000Y-102250000D01*
X130648500Y-103750400D02*
X129657300Y-103750400D01*
X136620000Y-101140000D02*
X136620000Y-105320000D01*
X130269202Y-118182500D02*
X130890851Y-117560851D01*
X136387500Y-115200000D02*
X136387500Y-114242500D01*
X129485000Y-112515000D02*
X130400000Y-112515000D01*
X121275000Y-102270000D02*
X121295000Y-102250000D01*
X123072500Y-102842500D02*
X122500000Y-102270000D01*
X122030000Y-103840000D02*
X121275000Y-103840000D01*
X129030000Y-112510000D02*
X129480000Y-112510000D01*
X131284100Y-103750400D02*
X130648500Y-103750400D01*
X128311985Y-110988800D02*
X127333015Y-110988800D01*
X128572500Y-112052500D02*
X128572500Y-111249315D01*
X122300000Y-104280000D02*
X122300000Y-104090000D01*
X115450000Y-122905000D02*
X116480391Y-122905000D01*
X122040000Y-103830000D02*
X122030000Y-103840000D01*
X128060000Y-118986700D02*
X128864200Y-118182500D01*
X127333015Y-110988800D02*
X127072500Y-111249315D01*
X128572500Y-111249315D02*
X128311985Y-110988800D01*
X129985000Y-105140000D02*
X130874612Y-105140000D01*
X121660000Y-104920000D02*
X122300000Y-104280000D01*
X122300000Y-104090000D02*
X122040000Y-103830000D01*
X129657300Y-103750400D02*
X129632500Y-103775200D01*
X129480000Y-112510000D02*
X129485000Y-112515000D01*
X136238750Y-100758750D02*
X136238750Y-99201250D01*
X130400000Y-111685000D02*
X130400000Y-112515000D01*
X121660000Y-105140000D02*
X121660000Y-104920000D01*
X122500000Y-102270000D02*
X121315000Y-102270000D01*
X131461300Y-103927600D02*
X131284100Y-103750400D01*
X136387500Y-114242500D02*
X136410000Y-114220000D01*
X123072500Y-103727500D02*
X123072500Y-102842500D01*
X116480391Y-122905000D02*
X116487500Y-122897891D01*
X136238750Y-99201250D02*
X136241250Y-99198750D01*
X127072500Y-114832500D02*
X127090000Y-114850000D01*
X128572500Y-112052500D02*
X129030000Y-112510000D01*
X127072500Y-112052500D02*
X127072500Y-114832500D01*
%TO.N,/stm32g431cb/OSC_OUT*%
X115470000Y-108410000D02*
X116294694Y-108410000D01*
X115470000Y-107377500D02*
X115592500Y-107255000D01*
X119642347Y-108037653D02*
X120040000Y-107640000D01*
X118717653Y-108037653D02*
X119642347Y-108037653D01*
X115470000Y-108410000D02*
X115470000Y-107377500D01*
X120040000Y-107640000D02*
X121660000Y-107640000D01*
X116294694Y-108410000D02*
X116687347Y-108017347D01*
%TO.N,/stm32g431cb/NRST*%
X131052500Y-119910000D02*
X120170000Y-119910000D01*
X134859109Y-116202406D02*
X137210094Y-116202406D01*
X120170000Y-119910000D02*
X119340000Y-120740000D01*
X107240000Y-122850000D02*
X106650000Y-122260000D01*
X134752500Y-116210000D02*
X131052500Y-119910000D01*
X134859109Y-116202406D02*
X134851515Y-116210000D01*
X119340000Y-123120305D02*
X118480305Y-123980000D01*
X106500000Y-122260000D02*
X106460000Y-122220000D01*
X121660000Y-108140000D02*
X123240000Y-108140000D01*
X118480305Y-123980000D02*
X108290000Y-123980000D01*
X108290000Y-123980000D02*
X107240000Y-122930000D01*
X106650000Y-122260000D02*
X106500000Y-122260000D01*
X134851515Y-116210000D02*
X134752500Y-116210000D01*
X106460000Y-122220000D02*
X105605000Y-122220000D01*
X107240000Y-122930000D02*
X107240000Y-122850000D01*
X137210094Y-116202406D02*
X138212500Y-115200000D01*
X138212500Y-110722500D02*
X137890000Y-110400000D01*
X138212500Y-115200000D02*
X138212500Y-110722500D01*
X107410000Y-123085000D02*
X107195000Y-123085000D01*
X119340000Y-120740000D02*
X119340000Y-123120305D01*
%TO.N,/drv8323/HALL_W*%
X127797500Y-101235195D02*
X127572500Y-101460195D01*
X127572500Y-101460195D02*
X127572500Y-103727500D01*
%TO.N,/drv8323/HALL_U*%
X127075000Y-100661400D02*
X127072500Y-100663900D01*
X127075000Y-100543825D02*
X127075000Y-100661400D01*
X127072500Y-100663900D02*
X127072500Y-103727500D01*
%TO.N,/drv8323/HALL_V*%
X126350000Y-100844130D02*
X126572500Y-101066630D01*
X126572500Y-101066630D02*
X126572500Y-103727500D01*
X126350000Y-97570000D02*
X126350000Y-100844130D01*
%TO.N,/drv8323/SHA*%
X119240000Y-93550000D02*
X119980000Y-92810000D01*
D57*
X119980000Y-87721200D02*
X119178800Y-86920000D01*
D52*
X106930000Y-100406396D02*
X105496396Y-100406396D01*
X105496396Y-100406396D02*
X104225000Y-101677792D01*
X104225000Y-101677792D02*
X104225000Y-108607500D01*
X114270000Y-93550000D02*
X119240000Y-93550000D01*
X119980000Y-92810000D02*
X119980000Y-90460000D01*
D57*
X119980000Y-90460000D02*
X119980000Y-87721200D01*
X111100000Y-86920000D02*
X111100000Y-86835836D01*
X108904164Y-84640000D02*
X108110000Y-84640000D01*
X119178800Y-86920000D02*
X111100000Y-86920000D01*
D52*
X119980000Y-87721200D02*
X119984400Y-87716800D01*
D57*
X111100000Y-86835836D02*
X108904164Y-84640000D01*
%TO.N,/drv8323/SHB*%
X106120000Y-86170000D02*
X107200000Y-87250000D01*
X107200000Y-87250000D02*
X109110000Y-87250000D01*
D52*
X109400000Y-95500000D02*
X109400000Y-90485000D01*
X100385000Y-110795000D02*
X99940000Y-110350000D01*
D57*
X109110000Y-87250000D02*
X109400000Y-87540000D01*
D52*
X107391827Y-97508173D02*
X109400000Y-95500000D01*
X99940000Y-110350000D02*
X99940000Y-102690000D01*
X105121827Y-97508173D02*
X107391827Y-97508173D01*
D57*
X109400000Y-87540000D02*
X109400000Y-90485000D01*
D52*
X99940000Y-102690000D02*
X105121827Y-97508173D01*
D57*
X106120000Y-84710000D02*
X106120000Y-86170000D01*
D52*
X102037500Y-110795000D02*
X100385000Y-110795000D01*
%TO.N,/drv8323/SHC*%
X98380000Y-111390000D02*
X98380000Y-100045305D01*
X102037500Y-112295000D02*
X99285000Y-112295000D01*
D57*
X98334200Y-87783820D02*
X99738020Y-86380000D01*
X98334200Y-90482000D02*
X98334200Y-87783820D01*
D52*
X99285000Y-112295000D02*
X98380000Y-111390000D01*
X97730000Y-99395305D02*
X97730000Y-94080000D01*
X97730000Y-94080000D02*
X98334200Y-93475800D01*
D57*
X99738020Y-86380000D02*
X103190000Y-86380000D01*
D52*
X98334200Y-93475800D02*
X98334200Y-90482000D01*
D57*
X103190000Y-86380000D02*
X104130000Y-85440000D01*
D52*
X97965000Y-90851200D02*
X98334200Y-90482000D01*
X97720000Y-91096200D02*
X98334200Y-90482000D01*
X98380000Y-100045305D02*
X97730000Y-99395305D01*
D57*
X104130000Y-85440000D02*
X104130000Y-84690000D01*
X104130000Y-84690000D02*
X104120000Y-84680000D01*
D52*
%TO.N,/drv8323/SPI1_CLK*%
X106225000Y-114482500D02*
X106225000Y-115197792D01*
X107247208Y-116220000D02*
X119573868Y-116220000D01*
X119573868Y-116220000D02*
X123072500Y-112721368D01*
X106225000Y-115197792D02*
X107247208Y-116220000D01*
X123072500Y-112721368D02*
X123072500Y-112052500D01*
%TO.N,/drv8323/SPI1_MOSI*%
X124072500Y-112994160D02*
X124072500Y-112052500D01*
X108060812Y-117670000D02*
X119396660Y-117670000D01*
X105725000Y-115334188D02*
X108060812Y-117670000D01*
X119396660Y-117670000D02*
X124072500Y-112994160D01*
X105725000Y-114482500D02*
X105725000Y-115334188D01*
%TO.N,/drv8323/SPI1_MISO*%
X106100000Y-116940000D02*
X105225000Y-116065000D01*
X108585000Y-116940000D02*
X119490264Y-116940000D01*
X105225000Y-116065000D02*
X105225000Y-114482500D01*
X119490264Y-116940000D02*
X123572500Y-112857764D01*
X108580000Y-116945000D02*
X108585000Y-116940000D01*
X123572500Y-112857764D02*
X123572500Y-112052500D01*
%TO.N,/drv8323/SS_ENC*%
X126072500Y-102320000D02*
X126072500Y-103727500D01*
X125297500Y-101545000D02*
X126072500Y-102320000D01*
%TO.N,/stm32g431cb/SWDIO*%
X138051250Y-100771250D02*
X138063750Y-100758750D01*
X138063750Y-105146250D02*
X137890000Y-105320000D01*
X128572500Y-102121895D02*
X128572500Y-103727500D01*
X137221250Y-98708750D02*
X136841250Y-98328750D01*
X138063750Y-100758750D02*
X138063750Y-105146250D01*
X135707646Y-98328750D02*
X135396250Y-98640146D01*
X133690000Y-101110000D02*
X129584395Y-101110000D01*
X137221250Y-99916250D02*
X137221250Y-98708750D01*
X136841250Y-98328750D02*
X135707646Y-98328750D01*
X133690000Y-101110000D02*
X135396250Y-99403750D01*
X135396250Y-99403750D02*
X135396250Y-98640146D01*
X138063750Y-100758750D02*
X137221250Y-99916250D01*
X129584395Y-101110000D02*
X128572500Y-102121895D01*
%TO.N,/stm32g431cb/SWCLK*%
X139102450Y-100499950D02*
X139102450Y-105377550D01*
X128072500Y-103727500D02*
X128072500Y-101985499D01*
X129397999Y-100660000D02*
X133480000Y-100660000D01*
X133480000Y-100660000D02*
X134850000Y-99290000D01*
X138066250Y-98917354D02*
X138066250Y-99198750D01*
X134850000Y-99290000D02*
X134850000Y-98550000D01*
X135521250Y-97878750D02*
X137027646Y-97878750D01*
X138066250Y-99198750D02*
X138066250Y-99463750D01*
X134850000Y-98550000D02*
X135521250Y-97878750D01*
X137027646Y-97878750D02*
X138066250Y-98917354D01*
X128072500Y-101985499D02*
X129397999Y-100660000D01*
X138066250Y-99463750D02*
X139102450Y-100499950D01*
X139102450Y-105377550D02*
X137890000Y-106590000D01*
%TO.N,Net-(D5-A)*%
X124240000Y-122209100D02*
X124240000Y-120900000D01*
%TO.N,/stm32g431cb/CAN_H*%
X119730000Y-85150000D02*
X123292200Y-81587800D01*
X125346800Y-85421800D02*
X125346800Y-83362800D01*
X123292200Y-81587800D02*
X125077800Y-81587800D01*
X113360000Y-84410000D02*
X114100000Y-85150000D01*
X126935000Y-87010000D02*
X128244600Y-88319600D01*
X126935000Y-87010000D02*
X125346800Y-85421800D01*
X128244600Y-88319600D02*
X128244600Y-89320600D01*
X113360000Y-83360000D02*
X113360000Y-84410000D01*
X125346800Y-81856800D02*
X125346800Y-83362800D01*
X125077800Y-81587800D02*
X125346800Y-81856800D01*
X114100000Y-85150000D02*
X119730000Y-85150000D01*
%TO.N,/stm32g431cb/CAN_L*%
X114860000Y-83360000D02*
X114860000Y-82360000D01*
X126846800Y-82362800D02*
X126846800Y-83362800D01*
X126846800Y-85096800D02*
X128760000Y-87010000D01*
X128770000Y-87010000D02*
X128760000Y-87010000D01*
X114860000Y-82360000D02*
X116340000Y-80880000D01*
X125371800Y-80887800D02*
X126846800Y-82362800D01*
X116347800Y-80887800D02*
X125371800Y-80887800D01*
X126846800Y-83362800D02*
X126846800Y-85096800D01*
X129514600Y-87754600D02*
X128770000Y-87010000D01*
X116340000Y-80880000D02*
X116347800Y-80887800D01*
X129514600Y-89320600D02*
X129514600Y-87754600D01*
%TO.N,/drv8323/GHA*%
X105518179Y-101131396D02*
X104725000Y-101924575D01*
X108103763Y-101131396D02*
X105518179Y-101131396D01*
X104725000Y-101924575D02*
X104725000Y-108607500D01*
X108120000Y-101147633D02*
X108103763Y-101131396D01*
%TO.N,Net-(D6-A)*%
X126150000Y-120872500D02*
X126150000Y-122220500D01*
%TO.N,/drv8323/GHB*%
X99490000Y-102503604D02*
X99490000Y-110830000D01*
X103200000Y-98793604D02*
X99490000Y-102503604D01*
X99955000Y-111295000D02*
X102037500Y-111295000D01*
X99490000Y-110830000D02*
X99955000Y-111295000D01*
X103200000Y-98130000D02*
X103200000Y-98793604D01*
%TO.N,/drv8323/GHC*%
X99585000Y-111795000D02*
X102037500Y-111795000D01*
X98940000Y-99200000D02*
X98940000Y-111150000D01*
X98650000Y-98910000D02*
X98940000Y-99200000D01*
X98940000Y-111150000D02*
X99585000Y-111795000D01*
%TO.N,/drv8323/GLA*%
X110745000Y-99681396D02*
X105585000Y-99681396D01*
X103725000Y-101541396D02*
X103725000Y-108607500D01*
X118645000Y-98475000D02*
X111951396Y-98475000D01*
X105585000Y-99681396D02*
X103725000Y-101541396D01*
X111951396Y-98475000D02*
X110745000Y-99681396D01*
%TO.N,/drv8323/GLB*%
X107539402Y-98088198D02*
X110011800Y-95615800D01*
X100390000Y-102876396D02*
X105178198Y-98088198D01*
X100815000Y-110295000D02*
X100390000Y-109870000D01*
X110011800Y-95615800D02*
X110011800Y-93773700D01*
X100390000Y-109870000D02*
X100390000Y-102876396D01*
X102037500Y-110295000D02*
X100815000Y-110295000D01*
X105178198Y-98088198D02*
X107539402Y-98088198D01*
X110011800Y-93773700D02*
X110418200Y-93367300D01*
%TO.N,/drv8323/GLC*%
X97960000Y-112010000D02*
X97655000Y-111705000D01*
X102037500Y-112795000D02*
X98745000Y-112795000D01*
X97655000Y-111705000D02*
X97655000Y-102510000D01*
X98745000Y-112795000D02*
X97960000Y-112010000D01*
%TO.N,/stm32g431cb/LED1*%
X128280000Y-116390000D02*
X128280000Y-114560000D01*
X127572500Y-113852500D02*
X127572500Y-112052500D01*
X120573500Y-119059000D02*
X120611000Y-119059000D01*
X120611000Y-119059000D02*
X122490000Y-117180000D01*
X128280000Y-114560000D02*
X127572500Y-113852500D01*
%TO.N,/stm32g431cb/OSC_IN*%
X118590000Y-107140000D02*
X116560000Y-109170000D01*
X121660000Y-107140000D02*
X118590000Y-107140000D01*
X116560000Y-110340000D02*
X115943750Y-110956250D01*
X116560000Y-109170000D02*
X116560000Y-110340000D01*
X115943750Y-110956250D02*
X115685000Y-110956250D01*
X115857500Y-111128750D02*
X115685000Y-110956250D01*
%TO.N,/stm32g431cb/LED2*%
X122400000Y-119067000D02*
X122400000Y-118950000D01*
X131200000Y-114530000D02*
X131200000Y-111050000D01*
X130050000Y-115650000D02*
X130080000Y-115650000D01*
X130080000Y-115650000D02*
X131200000Y-114530000D01*
X131200000Y-111050000D02*
X130790000Y-110640000D01*
X122590000Y-118960000D02*
X123610000Y-117940000D01*
X130790000Y-110640000D02*
X129985000Y-110640000D01*
%TO.N,/stm32g431cb/LED3*%
X130926396Y-110140000D02*
X129985000Y-110140000D01*
X131650000Y-115140000D02*
X131650000Y-110863604D01*
X124255900Y-119059100D02*
X124255900Y-118624100D01*
X129580000Y-117210000D02*
X131650000Y-115140000D01*
X131650000Y-110863604D02*
X130926396Y-110140000D01*
X129999800Y-110125200D02*
X129985000Y-110140000D01*
X124255900Y-118624100D02*
X125670000Y-117210000D01*
X125670000Y-117210000D02*
X129580000Y-117210000D01*
%TO.N,/stm32g431cb/LED4*%
X126150000Y-119047500D02*
X126150000Y-118670000D01*
X132100000Y-110150000D02*
X131090000Y-109140000D01*
X127160000Y-117660000D02*
X129766396Y-117660000D01*
X126150000Y-118670000D02*
X127160000Y-117660000D01*
X132100000Y-115326396D02*
X132100000Y-110150000D01*
X131090000Y-109140000D02*
X129985000Y-109140000D01*
X129766396Y-117660000D02*
X132100000Y-115326396D01*
%TO.N,/stm32g431cb/LED_CAN_TX*%
X131848524Y-108140000D02*
X129985000Y-108140000D01*
X134029785Y-95710829D02*
X134359171Y-95710829D01*
X134359171Y-95710829D02*
X134535000Y-95535000D01*
X134535000Y-94800000D02*
X134670000Y-94665000D01*
X132073524Y-108365000D02*
X131848524Y-108140000D01*
X134535000Y-95535000D02*
X134535000Y-94800000D01*
%TO.N,/stm32g431cb/LED_CAN_RX*%
X133030000Y-94704100D02*
X132996800Y-94670900D01*
X133030000Y-95690000D02*
X133030000Y-94704100D01*
X129985000Y-107640000D02*
X132322798Y-107640000D01*
X132322798Y-107640000D02*
X133026339Y-106936459D01*
%TO.N,/stm32g431cb/SW1*%
X114350000Y-122180000D02*
X115450000Y-121080000D01*
X125572500Y-112994160D02*
X125001660Y-113565000D01*
X117562500Y-120776952D02*
X117562500Y-121130000D01*
X115450000Y-121080000D02*
X117512500Y-121080000D01*
X124774452Y-113565000D02*
X117562500Y-120776952D01*
X125572500Y-112052500D02*
X125572500Y-112994160D01*
X117512500Y-121080000D02*
X117562500Y-121130000D01*
X125001660Y-113565000D02*
X124774452Y-113565000D01*
X113905000Y-122180000D02*
X114350000Y-122180000D01*
%TO.N,/stm32g431cb/ADC1_3*%
X105614382Y-120440000D02*
X102725000Y-117550618D01*
X105850000Y-120440000D02*
X105614382Y-120440000D01*
X102725000Y-117550618D02*
X102725000Y-114482500D01*
X117150000Y-113140000D02*
X120650000Y-109640000D01*
X120650000Y-109640000D02*
X121660000Y-109640000D01*
%TO.N,/stm32g431cb/ADC1_2*%
X108280000Y-119580000D02*
X105390778Y-119580000D01*
X115992653Y-113062651D02*
X119915304Y-109140000D01*
X119915304Y-109140000D02*
X121660000Y-109140000D01*
X105390778Y-119580000D02*
X103225000Y-117414222D01*
X115992653Y-113092653D02*
X115992653Y-113062651D01*
X103225000Y-117414222D02*
X103225000Y-114482500D01*
%TO.N,/stm32g431cb/ADC1_1*%
X109210000Y-118845000D02*
X105292174Y-118845000D01*
X119390000Y-108640000D02*
X121660000Y-108640000D01*
X114850000Y-113180000D02*
X119390000Y-108640000D01*
X103725000Y-117277826D02*
X103725000Y-114482500D01*
X105292174Y-118845000D02*
X103725000Y-117277826D01*
%TO.N,/stm32g431cb/FAULTB*%
X124588056Y-113115000D02*
X124815264Y-113115000D01*
X104725000Y-116227215D02*
X105174999Y-116677214D01*
X105820000Y-118120000D02*
X119583056Y-118120000D01*
X105174999Y-117474999D02*
X105820000Y-118120000D01*
X119583056Y-118120000D02*
X124588056Y-113115000D01*
X104725000Y-114482500D02*
X104725000Y-116227215D01*
X125072500Y-112857764D02*
X125072500Y-112052500D01*
X124815264Y-113115000D02*
X125072500Y-112857764D01*
X105174999Y-116677214D02*
X105174999Y-117474999D01*
%TO.N,/stm32g431cb/SS_DRV*%
X122650000Y-110990000D02*
X117870000Y-115770000D01*
X117870000Y-115770000D02*
X107433604Y-115770000D01*
X106725000Y-115061396D02*
X106725000Y-114482500D01*
X124315264Y-110990000D02*
X123329736Y-110990000D01*
X123329736Y-110990000D02*
X123322500Y-110997236D01*
X124572500Y-112052500D02*
X124572500Y-111247236D01*
X123322500Y-110997236D02*
X123315264Y-110990000D01*
X123315264Y-110990000D02*
X122650000Y-110990000D01*
X124572500Y-111247236D02*
X124315264Y-110990000D01*
X107433604Y-115770000D02*
X106725000Y-115061396D01*
%TO.N,/stm32g431cb/DRV_ENABLE*%
X121660000Y-111343604D02*
X121660000Y-110640000D01*
X107225000Y-114925000D02*
X107620000Y-115320000D01*
X107620000Y-115320000D02*
X117683604Y-115320000D01*
X107225000Y-114482500D02*
X107225000Y-114925000D01*
X117683604Y-115320000D02*
X121660000Y-111343604D01*
%TO.N,/stm32g431cb/DRV_CAL*%
X107912500Y-113795000D02*
X108545000Y-113795000D01*
X109620000Y-114870000D02*
X117497208Y-114870000D01*
X117497208Y-114870000D02*
X120597500Y-111769708D01*
X108545000Y-113795000D02*
X109620000Y-114870000D01*
X120597500Y-111769708D02*
X120597500Y-110397236D01*
X120597500Y-110397236D02*
X120854736Y-110140000D01*
X120854736Y-110140000D02*
X121660000Y-110140000D01*
%TO.N,/stm32g431cb/CAN_TX*%
X130231907Y-95910399D02*
X127507999Y-95910399D01*
X131536314Y-106140000D02*
X129985000Y-106140000D01*
X131370754Y-97049246D02*
X130231907Y-95910399D01*
X127507999Y-95910399D02*
X126974600Y-95377000D01*
X126974600Y-95377000D02*
X126974600Y-94270600D01*
X132050178Y-105626136D02*
X131536314Y-106140000D01*
%TO.N,/stm32g431cb/CAN_RX*%
X130820900Y-106640000D02*
X129985000Y-106640000D01*
X131353849Y-96007035D02*
X130784600Y-95437786D01*
X130784600Y-95437786D02*
X130784600Y-94270600D01*
X132075812Y-106625807D02*
X130835093Y-106625807D01*
X130835093Y-106625807D02*
X130820900Y-106640000D01*
%TO.N,Net-(Q2-TR2_GATE)*%
X113158400Y-88565000D02*
X113183800Y-88590400D01*
D55*
X111710000Y-88565000D02*
X113158400Y-88565000D01*
%TO.N,Net-(Q2-TR1_GATE)*%
X106050000Y-88580000D02*
X104449200Y-88580000D01*
D52*
X104449200Y-88580000D02*
X104423800Y-88554600D01*
D55*
%TO.N,Net-(Q3-TR1_GATE)*%
X93309600Y-88601220D02*
X94959980Y-88601220D01*
D52*
X94959980Y-88601220D02*
X94984200Y-88577000D01*
%TO.N,Net-(Q3-TR2_GATE)*%
X100798420Y-88601220D02*
X100774200Y-88577000D01*
D55*
X102352000Y-88601220D02*
X100798420Y-88601220D01*
D52*
%TO.N,/drv8323/SPI2_CLK*%
X128500000Y-109460200D02*
X128679800Y-109640000D01*
X128679800Y-109640000D02*
X129985000Y-109640000D01*
%TO.N,/drv8323/SPI2_MOSI*%
X128040000Y-108640000D02*
X129985000Y-108640000D01*
X129973000Y-108652000D02*
X129985000Y-108640000D01*
X127550000Y-107865000D02*
X127710000Y-108025000D01*
X127550000Y-107865000D02*
X127550000Y-108150000D01*
X127550000Y-108150000D02*
X128040000Y-108640000D01*
%TO.N,/drv8323/SPI2_MISO*%
X129973000Y-107128000D02*
X129985000Y-107140000D01*
X126410000Y-107150000D02*
X126420000Y-107140000D01*
X126420000Y-107140000D02*
X129985000Y-107140000D01*
%TO.N,/stm32g431cb/TIM4_INHC*%
X109465610Y-110295000D02*
X107912500Y-110295000D01*
X124072500Y-106815921D02*
X124072500Y-103727500D01*
X110005305Y-109755305D02*
X109465610Y-110295000D01*
%TO.N,/stm32g431cb/TIM4_INHA*%
X113915000Y-112295000D02*
X107912500Y-112295000D01*
X125572500Y-109007500D02*
X125470000Y-109110000D01*
X125572500Y-103727500D02*
X125572500Y-109007500D01*
X113920000Y-112290000D02*
X113915000Y-112295000D01*
%TO.N,/stm32g431cb/TIM4_INHB*%
X111669195Y-110323800D02*
X110702995Y-111290000D01*
X107917500Y-111290000D02*
X107912500Y-111295000D01*
X124380000Y-108950000D02*
X125072500Y-108257500D01*
X125072500Y-108257500D02*
X125072500Y-103727500D01*
X110702995Y-111290000D02*
X107917500Y-111290000D01*
%TO.N,Net-(U1-CPL)*%
X107787500Y-108045000D02*
X108285000Y-108045000D01*
X107225000Y-108607500D02*
X107787500Y-108045000D01*
X108285000Y-108045000D02*
X109130000Y-107200000D01*
%TO.N,Net-(U1-CPH)*%
X106725000Y-108607500D02*
X106725000Y-107880000D01*
X106725000Y-107880000D02*
X107405000Y-107200000D01*
%TO.N,Net-(U1-VCP)*%
X106225000Y-108607500D02*
X106225000Y-106965424D01*
X106225000Y-106965424D02*
X107450424Y-105740000D01*
X107450424Y-105740000D02*
X107470000Y-105740000D01*
%TO.N,Net-(U1-DVDD)*%
X109875000Y-112795000D02*
X107912500Y-112795000D01*
X110290000Y-113210000D02*
X109875000Y-112795000D01*
%TO.N,Net-(C19-Pad1)*%
X113428750Y-110956250D02*
X113380000Y-110907500D01*
X114490000Y-110956250D02*
X113428750Y-110956250D01*
X114490000Y-109780000D02*
X114470000Y-109760000D01*
X114490000Y-110956250D02*
X114490000Y-109780000D01*
%TO.N,Net-(D2-A)*%
X129970000Y-122305000D02*
X129970000Y-120820000D01*
%TO.N,Net-(D3-A)*%
X120557600Y-120899900D02*
X120573500Y-120884000D01*
X120557600Y-122232000D02*
X120557600Y-120899900D01*
%TO.N,Net-(Q1-TR2_GATE)*%
X124101100Y-88539800D02*
X124126500Y-88565200D01*
X124116300Y-88555000D02*
X124126500Y-88565200D01*
D55*
X122420000Y-88555000D02*
X124116300Y-88555000D01*
D52*
%TO.N,Net-(Q1-TR1_GATE)*%
X115336200Y-88555000D02*
X115310800Y-88580400D01*
D55*
X116630000Y-88555000D02*
X115336200Y-88555000D01*
D52*
%TO.N,Net-(U5-PB8-BOOT0)*%
X124572500Y-103727500D02*
X124572500Y-100480000D01*
X124572500Y-100480000D02*
X124610000Y-100442500D01*
%TO.N,/stm32g431cb/INLC*%
X121660000Y-105640000D02*
X113095305Y-105640000D01*
X108940305Y-109795000D02*
X107912500Y-109795000D01*
X113095305Y-105640000D02*
X108940305Y-109795000D01*
%TO.N,/stm32g431cb/INLA*%
X112490000Y-107770000D02*
X112490000Y-110528300D01*
X113620000Y-106640000D02*
X112490000Y-107770000D01*
X112490000Y-110528300D02*
X111223300Y-111795000D01*
X121660000Y-106640000D02*
X113620000Y-106640000D01*
X111223300Y-111795000D02*
X107912500Y-111795000D01*
%TO.N,/stm32g431cb/INLB*%
X107927500Y-110810000D02*
X109975915Y-110810000D01*
X113231701Y-106140000D02*
X121660000Y-106140000D01*
X109975915Y-110810000D02*
X110730305Y-110055610D01*
X110730305Y-108641396D02*
X113231701Y-106140000D01*
X107912500Y-110795000D02*
X107927500Y-110810000D01*
X110730305Y-110055610D02*
X110730305Y-108641396D01*
%TO.N,Net-(D1-A)*%
X128060000Y-122268300D02*
X128060000Y-120811700D01*
%TO.N,Net-(D7-K)*%
X134688000Y-91482500D02*
X134688000Y-93072000D01*
%TO.N,Net-(D8-K)*%
X132996800Y-91480900D02*
X132996800Y-93095900D01*
%TD*%
M02*
