%TF.GenerationSoftware,KiCad,Pcbnew,8.0.4-8.0.4-0~ubuntu22.04.1*%
%TF.CreationDate,2024-08-14T23:11:35+09:00*%
%TF.ProjectId,motor_driver,6d6f746f-725f-4647-9269-7665722e6b69,rev?*%
%TF.SameCoordinates,Original*%
%TF.FileFunction,Copper,L2,Inr*%
%TF.FilePolarity,Positive*%
%FSLAX46Y46*%
G04 Gerber Fmt 4.6, Leading zero omitted, Abs format (unit mm)*
G04 Created by KiCad (PCBNEW 8.0.4-8.0.4-0~ubuntu22.04.1) date 2024-08-14 23:11:35*
%MOMM*%
%LPD*%
G01*
G04 APERTURE LIST*
%TA.AperFunction,ComponentPad*%
%ADD10C,3.600000*%
%TD*%
%TA.AperFunction,ComponentPad*%
%ADD11R,3.800000X3.800000*%
%TD*%
%TA.AperFunction,ComponentPad*%
%ADD12C,4.000000*%
%TD*%
%TA.AperFunction,ComponentPad*%
%ADD13C,1.070000*%
%TD*%
%TA.AperFunction,ComponentPad*%
%ADD14C,0.508000*%
%TD*%
%TA.AperFunction,ViaPad*%
%ADD15C,0.508000*%
%TD*%
%TA.AperFunction,ViaPad*%
%ADD16C,0.800000*%
%TD*%
%TA.AperFunction,Conductor*%
%ADD17C,0.500000*%
%TD*%
G04 APERTURE END LIST*
D10*
%TO.N,N/C*%
%TO.C,H1*%
X94524000Y-79310400D03*
%TD*%
D11*
%TO.N,GND*%
%TO.C,J1*%
X93960000Y-114740000D03*
D12*
%TO.N,+BATT*%
X93960000Y-109740000D03*
%TD*%
D10*
%TO.N,N/C*%
%TO.C,H3*%
X136524000Y-79310400D03*
%TD*%
D13*
%TO.N,+3.3V*%
%TO.C,J3*%
X136620000Y-105320000D03*
%TO.N,/stm32g431cb/SWDIO*%
X137890000Y-105320000D03*
%TO.N,GND*%
X136620000Y-106590000D03*
%TO.N,/stm32g431cb/SWCLK*%
X137890000Y-106590000D03*
%TO.N,GND*%
X136620000Y-107860000D03*
%TO.N,unconnected-(J3-SWO{slash}TDO-Pad6)*%
X137890000Y-107860000D03*
%TO.N,unconnected-(J3-KEY-Pad7)*%
X136620000Y-109130000D03*
%TO.N,unconnected-(J3-NC{slash}TDI-Pad8)*%
X137890000Y-109130000D03*
%TO.N,GND*%
X136620000Y-110400000D03*
%TO.N,/stm32g431cb/NRST*%
X137890000Y-110400000D03*
%TD*%
D10*
%TO.N,N/C*%
%TO.C,H4*%
X136524000Y-121310400D03*
%TD*%
%TO.N,N/C*%
%TO.C,H2*%
X94524000Y-121310400D03*
%TD*%
D14*
%TO.N,GND*%
%TO.C,U1*%
X106400000Y-110245000D03*
X104975000Y-110255000D03*
X103575000Y-110270000D03*
X106400000Y-111520000D03*
X103575000Y-111520000D03*
X104975000Y-111525000D03*
X106400000Y-112795000D03*
X104975000Y-112795000D03*
X103575000Y-112820000D03*
%TD*%
D15*
%TO.N,+BATT*%
X107365800Y-88757800D03*
X107365800Y-89672200D03*
X106045000Y-91094600D03*
X94979200Y-91142400D03*
X96300000Y-90583600D03*
X106807000Y-90078600D03*
X95741200Y-91091600D03*
X106045000Y-92364600D03*
X117948000Y-88783600D03*
X96300000Y-92260000D03*
X94979200Y-92412400D03*
X96300000Y-88805600D03*
X117948000Y-89698000D03*
X106807000Y-91043800D03*
D16*
X92250000Y-92860000D03*
D15*
X117389200Y-90104400D03*
X116627200Y-89850400D03*
D16*
X94400000Y-103410000D03*
D15*
X117948000Y-91374400D03*
X107365800Y-91348600D03*
X107365800Y-90535800D03*
D16*
X94400000Y-104610000D03*
D15*
X106807000Y-92059800D03*
X116627200Y-91120400D03*
X96300000Y-89720000D03*
X117948000Y-92238000D03*
X96300000Y-91396400D03*
X117948000Y-90561600D03*
X116627200Y-92390400D03*
D16*
X94410000Y-105800000D03*
D15*
X117389200Y-92085600D03*
X106045000Y-89824600D03*
X94979200Y-89872400D03*
X117389200Y-91069600D03*
X107365800Y-92212200D03*
X95741200Y-92107600D03*
X95741200Y-90126400D03*
D16*
X105814242Y-101860638D03*
%TO.N,GND*%
X118790000Y-103840000D03*
X91084400Y-84734400D03*
X139954000Y-90474800D03*
X125628400Y-124714000D03*
X130973600Y-78689200D03*
X118580000Y-122855000D03*
X118960000Y-78660000D03*
X113140000Y-113210000D03*
X92964000Y-117144800D03*
X138887200Y-83413600D03*
D15*
X105079800Y-94853800D03*
D16*
X118970000Y-77470000D03*
X91084400Y-110337600D03*
X92964000Y-117144800D03*
X110490000Y-124714000D03*
X91960000Y-88800000D03*
X111709200Y-75895200D03*
X100584000Y-80975200D03*
X100890000Y-114210000D03*
D15*
X104622600Y-95717400D03*
D16*
X101346000Y-81991200D03*
X98628199Y-123418601D03*
X96062800Y-83413600D03*
X91084400Y-95199200D03*
X99302500Y-118290000D03*
X128390000Y-113430000D03*
D15*
X105079800Y-96530200D03*
D16*
X100431598Y-75895200D03*
X123847500Y-102270000D03*
D15*
X125326800Y-96486100D03*
X104216200Y-96530200D03*
D16*
X113510153Y-107775153D03*
X91084400Y-115316000D03*
X122670000Y-83350000D03*
X132435600Y-122986800D03*
X138633200Y-117195600D03*
X121869200Y-75895200D03*
X105359200Y-124714000D03*
X98653600Y-80822802D03*
X109640000Y-82170000D03*
X121220000Y-78689200D03*
D15*
X93232800Y-95143600D03*
D16*
X106730800Y-75895200D03*
X91084400Y-100279200D03*
X101580000Y-108170000D03*
X127000000Y-75895200D03*
X99872800Y-81991200D03*
X122000000Y-99090000D03*
X139954000Y-105765600D03*
X117360000Y-79910000D03*
X108300000Y-121125000D03*
X91084400Y-105359200D03*
X94420000Y-98070000D03*
X98690000Y-97720000D03*
X99872800Y-80010000D03*
X130973600Y-79908400D03*
X132435600Y-80822800D03*
X130973600Y-77419200D03*
X101346000Y-80010000D03*
X113893600Y-101092000D03*
X120650000Y-124714000D03*
X131870000Y-94250000D03*
X113898075Y-99470523D03*
D15*
X124463200Y-96486100D03*
X94909200Y-95143600D03*
D16*
X98602800Y-119735600D03*
X113390000Y-108800000D03*
X125779169Y-113812797D03*
X121270800Y-77470000D03*
X115417600Y-100253800D03*
X123310000Y-123820000D03*
X108480000Y-104220000D03*
D15*
X94096400Y-95600800D03*
D16*
X111140000Y-114145000D03*
X139954000Y-115874802D03*
X111930000Y-102310000D03*
X100000000Y-122260000D03*
X116992400Y-99415600D03*
X98653600Y-77673200D03*
X108940000Y-108770000D03*
X91084400Y-90068400D03*
X131470400Y-75895200D03*
X121220000Y-79908400D03*
D15*
X125326800Y-94809700D03*
D16*
X99923600Y-124714000D03*
X92405198Y-83413600D03*
X117043200Y-101092000D03*
X94410000Y-99230000D03*
X109260000Y-79780000D03*
X139954000Y-84480400D03*
X130708402Y-124714000D03*
X96012000Y-117144800D03*
D15*
X124390000Y-94830000D03*
D16*
X124610000Y-97580000D03*
D15*
X94909200Y-96007200D03*
D16*
X132435600Y-119735600D03*
X124430000Y-116380000D03*
D15*
X93232800Y-96007200D03*
D16*
X108460000Y-102670000D03*
X116789200Y-75895200D03*
X109260000Y-77480000D03*
X108350000Y-123000000D03*
X137449997Y-86140000D03*
X115570000Y-124714000D03*
X129220000Y-114060000D03*
X139954000Y-100685600D03*
X135001000Y-83388200D03*
X132689600Y-83007200D03*
X139954000Y-110744000D03*
D15*
X104216200Y-94853800D03*
D16*
X108615500Y-97860800D03*
X132435600Y-76911200D03*
X102350000Y-107490000D03*
X118960000Y-79800000D03*
X134975600Y-117195600D03*
X94410000Y-100350000D03*
X139954000Y-95605600D03*
X109260000Y-78660000D03*
D15*
X124869600Y-95673300D03*
D16*
X129634850Y-102084850D03*
%TO.N,+5V*%
X131114800Y-83058000D03*
X129920000Y-85560000D03*
X112270000Y-80930000D03*
X119880000Y-81930000D03*
X115140000Y-95630000D03*
X138450000Y-86140000D03*
%TO.N,+3.3VA*%
X133732653Y-109017347D03*
X102272038Y-118270462D03*
X104449999Y-116977519D03*
X126648600Y-110576319D03*
%TO.N,/drv8323/SLC*%
X100020000Y-98950000D03*
X97640000Y-101340000D03*
%TO.N,+3.3V*%
X136410000Y-114220000D03*
X129632500Y-103775200D03*
X130475000Y-111610000D03*
X122500000Y-102270000D03*
X130890851Y-117560851D03*
X116487500Y-122897891D03*
X132029200Y-90322400D03*
X122300000Y-104280000D03*
%TO.N,/stm32g431cb/OSC_OUT*%
X118717653Y-108037653D03*
X116687347Y-108017347D03*
%TO.N,/stm32g431cb/NRST*%
X134859109Y-116202406D03*
X123240000Y-108140000D03*
%TO.N,/drv8323/HALL_W*%
X127797500Y-101235195D03*
%TO.N,/drv8323/HALL_U*%
X127075000Y-100543825D03*
%TO.N,/drv8323/HALL_V*%
X126350000Y-97570000D03*
%TO.N,/drv8323/SHA*%
X108120000Y-83540000D03*
X108110000Y-84640000D03*
X114270000Y-93550000D03*
X106930000Y-100406396D03*
%TO.N,/drv8323/SHB*%
X106100000Y-83530000D03*
X106120000Y-84710000D03*
%TO.N,/drv8323/SHC*%
X104120000Y-84680000D03*
X104130000Y-83530000D03*
%TO.N,/drv8323/SPI1_MISO*%
X106100000Y-116940000D03*
X108580000Y-116945000D03*
%TO.N,/drv8323/SS_ENC*%
X125297500Y-101545000D03*
%TO.N,/drv8323/GHA*%
X108120000Y-101147633D03*
%TO.N,/drv8323/GHB*%
X103200000Y-98130000D03*
%TO.N,/drv8323/GHC*%
X98650000Y-98910000D03*
%TO.N,/drv8323/GLA*%
X118645000Y-98475000D03*
%TO.N,/drv8323/GLB*%
X110418200Y-93367300D03*
%TO.N,/drv8323/GLC*%
X97655000Y-102510000D03*
%TO.N,/stm32g431cb/LED1*%
X122490000Y-117180000D03*
X128280000Y-116390000D03*
%TO.N,/stm32g431cb/LED2*%
X123610000Y-117940000D03*
X130050000Y-115650000D03*
%TO.N,/stm32g431cb/LED_CAN_TX*%
X134029785Y-95710829D03*
X132073524Y-108365000D03*
%TO.N,/stm32g431cb/LED_CAN_RX*%
X133030000Y-95690000D03*
X133026339Y-106936459D03*
%TO.N,/stm32g431cb/ADC1_3*%
X105850000Y-120440000D03*
X117150000Y-113140000D03*
%TO.N,/stm32g431cb/ADC1_2*%
X108280000Y-119580000D03*
X115992653Y-113092653D03*
%TO.N,/stm32g431cb/ADC1_1*%
X114850000Y-113180000D03*
X109210000Y-118845000D03*
%TO.N,/stm32g431cb/CAN_TX*%
X131370754Y-97049246D03*
X132050178Y-105626136D03*
%TO.N,/stm32g431cb/CAN_RX*%
X131353849Y-96007035D03*
X132075812Y-106625807D03*
%TO.N,Net-(Q2-TR2_GATE)*%
X113183800Y-88590400D03*
%TO.N,Net-(Q2-TR1_GATE)*%
X104423800Y-88554600D03*
%TO.N,Net-(Q3-TR1_GATE)*%
X93309600Y-88601220D03*
%TO.N,Net-(Q3-TR2_GATE)*%
X102352000Y-88601220D03*
%TO.N,/drv8323/SPI2_CLK*%
X128500000Y-109460200D03*
%TO.N,/drv8323/SPI2_MOSI*%
X127550000Y-107865000D03*
%TO.N,/drv8323/SPI2_MISO*%
X126410000Y-107150000D03*
%TO.N,/stm32g431cb/TIM4_INHC*%
X110005305Y-109755305D03*
X124072500Y-106815921D03*
%TO.N,/stm32g431cb/TIM4_INHA*%
X113920000Y-112290000D03*
X125470000Y-109110000D03*
%TO.N,/stm32g431cb/TIM4_INHB*%
X124380000Y-108950000D03*
X111669195Y-110323800D03*
%TO.N,Net-(Q1-TR2_GATE)*%
X124126500Y-88565200D03*
%TO.N,Net-(Q1-TR1_GATE)*%
X115310800Y-88580400D03*
%TD*%
D17*
%TO.N,GND*%
X91084400Y-110337600D02*
X91084400Y-84734400D01*
X92862400Y-117144800D02*
X91084400Y-115366802D01*
X98628199Y-123418601D02*
X98602800Y-123393202D01*
X131470400Y-75895200D02*
X100431598Y-75895200D01*
X98653600Y-77673198D02*
X100431598Y-75895200D01*
X132435600Y-76860400D02*
X132435600Y-80822800D01*
X96012002Y-117144800D02*
X96012000Y-117144800D01*
X92964000Y-117144800D02*
X92862400Y-117144800D01*
X91084400Y-115366802D02*
X91084400Y-115316000D01*
X134975600Y-117195600D02*
X132435600Y-119735598D01*
X139954000Y-84480400D02*
X139954000Y-115874800D01*
X132435600Y-119735598D02*
X132435600Y-122986800D01*
X138887200Y-83413600D02*
X139954000Y-84480400D01*
X139954000Y-115874800D02*
X138633202Y-117195600D01*
X132435600Y-80822800D02*
X135026400Y-83413600D01*
X130708402Y-124714000D02*
X99923600Y-124714000D01*
X131470400Y-75895200D02*
X132435600Y-76860400D01*
X96012000Y-117144800D02*
X92964000Y-117144800D01*
X134975600Y-117195600D02*
X138633202Y-117195600D01*
X91084400Y-115316000D02*
X91084400Y-110337600D01*
X98653600Y-80822802D02*
X98653600Y-77673198D01*
X99923600Y-124714000D02*
X98628199Y-123418601D01*
X132435600Y-122986800D02*
X130708402Y-124714000D01*
X98602800Y-123393202D02*
X98602800Y-119735600D01*
X92405198Y-83413600D02*
X96062800Y-83413600D01*
X135026400Y-83413600D02*
X138887200Y-83413600D01*
X91084400Y-84734400D02*
X92405198Y-83413600D01*
X96062800Y-83413600D02*
X98653600Y-80822802D01*
X98602800Y-119735600D02*
X96012002Y-117144800D01*
%TD*%
%TA.AperFunction,Conductor*%
%TO.N,GND*%
G36*
X131588284Y-75693188D02*
G01*
X131609349Y-75710149D01*
X132653095Y-76753895D01*
X132687121Y-76816207D01*
X132690000Y-76842990D01*
X132690000Y-80753201D01*
X135128398Y-83191599D01*
X135128400Y-83191600D01*
X138937010Y-83191600D01*
X139005131Y-83211602D01*
X139026105Y-83228505D01*
X140171495Y-84373895D01*
X140205521Y-84436207D01*
X140208400Y-84462990D01*
X140208400Y-115954953D01*
X140188398Y-116023074D01*
X140169973Y-116045546D01*
X139795759Y-116407286D01*
X138757644Y-117410798D01*
X138721028Y-117446193D01*
X138658148Y-117479157D01*
X138633455Y-117481600D01*
X135077598Y-117481600D01*
X132690000Y-119869198D01*
X132690000Y-123068210D01*
X132669998Y-123136331D01*
X132653095Y-123157305D01*
X130847305Y-124963095D01*
X130784993Y-124997121D01*
X130758210Y-125000000D01*
X99875847Y-125000000D01*
X99807726Y-124979998D01*
X99785254Y-124961573D01*
X98384607Y-123512627D01*
X98351643Y-123449747D01*
X98349200Y-123425054D01*
X98349200Y-123120000D01*
X103002408Y-123120000D01*
X103022867Y-123242605D01*
X103060379Y-123311922D01*
X103082026Y-123351922D01*
X103173476Y-123436108D01*
X103287307Y-123486038D01*
X103411181Y-123496303D01*
X103531677Y-123465789D01*
X103635736Y-123397804D01*
X103712083Y-123299714D01*
X103752443Y-123182150D01*
X103755000Y-123120000D01*
X103753354Y-123080000D01*
X111302408Y-123080000D01*
X111322867Y-123202605D01*
X111375418Y-123299712D01*
X111382026Y-123311922D01*
X111473476Y-123396108D01*
X111587307Y-123446038D01*
X111711181Y-123456303D01*
X111831677Y-123425789D01*
X111935736Y-123357804D01*
X112012083Y-123259714D01*
X112052443Y-123142150D01*
X112055000Y-123080000D01*
X112052443Y-123017850D01*
X112012083Y-122900286D01*
X112010219Y-122897891D01*
X115573996Y-122897891D01*
X115593957Y-123087818D01*
X115624026Y-123180361D01*
X115652973Y-123269447D01*
X115652976Y-123269452D01*
X115748458Y-123434832D01*
X115748465Y-123434842D01*
X115876244Y-123576755D01*
X115937499Y-123621259D01*
X116030748Y-123689009D01*
X116205212Y-123766685D01*
X116392013Y-123806391D01*
X116582987Y-123806391D01*
X116769788Y-123766685D01*
X116944252Y-123689009D01*
X117098753Y-123576757D01*
X117098755Y-123576755D01*
X117226534Y-123434842D01*
X117226535Y-123434840D01*
X117226540Y-123434835D01*
X117322027Y-123269447D01*
X117381042Y-123087819D01*
X117401004Y-122897891D01*
X117381042Y-122707963D01*
X117322027Y-122526335D01*
X117226540Y-122360947D01*
X117226538Y-122360945D01*
X117226534Y-122360939D01*
X117098755Y-122219026D01*
X116944252Y-122106773D01*
X116769788Y-122029097D01*
X116582987Y-121989391D01*
X116392013Y-121989391D01*
X116205211Y-122029097D01*
X116030747Y-122106773D01*
X115876244Y-122219026D01*
X115748465Y-122360939D01*
X115748458Y-122360949D01*
X115652976Y-122526329D01*
X115652973Y-122526336D01*
X115593957Y-122707963D01*
X115573996Y-122897891D01*
X112010219Y-122897891D01*
X111935736Y-122802196D01*
X111935735Y-122802195D01*
X111935734Y-122802194D01*
X111935733Y-122802193D01*
X111846196Y-122743697D01*
X111831677Y-122734211D01*
X111831675Y-122734210D01*
X111831673Y-122734209D01*
X111711182Y-122703697D01*
X111711181Y-122703697D01*
X111587307Y-122713962D01*
X111587304Y-122713962D01*
X111587304Y-122713963D01*
X111473475Y-122763892D01*
X111473474Y-122763893D01*
X111382025Y-122848078D01*
X111322867Y-122957394D01*
X111302408Y-123080000D01*
X103753354Y-123080000D01*
X103752443Y-123057850D01*
X103712083Y-122940286D01*
X103635736Y-122842196D01*
X103635735Y-122842195D01*
X103635734Y-122842194D01*
X103635733Y-122842193D01*
X103557691Y-122791207D01*
X103531677Y-122774211D01*
X103531675Y-122774210D01*
X103531673Y-122774209D01*
X103411182Y-122743697D01*
X103411181Y-122743697D01*
X103287307Y-122753962D01*
X103287304Y-122753962D01*
X103287304Y-122753963D01*
X103173475Y-122803892D01*
X103173474Y-122803893D01*
X103082025Y-122888078D01*
X103022867Y-122997394D01*
X103002408Y-123120000D01*
X98349200Y-123120000D01*
X98349200Y-121320000D01*
X103002408Y-121320000D01*
X103022867Y-121442605D01*
X103060379Y-121511922D01*
X103082026Y-121551922D01*
X103173476Y-121636108D01*
X103287307Y-121686038D01*
X103411181Y-121696303D01*
X103531677Y-121665789D01*
X103635736Y-121597804D01*
X103712083Y-121499714D01*
X103752443Y-121382150D01*
X103755000Y-121320000D01*
X103752443Y-121257850D01*
X103712083Y-121140286D01*
X103635736Y-121042196D01*
X103635735Y-121042195D01*
X103635734Y-121042194D01*
X103635733Y-121042193D01*
X103557691Y-120991207D01*
X103531677Y-120974211D01*
X103531675Y-120974210D01*
X103531673Y-120974209D01*
X103411182Y-120943697D01*
X103411181Y-120943697D01*
X103287307Y-120953962D01*
X103287304Y-120953962D01*
X103287304Y-120953963D01*
X103173475Y-121003892D01*
X103173474Y-121003893D01*
X103082025Y-121088078D01*
X103022867Y-121197394D01*
X103002408Y-121320000D01*
X98349200Y-121320000D01*
X98349200Y-120440000D01*
X104936496Y-120440000D01*
X104956457Y-120629927D01*
X104983006Y-120711634D01*
X105015473Y-120811556D01*
X105015476Y-120811561D01*
X105110958Y-120976941D01*
X105110965Y-120976951D01*
X105238744Y-121118864D01*
X105238747Y-121118866D01*
X105393248Y-121231118D01*
X105567712Y-121308794D01*
X105754513Y-121348500D01*
X105945487Y-121348500D01*
X106132288Y-121308794D01*
X106196961Y-121280000D01*
X111302408Y-121280000D01*
X111322867Y-121402605D01*
X111375418Y-121499712D01*
X111382026Y-121511922D01*
X111473476Y-121596108D01*
X111587307Y-121646038D01*
X111711181Y-121656303D01*
X111831677Y-121625789D01*
X111935736Y-121557804D01*
X112012083Y-121459714D01*
X112052443Y-121342150D01*
X112055000Y-121280000D01*
X112052443Y-121217850D01*
X112012083Y-121100286D01*
X111935736Y-121002196D01*
X111935735Y-121002195D01*
X111935734Y-121002194D01*
X111935733Y-121002193D01*
X111846196Y-120943697D01*
X111831677Y-120934211D01*
X111831675Y-120934210D01*
X111831673Y-120934209D01*
X111711182Y-120903697D01*
X111711181Y-120903697D01*
X111587307Y-120913962D01*
X111587304Y-120913962D01*
X111587304Y-120913963D01*
X111473475Y-120963892D01*
X111473474Y-120963893D01*
X111382025Y-121048078D01*
X111322867Y-121157394D01*
X111302408Y-121280000D01*
X106196961Y-121280000D01*
X106306752Y-121231118D01*
X106461253Y-121118866D01*
X106461255Y-121118864D01*
X106589034Y-120976951D01*
X106589035Y-120976949D01*
X106589040Y-120976944D01*
X106684527Y-120811556D01*
X106743542Y-120629928D01*
X106763504Y-120440000D01*
X106743542Y-120250072D01*
X106684527Y-120068444D01*
X106589040Y-119903056D01*
X106589038Y-119903054D01*
X106589034Y-119903048D01*
X106461255Y-119761135D01*
X106306752Y-119648882D01*
X106152040Y-119580000D01*
X107366496Y-119580000D01*
X107386457Y-119769927D01*
X107409409Y-119840563D01*
X107445473Y-119951556D01*
X107445476Y-119951561D01*
X107540958Y-120116941D01*
X107540965Y-120116951D01*
X107668744Y-120258864D01*
X107668747Y-120258866D01*
X107823248Y-120371118D01*
X107997712Y-120448794D01*
X108184513Y-120488500D01*
X108375487Y-120488500D01*
X108562288Y-120448794D01*
X108736752Y-120371118D01*
X108891253Y-120258866D01*
X109019040Y-120116944D01*
X109114527Y-119951556D01*
X109150591Y-119840562D01*
X109190665Y-119781958D01*
X109256062Y-119754321D01*
X109270424Y-119753500D01*
X109305487Y-119753500D01*
X109492288Y-119713794D01*
X109666752Y-119636118D01*
X109821253Y-119523866D01*
X109821255Y-119523864D01*
X109949034Y-119381951D01*
X109949035Y-119381949D01*
X109949040Y-119381944D01*
X110044527Y-119216556D01*
X110103542Y-119034928D01*
X110123504Y-118845000D01*
X110103542Y-118655072D01*
X110044527Y-118473444D01*
X109949040Y-118308056D01*
X109949038Y-118308054D01*
X109949034Y-118308048D01*
X109821255Y-118166135D01*
X109666752Y-118053882D01*
X109492288Y-117976206D01*
X109305487Y-117936500D01*
X109148738Y-117936500D01*
X109080617Y-117916498D01*
X109034124Y-117862842D01*
X109024020Y-117792568D01*
X109053514Y-117727988D01*
X109074677Y-117708564D01*
X109109874Y-117682991D01*
X109191253Y-117623866D01*
X109289749Y-117514475D01*
X109319034Y-117481951D01*
X109319035Y-117481949D01*
X109319040Y-117481944D01*
X109414527Y-117316556D01*
X109458897Y-117180000D01*
X121576496Y-117180000D01*
X121596457Y-117369927D01*
X121621238Y-117446193D01*
X121655473Y-117551556D01*
X121665220Y-117568438D01*
X121750958Y-117716941D01*
X121750965Y-117716951D01*
X121878744Y-117858864D01*
X121916120Y-117886019D01*
X122033248Y-117971118D01*
X122207712Y-118048794D01*
X122394513Y-118088500D01*
X122585488Y-118088500D01*
X122592051Y-118087810D01*
X122592209Y-118089318D01*
X122655217Y-118094123D01*
X122711852Y-118136936D01*
X122730463Y-118173033D01*
X122775472Y-118311554D01*
X122775476Y-118311561D01*
X122870958Y-118476941D01*
X122870965Y-118476951D01*
X122998744Y-118618864D01*
X122998747Y-118618866D01*
X123153248Y-118731118D01*
X123327712Y-118808794D01*
X123514513Y-118848500D01*
X123705487Y-118848500D01*
X123892288Y-118808794D01*
X124066752Y-118731118D01*
X124221253Y-118618866D01*
X124349040Y-118476944D01*
X124444527Y-118311556D01*
X124503542Y-118129928D01*
X124523504Y-117940000D01*
X124503542Y-117750072D01*
X124444527Y-117568444D01*
X124440143Y-117560851D01*
X129977347Y-117560851D01*
X129997308Y-117750778D01*
X130017784Y-117813794D01*
X130056324Y-117932407D01*
X130056327Y-117932412D01*
X130151809Y-118097792D01*
X130151816Y-118097802D01*
X130279595Y-118239715D01*
X130279598Y-118239717D01*
X130434099Y-118351969D01*
X130608563Y-118429645D01*
X130795364Y-118469351D01*
X130986338Y-118469351D01*
X131173139Y-118429645D01*
X131347603Y-118351969D01*
X131502104Y-118239717D01*
X131502106Y-118239715D01*
X131629885Y-118097802D01*
X131629886Y-118097800D01*
X131629891Y-118097795D01*
X131725378Y-117932407D01*
X131784393Y-117750779D01*
X131804355Y-117560851D01*
X131784393Y-117370923D01*
X131725378Y-117189295D01*
X131629891Y-117023907D01*
X131629889Y-117023905D01*
X131629885Y-117023899D01*
X131502106Y-116881986D01*
X131347603Y-116769733D01*
X131173139Y-116692057D01*
X130986338Y-116652351D01*
X130795364Y-116652351D01*
X130608562Y-116692057D01*
X130434098Y-116769733D01*
X130279595Y-116881986D01*
X130151816Y-117023899D01*
X130151809Y-117023909D01*
X130056327Y-117189289D01*
X130056324Y-117189296D01*
X129997308Y-117370923D01*
X129977347Y-117560851D01*
X124440143Y-117560851D01*
X124349040Y-117403056D01*
X124349038Y-117403054D01*
X124349034Y-117403048D01*
X124221255Y-117261135D01*
X124066752Y-117148882D01*
X123892288Y-117071206D01*
X123705487Y-117031500D01*
X123514513Y-117031500D01*
X123514508Y-117031500D01*
X123507940Y-117032190D01*
X123507781Y-117030683D01*
X123444768Y-117025871D01*
X123388138Y-116983052D01*
X123369536Y-116946967D01*
X123324527Y-116808444D01*
X123229040Y-116643056D01*
X123229038Y-116643054D01*
X123229034Y-116643048D01*
X123101255Y-116501135D01*
X122948291Y-116390000D01*
X127366496Y-116390000D01*
X127386457Y-116579927D01*
X127406970Y-116643058D01*
X127445473Y-116761556D01*
X127445476Y-116761561D01*
X127540958Y-116926941D01*
X127540965Y-116926951D01*
X127668744Y-117068864D01*
X127726610Y-117110906D01*
X127823248Y-117181118D01*
X127997712Y-117258794D01*
X128184513Y-117298500D01*
X128375487Y-117298500D01*
X128562288Y-117258794D01*
X128736752Y-117181118D01*
X128891253Y-117068866D01*
X128891255Y-117068864D01*
X129019034Y-116926951D01*
X129019035Y-116926949D01*
X129019040Y-116926944D01*
X129114527Y-116761556D01*
X129173542Y-116579928D01*
X129193504Y-116390000D01*
X129193504Y-116389998D01*
X129193504Y-116384737D01*
X129213506Y-116316616D01*
X129267162Y-116270123D01*
X129337436Y-116260019D01*
X129402016Y-116289513D01*
X129413141Y-116300428D01*
X129438744Y-116328864D01*
X129438747Y-116328866D01*
X129593248Y-116441118D01*
X129767712Y-116518794D01*
X129954513Y-116558500D01*
X130145487Y-116558500D01*
X130332288Y-116518794D01*
X130506752Y-116441118D01*
X130661253Y-116328866D01*
X130712906Y-116271500D01*
X130775118Y-116202406D01*
X133945605Y-116202406D01*
X133965566Y-116392333D01*
X133981418Y-116441118D01*
X134024582Y-116573962D01*
X134043054Y-116605957D01*
X134120067Y-116739347D01*
X134120074Y-116739357D01*
X134247853Y-116881270D01*
X134309108Y-116925774D01*
X134402357Y-116993524D01*
X134576821Y-117071200D01*
X134763622Y-117110906D01*
X134954596Y-117110906D01*
X135141397Y-117071200D01*
X135315861Y-116993524D01*
X135470362Y-116881272D01*
X135578155Y-116761556D01*
X135598143Y-116739357D01*
X135598144Y-116739355D01*
X135598149Y-116739350D01*
X135693636Y-116573962D01*
X135752651Y-116392334D01*
X135772613Y-116202406D01*
X135752651Y-116012478D01*
X135693636Y-115830850D01*
X135598149Y-115665462D01*
X135598147Y-115665460D01*
X135598143Y-115665454D01*
X135470364Y-115523541D01*
X135315861Y-115411288D01*
X135141397Y-115333612D01*
X134954596Y-115293906D01*
X134763622Y-115293906D01*
X134576820Y-115333612D01*
X134402356Y-115411288D01*
X134247853Y-115523541D01*
X134120074Y-115665454D01*
X134120067Y-115665464D01*
X134024585Y-115830844D01*
X134024582Y-115830850D01*
X134017367Y-115853056D01*
X133965566Y-116012478D01*
X133945605Y-116202406D01*
X130775118Y-116202406D01*
X130789034Y-116186951D01*
X130789035Y-116186949D01*
X130789040Y-116186944D01*
X130884527Y-116021556D01*
X130943542Y-115839928D01*
X130963504Y-115650000D01*
X130943542Y-115460072D01*
X130884527Y-115278444D01*
X130789040Y-115113056D01*
X130789038Y-115113054D01*
X130789034Y-115113048D01*
X130661255Y-114971135D01*
X130506752Y-114858882D01*
X130332288Y-114781206D01*
X130145487Y-114741500D01*
X129954513Y-114741500D01*
X129767711Y-114781206D01*
X129593247Y-114858882D01*
X129438744Y-114971135D01*
X129310965Y-115113048D01*
X129310958Y-115113058D01*
X129215476Y-115278438D01*
X129215473Y-115278445D01*
X129156457Y-115460072D01*
X129136496Y-115650001D01*
X129136496Y-115655262D01*
X129116494Y-115723383D01*
X129062838Y-115769876D01*
X128992564Y-115779980D01*
X128927984Y-115750486D01*
X128916860Y-115739573D01*
X128891253Y-115711134D01*
X128736752Y-115598882D01*
X128562288Y-115521206D01*
X128375487Y-115481500D01*
X128184513Y-115481500D01*
X127997711Y-115521206D01*
X127823247Y-115598882D01*
X127668744Y-115711135D01*
X127540965Y-115853048D01*
X127540958Y-115853058D01*
X127448917Y-116012478D01*
X127445473Y-116018444D01*
X127443969Y-116023074D01*
X127386457Y-116200072D01*
X127366496Y-116390000D01*
X122948291Y-116390000D01*
X122946752Y-116388882D01*
X122772288Y-116311206D01*
X122585487Y-116271500D01*
X122394513Y-116271500D01*
X122207711Y-116311206D01*
X122033247Y-116388882D01*
X121878744Y-116501135D01*
X121750965Y-116643048D01*
X121750958Y-116643058D01*
X121655476Y-116808438D01*
X121655473Y-116808445D01*
X121596457Y-116990072D01*
X121576496Y-117180000D01*
X109458897Y-117180000D01*
X109473542Y-117134928D01*
X109493504Y-116945000D01*
X109473542Y-116755072D01*
X109414527Y-116573444D01*
X109319040Y-116408056D01*
X109319038Y-116408054D01*
X109319034Y-116408048D01*
X109191255Y-116266135D01*
X109036752Y-116153882D01*
X108862288Y-116076206D01*
X108675487Y-116036500D01*
X108484513Y-116036500D01*
X108297711Y-116076206D01*
X108123247Y-116153882D01*
X107968744Y-116266135D01*
X107840965Y-116408048D01*
X107840958Y-116408058D01*
X107745476Y-116573438D01*
X107745473Y-116573444D01*
X107745305Y-116573962D01*
X107686457Y-116755072D01*
X107666496Y-116945000D01*
X107686457Y-117134927D01*
X107697024Y-117167447D01*
X107745473Y-117316556D01*
X107745476Y-117316561D01*
X107840958Y-117481941D01*
X107840965Y-117481951D01*
X107968744Y-117623864D01*
X107968747Y-117623866D01*
X108123248Y-117736118D01*
X108297712Y-117813794D01*
X108484513Y-117853500D01*
X108641262Y-117853500D01*
X108709383Y-117873502D01*
X108755876Y-117927158D01*
X108765980Y-117997432D01*
X108736486Y-118062012D01*
X108715323Y-118081436D01*
X108598744Y-118166135D01*
X108470965Y-118308048D01*
X108470958Y-118308058D01*
X108377836Y-118469351D01*
X108375473Y-118473444D01*
X108339409Y-118584437D01*
X108299335Y-118643042D01*
X108233938Y-118670679D01*
X108219576Y-118671500D01*
X108184513Y-118671500D01*
X107997711Y-118711206D01*
X107823247Y-118788882D01*
X107668744Y-118901135D01*
X107540965Y-119043048D01*
X107540958Y-119043058D01*
X107445476Y-119208438D01*
X107445473Y-119208445D01*
X107386457Y-119390072D01*
X107366496Y-119580000D01*
X106152040Y-119580000D01*
X106132288Y-119571206D01*
X105945487Y-119531500D01*
X105754513Y-119531500D01*
X105567711Y-119571206D01*
X105393247Y-119648882D01*
X105238744Y-119761135D01*
X105110965Y-119903048D01*
X105110958Y-119903058D01*
X105015476Y-120068438D01*
X105015473Y-120068445D01*
X104956457Y-120250072D01*
X104936496Y-120440000D01*
X98349200Y-120440000D01*
X98349200Y-119869200D01*
X98349199Y-119869198D01*
X96750463Y-118270462D01*
X101358534Y-118270462D01*
X101378495Y-118460389D01*
X101408564Y-118552932D01*
X101437511Y-118642018D01*
X101465879Y-118691153D01*
X101532996Y-118807403D01*
X101533003Y-118807413D01*
X101660782Y-118949326D01*
X101660785Y-118949328D01*
X101815286Y-119061580D01*
X101989750Y-119139256D01*
X102176551Y-119178962D01*
X102367525Y-119178962D01*
X102554326Y-119139256D01*
X102728790Y-119061580D01*
X102883291Y-118949328D01*
X102974077Y-118848500D01*
X103011072Y-118807413D01*
X103011073Y-118807411D01*
X103011078Y-118807406D01*
X103106565Y-118642018D01*
X103165580Y-118460390D01*
X103185542Y-118270462D01*
X103165580Y-118080534D01*
X103106565Y-117898906D01*
X103011078Y-117733518D01*
X103011076Y-117733516D01*
X103011072Y-117733510D01*
X102883293Y-117591597D01*
X102728790Y-117479344D01*
X102554326Y-117401668D01*
X102367525Y-117361962D01*
X102176551Y-117361962D01*
X101989749Y-117401668D01*
X101815285Y-117479344D01*
X101660782Y-117591597D01*
X101533003Y-117733510D01*
X101532996Y-117733520D01*
X101452178Y-117873502D01*
X101437511Y-117898906D01*
X101426626Y-117932407D01*
X101378495Y-118080534D01*
X101358534Y-118270462D01*
X96750463Y-118270462D01*
X95910801Y-117430800D01*
X95910800Y-117430800D01*
X92813390Y-117430800D01*
X92745269Y-117410798D01*
X92724295Y-117393895D01*
X92307919Y-116977519D01*
X103536495Y-116977519D01*
X103556456Y-117167446D01*
X103563556Y-117189296D01*
X103615472Y-117349075D01*
X103615475Y-117349080D01*
X103710957Y-117514460D01*
X103710964Y-117514470D01*
X103838743Y-117656383D01*
X103838746Y-117656385D01*
X103993247Y-117768637D01*
X104167711Y-117846313D01*
X104354512Y-117886019D01*
X104545486Y-117886019D01*
X104732287Y-117846313D01*
X104906751Y-117768637D01*
X105061252Y-117656385D01*
X105189039Y-117514463D01*
X105189047Y-117514447D01*
X105189429Y-117513924D01*
X105189743Y-117513681D01*
X105193458Y-117509556D01*
X105194211Y-117510234D01*
X105245645Y-117470561D01*
X105316380Y-117464475D01*
X105379177Y-117497597D01*
X105385013Y-117503659D01*
X105488744Y-117618864D01*
X105540387Y-117656385D01*
X105643248Y-117731118D01*
X105817712Y-117808794D01*
X106004513Y-117848500D01*
X106195487Y-117848500D01*
X106382288Y-117808794D01*
X106556752Y-117731118D01*
X106711253Y-117618866D01*
X106805247Y-117514475D01*
X106839034Y-117476951D01*
X106839035Y-117476949D01*
X106839040Y-117476944D01*
X106934527Y-117311556D01*
X106993542Y-117129928D01*
X107013504Y-116940000D01*
X106993542Y-116750072D01*
X106934527Y-116568444D01*
X106839040Y-116403056D01*
X106839037Y-116403053D01*
X106839034Y-116403048D01*
X106711255Y-116261135D01*
X106556752Y-116148882D01*
X106382288Y-116071206D01*
X106195487Y-116031500D01*
X106004513Y-116031500D01*
X105817711Y-116071206D01*
X105643247Y-116148882D01*
X105488744Y-116261135D01*
X105360961Y-116403053D01*
X105360555Y-116403613D01*
X105360236Y-116403858D01*
X105356541Y-116407963D01*
X105355790Y-116407286D01*
X105304331Y-116446965D01*
X105233594Y-116453039D01*
X105170804Y-116419905D01*
X105164985Y-116413859D01*
X105061254Y-116298654D01*
X104906751Y-116186401D01*
X104732287Y-116108725D01*
X104545486Y-116069019D01*
X104354512Y-116069019D01*
X104167710Y-116108725D01*
X103993246Y-116186401D01*
X103838743Y-116298654D01*
X103710964Y-116440567D01*
X103710957Y-116440577D01*
X103615475Y-116605957D01*
X103615472Y-116605964D01*
X103556456Y-116787591D01*
X103536495Y-116977519D01*
X92307919Y-116977519D01*
X90867705Y-115537305D01*
X90833679Y-115474993D01*
X90830800Y-115448210D01*
X90830800Y-114220000D01*
X135496496Y-114220000D01*
X135516457Y-114409927D01*
X135546526Y-114502470D01*
X135575473Y-114591556D01*
X135575476Y-114591561D01*
X135670958Y-114756941D01*
X135670965Y-114756951D01*
X135798744Y-114898864D01*
X135798747Y-114898866D01*
X135953248Y-115011118D01*
X136127712Y-115088794D01*
X136314513Y-115128500D01*
X136505487Y-115128500D01*
X136692288Y-115088794D01*
X136866752Y-115011118D01*
X137021253Y-114898866D01*
X137057255Y-114858882D01*
X137149034Y-114756951D01*
X137149035Y-114756949D01*
X137149040Y-114756944D01*
X137244527Y-114591556D01*
X137303542Y-114409928D01*
X137323504Y-114220000D01*
X137303542Y-114030072D01*
X137244527Y-113848444D01*
X137149040Y-113683056D01*
X137149038Y-113683054D01*
X137149034Y-113683048D01*
X137021255Y-113541135D01*
X136866752Y-113428882D01*
X136692288Y-113351206D01*
X136505487Y-113311500D01*
X136314513Y-113311500D01*
X136127711Y-113351206D01*
X135953247Y-113428882D01*
X135798744Y-113541135D01*
X135670965Y-113683048D01*
X135670958Y-113683058D01*
X135575476Y-113848438D01*
X135575473Y-113848444D01*
X135560999Y-113892986D01*
X135516457Y-114030072D01*
X135496496Y-114220000D01*
X90830800Y-114220000D01*
X90830800Y-112290000D01*
X113006496Y-112290000D01*
X113026457Y-112479927D01*
X113038991Y-112518500D01*
X113085473Y-112661556D01*
X113085476Y-112661561D01*
X113180958Y-112826941D01*
X113180965Y-112826951D01*
X113308744Y-112968864D01*
X113308747Y-112968866D01*
X113463248Y-113081118D01*
X113637712Y-113158794D01*
X113824513Y-113198500D01*
X113824989Y-113198500D01*
X113825257Y-113198578D01*
X113831075Y-113199190D01*
X113830963Y-113200254D01*
X113893110Y-113218502D01*
X113939603Y-113272158D01*
X113950298Y-113311326D01*
X113956458Y-113369928D01*
X114015473Y-113551556D01*
X114015476Y-113551561D01*
X114110958Y-113716941D01*
X114110965Y-113716951D01*
X114238744Y-113858864D01*
X114257653Y-113872602D01*
X114393248Y-113971118D01*
X114567712Y-114048794D01*
X114754513Y-114088500D01*
X114945487Y-114088500D01*
X115132288Y-114048794D01*
X115306752Y-113971118D01*
X115409509Y-113896459D01*
X115476376Y-113872602D01*
X115534819Y-113883289D01*
X115535900Y-113883770D01*
X115535901Y-113883771D01*
X115710365Y-113961447D01*
X115897166Y-114001153D01*
X116088140Y-114001153D01*
X116274941Y-113961447D01*
X116449405Y-113883771D01*
X116464679Y-113872672D01*
X116531544Y-113848813D01*
X116600696Y-113864891D01*
X116612802Y-113872670D01*
X116693248Y-113931118D01*
X116867712Y-114008794D01*
X117054513Y-114048500D01*
X117245487Y-114048500D01*
X117432288Y-114008794D01*
X117606752Y-113931118D01*
X117761253Y-113818866D01*
X117889040Y-113676944D01*
X117984527Y-113511556D01*
X118043542Y-113329928D01*
X118063504Y-113140000D01*
X118043542Y-112950072D01*
X117984527Y-112768444D01*
X117889040Y-112603056D01*
X117889038Y-112603054D01*
X117889034Y-112603048D01*
X117761255Y-112461135D01*
X117606752Y-112348882D01*
X117432288Y-112271206D01*
X117245487Y-112231500D01*
X117054513Y-112231500D01*
X116867711Y-112271206D01*
X116693248Y-112348882D01*
X116677967Y-112359984D01*
X116611098Y-112383840D01*
X116541947Y-112367757D01*
X116529854Y-112359984D01*
X116449405Y-112301535D01*
X116274941Y-112223859D01*
X116088140Y-112184153D01*
X115897166Y-112184153D01*
X115710364Y-112223859D01*
X115535901Y-112301535D01*
X115433142Y-112376193D01*
X115366274Y-112400051D01*
X115307834Y-112389363D01*
X115132290Y-112311206D01*
X114945487Y-112271500D01*
X114945011Y-112271500D01*
X114944742Y-112271421D01*
X114938925Y-112270810D01*
X114939036Y-112269745D01*
X114876890Y-112251498D01*
X114830397Y-112197842D01*
X114819701Y-112158672D01*
X114818468Y-112146941D01*
X114813542Y-112100072D01*
X114754527Y-111918444D01*
X114659040Y-111753056D01*
X114659038Y-111753054D01*
X114659034Y-111753048D01*
X114531255Y-111611135D01*
X114529693Y-111610000D01*
X129561496Y-111610000D01*
X129581457Y-111799927D01*
X129601686Y-111862184D01*
X129640473Y-111981556D01*
X129640476Y-111981561D01*
X129735958Y-112146941D01*
X129735965Y-112146951D01*
X129863744Y-112288864D01*
X129863747Y-112288866D01*
X130018248Y-112401118D01*
X130192712Y-112478794D01*
X130379513Y-112518500D01*
X130570487Y-112518500D01*
X130757288Y-112478794D01*
X130931752Y-112401118D01*
X131086253Y-112288866D01*
X131086255Y-112288864D01*
X131214034Y-112146951D01*
X131214035Y-112146949D01*
X131214040Y-112146944D01*
X131309527Y-111981556D01*
X131368542Y-111799928D01*
X131388504Y-111610000D01*
X131368542Y-111420072D01*
X131309527Y-111238444D01*
X131214040Y-111073056D01*
X131214038Y-111073054D01*
X131214034Y-111073048D01*
X131086255Y-110931135D01*
X130931752Y-110818882D01*
X130757288Y-110741206D01*
X130570487Y-110701500D01*
X130379513Y-110701500D01*
X130192711Y-110741206D01*
X130018247Y-110818882D01*
X129863744Y-110931135D01*
X129735965Y-111073048D01*
X129735958Y-111073058D01*
X129652641Y-111217368D01*
X129640473Y-111238444D01*
X129629623Y-111271836D01*
X129581457Y-111420072D01*
X129561496Y-111610000D01*
X114529693Y-111610000D01*
X114376752Y-111498882D01*
X114202288Y-111421206D01*
X114015487Y-111381500D01*
X113824513Y-111381500D01*
X113637711Y-111421206D01*
X113463247Y-111498882D01*
X113308744Y-111611135D01*
X113180965Y-111753048D01*
X113180958Y-111753058D01*
X113085476Y-111918438D01*
X113085473Y-111918445D01*
X113026457Y-112100072D01*
X113006496Y-112290000D01*
X90830800Y-112290000D01*
X90830800Y-109739993D01*
X91446540Y-109739993D01*
X91446540Y-109740006D01*
X91466357Y-110055007D01*
X91466359Y-110055024D01*
X91525504Y-110365067D01*
X91525507Y-110365080D01*
X91623039Y-110665254D01*
X91623044Y-110665267D01*
X91640094Y-110701500D01*
X91757438Y-110950869D01*
X91757440Y-110950872D01*
X91757443Y-110950878D01*
X91926562Y-111217368D01*
X92127763Y-111460578D01*
X92127766Y-111460580D01*
X92127767Y-111460582D01*
X92357860Y-111676654D01*
X92613221Y-111862184D01*
X92889821Y-112014247D01*
X93183298Y-112130443D01*
X93489025Y-112208940D01*
X93489033Y-112208941D01*
X93489032Y-112208941D01*
X93653129Y-112229670D01*
X93802179Y-112248500D01*
X93802183Y-112248500D01*
X94117817Y-112248500D01*
X94117821Y-112248500D01*
X94430975Y-112208940D01*
X94736702Y-112130443D01*
X95030179Y-112014247D01*
X95306779Y-111862184D01*
X95562140Y-111676654D01*
X95792233Y-111460582D01*
X95993432Y-111217375D01*
X95993434Y-111217370D01*
X95993437Y-111217368D01*
X96104904Y-111041721D01*
X96162562Y-110950869D01*
X96296956Y-110665266D01*
X96394495Y-110365072D01*
X96453641Y-110055020D01*
X96457282Y-109997144D01*
X96472497Y-109755305D01*
X109091801Y-109755305D01*
X109111762Y-109945232D01*
X109130155Y-110001837D01*
X109170778Y-110126861D01*
X109177825Y-110139066D01*
X109266263Y-110292246D01*
X109266270Y-110292256D01*
X109394049Y-110434169D01*
X109455304Y-110478673D01*
X109548553Y-110546423D01*
X109723017Y-110624099D01*
X109909818Y-110663805D01*
X110100792Y-110663805D01*
X110287593Y-110624099D01*
X110462057Y-110546423D01*
X110584055Y-110457785D01*
X110650919Y-110433929D01*
X110720071Y-110450009D01*
X110769551Y-110500922D01*
X110777946Y-110520786D01*
X110834668Y-110695356D01*
X110834671Y-110695361D01*
X110930153Y-110860741D01*
X110930160Y-110860751D01*
X111057939Y-111002664D01*
X111057942Y-111002666D01*
X111212443Y-111114918D01*
X111386907Y-111192594D01*
X111573708Y-111232300D01*
X111764682Y-111232300D01*
X111951483Y-111192594D01*
X112125947Y-111114918D01*
X112280448Y-111002666D01*
X112327091Y-110950864D01*
X112408229Y-110860751D01*
X112408230Y-110860749D01*
X112408235Y-110860744D01*
X112503722Y-110695356D01*
X112562737Y-110513728D01*
X112582699Y-110323800D01*
X112562737Y-110133872D01*
X112503722Y-109952244D01*
X112408235Y-109786856D01*
X112408233Y-109786854D01*
X112408229Y-109786848D01*
X112280450Y-109644935D01*
X112125947Y-109532682D01*
X111951483Y-109455006D01*
X111764682Y-109415300D01*
X111573708Y-109415300D01*
X111386906Y-109455006D01*
X111212442Y-109532682D01*
X111090447Y-109621317D01*
X111023579Y-109645176D01*
X110954427Y-109629095D01*
X110904947Y-109578181D01*
X110896553Y-109558317D01*
X110839833Y-109383752D01*
X110839832Y-109383750D01*
X110839832Y-109383749D01*
X110744345Y-109218361D01*
X110744343Y-109218359D01*
X110744339Y-109218353D01*
X110616560Y-109076440D01*
X110462057Y-108964187D01*
X110287593Y-108886511D01*
X110100792Y-108846805D01*
X109909818Y-108846805D01*
X109723016Y-108886511D01*
X109548552Y-108964187D01*
X109394049Y-109076440D01*
X109266270Y-109218353D01*
X109266263Y-109218363D01*
X109219172Y-109299928D01*
X109170778Y-109383749D01*
X109169102Y-109388908D01*
X109111762Y-109565377D01*
X109091801Y-109755305D01*
X96472497Y-109755305D01*
X96473460Y-109740006D01*
X96473460Y-109739993D01*
X96453642Y-109424992D01*
X96453640Y-109424975D01*
X96446759Y-109388903D01*
X96394495Y-109114928D01*
X96339657Y-108946153D01*
X96296960Y-108814745D01*
X96296955Y-108814732D01*
X96294006Y-108808465D01*
X96162562Y-108529131D01*
X96162556Y-108529121D01*
X95993437Y-108262631D01*
X95792236Y-108019421D01*
X95791568Y-108018794D01*
X95790027Y-108017347D01*
X115773843Y-108017347D01*
X115793804Y-108207274D01*
X115811789Y-108262625D01*
X115852820Y-108388903D01*
X115852823Y-108388908D01*
X115948305Y-108554288D01*
X115948312Y-108554298D01*
X116076091Y-108696211D01*
X116076094Y-108696213D01*
X116230595Y-108808465D01*
X116405059Y-108886141D01*
X116591860Y-108925847D01*
X116782834Y-108925847D01*
X116969635Y-108886141D01*
X117144099Y-108808465D01*
X117298600Y-108696213D01*
X117408097Y-108574604D01*
X117426381Y-108554298D01*
X117426382Y-108554296D01*
X117426387Y-108554291D01*
X117521874Y-108388903D01*
X117580002Y-108210003D01*
X117620076Y-108151398D01*
X117685472Y-108123761D01*
X117755429Y-108135868D01*
X117807735Y-108183874D01*
X117823080Y-108222735D01*
X117824109Y-108227576D01*
X117835961Y-108264051D01*
X117883126Y-108409209D01*
X117883129Y-108409214D01*
X117978611Y-108574594D01*
X117978618Y-108574604D01*
X118106397Y-108716517D01*
X118130177Y-108733794D01*
X118260901Y-108828771D01*
X118435365Y-108906447D01*
X118622166Y-108946153D01*
X118813140Y-108946153D01*
X118999941Y-108906447D01*
X119174405Y-108828771D01*
X119328906Y-108716519D01*
X119347190Y-108696213D01*
X119456687Y-108574604D01*
X119456688Y-108574602D01*
X119456693Y-108574597D01*
X119552180Y-108409209D01*
X119611195Y-108227581D01*
X119620400Y-108140000D01*
X122326496Y-108140000D01*
X122346457Y-108329927D01*
X122372218Y-108409209D01*
X122405473Y-108511556D01*
X122428650Y-108551700D01*
X122500958Y-108676941D01*
X122500965Y-108676951D01*
X122628744Y-108818864D01*
X122667687Y-108847158D01*
X122783248Y-108931118D01*
X122957712Y-109008794D01*
X123144513Y-109048500D01*
X123335482Y-109048500D01*
X123335487Y-109048500D01*
X123338087Y-109047947D01*
X123339627Y-109048064D01*
X123342050Y-109047810D01*
X123342096Y-109048252D01*
X123408874Y-109053344D01*
X123465510Y-109096158D01*
X123482673Y-109134213D01*
X123484417Y-109133647D01*
X123486458Y-109139928D01*
X123545473Y-109321556D01*
X123545476Y-109321561D01*
X123640958Y-109486941D01*
X123640965Y-109486951D01*
X123768744Y-109628864D01*
X123822361Y-109667819D01*
X123923248Y-109741118D01*
X124097712Y-109818794D01*
X124284513Y-109858500D01*
X124475487Y-109858500D01*
X124662288Y-109818794D01*
X124743183Y-109782776D01*
X124813549Y-109773342D01*
X124868493Y-109795947D01*
X125013248Y-109901118D01*
X125187712Y-109978794D01*
X125374513Y-110018500D01*
X125565491Y-110018500D01*
X125694611Y-109991054D01*
X125765402Y-109996455D01*
X125822035Y-110039271D01*
X125846529Y-110105909D01*
X125831108Y-110175211D01*
X125829929Y-110177298D01*
X125814077Y-110204755D01*
X125814073Y-110204764D01*
X125755057Y-110386391D01*
X125735096Y-110576319D01*
X125755057Y-110766246D01*
X125766435Y-110801262D01*
X125814073Y-110947875D01*
X125814076Y-110947880D01*
X125909558Y-111113260D01*
X125909565Y-111113270D01*
X126037344Y-111255183D01*
X126037347Y-111255185D01*
X126191848Y-111367437D01*
X126366312Y-111445113D01*
X126553113Y-111484819D01*
X126744087Y-111484819D01*
X126930888Y-111445113D01*
X127105352Y-111367437D01*
X127259853Y-111255185D01*
X127387640Y-111113263D01*
X127483127Y-110947875D01*
X127542142Y-110766247D01*
X127562104Y-110576319D01*
X127542142Y-110386391D01*
X127483127Y-110204763D01*
X127387640Y-110039375D01*
X127387638Y-110039373D01*
X127387634Y-110039367D01*
X127259855Y-109897454D01*
X127105352Y-109785201D01*
X126930888Y-109707525D01*
X126744087Y-109667819D01*
X126553113Y-109667819D01*
X126553111Y-109667819D01*
X126423986Y-109695265D01*
X126353196Y-109689863D01*
X126296563Y-109647046D01*
X126272070Y-109580408D01*
X126287491Y-109511107D01*
X126288630Y-109509090D01*
X126304527Y-109481556D01*
X126363542Y-109299928D01*
X126383504Y-109110000D01*
X126363542Y-108920072D01*
X126304527Y-108738444D01*
X126209040Y-108573056D01*
X126209038Y-108573054D01*
X126209034Y-108573048D01*
X126081255Y-108431135D01*
X125926752Y-108318882D01*
X125752288Y-108241206D01*
X125565487Y-108201500D01*
X125374513Y-108201500D01*
X125187711Y-108241206D01*
X125106813Y-108277223D01*
X125036446Y-108286656D01*
X124981505Y-108264051D01*
X124836752Y-108158882D01*
X124662288Y-108081206D01*
X124475487Y-108041500D01*
X124284513Y-108041500D01*
X124284509Y-108041500D01*
X124281897Y-108042055D01*
X124280350Y-108041936D01*
X124277942Y-108042190D01*
X124277895Y-108041749D01*
X124211107Y-108036647D01*
X124154478Y-107993825D01*
X124137332Y-107955784D01*
X124135583Y-107956353D01*
X124110428Y-107878936D01*
X124108400Y-107807968D01*
X124145062Y-107747170D01*
X124204062Y-107716752D01*
X124354788Y-107684715D01*
X124529252Y-107607039D01*
X124683753Y-107494787D01*
X124683755Y-107494785D01*
X124811534Y-107352872D01*
X124811535Y-107352870D01*
X124811540Y-107352865D01*
X124907027Y-107187477D01*
X124919204Y-107150000D01*
X125496496Y-107150000D01*
X125516457Y-107339927D01*
X125533584Y-107392636D01*
X125575473Y-107521556D01*
X125575476Y-107521561D01*
X125670958Y-107686941D01*
X125670965Y-107686951D01*
X125798744Y-107828864D01*
X125820897Y-107844959D01*
X125953248Y-107941118D01*
X126127712Y-108018794D01*
X126314513Y-108058500D01*
X126505486Y-108058500D01*
X126505487Y-108058500D01*
X126536818Y-108051840D01*
X126607607Y-108057241D01*
X126664241Y-108100057D01*
X126682848Y-108136149D01*
X126715472Y-108236554D01*
X126715476Y-108236561D01*
X126810958Y-108401941D01*
X126810965Y-108401951D01*
X126938744Y-108543864D01*
X126953096Y-108554291D01*
X127093248Y-108656118D01*
X127267712Y-108733794D01*
X127454513Y-108773500D01*
X127629183Y-108773500D01*
X127697304Y-108793502D01*
X127743797Y-108847158D01*
X127753901Y-108917432D01*
X127738302Y-108962500D01*
X127672520Y-109076439D01*
X127665473Y-109088644D01*
X127652036Y-109130000D01*
X127606457Y-109270272D01*
X127586496Y-109460200D01*
X127606457Y-109650127D01*
X127626738Y-109712543D01*
X127665473Y-109831756D01*
X127665476Y-109831761D01*
X127760958Y-109997141D01*
X127760965Y-109997151D01*
X127888744Y-110139064D01*
X127930502Y-110169403D01*
X128043248Y-110251318D01*
X128217712Y-110328994D01*
X128404513Y-110368700D01*
X128595487Y-110368700D01*
X128782288Y-110328994D01*
X128956752Y-110251318D01*
X129111253Y-110139066D01*
X129122238Y-110126866D01*
X129239034Y-109997151D01*
X129239035Y-109997149D01*
X129239040Y-109997144D01*
X129334527Y-109831756D01*
X129393542Y-109650128D01*
X129413504Y-109460200D01*
X129393542Y-109270272D01*
X129334527Y-109088644D01*
X129239040Y-108923256D01*
X129239038Y-108923254D01*
X129239034Y-108923248D01*
X129111255Y-108781335D01*
X128956752Y-108669082D01*
X128782288Y-108591406D01*
X128595487Y-108551700D01*
X128420817Y-108551700D01*
X128352696Y-108531698D01*
X128306203Y-108478042D01*
X128296099Y-108407768D01*
X128311698Y-108362700D01*
X128341799Y-108310563D01*
X128384527Y-108236556D01*
X128443542Y-108054928D01*
X128463504Y-107865000D01*
X128443542Y-107675072D01*
X128384527Y-107493444D01*
X128289040Y-107328056D01*
X128289038Y-107328054D01*
X128289034Y-107328048D01*
X128161255Y-107186135D01*
X128006752Y-107073882D01*
X127832288Y-106996206D01*
X127645487Y-106956500D01*
X127454513Y-106956500D01*
X127454509Y-106956500D01*
X127423176Y-106963159D01*
X127352386Y-106957755D01*
X127295754Y-106914937D01*
X127277151Y-106878850D01*
X127244527Y-106778444D01*
X127149040Y-106613056D01*
X127149038Y-106613054D01*
X127149034Y-106613048D01*
X127021255Y-106471135D01*
X126866752Y-106358882D01*
X126692288Y-106281206D01*
X126505487Y-106241500D01*
X126314513Y-106241500D01*
X126127711Y-106281206D01*
X125953247Y-106358882D01*
X125798744Y-106471135D01*
X125670965Y-106613048D01*
X125670958Y-106613058D01*
X125575476Y-106778438D01*
X125575473Y-106778445D01*
X125516457Y-106960072D01*
X125496496Y-107150000D01*
X124919204Y-107150000D01*
X124966042Y-107005849D01*
X124986004Y-106815921D01*
X124966042Y-106625993D01*
X124907027Y-106444365D01*
X124811540Y-106278977D01*
X124811538Y-106278975D01*
X124811534Y-106278969D01*
X124683755Y-106137056D01*
X124529252Y-106024803D01*
X124354788Y-105947127D01*
X124167987Y-105907421D01*
X123977013Y-105907421D01*
X123790211Y-105947127D01*
X123615747Y-106024803D01*
X123461244Y-106137056D01*
X123333465Y-106278969D01*
X123333458Y-106278979D01*
X123237976Y-106444359D01*
X123237973Y-106444366D01*
X123178957Y-106625993D01*
X123158996Y-106815921D01*
X123178957Y-107005849D01*
X123202071Y-107076985D01*
X123204099Y-107147952D01*
X123167436Y-107208750D01*
X123108436Y-107239167D01*
X122957715Y-107271204D01*
X122783247Y-107348882D01*
X122628744Y-107461135D01*
X122500965Y-107603048D01*
X122500958Y-107603058D01*
X122405476Y-107768438D01*
X122405473Y-107768445D01*
X122346457Y-107950072D01*
X122326496Y-108140000D01*
X119620400Y-108140000D01*
X119631157Y-108037653D01*
X119611195Y-107847725D01*
X119552180Y-107666097D01*
X119456693Y-107500709D01*
X119456691Y-107500707D01*
X119456687Y-107500701D01*
X119328908Y-107358788D01*
X119174405Y-107246535D01*
X118999941Y-107168859D01*
X118813140Y-107129153D01*
X118622166Y-107129153D01*
X118435364Y-107168859D01*
X118260900Y-107246535D01*
X118106397Y-107358788D01*
X117978618Y-107500701D01*
X117978611Y-107500711D01*
X117883129Y-107666091D01*
X117883126Y-107666097D01*
X117876350Y-107686951D01*
X117824997Y-107844996D01*
X117784923Y-107903602D01*
X117719526Y-107931238D01*
X117649569Y-107919131D01*
X117597263Y-107871124D01*
X117581917Y-107832255D01*
X117580889Y-107827418D01*
X117561727Y-107768445D01*
X117521874Y-107645791D01*
X117426387Y-107480403D01*
X117426385Y-107480401D01*
X117426381Y-107480395D01*
X117298602Y-107338482D01*
X117144099Y-107226229D01*
X116969635Y-107148553D01*
X116782834Y-107108847D01*
X116591860Y-107108847D01*
X116405058Y-107148553D01*
X116230594Y-107226229D01*
X116076091Y-107338482D01*
X115948312Y-107480395D01*
X115948305Y-107480405D01*
X115852823Y-107645785D01*
X115852820Y-107645791D01*
X115849684Y-107655444D01*
X115793804Y-107827419D01*
X115773843Y-108017347D01*
X95790027Y-108017347D01*
X95562140Y-107803346D01*
X95514103Y-107768445D01*
X95306781Y-107617817D01*
X95226864Y-107573882D01*
X95030179Y-107465753D01*
X94736702Y-107349557D01*
X94430975Y-107271060D01*
X94430970Y-107271059D01*
X94430965Y-107271058D01*
X94430967Y-107271058D01*
X94117835Y-107231501D01*
X94117824Y-107231500D01*
X94117821Y-107231500D01*
X93802179Y-107231500D01*
X93802176Y-107231500D01*
X93802164Y-107231501D01*
X93489033Y-107271058D01*
X93489025Y-107271059D01*
X93489025Y-107271060D01*
X93464110Y-107277457D01*
X93183301Y-107349556D01*
X93183299Y-107349556D01*
X93183298Y-107349557D01*
X93074493Y-107392636D01*
X92889821Y-107465753D01*
X92613218Y-107617817D01*
X92357861Y-107803345D01*
X92357860Y-107803345D01*
X92127763Y-108019421D01*
X91926562Y-108262631D01*
X91757443Y-108529121D01*
X91757436Y-108529135D01*
X91623044Y-108814732D01*
X91623039Y-108814745D01*
X91525507Y-109114919D01*
X91525504Y-109114932D01*
X91466359Y-109424975D01*
X91466357Y-109424992D01*
X91446540Y-109739993D01*
X90830800Y-109739993D01*
X90830800Y-103410000D01*
X93486496Y-103410000D01*
X93506457Y-103599927D01*
X93506850Y-103601135D01*
X93565473Y-103781556D01*
X93565476Y-103781561D01*
X93660991Y-103947000D01*
X93677729Y-104015996D01*
X93660991Y-104073000D01*
X93565476Y-104238438D01*
X93565473Y-104238445D01*
X93506457Y-104420072D01*
X93486496Y-104610000D01*
X93506457Y-104799927D01*
X93536526Y-104892470D01*
X93565473Y-104981556D01*
X93565475Y-104981561D01*
X93565478Y-104981566D01*
X93663104Y-105150661D01*
X93679842Y-105219656D01*
X93663105Y-105276659D01*
X93575474Y-105428441D01*
X93575473Y-105428443D01*
X93575473Y-105428444D01*
X93560999Y-105472986D01*
X93516457Y-105610072D01*
X93496496Y-105800000D01*
X93516457Y-105989927D01*
X93541716Y-106067665D01*
X93575473Y-106171556D01*
X93585393Y-106188738D01*
X93670958Y-106336941D01*
X93670965Y-106336951D01*
X93798744Y-106478864D01*
X93798747Y-106478866D01*
X93953248Y-106591118D01*
X94127712Y-106668794D01*
X94314513Y-106708500D01*
X94505487Y-106708500D01*
X94692288Y-106668794D01*
X94866752Y-106591118D01*
X95021253Y-106478866D01*
X95092708Y-106399507D01*
X95149034Y-106336951D01*
X95149035Y-106336949D01*
X95149040Y-106336944D01*
X95244527Y-106171556D01*
X95303542Y-105989928D01*
X95323504Y-105800000D01*
X95305230Y-105626136D01*
X131136674Y-105626136D01*
X131156635Y-105816063D01*
X131178719Y-105884027D01*
X131215651Y-105997692D01*
X131215651Y-105997693D01*
X131215652Y-105997694D01*
X131266157Y-106085172D01*
X131282894Y-106154167D01*
X131266157Y-106211169D01*
X131241286Y-106254246D01*
X131241282Y-106254256D01*
X131182269Y-106435878D01*
X131162308Y-106625807D01*
X131182269Y-106815734D01*
X131182330Y-106815921D01*
X131241285Y-106997363D01*
X131241288Y-106997368D01*
X131336770Y-107162748D01*
X131336777Y-107162758D01*
X131464556Y-107304671D01*
X131585629Y-107392636D01*
X131628983Y-107448858D01*
X131635058Y-107519595D01*
X131601926Y-107582386D01*
X131585629Y-107596508D01*
X131462268Y-107686135D01*
X131334489Y-107828048D01*
X131334482Y-107828058D01*
X131239000Y-107993438D01*
X131238997Y-107993444D01*
X131229522Y-108022606D01*
X131179981Y-108175072D01*
X131160020Y-108365000D01*
X131179981Y-108554927D01*
X131209503Y-108645785D01*
X131238997Y-108736556D01*
X131239000Y-108736561D01*
X131334482Y-108901941D01*
X131334489Y-108901951D01*
X131462268Y-109043864D01*
X131462271Y-109043866D01*
X131616772Y-109156118D01*
X131791236Y-109233794D01*
X131978037Y-109273500D01*
X132169011Y-109273500D01*
X132355812Y-109233794D01*
X132530276Y-109156118D01*
X132635649Y-109079559D01*
X132702513Y-109055703D01*
X132771665Y-109071783D01*
X132821145Y-109122696D01*
X132835017Y-109168326D01*
X132839110Y-109207274D01*
X132859580Y-109270272D01*
X132898126Y-109388903D01*
X132898129Y-109388908D01*
X132993611Y-109554288D01*
X132993618Y-109554298D01*
X133121397Y-109696211D01*
X133143876Y-109712543D01*
X133275901Y-109808465D01*
X133450365Y-109886141D01*
X133637166Y-109925847D01*
X133828140Y-109925847D01*
X134014941Y-109886141D01*
X134189405Y-109808465D01*
X134343906Y-109696213D01*
X134404339Y-109629095D01*
X134471687Y-109554298D01*
X134471688Y-109554296D01*
X134471693Y-109554291D01*
X134567180Y-109388903D01*
X134626195Y-109207275D01*
X134646157Y-109017347D01*
X134626195Y-108827419D01*
X134567180Y-108645791D01*
X134471693Y-108480403D01*
X134471691Y-108480401D01*
X134471687Y-108480395D01*
X134343908Y-108338482D01*
X134189405Y-108226229D01*
X134014941Y-108148553D01*
X133828140Y-108108847D01*
X133637166Y-108108847D01*
X133450364Y-108148553D01*
X133275900Y-108226229D01*
X133170530Y-108302785D01*
X133103662Y-108326644D01*
X133034510Y-108310563D01*
X132985030Y-108259649D01*
X132971159Y-108214017D01*
X132970450Y-108207275D01*
X132967066Y-108175072D01*
X132913395Y-108009893D01*
X132911368Y-107938928D01*
X132948030Y-107878130D01*
X133011742Y-107846805D01*
X133033229Y-107844959D01*
X133121826Y-107844959D01*
X133308627Y-107805253D01*
X133483091Y-107727577D01*
X133637592Y-107615325D01*
X133654535Y-107596508D01*
X133765373Y-107473410D01*
X133765374Y-107473408D01*
X133765379Y-107473403D01*
X133860866Y-107308015D01*
X133919881Y-107126387D01*
X133939843Y-106936459D01*
X133919881Y-106746531D01*
X133860866Y-106564903D01*
X133765379Y-106399515D01*
X133765377Y-106399513D01*
X133765373Y-106399507D01*
X133637594Y-106257594D01*
X133483091Y-106145341D01*
X133308627Y-106067665D01*
X133121826Y-106027959D01*
X133048295Y-106027959D01*
X132980174Y-106007957D01*
X132933681Y-105954301D01*
X132923577Y-105884027D01*
X132928462Y-105863022D01*
X132943720Y-105816063D01*
X132945408Y-105800000D01*
X132963682Y-105626136D01*
X132943720Y-105436208D01*
X132905960Y-105319997D01*
X135571451Y-105319997D01*
X135571451Y-105320002D01*
X135591597Y-105524555D01*
X135591598Y-105524561D01*
X135591599Y-105524562D01*
X135651267Y-105721262D01*
X135748163Y-105902543D01*
X135878564Y-106061436D01*
X136037457Y-106191837D01*
X136218738Y-106288733D01*
X136415438Y-106348401D01*
X136415442Y-106348401D01*
X136415444Y-106348402D01*
X136619997Y-106368549D01*
X136620000Y-106368549D01*
X136712853Y-106359403D01*
X136782604Y-106372631D01*
X136834133Y-106421470D01*
X136851077Y-106490415D01*
X136850595Y-106497145D01*
X136841451Y-106589995D01*
X136841451Y-106590002D01*
X136861597Y-106794555D01*
X136861598Y-106794561D01*
X136861599Y-106794562D01*
X136868022Y-106815735D01*
X136921267Y-106991262D01*
X137014454Y-107165604D01*
X137028926Y-107235110D01*
X137014454Y-107284396D01*
X136921267Y-107458737D01*
X136861597Y-107655444D01*
X136841451Y-107859997D01*
X136841451Y-107860004D01*
X136850595Y-107952853D01*
X136837366Y-108022606D01*
X136788525Y-108074134D01*
X136719580Y-108091077D01*
X136712853Y-108090595D01*
X136620004Y-108081451D01*
X136619997Y-108081451D01*
X136415444Y-108101597D01*
X136218737Y-108161267D01*
X136037456Y-108258163D01*
X135878564Y-108388564D01*
X135748163Y-108547456D01*
X135651267Y-108728737D01*
X135591597Y-108925444D01*
X135571451Y-109129997D01*
X135571451Y-109130002D01*
X135591597Y-109334555D01*
X135591598Y-109334561D01*
X135591599Y-109334562D01*
X135651267Y-109531262D01*
X135748163Y-109712543D01*
X135878564Y-109871436D01*
X136037457Y-110001837D01*
X136218738Y-110098733D01*
X136415438Y-110158401D01*
X136415442Y-110158401D01*
X136415444Y-110158402D01*
X136619997Y-110178549D01*
X136620000Y-110178549D01*
X136712853Y-110169403D01*
X136782604Y-110182631D01*
X136834133Y-110231470D01*
X136851077Y-110300415D01*
X136850595Y-110307145D01*
X136841451Y-110399995D01*
X136841451Y-110400002D01*
X136861597Y-110604555D01*
X136861598Y-110604561D01*
X136861599Y-110604562D01*
X136921267Y-110801262D01*
X137018163Y-110982543D01*
X137148564Y-111141436D01*
X137307457Y-111271837D01*
X137488738Y-111368733D01*
X137685438Y-111428401D01*
X137685442Y-111428401D01*
X137685444Y-111428402D01*
X137889997Y-111448549D01*
X137890000Y-111448549D01*
X137890003Y-111448549D01*
X138094555Y-111428402D01*
X138094556Y-111428401D01*
X138094562Y-111428401D01*
X138291262Y-111368733D01*
X138472543Y-111271837D01*
X138631436Y-111141436D01*
X138761837Y-110982543D01*
X138858733Y-110801262D01*
X138918401Y-110604562D01*
X138924128Y-110546423D01*
X138938549Y-110400002D01*
X138938549Y-110399997D01*
X138918402Y-110195444D01*
X138918401Y-110195442D01*
X138918401Y-110195438D01*
X138858733Y-109998738D01*
X138765544Y-109824393D01*
X138751073Y-109754890D01*
X138765543Y-109705607D01*
X138858733Y-109531262D01*
X138918401Y-109334562D01*
X138919683Y-109321554D01*
X138938549Y-109130002D01*
X138938549Y-109129997D01*
X138918402Y-108925444D01*
X138918401Y-108925442D01*
X138918401Y-108925438D01*
X138858733Y-108728738D01*
X138765544Y-108554393D01*
X138751073Y-108484890D01*
X138765543Y-108435607D01*
X138858733Y-108261262D01*
X138918401Y-108064562D01*
X138920605Y-108042190D01*
X138938549Y-107860002D01*
X138938549Y-107859997D01*
X138918402Y-107655444D01*
X138918401Y-107655442D01*
X138918401Y-107655438D01*
X138858733Y-107458738D01*
X138765544Y-107284393D01*
X138751073Y-107214890D01*
X138765543Y-107165607D01*
X138858733Y-106991262D01*
X138918401Y-106794562D01*
X138919989Y-106778447D01*
X138938549Y-106590002D01*
X138938549Y-106589997D01*
X138918402Y-106385444D01*
X138918401Y-106385442D01*
X138918401Y-106385438D01*
X138858733Y-106188738D01*
X138765544Y-106014393D01*
X138751073Y-105944890D01*
X138765543Y-105895607D01*
X138858733Y-105721262D01*
X138918401Y-105524562D01*
X138927104Y-105436208D01*
X138938549Y-105320002D01*
X138938549Y-105319997D01*
X138918402Y-105115444D01*
X138918401Y-105115442D01*
X138918401Y-105115438D01*
X138858733Y-104918738D01*
X138761837Y-104737457D01*
X138631436Y-104578564D01*
X138472543Y-104448163D01*
X138291262Y-104351267D01*
X138094562Y-104291599D01*
X138094561Y-104291598D01*
X138094555Y-104291597D01*
X137890003Y-104271451D01*
X137889997Y-104271451D01*
X137685444Y-104291597D01*
X137488737Y-104351267D01*
X137314396Y-104444454D01*
X137244890Y-104458926D01*
X137195604Y-104444454D01*
X137021262Y-104351267D01*
X136824555Y-104291597D01*
X136620003Y-104271451D01*
X136619997Y-104271451D01*
X136415444Y-104291597D01*
X136218737Y-104351267D01*
X136037456Y-104448163D01*
X135878564Y-104578564D01*
X135748163Y-104737456D01*
X135651267Y-104918737D01*
X135591597Y-105115444D01*
X135571451Y-105319997D01*
X132905960Y-105319997D01*
X132884705Y-105254580D01*
X132789218Y-105089192D01*
X132789216Y-105089190D01*
X132789212Y-105089184D01*
X132661433Y-104947271D01*
X132506930Y-104835018D01*
X132332466Y-104757342D01*
X132145665Y-104717636D01*
X131954691Y-104717636D01*
X131767889Y-104757342D01*
X131593425Y-104835018D01*
X131438922Y-104947271D01*
X131311143Y-105089184D01*
X131311136Y-105089194D01*
X131215654Y-105254574D01*
X131215651Y-105254581D01*
X131156635Y-105436208D01*
X131136674Y-105626136D01*
X95305230Y-105626136D01*
X95303542Y-105610072D01*
X95244527Y-105428444D01*
X95156894Y-105276659D01*
X95146894Y-105259338D01*
X95130156Y-105190343D01*
X95146891Y-105133344D01*
X95234527Y-104981556D01*
X95293542Y-104799928D01*
X95313504Y-104610000D01*
X95293542Y-104420072D01*
X95248029Y-104280000D01*
X121386496Y-104280000D01*
X121406457Y-104469927D01*
X121436526Y-104562470D01*
X121465473Y-104651556D01*
X121465476Y-104651561D01*
X121560958Y-104816941D01*
X121560965Y-104816951D01*
X121688744Y-104958864D01*
X121688747Y-104958866D01*
X121843248Y-105071118D01*
X122017712Y-105148794D01*
X122204513Y-105188500D01*
X122395487Y-105188500D01*
X122582288Y-105148794D01*
X122756752Y-105071118D01*
X122911253Y-104958866D01*
X122921694Y-104947270D01*
X123039034Y-104816951D01*
X123039035Y-104816949D01*
X123039040Y-104816944D01*
X123134527Y-104651556D01*
X123193542Y-104469928D01*
X123213504Y-104280000D01*
X123193542Y-104090072D01*
X123134527Y-103908444D01*
X123057598Y-103775200D01*
X128718996Y-103775200D01*
X128738957Y-103965127D01*
X128751590Y-104004005D01*
X128797973Y-104146756D01*
X128797976Y-104146761D01*
X128893458Y-104312141D01*
X128893465Y-104312151D01*
X129021244Y-104454064D01*
X129021247Y-104454066D01*
X129175748Y-104566318D01*
X129350212Y-104643994D01*
X129537013Y-104683700D01*
X129727987Y-104683700D01*
X129914788Y-104643994D01*
X130089252Y-104566318D01*
X130243753Y-104454066D01*
X130252408Y-104444454D01*
X130371534Y-104312151D01*
X130371535Y-104312149D01*
X130371540Y-104312144D01*
X130467027Y-104146756D01*
X130526042Y-103965128D01*
X130546004Y-103775200D01*
X130526042Y-103585272D01*
X130467027Y-103403644D01*
X130371540Y-103238256D01*
X130371538Y-103238254D01*
X130371534Y-103238248D01*
X130243755Y-103096335D01*
X130089252Y-102984082D01*
X129914788Y-102906406D01*
X129727987Y-102866700D01*
X129537013Y-102866700D01*
X129350211Y-102906406D01*
X129175747Y-102984082D01*
X129021244Y-103096335D01*
X128893465Y-103238248D01*
X128893458Y-103238258D01*
X128797976Y-103403638D01*
X128797973Y-103403645D01*
X128738957Y-103585272D01*
X128718996Y-103775200D01*
X123057598Y-103775200D01*
X123039040Y-103743056D01*
X123039038Y-103743054D01*
X123039034Y-103743048D01*
X122911255Y-103601135D01*
X122756752Y-103488882D01*
X122587044Y-103413323D01*
X122532948Y-103367342D01*
X122512299Y-103299415D01*
X122531652Y-103231107D01*
X122584862Y-103184106D01*
X122612090Y-103174970D01*
X122782288Y-103138794D01*
X122956752Y-103061118D01*
X123111253Y-102948866D01*
X123239040Y-102806944D01*
X123334527Y-102641556D01*
X123393542Y-102459928D01*
X123413504Y-102270000D01*
X123393542Y-102080072D01*
X123334527Y-101898444D01*
X123239040Y-101733056D01*
X123239038Y-101733054D01*
X123239034Y-101733048D01*
X123111255Y-101591135D01*
X123047756Y-101545000D01*
X124383996Y-101545000D01*
X124403957Y-101734927D01*
X124416051Y-101772146D01*
X124462973Y-101916556D01*
X124462976Y-101916561D01*
X124558458Y-102081941D01*
X124558465Y-102081951D01*
X124686244Y-102223864D01*
X124686247Y-102223866D01*
X124840748Y-102336118D01*
X125015212Y-102413794D01*
X125202013Y-102453500D01*
X125392987Y-102453500D01*
X125579788Y-102413794D01*
X125754252Y-102336118D01*
X125908753Y-102223866D01*
X125980939Y-102143695D01*
X126036534Y-102081951D01*
X126036535Y-102081949D01*
X126036540Y-102081944D01*
X126132027Y-101916556D01*
X126191042Y-101734928D01*
X126211004Y-101545000D01*
X126191042Y-101355072D01*
X126152952Y-101237846D01*
X126150925Y-101166880D01*
X126187587Y-101106082D01*
X126251299Y-101074757D01*
X126321833Y-101082849D01*
X126366421Y-101114599D01*
X126463747Y-101222691D01*
X126618248Y-101334943D01*
X126792712Y-101412619D01*
X126836688Y-101421966D01*
X126899162Y-101455693D01*
X126930326Y-101506276D01*
X126962974Y-101606755D01*
X127058458Y-101772136D01*
X127058465Y-101772146D01*
X127186244Y-101914059D01*
X127186247Y-101914061D01*
X127340748Y-102026313D01*
X127515212Y-102103989D01*
X127702013Y-102143695D01*
X127892987Y-102143695D01*
X128079788Y-102103989D01*
X128254252Y-102026313D01*
X128408753Y-101914061D01*
X128536540Y-101772139D01*
X128632027Y-101606751D01*
X128691042Y-101425123D01*
X128711004Y-101235195D01*
X128691042Y-101045267D01*
X128632027Y-100863639D01*
X128536540Y-100698251D01*
X128536538Y-100698249D01*
X128536534Y-100698243D01*
X128408755Y-100556330D01*
X128254252Y-100444077D01*
X128079785Y-100366399D01*
X128035806Y-100357051D01*
X127973333Y-100323322D01*
X127942173Y-100272743D01*
X127909527Y-100172269D01*
X127814040Y-100006881D01*
X127814038Y-100006879D01*
X127814034Y-100006873D01*
X127686255Y-99864960D01*
X127531752Y-99752707D01*
X127357288Y-99675031D01*
X127170487Y-99635325D01*
X126979513Y-99635325D01*
X126792711Y-99675031D01*
X126618247Y-99752707D01*
X126463744Y-99864960D01*
X126335965Y-100006873D01*
X126335958Y-100006883D01*
X126240476Y-100172263D01*
X126240473Y-100172270D01*
X126181457Y-100353897D01*
X126161496Y-100543825D01*
X126181457Y-100733753D01*
X126219546Y-100850977D01*
X126221574Y-100921944D01*
X126184911Y-100982742D01*
X126121199Y-101014068D01*
X126050665Y-101005975D01*
X126006077Y-100974224D01*
X125908753Y-100866134D01*
X125905320Y-100863640D01*
X125754252Y-100753882D01*
X125579788Y-100676206D01*
X125392987Y-100636500D01*
X125202013Y-100636500D01*
X125015211Y-100676206D01*
X124840747Y-100753882D01*
X124686244Y-100866135D01*
X124558465Y-101008048D01*
X124558458Y-101008058D01*
X124462976Y-101173438D01*
X124462973Y-101173445D01*
X124403957Y-101355072D01*
X124383996Y-101545000D01*
X123047756Y-101545000D01*
X122956752Y-101478882D01*
X122782288Y-101401206D01*
X122595487Y-101361500D01*
X122404513Y-101361500D01*
X122217711Y-101401206D01*
X122043247Y-101478882D01*
X121888744Y-101591135D01*
X121760965Y-101733048D01*
X121760958Y-101733058D01*
X121687300Y-101860638D01*
X121665473Y-101898444D01*
X121659551Y-101916670D01*
X121606457Y-102080072D01*
X121586496Y-102270000D01*
X121606457Y-102459927D01*
X121632313Y-102539502D01*
X121665473Y-102641556D01*
X121665476Y-102641561D01*
X121760958Y-102806941D01*
X121760965Y-102806951D01*
X121888744Y-102948864D01*
X121888747Y-102948866D01*
X122043248Y-103061118D01*
X122212955Y-103136676D01*
X122267051Y-103182656D01*
X122287700Y-103250583D01*
X122268348Y-103318892D01*
X122215137Y-103365893D01*
X122187903Y-103375029D01*
X122017716Y-103411204D01*
X121843247Y-103488882D01*
X121688744Y-103601135D01*
X121560965Y-103743048D01*
X121560958Y-103743058D01*
X121465476Y-103908438D01*
X121465473Y-103908444D01*
X121452945Y-103947000D01*
X121406457Y-104090072D01*
X121386496Y-104280000D01*
X95248029Y-104280000D01*
X95234527Y-104238444D01*
X95139040Y-104073056D01*
X95139038Y-104073053D01*
X95139007Y-104073000D01*
X95122269Y-104004005D01*
X95139007Y-103947000D01*
X95139038Y-103946946D01*
X95139040Y-103946944D01*
X95234527Y-103781556D01*
X95293542Y-103599928D01*
X95313504Y-103410000D01*
X95293542Y-103220072D01*
X95234527Y-103038444D01*
X95139040Y-102873056D01*
X95139038Y-102873054D01*
X95139034Y-102873048D01*
X95011255Y-102731135D01*
X94856752Y-102618882D01*
X94682288Y-102541206D01*
X94495487Y-102501500D01*
X94304513Y-102501500D01*
X94117711Y-102541206D01*
X93943247Y-102618882D01*
X93788744Y-102731135D01*
X93660965Y-102873048D01*
X93660958Y-102873058D01*
X93565476Y-103038438D01*
X93565473Y-103038445D01*
X93506457Y-103220072D01*
X93486496Y-103410000D01*
X90830800Y-103410000D01*
X90830800Y-101340000D01*
X96726496Y-101340000D01*
X96746457Y-101529927D01*
X96771421Y-101606755D01*
X96805473Y-101711556D01*
X96805476Y-101711561D01*
X96899831Y-101874990D01*
X96916569Y-101943986D01*
X96899832Y-102000989D01*
X96820474Y-102138441D01*
X96820473Y-102138445D01*
X96761457Y-102320072D01*
X96741496Y-102510000D01*
X96761457Y-102699927D01*
X96783946Y-102769138D01*
X96820473Y-102881556D01*
X96820476Y-102881561D01*
X96915958Y-103046941D01*
X96915965Y-103046951D01*
X97043744Y-103188864D01*
X97043747Y-103188866D01*
X97198248Y-103301118D01*
X97372712Y-103378794D01*
X97559513Y-103418500D01*
X97750487Y-103418500D01*
X97937288Y-103378794D01*
X98111752Y-103301118D01*
X98266253Y-103188866D01*
X98394040Y-103046944D01*
X98489527Y-102881556D01*
X98548542Y-102699928D01*
X98568504Y-102510000D01*
X98548542Y-102320072D01*
X98489527Y-102138444D01*
X98395166Y-101975007D01*
X98378429Y-101906014D01*
X98391752Y-101860638D01*
X104900738Y-101860638D01*
X104920699Y-102050565D01*
X104949254Y-102138445D01*
X104979715Y-102232194D01*
X104979718Y-102232199D01*
X105075200Y-102397579D01*
X105075207Y-102397589D01*
X105202986Y-102539502D01*
X105264241Y-102584006D01*
X105357490Y-102651756D01*
X105531954Y-102729432D01*
X105718755Y-102769138D01*
X105909729Y-102769138D01*
X106096530Y-102729432D01*
X106270994Y-102651756D01*
X106425495Y-102539504D01*
X106425497Y-102539502D01*
X106553276Y-102397589D01*
X106553277Y-102397587D01*
X106553282Y-102397582D01*
X106648769Y-102232194D01*
X106707784Y-102050566D01*
X106727746Y-101860638D01*
X106707784Y-101670710D01*
X106648769Y-101489082D01*
X106648762Y-101489071D01*
X106646082Y-101483048D01*
X106647647Y-101482350D01*
X106632914Y-101421613D01*
X106656136Y-101354522D01*
X106711944Y-101310636D01*
X106782619Y-101303888D01*
X106784943Y-101304359D01*
X106798980Y-101307343D01*
X106834510Y-101314896D01*
X106834513Y-101314896D01*
X107025490Y-101314896D01*
X107077275Y-101303888D01*
X107095613Y-101299990D01*
X107166403Y-101305391D01*
X107223036Y-101348207D01*
X107241644Y-101384299D01*
X107285473Y-101519189D01*
X107285476Y-101519194D01*
X107380958Y-101684574D01*
X107380965Y-101684584D01*
X107508744Y-101826497D01*
X107508747Y-101826499D01*
X107663248Y-101938751D01*
X107837712Y-102016427D01*
X108024513Y-102056133D01*
X108215487Y-102056133D01*
X108402288Y-102016427D01*
X108576752Y-101938751D01*
X108731253Y-101826499D01*
X108815388Y-101733058D01*
X108859034Y-101684584D01*
X108859035Y-101684582D01*
X108859040Y-101684577D01*
X108954527Y-101519189D01*
X109013542Y-101337561D01*
X109033504Y-101147633D01*
X109013542Y-100957705D01*
X108954527Y-100776077D01*
X108859040Y-100610689D01*
X108859038Y-100610687D01*
X108859034Y-100610681D01*
X108731255Y-100468768D01*
X108576752Y-100356515D01*
X108402288Y-100278839D01*
X108215487Y-100239133D01*
X108024513Y-100239133D01*
X107954385Y-100254039D01*
X107883594Y-100248637D01*
X107826961Y-100205820D01*
X107808355Y-100169728D01*
X107764528Y-100034843D01*
X107764527Y-100034841D01*
X107764527Y-100034840D01*
X107669040Y-99869452D01*
X107669038Y-99869450D01*
X107669034Y-99869444D01*
X107541255Y-99727531D01*
X107386752Y-99615278D01*
X107212288Y-99537602D01*
X107025487Y-99497896D01*
X106834513Y-99497896D01*
X106647711Y-99537602D01*
X106473247Y-99615278D01*
X106318744Y-99727531D01*
X106190965Y-99869444D01*
X106190958Y-99869454D01*
X106095476Y-100034834D01*
X106095473Y-100034841D01*
X106036457Y-100216468D01*
X106016496Y-100406396D01*
X106036457Y-100596323D01*
X106062413Y-100676206D01*
X106095473Y-100777952D01*
X106095476Y-100777958D01*
X106098160Y-100783986D01*
X106096595Y-100784682D01*
X106111327Y-100845429D01*
X106088100Y-100912519D01*
X106032289Y-100956401D01*
X105961613Y-100963143D01*
X105959273Y-100962669D01*
X105935919Y-100957705D01*
X105909729Y-100952138D01*
X105718755Y-100952138D01*
X105531953Y-100991844D01*
X105357489Y-101069520D01*
X105202986Y-101181773D01*
X105075207Y-101323686D01*
X105075200Y-101323696D01*
X104979718Y-101489076D01*
X104979715Y-101489083D01*
X104920699Y-101670710D01*
X104900738Y-101860638D01*
X98391752Y-101860638D01*
X98395165Y-101849014D01*
X98474527Y-101711556D01*
X98533542Y-101529928D01*
X98553504Y-101340000D01*
X98533542Y-101150072D01*
X98474527Y-100968444D01*
X98379040Y-100803056D01*
X98379038Y-100803054D01*
X98379034Y-100803048D01*
X98251255Y-100661135D01*
X98096752Y-100548882D01*
X97922288Y-100471206D01*
X97735487Y-100431500D01*
X97544513Y-100431500D01*
X97357711Y-100471206D01*
X97183247Y-100548882D01*
X97028744Y-100661135D01*
X96900965Y-100803048D01*
X96900958Y-100803058D01*
X96805476Y-100968438D01*
X96805473Y-100968444D01*
X96800827Y-100982742D01*
X96746457Y-101150072D01*
X96726496Y-101340000D01*
X90830800Y-101340000D01*
X90830800Y-98910000D01*
X97736496Y-98910000D01*
X97756457Y-99099927D01*
X97786526Y-99192470D01*
X97815473Y-99281556D01*
X97815476Y-99281561D01*
X97910958Y-99446941D01*
X97910965Y-99446951D01*
X98038744Y-99588864D01*
X98063139Y-99606588D01*
X98193248Y-99701118D01*
X98367712Y-99778794D01*
X98554513Y-99818500D01*
X98745487Y-99818500D01*
X98932288Y-99778794D01*
X99106752Y-99701118D01*
X99236861Y-99606587D01*
X99303727Y-99582730D01*
X99372879Y-99598810D01*
X99404557Y-99624213D01*
X99408747Y-99628866D01*
X99563248Y-99741118D01*
X99737712Y-99818794D01*
X99924513Y-99858500D01*
X100115487Y-99858500D01*
X100302288Y-99818794D01*
X100476752Y-99741118D01*
X100631253Y-99628866D01*
X100672794Y-99582730D01*
X100759034Y-99486951D01*
X100759035Y-99486949D01*
X100759040Y-99486944D01*
X100854527Y-99321556D01*
X100913542Y-99139928D01*
X100933504Y-98950000D01*
X100913542Y-98760072D01*
X100854527Y-98578444D01*
X100759040Y-98413056D01*
X100759038Y-98413054D01*
X100759034Y-98413048D01*
X100631255Y-98271135D01*
X100476752Y-98158882D01*
X100411882Y-98130000D01*
X102286496Y-98130000D01*
X102306457Y-98319927D01*
X102323718Y-98373048D01*
X102365473Y-98501556D01*
X102365476Y-98501561D01*
X102460958Y-98666941D01*
X102460965Y-98666951D01*
X102588744Y-98808864D01*
X102649999Y-98853368D01*
X102743248Y-98921118D01*
X102917712Y-98998794D01*
X103104513Y-99038500D01*
X103295487Y-99038500D01*
X103482288Y-98998794D01*
X103656752Y-98921118D01*
X103811253Y-98808866D01*
X103811255Y-98808864D01*
X103939034Y-98666951D01*
X103939035Y-98666949D01*
X103939040Y-98666944D01*
X104034527Y-98501556D01*
X104043156Y-98475000D01*
X117731496Y-98475000D01*
X117751457Y-98664927D01*
X117781526Y-98757470D01*
X117810473Y-98846556D01*
X117810476Y-98846561D01*
X117905958Y-99011941D01*
X117905965Y-99011951D01*
X118033744Y-99153864D01*
X118033747Y-99153866D01*
X118188248Y-99266118D01*
X118362712Y-99343794D01*
X118549513Y-99383500D01*
X118740487Y-99383500D01*
X118927288Y-99343794D01*
X119101752Y-99266118D01*
X119256253Y-99153866D01*
X119384040Y-99011944D01*
X119479527Y-98846556D01*
X119538542Y-98664928D01*
X119558504Y-98475000D01*
X119538542Y-98285072D01*
X119479527Y-98103444D01*
X119384040Y-97938056D01*
X119384038Y-97938054D01*
X119384034Y-97938048D01*
X119256255Y-97796135D01*
X119101752Y-97683882D01*
X118927288Y-97606206D01*
X118756953Y-97570000D01*
X125436496Y-97570000D01*
X125456457Y-97759927D01*
X125468222Y-97796134D01*
X125515473Y-97941556D01*
X125515476Y-97941561D01*
X125610958Y-98106941D01*
X125610965Y-98106951D01*
X125738744Y-98248864D01*
X125777842Y-98277270D01*
X125893248Y-98361118D01*
X126067712Y-98438794D01*
X126254513Y-98478500D01*
X126445487Y-98478500D01*
X126632288Y-98438794D01*
X126806752Y-98361118D01*
X126961253Y-98248866D01*
X127042275Y-98158882D01*
X127089034Y-98106951D01*
X127089035Y-98106949D01*
X127089040Y-98106944D01*
X127184527Y-97941556D01*
X127243542Y-97759928D01*
X127263504Y-97570000D01*
X127243542Y-97380072D01*
X127184527Y-97198444D01*
X127089040Y-97033056D01*
X127089038Y-97033054D01*
X127089034Y-97033048D01*
X126961255Y-96891135D01*
X126806752Y-96778882D01*
X126632288Y-96701206D01*
X126445487Y-96661500D01*
X126254513Y-96661500D01*
X126067711Y-96701206D01*
X125893247Y-96778882D01*
X125738744Y-96891135D01*
X125610965Y-97033048D01*
X125610958Y-97033058D01*
X125515476Y-97198438D01*
X125515473Y-97198445D01*
X125456457Y-97380072D01*
X125436496Y-97570000D01*
X118756953Y-97570000D01*
X118740487Y-97566500D01*
X118549513Y-97566500D01*
X118362711Y-97606206D01*
X118188247Y-97683882D01*
X118033744Y-97796135D01*
X117905965Y-97938048D01*
X117905958Y-97938058D01*
X117846406Y-98041206D01*
X117810473Y-98103444D01*
X117805457Y-98118882D01*
X117751457Y-98285072D01*
X117731496Y-98475000D01*
X104043156Y-98475000D01*
X104093542Y-98319928D01*
X104113504Y-98130000D01*
X104093542Y-97940072D01*
X104034527Y-97758444D01*
X103939040Y-97593056D01*
X103939038Y-97593054D01*
X103939034Y-97593048D01*
X103811255Y-97451135D01*
X103656752Y-97338882D01*
X103482288Y-97261206D01*
X103295487Y-97221500D01*
X103104513Y-97221500D01*
X102917711Y-97261206D01*
X102743247Y-97338882D01*
X102588744Y-97451135D01*
X102460965Y-97593048D01*
X102460958Y-97593058D01*
X102365476Y-97758438D01*
X102365473Y-97758445D01*
X102306457Y-97940072D01*
X102286496Y-98130000D01*
X100411882Y-98130000D01*
X100302288Y-98081206D01*
X100115487Y-98041500D01*
X99924513Y-98041500D01*
X99737711Y-98081206D01*
X99563246Y-98158883D01*
X99563243Y-98158884D01*
X99433138Y-98253411D01*
X99366271Y-98277270D01*
X99297119Y-98261189D01*
X99265442Y-98235786D01*
X99261253Y-98231134D01*
X99106752Y-98118882D01*
X98932288Y-98041206D01*
X98745487Y-98001500D01*
X98554513Y-98001500D01*
X98367711Y-98041206D01*
X98193247Y-98118882D01*
X98038744Y-98231135D01*
X97910965Y-98373048D01*
X97910958Y-98373058D01*
X97815476Y-98538438D01*
X97815473Y-98538445D01*
X97756457Y-98720072D01*
X97736496Y-98910000D01*
X90830800Y-98910000D01*
X90830800Y-95630000D01*
X114226496Y-95630000D01*
X114246457Y-95819927D01*
X114272721Y-95900756D01*
X114305473Y-96001556D01*
X114305476Y-96001561D01*
X114400958Y-96166941D01*
X114400965Y-96166951D01*
X114528744Y-96308864D01*
X114528747Y-96308866D01*
X114683248Y-96421118D01*
X114857712Y-96498794D01*
X115044513Y-96538500D01*
X115235487Y-96538500D01*
X115422288Y-96498794D01*
X115596752Y-96421118D01*
X115751253Y-96308866D01*
X115751255Y-96308864D01*
X115879034Y-96166951D01*
X115879035Y-96166949D01*
X115879040Y-96166944D01*
X115971364Y-96007035D01*
X130440345Y-96007035D01*
X130460306Y-96196962D01*
X130519323Y-96378595D01*
X130577743Y-96479780D01*
X130594481Y-96548775D01*
X130577744Y-96605779D01*
X130536228Y-96677687D01*
X130477211Y-96859318D01*
X130457250Y-97049246D01*
X130477211Y-97239173D01*
X130507280Y-97331716D01*
X130536227Y-97420802D01*
X130536230Y-97420807D01*
X130631712Y-97586187D01*
X130631719Y-97586197D01*
X130759498Y-97728110D01*
X130759501Y-97728112D01*
X130914002Y-97840364D01*
X131088466Y-97918040D01*
X131275267Y-97957746D01*
X131466241Y-97957746D01*
X131653042Y-97918040D01*
X131827506Y-97840364D01*
X131982007Y-97728112D01*
X132109794Y-97586190D01*
X132205281Y-97420802D01*
X132264296Y-97239174D01*
X132284258Y-97049246D01*
X132264296Y-96859318D01*
X132205281Y-96677690D01*
X132148661Y-96579623D01*
X132146859Y-96576501D01*
X132130120Y-96507506D01*
X132146858Y-96450500D01*
X132188376Y-96378591D01*
X132188379Y-96378581D01*
X132188573Y-96378148D01*
X132188757Y-96377930D01*
X132191679Y-96372871D01*
X132192603Y-96373404D01*
X132234546Y-96324046D01*
X132302471Y-96303388D01*
X132370781Y-96322732D01*
X132397322Y-96345071D01*
X132418747Y-96368866D01*
X132573248Y-96481118D01*
X132747712Y-96558794D01*
X132934513Y-96598500D01*
X133125487Y-96598500D01*
X133312288Y-96558794D01*
X133456448Y-96494609D01*
X133526814Y-96485176D01*
X133566986Y-96499293D01*
X133567001Y-96499261D01*
X133567404Y-96499440D01*
X133570695Y-96500597D01*
X133573027Y-96501942D01*
X133573033Y-96501947D01*
X133747497Y-96579623D01*
X133934298Y-96619329D01*
X134125272Y-96619329D01*
X134312073Y-96579623D01*
X134486537Y-96501947D01*
X134641038Y-96389695D01*
X134641040Y-96389693D01*
X134768819Y-96247780D01*
X134768820Y-96247778D01*
X134768825Y-96247773D01*
X134864312Y-96082385D01*
X134923327Y-95900757D01*
X134943289Y-95710829D01*
X134923327Y-95520901D01*
X134864312Y-95339273D01*
X134768825Y-95173885D01*
X134768823Y-95173883D01*
X134768819Y-95173877D01*
X134641040Y-95031964D01*
X134486537Y-94919711D01*
X134312073Y-94842035D01*
X134125272Y-94802329D01*
X133934298Y-94802329D01*
X133747494Y-94842035D01*
X133603336Y-94906218D01*
X133532969Y-94915652D01*
X133492798Y-94901534D01*
X133492784Y-94901568D01*
X133492376Y-94901386D01*
X133489094Y-94900233D01*
X133486762Y-94898887D01*
X133486753Y-94898883D01*
X133486752Y-94898882D01*
X133312288Y-94821206D01*
X133125487Y-94781500D01*
X132934513Y-94781500D01*
X132747711Y-94821206D01*
X132573247Y-94898882D01*
X132418744Y-95011135D01*
X132290965Y-95153048D01*
X132290958Y-95153058D01*
X132195470Y-95318448D01*
X132195263Y-95318914D01*
X132195071Y-95319139D01*
X132192171Y-95324163D01*
X132191251Y-95323632D01*
X132149276Y-95373005D01*
X132081347Y-95393646D01*
X132013041Y-95374286D01*
X131986525Y-95351962D01*
X131975094Y-95339267D01*
X131965102Y-95328169D01*
X131959588Y-95324163D01*
X131810601Y-95215917D01*
X131636137Y-95138241D01*
X131449336Y-95098535D01*
X131258362Y-95098535D01*
X131071560Y-95138241D01*
X130897096Y-95215917D01*
X130742593Y-95328170D01*
X130614814Y-95470083D01*
X130614807Y-95470093D01*
X130519325Y-95635473D01*
X130519322Y-95635480D01*
X130460306Y-95817107D01*
X130440345Y-96007035D01*
X115971364Y-96007035D01*
X115974527Y-96001556D01*
X116033542Y-95819928D01*
X116053504Y-95630000D01*
X116033542Y-95440072D01*
X115974527Y-95258444D01*
X115879040Y-95093056D01*
X115879038Y-95093054D01*
X115879034Y-95093048D01*
X115751255Y-94951135D01*
X115596752Y-94838882D01*
X115422288Y-94761206D01*
X115235487Y-94721500D01*
X115044513Y-94721500D01*
X114857711Y-94761206D01*
X114683247Y-94838882D01*
X114528744Y-94951135D01*
X114400965Y-95093048D01*
X114400958Y-95093058D01*
X114305476Y-95258438D01*
X114305473Y-95258445D01*
X114246457Y-95440072D01*
X114226496Y-95630000D01*
X90830800Y-95630000D01*
X90830800Y-92860000D01*
X91336496Y-92860000D01*
X91356457Y-93049927D01*
X91373941Y-93103735D01*
X91415473Y-93231556D01*
X91415476Y-93231561D01*
X91510958Y-93396941D01*
X91510965Y-93396951D01*
X91638744Y-93538864D01*
X91664019Y-93557227D01*
X91793248Y-93651118D01*
X91967712Y-93728794D01*
X92154513Y-93768500D01*
X92345487Y-93768500D01*
X92532288Y-93728794D01*
X92706752Y-93651118D01*
X92861253Y-93538866D01*
X92989040Y-93396944D01*
X93006155Y-93367300D01*
X109504696Y-93367300D01*
X109524657Y-93557227D01*
X109554726Y-93649770D01*
X109583673Y-93738856D01*
X109583676Y-93738861D01*
X109679158Y-93904241D01*
X109679165Y-93904251D01*
X109806944Y-94046164D01*
X109868199Y-94090668D01*
X109961448Y-94158418D01*
X110135912Y-94236094D01*
X110322713Y-94275800D01*
X110513687Y-94275800D01*
X110700488Y-94236094D01*
X110874952Y-94158418D01*
X111029453Y-94046166D01*
X111141648Y-93921561D01*
X111157234Y-93904251D01*
X111157235Y-93904249D01*
X111157240Y-93904244D01*
X111252727Y-93738856D01*
X111311742Y-93557228D01*
X111312502Y-93550000D01*
X113356496Y-93550000D01*
X113376457Y-93739927D01*
X113406526Y-93832470D01*
X113435473Y-93921556D01*
X113435476Y-93921561D01*
X113530958Y-94086941D01*
X113530965Y-94086951D01*
X113658744Y-94228864D01*
X113658747Y-94228866D01*
X113813248Y-94341118D01*
X113987712Y-94418794D01*
X114174513Y-94458500D01*
X114365487Y-94458500D01*
X114552288Y-94418794D01*
X114726752Y-94341118D01*
X114881253Y-94228866D01*
X114944685Y-94158418D01*
X115009034Y-94086951D01*
X115009035Y-94086949D01*
X115009040Y-94086944D01*
X115104527Y-93921556D01*
X115163542Y-93739928D01*
X115183504Y-93550000D01*
X115163542Y-93360072D01*
X115104527Y-93178444D01*
X115009040Y-93013056D01*
X115009038Y-93013054D01*
X115009034Y-93013048D01*
X114881255Y-92871135D01*
X114726752Y-92758882D01*
X114552288Y-92681206D01*
X114365487Y-92641500D01*
X114174513Y-92641500D01*
X113987711Y-92681206D01*
X113813247Y-92758882D01*
X113658744Y-92871135D01*
X113530965Y-93013048D01*
X113530958Y-93013058D01*
X113435476Y-93178438D01*
X113435473Y-93178445D01*
X113376457Y-93360072D01*
X113356496Y-93550000D01*
X111312502Y-93550000D01*
X111331704Y-93367300D01*
X111311742Y-93177372D01*
X111252727Y-92995744D01*
X111157240Y-92830356D01*
X111157238Y-92830354D01*
X111157234Y-92830348D01*
X111029455Y-92688435D01*
X110874952Y-92576182D01*
X110700488Y-92498506D01*
X110513687Y-92458800D01*
X110322713Y-92458800D01*
X110135911Y-92498506D01*
X109961447Y-92576182D01*
X109806944Y-92688435D01*
X109679165Y-92830348D01*
X109679158Y-92830358D01*
X109586804Y-92990321D01*
X109583673Y-92995744D01*
X109578287Y-93012320D01*
X109524657Y-93177372D01*
X109504696Y-93367300D01*
X93006155Y-93367300D01*
X93084527Y-93231556D01*
X93143542Y-93049928D01*
X93163504Y-92860000D01*
X93143542Y-92670072D01*
X93084527Y-92488444D01*
X92989040Y-92323056D01*
X92989038Y-92323054D01*
X92989034Y-92323048D01*
X92861255Y-92181135D01*
X92706752Y-92068882D01*
X92532288Y-91991206D01*
X92345487Y-91951500D01*
X92154513Y-91951500D01*
X91967711Y-91991206D01*
X91793247Y-92068882D01*
X91638744Y-92181135D01*
X91510965Y-92323048D01*
X91510958Y-92323058D01*
X91415476Y-92488438D01*
X91415473Y-92488445D01*
X91356457Y-92670072D01*
X91336496Y-92860000D01*
X90830800Y-92860000D01*
X90830800Y-89872400D01*
X94211875Y-89872400D01*
X94231112Y-90043144D01*
X94287864Y-90205330D01*
X94287865Y-90205333D01*
X94379279Y-90350817D01*
X94379280Y-90350819D01*
X94446766Y-90418305D01*
X94480792Y-90480617D01*
X94475727Y-90551432D01*
X94446766Y-90596495D01*
X94379280Y-90663980D01*
X94379279Y-90663982D01*
X94287865Y-90809466D01*
X94287864Y-90809469D01*
X94231112Y-90971655D01*
X94211875Y-91142400D01*
X94231112Y-91313144D01*
X94287864Y-91475330D01*
X94287865Y-91475333D01*
X94379279Y-91620817D01*
X94379280Y-91620819D01*
X94446766Y-91688305D01*
X94480792Y-91750617D01*
X94475727Y-91821432D01*
X94446766Y-91866495D01*
X94379280Y-91933980D01*
X94379279Y-91933982D01*
X94287865Y-92079466D01*
X94287864Y-92079469D01*
X94231112Y-92241655D01*
X94211875Y-92412400D01*
X94231112Y-92583144D01*
X94287864Y-92745330D01*
X94287865Y-92745333D01*
X94379279Y-92890817D01*
X94379280Y-92890819D01*
X94500780Y-93012319D01*
X94500782Y-93012320D01*
X94646266Y-93103734D01*
X94646267Y-93103734D01*
X94646270Y-93103736D01*
X94808454Y-93160487D01*
X94808453Y-93160487D01*
X94825743Y-93162434D01*
X94979200Y-93179725D01*
X95149946Y-93160487D01*
X95312130Y-93103736D01*
X95457619Y-93012319D01*
X95566911Y-92903026D01*
X95629221Y-92869003D01*
X95670110Y-92866915D01*
X95741200Y-92874925D01*
X95741201Y-92874924D01*
X95741203Y-92874925D01*
X95741204Y-92874925D01*
X95785795Y-92869900D01*
X95855727Y-92882147D01*
X95866927Y-92888411D01*
X95967070Y-92951336D01*
X96129254Y-93008087D01*
X96129253Y-93008087D01*
X96146543Y-93010034D01*
X96300000Y-93027325D01*
X96470746Y-93008087D01*
X96632930Y-92951336D01*
X96778419Y-92859919D01*
X96899919Y-92738419D01*
X96991336Y-92592930D01*
X97048087Y-92430746D01*
X97067325Y-92260000D01*
X97048087Y-92089254D01*
X96991336Y-91927070D01*
X96991335Y-91927069D01*
X96991336Y-91927069D01*
X96971334Y-91895238D01*
X96952027Y-91826917D01*
X96971334Y-91761162D01*
X96991336Y-91729330D01*
X97048087Y-91567146D01*
X97067325Y-91396400D01*
X97048087Y-91225654D01*
X96991336Y-91063470D01*
X96987295Y-91057040D01*
X96967986Y-90988721D01*
X96987296Y-90922959D01*
X96991336Y-90916530D01*
X97048087Y-90754346D01*
X97067325Y-90583600D01*
X97048087Y-90412854D01*
X96991336Y-90250670D01*
X96991335Y-90250669D01*
X96991336Y-90250669D01*
X96971334Y-90218838D01*
X96952027Y-90150517D01*
X96971334Y-90084762D01*
X96991336Y-90052930D01*
X97048087Y-89890746D01*
X97055540Y-89824600D01*
X105277675Y-89824600D01*
X105296912Y-89995344D01*
X105353664Y-90157530D01*
X105353665Y-90157533D01*
X105445079Y-90303017D01*
X105445080Y-90303019D01*
X105512566Y-90370505D01*
X105546592Y-90432817D01*
X105541527Y-90503632D01*
X105512566Y-90548695D01*
X105445080Y-90616180D01*
X105445079Y-90616182D01*
X105353665Y-90761666D01*
X105353664Y-90761669D01*
X105296912Y-90923855D01*
X105277675Y-91094600D01*
X105296912Y-91265344D01*
X105353664Y-91427530D01*
X105353665Y-91427533D01*
X105445079Y-91573017D01*
X105445080Y-91573019D01*
X105512566Y-91640505D01*
X105546592Y-91702817D01*
X105541527Y-91773632D01*
X105512566Y-91818695D01*
X105445080Y-91886180D01*
X105445079Y-91886182D01*
X105353665Y-92031666D01*
X105353664Y-92031669D01*
X105296912Y-92193855D01*
X105277675Y-92364600D01*
X105296912Y-92535344D01*
X105353664Y-92697530D01*
X105353665Y-92697533D01*
X105445079Y-92843017D01*
X105445080Y-92843019D01*
X105566580Y-92964519D01*
X105566582Y-92964520D01*
X105712066Y-93055934D01*
X105712067Y-93055934D01*
X105712070Y-93055936D01*
X105874254Y-93112687D01*
X105874253Y-93112687D01*
X105891543Y-93114634D01*
X106045000Y-93131925D01*
X106215746Y-93112687D01*
X106377930Y-93055936D01*
X106473734Y-92995738D01*
X106523416Y-92964521D01*
X106523416Y-92964520D01*
X106523419Y-92964519D01*
X106632711Y-92855226D01*
X106695021Y-92821203D01*
X106735910Y-92819115D01*
X106807000Y-92827125D01*
X106807001Y-92827124D01*
X106807003Y-92827125D01*
X106807004Y-92827125D01*
X106851595Y-92822100D01*
X106921527Y-92834347D01*
X106932727Y-92840611D01*
X107032870Y-92903536D01*
X107195054Y-92960287D01*
X107195053Y-92960287D01*
X107212343Y-92962234D01*
X107365800Y-92979525D01*
X107536546Y-92960287D01*
X107698730Y-92903536D01*
X107844219Y-92812119D01*
X107965719Y-92690619D01*
X108057136Y-92545130D01*
X108113887Y-92382946D01*
X108133125Y-92212200D01*
X108113887Y-92041454D01*
X108057136Y-91879270D01*
X108057135Y-91879269D01*
X108057136Y-91879269D01*
X108037134Y-91847438D01*
X108017827Y-91779117D01*
X108037134Y-91713362D01*
X108057136Y-91681530D01*
X108113887Y-91519346D01*
X108133125Y-91348600D01*
X108113887Y-91177854D01*
X108057136Y-91015670D01*
X108053095Y-91009240D01*
X108033786Y-90940921D01*
X108053096Y-90875159D01*
X108057136Y-90868730D01*
X108113887Y-90706546D01*
X108133125Y-90535800D01*
X108113887Y-90365054D01*
X108057136Y-90202870D01*
X108057135Y-90202869D01*
X108057136Y-90202869D01*
X108037134Y-90171038D01*
X108017827Y-90102717D01*
X108037134Y-90036962D01*
X108057136Y-90005130D01*
X108113887Y-89842946D01*
X108133125Y-89672200D01*
X108113887Y-89501454D01*
X108057136Y-89339270D01*
X108021174Y-89282037D01*
X108001867Y-89213716D01*
X108021174Y-89147963D01*
X108040922Y-89116534D01*
X108057136Y-89090730D01*
X108113887Y-88928546D01*
X108133125Y-88757800D01*
X108114264Y-88590400D01*
X112270296Y-88590400D01*
X112290257Y-88780327D01*
X112298469Y-88805600D01*
X112349273Y-88961956D01*
X112349276Y-88961961D01*
X112444758Y-89127341D01*
X112444765Y-89127351D01*
X112572544Y-89269264D01*
X112587439Y-89280086D01*
X112727048Y-89381518D01*
X112901512Y-89459194D01*
X113088313Y-89498900D01*
X113279287Y-89498900D01*
X113466088Y-89459194D01*
X113640552Y-89381518D01*
X113795053Y-89269266D01*
X113805861Y-89257263D01*
X113922834Y-89127351D01*
X113922835Y-89127349D01*
X113922840Y-89127344D01*
X114018327Y-88961956D01*
X114077342Y-88780328D01*
X114097304Y-88590400D01*
X114096253Y-88580400D01*
X114397296Y-88580400D01*
X114417257Y-88770327D01*
X114447326Y-88862870D01*
X114476273Y-88951956D01*
X114490355Y-88976346D01*
X114571758Y-89117341D01*
X114571765Y-89117351D01*
X114699544Y-89259264D01*
X114699547Y-89259266D01*
X114854048Y-89371518D01*
X115028512Y-89449194D01*
X115215313Y-89488900D01*
X115406287Y-89488900D01*
X115593088Y-89449194D01*
X115760879Y-89374488D01*
X115831244Y-89365055D01*
X115895541Y-89395161D01*
X115933354Y-89455250D01*
X115932679Y-89526243D01*
X115931055Y-89531211D01*
X115879112Y-89679655D01*
X115859875Y-89850400D01*
X115879112Y-90021144D01*
X115935864Y-90183330D01*
X115935865Y-90183333D01*
X116027279Y-90328817D01*
X116027280Y-90328819D01*
X116094766Y-90396305D01*
X116128792Y-90458617D01*
X116123727Y-90529432D01*
X116094766Y-90574495D01*
X116027280Y-90641980D01*
X116027279Y-90641982D01*
X115935865Y-90787466D01*
X115935864Y-90787469D01*
X115879112Y-90949655D01*
X115859875Y-91120400D01*
X115879112Y-91291144D01*
X115935864Y-91453330D01*
X115935865Y-91453333D01*
X116027279Y-91598817D01*
X116027280Y-91598819D01*
X116094766Y-91666305D01*
X116128792Y-91728617D01*
X116123727Y-91799432D01*
X116094766Y-91844495D01*
X116027280Y-91911980D01*
X116027279Y-91911982D01*
X115935865Y-92057466D01*
X115935864Y-92057469D01*
X115879112Y-92219655D01*
X115859875Y-92390400D01*
X115879112Y-92561144D01*
X115935864Y-92723330D01*
X115935865Y-92723333D01*
X116027279Y-92868817D01*
X116027280Y-92868819D01*
X116148780Y-92990319D01*
X116148782Y-92990320D01*
X116294266Y-93081734D01*
X116294267Y-93081734D01*
X116294270Y-93081736D01*
X116456454Y-93138487D01*
X116456453Y-93138487D01*
X116473743Y-93140434D01*
X116627200Y-93157725D01*
X116797946Y-93138487D01*
X116960130Y-93081736D01*
X117070606Y-93012319D01*
X117105616Y-92990321D01*
X117105616Y-92990320D01*
X117105619Y-92990319D01*
X117214911Y-92881026D01*
X117277221Y-92847003D01*
X117318110Y-92844915D01*
X117389200Y-92852925D01*
X117389201Y-92852924D01*
X117389203Y-92852925D01*
X117389204Y-92852925D01*
X117433795Y-92847900D01*
X117503727Y-92860147D01*
X117514927Y-92866411D01*
X117615070Y-92929336D01*
X117777254Y-92986087D01*
X117777253Y-92986087D01*
X117794543Y-92988034D01*
X117948000Y-93005325D01*
X118118746Y-92986087D01*
X118280930Y-92929336D01*
X118426419Y-92837919D01*
X118547919Y-92716419D01*
X118639336Y-92570930D01*
X118696087Y-92408746D01*
X118715325Y-92238000D01*
X118696087Y-92067254D01*
X118639336Y-91905070D01*
X118639335Y-91905069D01*
X118639336Y-91905069D01*
X118626507Y-91884653D01*
X118619333Y-91873236D01*
X118600027Y-91804917D01*
X118619334Y-91739162D01*
X118639336Y-91707330D01*
X118696087Y-91545146D01*
X118715325Y-91374400D01*
X118696087Y-91203654D01*
X118639336Y-91041470D01*
X118635295Y-91035040D01*
X118615986Y-90966721D01*
X118635296Y-90900959D01*
X118639336Y-90894530D01*
X118696087Y-90732346D01*
X118715325Y-90561600D01*
X118696087Y-90390854D01*
X118672134Y-90322400D01*
X131115696Y-90322400D01*
X131135657Y-90512327D01*
X131155857Y-90574495D01*
X131194673Y-90693956D01*
X131194676Y-90693961D01*
X131290158Y-90859341D01*
X131290165Y-90859351D01*
X131417944Y-91001264D01*
X131437772Y-91015670D01*
X131572448Y-91113518D01*
X131746912Y-91191194D01*
X131933713Y-91230900D01*
X132124687Y-91230900D01*
X132311488Y-91191194D01*
X132485952Y-91113518D01*
X132640453Y-91001266D01*
X132670406Y-90968000D01*
X132768234Y-90859351D01*
X132768235Y-90859349D01*
X132768240Y-90859344D01*
X132863727Y-90693956D01*
X132922742Y-90512328D01*
X132942704Y-90322400D01*
X132922742Y-90132472D01*
X132863727Y-89950844D01*
X132768240Y-89785456D01*
X132768238Y-89785454D01*
X132768234Y-89785448D01*
X132640455Y-89643535D01*
X132485952Y-89531282D01*
X132311488Y-89453606D01*
X132124687Y-89413900D01*
X131933713Y-89413900D01*
X131746911Y-89453606D01*
X131572447Y-89531282D01*
X131417944Y-89643535D01*
X131290165Y-89785448D01*
X131290158Y-89785458D01*
X131194676Y-89950838D01*
X131194673Y-89950845D01*
X131135657Y-90132472D01*
X131115696Y-90322400D01*
X118672134Y-90322400D01*
X118639336Y-90228670D01*
X118639335Y-90228669D01*
X118639336Y-90228669D01*
X118624670Y-90205330D01*
X118619333Y-90196836D01*
X118600027Y-90128517D01*
X118619334Y-90062762D01*
X118625512Y-90052930D01*
X118639336Y-90030930D01*
X118696087Y-89868746D01*
X118715325Y-89698000D01*
X118696087Y-89527254D01*
X118639336Y-89365070D01*
X118627467Y-89346181D01*
X118603374Y-89307837D01*
X118584067Y-89239516D01*
X118603374Y-89173763D01*
X118621888Y-89144298D01*
X118639336Y-89116530D01*
X118696087Y-88954346D01*
X118715325Y-88783600D01*
X118696087Y-88612854D01*
X118679412Y-88565200D01*
X123212996Y-88565200D01*
X123232957Y-88755127D01*
X123249357Y-88805600D01*
X123291973Y-88936756D01*
X123302129Y-88954346D01*
X123387458Y-89102141D01*
X123387465Y-89102151D01*
X123515244Y-89244064D01*
X123533411Y-89257263D01*
X123669748Y-89356318D01*
X123844212Y-89433994D01*
X124031013Y-89473700D01*
X124221987Y-89473700D01*
X124408788Y-89433994D01*
X124583252Y-89356318D01*
X124737753Y-89244066D01*
X124751539Y-89228755D01*
X124865534Y-89102151D01*
X124865535Y-89102149D01*
X124865540Y-89102144D01*
X124961027Y-88936756D01*
X125020042Y-88755128D01*
X125040004Y-88565200D01*
X125020042Y-88375272D01*
X124961027Y-88193644D01*
X124865540Y-88028256D01*
X124865538Y-88028254D01*
X124865534Y-88028248D01*
X124737755Y-87886335D01*
X124583252Y-87774082D01*
X124408788Y-87696406D01*
X124221987Y-87656700D01*
X124031013Y-87656700D01*
X123844211Y-87696406D01*
X123669747Y-87774082D01*
X123515244Y-87886335D01*
X123387465Y-88028248D01*
X123387458Y-88028258D01*
X123291976Y-88193638D01*
X123291973Y-88193645D01*
X123232957Y-88375272D01*
X123212996Y-88565200D01*
X118679412Y-88565200D01*
X118639336Y-88450670D01*
X118639334Y-88450667D01*
X118639334Y-88450666D01*
X118547920Y-88305182D01*
X118547919Y-88305180D01*
X118426419Y-88183680D01*
X118426417Y-88183679D01*
X118280933Y-88092265D01*
X118280930Y-88092264D01*
X118200945Y-88064276D01*
X118118746Y-88035513D01*
X118118744Y-88035512D01*
X118118746Y-88035512D01*
X117948000Y-88016275D01*
X117777255Y-88035512D01*
X117615069Y-88092264D01*
X117615066Y-88092265D01*
X117469582Y-88183679D01*
X117469580Y-88183680D01*
X117348080Y-88305180D01*
X117348079Y-88305182D01*
X117256665Y-88450666D01*
X117256664Y-88450669D01*
X117199912Y-88612855D01*
X117180675Y-88783600D01*
X117199912Y-88954344D01*
X117240384Y-89070007D01*
X117244003Y-89140912D01*
X117208714Y-89202517D01*
X117145721Y-89235263D01*
X117075023Y-89228755D01*
X117054419Y-89218309D01*
X116960133Y-89159065D01*
X116960130Y-89159064D01*
X116901459Y-89138534D01*
X116797946Y-89102313D01*
X116797944Y-89102312D01*
X116797946Y-89102312D01*
X116627200Y-89083075D01*
X116456455Y-89102312D01*
X116294262Y-89159066D01*
X116290361Y-89160945D01*
X116287591Y-89161400D01*
X116287591Y-89161401D01*
X116287590Y-89161400D01*
X116220307Y-89172474D01*
X116155141Y-89144298D01*
X116115553Y-89085363D01*
X116114111Y-89014382D01*
X116126580Y-88984425D01*
X116145327Y-88951956D01*
X116204342Y-88770328D01*
X116224304Y-88580400D01*
X116204342Y-88390472D01*
X116145327Y-88208844D01*
X116049840Y-88043456D01*
X116049838Y-88043454D01*
X116049834Y-88043448D01*
X115922055Y-87901535D01*
X115767552Y-87789282D01*
X115593088Y-87711606D01*
X115406287Y-87671900D01*
X115215313Y-87671900D01*
X115028511Y-87711606D01*
X114854047Y-87789282D01*
X114699544Y-87901535D01*
X114571765Y-88043448D01*
X114571758Y-88043458D01*
X114478099Y-88205681D01*
X114476273Y-88208844D01*
X114469510Y-88229658D01*
X114417257Y-88390472D01*
X114397296Y-88580400D01*
X114096253Y-88580400D01*
X114077342Y-88400472D01*
X114018327Y-88218844D01*
X113922840Y-88053456D01*
X113922838Y-88053454D01*
X113922834Y-88053448D01*
X113795055Y-87911535D01*
X113640552Y-87799282D01*
X113466088Y-87721606D01*
X113279287Y-87681900D01*
X113088313Y-87681900D01*
X112901511Y-87721606D01*
X112727047Y-87799282D01*
X112572544Y-87911535D01*
X112444765Y-88053448D01*
X112444758Y-88053458D01*
X112349276Y-88218838D01*
X112349273Y-88218844D01*
X112345757Y-88229665D01*
X112290257Y-88400472D01*
X112270296Y-88590400D01*
X108114264Y-88590400D01*
X108113887Y-88587054D01*
X108057136Y-88424870D01*
X108057134Y-88424867D01*
X108057134Y-88424866D01*
X107965720Y-88279382D01*
X107965719Y-88279380D01*
X107844219Y-88157880D01*
X107844217Y-88157879D01*
X107698733Y-88066465D01*
X107698730Y-88066464D01*
X107692454Y-88064268D01*
X107536546Y-88009713D01*
X107536544Y-88009712D01*
X107536546Y-88009712D01*
X107365800Y-87990475D01*
X107195055Y-88009712D01*
X107032869Y-88066464D01*
X107032866Y-88066465D01*
X106887382Y-88157879D01*
X106887380Y-88157880D01*
X106765880Y-88279380D01*
X106765879Y-88279382D01*
X106674465Y-88424866D01*
X106674464Y-88424869D01*
X106617712Y-88587055D01*
X106598475Y-88757800D01*
X106617712Y-88928544D01*
X106658184Y-89044207D01*
X106661803Y-89115112D01*
X106626514Y-89176717D01*
X106563521Y-89209463D01*
X106492823Y-89202955D01*
X106472219Y-89192509D01*
X106377933Y-89133265D01*
X106377930Y-89133264D01*
X106361003Y-89127341D01*
X106215746Y-89076513D01*
X106215744Y-89076512D01*
X106215746Y-89076512D01*
X106045000Y-89057275D01*
X105874255Y-89076512D01*
X105712069Y-89133264D01*
X105712066Y-89133265D01*
X105566582Y-89224679D01*
X105566580Y-89224680D01*
X105445080Y-89346180D01*
X105445079Y-89346182D01*
X105353665Y-89491666D01*
X105353664Y-89491669D01*
X105296912Y-89653855D01*
X105277675Y-89824600D01*
X97055540Y-89824600D01*
X97067325Y-89720000D01*
X97048087Y-89549254D01*
X96991336Y-89387070D01*
X96991333Y-89387065D01*
X96955374Y-89329837D01*
X96936067Y-89261516D01*
X96955374Y-89195763D01*
X96970007Y-89172474D01*
X96991336Y-89138530D01*
X97048087Y-88976346D01*
X97067325Y-88805600D01*
X97048087Y-88634854D01*
X97036318Y-88601220D01*
X101438496Y-88601220D01*
X101458457Y-88791147D01*
X101488526Y-88883690D01*
X101517473Y-88972776D01*
X101517476Y-88972781D01*
X101612958Y-89138161D01*
X101612965Y-89138171D01*
X101740744Y-89280084D01*
X101740747Y-89280086D01*
X101895248Y-89392338D01*
X102069712Y-89470014D01*
X102256513Y-89509720D01*
X102447487Y-89509720D01*
X102634288Y-89470014D01*
X102808752Y-89392338D01*
X102963253Y-89280086D01*
X102970101Y-89272481D01*
X103091034Y-89138171D01*
X103091035Y-89138169D01*
X103091040Y-89138164D01*
X103186527Y-88972776D01*
X103245542Y-88791148D01*
X103265040Y-88605630D01*
X103273854Y-88584206D01*
X103267513Y-88571612D01*
X103501944Y-88571612D01*
X103514293Y-88596136D01*
X103515659Y-88605633D01*
X103530257Y-88744527D01*
X103560326Y-88837070D01*
X103589273Y-88926156D01*
X103589276Y-88926161D01*
X103684758Y-89091541D01*
X103684765Y-89091551D01*
X103812544Y-89233464D01*
X103861821Y-89269266D01*
X103967048Y-89345718D01*
X104141512Y-89423394D01*
X104328313Y-89463100D01*
X104519287Y-89463100D01*
X104706088Y-89423394D01*
X104880552Y-89345718D01*
X105035053Y-89233466D01*
X105043111Y-89224517D01*
X105162834Y-89091551D01*
X105162835Y-89091549D01*
X105162840Y-89091544D01*
X105258327Y-88926156D01*
X105317342Y-88744528D01*
X105337304Y-88554600D01*
X105317342Y-88364672D01*
X105258327Y-88183044D01*
X105162840Y-88017656D01*
X105162838Y-88017654D01*
X105162834Y-88017648D01*
X105035055Y-87875735D01*
X104880552Y-87763482D01*
X104706088Y-87685806D01*
X104519287Y-87646100D01*
X104328313Y-87646100D01*
X104141511Y-87685806D01*
X103967047Y-87763482D01*
X103812544Y-87875735D01*
X103684765Y-88017648D01*
X103684758Y-88017658D01*
X103589276Y-88183038D01*
X103589273Y-88183044D01*
X103574799Y-88227586D01*
X103530257Y-88364672D01*
X103510760Y-88550185D01*
X103501944Y-88571612D01*
X103267513Y-88571612D01*
X103261506Y-88559682D01*
X103260140Y-88550185D01*
X103245542Y-88411292D01*
X103230394Y-88364672D01*
X103186527Y-88229664D01*
X103091040Y-88064276D01*
X103091038Y-88064274D01*
X103091034Y-88064268D01*
X102963255Y-87922355D01*
X102808752Y-87810102D01*
X102634288Y-87732426D01*
X102447487Y-87692720D01*
X102256513Y-87692720D01*
X102069711Y-87732426D01*
X101895247Y-87810102D01*
X101740744Y-87922355D01*
X101612965Y-88064268D01*
X101612958Y-88064278D01*
X101517476Y-88229658D01*
X101517473Y-88229665D01*
X101458457Y-88411292D01*
X101438496Y-88601220D01*
X97036318Y-88601220D01*
X96991336Y-88472670D01*
X96991334Y-88472667D01*
X96991334Y-88472666D01*
X96899920Y-88327182D01*
X96899919Y-88327180D01*
X96778419Y-88205680D01*
X96778417Y-88205679D01*
X96632933Y-88114265D01*
X96632930Y-88114264D01*
X96470746Y-88057513D01*
X96470744Y-88057512D01*
X96470746Y-88057512D01*
X96300000Y-88038275D01*
X96129255Y-88057512D01*
X95967069Y-88114264D01*
X95967066Y-88114265D01*
X95821582Y-88205679D01*
X95821580Y-88205680D01*
X95700080Y-88327180D01*
X95700079Y-88327182D01*
X95608665Y-88472666D01*
X95608664Y-88472669D01*
X95551912Y-88634855D01*
X95532675Y-88805600D01*
X95551912Y-88976344D01*
X95592384Y-89092007D01*
X95596003Y-89162912D01*
X95560714Y-89224517D01*
X95497721Y-89257263D01*
X95427023Y-89250755D01*
X95406419Y-89240309D01*
X95312133Y-89181065D01*
X95312130Y-89181064D01*
X95260255Y-89162912D01*
X95149946Y-89124313D01*
X95149944Y-89124312D01*
X95149946Y-89124312D01*
X94979200Y-89105075D01*
X94808455Y-89124312D01*
X94646269Y-89181064D01*
X94646266Y-89181065D01*
X94500782Y-89272479D01*
X94500780Y-89272480D01*
X94379280Y-89393980D01*
X94379279Y-89393982D01*
X94287865Y-89539466D01*
X94287864Y-89539469D01*
X94231112Y-89701655D01*
X94211875Y-89872400D01*
X90830800Y-89872400D01*
X90830800Y-88601220D01*
X92396096Y-88601220D01*
X92416057Y-88791147D01*
X92446126Y-88883690D01*
X92475073Y-88972776D01*
X92475076Y-88972781D01*
X92570558Y-89138161D01*
X92570565Y-89138171D01*
X92698344Y-89280084D01*
X92698347Y-89280086D01*
X92852848Y-89392338D01*
X93027312Y-89470014D01*
X93214113Y-89509720D01*
X93405087Y-89509720D01*
X93591888Y-89470014D01*
X93766352Y-89392338D01*
X93920853Y-89280086D01*
X93927701Y-89272481D01*
X94048634Y-89138171D01*
X94048635Y-89138169D01*
X94048640Y-89138164D01*
X94144127Y-88972776D01*
X94203142Y-88791148D01*
X94223104Y-88601220D01*
X94203142Y-88411292D01*
X94144127Y-88229664D01*
X94048640Y-88064276D01*
X94048638Y-88064274D01*
X94048634Y-88064268D01*
X93920855Y-87922355D01*
X93766352Y-87810102D01*
X93591888Y-87732426D01*
X93405087Y-87692720D01*
X93214113Y-87692720D01*
X93027311Y-87732426D01*
X92852847Y-87810102D01*
X92698344Y-87922355D01*
X92570565Y-88064268D01*
X92570558Y-88064278D01*
X92475076Y-88229658D01*
X92475073Y-88229665D01*
X92416057Y-88411292D01*
X92396096Y-88601220D01*
X90830800Y-88601220D01*
X90830800Y-84716990D01*
X90841661Y-84680000D01*
X103206496Y-84680000D01*
X103226457Y-84869927D01*
X103256526Y-84962470D01*
X103285473Y-85051556D01*
X103285476Y-85051561D01*
X103380958Y-85216941D01*
X103380965Y-85216951D01*
X103508744Y-85358864D01*
X103550038Y-85388866D01*
X103663248Y-85471118D01*
X103837712Y-85548794D01*
X104024513Y-85588500D01*
X104215487Y-85588500D01*
X104402288Y-85548794D01*
X104576752Y-85471118D01*
X104731253Y-85358866D01*
X104767271Y-85318864D01*
X104859034Y-85216951D01*
X104859035Y-85216949D01*
X104859040Y-85216944D01*
X104954527Y-85051556D01*
X104995293Y-84926089D01*
X105035367Y-84867486D01*
X105100763Y-84839849D01*
X105170720Y-84851956D01*
X105223026Y-84899962D01*
X105234958Y-84926090D01*
X105285473Y-85081556D01*
X105285476Y-85081561D01*
X105380958Y-85246941D01*
X105380965Y-85246951D01*
X105508744Y-85388864D01*
X105508747Y-85388866D01*
X105663248Y-85501118D01*
X105837712Y-85578794D01*
X106024513Y-85618500D01*
X106215487Y-85618500D01*
X106402288Y-85578794D01*
X106444500Y-85560000D01*
X129006496Y-85560000D01*
X129026457Y-85749927D01*
X129056526Y-85842470D01*
X129085473Y-85931556D01*
X129085476Y-85931561D01*
X129180958Y-86096941D01*
X129180965Y-86096951D01*
X129308744Y-86238864D01*
X129308747Y-86238866D01*
X129463248Y-86351118D01*
X129637712Y-86428794D01*
X129824513Y-86468500D01*
X130015487Y-86468500D01*
X130202288Y-86428794D01*
X130376752Y-86351118D01*
X130531253Y-86238866D01*
X130531255Y-86238864D01*
X130620273Y-86140000D01*
X137536496Y-86140000D01*
X137556457Y-86329927D01*
X137563343Y-86351118D01*
X137615473Y-86511556D01*
X137615476Y-86511561D01*
X137710958Y-86676941D01*
X137710965Y-86676951D01*
X137838744Y-86818864D01*
X137838747Y-86818866D01*
X137993248Y-86931118D01*
X138167712Y-87008794D01*
X138354513Y-87048500D01*
X138545487Y-87048500D01*
X138732288Y-87008794D01*
X138906752Y-86931118D01*
X139061253Y-86818866D01*
X139189040Y-86676944D01*
X139284527Y-86511556D01*
X139343542Y-86329928D01*
X139363504Y-86140000D01*
X139343542Y-85950072D01*
X139284527Y-85768444D01*
X139189040Y-85603056D01*
X139189038Y-85603054D01*
X139189034Y-85603048D01*
X139061255Y-85461135D01*
X138906752Y-85348882D01*
X138732288Y-85271206D01*
X138545487Y-85231500D01*
X138354513Y-85231500D01*
X138167711Y-85271206D01*
X137993247Y-85348882D01*
X137838744Y-85461135D01*
X137710965Y-85603048D01*
X137710958Y-85603058D01*
X137615476Y-85768438D01*
X137615473Y-85768445D01*
X137556457Y-85950072D01*
X137536496Y-86140000D01*
X130620273Y-86140000D01*
X130659034Y-86096951D01*
X130659035Y-86096949D01*
X130659040Y-86096944D01*
X130754527Y-85931556D01*
X130813542Y-85749928D01*
X130833504Y-85560000D01*
X130813542Y-85370072D01*
X130754527Y-85188444D01*
X130659040Y-85023056D01*
X130659038Y-85023054D01*
X130659034Y-85023048D01*
X130531255Y-84881135D01*
X130376752Y-84768882D01*
X130202288Y-84691206D01*
X130015487Y-84651500D01*
X129824513Y-84651500D01*
X129637711Y-84691206D01*
X129463247Y-84768882D01*
X129308744Y-84881135D01*
X129180965Y-85023048D01*
X129180958Y-85023058D01*
X129085476Y-85188438D01*
X129085473Y-85188444D01*
X129071483Y-85231500D01*
X129026457Y-85370072D01*
X129006496Y-85560000D01*
X106444500Y-85560000D01*
X106576752Y-85501118D01*
X106731253Y-85388866D01*
X106794283Y-85318864D01*
X106859034Y-85246951D01*
X106859035Y-85246949D01*
X106859040Y-85246944D01*
X106954527Y-85081556D01*
X107006539Y-84921479D01*
X107046613Y-84862874D01*
X107112009Y-84835237D01*
X107181966Y-84847344D01*
X107234272Y-84895350D01*
X107246204Y-84921478D01*
X107275473Y-85011556D01*
X107275476Y-85011561D01*
X107370958Y-85176941D01*
X107370965Y-85176951D01*
X107498744Y-85318864D01*
X107498747Y-85318866D01*
X107653248Y-85431118D01*
X107827712Y-85508794D01*
X108014513Y-85548500D01*
X108205487Y-85548500D01*
X108392288Y-85508794D01*
X108566752Y-85431118D01*
X108721253Y-85318866D01*
X108764166Y-85271206D01*
X108849034Y-85176951D01*
X108849035Y-85176949D01*
X108849040Y-85176944D01*
X108944527Y-85011556D01*
X109003542Y-84829928D01*
X109023504Y-84640000D01*
X109003542Y-84450072D01*
X108944527Y-84268444D01*
X108882874Y-84161659D01*
X108866137Y-84092665D01*
X108882875Y-84035660D01*
X108884215Y-84033339D01*
X108954527Y-83911556D01*
X109013542Y-83729928D01*
X109033504Y-83540000D01*
X109013542Y-83350072D01*
X108954527Y-83168444D01*
X108890762Y-83058000D01*
X130201296Y-83058000D01*
X130221257Y-83247927D01*
X130246911Y-83326878D01*
X130280273Y-83429556D01*
X130280276Y-83429561D01*
X130375758Y-83594941D01*
X130375765Y-83594951D01*
X130503544Y-83736864D01*
X130564467Y-83781127D01*
X130658048Y-83849118D01*
X130832512Y-83926794D01*
X131019313Y-83966500D01*
X131210287Y-83966500D01*
X131397088Y-83926794D01*
X131571552Y-83849118D01*
X131726053Y-83736866D01*
X131853840Y-83594944D01*
X131949327Y-83429556D01*
X132008342Y-83247928D01*
X132028304Y-83058000D01*
X132008342Y-82868072D01*
X131949327Y-82686444D01*
X131853840Y-82521056D01*
X131853838Y-82521054D01*
X131853834Y-82521048D01*
X131726055Y-82379135D01*
X131571552Y-82266882D01*
X131397088Y-82189206D01*
X131210287Y-82149500D01*
X131019313Y-82149500D01*
X130832511Y-82189206D01*
X130658047Y-82266882D01*
X130503544Y-82379135D01*
X130375765Y-82521048D01*
X130375758Y-82521058D01*
X130280276Y-82686438D01*
X130280273Y-82686445D01*
X130221257Y-82868072D01*
X130201296Y-83058000D01*
X108890762Y-83058000D01*
X108859040Y-83003056D01*
X108859038Y-83003054D01*
X108859034Y-83003048D01*
X108731255Y-82861135D01*
X108576752Y-82748882D01*
X108402288Y-82671206D01*
X108215487Y-82631500D01*
X108024513Y-82631500D01*
X107837711Y-82671206D01*
X107663247Y-82748882D01*
X107508744Y-82861135D01*
X107380965Y-83003048D01*
X107380958Y-83003058D01*
X107285476Y-83168438D01*
X107285472Y-83168445D01*
X107231457Y-83334684D01*
X107191383Y-83393290D01*
X107125986Y-83420926D01*
X107056029Y-83408819D01*
X107003723Y-83360812D01*
X106991791Y-83334684D01*
X106989255Y-83326878D01*
X106934527Y-83158444D01*
X106839040Y-82993056D01*
X106839038Y-82993054D01*
X106839034Y-82993048D01*
X106711255Y-82851135D01*
X106556752Y-82738882D01*
X106382288Y-82661206D01*
X106195487Y-82621500D01*
X106004513Y-82621500D01*
X105817711Y-82661206D01*
X105643247Y-82738882D01*
X105488744Y-82851135D01*
X105360965Y-82993048D01*
X105360958Y-82993058D01*
X105355186Y-83003056D01*
X105265473Y-83158444D01*
X105248201Y-83211602D01*
X105234833Y-83252743D01*
X105194759Y-83311348D01*
X105129362Y-83338985D01*
X105059405Y-83326878D01*
X105007099Y-83278871D01*
X104995167Y-83252743D01*
X104981799Y-83211602D01*
X104964527Y-83158444D01*
X104869040Y-82993056D01*
X104869038Y-82993054D01*
X104869034Y-82993048D01*
X104741255Y-82851135D01*
X104586752Y-82738882D01*
X104412288Y-82661206D01*
X104225487Y-82621500D01*
X104034513Y-82621500D01*
X103847711Y-82661206D01*
X103673247Y-82738882D01*
X103518744Y-82851135D01*
X103390965Y-82993048D01*
X103390958Y-82993058D01*
X103385186Y-83003056D01*
X103295473Y-83158444D01*
X103284700Y-83191599D01*
X103236457Y-83340072D01*
X103216496Y-83530000D01*
X103236457Y-83719927D01*
X103256343Y-83781127D01*
X103295473Y-83901556D01*
X103295476Y-83901561D01*
X103371558Y-84033339D01*
X103388296Y-84102334D01*
X103371558Y-84159339D01*
X103285476Y-84308438D01*
X103285473Y-84308445D01*
X103226457Y-84490072D01*
X103206496Y-84680000D01*
X90841661Y-84680000D01*
X90850802Y-84648869D01*
X90867705Y-84627895D01*
X92267095Y-83228505D01*
X92329407Y-83194479D01*
X92356190Y-83191600D01*
X95961600Y-83191600D01*
X97223200Y-81930000D01*
X118966496Y-81930000D01*
X118986457Y-82119927D01*
X119008968Y-82189206D01*
X119045473Y-82301556D01*
X119045476Y-82301561D01*
X119140958Y-82466941D01*
X119140965Y-82466951D01*
X119268744Y-82608864D01*
X119268747Y-82608866D01*
X119423248Y-82721118D01*
X119597712Y-82798794D01*
X119784513Y-82838500D01*
X119975487Y-82838500D01*
X120162288Y-82798794D01*
X120336752Y-82721118D01*
X120491253Y-82608866D01*
X120570316Y-82521058D01*
X120619034Y-82466951D01*
X120619035Y-82466949D01*
X120619040Y-82466944D01*
X120714527Y-82301556D01*
X120773542Y-82119928D01*
X120793504Y-81930000D01*
X120773542Y-81740072D01*
X120714527Y-81558444D01*
X120619040Y-81393056D01*
X120619038Y-81393054D01*
X120619034Y-81393048D01*
X120491255Y-81251135D01*
X120336752Y-81138882D01*
X120162288Y-81061206D01*
X119975487Y-81021500D01*
X119784513Y-81021500D01*
X119597711Y-81061206D01*
X119423247Y-81138882D01*
X119268744Y-81251135D01*
X119140965Y-81393048D01*
X119140958Y-81393058D01*
X119045476Y-81558438D01*
X119045473Y-81558445D01*
X118986457Y-81740072D01*
X118966496Y-81930000D01*
X97223200Y-81930000D01*
X98223200Y-80930000D01*
X111356496Y-80930000D01*
X111376457Y-81119927D01*
X111406526Y-81212470D01*
X111435473Y-81301556D01*
X111435476Y-81301561D01*
X111530958Y-81466941D01*
X111530965Y-81466951D01*
X111658744Y-81608864D01*
X111658747Y-81608866D01*
X111813248Y-81721118D01*
X111987712Y-81798794D01*
X112174513Y-81838500D01*
X112365487Y-81838500D01*
X112552288Y-81798794D01*
X112726752Y-81721118D01*
X112881253Y-81608866D01*
X112881255Y-81608864D01*
X113009034Y-81466951D01*
X113009035Y-81466949D01*
X113009040Y-81466944D01*
X113104527Y-81301556D01*
X113163542Y-81119928D01*
X113183504Y-80930000D01*
X113163542Y-80740072D01*
X113104527Y-80558444D01*
X113009040Y-80393056D01*
X113009038Y-80393054D01*
X113009034Y-80393048D01*
X112881255Y-80251135D01*
X112726752Y-80138882D01*
X112552288Y-80061206D01*
X112365487Y-80021500D01*
X112174513Y-80021500D01*
X111987711Y-80061206D01*
X111813247Y-80138882D01*
X111658744Y-80251135D01*
X111530965Y-80393048D01*
X111530958Y-80393058D01*
X111435476Y-80558438D01*
X111435473Y-80558445D01*
X111376457Y-80740072D01*
X111356496Y-80930000D01*
X98223200Y-80930000D01*
X98400000Y-80753200D01*
X98400000Y-77657623D01*
X98420002Y-77589502D01*
X98439131Y-77566355D01*
X100363556Y-75734686D01*
X100426687Y-75702212D01*
X100450307Y-75699956D01*
X131520149Y-75673244D01*
X131588284Y-75693188D01*
G37*
%TD.AperFunction*%
%TD*%
M02*
